M48
;DRILL file {KiCad (5.0.2)-1} date 30/01/2019 15:40:02
;FORMAT={-:-/ absolute / metric / decimal}
FMAT,2
METRIC,TZ
T1C0.300
T2C0.800
T3C1.000
%
G90
G05
T1
X23.Y-27.
X23.Y-33.
X23.Y-36.
X23.Y-40.
X23.Y-43.
X23.Y-47.
X24.Y-51.
X25.Y-30.
X25.5Y-24.
X26.Y-49.
X27.Y-22.5
X27.Y-25.5
X27.5Y-31.5
X27.5Y-45.
X29.Y-40.
X29.Y-57.
X31.Y-38.
X31.Y-45.5
X31.5Y-23.
X31.9Y-27.5
X32.5Y-47.
X33.Y-33.
X35.Y-48.
X36.Y-54.
X36.5Y-23.
X36.5Y-27.5
X36.9Y-44.
X37.Y-38.
X37.Y-40.
X37.9Y-44.
X38.9Y-44.
X39.Y-36.
X39.Y-38.
X39.Y-40.
X39.5Y-29.
X40.Y-31.
X40.5Y-27.5
X41.Y-36.
X41.Y-38.
X41.Y-40.
X41.Y-42.
X42.Y-26.
X42.5Y-50.5
X42.5Y-52.5
X43.Y-38.
X43.Y-40.
X44.Y-29.
X44.Y-32.5
X44.4Y-42.2
X44.5Y-27.5
X45.Y-58.
X45.8Y-52.5
X48.Y-29.
X48.Y-46.
X49.Y-28.
X49.Y-58.
X50.Y-22.5
X50.Y-27.
X50.Y-29.
X51.Y-48.5
X54.Y-22.5
X54.Y-27.
T2
X23.Y-38.
X25.Y-38.
X44.Y-24.
X46.Y-24.
T3
X40.Y-56.
X42.54Y-56.
X45.08Y-56.
X47.62Y-56.
X50.16Y-56.
X52.7Y-56.
T0
M30
