%FSLAX45Y45*%
G04 Gerber Fmt 4.5, Leading zero omitted, Abs format (unit mm)*
G04 Created by KiCad (PCBNEW 5.0.2-bee76a0~70~ubuntu16.04.1) date fre 15 feb 2019 09:46:43*
%MOMM*%
%LPD*%
G01*
G04 APERTURE LIST*
%ADD10C,0.150000*%
%ADD11C,0.200000*%
%ADD12C,0.300000*%
G04 APERTURE END LIST*
D10*
X9530000Y-9450000D02*
X9530000Y-4640000D01*
X18280000Y-9450000D02*
X9530000Y-9450000D01*
X18310000Y-4640000D02*
X18310000Y-9450000D01*
X9530000Y-4640000D02*
X18280000Y-4640000D01*
D11*
D12*
X9808928Y-9923214D02*
X9808928Y-9623214D01*
X9880357Y-9623214D01*
X9923214Y-9637500D01*
X9951786Y-9666072D01*
X9966071Y-9694643D01*
X9980357Y-9751786D01*
X9980357Y-9794643D01*
X9966071Y-9851786D01*
X9951786Y-9880357D01*
X9923214Y-9908929D01*
X9880357Y-9923214D01*
X9808928Y-9923214D01*
X10108928Y-9923214D02*
X10108928Y-9723214D01*
X10108928Y-9780357D02*
X10123214Y-9751786D01*
X10137500Y-9737500D01*
X10166071Y-9723214D01*
X10194643Y-9723214D01*
X10294643Y-9923214D02*
X10294643Y-9723214D01*
X10294643Y-9623214D02*
X10280357Y-9637500D01*
X10294643Y-9651786D01*
X10308928Y-9637500D01*
X10294643Y-9623214D01*
X10294643Y-9651786D01*
X10480357Y-9923214D02*
X10451786Y-9908929D01*
X10437500Y-9880357D01*
X10437500Y-9623214D01*
X10637500Y-9923214D02*
X10608928Y-9908929D01*
X10594643Y-9880357D01*
X10594643Y-9623214D01*
X10980357Y-9923214D02*
X10980357Y-9623214D01*
X11080357Y-9837500D01*
X11180357Y-9623214D01*
X11180357Y-9923214D01*
X11451786Y-9923214D02*
X11451786Y-9766072D01*
X11437500Y-9737500D01*
X11408928Y-9723214D01*
X11351786Y-9723214D01*
X11323214Y-9737500D01*
X11451786Y-9908929D02*
X11423214Y-9923214D01*
X11351786Y-9923214D01*
X11323214Y-9908929D01*
X11308928Y-9880357D01*
X11308928Y-9851786D01*
X11323214Y-9823214D01*
X11351786Y-9808929D01*
X11423214Y-9808929D01*
X11451786Y-9794643D01*
X11594643Y-9723214D02*
X11594643Y-10023214D01*
X11594643Y-9737500D02*
X11623214Y-9723214D01*
X11680357Y-9723214D01*
X11708928Y-9737500D01*
X11723214Y-9751786D01*
X11737500Y-9780357D01*
X11737500Y-9866072D01*
X11723214Y-9894643D01*
X11708928Y-9908929D01*
X11680357Y-9923214D01*
X11623214Y-9923214D01*
X11594643Y-9908929D01*
X11866071Y-9894643D02*
X11880357Y-9908929D01*
X11866071Y-9923214D01*
X11851786Y-9908929D01*
X11866071Y-9894643D01*
X11866071Y-9923214D01*
X11866071Y-9737500D02*
X11880357Y-9751786D01*
X11866071Y-9766072D01*
X11851786Y-9751786D01*
X11866071Y-9737500D01*
X11866071Y-9766072D01*
M02*
