M48
;DRILL file {KiCad 5.0.2-bee76a0~70~ubuntu16.04.1} date fre 15 feb 2019 10:17:36
;FORMAT={-:-/ absolute / inch / decimal}
FMAT,2
INCH,TZ
T1C0.0118
T2C0.0197
T3C0.0236
T4C0.0256
T5C0.0315
T6C0.0394
T7C0.0827
T8C0.1000
T9C0.1969
%
G90
G05
T1
X3.8878Y-2.3622
X3.9055Y-2.6496
X4.Y-2.6496
X4.0315Y-2.4803
X4.0531Y-2.9134
X4.0531Y-3.0118
X4.0748Y-3.4547
X4.0846Y-3.2283
X4.1063Y-2.6496
X4.1634Y-2.4803
X4.1929Y-3.4921
X4.2047Y-2.6496
X4.2283Y-2.7559
X4.2283Y-2.874
X4.2283Y-3.0118
X4.252Y-3.248
X4.2618Y-3.3661
X4.2638Y-2.4843
X4.3071Y-2.5197
X4.3346Y-3.563
X4.3504Y-2.3819
X4.3898Y-2.7559
X4.3898Y-2.874
X4.4291Y-3.0217
X4.4291Y-3.2382
X4.4449Y-3.6024
X4.4587Y-2.4803
X4.4882Y-2.7559
X4.4882Y-2.874
X4.5079Y-3.3858
X4.5512Y-3.6024
X4.5866Y-2.8346
X4.622Y-2.4921
X4.6299Y-3.3898
X4.6555Y-2.6673
X4.7087Y-2.4055
X4.7461Y-2.563
X4.748Y-2.6969
X4.75Y-2.8563
X4.753Y-3.3081
X4.7598Y-3.0276
X4.7953Y-2.3228
X4.8622Y-2.4606
X4.8622Y-2.628
X4.8622Y-2.8445
X4.878Y-2.2402
X4.8819Y-3.2087
X4.9213Y-2.7067
X4.9213Y-2.7756
X4.9902Y-2.7362
X5.0039Y-2.3071
X5.0295Y-2.5
X5.0295Y-2.5689
X5.0295Y-2.6378
X5.0354Y-2.8346
X5.0354Y-2.9252
X5.0354Y-3.0561
X5.0354Y-3.128
X5.0669Y-2.3091
X5.0886Y-3.2087
X5.0886Y-3.3169
X5.1142Y-2.3898
X5.1142Y-2.437
X5.1614Y-2.8504
X5.1614Y-3.062
X5.1969Y-3.2087
X5.2067Y-2.811
X5.2362Y-3.3307
X5.248Y-2.9961
X5.2559Y-2.4213
X5.2598Y-2.5079
X5.2598Y-2.5827
X5.2657Y-3.1398
X5.2756Y-2.3031
X5.2835Y-3.5709
X5.3031Y-3.2559
X5.3307Y-3.0827
X5.3386Y-2.8996
X5.3858Y-3.5709
X5.3937Y-2.6673
X5.3937Y-2.7559
X5.3937Y-2.8445
X5.4685Y-2.9528
X5.4695Y-2.9085
X5.4843Y-3.5709
X5.502Y-2.6673
X5.502Y-2.7559
X5.502Y-2.8445
X5.5118Y-2.2343
X5.513Y-2.9091
X5.563Y-3.0906
X5.563Y-3.2126
X5.5669Y-3.3228
X5.5748Y-3.5709
X5.5807Y-2.3228
X5.6063Y-2.439
X5.6201Y-2.6673
X5.6201Y-2.7559
X5.6201Y-2.8445
X5.6496Y-2.2539
X5.6988Y-2.5984
X5.7008Y-3.0315
X5.7047Y-3.3307
X5.7283Y-2.3622
X5.7382Y-2.1752
X5.7559Y-2.9961
X5.7559Y-3.0984
X5.7579Y-2.5984
X5.7628Y-3.3976
X5.7874Y-3.5709
X5.8169Y-2.5492
X5.8504Y-3.4311
X5.8622Y-2.8701
X5.872Y-2.501
X5.874Y-2.3947
X5.8929Y-3.3138
X5.8957Y-2.2047
X5.9114Y-2.8337
X5.9193Y-2.9075
X5.9252Y-1.998
X5.9252Y-3.5
X5.9508Y-3.4459
X5.9626Y-2.8199
X5.9764Y-3.5669
X6.Y-2.91
X6.0059Y-3.1457
X6.0236Y-1.8996
X6.0335Y-2.3327
X6.0433Y-2.0571
X6.0469Y-2.7331
X6.0469Y-2.8787
X6.063Y-2.5394
X6.0728Y-3.0217
X6.122Y-2.9724
X6.1319Y-3.0906
X6.1614Y-2.2047
X6.1614Y-2.4311
X6.2106Y-2.5689
X6.2598Y-2.3327
X6.2697Y-3.0315
X6.2697Y-3.0906
X6.2697Y-3.3268
X6.3031Y-2.6732
X6.3484Y-2.2343
X6.3484Y-3.6417
X6.3583Y-2.3917
X6.3583Y-2.4803
X6.3583Y-3.3858
X6.4173Y-2.5591
X6.4173Y-2.9724
X6.4173Y-3.0315
X6.4173Y-3.1693
X6.4272Y-2.1457
X6.4272Y-3.3169
X6.4764Y-2.6378
X6.4862Y-3.4646
X6.4862Y-3.5335
X6.5354Y-2.7165
X6.5354Y-3.2874
X6.5453Y-3.1102
X6.5551Y-2.2539
X6.5563Y-2.1457
X6.565Y-2.4016
X6.5945Y-2.0039
X6.6043Y-2.6575
X6.6043Y-3.0512
X6.6811Y-2.0315
X6.6831Y-3.3858
X6.752Y-3.3858
X6.752Y-3.6614
X6.7618Y-2.185
X6.7618Y-2.4508
X6.7835Y-2.0295
X6.7913Y-2.7264
X6.8307Y-2.2539
X6.8307Y-2.3524
X6.8307Y-2.5197
X6.8307Y-2.6181
X6.8406Y-2.0709
X6.8406Y-2.7854
X6.8602Y-3.6614
X6.8701Y-3.3858
X6.8799Y-2.8937
X6.8898Y-2.7264
X6.8996Y-2.0276
X6.8996Y-2.185
X6.8996Y-2.4508
X6.9587Y-3.3858
X6.9685Y-3.6614
X7.0276Y-3.1988
X7.0472Y-3.3858
X7.0472Y-3.5728
X7.061Y-1.9055
X7.0669Y-2.1654
X7.0669Y-2.4508
X7.0669Y-2.7264
X7.0669Y-2.9035
X7.0669Y-2.9724
X7.0669Y-3.1102
X7.1063Y-3.1693
T3
X6.498Y-2.9591
X6.498Y-3.0591
T4
X3.9516Y-3.44
X4.1484Y-3.44
T5
X4.35Y-3.49
X4.45Y-3.49
X4.55Y-3.49
X4.04Y-3.09
X4.34Y-3.09
X6.97Y-2.9713
X6.97Y-3.05
X6.75Y-2.9713
X6.75Y-3.05
T6
X6.699Y-2.1275
X6.699Y-2.3046
X6.9549Y-2.1275
X6.9549Y-2.3046
X6.7029Y-2.3983
X6.7029Y-2.5755
X6.9588Y-2.3983
X6.9588Y-2.5755
X3.85Y-2.81
X3.95Y-2.81
X4.05Y-2.81
X6.44Y-1.95
X6.54Y-1.95
X6.64Y-1.95
X6.74Y-1.95
X6.84Y-1.95
X6.94Y-1.95
X4.3028Y-2.7441
X4.3028Y-2.9213
X4.5587Y-2.7441
X4.5587Y-2.9213
X7.12Y-3.51
X7.12Y-3.61
X6.702Y-2.6714
X6.702Y-2.8486
X6.958Y-2.6714
X6.958Y-2.8486
X3.85Y-2.59
X3.95Y-2.59
X4.05Y-2.59
X4.15Y-2.09
X4.15Y-2.59
X4.25Y-2.09
X4.25Y-2.59
X4.35Y-2.09
X4.35Y-2.59
X4.45Y-2.59
X4.55Y-2.59
X5.1386Y-3.5047
X5.1396Y-2.0234
X5.2386Y-3.5047
X5.2396Y-2.0234
X5.3386Y-3.5047
X5.3396Y-2.0234
X5.4386Y-3.5047
X5.4396Y-2.0234
X5.5386Y-3.5047
X5.5396Y-2.0234
X5.6386Y-3.5047
X5.6396Y-2.0234
X5.7386Y-3.5047
X5.7396Y-2.0234
X5.8386Y-3.5047
X5.8396Y-2.0234
X6.4417Y-2.2315
X6.4417Y-2.3315
X6.4417Y-2.4315
T7
X6.725Y-3.28
X6.91Y-3.28
X7.095Y-3.28
T8
X3.9Y-1.99
X4.5Y-1.99
T9
X4.7606Y-2.0382
X4.7606Y-3.4949
X6.2173Y-2.0382
X6.2173Y-3.4949
T2
X6.7301Y-3.5562G85X6.7301Y-3.5838
G05
X6.9899Y-3.5562G85X6.9899Y-3.5838
G05
T0
M30
