M48
;DRILL file {KiCad 5.0.2-bee76a0~70~ubuntu16.04.1} date fre 15 feb 2019 09:46:42
;FORMAT={-:-/ absolute / metric / decimal}
FMAT,2
METRIC,TZ
T1C0.300
T2C0.500
T3C0.600
T4C0.650
T5C0.800
T6C1.000
T7C1.850
T8C2.540
T9C5.000
%
G90
G05
T1
X98.75Y-60.
X99.2Y-67.3
X101.6Y-67.3
X102.4Y-63.
X102.95Y-74.
X102.95Y-76.5
X103.5Y-87.75
X103.75Y-82.
X104.3Y-67.3
X105.75Y-63.
X106.5Y-88.7
X106.8Y-67.3
X107.4Y-70.
X107.4Y-73.
X107.4Y-76.5
X108.Y-82.5
X108.25Y-85.5
X108.3Y-63.1
X109.4Y-64.
X110.1Y-90.5
X110.5Y-60.5
X111.5Y-70.
X111.5Y-73.
X112.5Y-76.75
X112.5Y-82.25
X112.9Y-91.5
X113.25Y-63.
X114.Y-70.
X114.Y-73.
X114.5Y-86.
X115.6Y-91.5
X116.5Y-72.
X117.4Y-63.3
X117.6Y-86.1
X118.25Y-67.75
X119.6Y-61.1
X120.55Y-65.1
X120.6Y-68.5
X120.65Y-72.55
X120.725Y-84.025
X120.9Y-76.9
X121.8Y-59.
X123.5Y-62.5
X123.5Y-66.75
X123.5Y-72.25
X123.9Y-56.9
X124.Y-81.5
X125.Y-68.75
X125.Y-70.5
X126.75Y-69.5
X127.1Y-58.6
X127.75Y-63.5
X127.75Y-65.25
X127.75Y-67.
X127.9Y-72.
X127.9Y-74.3
X127.9Y-77.625
X127.9Y-79.45
X128.7Y-58.65
X129.25Y-81.5
X129.25Y-84.25
X129.9Y-60.7
X129.9Y-61.9
X131.1Y-72.4
X131.1Y-77.774
X132.Y-81.5
X132.25Y-71.4
X133.Y-84.6
X133.3Y-76.1
X133.5Y-61.5
X133.6Y-63.7
X133.6Y-65.6
X133.75Y-79.75
X134.Y-58.5
X134.2Y-90.7
X134.7Y-82.7
X135.4Y-78.3
X135.6Y-73.65
X136.8Y-90.7
X137.Y-67.75
X137.Y-70.
X137.Y-72.25
X138.9Y-75.
X138.925Y-73.875
X139.3Y-90.7
X139.75Y-67.75
X139.75Y-70.
X139.75Y-72.25
X140.Y-56.75
X140.03Y-73.89
X141.3Y-78.5
X141.3Y-81.6
X141.4Y-84.4
X141.6Y-90.7
X141.75Y-59.
X142.4Y-61.95
X142.75Y-67.75
X142.75Y-70.
X142.75Y-72.25
X143.5Y-57.25
X144.75Y-66.
X144.8Y-77.
X144.9Y-84.6
X145.5Y-60.
X145.75Y-55.25
X146.2Y-76.1
X146.2Y-78.7
X146.25Y-66.
X146.375Y-86.3
X147.Y-90.7
X147.75Y-64.75
X148.6Y-87.15
X148.9Y-72.9
X149.15Y-63.525
X149.2Y-60.825
X149.68Y-84.17
X149.75Y-56.
X150.15Y-71.975
X150.35Y-73.85
X150.5Y-50.75
X150.5Y-88.9
X151.15Y-87.525
X151.45Y-71.625
X151.8Y-90.6
X152.4Y-73.914
X152.55Y-79.9
X153.Y-48.25
X153.25Y-59.25
X153.5Y-52.25
X153.59Y-69.42
X153.59Y-73.12
X154.Y-64.5
X154.25Y-76.75
X155.5Y-75.5
X155.75Y-78.5
X156.5Y-56.
X156.5Y-61.75
X157.75Y-65.25
X159.Y-59.25
X159.25Y-77.
X159.25Y-78.5
X159.25Y-84.5
X160.1Y-67.9
X161.25Y-56.75
X161.25Y-92.5
X161.5Y-60.75
X161.5Y-63.
X161.5Y-86.
X163.Y-65.
X163.Y-75.5
X163.Y-77.
X163.Y-80.5
X163.25Y-54.5
X163.25Y-84.25
X164.5Y-67.
X164.75Y-88.
X164.75Y-89.75
X166.Y-69.
X166.Y-83.5
X166.25Y-79.
X166.5Y-57.25
X166.53Y-54.5
X166.75Y-61.
X167.5Y-50.9
X167.75Y-67.5
X167.75Y-77.5
X169.7Y-51.6
X169.75Y-86.
X171.5Y-86.
X171.5Y-93.
X171.75Y-55.5
X171.75Y-62.25
X172.3Y-51.55
X172.5Y-69.25
X173.5Y-57.25
X173.5Y-59.75
X173.5Y-64.
X173.5Y-66.5
X173.75Y-52.6
X173.75Y-70.75
X174.25Y-93.
X174.5Y-86.
X174.75Y-73.5
X175.Y-69.25
X175.25Y-51.5
X175.25Y-55.5
X175.25Y-62.25
X176.75Y-86.
X177.Y-93.
X178.5Y-81.25
X179.Y-86.
X179.Y-90.75
X179.35Y-48.4
X179.5Y-55.
X179.5Y-62.25
X179.5Y-69.25
X179.5Y-73.75
X179.5Y-75.5
X179.5Y-79.
X180.5Y-80.5
T3
X165.05Y-75.16
X165.05Y-77.7
T4
X100.37Y-87.376
X105.37Y-87.376
T5
X177.038Y-75.47
X177.038Y-77.47
X110.49Y-88.646
X113.03Y-88.646
X115.57Y-88.646
X102.616Y-78.486
X110.236Y-78.486
X171.45Y-75.47
X171.45Y-77.47
T6
X170.254Y-60.918
X170.254Y-65.418
X176.754Y-60.918
X176.754Y-65.418
X163.576Y-49.53
X166.116Y-49.53
X168.656Y-49.53
X171.196Y-49.53
X173.736Y-49.53
X176.276Y-49.53
X130.52Y-89.02
X130.547Y-51.395
X133.06Y-89.02
X133.087Y-51.395
X135.6Y-89.02
X135.627Y-51.395
X138.14Y-89.02
X138.167Y-51.395
X140.68Y-89.02
X140.707Y-51.395
X143.22Y-89.02
X143.247Y-51.395
X145.76Y-89.02
X145.787Y-51.395
X148.3Y-89.02
X148.327Y-51.395
X170.232Y-67.854
X170.232Y-72.354
X176.732Y-67.854
X176.732Y-72.354
X170.154Y-54.038
X170.154Y-58.538
X176.654Y-54.038
X176.654Y-58.538
X97.79Y-71.374
X100.33Y-71.374
X102.87Y-71.374
X163.62Y-56.68
X163.62Y-59.22
X163.62Y-61.76
X97.79Y-65.786
X100.33Y-65.786
X102.87Y-65.786
X105.41Y-53.086
X105.41Y-65.786
X107.95Y-53.086
X107.95Y-65.786
X110.49Y-53.086
X110.49Y-65.786
X113.03Y-65.786
X115.57Y-65.786
X180.848Y-89.154
X180.848Y-91.694
X109.29Y-69.7
X109.29Y-74.2
X115.79Y-69.7
X115.79Y-74.2
T7
X170.814Y-83.312
X175.514Y-83.312
X180.214Y-83.312
T8
X99.06Y-50.546
X114.3Y-50.546
T9
X120.92Y-51.77
X120.92Y-88.77
X157.92Y-51.77
X157.92Y-88.77
T2
X170.944Y-90.328G85X170.944Y-91.028
G05
X177.544Y-90.328G85X177.544Y-91.028
G05
T0
M30
