G04 #@! TF.GenerationSoftware,KiCad,Pcbnew,5.0.2-bee76a0~70~ubuntu16.04.1*
G04 #@! TF.CreationDate,2019-02-15T13:05:02+01:00*
G04 #@! TF.ProjectId,lab,6c61622e-6b69-4636-9164-5f7063625858,rev?*
G04 #@! TF.SameCoordinates,Original*
G04 #@! TF.FileFunction,Soldermask,Bot*
G04 #@! TF.FilePolarity,Negative*
%FSLAX46Y46*%
G04 Gerber Fmt 4.6, Leading zero omitted, Abs format (unit mm)*
G04 Created by KiCad (PCBNEW 5.0.2-bee76a0~70~ubuntu16.04.1) date fre 15 feb 2019 13:05:02*
%MOMM*%
%LPD*%
G01*
G04 APERTURE LIST*
%ADD10C,0.100000*%
G04 APERTURE END LIST*
D10*
G36*
X180958443Y-90799519D02*
X181024627Y-90806037D01*
X181137853Y-90840384D01*
X181194467Y-90857557D01*
X181333087Y-90931652D01*
X181350991Y-90941222D01*
X181386729Y-90970552D01*
X181488186Y-91053814D01*
X181547601Y-91126213D01*
X181600778Y-91191009D01*
X181600779Y-91191011D01*
X181684443Y-91347533D01*
X181684443Y-91347534D01*
X181735963Y-91517373D01*
X181753359Y-91694000D01*
X181735963Y-91870627D01*
X181701616Y-91983853D01*
X181684443Y-92040467D01*
X181610348Y-92179087D01*
X181600778Y-92196991D01*
X181571448Y-92232729D01*
X181488186Y-92334186D01*
X181386729Y-92417448D01*
X181350991Y-92446778D01*
X181350989Y-92446779D01*
X181194467Y-92530443D01*
X181137853Y-92547616D01*
X181024627Y-92581963D01*
X180958443Y-92588481D01*
X180892260Y-92595000D01*
X180803740Y-92595000D01*
X180737557Y-92588481D01*
X180671373Y-92581963D01*
X180558147Y-92547616D01*
X180501533Y-92530443D01*
X180345011Y-92446779D01*
X180345009Y-92446778D01*
X180309271Y-92417448D01*
X180207814Y-92334186D01*
X180124552Y-92232729D01*
X180095222Y-92196991D01*
X180085652Y-92179087D01*
X180011557Y-92040467D01*
X179994384Y-91983853D01*
X179960037Y-91870627D01*
X179942641Y-91694000D01*
X179960037Y-91517373D01*
X180011557Y-91347534D01*
X180011557Y-91347533D01*
X180095221Y-91191011D01*
X180095222Y-91191009D01*
X180148399Y-91126213D01*
X180207814Y-91053814D01*
X180309271Y-90970552D01*
X180345009Y-90941222D01*
X180362913Y-90931652D01*
X180501533Y-90857557D01*
X180558147Y-90840384D01*
X180671373Y-90806037D01*
X180737557Y-90799519D01*
X180803740Y-90793000D01*
X180892260Y-90793000D01*
X180958443Y-90799519D01*
X180958443Y-90799519D01*
G37*
G36*
X158809941Y-85836248D02*
X158809943Y-85836249D01*
X158809944Y-85836249D01*
X159365190Y-86066239D01*
X159365191Y-86066240D01*
X159864902Y-86400136D01*
X160289864Y-86825098D01*
X160289866Y-86825101D01*
X160623761Y-87324810D01*
X160853751Y-87880056D01*
X160853752Y-87880059D01*
X160971000Y-88469501D01*
X160971000Y-89070499D01*
X160880994Y-89522989D01*
X160853751Y-89659944D01*
X160623761Y-90215190D01*
X160294367Y-90708162D01*
X160289864Y-90714902D01*
X159864902Y-91139864D01*
X159864899Y-91139866D01*
X159365190Y-91473761D01*
X158809944Y-91703751D01*
X158809943Y-91703751D01*
X158809941Y-91703752D01*
X158220499Y-91821000D01*
X157619501Y-91821000D01*
X157030059Y-91703752D01*
X157030057Y-91703751D01*
X157030056Y-91703751D01*
X156474810Y-91473761D01*
X155975101Y-91139866D01*
X155975098Y-91139864D01*
X155550136Y-90714902D01*
X155545633Y-90708162D01*
X155216239Y-90215190D01*
X154986249Y-89659944D01*
X154959007Y-89522989D01*
X154869000Y-89070499D01*
X154869000Y-88469501D01*
X154986248Y-87880059D01*
X154986249Y-87880056D01*
X155216239Y-87324810D01*
X155550134Y-86825101D01*
X155550136Y-86825098D01*
X155975098Y-86400136D01*
X156474809Y-86066240D01*
X156474810Y-86066239D01*
X157030056Y-85836249D01*
X157030057Y-85836249D01*
X157030059Y-85836248D01*
X157619501Y-85719000D01*
X158220499Y-85719000D01*
X158809941Y-85836248D01*
X158809941Y-85836248D01*
G37*
G36*
X121809941Y-85836248D02*
X121809943Y-85836249D01*
X121809944Y-85836249D01*
X122365190Y-86066239D01*
X122365191Y-86066240D01*
X122864902Y-86400136D01*
X123289864Y-86825098D01*
X123289866Y-86825101D01*
X123623761Y-87324810D01*
X123853751Y-87880056D01*
X123853752Y-87880059D01*
X123971000Y-88469501D01*
X123971000Y-89070499D01*
X123880994Y-89522989D01*
X123853751Y-89659944D01*
X123623761Y-90215190D01*
X123294367Y-90708162D01*
X123289864Y-90714902D01*
X122864902Y-91139864D01*
X122864899Y-91139866D01*
X122365190Y-91473761D01*
X121809944Y-91703751D01*
X121809943Y-91703751D01*
X121809941Y-91703752D01*
X121220499Y-91821000D01*
X120619501Y-91821000D01*
X120030059Y-91703752D01*
X120030057Y-91703751D01*
X120030056Y-91703751D01*
X119474810Y-91473761D01*
X118975101Y-91139866D01*
X118975098Y-91139864D01*
X118550136Y-90714902D01*
X118545633Y-90708162D01*
X118216239Y-90215190D01*
X117986249Y-89659944D01*
X117959007Y-89522989D01*
X117869000Y-89070499D01*
X117869000Y-88469501D01*
X117986248Y-87880059D01*
X117986249Y-87880056D01*
X118216239Y-87324810D01*
X118550134Y-86825101D01*
X118550136Y-86825098D01*
X118975098Y-86400136D01*
X119474809Y-86066240D01*
X119474810Y-86066239D01*
X120030056Y-85836249D01*
X120030057Y-85836249D01*
X120030059Y-85836248D01*
X120619501Y-85719000D01*
X121220499Y-85719000D01*
X121809941Y-85836248D01*
X121809941Y-85836248D01*
G37*
G36*
X177642212Y-89834249D02*
X177736651Y-89862897D01*
X177823687Y-89909418D01*
X177899975Y-89972025D01*
X177962582Y-90048313D01*
X178009103Y-90135348D01*
X178037751Y-90229787D01*
X178045000Y-90303388D01*
X178045000Y-91052612D01*
X178037751Y-91126213D01*
X178009103Y-91220652D01*
X177962582Y-91307687D01*
X177899975Y-91383975D01*
X177823687Y-91446582D01*
X177736652Y-91493103D01*
X177642213Y-91521751D01*
X177544000Y-91531424D01*
X177445788Y-91521751D01*
X177351349Y-91493103D01*
X177264314Y-91446582D01*
X177188026Y-91383975D01*
X177125419Y-91307687D01*
X177103764Y-91267174D01*
X177078898Y-91220653D01*
X177054391Y-91139864D01*
X177050250Y-91126213D01*
X177043001Y-91052612D01*
X177043000Y-91052602D01*
X177043000Y-90303389D01*
X177050249Y-90229788D01*
X177078897Y-90135349D01*
X177125418Y-90048313D01*
X177188025Y-89972025D01*
X177264313Y-89909418D01*
X177351348Y-89862897D01*
X177445787Y-89834249D01*
X177544000Y-89824576D01*
X177642212Y-89834249D01*
X177642212Y-89834249D01*
G37*
G36*
X171042212Y-89834249D02*
X171136651Y-89862897D01*
X171223687Y-89909418D01*
X171299975Y-89972025D01*
X171362582Y-90048313D01*
X171409103Y-90135348D01*
X171437751Y-90229787D01*
X171445000Y-90303388D01*
X171445000Y-91052612D01*
X171437751Y-91126213D01*
X171409103Y-91220652D01*
X171362582Y-91307687D01*
X171299975Y-91383975D01*
X171223687Y-91446582D01*
X171136652Y-91493103D01*
X171042213Y-91521751D01*
X170944000Y-91531424D01*
X170845788Y-91521751D01*
X170751349Y-91493103D01*
X170664314Y-91446582D01*
X170588026Y-91383975D01*
X170525419Y-91307687D01*
X170503764Y-91267174D01*
X170478898Y-91220653D01*
X170454391Y-91139864D01*
X170450250Y-91126213D01*
X170443001Y-91052612D01*
X170443000Y-91052602D01*
X170443000Y-90303389D01*
X170450249Y-90229788D01*
X170478897Y-90135349D01*
X170525418Y-90048313D01*
X170588025Y-89972025D01*
X170664313Y-89909418D01*
X170751348Y-89862897D01*
X170845787Y-89834249D01*
X170944000Y-89824576D01*
X171042212Y-89834249D01*
X171042212Y-89834249D01*
G37*
G36*
X181749000Y-90055000D02*
X179947000Y-90055000D01*
X179947000Y-88253000D01*
X181749000Y-88253000D01*
X181749000Y-90055000D01*
X181749000Y-90055000D01*
G37*
G36*
X148410442Y-88125518D02*
X148476627Y-88132037D01*
X148589853Y-88166384D01*
X148646467Y-88183557D01*
X148776384Y-88253000D01*
X148802991Y-88267222D01*
X148838729Y-88296552D01*
X148940186Y-88379814D01*
X149013789Y-88469501D01*
X149052778Y-88517009D01*
X149052779Y-88517011D01*
X149136443Y-88673533D01*
X149136443Y-88673534D01*
X149187963Y-88843373D01*
X149205359Y-89020000D01*
X149187963Y-89196627D01*
X149163903Y-89275943D01*
X149136443Y-89366467D01*
X149104710Y-89425834D01*
X149052778Y-89522991D01*
X149023448Y-89558729D01*
X148940186Y-89660186D01*
X148838729Y-89743448D01*
X148802991Y-89772778D01*
X148802989Y-89772779D01*
X148646467Y-89856443D01*
X148625187Y-89862898D01*
X148476627Y-89907963D01*
X148410443Y-89914481D01*
X148344260Y-89921000D01*
X148255740Y-89921000D01*
X148189557Y-89914481D01*
X148123373Y-89907963D01*
X147974813Y-89862898D01*
X147953533Y-89856443D01*
X147797011Y-89772779D01*
X147797009Y-89772778D01*
X147761271Y-89743448D01*
X147659814Y-89660186D01*
X147576552Y-89558729D01*
X147547222Y-89522991D01*
X147495290Y-89425834D01*
X147463557Y-89366467D01*
X147436097Y-89275943D01*
X147412037Y-89196627D01*
X147394641Y-89020000D01*
X147412037Y-88843373D01*
X147463557Y-88673534D01*
X147463557Y-88673533D01*
X147547221Y-88517011D01*
X147547222Y-88517009D01*
X147586211Y-88469501D01*
X147659814Y-88379814D01*
X147761271Y-88296552D01*
X147797009Y-88267222D01*
X147823616Y-88253000D01*
X147953533Y-88183557D01*
X148010147Y-88166384D01*
X148123373Y-88132037D01*
X148189558Y-88125518D01*
X148255740Y-88119000D01*
X148344260Y-88119000D01*
X148410442Y-88125518D01*
X148410442Y-88125518D01*
G37*
G36*
X145870442Y-88125518D02*
X145936627Y-88132037D01*
X146049853Y-88166384D01*
X146106467Y-88183557D01*
X146236384Y-88253000D01*
X146262991Y-88267222D01*
X146298729Y-88296552D01*
X146400186Y-88379814D01*
X146473789Y-88469501D01*
X146512778Y-88517009D01*
X146512779Y-88517011D01*
X146596443Y-88673533D01*
X146596443Y-88673534D01*
X146647963Y-88843373D01*
X146665359Y-89020000D01*
X146647963Y-89196627D01*
X146623903Y-89275943D01*
X146596443Y-89366467D01*
X146564710Y-89425834D01*
X146512778Y-89522991D01*
X146483448Y-89558729D01*
X146400186Y-89660186D01*
X146298729Y-89743448D01*
X146262991Y-89772778D01*
X146262989Y-89772779D01*
X146106467Y-89856443D01*
X146085187Y-89862898D01*
X145936627Y-89907963D01*
X145870443Y-89914481D01*
X145804260Y-89921000D01*
X145715740Y-89921000D01*
X145649557Y-89914481D01*
X145583373Y-89907963D01*
X145434813Y-89862898D01*
X145413533Y-89856443D01*
X145257011Y-89772779D01*
X145257009Y-89772778D01*
X145221271Y-89743448D01*
X145119814Y-89660186D01*
X145036552Y-89558729D01*
X145007222Y-89522991D01*
X144955290Y-89425834D01*
X144923557Y-89366467D01*
X144896097Y-89275943D01*
X144872037Y-89196627D01*
X144854641Y-89020000D01*
X144872037Y-88843373D01*
X144923557Y-88673534D01*
X144923557Y-88673533D01*
X145007221Y-88517011D01*
X145007222Y-88517009D01*
X145046211Y-88469501D01*
X145119814Y-88379814D01*
X145221271Y-88296552D01*
X145257009Y-88267222D01*
X145283616Y-88253000D01*
X145413533Y-88183557D01*
X145470147Y-88166384D01*
X145583373Y-88132037D01*
X145649558Y-88125518D01*
X145715740Y-88119000D01*
X145804260Y-88119000D01*
X145870442Y-88125518D01*
X145870442Y-88125518D01*
G37*
G36*
X143330442Y-88125518D02*
X143396627Y-88132037D01*
X143509853Y-88166384D01*
X143566467Y-88183557D01*
X143696384Y-88253000D01*
X143722991Y-88267222D01*
X143758729Y-88296552D01*
X143860186Y-88379814D01*
X143933789Y-88469501D01*
X143972778Y-88517009D01*
X143972779Y-88517011D01*
X144056443Y-88673533D01*
X144056443Y-88673534D01*
X144107963Y-88843373D01*
X144125359Y-89020000D01*
X144107963Y-89196627D01*
X144083903Y-89275943D01*
X144056443Y-89366467D01*
X144024710Y-89425834D01*
X143972778Y-89522991D01*
X143943448Y-89558729D01*
X143860186Y-89660186D01*
X143758729Y-89743448D01*
X143722991Y-89772778D01*
X143722989Y-89772779D01*
X143566467Y-89856443D01*
X143545187Y-89862898D01*
X143396627Y-89907963D01*
X143330443Y-89914481D01*
X143264260Y-89921000D01*
X143175740Y-89921000D01*
X143109557Y-89914481D01*
X143043373Y-89907963D01*
X142894813Y-89862898D01*
X142873533Y-89856443D01*
X142717011Y-89772779D01*
X142717009Y-89772778D01*
X142681271Y-89743448D01*
X142579814Y-89660186D01*
X142496552Y-89558729D01*
X142467222Y-89522991D01*
X142415290Y-89425834D01*
X142383557Y-89366467D01*
X142356097Y-89275943D01*
X142332037Y-89196627D01*
X142314641Y-89020000D01*
X142332037Y-88843373D01*
X142383557Y-88673534D01*
X142383557Y-88673533D01*
X142467221Y-88517011D01*
X142467222Y-88517009D01*
X142506211Y-88469501D01*
X142579814Y-88379814D01*
X142681271Y-88296552D01*
X142717009Y-88267222D01*
X142743616Y-88253000D01*
X142873533Y-88183557D01*
X142930147Y-88166384D01*
X143043373Y-88132037D01*
X143109558Y-88125518D01*
X143175740Y-88119000D01*
X143264260Y-88119000D01*
X143330442Y-88125518D01*
X143330442Y-88125518D01*
G37*
G36*
X138250442Y-88125518D02*
X138316627Y-88132037D01*
X138429853Y-88166384D01*
X138486467Y-88183557D01*
X138616384Y-88253000D01*
X138642991Y-88267222D01*
X138678729Y-88296552D01*
X138780186Y-88379814D01*
X138853789Y-88469501D01*
X138892778Y-88517009D01*
X138892779Y-88517011D01*
X138976443Y-88673533D01*
X138976443Y-88673534D01*
X139027963Y-88843373D01*
X139045359Y-89020000D01*
X139027963Y-89196627D01*
X139003903Y-89275943D01*
X138976443Y-89366467D01*
X138944710Y-89425834D01*
X138892778Y-89522991D01*
X138863448Y-89558729D01*
X138780186Y-89660186D01*
X138678729Y-89743448D01*
X138642991Y-89772778D01*
X138642989Y-89772779D01*
X138486467Y-89856443D01*
X138465187Y-89862898D01*
X138316627Y-89907963D01*
X138250443Y-89914481D01*
X138184260Y-89921000D01*
X138095740Y-89921000D01*
X138029557Y-89914481D01*
X137963373Y-89907963D01*
X137814813Y-89862898D01*
X137793533Y-89856443D01*
X137637011Y-89772779D01*
X137637009Y-89772778D01*
X137601271Y-89743448D01*
X137499814Y-89660186D01*
X137416552Y-89558729D01*
X137387222Y-89522991D01*
X137335290Y-89425834D01*
X137303557Y-89366467D01*
X137276097Y-89275943D01*
X137252037Y-89196627D01*
X137234641Y-89020000D01*
X137252037Y-88843373D01*
X137303557Y-88673534D01*
X137303557Y-88673533D01*
X137387221Y-88517011D01*
X137387222Y-88517009D01*
X137426211Y-88469501D01*
X137499814Y-88379814D01*
X137601271Y-88296552D01*
X137637009Y-88267222D01*
X137663616Y-88253000D01*
X137793533Y-88183557D01*
X137850147Y-88166384D01*
X137963373Y-88132037D01*
X138029558Y-88125518D01*
X138095740Y-88119000D01*
X138184260Y-88119000D01*
X138250442Y-88125518D01*
X138250442Y-88125518D01*
G37*
G36*
X135710442Y-88125518D02*
X135776627Y-88132037D01*
X135889853Y-88166384D01*
X135946467Y-88183557D01*
X136076384Y-88253000D01*
X136102991Y-88267222D01*
X136138729Y-88296552D01*
X136240186Y-88379814D01*
X136313789Y-88469501D01*
X136352778Y-88517009D01*
X136352779Y-88517011D01*
X136436443Y-88673533D01*
X136436443Y-88673534D01*
X136487963Y-88843373D01*
X136505359Y-89020000D01*
X136487963Y-89196627D01*
X136463903Y-89275943D01*
X136436443Y-89366467D01*
X136404710Y-89425834D01*
X136352778Y-89522991D01*
X136323448Y-89558729D01*
X136240186Y-89660186D01*
X136138729Y-89743448D01*
X136102991Y-89772778D01*
X136102989Y-89772779D01*
X135946467Y-89856443D01*
X135925187Y-89862898D01*
X135776627Y-89907963D01*
X135710443Y-89914481D01*
X135644260Y-89921000D01*
X135555740Y-89921000D01*
X135489557Y-89914481D01*
X135423373Y-89907963D01*
X135274813Y-89862898D01*
X135253533Y-89856443D01*
X135097011Y-89772779D01*
X135097009Y-89772778D01*
X135061271Y-89743448D01*
X134959814Y-89660186D01*
X134876552Y-89558729D01*
X134847222Y-89522991D01*
X134795290Y-89425834D01*
X134763557Y-89366467D01*
X134736097Y-89275943D01*
X134712037Y-89196627D01*
X134694641Y-89020000D01*
X134712037Y-88843373D01*
X134763557Y-88673534D01*
X134763557Y-88673533D01*
X134847221Y-88517011D01*
X134847222Y-88517009D01*
X134886211Y-88469501D01*
X134959814Y-88379814D01*
X135061271Y-88296552D01*
X135097009Y-88267222D01*
X135123616Y-88253000D01*
X135253533Y-88183557D01*
X135310147Y-88166384D01*
X135423373Y-88132037D01*
X135489558Y-88125518D01*
X135555740Y-88119000D01*
X135644260Y-88119000D01*
X135710442Y-88125518D01*
X135710442Y-88125518D01*
G37*
G36*
X133170442Y-88125518D02*
X133236627Y-88132037D01*
X133349853Y-88166384D01*
X133406467Y-88183557D01*
X133536384Y-88253000D01*
X133562991Y-88267222D01*
X133598729Y-88296552D01*
X133700186Y-88379814D01*
X133773789Y-88469501D01*
X133812778Y-88517009D01*
X133812779Y-88517011D01*
X133896443Y-88673533D01*
X133896443Y-88673534D01*
X133947963Y-88843373D01*
X133965359Y-89020000D01*
X133947963Y-89196627D01*
X133923903Y-89275943D01*
X133896443Y-89366467D01*
X133864710Y-89425834D01*
X133812778Y-89522991D01*
X133783448Y-89558729D01*
X133700186Y-89660186D01*
X133598729Y-89743448D01*
X133562991Y-89772778D01*
X133562989Y-89772779D01*
X133406467Y-89856443D01*
X133385187Y-89862898D01*
X133236627Y-89907963D01*
X133170443Y-89914481D01*
X133104260Y-89921000D01*
X133015740Y-89921000D01*
X132949557Y-89914481D01*
X132883373Y-89907963D01*
X132734813Y-89862898D01*
X132713533Y-89856443D01*
X132557011Y-89772779D01*
X132557009Y-89772778D01*
X132521271Y-89743448D01*
X132419814Y-89660186D01*
X132336552Y-89558729D01*
X132307222Y-89522991D01*
X132255290Y-89425834D01*
X132223557Y-89366467D01*
X132196097Y-89275943D01*
X132172037Y-89196627D01*
X132154641Y-89020000D01*
X132172037Y-88843373D01*
X132223557Y-88673534D01*
X132223557Y-88673533D01*
X132307221Y-88517011D01*
X132307222Y-88517009D01*
X132346211Y-88469501D01*
X132419814Y-88379814D01*
X132521271Y-88296552D01*
X132557009Y-88267222D01*
X132583616Y-88253000D01*
X132713533Y-88183557D01*
X132770147Y-88166384D01*
X132883373Y-88132037D01*
X132949558Y-88125518D01*
X133015740Y-88119000D01*
X133104260Y-88119000D01*
X133170442Y-88125518D01*
X133170442Y-88125518D01*
G37*
G36*
X131421000Y-89921000D02*
X129619000Y-89921000D01*
X129619000Y-88119000D01*
X131421000Y-88119000D01*
X131421000Y-89921000D01*
X131421000Y-89921000D01*
G37*
G36*
X140790442Y-88125518D02*
X140856627Y-88132037D01*
X140969853Y-88166384D01*
X141026467Y-88183557D01*
X141156384Y-88253000D01*
X141182991Y-88267222D01*
X141218729Y-88296552D01*
X141320186Y-88379814D01*
X141393789Y-88469501D01*
X141432778Y-88517009D01*
X141432779Y-88517011D01*
X141516443Y-88673533D01*
X141516443Y-88673534D01*
X141567963Y-88843373D01*
X141585359Y-89020000D01*
X141567963Y-89196627D01*
X141543903Y-89275943D01*
X141516443Y-89366467D01*
X141484710Y-89425834D01*
X141432778Y-89522991D01*
X141403448Y-89558729D01*
X141320186Y-89660186D01*
X141218729Y-89743448D01*
X141182991Y-89772778D01*
X141182989Y-89772779D01*
X141026467Y-89856443D01*
X141005187Y-89862898D01*
X140856627Y-89907963D01*
X140790443Y-89914481D01*
X140724260Y-89921000D01*
X140635740Y-89921000D01*
X140569557Y-89914481D01*
X140503373Y-89907963D01*
X140354813Y-89862898D01*
X140333533Y-89856443D01*
X140177011Y-89772779D01*
X140177009Y-89772778D01*
X140141271Y-89743448D01*
X140039814Y-89660186D01*
X139956552Y-89558729D01*
X139927222Y-89522991D01*
X139875290Y-89425834D01*
X139843557Y-89366467D01*
X139816097Y-89275943D01*
X139792037Y-89196627D01*
X139774641Y-89020000D01*
X139792037Y-88843373D01*
X139843557Y-88673534D01*
X139843557Y-88673533D01*
X139927221Y-88517011D01*
X139927222Y-88517009D01*
X139966211Y-88469501D01*
X140039814Y-88379814D01*
X140141271Y-88296552D01*
X140177009Y-88267222D01*
X140203616Y-88253000D01*
X140333533Y-88183557D01*
X140390147Y-88166384D01*
X140503373Y-88132037D01*
X140569558Y-88125518D01*
X140635740Y-88119000D01*
X140724260Y-88119000D01*
X140790442Y-88125518D01*
X140790442Y-88125518D01*
G37*
G36*
X116381000Y-89457000D02*
X114759000Y-89457000D01*
X114759000Y-87835000D01*
X116381000Y-87835000D01*
X116381000Y-89457000D01*
X116381000Y-89457000D01*
G37*
G36*
X110726560Y-87866166D02*
X110873427Y-87927000D01*
X110874153Y-87927301D01*
X111005213Y-88014873D01*
X111006985Y-88016057D01*
X111119943Y-88129015D01*
X111119945Y-88129018D01*
X111202788Y-88253000D01*
X111208700Y-88261849D01*
X111257563Y-88379814D01*
X111269834Y-88409440D01*
X111301000Y-88566123D01*
X111301000Y-88725877D01*
X111269834Y-88882560D01*
X111208699Y-89030153D01*
X111121127Y-89161213D01*
X111119943Y-89162985D01*
X111006985Y-89275943D01*
X111006982Y-89275945D01*
X110874153Y-89364699D01*
X110874152Y-89364700D01*
X110874151Y-89364700D01*
X110726560Y-89425834D01*
X110569878Y-89457000D01*
X110410122Y-89457000D01*
X110253440Y-89425834D01*
X110105849Y-89364700D01*
X110105848Y-89364700D01*
X110105847Y-89364699D01*
X109973018Y-89275945D01*
X109973015Y-89275943D01*
X109860057Y-89162985D01*
X109858873Y-89161213D01*
X109771301Y-89030153D01*
X109710166Y-88882560D01*
X109679000Y-88725877D01*
X109679000Y-88566123D01*
X109710166Y-88409440D01*
X109722437Y-88379814D01*
X109771300Y-88261849D01*
X109777213Y-88253000D01*
X109860055Y-88129018D01*
X109860057Y-88129015D01*
X109973015Y-88016057D01*
X109974787Y-88014873D01*
X110105847Y-87927301D01*
X110106574Y-87927000D01*
X110253440Y-87866166D01*
X110410122Y-87835000D01*
X110569878Y-87835000D01*
X110726560Y-87866166D01*
X110726560Y-87866166D01*
G37*
G36*
X113266560Y-87866166D02*
X113413427Y-87927000D01*
X113414153Y-87927301D01*
X113545213Y-88014873D01*
X113546985Y-88016057D01*
X113659943Y-88129015D01*
X113659945Y-88129018D01*
X113742788Y-88253000D01*
X113748700Y-88261849D01*
X113797563Y-88379814D01*
X113809834Y-88409440D01*
X113841000Y-88566123D01*
X113841000Y-88725877D01*
X113809834Y-88882560D01*
X113748699Y-89030153D01*
X113661127Y-89161213D01*
X113659943Y-89162985D01*
X113546985Y-89275943D01*
X113546982Y-89275945D01*
X113414153Y-89364699D01*
X113414152Y-89364700D01*
X113414151Y-89364700D01*
X113266560Y-89425834D01*
X113109878Y-89457000D01*
X112950122Y-89457000D01*
X112793440Y-89425834D01*
X112645849Y-89364700D01*
X112645848Y-89364700D01*
X112645847Y-89364699D01*
X112513018Y-89275945D01*
X112513015Y-89275943D01*
X112400057Y-89162985D01*
X112398873Y-89161213D01*
X112311301Y-89030153D01*
X112250166Y-88882560D01*
X112219000Y-88725877D01*
X112219000Y-88566123D01*
X112250166Y-88409440D01*
X112262437Y-88379814D01*
X112311300Y-88261849D01*
X112317213Y-88253000D01*
X112400055Y-88129018D01*
X112400057Y-88129015D01*
X112513015Y-88016057D01*
X112514787Y-88014873D01*
X112645847Y-87927301D01*
X112646574Y-87927000D01*
X112793440Y-87866166D01*
X112950122Y-87835000D01*
X113109878Y-87835000D01*
X113266560Y-87866166D01*
X113266560Y-87866166D01*
G37*
G36*
X100530721Y-86846174D02*
X100630995Y-86887709D01*
X100721245Y-86948012D01*
X100797988Y-87024755D01*
X100858291Y-87115005D01*
X100899826Y-87215279D01*
X100921000Y-87321730D01*
X100921000Y-87430270D01*
X100899826Y-87536721D01*
X100858291Y-87636995D01*
X100797988Y-87727245D01*
X100721245Y-87803988D01*
X100630995Y-87864291D01*
X100530721Y-87905826D01*
X100424270Y-87927000D01*
X100315730Y-87927000D01*
X100209279Y-87905826D01*
X100109005Y-87864291D01*
X100018755Y-87803988D01*
X99942012Y-87727245D01*
X99881709Y-87636995D01*
X99840174Y-87536721D01*
X99819000Y-87430270D01*
X99819000Y-87321730D01*
X99840174Y-87215279D01*
X99881709Y-87115005D01*
X99942012Y-87024755D01*
X100018755Y-86948012D01*
X100109005Y-86887709D01*
X100209279Y-86846174D01*
X100315730Y-86825000D01*
X100424270Y-86825000D01*
X100530721Y-86846174D01*
X100530721Y-86846174D01*
G37*
G36*
X105530721Y-86846174D02*
X105630995Y-86887709D01*
X105721245Y-86948012D01*
X105797988Y-87024755D01*
X105858291Y-87115005D01*
X105899826Y-87215279D01*
X105921000Y-87321730D01*
X105921000Y-87430270D01*
X105899826Y-87536721D01*
X105858291Y-87636995D01*
X105797988Y-87727245D01*
X105721245Y-87803988D01*
X105630995Y-87864291D01*
X105530721Y-87905826D01*
X105424270Y-87927000D01*
X105315730Y-87927000D01*
X105209279Y-87905826D01*
X105109005Y-87864291D01*
X105018755Y-87803988D01*
X104942012Y-87727245D01*
X104881709Y-87636995D01*
X104840174Y-87536721D01*
X104819000Y-87430270D01*
X104819000Y-87321730D01*
X104840174Y-87215279D01*
X104881709Y-87115005D01*
X104942012Y-87024755D01*
X105018755Y-86948012D01*
X105109005Y-86887709D01*
X105209279Y-86846174D01*
X105315730Y-86825000D01*
X105424270Y-86825000D01*
X105530721Y-86846174D01*
X105530721Y-86846174D01*
G37*
G36*
X180637238Y-81916760D02*
X180637240Y-81916761D01*
X180637241Y-81916761D01*
X180901306Y-82026140D01*
X180901307Y-82026141D01*
X181138962Y-82184937D01*
X181341063Y-82387038D01*
X181341065Y-82387041D01*
X181499860Y-82624694D01*
X181609239Y-82888759D01*
X181665000Y-83169089D01*
X181665000Y-83454911D01*
X181609239Y-83735241D01*
X181499860Y-83999306D01*
X181499859Y-83999307D01*
X181341063Y-84236962D01*
X181138962Y-84439063D01*
X181138959Y-84439065D01*
X180901306Y-84597860D01*
X180637241Y-84707239D01*
X180637240Y-84707239D01*
X180637238Y-84707240D01*
X180356912Y-84763000D01*
X180071088Y-84763000D01*
X179790762Y-84707240D01*
X179790760Y-84707239D01*
X179790759Y-84707239D01*
X179526694Y-84597860D01*
X179289041Y-84439065D01*
X179289038Y-84439063D01*
X179086937Y-84236962D01*
X178928141Y-83999307D01*
X178928140Y-83999306D01*
X178818761Y-83735241D01*
X178763000Y-83454911D01*
X178763000Y-83169089D01*
X178818761Y-82888759D01*
X178928140Y-82624694D01*
X179086935Y-82387041D01*
X179086937Y-82387038D01*
X179289038Y-82184937D01*
X179526693Y-82026141D01*
X179526694Y-82026140D01*
X179790759Y-81916761D01*
X179790760Y-81916761D01*
X179790762Y-81916760D01*
X180071088Y-81861000D01*
X180356912Y-81861000D01*
X180637238Y-81916760D01*
X180637238Y-81916760D01*
G37*
G36*
X176965000Y-84763000D02*
X174063000Y-84763000D01*
X174063000Y-81861000D01*
X176965000Y-81861000D01*
X176965000Y-84763000D01*
X176965000Y-84763000D01*
G37*
G36*
X171237238Y-81916760D02*
X171237240Y-81916761D01*
X171237241Y-81916761D01*
X171501306Y-82026140D01*
X171501307Y-82026141D01*
X171738962Y-82184937D01*
X171941063Y-82387038D01*
X171941065Y-82387041D01*
X172099860Y-82624694D01*
X172209239Y-82888759D01*
X172265000Y-83169089D01*
X172265000Y-83454911D01*
X172209239Y-83735241D01*
X172099860Y-83999306D01*
X172099859Y-83999307D01*
X171941063Y-84236962D01*
X171738962Y-84439063D01*
X171738959Y-84439065D01*
X171501306Y-84597860D01*
X171237241Y-84707239D01*
X171237240Y-84707239D01*
X171237238Y-84707240D01*
X170956912Y-84763000D01*
X170671088Y-84763000D01*
X170390762Y-84707240D01*
X170390760Y-84707239D01*
X170390759Y-84707239D01*
X170126694Y-84597860D01*
X169889041Y-84439065D01*
X169889038Y-84439063D01*
X169686937Y-84236962D01*
X169528141Y-83999307D01*
X169528140Y-83999306D01*
X169418761Y-83735241D01*
X169363000Y-83454911D01*
X169363000Y-83169089D01*
X169418761Y-82888759D01*
X169528140Y-82624694D01*
X169686935Y-82387041D01*
X169686937Y-82387038D01*
X169889038Y-82184937D01*
X170126693Y-82026141D01*
X170126694Y-82026140D01*
X170390759Y-81916761D01*
X170390760Y-81916761D01*
X170390762Y-81916760D01*
X170671088Y-81861000D01*
X170956912Y-81861000D01*
X171237238Y-81916760D01*
X171237238Y-81916760D01*
G37*
G36*
X102782821Y-77647313D02*
X102782824Y-77647314D01*
X102782825Y-77647314D01*
X102943239Y-77695975D01*
X102943241Y-77695976D01*
X102943244Y-77695977D01*
X103091078Y-77774995D01*
X103220659Y-77881341D01*
X103327005Y-78010922D01*
X103406023Y-78158756D01*
X103454687Y-78319179D01*
X103471117Y-78486000D01*
X103454687Y-78652821D01*
X103406023Y-78813244D01*
X103327005Y-78961078D01*
X103220659Y-79090659D01*
X103091078Y-79197005D01*
X102943244Y-79276023D01*
X102943241Y-79276024D01*
X102943239Y-79276025D01*
X102782825Y-79324686D01*
X102782824Y-79324686D01*
X102782821Y-79324687D01*
X102657804Y-79337000D01*
X102574196Y-79337000D01*
X102449179Y-79324687D01*
X102449176Y-79324686D01*
X102449175Y-79324686D01*
X102288761Y-79276025D01*
X102288759Y-79276024D01*
X102288756Y-79276023D01*
X102140922Y-79197005D01*
X102011341Y-79090659D01*
X101904995Y-78961078D01*
X101825977Y-78813244D01*
X101777313Y-78652821D01*
X101760883Y-78486000D01*
X101777313Y-78319179D01*
X101825977Y-78158756D01*
X101904995Y-78010922D01*
X102011341Y-77881341D01*
X102140922Y-77774995D01*
X102288756Y-77695977D01*
X102288759Y-77695976D01*
X102288761Y-77695975D01*
X102449175Y-77647314D01*
X102449176Y-77647314D01*
X102449179Y-77647313D01*
X102574196Y-77635000D01*
X102657804Y-77635000D01*
X102782821Y-77647313D01*
X102782821Y-77647313D01*
G37*
G36*
X111087000Y-79337000D02*
X109385000Y-79337000D01*
X109385000Y-77635000D01*
X111087000Y-77635000D01*
X111087000Y-79337000D01*
X111087000Y-79337000D01*
G37*
G36*
X153251000Y-79121000D02*
X151849000Y-79121000D01*
X151849000Y-77519000D01*
X153251000Y-77519000D01*
X153251000Y-79121000D01*
X153251000Y-79121000D01*
G37*
G36*
X177889000Y-78321000D02*
X176187000Y-78321000D01*
X176187000Y-76619000D01*
X177889000Y-76619000D01*
X177889000Y-78321000D01*
X177889000Y-78321000D01*
G37*
G36*
X172301000Y-78321000D02*
X170599000Y-78321000D01*
X170599000Y-76619000D01*
X172301000Y-76619000D01*
X172301000Y-78321000D01*
X172301000Y-78321000D01*
G37*
G36*
X165851000Y-78201000D02*
X164249000Y-78201000D01*
X164249000Y-77199000D01*
X165851000Y-77199000D01*
X165851000Y-78201000D01*
X165851000Y-78201000D01*
G37*
G36*
X153251000Y-76421000D02*
X151849000Y-76421000D01*
X151849000Y-74819000D01*
X153251000Y-74819000D01*
X153251000Y-76421000D01*
X153251000Y-76421000D01*
G37*
G36*
X177286228Y-74651703D02*
X177441100Y-74715853D01*
X177580481Y-74808985D01*
X177699015Y-74927519D01*
X177792147Y-75066900D01*
X177856297Y-75221772D01*
X177889000Y-75386184D01*
X177889000Y-75553816D01*
X177856297Y-75718228D01*
X177792147Y-75873100D01*
X177699015Y-76012481D01*
X177580481Y-76131015D01*
X177441100Y-76224147D01*
X177286228Y-76288297D01*
X177121816Y-76321000D01*
X176954184Y-76321000D01*
X176789772Y-76288297D01*
X176634900Y-76224147D01*
X176495519Y-76131015D01*
X176376985Y-76012481D01*
X176283853Y-75873100D01*
X176219703Y-75718228D01*
X176187000Y-75553816D01*
X176187000Y-75386184D01*
X176219703Y-75221772D01*
X176283853Y-75066900D01*
X176376985Y-74927519D01*
X176495519Y-74808985D01*
X176634900Y-74715853D01*
X176789772Y-74651703D01*
X176954184Y-74619000D01*
X177121816Y-74619000D01*
X177286228Y-74651703D01*
X177286228Y-74651703D01*
G37*
G36*
X171698228Y-74651703D02*
X171853100Y-74715853D01*
X171992481Y-74808985D01*
X172111015Y-74927519D01*
X172204147Y-75066900D01*
X172268297Y-75221772D01*
X172301000Y-75386184D01*
X172301000Y-75553816D01*
X172268297Y-75718228D01*
X172204147Y-75873100D01*
X172111015Y-76012481D01*
X171992481Y-76131015D01*
X171853100Y-76224147D01*
X171698228Y-76288297D01*
X171533816Y-76321000D01*
X171366184Y-76321000D01*
X171201772Y-76288297D01*
X171046900Y-76224147D01*
X170907519Y-76131015D01*
X170788985Y-76012481D01*
X170695853Y-75873100D01*
X170631703Y-75718228D01*
X170599000Y-75553816D01*
X170599000Y-75386184D01*
X170631703Y-75221772D01*
X170695853Y-75066900D01*
X170788985Y-74927519D01*
X170907519Y-74808985D01*
X171046900Y-74715853D01*
X171201772Y-74651703D01*
X171366184Y-74619000D01*
X171533816Y-74619000D01*
X171698228Y-74651703D01*
X171698228Y-74651703D01*
G37*
G36*
X165448213Y-74666249D02*
X165542652Y-74694897D01*
X165629687Y-74741418D01*
X165705975Y-74804025D01*
X165768582Y-74880313D01*
X165815103Y-74967348D01*
X165843751Y-75061787D01*
X165853424Y-75160000D01*
X165843751Y-75258213D01*
X165815103Y-75352652D01*
X165768582Y-75439687D01*
X165705975Y-75515975D01*
X165629687Y-75578582D01*
X165542652Y-75625103D01*
X165448213Y-75653751D01*
X165374612Y-75661000D01*
X164725388Y-75661000D01*
X164651787Y-75653751D01*
X164557348Y-75625103D01*
X164470313Y-75578582D01*
X164394025Y-75515975D01*
X164331418Y-75439687D01*
X164284897Y-75352652D01*
X164256249Y-75258213D01*
X164246576Y-75160000D01*
X164256249Y-75061787D01*
X164284897Y-74967348D01*
X164331418Y-74880313D01*
X164394025Y-74804025D01*
X164470313Y-74741418D01*
X164557348Y-74694897D01*
X164651787Y-74666249D01*
X164725388Y-74659000D01*
X165374612Y-74659000D01*
X165448213Y-74666249D01*
X165448213Y-74666249D01*
G37*
G36*
X109527142Y-73418242D02*
X109675102Y-73479530D01*
X109808258Y-73568502D01*
X109921498Y-73681742D01*
X110010470Y-73814898D01*
X110071758Y-73962858D01*
X110103000Y-74119925D01*
X110103000Y-74280075D01*
X110071758Y-74437142D01*
X110024354Y-74551583D01*
X110010471Y-74585100D01*
X109923105Y-74715854D01*
X109921498Y-74718258D01*
X109808258Y-74831498D01*
X109675102Y-74920470D01*
X109675101Y-74920471D01*
X109675100Y-74920471D01*
X109641583Y-74934354D01*
X109527142Y-74981758D01*
X109370075Y-75013000D01*
X109209925Y-75013000D01*
X109052858Y-74981758D01*
X108938417Y-74934354D01*
X108904900Y-74920471D01*
X108904899Y-74920471D01*
X108904898Y-74920470D01*
X108771742Y-74831498D01*
X108658502Y-74718258D01*
X108656896Y-74715854D01*
X108569529Y-74585100D01*
X108555646Y-74551583D01*
X108508242Y-74437142D01*
X108477000Y-74280075D01*
X108477000Y-74119925D01*
X108508242Y-73962858D01*
X108569530Y-73814898D01*
X108658502Y-73681742D01*
X108771742Y-73568502D01*
X108904898Y-73479530D01*
X109052858Y-73418242D01*
X109209925Y-73387000D01*
X109370075Y-73387000D01*
X109527142Y-73418242D01*
X109527142Y-73418242D01*
G37*
G36*
X116027142Y-73418242D02*
X116175102Y-73479530D01*
X116308258Y-73568502D01*
X116421498Y-73681742D01*
X116510470Y-73814898D01*
X116571758Y-73962858D01*
X116603000Y-74119925D01*
X116603000Y-74280075D01*
X116571758Y-74437142D01*
X116524354Y-74551583D01*
X116510471Y-74585100D01*
X116423105Y-74715854D01*
X116421498Y-74718258D01*
X116308258Y-74831498D01*
X116175102Y-74920470D01*
X116175101Y-74920471D01*
X116175100Y-74920471D01*
X116141583Y-74934354D01*
X116027142Y-74981758D01*
X115870075Y-75013000D01*
X115709925Y-75013000D01*
X115552858Y-74981758D01*
X115438417Y-74934354D01*
X115404900Y-74920471D01*
X115404899Y-74920471D01*
X115404898Y-74920470D01*
X115271742Y-74831498D01*
X115158502Y-74718258D01*
X115156896Y-74715854D01*
X115069529Y-74585100D01*
X115055646Y-74551583D01*
X115008242Y-74437142D01*
X114977000Y-74280075D01*
X114977000Y-74119925D01*
X115008242Y-73962858D01*
X115069530Y-73814898D01*
X115158502Y-73681742D01*
X115271742Y-73568502D01*
X115404898Y-73479530D01*
X115552858Y-73418242D01*
X115709925Y-73387000D01*
X115870075Y-73387000D01*
X116027142Y-73418242D01*
X116027142Y-73418242D01*
G37*
G36*
X176969142Y-71572242D02*
X177117102Y-71633530D01*
X177184130Y-71678317D01*
X177247213Y-71720467D01*
X177250258Y-71722502D01*
X177363498Y-71835742D01*
X177452470Y-71968898D01*
X177513758Y-72116858D01*
X177545000Y-72273925D01*
X177545000Y-72434075D01*
X177513758Y-72591142D01*
X177452470Y-72739102D01*
X177363498Y-72872258D01*
X177250258Y-72985498D01*
X177117102Y-73074470D01*
X176969142Y-73135758D01*
X176812075Y-73167000D01*
X176651925Y-73167000D01*
X176494858Y-73135758D01*
X176346898Y-73074470D01*
X176213742Y-72985498D01*
X176100502Y-72872258D01*
X176011530Y-72739102D01*
X175950242Y-72591142D01*
X175919000Y-72434075D01*
X175919000Y-72273925D01*
X175950242Y-72116858D01*
X176011530Y-71968898D01*
X176100502Y-71835742D01*
X176213742Y-71722502D01*
X176216788Y-71720467D01*
X176279870Y-71678317D01*
X176346898Y-71633530D01*
X176494858Y-71572242D01*
X176651925Y-71541000D01*
X176812075Y-71541000D01*
X176969142Y-71572242D01*
X176969142Y-71572242D01*
G37*
G36*
X170469142Y-71572242D02*
X170617102Y-71633530D01*
X170684130Y-71678317D01*
X170747213Y-71720467D01*
X170750258Y-71722502D01*
X170863498Y-71835742D01*
X170952470Y-71968898D01*
X171013758Y-72116858D01*
X171045000Y-72273925D01*
X171045000Y-72434075D01*
X171013758Y-72591142D01*
X170952470Y-72739102D01*
X170863498Y-72872258D01*
X170750258Y-72985498D01*
X170617102Y-73074470D01*
X170469142Y-73135758D01*
X170312075Y-73167000D01*
X170151925Y-73167000D01*
X169994858Y-73135758D01*
X169846898Y-73074470D01*
X169713742Y-72985498D01*
X169600502Y-72872258D01*
X169511530Y-72739102D01*
X169450242Y-72591142D01*
X169419000Y-72434075D01*
X169419000Y-72273925D01*
X169450242Y-72116858D01*
X169511530Y-71968898D01*
X169600502Y-71835742D01*
X169713742Y-71722502D01*
X169716788Y-71720467D01*
X169779870Y-71678317D01*
X169846898Y-71633530D01*
X169994858Y-71572242D01*
X170151925Y-71541000D01*
X170312075Y-71541000D01*
X170469142Y-71572242D01*
X170469142Y-71572242D01*
G37*
G36*
X97900443Y-70479519D02*
X97966627Y-70486037D01*
X98055512Y-70513000D01*
X98136467Y-70537557D01*
X98275087Y-70611652D01*
X98292991Y-70621222D01*
X98328729Y-70650552D01*
X98430186Y-70733814D01*
X98513448Y-70835271D01*
X98542778Y-70871009D01*
X98542779Y-70871011D01*
X98626443Y-71027533D01*
X98626443Y-71027534D01*
X98677963Y-71197373D01*
X98695359Y-71374000D01*
X98677963Y-71550627D01*
X98652815Y-71633529D01*
X98626443Y-71720467D01*
X98625355Y-71722502D01*
X98542778Y-71876991D01*
X98513448Y-71912729D01*
X98430186Y-72014186D01*
X98328729Y-72097448D01*
X98292991Y-72126778D01*
X98292989Y-72126779D01*
X98136467Y-72210443D01*
X98079853Y-72227616D01*
X97966627Y-72261963D01*
X97900443Y-72268481D01*
X97834260Y-72275000D01*
X97745740Y-72275000D01*
X97679557Y-72268481D01*
X97613373Y-72261963D01*
X97500147Y-72227616D01*
X97443533Y-72210443D01*
X97287011Y-72126779D01*
X97287009Y-72126778D01*
X97251271Y-72097448D01*
X97149814Y-72014186D01*
X97066552Y-71912729D01*
X97037222Y-71876991D01*
X96954645Y-71722502D01*
X96953557Y-71720467D01*
X96927185Y-71633529D01*
X96902037Y-71550627D01*
X96884641Y-71374000D01*
X96902037Y-71197373D01*
X96953557Y-71027534D01*
X96953557Y-71027533D01*
X97037221Y-70871011D01*
X97037222Y-70871009D01*
X97066552Y-70835271D01*
X97149814Y-70733814D01*
X97251271Y-70650552D01*
X97287009Y-70621222D01*
X97304913Y-70611652D01*
X97443533Y-70537557D01*
X97524488Y-70513000D01*
X97613373Y-70486037D01*
X97679557Y-70479519D01*
X97745740Y-70473000D01*
X97834260Y-70473000D01*
X97900443Y-70479519D01*
X97900443Y-70479519D01*
G37*
G36*
X100440443Y-70479519D02*
X100506627Y-70486037D01*
X100595512Y-70513000D01*
X100676467Y-70537557D01*
X100815087Y-70611652D01*
X100832991Y-70621222D01*
X100868729Y-70650552D01*
X100970186Y-70733814D01*
X101053448Y-70835271D01*
X101082778Y-70871009D01*
X101082779Y-70871011D01*
X101166443Y-71027533D01*
X101166443Y-71027534D01*
X101217963Y-71197373D01*
X101235359Y-71374000D01*
X101217963Y-71550627D01*
X101192815Y-71633529D01*
X101166443Y-71720467D01*
X101165355Y-71722502D01*
X101082778Y-71876991D01*
X101053448Y-71912729D01*
X100970186Y-72014186D01*
X100868729Y-72097448D01*
X100832991Y-72126778D01*
X100832989Y-72126779D01*
X100676467Y-72210443D01*
X100619853Y-72227616D01*
X100506627Y-72261963D01*
X100440443Y-72268481D01*
X100374260Y-72275000D01*
X100285740Y-72275000D01*
X100219557Y-72268481D01*
X100153373Y-72261963D01*
X100040147Y-72227616D01*
X99983533Y-72210443D01*
X99827011Y-72126779D01*
X99827009Y-72126778D01*
X99791271Y-72097448D01*
X99689814Y-72014186D01*
X99606552Y-71912729D01*
X99577222Y-71876991D01*
X99494645Y-71722502D01*
X99493557Y-71720467D01*
X99467185Y-71633529D01*
X99442037Y-71550627D01*
X99424641Y-71374000D01*
X99442037Y-71197373D01*
X99493557Y-71027534D01*
X99493557Y-71027533D01*
X99577221Y-70871011D01*
X99577222Y-70871009D01*
X99606552Y-70835271D01*
X99689814Y-70733814D01*
X99791271Y-70650552D01*
X99827009Y-70621222D01*
X99844913Y-70611652D01*
X99983533Y-70537557D01*
X100064488Y-70513000D01*
X100153373Y-70486037D01*
X100219557Y-70479519D01*
X100285740Y-70473000D01*
X100374260Y-70473000D01*
X100440443Y-70479519D01*
X100440443Y-70479519D01*
G37*
G36*
X103771000Y-72275000D02*
X101969000Y-72275000D01*
X101969000Y-70473000D01*
X103771000Y-70473000D01*
X103771000Y-72275000D01*
X103771000Y-72275000D01*
G37*
G36*
X109527142Y-68918242D02*
X109675102Y-68979530D01*
X109808258Y-69068502D01*
X109921498Y-69181742D01*
X110010470Y-69314898D01*
X110071758Y-69462858D01*
X110103000Y-69619925D01*
X110103000Y-69780075D01*
X110071758Y-69937142D01*
X110010470Y-70085102D01*
X109921498Y-70218258D01*
X109808258Y-70331498D01*
X109675102Y-70420470D01*
X109527142Y-70481758D01*
X109370075Y-70513000D01*
X109209925Y-70513000D01*
X109052858Y-70481758D01*
X108904898Y-70420470D01*
X108771742Y-70331498D01*
X108658502Y-70218258D01*
X108569530Y-70085102D01*
X108508242Y-69937142D01*
X108477000Y-69780075D01*
X108477000Y-69619925D01*
X108508242Y-69462858D01*
X108569530Y-69314898D01*
X108658502Y-69181742D01*
X108771742Y-69068502D01*
X108904898Y-68979530D01*
X109052858Y-68918242D01*
X109209925Y-68887000D01*
X109370075Y-68887000D01*
X109527142Y-68918242D01*
X109527142Y-68918242D01*
G37*
G36*
X116027142Y-68918242D02*
X116175102Y-68979530D01*
X116308258Y-69068502D01*
X116421498Y-69181742D01*
X116510470Y-69314898D01*
X116571758Y-69462858D01*
X116603000Y-69619925D01*
X116603000Y-69780075D01*
X116571758Y-69937142D01*
X116510470Y-70085102D01*
X116421498Y-70218258D01*
X116308258Y-70331498D01*
X116175102Y-70420470D01*
X116027142Y-70481758D01*
X115870075Y-70513000D01*
X115709925Y-70513000D01*
X115552858Y-70481758D01*
X115404898Y-70420470D01*
X115271742Y-70331498D01*
X115158502Y-70218258D01*
X115069530Y-70085102D01*
X115008242Y-69937142D01*
X114977000Y-69780075D01*
X114977000Y-69619925D01*
X115008242Y-69462858D01*
X115069530Y-69314898D01*
X115158502Y-69181742D01*
X115271742Y-69068502D01*
X115404898Y-68979530D01*
X115552858Y-68918242D01*
X115709925Y-68887000D01*
X115870075Y-68887000D01*
X116027142Y-68918242D01*
X116027142Y-68918242D01*
G37*
G36*
X170469142Y-67072242D02*
X170617102Y-67133530D01*
X170750258Y-67222502D01*
X170863498Y-67335742D01*
X170952470Y-67468898D01*
X171013758Y-67616858D01*
X171045000Y-67773925D01*
X171045000Y-67934075D01*
X171013758Y-68091142D01*
X170952470Y-68239102D01*
X170863498Y-68372258D01*
X170750258Y-68485498D01*
X170617102Y-68574470D01*
X170469142Y-68635758D01*
X170312075Y-68667000D01*
X170151925Y-68667000D01*
X169994858Y-68635758D01*
X169846898Y-68574470D01*
X169713742Y-68485498D01*
X169600502Y-68372258D01*
X169511530Y-68239102D01*
X169450242Y-68091142D01*
X169419000Y-67934075D01*
X169419000Y-67773925D01*
X169450242Y-67616858D01*
X169511530Y-67468898D01*
X169600502Y-67335742D01*
X169713742Y-67222502D01*
X169846898Y-67133530D01*
X169994858Y-67072242D01*
X170151925Y-67041000D01*
X170312075Y-67041000D01*
X170469142Y-67072242D01*
X170469142Y-67072242D01*
G37*
G36*
X176969142Y-67072242D02*
X177117102Y-67133530D01*
X177250258Y-67222502D01*
X177363498Y-67335742D01*
X177452470Y-67468898D01*
X177513758Y-67616858D01*
X177545000Y-67773925D01*
X177545000Y-67934075D01*
X177513758Y-68091142D01*
X177452470Y-68239102D01*
X177363498Y-68372258D01*
X177250258Y-68485498D01*
X177117102Y-68574470D01*
X176969142Y-68635758D01*
X176812075Y-68667000D01*
X176651925Y-68667000D01*
X176494858Y-68635758D01*
X176346898Y-68574470D01*
X176213742Y-68485498D01*
X176100502Y-68372258D01*
X176011530Y-68239102D01*
X175950242Y-68091142D01*
X175919000Y-67934075D01*
X175919000Y-67773925D01*
X175950242Y-67616858D01*
X176011530Y-67468898D01*
X176100502Y-67335742D01*
X176213742Y-67222502D01*
X176346898Y-67133530D01*
X176494858Y-67072242D01*
X176651925Y-67041000D01*
X176812075Y-67041000D01*
X176969142Y-67072242D01*
X176969142Y-67072242D01*
G37*
G36*
X115803643Y-65015781D02*
X115949415Y-65076162D01*
X116080611Y-65163824D01*
X116192176Y-65275389D01*
X116279838Y-65406585D01*
X116340219Y-65552357D01*
X116371000Y-65707107D01*
X116371000Y-65864893D01*
X116340219Y-66019643D01*
X116279838Y-66165415D01*
X116192176Y-66296611D01*
X116080611Y-66408176D01*
X115949415Y-66495838D01*
X115803643Y-66556219D01*
X115648893Y-66587000D01*
X115491107Y-66587000D01*
X115336357Y-66556219D01*
X115190585Y-66495838D01*
X115059389Y-66408176D01*
X114947824Y-66296611D01*
X114860162Y-66165415D01*
X114799781Y-66019643D01*
X114769000Y-65864893D01*
X114769000Y-65707107D01*
X114799781Y-65552357D01*
X114860162Y-65406585D01*
X114947824Y-65275389D01*
X115059389Y-65163824D01*
X115190585Y-65076162D01*
X115336357Y-65015781D01*
X115491107Y-64985000D01*
X115648893Y-64985000D01*
X115803643Y-65015781D01*
X115803643Y-65015781D01*
G37*
G36*
X110723643Y-65015781D02*
X110869415Y-65076162D01*
X111000611Y-65163824D01*
X111112176Y-65275389D01*
X111199838Y-65406585D01*
X111260219Y-65552357D01*
X111291000Y-65707107D01*
X111291000Y-65864893D01*
X111260219Y-66019643D01*
X111199838Y-66165415D01*
X111112176Y-66296611D01*
X111000611Y-66408176D01*
X110869415Y-66495838D01*
X110723643Y-66556219D01*
X110568893Y-66587000D01*
X110411107Y-66587000D01*
X110256357Y-66556219D01*
X110110585Y-66495838D01*
X109979389Y-66408176D01*
X109867824Y-66296611D01*
X109780162Y-66165415D01*
X109719781Y-66019643D01*
X109689000Y-65864893D01*
X109689000Y-65707107D01*
X109719781Y-65552357D01*
X109780162Y-65406585D01*
X109867824Y-65275389D01*
X109979389Y-65163824D01*
X110110585Y-65076162D01*
X110256357Y-65015781D01*
X110411107Y-64985000D01*
X110568893Y-64985000D01*
X110723643Y-65015781D01*
X110723643Y-65015781D01*
G37*
G36*
X113263643Y-65015781D02*
X113409415Y-65076162D01*
X113540611Y-65163824D01*
X113652176Y-65275389D01*
X113739838Y-65406585D01*
X113800219Y-65552357D01*
X113831000Y-65707107D01*
X113831000Y-65864893D01*
X113800219Y-66019643D01*
X113739838Y-66165415D01*
X113652176Y-66296611D01*
X113540611Y-66408176D01*
X113409415Y-66495838D01*
X113263643Y-66556219D01*
X113108893Y-66587000D01*
X112951107Y-66587000D01*
X112796357Y-66556219D01*
X112650585Y-66495838D01*
X112519389Y-66408176D01*
X112407824Y-66296611D01*
X112320162Y-66165415D01*
X112259781Y-66019643D01*
X112229000Y-65864893D01*
X112229000Y-65707107D01*
X112259781Y-65552357D01*
X112320162Y-65406585D01*
X112407824Y-65275389D01*
X112519389Y-65163824D01*
X112650585Y-65076162D01*
X112796357Y-65015781D01*
X112951107Y-64985000D01*
X113108893Y-64985000D01*
X113263643Y-65015781D01*
X113263643Y-65015781D01*
G37*
G36*
X108183643Y-65015781D02*
X108329415Y-65076162D01*
X108460611Y-65163824D01*
X108572176Y-65275389D01*
X108659838Y-65406585D01*
X108720219Y-65552357D01*
X108751000Y-65707107D01*
X108751000Y-65864893D01*
X108720219Y-66019643D01*
X108659838Y-66165415D01*
X108572176Y-66296611D01*
X108460611Y-66408176D01*
X108329415Y-66495838D01*
X108183643Y-66556219D01*
X108028893Y-66587000D01*
X107871107Y-66587000D01*
X107716357Y-66556219D01*
X107570585Y-66495838D01*
X107439389Y-66408176D01*
X107327824Y-66296611D01*
X107240162Y-66165415D01*
X107179781Y-66019643D01*
X107149000Y-65864893D01*
X107149000Y-65707107D01*
X107179781Y-65552357D01*
X107240162Y-65406585D01*
X107327824Y-65275389D01*
X107439389Y-65163824D01*
X107570585Y-65076162D01*
X107716357Y-65015781D01*
X107871107Y-64985000D01*
X108028893Y-64985000D01*
X108183643Y-65015781D01*
X108183643Y-65015781D01*
G37*
G36*
X105643643Y-65015781D02*
X105789415Y-65076162D01*
X105920611Y-65163824D01*
X106032176Y-65275389D01*
X106119838Y-65406585D01*
X106180219Y-65552357D01*
X106211000Y-65707107D01*
X106211000Y-65864893D01*
X106180219Y-66019643D01*
X106119838Y-66165415D01*
X106032176Y-66296611D01*
X105920611Y-66408176D01*
X105789415Y-66495838D01*
X105643643Y-66556219D01*
X105488893Y-66587000D01*
X105331107Y-66587000D01*
X105176357Y-66556219D01*
X105030585Y-66495838D01*
X104899389Y-66408176D01*
X104787824Y-66296611D01*
X104700162Y-66165415D01*
X104639781Y-66019643D01*
X104609000Y-65864893D01*
X104609000Y-65707107D01*
X104639781Y-65552357D01*
X104700162Y-65406585D01*
X104787824Y-65275389D01*
X104899389Y-65163824D01*
X105030585Y-65076162D01*
X105176357Y-65015781D01*
X105331107Y-64985000D01*
X105488893Y-64985000D01*
X105643643Y-65015781D01*
X105643643Y-65015781D01*
G37*
G36*
X103103643Y-65015781D02*
X103249415Y-65076162D01*
X103380611Y-65163824D01*
X103492176Y-65275389D01*
X103579838Y-65406585D01*
X103640219Y-65552357D01*
X103671000Y-65707107D01*
X103671000Y-65864893D01*
X103640219Y-66019643D01*
X103579838Y-66165415D01*
X103492176Y-66296611D01*
X103380611Y-66408176D01*
X103249415Y-66495838D01*
X103103643Y-66556219D01*
X102948893Y-66587000D01*
X102791107Y-66587000D01*
X102636357Y-66556219D01*
X102490585Y-66495838D01*
X102359389Y-66408176D01*
X102247824Y-66296611D01*
X102160162Y-66165415D01*
X102099781Y-66019643D01*
X102069000Y-65864893D01*
X102069000Y-65707107D01*
X102099781Y-65552357D01*
X102160162Y-65406585D01*
X102247824Y-65275389D01*
X102359389Y-65163824D01*
X102490585Y-65076162D01*
X102636357Y-65015781D01*
X102791107Y-64985000D01*
X102948893Y-64985000D01*
X103103643Y-65015781D01*
X103103643Y-65015781D01*
G37*
G36*
X100563643Y-65015781D02*
X100709415Y-65076162D01*
X100840611Y-65163824D01*
X100952176Y-65275389D01*
X101039838Y-65406585D01*
X101100219Y-65552357D01*
X101131000Y-65707107D01*
X101131000Y-65864893D01*
X101100219Y-66019643D01*
X101039838Y-66165415D01*
X100952176Y-66296611D01*
X100840611Y-66408176D01*
X100709415Y-66495838D01*
X100563643Y-66556219D01*
X100408893Y-66587000D01*
X100251107Y-66587000D01*
X100096357Y-66556219D01*
X99950585Y-66495838D01*
X99819389Y-66408176D01*
X99707824Y-66296611D01*
X99620162Y-66165415D01*
X99559781Y-66019643D01*
X99529000Y-65864893D01*
X99529000Y-65707107D01*
X99559781Y-65552357D01*
X99620162Y-65406585D01*
X99707824Y-65275389D01*
X99819389Y-65163824D01*
X99950585Y-65076162D01*
X100096357Y-65015781D01*
X100251107Y-64985000D01*
X100408893Y-64985000D01*
X100563643Y-65015781D01*
X100563643Y-65015781D01*
G37*
G36*
X98591000Y-66587000D02*
X96989000Y-66587000D01*
X96989000Y-64985000D01*
X98591000Y-64985000D01*
X98591000Y-66587000D01*
X98591000Y-66587000D01*
G37*
G36*
X176991142Y-64636242D02*
X177139102Y-64697530D01*
X177272258Y-64786502D01*
X177385498Y-64899742D01*
X177474470Y-65032898D01*
X177535758Y-65180858D01*
X177567000Y-65337925D01*
X177567000Y-65498075D01*
X177535758Y-65655142D01*
X177474470Y-65803102D01*
X177385498Y-65936258D01*
X177272258Y-66049498D01*
X177139102Y-66138470D01*
X176991142Y-66199758D01*
X176834075Y-66231000D01*
X176673925Y-66231000D01*
X176516858Y-66199758D01*
X176368898Y-66138470D01*
X176235742Y-66049498D01*
X176122502Y-65936258D01*
X176033530Y-65803102D01*
X175972242Y-65655142D01*
X175941000Y-65498075D01*
X175941000Y-65337925D01*
X175972242Y-65180858D01*
X176033530Y-65032898D01*
X176122502Y-64899742D01*
X176235742Y-64786502D01*
X176368898Y-64697530D01*
X176516858Y-64636242D01*
X176673925Y-64605000D01*
X176834075Y-64605000D01*
X176991142Y-64636242D01*
X176991142Y-64636242D01*
G37*
G36*
X170491142Y-64636242D02*
X170639102Y-64697530D01*
X170772258Y-64786502D01*
X170885498Y-64899742D01*
X170974470Y-65032898D01*
X171035758Y-65180858D01*
X171067000Y-65337925D01*
X171067000Y-65498075D01*
X171035758Y-65655142D01*
X170974470Y-65803102D01*
X170885498Y-65936258D01*
X170772258Y-66049498D01*
X170639102Y-66138470D01*
X170491142Y-66199758D01*
X170334075Y-66231000D01*
X170173925Y-66231000D01*
X170016858Y-66199758D01*
X169868898Y-66138470D01*
X169735742Y-66049498D01*
X169622502Y-65936258D01*
X169533530Y-65803102D01*
X169472242Y-65655142D01*
X169441000Y-65498075D01*
X169441000Y-65337925D01*
X169472242Y-65180858D01*
X169533530Y-65032898D01*
X169622502Y-64899742D01*
X169735742Y-64786502D01*
X169868898Y-64697530D01*
X170016858Y-64636242D01*
X170173925Y-64605000D01*
X170334075Y-64605000D01*
X170491142Y-64636242D01*
X170491142Y-64636242D01*
G37*
G36*
X164521000Y-62661000D02*
X162719000Y-62661000D01*
X162719000Y-60859000D01*
X164521000Y-60859000D01*
X164521000Y-62661000D01*
X164521000Y-62661000D01*
G37*
G36*
X170491142Y-60136242D02*
X170639102Y-60197530D01*
X170772258Y-60286502D01*
X170885498Y-60399742D01*
X170974470Y-60532898D01*
X171035758Y-60680858D01*
X171067000Y-60837925D01*
X171067000Y-60998075D01*
X171035758Y-61155142D01*
X170974470Y-61303102D01*
X170885498Y-61436258D01*
X170772258Y-61549498D01*
X170639102Y-61638470D01*
X170491142Y-61699758D01*
X170334075Y-61731000D01*
X170173925Y-61731000D01*
X170016858Y-61699758D01*
X169868898Y-61638470D01*
X169735742Y-61549498D01*
X169622502Y-61436258D01*
X169533530Y-61303102D01*
X169472242Y-61155142D01*
X169441000Y-60998075D01*
X169441000Y-60837925D01*
X169472242Y-60680858D01*
X169533530Y-60532898D01*
X169622502Y-60399742D01*
X169735742Y-60286502D01*
X169868898Y-60197530D01*
X170016858Y-60136242D01*
X170173925Y-60105000D01*
X170334075Y-60105000D01*
X170491142Y-60136242D01*
X170491142Y-60136242D01*
G37*
G36*
X176991142Y-60136242D02*
X177139102Y-60197530D01*
X177272258Y-60286502D01*
X177385498Y-60399742D01*
X177474470Y-60532898D01*
X177535758Y-60680858D01*
X177567000Y-60837925D01*
X177567000Y-60998075D01*
X177535758Y-61155142D01*
X177474470Y-61303102D01*
X177385498Y-61436258D01*
X177272258Y-61549498D01*
X177139102Y-61638470D01*
X176991142Y-61699758D01*
X176834075Y-61731000D01*
X176673925Y-61731000D01*
X176516858Y-61699758D01*
X176368898Y-61638470D01*
X176235742Y-61549498D01*
X176122502Y-61436258D01*
X176033530Y-61303102D01*
X175972242Y-61155142D01*
X175941000Y-60998075D01*
X175941000Y-60837925D01*
X175972242Y-60680858D01*
X176033530Y-60532898D01*
X176122502Y-60399742D01*
X176235742Y-60286502D01*
X176368898Y-60197530D01*
X176516858Y-60136242D01*
X176673925Y-60105000D01*
X176834075Y-60105000D01*
X176991142Y-60136242D01*
X176991142Y-60136242D01*
G37*
G36*
X163730443Y-58325519D02*
X163796627Y-58332037D01*
X163909853Y-58366384D01*
X163966467Y-58383557D01*
X164105087Y-58457652D01*
X164122991Y-58467222D01*
X164158729Y-58496552D01*
X164260186Y-58579814D01*
X164343448Y-58681271D01*
X164372778Y-58717009D01*
X164372779Y-58717011D01*
X164456443Y-58873533D01*
X164456443Y-58873534D01*
X164507963Y-59043373D01*
X164525359Y-59220000D01*
X164507963Y-59396627D01*
X164473616Y-59509853D01*
X164456443Y-59566467D01*
X164382348Y-59705087D01*
X164372778Y-59722991D01*
X164343448Y-59758729D01*
X164260186Y-59860186D01*
X164158729Y-59943448D01*
X164122991Y-59972778D01*
X164122989Y-59972779D01*
X163966467Y-60056443D01*
X163909853Y-60073616D01*
X163796627Y-60107963D01*
X163730442Y-60114482D01*
X163664260Y-60121000D01*
X163575740Y-60121000D01*
X163509558Y-60114482D01*
X163443373Y-60107963D01*
X163330147Y-60073616D01*
X163273533Y-60056443D01*
X163117011Y-59972779D01*
X163117009Y-59972778D01*
X163081271Y-59943448D01*
X162979814Y-59860186D01*
X162896552Y-59758729D01*
X162867222Y-59722991D01*
X162857652Y-59705087D01*
X162783557Y-59566467D01*
X162766384Y-59509853D01*
X162732037Y-59396627D01*
X162714641Y-59220000D01*
X162732037Y-59043373D01*
X162783557Y-58873534D01*
X162783557Y-58873533D01*
X162867221Y-58717011D01*
X162867222Y-58717009D01*
X162896552Y-58681271D01*
X162979814Y-58579814D01*
X163081271Y-58496552D01*
X163117009Y-58467222D01*
X163134913Y-58457652D01*
X163273533Y-58383557D01*
X163330147Y-58366384D01*
X163443373Y-58332037D01*
X163509557Y-58325519D01*
X163575740Y-58319000D01*
X163664260Y-58319000D01*
X163730443Y-58325519D01*
X163730443Y-58325519D01*
G37*
G36*
X176891142Y-57756242D02*
X177039102Y-57817530D01*
X177172258Y-57906502D01*
X177285498Y-58019742D01*
X177374470Y-58152898D01*
X177435758Y-58300858D01*
X177467000Y-58457925D01*
X177467000Y-58618075D01*
X177435758Y-58775142D01*
X177395002Y-58873533D01*
X177374471Y-58923100D01*
X177294108Y-59043373D01*
X177285498Y-59056258D01*
X177172258Y-59169498D01*
X177039102Y-59258470D01*
X176891142Y-59319758D01*
X176734075Y-59351000D01*
X176573925Y-59351000D01*
X176416858Y-59319758D01*
X176268898Y-59258470D01*
X176135742Y-59169498D01*
X176022502Y-59056258D01*
X176013893Y-59043373D01*
X175933529Y-58923100D01*
X175912998Y-58873533D01*
X175872242Y-58775142D01*
X175841000Y-58618075D01*
X175841000Y-58457925D01*
X175872242Y-58300858D01*
X175933530Y-58152898D01*
X176022502Y-58019742D01*
X176135742Y-57906502D01*
X176268898Y-57817530D01*
X176416858Y-57756242D01*
X176573925Y-57725000D01*
X176734075Y-57725000D01*
X176891142Y-57756242D01*
X176891142Y-57756242D01*
G37*
G36*
X170391142Y-57756242D02*
X170539102Y-57817530D01*
X170672258Y-57906502D01*
X170785498Y-58019742D01*
X170874470Y-58152898D01*
X170935758Y-58300858D01*
X170967000Y-58457925D01*
X170967000Y-58618075D01*
X170935758Y-58775142D01*
X170895002Y-58873533D01*
X170874471Y-58923100D01*
X170794108Y-59043373D01*
X170785498Y-59056258D01*
X170672258Y-59169498D01*
X170539102Y-59258470D01*
X170391142Y-59319758D01*
X170234075Y-59351000D01*
X170073925Y-59351000D01*
X169916858Y-59319758D01*
X169768898Y-59258470D01*
X169635742Y-59169498D01*
X169522502Y-59056258D01*
X169513893Y-59043373D01*
X169433529Y-58923100D01*
X169412998Y-58873533D01*
X169372242Y-58775142D01*
X169341000Y-58618075D01*
X169341000Y-58457925D01*
X169372242Y-58300858D01*
X169433530Y-58152898D01*
X169522502Y-58019742D01*
X169635742Y-57906502D01*
X169768898Y-57817530D01*
X169916858Y-57756242D01*
X170073925Y-57725000D01*
X170234075Y-57725000D01*
X170391142Y-57756242D01*
X170391142Y-57756242D01*
G37*
G36*
X163730442Y-55785518D02*
X163796627Y-55792037D01*
X163909853Y-55826384D01*
X163966467Y-55843557D01*
X164105087Y-55917652D01*
X164122991Y-55927222D01*
X164158729Y-55956552D01*
X164260186Y-56039814D01*
X164343448Y-56141271D01*
X164372778Y-56177009D01*
X164372779Y-56177011D01*
X164456443Y-56333533D01*
X164456443Y-56333534D01*
X164507963Y-56503373D01*
X164525359Y-56680000D01*
X164507963Y-56856627D01*
X164473616Y-56969853D01*
X164456443Y-57026467D01*
X164382348Y-57165087D01*
X164372778Y-57182991D01*
X164343448Y-57218729D01*
X164260186Y-57320186D01*
X164158729Y-57403448D01*
X164122991Y-57432778D01*
X164122989Y-57432779D01*
X163966467Y-57516443D01*
X163909853Y-57533616D01*
X163796627Y-57567963D01*
X163730442Y-57574482D01*
X163664260Y-57581000D01*
X163575740Y-57581000D01*
X163509558Y-57574482D01*
X163443373Y-57567963D01*
X163330147Y-57533616D01*
X163273533Y-57516443D01*
X163117011Y-57432779D01*
X163117009Y-57432778D01*
X163081271Y-57403448D01*
X162979814Y-57320186D01*
X162896552Y-57218729D01*
X162867222Y-57182991D01*
X162857652Y-57165087D01*
X162783557Y-57026467D01*
X162766384Y-56969853D01*
X162732037Y-56856627D01*
X162714641Y-56680000D01*
X162732037Y-56503373D01*
X162783557Y-56333534D01*
X162783557Y-56333533D01*
X162867221Y-56177011D01*
X162867222Y-56177009D01*
X162896552Y-56141271D01*
X162979814Y-56039814D01*
X163081271Y-55956552D01*
X163117009Y-55927222D01*
X163134913Y-55917652D01*
X163273533Y-55843557D01*
X163330147Y-55826384D01*
X163443373Y-55792037D01*
X163509558Y-55785518D01*
X163575740Y-55779000D01*
X163664260Y-55779000D01*
X163730442Y-55785518D01*
X163730442Y-55785518D01*
G37*
G36*
X176891142Y-53256242D02*
X177039102Y-53317530D01*
X177172258Y-53406502D01*
X177285498Y-53519742D01*
X177374470Y-53652898D01*
X177435758Y-53800858D01*
X177467000Y-53957925D01*
X177467000Y-54118075D01*
X177435758Y-54275142D01*
X177374470Y-54423102D01*
X177285498Y-54556258D01*
X177172258Y-54669498D01*
X177039102Y-54758470D01*
X176891142Y-54819758D01*
X176734075Y-54851000D01*
X176573925Y-54851000D01*
X176416858Y-54819758D01*
X176268898Y-54758470D01*
X176135742Y-54669498D01*
X176022502Y-54556258D01*
X175933530Y-54423102D01*
X175872242Y-54275142D01*
X175841000Y-54118075D01*
X175841000Y-53957925D01*
X175872242Y-53800858D01*
X175933530Y-53652898D01*
X176022502Y-53519742D01*
X176135742Y-53406502D01*
X176268898Y-53317530D01*
X176416858Y-53256242D01*
X176573925Y-53225000D01*
X176734075Y-53225000D01*
X176891142Y-53256242D01*
X176891142Y-53256242D01*
G37*
G36*
X170391142Y-53256242D02*
X170539102Y-53317530D01*
X170672258Y-53406502D01*
X170785498Y-53519742D01*
X170874470Y-53652898D01*
X170935758Y-53800858D01*
X170967000Y-53957925D01*
X170967000Y-54118075D01*
X170935758Y-54275142D01*
X170874470Y-54423102D01*
X170785498Y-54556258D01*
X170672258Y-54669498D01*
X170539102Y-54758470D01*
X170391142Y-54819758D01*
X170234075Y-54851000D01*
X170073925Y-54851000D01*
X169916858Y-54819758D01*
X169768898Y-54758470D01*
X169635742Y-54669498D01*
X169522502Y-54556258D01*
X169433530Y-54423102D01*
X169372242Y-54275142D01*
X169341000Y-54118075D01*
X169341000Y-53957925D01*
X169372242Y-53800858D01*
X169433530Y-53652898D01*
X169522502Y-53519742D01*
X169635742Y-53406502D01*
X169768898Y-53317530D01*
X169916858Y-53256242D01*
X170073925Y-53225000D01*
X170234075Y-53225000D01*
X170391142Y-53256242D01*
X170391142Y-53256242D01*
G37*
G36*
X121809941Y-48836248D02*
X121809943Y-48836249D01*
X121809944Y-48836249D01*
X122365190Y-49066239D01*
X122540734Y-49183534D01*
X122864902Y-49400136D01*
X123289864Y-49825098D01*
X123289866Y-49825101D01*
X123623761Y-50324810D01*
X123853751Y-50880056D01*
X123853752Y-50880059D01*
X123971000Y-51469501D01*
X123971000Y-52070499D01*
X123870571Y-52575389D01*
X123853751Y-52659944D01*
X123623761Y-53215190D01*
X123331294Y-53652898D01*
X123289864Y-53714902D01*
X122864902Y-54139864D01*
X122864899Y-54139866D01*
X122365190Y-54473761D01*
X121809944Y-54703751D01*
X121809943Y-54703751D01*
X121809941Y-54703752D01*
X121220499Y-54821000D01*
X120619501Y-54821000D01*
X120030059Y-54703752D01*
X120030057Y-54703751D01*
X120030056Y-54703751D01*
X119474810Y-54473761D01*
X118975101Y-54139866D01*
X118975098Y-54139864D01*
X118550136Y-53714902D01*
X118508706Y-53652898D01*
X118216239Y-53215190D01*
X117986249Y-52659944D01*
X117969430Y-52575389D01*
X117869000Y-52070499D01*
X117869000Y-51469501D01*
X117986248Y-50880059D01*
X117986249Y-50880056D01*
X118216239Y-50324810D01*
X118550134Y-49825101D01*
X118550136Y-49825098D01*
X118975098Y-49400136D01*
X119299266Y-49183534D01*
X119474810Y-49066239D01*
X120030056Y-48836249D01*
X120030057Y-48836249D01*
X120030059Y-48836248D01*
X120619501Y-48719000D01*
X121220499Y-48719000D01*
X121809941Y-48836248D01*
X121809941Y-48836248D01*
G37*
G36*
X158809941Y-48836248D02*
X158809943Y-48836249D01*
X158809944Y-48836249D01*
X159365190Y-49066239D01*
X159540734Y-49183534D01*
X159864902Y-49400136D01*
X160289864Y-49825098D01*
X160289866Y-49825101D01*
X160623761Y-50324810D01*
X160853751Y-50880056D01*
X160853752Y-50880059D01*
X160971000Y-51469501D01*
X160971000Y-52070499D01*
X160870571Y-52575389D01*
X160853751Y-52659944D01*
X160623761Y-53215190D01*
X160331294Y-53652898D01*
X160289864Y-53714902D01*
X159864902Y-54139864D01*
X159864899Y-54139866D01*
X159365190Y-54473761D01*
X158809944Y-54703751D01*
X158809943Y-54703751D01*
X158809941Y-54703752D01*
X158220499Y-54821000D01*
X157619501Y-54821000D01*
X157030059Y-54703752D01*
X157030057Y-54703751D01*
X157030056Y-54703751D01*
X156474810Y-54473761D01*
X155975101Y-54139866D01*
X155975098Y-54139864D01*
X155550136Y-53714902D01*
X155508706Y-53652898D01*
X155216239Y-53215190D01*
X154986249Y-52659944D01*
X154969430Y-52575389D01*
X154869000Y-52070499D01*
X154869000Y-51469501D01*
X154986248Y-50880059D01*
X154986249Y-50880056D01*
X155216239Y-50324810D01*
X155550134Y-49825101D01*
X155550136Y-49825098D01*
X155975098Y-49400136D01*
X156299266Y-49183534D01*
X156474810Y-49066239D01*
X157030056Y-48836249D01*
X157030057Y-48836249D01*
X157030059Y-48836248D01*
X157619501Y-48719000D01*
X158220499Y-48719000D01*
X158809941Y-48836248D01*
X158809941Y-48836248D01*
G37*
G36*
X105643643Y-52315781D02*
X105789415Y-52376162D01*
X105920611Y-52463824D01*
X106032176Y-52575389D01*
X106119838Y-52706585D01*
X106180219Y-52852357D01*
X106211000Y-53007107D01*
X106211000Y-53164893D01*
X106180219Y-53319643D01*
X106119838Y-53465415D01*
X106032176Y-53596611D01*
X105920611Y-53708176D01*
X105789415Y-53795838D01*
X105643643Y-53856219D01*
X105488893Y-53887000D01*
X105331107Y-53887000D01*
X105176357Y-53856219D01*
X105030585Y-53795838D01*
X104899389Y-53708176D01*
X104787824Y-53596611D01*
X104700162Y-53465415D01*
X104639781Y-53319643D01*
X104609000Y-53164893D01*
X104609000Y-53007107D01*
X104639781Y-52852357D01*
X104700162Y-52706585D01*
X104787824Y-52575389D01*
X104899389Y-52463824D01*
X105030585Y-52376162D01*
X105176357Y-52315781D01*
X105331107Y-52285000D01*
X105488893Y-52285000D01*
X105643643Y-52315781D01*
X105643643Y-52315781D01*
G37*
G36*
X108183643Y-52315781D02*
X108329415Y-52376162D01*
X108460611Y-52463824D01*
X108572176Y-52575389D01*
X108659838Y-52706585D01*
X108720219Y-52852357D01*
X108751000Y-53007107D01*
X108751000Y-53164893D01*
X108720219Y-53319643D01*
X108659838Y-53465415D01*
X108572176Y-53596611D01*
X108460611Y-53708176D01*
X108329415Y-53795838D01*
X108183643Y-53856219D01*
X108028893Y-53887000D01*
X107871107Y-53887000D01*
X107716357Y-53856219D01*
X107570585Y-53795838D01*
X107439389Y-53708176D01*
X107327824Y-53596611D01*
X107240162Y-53465415D01*
X107179781Y-53319643D01*
X107149000Y-53164893D01*
X107149000Y-53007107D01*
X107179781Y-52852357D01*
X107240162Y-52706585D01*
X107327824Y-52575389D01*
X107439389Y-52463824D01*
X107570585Y-52376162D01*
X107716357Y-52315781D01*
X107871107Y-52285000D01*
X108028893Y-52285000D01*
X108183643Y-52315781D01*
X108183643Y-52315781D01*
G37*
G36*
X110723643Y-52315781D02*
X110869415Y-52376162D01*
X111000611Y-52463824D01*
X111112176Y-52575389D01*
X111199838Y-52706585D01*
X111260219Y-52852357D01*
X111291000Y-53007107D01*
X111291000Y-53164893D01*
X111260219Y-53319643D01*
X111199838Y-53465415D01*
X111112176Y-53596611D01*
X111000611Y-53708176D01*
X110869415Y-53795838D01*
X110723643Y-53856219D01*
X110568893Y-53887000D01*
X110411107Y-53887000D01*
X110256357Y-53856219D01*
X110110585Y-53795838D01*
X109979389Y-53708176D01*
X109867824Y-53596611D01*
X109780162Y-53465415D01*
X109719781Y-53319643D01*
X109689000Y-53164893D01*
X109689000Y-53007107D01*
X109719781Y-52852357D01*
X109780162Y-52706585D01*
X109867824Y-52575389D01*
X109979389Y-52463824D01*
X110110585Y-52376162D01*
X110256357Y-52315781D01*
X110411107Y-52285000D01*
X110568893Y-52285000D01*
X110723643Y-52315781D01*
X110723643Y-52315781D01*
G37*
G36*
X114825331Y-48814211D02*
X115153092Y-48949974D01*
X115448073Y-49147074D01*
X115698926Y-49397927D01*
X115896026Y-49692908D01*
X116031789Y-50020669D01*
X116101000Y-50368616D01*
X116101000Y-50723384D01*
X116031789Y-51071331D01*
X115896026Y-51399092D01*
X115698926Y-51694073D01*
X115448073Y-51944926D01*
X115153092Y-52142026D01*
X114825331Y-52277789D01*
X114477384Y-52347000D01*
X114122616Y-52347000D01*
X113774669Y-52277789D01*
X113446908Y-52142026D01*
X113151927Y-51944926D01*
X112901074Y-51694073D01*
X112703974Y-51399092D01*
X112568211Y-51071331D01*
X112499000Y-50723384D01*
X112499000Y-50368616D01*
X112568211Y-50020669D01*
X112703974Y-49692908D01*
X112901074Y-49397927D01*
X113151927Y-49147074D01*
X113446908Y-48949974D01*
X113774669Y-48814211D01*
X114122616Y-48745000D01*
X114477384Y-48745000D01*
X114825331Y-48814211D01*
X114825331Y-48814211D01*
G37*
G36*
X99585331Y-48814211D02*
X99913092Y-48949974D01*
X100208073Y-49147074D01*
X100458926Y-49397927D01*
X100656026Y-49692908D01*
X100791789Y-50020669D01*
X100861000Y-50368616D01*
X100861000Y-50723384D01*
X100791789Y-51071331D01*
X100656026Y-51399092D01*
X100458926Y-51694073D01*
X100208073Y-51944926D01*
X99913092Y-52142026D01*
X99585331Y-52277789D01*
X99237384Y-52347000D01*
X98882616Y-52347000D01*
X98534669Y-52277789D01*
X98206908Y-52142026D01*
X97911927Y-51944926D01*
X97661074Y-51694073D01*
X97463974Y-51399092D01*
X97328211Y-51071331D01*
X97259000Y-50723384D01*
X97259000Y-50368616D01*
X97328211Y-50020669D01*
X97463974Y-49692908D01*
X97661074Y-49397927D01*
X97911927Y-49147074D01*
X98206908Y-48949974D01*
X98534669Y-48814211D01*
X98882616Y-48745000D01*
X99237384Y-48745000D01*
X99585331Y-48814211D01*
X99585331Y-48814211D01*
G37*
G36*
X143357252Y-50500393D02*
X143423437Y-50506912D01*
X143536663Y-50541259D01*
X143593277Y-50558432D01*
X143731897Y-50632527D01*
X143749801Y-50642097D01*
X143785539Y-50671427D01*
X143886996Y-50754689D01*
X143970258Y-50856146D01*
X143999588Y-50891884D01*
X143999589Y-50891886D01*
X144083253Y-51048408D01*
X144083253Y-51048409D01*
X144134773Y-51218248D01*
X144152169Y-51394875D01*
X144134773Y-51571502D01*
X144100426Y-51684728D01*
X144083253Y-51741342D01*
X144009158Y-51879962D01*
X143999588Y-51897866D01*
X143970258Y-51933604D01*
X143886996Y-52035061D01*
X143785539Y-52118323D01*
X143749801Y-52147653D01*
X143749799Y-52147654D01*
X143593277Y-52231318D01*
X143536663Y-52248491D01*
X143423437Y-52282838D01*
X143357252Y-52289357D01*
X143291070Y-52295875D01*
X143202550Y-52295875D01*
X143136368Y-52289357D01*
X143070183Y-52282838D01*
X142956957Y-52248491D01*
X142900343Y-52231318D01*
X142743821Y-52147654D01*
X142743819Y-52147653D01*
X142708081Y-52118323D01*
X142606624Y-52035061D01*
X142523362Y-51933604D01*
X142494032Y-51897866D01*
X142484462Y-51879962D01*
X142410367Y-51741342D01*
X142393194Y-51684728D01*
X142358847Y-51571502D01*
X142341451Y-51394875D01*
X142358847Y-51218248D01*
X142410367Y-51048409D01*
X142410367Y-51048408D01*
X142494031Y-50891886D01*
X142494032Y-50891884D01*
X142523362Y-50856146D01*
X142606624Y-50754689D01*
X142708081Y-50671427D01*
X142743819Y-50642097D01*
X142761723Y-50632527D01*
X142900343Y-50558432D01*
X142956957Y-50541259D01*
X143070183Y-50506912D01*
X143136368Y-50500393D01*
X143202550Y-50493875D01*
X143291070Y-50493875D01*
X143357252Y-50500393D01*
X143357252Y-50500393D01*
G37*
G36*
X135737252Y-50500393D02*
X135803437Y-50506912D01*
X135916663Y-50541259D01*
X135973277Y-50558432D01*
X136111897Y-50632527D01*
X136129801Y-50642097D01*
X136165539Y-50671427D01*
X136266996Y-50754689D01*
X136350258Y-50856146D01*
X136379588Y-50891884D01*
X136379589Y-50891886D01*
X136463253Y-51048408D01*
X136463253Y-51048409D01*
X136514773Y-51218248D01*
X136532169Y-51394875D01*
X136514773Y-51571502D01*
X136480426Y-51684728D01*
X136463253Y-51741342D01*
X136389158Y-51879962D01*
X136379588Y-51897866D01*
X136350258Y-51933604D01*
X136266996Y-52035061D01*
X136165539Y-52118323D01*
X136129801Y-52147653D01*
X136129799Y-52147654D01*
X135973277Y-52231318D01*
X135916663Y-52248491D01*
X135803437Y-52282838D01*
X135737252Y-52289357D01*
X135671070Y-52295875D01*
X135582550Y-52295875D01*
X135516368Y-52289357D01*
X135450183Y-52282838D01*
X135336957Y-52248491D01*
X135280343Y-52231318D01*
X135123821Y-52147654D01*
X135123819Y-52147653D01*
X135088081Y-52118323D01*
X134986624Y-52035061D01*
X134903362Y-51933604D01*
X134874032Y-51897866D01*
X134864462Y-51879962D01*
X134790367Y-51741342D01*
X134773194Y-51684728D01*
X134738847Y-51571502D01*
X134721451Y-51394875D01*
X134738847Y-51218248D01*
X134790367Y-51048409D01*
X134790367Y-51048408D01*
X134874031Y-50891886D01*
X134874032Y-50891884D01*
X134903362Y-50856146D01*
X134986624Y-50754689D01*
X135088081Y-50671427D01*
X135123819Y-50642097D01*
X135141723Y-50632527D01*
X135280343Y-50558432D01*
X135336957Y-50541259D01*
X135450183Y-50506912D01*
X135516368Y-50500393D01*
X135582550Y-50493875D01*
X135671070Y-50493875D01*
X135737252Y-50500393D01*
X135737252Y-50500393D01*
G37*
G36*
X138277252Y-50500393D02*
X138343437Y-50506912D01*
X138456663Y-50541259D01*
X138513277Y-50558432D01*
X138651897Y-50632527D01*
X138669801Y-50642097D01*
X138705539Y-50671427D01*
X138806996Y-50754689D01*
X138890258Y-50856146D01*
X138919588Y-50891884D01*
X138919589Y-50891886D01*
X139003253Y-51048408D01*
X139003253Y-51048409D01*
X139054773Y-51218248D01*
X139072169Y-51394875D01*
X139054773Y-51571502D01*
X139020426Y-51684728D01*
X139003253Y-51741342D01*
X138929158Y-51879962D01*
X138919588Y-51897866D01*
X138890258Y-51933604D01*
X138806996Y-52035061D01*
X138705539Y-52118323D01*
X138669801Y-52147653D01*
X138669799Y-52147654D01*
X138513277Y-52231318D01*
X138456663Y-52248491D01*
X138343437Y-52282838D01*
X138277252Y-52289357D01*
X138211070Y-52295875D01*
X138122550Y-52295875D01*
X138056368Y-52289357D01*
X137990183Y-52282838D01*
X137876957Y-52248491D01*
X137820343Y-52231318D01*
X137663821Y-52147654D01*
X137663819Y-52147653D01*
X137628081Y-52118323D01*
X137526624Y-52035061D01*
X137443362Y-51933604D01*
X137414032Y-51897866D01*
X137404462Y-51879962D01*
X137330367Y-51741342D01*
X137313194Y-51684728D01*
X137278847Y-51571502D01*
X137261451Y-51394875D01*
X137278847Y-51218248D01*
X137330367Y-51048409D01*
X137330367Y-51048408D01*
X137414031Y-50891886D01*
X137414032Y-50891884D01*
X137443362Y-50856146D01*
X137526624Y-50754689D01*
X137628081Y-50671427D01*
X137663819Y-50642097D01*
X137681723Y-50632527D01*
X137820343Y-50558432D01*
X137876957Y-50541259D01*
X137990183Y-50506912D01*
X138056368Y-50500393D01*
X138122550Y-50493875D01*
X138211070Y-50493875D01*
X138277252Y-50500393D01*
X138277252Y-50500393D01*
G37*
G36*
X140817252Y-50500393D02*
X140883437Y-50506912D01*
X140996663Y-50541259D01*
X141053277Y-50558432D01*
X141191897Y-50632527D01*
X141209801Y-50642097D01*
X141245539Y-50671427D01*
X141346996Y-50754689D01*
X141430258Y-50856146D01*
X141459588Y-50891884D01*
X141459589Y-50891886D01*
X141543253Y-51048408D01*
X141543253Y-51048409D01*
X141594773Y-51218248D01*
X141612169Y-51394875D01*
X141594773Y-51571502D01*
X141560426Y-51684728D01*
X141543253Y-51741342D01*
X141469158Y-51879962D01*
X141459588Y-51897866D01*
X141430258Y-51933604D01*
X141346996Y-52035061D01*
X141245539Y-52118323D01*
X141209801Y-52147653D01*
X141209799Y-52147654D01*
X141053277Y-52231318D01*
X140996663Y-52248491D01*
X140883437Y-52282838D01*
X140817252Y-52289357D01*
X140751070Y-52295875D01*
X140662550Y-52295875D01*
X140596368Y-52289357D01*
X140530183Y-52282838D01*
X140416957Y-52248491D01*
X140360343Y-52231318D01*
X140203821Y-52147654D01*
X140203819Y-52147653D01*
X140168081Y-52118323D01*
X140066624Y-52035061D01*
X139983362Y-51933604D01*
X139954032Y-51897866D01*
X139944462Y-51879962D01*
X139870367Y-51741342D01*
X139853194Y-51684728D01*
X139818847Y-51571502D01*
X139801451Y-51394875D01*
X139818847Y-51218248D01*
X139870367Y-51048409D01*
X139870367Y-51048408D01*
X139954031Y-50891886D01*
X139954032Y-50891884D01*
X139983362Y-50856146D01*
X140066624Y-50754689D01*
X140168081Y-50671427D01*
X140203819Y-50642097D01*
X140221723Y-50632527D01*
X140360343Y-50558432D01*
X140416957Y-50541259D01*
X140530183Y-50506912D01*
X140596368Y-50500393D01*
X140662550Y-50493875D01*
X140751070Y-50493875D01*
X140817252Y-50500393D01*
X140817252Y-50500393D01*
G37*
G36*
X145897252Y-50500393D02*
X145963437Y-50506912D01*
X146076663Y-50541259D01*
X146133277Y-50558432D01*
X146271897Y-50632527D01*
X146289801Y-50642097D01*
X146325539Y-50671427D01*
X146426996Y-50754689D01*
X146510258Y-50856146D01*
X146539588Y-50891884D01*
X146539589Y-50891886D01*
X146623253Y-51048408D01*
X146623253Y-51048409D01*
X146674773Y-51218248D01*
X146692169Y-51394875D01*
X146674773Y-51571502D01*
X146640426Y-51684728D01*
X146623253Y-51741342D01*
X146549158Y-51879962D01*
X146539588Y-51897866D01*
X146510258Y-51933604D01*
X146426996Y-52035061D01*
X146325539Y-52118323D01*
X146289801Y-52147653D01*
X146289799Y-52147654D01*
X146133277Y-52231318D01*
X146076663Y-52248491D01*
X145963437Y-52282838D01*
X145897252Y-52289357D01*
X145831070Y-52295875D01*
X145742550Y-52295875D01*
X145676368Y-52289357D01*
X145610183Y-52282838D01*
X145496957Y-52248491D01*
X145440343Y-52231318D01*
X145283821Y-52147654D01*
X145283819Y-52147653D01*
X145248081Y-52118323D01*
X145146624Y-52035061D01*
X145063362Y-51933604D01*
X145034032Y-51897866D01*
X145024462Y-51879962D01*
X144950367Y-51741342D01*
X144933194Y-51684728D01*
X144898847Y-51571502D01*
X144881451Y-51394875D01*
X144898847Y-51218248D01*
X144950367Y-51048409D01*
X144950367Y-51048408D01*
X145034031Y-50891886D01*
X145034032Y-50891884D01*
X145063362Y-50856146D01*
X145146624Y-50754689D01*
X145248081Y-50671427D01*
X145283819Y-50642097D01*
X145301723Y-50632527D01*
X145440343Y-50558432D01*
X145496957Y-50541259D01*
X145610183Y-50506912D01*
X145676368Y-50500393D01*
X145742550Y-50493875D01*
X145831070Y-50493875D01*
X145897252Y-50500393D01*
X145897252Y-50500393D01*
G37*
G36*
X148437252Y-50500393D02*
X148503437Y-50506912D01*
X148616663Y-50541259D01*
X148673277Y-50558432D01*
X148811897Y-50632527D01*
X148829801Y-50642097D01*
X148865539Y-50671427D01*
X148966996Y-50754689D01*
X149050258Y-50856146D01*
X149079588Y-50891884D01*
X149079589Y-50891886D01*
X149163253Y-51048408D01*
X149163253Y-51048409D01*
X149214773Y-51218248D01*
X149232169Y-51394875D01*
X149214773Y-51571502D01*
X149180426Y-51684728D01*
X149163253Y-51741342D01*
X149089158Y-51879962D01*
X149079588Y-51897866D01*
X149050258Y-51933604D01*
X148966996Y-52035061D01*
X148865539Y-52118323D01*
X148829801Y-52147653D01*
X148829799Y-52147654D01*
X148673277Y-52231318D01*
X148616663Y-52248491D01*
X148503437Y-52282838D01*
X148437252Y-52289357D01*
X148371070Y-52295875D01*
X148282550Y-52295875D01*
X148216368Y-52289357D01*
X148150183Y-52282838D01*
X148036957Y-52248491D01*
X147980343Y-52231318D01*
X147823821Y-52147654D01*
X147823819Y-52147653D01*
X147788081Y-52118323D01*
X147686624Y-52035061D01*
X147603362Y-51933604D01*
X147574032Y-51897866D01*
X147564462Y-51879962D01*
X147490367Y-51741342D01*
X147473194Y-51684728D01*
X147438847Y-51571502D01*
X147421451Y-51394875D01*
X147438847Y-51218248D01*
X147490367Y-51048409D01*
X147490367Y-51048408D01*
X147574031Y-50891886D01*
X147574032Y-50891884D01*
X147603362Y-50856146D01*
X147686624Y-50754689D01*
X147788081Y-50671427D01*
X147823819Y-50642097D01*
X147841723Y-50632527D01*
X147980343Y-50558432D01*
X148036957Y-50541259D01*
X148150183Y-50506912D01*
X148216368Y-50500393D01*
X148282550Y-50493875D01*
X148371070Y-50493875D01*
X148437252Y-50500393D01*
X148437252Y-50500393D01*
G37*
G36*
X131447810Y-52295875D02*
X129645810Y-52295875D01*
X129645810Y-50493875D01*
X131447810Y-50493875D01*
X131447810Y-52295875D01*
X131447810Y-52295875D01*
G37*
G36*
X133197252Y-50500393D02*
X133263437Y-50506912D01*
X133376663Y-50541259D01*
X133433277Y-50558432D01*
X133571897Y-50632527D01*
X133589801Y-50642097D01*
X133625539Y-50671427D01*
X133726996Y-50754689D01*
X133810258Y-50856146D01*
X133839588Y-50891884D01*
X133839589Y-50891886D01*
X133923253Y-51048408D01*
X133923253Y-51048409D01*
X133974773Y-51218248D01*
X133992169Y-51394875D01*
X133974773Y-51571502D01*
X133940426Y-51684728D01*
X133923253Y-51741342D01*
X133849158Y-51879962D01*
X133839588Y-51897866D01*
X133810258Y-51933604D01*
X133726996Y-52035061D01*
X133625539Y-52118323D01*
X133589801Y-52147653D01*
X133589799Y-52147654D01*
X133433277Y-52231318D01*
X133376663Y-52248491D01*
X133263437Y-52282838D01*
X133197252Y-52289357D01*
X133131070Y-52295875D01*
X133042550Y-52295875D01*
X132976368Y-52289357D01*
X132910183Y-52282838D01*
X132796957Y-52248491D01*
X132740343Y-52231318D01*
X132583821Y-52147654D01*
X132583819Y-52147653D01*
X132548081Y-52118323D01*
X132446624Y-52035061D01*
X132363362Y-51933604D01*
X132334032Y-51897866D01*
X132324462Y-51879962D01*
X132250367Y-51741342D01*
X132233194Y-51684728D01*
X132198847Y-51571502D01*
X132181451Y-51394875D01*
X132198847Y-51218248D01*
X132250367Y-51048409D01*
X132250367Y-51048408D01*
X132334031Y-50891886D01*
X132334032Y-50891884D01*
X132363362Y-50856146D01*
X132446624Y-50754689D01*
X132548081Y-50671427D01*
X132583819Y-50642097D01*
X132601723Y-50632527D01*
X132740343Y-50558432D01*
X132796957Y-50541259D01*
X132910183Y-50506912D01*
X132976368Y-50500393D01*
X133042550Y-50493875D01*
X133131070Y-50493875D01*
X133197252Y-50500393D01*
X133197252Y-50500393D01*
G37*
G36*
X176386443Y-48635519D02*
X176452627Y-48642037D01*
X176565853Y-48676384D01*
X176622467Y-48693557D01*
X176761087Y-48767652D01*
X176778991Y-48777222D01*
X176814729Y-48806552D01*
X176916186Y-48889814D01*
X176999448Y-48991271D01*
X177028778Y-49027009D01*
X177028779Y-49027011D01*
X177112443Y-49183533D01*
X177112443Y-49183534D01*
X177163963Y-49353373D01*
X177181359Y-49530000D01*
X177163963Y-49706627D01*
X177129616Y-49819853D01*
X177112443Y-49876467D01*
X177038348Y-50015087D01*
X177028778Y-50032991D01*
X176999448Y-50068729D01*
X176916186Y-50170186D01*
X176814729Y-50253448D01*
X176778991Y-50282778D01*
X176778989Y-50282779D01*
X176622467Y-50366443D01*
X176565853Y-50383616D01*
X176452627Y-50417963D01*
X176386443Y-50424481D01*
X176320260Y-50431000D01*
X176231740Y-50431000D01*
X176165558Y-50424482D01*
X176099373Y-50417963D01*
X175986147Y-50383616D01*
X175929533Y-50366443D01*
X175773011Y-50282779D01*
X175773009Y-50282778D01*
X175737271Y-50253448D01*
X175635814Y-50170186D01*
X175552552Y-50068729D01*
X175523222Y-50032991D01*
X175513652Y-50015087D01*
X175439557Y-49876467D01*
X175422384Y-49819853D01*
X175388037Y-49706627D01*
X175370641Y-49530000D01*
X175388037Y-49353373D01*
X175439557Y-49183534D01*
X175439557Y-49183533D01*
X175523221Y-49027011D01*
X175523222Y-49027009D01*
X175552552Y-48991271D01*
X175635814Y-48889814D01*
X175737271Y-48806552D01*
X175773009Y-48777222D01*
X175790913Y-48767652D01*
X175929533Y-48693557D01*
X175986147Y-48676384D01*
X176099373Y-48642037D01*
X176165557Y-48635519D01*
X176231740Y-48629000D01*
X176320260Y-48629000D01*
X176386443Y-48635519D01*
X176386443Y-48635519D01*
G37*
G36*
X164477000Y-50431000D02*
X162675000Y-50431000D01*
X162675000Y-48629000D01*
X164477000Y-48629000D01*
X164477000Y-50431000D01*
X164477000Y-50431000D01*
G37*
G36*
X168766443Y-48635519D02*
X168832627Y-48642037D01*
X168945853Y-48676384D01*
X169002467Y-48693557D01*
X169141087Y-48767652D01*
X169158991Y-48777222D01*
X169194729Y-48806552D01*
X169296186Y-48889814D01*
X169379448Y-48991271D01*
X169408778Y-49027009D01*
X169408779Y-49027011D01*
X169492443Y-49183533D01*
X169492443Y-49183534D01*
X169543963Y-49353373D01*
X169561359Y-49530000D01*
X169543963Y-49706627D01*
X169509616Y-49819853D01*
X169492443Y-49876467D01*
X169418348Y-50015087D01*
X169408778Y-50032991D01*
X169379448Y-50068729D01*
X169296186Y-50170186D01*
X169194729Y-50253448D01*
X169158991Y-50282778D01*
X169158989Y-50282779D01*
X169002467Y-50366443D01*
X168945853Y-50383616D01*
X168832627Y-50417963D01*
X168766443Y-50424481D01*
X168700260Y-50431000D01*
X168611740Y-50431000D01*
X168545558Y-50424482D01*
X168479373Y-50417963D01*
X168366147Y-50383616D01*
X168309533Y-50366443D01*
X168153011Y-50282779D01*
X168153009Y-50282778D01*
X168117271Y-50253448D01*
X168015814Y-50170186D01*
X167932552Y-50068729D01*
X167903222Y-50032991D01*
X167893652Y-50015087D01*
X167819557Y-49876467D01*
X167802384Y-49819853D01*
X167768037Y-49706627D01*
X167750641Y-49530000D01*
X167768037Y-49353373D01*
X167819557Y-49183534D01*
X167819557Y-49183533D01*
X167903221Y-49027011D01*
X167903222Y-49027009D01*
X167932552Y-48991271D01*
X168015814Y-48889814D01*
X168117271Y-48806552D01*
X168153009Y-48777222D01*
X168170913Y-48767652D01*
X168309533Y-48693557D01*
X168366147Y-48676384D01*
X168479373Y-48642037D01*
X168545557Y-48635519D01*
X168611740Y-48629000D01*
X168700260Y-48629000D01*
X168766443Y-48635519D01*
X168766443Y-48635519D01*
G37*
G36*
X171306443Y-48635519D02*
X171372627Y-48642037D01*
X171485853Y-48676384D01*
X171542467Y-48693557D01*
X171681087Y-48767652D01*
X171698991Y-48777222D01*
X171734729Y-48806552D01*
X171836186Y-48889814D01*
X171919448Y-48991271D01*
X171948778Y-49027009D01*
X171948779Y-49027011D01*
X172032443Y-49183533D01*
X172032443Y-49183534D01*
X172083963Y-49353373D01*
X172101359Y-49530000D01*
X172083963Y-49706627D01*
X172049616Y-49819853D01*
X172032443Y-49876467D01*
X171958348Y-50015087D01*
X171948778Y-50032991D01*
X171919448Y-50068729D01*
X171836186Y-50170186D01*
X171734729Y-50253448D01*
X171698991Y-50282778D01*
X171698989Y-50282779D01*
X171542467Y-50366443D01*
X171485853Y-50383616D01*
X171372627Y-50417963D01*
X171306443Y-50424481D01*
X171240260Y-50431000D01*
X171151740Y-50431000D01*
X171085558Y-50424482D01*
X171019373Y-50417963D01*
X170906147Y-50383616D01*
X170849533Y-50366443D01*
X170693011Y-50282779D01*
X170693009Y-50282778D01*
X170657271Y-50253448D01*
X170555814Y-50170186D01*
X170472552Y-50068729D01*
X170443222Y-50032991D01*
X170433652Y-50015087D01*
X170359557Y-49876467D01*
X170342384Y-49819853D01*
X170308037Y-49706627D01*
X170290641Y-49530000D01*
X170308037Y-49353373D01*
X170359557Y-49183534D01*
X170359557Y-49183533D01*
X170443221Y-49027011D01*
X170443222Y-49027009D01*
X170472552Y-48991271D01*
X170555814Y-48889814D01*
X170657271Y-48806552D01*
X170693009Y-48777222D01*
X170710913Y-48767652D01*
X170849533Y-48693557D01*
X170906147Y-48676384D01*
X171019373Y-48642037D01*
X171085557Y-48635519D01*
X171151740Y-48629000D01*
X171240260Y-48629000D01*
X171306443Y-48635519D01*
X171306443Y-48635519D01*
G37*
G36*
X173846443Y-48635519D02*
X173912627Y-48642037D01*
X174025853Y-48676384D01*
X174082467Y-48693557D01*
X174221087Y-48767652D01*
X174238991Y-48777222D01*
X174274729Y-48806552D01*
X174376186Y-48889814D01*
X174459448Y-48991271D01*
X174488778Y-49027009D01*
X174488779Y-49027011D01*
X174572443Y-49183533D01*
X174572443Y-49183534D01*
X174623963Y-49353373D01*
X174641359Y-49530000D01*
X174623963Y-49706627D01*
X174589616Y-49819853D01*
X174572443Y-49876467D01*
X174498348Y-50015087D01*
X174488778Y-50032991D01*
X174459448Y-50068729D01*
X174376186Y-50170186D01*
X174274729Y-50253448D01*
X174238991Y-50282778D01*
X174238989Y-50282779D01*
X174082467Y-50366443D01*
X174025853Y-50383616D01*
X173912627Y-50417963D01*
X173846443Y-50424481D01*
X173780260Y-50431000D01*
X173691740Y-50431000D01*
X173625558Y-50424482D01*
X173559373Y-50417963D01*
X173446147Y-50383616D01*
X173389533Y-50366443D01*
X173233011Y-50282779D01*
X173233009Y-50282778D01*
X173197271Y-50253448D01*
X173095814Y-50170186D01*
X173012552Y-50068729D01*
X172983222Y-50032991D01*
X172973652Y-50015087D01*
X172899557Y-49876467D01*
X172882384Y-49819853D01*
X172848037Y-49706627D01*
X172830641Y-49530000D01*
X172848037Y-49353373D01*
X172899557Y-49183534D01*
X172899557Y-49183533D01*
X172983221Y-49027011D01*
X172983222Y-49027009D01*
X173012552Y-48991271D01*
X173095814Y-48889814D01*
X173197271Y-48806552D01*
X173233009Y-48777222D01*
X173250913Y-48767652D01*
X173389533Y-48693557D01*
X173446147Y-48676384D01*
X173559373Y-48642037D01*
X173625557Y-48635519D01*
X173691740Y-48629000D01*
X173780260Y-48629000D01*
X173846443Y-48635519D01*
X173846443Y-48635519D01*
G37*
G36*
X166226443Y-48635519D02*
X166292627Y-48642037D01*
X166405853Y-48676384D01*
X166462467Y-48693557D01*
X166601087Y-48767652D01*
X166618991Y-48777222D01*
X166654729Y-48806552D01*
X166756186Y-48889814D01*
X166839448Y-48991271D01*
X166868778Y-49027009D01*
X166868779Y-49027011D01*
X166952443Y-49183533D01*
X166952443Y-49183534D01*
X167003963Y-49353373D01*
X167021359Y-49530000D01*
X167003963Y-49706627D01*
X166969616Y-49819853D01*
X166952443Y-49876467D01*
X166878348Y-50015087D01*
X166868778Y-50032991D01*
X166839448Y-50068729D01*
X166756186Y-50170186D01*
X166654729Y-50253448D01*
X166618991Y-50282778D01*
X166618989Y-50282779D01*
X166462467Y-50366443D01*
X166405853Y-50383616D01*
X166292627Y-50417963D01*
X166226443Y-50424481D01*
X166160260Y-50431000D01*
X166071740Y-50431000D01*
X166005558Y-50424482D01*
X165939373Y-50417963D01*
X165826147Y-50383616D01*
X165769533Y-50366443D01*
X165613011Y-50282779D01*
X165613009Y-50282778D01*
X165577271Y-50253448D01*
X165475814Y-50170186D01*
X165392552Y-50068729D01*
X165363222Y-50032991D01*
X165353652Y-50015087D01*
X165279557Y-49876467D01*
X165262384Y-49819853D01*
X165228037Y-49706627D01*
X165210641Y-49530000D01*
X165228037Y-49353373D01*
X165279557Y-49183534D01*
X165279557Y-49183533D01*
X165363221Y-49027011D01*
X165363222Y-49027009D01*
X165392552Y-48991271D01*
X165475814Y-48889814D01*
X165577271Y-48806552D01*
X165613009Y-48777222D01*
X165630913Y-48767652D01*
X165769533Y-48693557D01*
X165826147Y-48676384D01*
X165939373Y-48642037D01*
X166005557Y-48635519D01*
X166071740Y-48629000D01*
X166160260Y-48629000D01*
X166226443Y-48635519D01*
X166226443Y-48635519D01*
G37*
M02*
