%FSLAX45Y45*%
G04 Gerber Fmt 4.5, Leading zero omitted, Abs format (unit mm)*
G04 Created by KiCad (PCBNEW 5.0.2-bee76a0~70~ubuntu16.04.1) date fre 15 feb 2019 09:46:43*
%MOMM*%
%LPD*%
G01*
G04 APERTURE LIST*
%ADD10C,0.150000*%
%ADD11C,0.200000*%
%ADD12C,0.300000*%
G04 APERTURE END LIST*
D10*
X9530000Y-9450000D02*
X9530000Y-4640000D01*
X18280000Y-9450000D02*
X9530000Y-9450000D01*
X18310000Y-4640000D02*
X18310000Y-9450000D01*
X9530000Y-4640000D02*
X18280000Y-4640000D01*
D11*
X9860000Y-5985000D02*
X9890000Y-6015000D01*
X9890000Y-5985000D02*
X9860000Y-6015000D01*
X9905000Y-6715000D02*
X9935000Y-6745000D01*
X9935000Y-6715000D02*
X9905000Y-6745000D01*
X10145000Y-6715000D02*
X10175000Y-6745000D01*
X10175000Y-6715000D02*
X10145000Y-6745000D01*
X10225000Y-6285000D02*
X10255000Y-6315000D01*
X10255000Y-6285000D02*
X10225000Y-6315000D01*
X10280000Y-7385000D02*
X10310000Y-7415000D01*
X10310000Y-7385000D02*
X10280000Y-7415000D01*
X10280000Y-7635000D02*
X10310000Y-7665000D01*
X10310000Y-7635000D02*
X10280000Y-7665000D01*
X10335000Y-8760000D02*
X10365000Y-8790000D01*
X10365000Y-8760000D02*
X10335000Y-8790000D01*
X10360000Y-8185000D02*
X10390000Y-8215000D01*
X10390000Y-8185000D02*
X10360000Y-8215000D01*
X10415000Y-6715000D02*
X10445000Y-6745000D01*
X10445000Y-6715000D02*
X10415000Y-6745000D01*
X10560000Y-6285000D02*
X10590000Y-6315000D01*
X10590000Y-6285000D02*
X10560000Y-6315000D01*
X10635000Y-8855000D02*
X10665000Y-8885000D01*
X10665000Y-8855000D02*
X10635000Y-8885000D01*
X10665000Y-6715000D02*
X10695000Y-6745000D01*
X10695000Y-6715000D02*
X10665000Y-6745000D01*
X10725000Y-6985000D02*
X10755000Y-7015000D01*
X10755000Y-6985000D02*
X10725000Y-7015000D01*
X10725000Y-7285000D02*
X10755000Y-7315000D01*
X10755000Y-7285000D02*
X10725000Y-7315000D01*
X10725000Y-7635000D02*
X10755000Y-7665000D01*
X10755000Y-7635000D02*
X10725000Y-7665000D01*
X10785000Y-8235000D02*
X10815000Y-8265000D01*
X10815000Y-8235000D02*
X10785000Y-8265000D01*
X10810000Y-8535000D02*
X10840000Y-8565000D01*
X10840000Y-8535000D02*
X10810000Y-8565000D01*
X10815000Y-6295000D02*
X10845000Y-6325000D01*
X10845000Y-6295000D02*
X10815000Y-6325000D01*
X10925000Y-6385000D02*
X10955000Y-6415000D01*
X10955000Y-6385000D02*
X10925000Y-6415000D01*
X10995000Y-9035000D02*
X11025000Y-9065000D01*
X11025000Y-9035000D02*
X10995000Y-9065000D01*
X11035000Y-6035000D02*
X11065000Y-6065000D01*
X11065000Y-6035000D02*
X11035000Y-6065000D01*
X11135000Y-6985000D02*
X11165000Y-7015000D01*
X11165000Y-6985000D02*
X11135000Y-7015000D01*
X11135000Y-7285000D02*
X11165000Y-7315000D01*
X11165000Y-7285000D02*
X11135000Y-7315000D01*
X11235000Y-7660000D02*
X11265000Y-7690000D01*
X11265000Y-7660000D02*
X11235000Y-7690000D01*
X11235000Y-8210000D02*
X11265000Y-8240000D01*
X11265000Y-8210000D02*
X11235000Y-8240000D01*
X11275000Y-9135000D02*
X11305000Y-9165000D01*
X11305000Y-9135000D02*
X11275000Y-9165000D01*
X11310000Y-6285000D02*
X11340000Y-6315000D01*
X11340000Y-6285000D02*
X11310000Y-6315000D01*
X11385000Y-6985000D02*
X11415000Y-7015000D01*
X11415000Y-6985000D02*
X11385000Y-7015000D01*
X11385000Y-7285000D02*
X11415000Y-7315000D01*
X11415000Y-7285000D02*
X11385000Y-7315000D01*
X11435000Y-8585000D02*
X11465000Y-8615000D01*
X11465000Y-8585000D02*
X11435000Y-8615000D01*
X11545000Y-9135000D02*
X11575000Y-9165000D01*
X11575000Y-9135000D02*
X11545000Y-9165000D01*
X11635000Y-7185000D02*
X11665000Y-7215000D01*
X11665000Y-7185000D02*
X11635000Y-7215000D01*
X11725000Y-6315000D02*
X11755000Y-6345000D01*
X11755000Y-6315000D02*
X11725000Y-6345000D01*
X11745000Y-8595000D02*
X11775000Y-8625000D01*
X11775000Y-8595000D02*
X11745000Y-8625000D01*
X11810000Y-6760000D02*
X11840000Y-6790000D01*
X11840000Y-6760000D02*
X11810000Y-6790000D01*
X11945000Y-6095000D02*
X11975000Y-6125000D01*
X11975000Y-6095000D02*
X11945000Y-6125000D01*
X12040000Y-6495000D02*
X12070000Y-6525000D01*
X12070000Y-6495000D02*
X12040000Y-6525000D01*
X12045000Y-6835000D02*
X12075000Y-6865000D01*
X12075000Y-6835000D02*
X12045000Y-6865000D01*
X12050000Y-7240000D02*
X12080000Y-7270000D01*
X12080000Y-7240000D02*
X12050000Y-7270000D01*
X12057500Y-8387500D02*
X12087500Y-8417500D01*
X12087500Y-8387500D02*
X12057500Y-8417500D01*
X12075000Y-7675000D02*
X12105000Y-7705000D01*
X12105000Y-7675000D02*
X12075000Y-7705000D01*
X12165000Y-5885000D02*
X12195000Y-5915000D01*
X12195000Y-5885000D02*
X12165000Y-5915000D01*
X12335000Y-6235000D02*
X12365000Y-6265000D01*
X12365000Y-6235000D02*
X12335000Y-6265000D01*
X12335000Y-6660000D02*
X12365000Y-6690000D01*
X12365000Y-6660000D02*
X12335000Y-6690000D01*
X12335000Y-7210000D02*
X12365000Y-7240000D01*
X12365000Y-7210000D02*
X12335000Y-7240000D01*
X12375000Y-5675000D02*
X12405000Y-5705000D01*
X12405000Y-5675000D02*
X12375000Y-5705000D01*
X12385000Y-8135000D02*
X12415000Y-8165000D01*
X12415000Y-8135000D02*
X12385000Y-8165000D01*
X12485000Y-6860000D02*
X12515000Y-6890000D01*
X12515000Y-6860000D02*
X12485000Y-6890000D01*
X12485000Y-7035000D02*
X12515000Y-7065000D01*
X12515000Y-7035000D02*
X12485000Y-7065000D01*
X12660000Y-6935000D02*
X12690000Y-6965000D01*
X12690000Y-6935000D02*
X12660000Y-6965000D01*
X12695000Y-5845000D02*
X12725000Y-5875000D01*
X12725000Y-5845000D02*
X12695000Y-5875000D01*
X12760000Y-6335000D02*
X12790000Y-6365000D01*
X12790000Y-6335000D02*
X12760000Y-6365000D01*
X12760000Y-6510000D02*
X12790000Y-6540000D01*
X12790000Y-6510000D02*
X12760000Y-6540000D01*
X12760000Y-6685000D02*
X12790000Y-6715000D01*
X12790000Y-6685000D02*
X12760000Y-6715000D01*
X12775000Y-7185000D02*
X12805000Y-7215000D01*
X12805000Y-7185000D02*
X12775000Y-7215000D01*
X12775000Y-7415000D02*
X12805000Y-7445000D01*
X12805000Y-7415000D02*
X12775000Y-7445000D01*
X12775000Y-7747500D02*
X12805000Y-7777500D01*
X12805000Y-7747500D02*
X12775000Y-7777500D01*
X12775000Y-7930000D02*
X12805000Y-7960000D01*
X12805000Y-7930000D02*
X12775000Y-7960000D01*
X12855000Y-5850000D02*
X12885000Y-5880000D01*
X12885000Y-5850000D02*
X12855000Y-5880000D01*
X12910000Y-8135000D02*
X12940000Y-8165000D01*
X12940000Y-8135000D02*
X12910000Y-8165000D01*
X12910000Y-8410000D02*
X12940000Y-8440000D01*
X12940000Y-8410000D02*
X12910000Y-8440000D01*
X12975000Y-6055000D02*
X13005000Y-6085000D01*
X13005000Y-6055000D02*
X12975000Y-6085000D01*
X12975000Y-6175000D02*
X13005000Y-6205000D01*
X13005000Y-6175000D02*
X12975000Y-6205000D01*
X13095000Y-7225000D02*
X13125000Y-7255000D01*
X13125000Y-7225000D02*
X13095000Y-7255000D01*
X13095000Y-7762400D02*
X13125000Y-7792400D01*
X13125000Y-7762400D02*
X13095000Y-7792400D01*
X13185000Y-8135000D02*
X13215000Y-8165000D01*
X13215000Y-8135000D02*
X13185000Y-8165000D01*
X13210000Y-7125000D02*
X13240000Y-7155000D01*
X13240000Y-7125000D02*
X13210000Y-7155000D01*
X13285000Y-8445000D02*
X13315000Y-8475000D01*
X13315000Y-8445000D02*
X13285000Y-8475000D01*
X13315000Y-7595000D02*
X13345000Y-7625000D01*
X13345000Y-7595000D02*
X13315000Y-7625000D01*
X13335000Y-6135000D02*
X13365000Y-6165000D01*
X13365000Y-6135000D02*
X13335000Y-6165000D01*
X13345000Y-6355000D02*
X13375000Y-6385000D01*
X13375000Y-6355000D02*
X13345000Y-6385000D01*
X13345000Y-6545000D02*
X13375000Y-6575000D01*
X13375000Y-6545000D02*
X13345000Y-6575000D01*
X13360000Y-7960000D02*
X13390000Y-7990000D01*
X13390000Y-7960000D02*
X13360000Y-7990000D01*
X13385000Y-5835000D02*
X13415000Y-5865000D01*
X13415000Y-5835000D02*
X13385000Y-5865000D01*
X13405000Y-9055000D02*
X13435000Y-9085000D01*
X13435000Y-9055000D02*
X13405000Y-9085000D01*
X13455000Y-8255000D02*
X13485000Y-8285000D01*
X13485000Y-8255000D02*
X13455000Y-8285000D01*
X13525000Y-7815000D02*
X13555000Y-7845000D01*
X13555000Y-7815000D02*
X13525000Y-7845000D01*
X13545000Y-7350000D02*
X13575000Y-7380000D01*
X13575000Y-7350000D02*
X13545000Y-7380000D01*
X13665000Y-9055000D02*
X13695000Y-9085000D01*
X13695000Y-9055000D02*
X13665000Y-9085000D01*
X13685000Y-6760000D02*
X13715000Y-6790000D01*
X13715000Y-6760000D02*
X13685000Y-6790000D01*
X13685000Y-6985000D02*
X13715000Y-7015000D01*
X13715000Y-6985000D02*
X13685000Y-7015000D01*
X13685000Y-7210000D02*
X13715000Y-7240000D01*
X13715000Y-7210000D02*
X13685000Y-7240000D01*
X13875000Y-7485000D02*
X13905000Y-7515000D01*
X13905000Y-7485000D02*
X13875000Y-7515000D01*
X13877500Y-7372500D02*
X13907500Y-7402500D01*
X13907500Y-7372500D02*
X13877500Y-7402500D01*
X13915000Y-9055000D02*
X13945000Y-9085000D01*
X13945000Y-9055000D02*
X13915000Y-9085000D01*
X13960000Y-6760000D02*
X13990000Y-6790000D01*
X13990000Y-6760000D02*
X13960000Y-6790000D01*
X13960000Y-6985000D02*
X13990000Y-7015000D01*
X13990000Y-6985000D02*
X13960000Y-7015000D01*
X13960000Y-7210000D02*
X13990000Y-7240000D01*
X13990000Y-7210000D02*
X13960000Y-7240000D01*
X13985000Y-5660000D02*
X14015000Y-5690000D01*
X14015000Y-5660000D02*
X13985000Y-5690000D01*
X13988000Y-7374000D02*
X14018000Y-7404000D01*
X14018000Y-7374000D02*
X13988000Y-7404000D01*
X14115000Y-7835000D02*
X14145000Y-7865000D01*
X14145000Y-7835000D02*
X14115000Y-7865000D01*
X14115000Y-8145000D02*
X14145000Y-8175000D01*
X14145000Y-8145000D02*
X14115000Y-8175000D01*
X14125000Y-8425000D02*
X14155000Y-8455000D01*
X14155000Y-8425000D02*
X14125000Y-8455000D01*
X14145000Y-9055000D02*
X14175000Y-9085000D01*
X14175000Y-9055000D02*
X14145000Y-9085000D01*
X14160000Y-5885000D02*
X14190000Y-5915000D01*
X14190000Y-5885000D02*
X14160000Y-5915000D01*
X14225000Y-6180000D02*
X14255000Y-6210000D01*
X14255000Y-6180000D02*
X14225000Y-6210000D01*
X14260000Y-6760000D02*
X14290000Y-6790000D01*
X14290000Y-6760000D02*
X14260000Y-6790000D01*
X14260000Y-6985000D02*
X14290000Y-7015000D01*
X14290000Y-6985000D02*
X14260000Y-7015000D01*
X14260000Y-7210000D02*
X14290000Y-7240000D01*
X14290000Y-7210000D02*
X14260000Y-7240000D01*
X14335000Y-5710000D02*
X14365000Y-5740000D01*
X14365000Y-5710000D02*
X14335000Y-5740000D01*
X14460000Y-6585000D02*
X14490000Y-6615000D01*
X14490000Y-6585000D02*
X14460000Y-6615000D01*
X14465000Y-7685000D02*
X14495000Y-7715000D01*
X14495000Y-7685000D02*
X14465000Y-7715000D01*
X14475000Y-8445000D02*
X14505000Y-8475000D01*
X14505000Y-8445000D02*
X14475000Y-8475000D01*
X14535000Y-5985000D02*
X14565000Y-6015000D01*
X14565000Y-5985000D02*
X14535000Y-6015000D01*
X14560000Y-5510000D02*
X14590000Y-5540000D01*
X14590000Y-5510000D02*
X14560000Y-5540000D01*
X14605000Y-7595000D02*
X14635000Y-7625000D01*
X14635000Y-7595000D02*
X14605000Y-7625000D01*
X14605000Y-7855000D02*
X14635000Y-7885000D01*
X14635000Y-7855000D02*
X14605000Y-7885000D01*
X14610000Y-6585000D02*
X14640000Y-6615000D01*
X14640000Y-6585000D02*
X14610000Y-6615000D01*
X14622502Y-8615000D02*
X14652502Y-8645000D01*
X14652502Y-8615000D02*
X14622502Y-8645000D01*
X14685000Y-9055000D02*
X14715000Y-9085000D01*
X14715000Y-9055000D02*
X14685000Y-9085000D01*
X14760000Y-6460000D02*
X14790000Y-6490000D01*
X14790000Y-6460000D02*
X14760000Y-6490000D01*
X14845000Y-8700000D02*
X14875000Y-8730000D01*
X14875000Y-8700000D02*
X14845000Y-8730000D01*
X14875000Y-7275000D02*
X14905000Y-7305000D01*
X14905000Y-7275000D02*
X14875000Y-7305000D01*
X14900000Y-6337500D02*
X14930000Y-6367500D01*
X14930000Y-6337500D02*
X14900000Y-6367500D01*
X14905000Y-6067500D02*
X14935000Y-6097500D01*
X14935000Y-6067500D02*
X14905000Y-6097500D01*
X14953000Y-8402000D02*
X14983000Y-8432000D01*
X14983000Y-8402000D02*
X14953000Y-8432000D01*
X14960000Y-5585000D02*
X14990000Y-5615000D01*
X14990000Y-5585000D02*
X14960000Y-5615000D01*
X15000000Y-7182500D02*
X15030000Y-7212500D01*
X15030000Y-7182500D02*
X15000000Y-7212500D01*
X15020000Y-7370000D02*
X15050000Y-7400000D01*
X15050000Y-7370000D02*
X15020000Y-7400000D01*
X15035000Y-5060000D02*
X15065000Y-5090000D01*
X15065000Y-5060000D02*
X15035000Y-5090000D01*
X15035000Y-8875000D02*
X15065000Y-8905000D01*
X15065000Y-8875000D02*
X15035000Y-8905000D01*
X15100000Y-8737500D02*
X15130000Y-8767500D01*
X15130000Y-8737500D02*
X15100000Y-8767500D01*
X15130000Y-7147500D02*
X15160000Y-7177500D01*
X15160000Y-7147500D02*
X15130000Y-7177500D01*
X15165000Y-9045000D02*
X15195000Y-9075000D01*
X15195000Y-9045000D02*
X15165000Y-9075000D01*
X15225000Y-7376400D02*
X15255000Y-7406400D01*
X15255000Y-7376400D02*
X15225000Y-7406400D01*
X15239999Y-7975000D02*
X15269999Y-8005000D01*
X15269999Y-7975000D02*
X15239999Y-8005000D01*
X15285000Y-4810000D02*
X15315000Y-4840000D01*
X15315000Y-4810000D02*
X15285000Y-4840000D01*
X15310000Y-5910000D02*
X15340000Y-5940000D01*
X15340000Y-5910000D02*
X15310000Y-5940000D01*
X15335000Y-5210000D02*
X15365000Y-5240000D01*
X15365000Y-5210000D02*
X15335000Y-5240000D01*
X15344000Y-6927000D02*
X15374000Y-6957000D01*
X15374000Y-6927000D02*
X15344000Y-6957000D01*
X15344000Y-7297000D02*
X15374000Y-7327000D01*
X15374000Y-7297000D02*
X15344000Y-7327000D01*
X15385000Y-6435000D02*
X15415000Y-6465000D01*
X15415000Y-6435000D02*
X15385000Y-6465000D01*
X15410000Y-7660000D02*
X15440000Y-7690000D01*
X15440000Y-7660000D02*
X15410000Y-7690000D01*
X15535000Y-7535000D02*
X15565000Y-7565000D01*
X15565000Y-7535000D02*
X15535000Y-7565000D01*
X15560000Y-7835000D02*
X15590000Y-7865000D01*
X15590000Y-7835000D02*
X15560000Y-7865000D01*
X15635000Y-5585000D02*
X15665000Y-5615000D01*
X15665000Y-5585000D02*
X15635000Y-5615000D01*
X15635000Y-6160000D02*
X15665000Y-6190000D01*
X15665000Y-6160000D02*
X15635000Y-6190000D01*
X15760000Y-6510000D02*
X15790000Y-6540000D01*
X15790000Y-6510000D02*
X15760000Y-6540000D01*
X15885000Y-5910000D02*
X15915000Y-5940000D01*
X15915000Y-5910000D02*
X15885000Y-5940000D01*
X15910000Y-7685000D02*
X15940000Y-7715000D01*
X15940000Y-7685000D02*
X15910000Y-7715000D01*
X15910000Y-7835000D02*
X15940000Y-7865000D01*
X15940000Y-7835000D02*
X15910000Y-7865000D01*
X15910000Y-8435000D02*
X15940000Y-8465000D01*
X15940000Y-8435000D02*
X15910000Y-8465000D01*
X15995000Y-6775000D02*
X16025000Y-6805000D01*
X16025000Y-6775000D02*
X15995000Y-6805000D01*
X16110000Y-5660000D02*
X16140000Y-5690000D01*
X16140000Y-5660000D02*
X16110000Y-5690000D01*
X16110000Y-9235000D02*
X16140000Y-9265000D01*
X16140000Y-9235000D02*
X16110000Y-9265000D01*
X16135000Y-6060000D02*
X16165000Y-6090000D01*
X16165000Y-6060000D02*
X16135000Y-6090000D01*
X16135000Y-6285000D02*
X16165000Y-6315000D01*
X16165000Y-6285000D02*
X16135000Y-6315000D01*
X16135000Y-8585000D02*
X16165000Y-8615000D01*
X16165000Y-8585000D02*
X16135000Y-8615000D01*
X16285000Y-6485000D02*
X16315000Y-6515000D01*
X16315000Y-6485000D02*
X16285000Y-6515000D01*
X16285000Y-7535000D02*
X16315000Y-7565000D01*
X16315000Y-7535000D02*
X16285000Y-7565000D01*
X16285000Y-7685000D02*
X16315000Y-7715000D01*
X16315000Y-7685000D02*
X16285000Y-7715000D01*
X16285000Y-8035000D02*
X16315000Y-8065000D01*
X16315000Y-8035000D02*
X16285000Y-8065000D01*
X16310000Y-5435000D02*
X16340000Y-5465000D01*
X16340000Y-5435000D02*
X16310000Y-5465000D01*
X16310000Y-8410000D02*
X16340000Y-8440000D01*
X16340000Y-8410000D02*
X16310000Y-8440000D01*
X16435000Y-6685000D02*
X16465000Y-6715000D01*
X16465000Y-6685000D02*
X16435000Y-6715000D01*
X16460000Y-8785000D02*
X16490000Y-8815000D01*
X16490000Y-8785000D02*
X16460000Y-8815000D01*
X16460000Y-8960000D02*
X16490000Y-8990000D01*
X16490000Y-8960000D02*
X16460000Y-8990000D01*
X16585000Y-6885000D02*
X16615000Y-6915000D01*
X16615000Y-6885000D02*
X16585000Y-6915000D01*
X16585000Y-8335000D02*
X16615000Y-8365000D01*
X16615000Y-8335000D02*
X16585000Y-8365000D01*
X16610000Y-7885000D02*
X16640000Y-7915000D01*
X16640000Y-7885000D02*
X16610000Y-7915000D01*
X16635000Y-5710000D02*
X16665000Y-5740000D01*
X16665000Y-5710000D02*
X16635000Y-5740000D01*
X16638000Y-5435000D02*
X16668000Y-5465000D01*
X16668000Y-5435000D02*
X16638000Y-5465000D01*
X16660000Y-6085000D02*
X16690000Y-6115000D01*
X16690000Y-6085000D02*
X16660000Y-6115000D01*
X16735000Y-5075000D02*
X16765000Y-5105000D01*
X16765000Y-5075000D02*
X16735000Y-5105000D01*
X16760000Y-6735000D02*
X16790000Y-6765000D01*
X16790000Y-6735000D02*
X16760000Y-6765000D01*
X16760000Y-7735000D02*
X16790000Y-7765000D01*
X16790000Y-7735000D02*
X16760000Y-7765000D01*
X16955000Y-5145000D02*
X16985000Y-5175000D01*
X16985000Y-5145000D02*
X16955000Y-5175000D01*
X16960000Y-8585000D02*
X16990000Y-8615000D01*
X16990000Y-8585000D02*
X16960000Y-8615000D01*
X17135000Y-8585000D02*
X17165000Y-8615000D01*
X17165000Y-8585000D02*
X17135000Y-8615000D01*
X17135000Y-9285000D02*
X17165000Y-9315000D01*
X17165000Y-9285000D02*
X17135000Y-9315000D01*
X17160000Y-5535000D02*
X17190000Y-5565000D01*
X17190000Y-5535000D02*
X17160000Y-5565000D01*
X17160000Y-6210000D02*
X17190000Y-6240000D01*
X17190000Y-6210000D02*
X17160000Y-6240000D01*
X17215000Y-5140000D02*
X17245000Y-5170000D01*
X17245000Y-5140000D02*
X17215000Y-5170000D01*
X17235000Y-6910000D02*
X17265000Y-6940000D01*
X17265000Y-6910000D02*
X17235000Y-6940000D01*
X17335000Y-5710000D02*
X17365000Y-5740000D01*
X17365000Y-5710000D02*
X17335000Y-5740000D01*
X17335000Y-5960000D02*
X17365000Y-5990000D01*
X17365000Y-5960000D02*
X17335000Y-5990000D01*
X17335000Y-6385000D02*
X17365000Y-6415000D01*
X17365000Y-6385000D02*
X17335000Y-6415000D01*
X17335000Y-6635000D02*
X17365000Y-6665000D01*
X17365000Y-6635000D02*
X17335000Y-6665000D01*
X17360000Y-5245000D02*
X17390000Y-5275000D01*
X17390000Y-5245000D02*
X17360000Y-5275000D01*
X17360000Y-7060000D02*
X17390000Y-7090000D01*
X17390000Y-7060000D02*
X17360000Y-7090000D01*
X17410000Y-9285000D02*
X17440000Y-9315000D01*
X17440000Y-9285000D02*
X17410000Y-9315000D01*
X17435000Y-8585000D02*
X17465000Y-8615000D01*
X17465000Y-8585000D02*
X17435000Y-8615000D01*
X17460000Y-7335000D02*
X17490000Y-7365000D01*
X17490000Y-7335000D02*
X17460000Y-7365000D01*
X17485000Y-6910000D02*
X17515000Y-6940000D01*
X17515000Y-6910000D02*
X17485000Y-6940000D01*
X17510000Y-5135000D02*
X17540000Y-5165000D01*
X17540000Y-5135000D02*
X17510000Y-5165000D01*
X17510000Y-5535000D02*
X17540000Y-5565000D01*
X17540000Y-5535000D02*
X17510000Y-5565000D01*
X17510000Y-6210000D02*
X17540000Y-6240000D01*
X17540000Y-6210000D02*
X17510000Y-6240000D01*
X17660000Y-8585000D02*
X17690000Y-8615000D01*
X17690000Y-8585000D02*
X17660000Y-8615000D01*
X17685000Y-9285000D02*
X17715000Y-9315000D01*
X17715000Y-9285000D02*
X17685000Y-9315000D01*
X17835000Y-8110000D02*
X17865000Y-8140000D01*
X17865000Y-8110000D02*
X17835000Y-8140000D01*
X17885000Y-8585000D02*
X17915000Y-8615000D01*
X17915000Y-8585000D02*
X17885000Y-8615000D01*
X17885000Y-9060000D02*
X17915000Y-9090000D01*
X17915000Y-9060000D02*
X17885000Y-9090000D01*
X17920000Y-4825000D02*
X17950000Y-4855000D01*
X17950000Y-4825000D02*
X17920000Y-4855000D01*
X17935000Y-5485000D02*
X17965000Y-5515000D01*
X17965000Y-5485000D02*
X17935000Y-5515000D01*
X17935000Y-6210000D02*
X17965000Y-6240000D01*
X17965000Y-6210000D02*
X17935000Y-6240000D01*
X17935000Y-6910000D02*
X17965000Y-6940000D01*
X17965000Y-6910000D02*
X17935000Y-6940000D01*
X17935000Y-7360000D02*
X17965000Y-7390000D01*
X17965000Y-7360000D02*
X17935000Y-7390000D01*
X17935000Y-7535000D02*
X17965000Y-7565000D01*
X17965000Y-7535000D02*
X17935000Y-7565000D01*
X17935000Y-7885000D02*
X17965000Y-7915000D01*
X17965000Y-7885000D02*
X17935000Y-7915000D01*
X18035000Y-8035000D02*
X18065000Y-8065000D01*
X18065000Y-8035000D02*
X18035000Y-8065000D01*
X17119400Y-9067800D02*
G75*
G03X17119400Y-9067800I-25000J0D01*
G01*
X17079400Y-9032800D02*
X17079400Y-9102800D01*
X17109400Y-9032800D02*
X17109400Y-9102800D01*
X17079400Y-9102800D02*
G75*
G03X17109400Y-9102800I15000J0D01*
G01*
X17109400Y-9032800D02*
G75*
G03X17079400Y-9032800I-15000J0D01*
G01*
X17779400Y-9067800D02*
G75*
G03X17779400Y-9067800I-25000J0D01*
G01*
X17739400Y-9032800D02*
X17739400Y-9102800D01*
X17769400Y-9032800D02*
X17769400Y-9102800D01*
X17739400Y-9102800D02*
G75*
G03X17769400Y-9102800I15000J0D01*
G01*
X17769400Y-9032800D02*
G75*
G03X17739400Y-9032800I-15000J0D01*
G01*
X16505000Y-7486000D02*
X16505000Y-7546000D01*
X16475000Y-7516000D02*
X16535000Y-7516000D01*
X16505000Y-7740000D02*
X16505000Y-7800000D01*
X16475000Y-7770000D02*
X16535000Y-7770000D01*
X10059981Y-8760581D02*
X10059981Y-8714619D01*
X10014019Y-8714619D01*
X10014019Y-8760581D01*
X10059981Y-8760581D01*
X10559981Y-8760581D02*
X10559981Y-8714619D01*
X10514019Y-8714619D01*
X10514019Y-8760581D01*
X10559981Y-8760581D01*
X17703800Y-7587000D02*
X17743800Y-7547000D01*
X17703800Y-7507000D01*
X17663800Y-7547000D01*
X17703800Y-7587000D01*
X17703800Y-7787000D02*
X17743800Y-7747000D01*
X17703800Y-7707000D01*
X17663800Y-7747000D01*
X17703800Y-7787000D01*
X11049000Y-8904600D02*
X11089000Y-8864600D01*
X11049000Y-8824600D01*
X11009000Y-8864600D01*
X11049000Y-8904600D01*
X11303000Y-8904600D02*
X11343000Y-8864600D01*
X11303000Y-8824600D01*
X11263000Y-8864600D01*
X11303000Y-8904600D01*
X11557000Y-8904600D02*
X11597000Y-8864600D01*
X11557000Y-8824600D01*
X11517000Y-8864600D01*
X11557000Y-8904600D01*
X10261600Y-7888600D02*
X10301600Y-7848600D01*
X10261600Y-7808600D01*
X10221600Y-7848600D01*
X10261600Y-7888600D01*
X11023600Y-7888600D02*
X11063600Y-7848600D01*
X11023600Y-7808600D01*
X10983600Y-7848600D01*
X11023600Y-7888600D01*
X17145000Y-7587000D02*
X17185000Y-7547000D01*
X17145000Y-7507000D01*
X17105000Y-7547000D01*
X17145000Y-7587000D01*
X17145000Y-7787000D02*
X17185000Y-7747000D01*
X17145000Y-7707000D01*
X17105000Y-7747000D01*
X17145000Y-7787000D01*
X16975400Y-6041800D02*
X17075400Y-6141800D01*
X17075400Y-6041800D02*
X16975400Y-6141800D01*
X17075400Y-6091800D02*
G75*
G03X17075400Y-6091800I-50000J0D01*
G01*
X16975400Y-6491800D02*
X17075400Y-6591800D01*
X17075400Y-6491800D02*
X16975400Y-6591800D01*
X17075400Y-6541800D02*
G75*
G03X17075400Y-6541800I-50000J0D01*
G01*
X17625400Y-6041800D02*
X17725400Y-6141800D01*
X17725400Y-6041800D02*
X17625400Y-6141800D01*
X17725400Y-6091800D02*
G75*
G03X17725400Y-6091800I-50000J0D01*
G01*
X17625400Y-6491800D02*
X17725400Y-6591800D01*
X17725400Y-6491800D02*
X17625400Y-6591800D01*
X17725400Y-6541800D02*
G75*
G03X17725400Y-6541800I-50000J0D01*
G01*
X16307600Y-4903000D02*
X16407600Y-5003000D01*
X16407600Y-4903000D02*
X16307600Y-5003000D01*
X16407600Y-4953000D02*
G75*
G03X16407600Y-4953000I-50000J0D01*
G01*
X16561600Y-4903000D02*
X16661600Y-5003000D01*
X16661600Y-4903000D02*
X16561600Y-5003000D01*
X16661600Y-4953000D02*
G75*
G03X16661600Y-4953000I-50000J0D01*
G01*
X16815600Y-4903000D02*
X16915600Y-5003000D01*
X16915600Y-4903000D02*
X16815600Y-5003000D01*
X16915600Y-4953000D02*
G75*
G03X16915600Y-4953000I-50000J0D01*
G01*
X17069600Y-4903000D02*
X17169600Y-5003000D01*
X17169600Y-4903000D02*
X17069600Y-5003000D01*
X17169600Y-4953000D02*
G75*
G03X17169600Y-4953000I-50000J0D01*
G01*
X17323600Y-4903000D02*
X17423600Y-5003000D01*
X17423600Y-4903000D02*
X17323600Y-5003000D01*
X17423600Y-4953000D02*
G75*
G03X17423600Y-4953000I-50000J0D01*
G01*
X17577600Y-4903000D02*
X17677600Y-5003000D01*
X17677600Y-4903000D02*
X17577600Y-5003000D01*
X17677600Y-4953000D02*
G75*
G03X17677600Y-4953000I-50000J0D01*
G01*
X13002000Y-8852000D02*
X13102000Y-8952000D01*
X13102000Y-8852000D02*
X13002000Y-8952000D01*
X13102000Y-8902000D02*
G75*
G03X13102000Y-8902000I-50000J0D01*
G01*
X13004681Y-5089488D02*
X13104681Y-5189488D01*
X13104681Y-5089488D02*
X13004681Y-5189488D01*
X13104681Y-5139488D02*
G75*
G03X13104681Y-5139488I-50000J0D01*
G01*
X13256000Y-8852000D02*
X13356000Y-8952000D01*
X13356000Y-8852000D02*
X13256000Y-8952000D01*
X13356000Y-8902000D02*
G75*
G03X13356000Y-8902000I-50000J0D01*
G01*
X13258681Y-5089488D02*
X13358681Y-5189488D01*
X13358681Y-5089488D02*
X13258681Y-5189488D01*
X13358681Y-5139488D02*
G75*
G03X13358681Y-5139488I-50000J0D01*
G01*
X13510000Y-8852000D02*
X13610000Y-8952000D01*
X13610000Y-8852000D02*
X13510000Y-8952000D01*
X13610000Y-8902000D02*
G75*
G03X13610000Y-8902000I-50000J0D01*
G01*
X13512681Y-5089488D02*
X13612681Y-5189488D01*
X13612681Y-5089488D02*
X13512681Y-5189488D01*
X13612681Y-5139488D02*
G75*
G03X13612681Y-5139488I-50000J0D01*
G01*
X13764000Y-8852000D02*
X13864000Y-8952000D01*
X13864000Y-8852000D02*
X13764000Y-8952000D01*
X13864000Y-8902000D02*
G75*
G03X13864000Y-8902000I-50000J0D01*
G01*
X13766681Y-5089488D02*
X13866681Y-5189488D01*
X13866681Y-5089488D02*
X13766681Y-5189488D01*
X13866681Y-5139488D02*
G75*
G03X13866681Y-5139488I-50000J0D01*
G01*
X14018000Y-8852000D02*
X14118000Y-8952000D01*
X14118000Y-8852000D02*
X14018000Y-8952000D01*
X14118000Y-8902000D02*
G75*
G03X14118000Y-8902000I-50000J0D01*
G01*
X14020681Y-5089488D02*
X14120681Y-5189488D01*
X14120681Y-5089488D02*
X14020681Y-5189488D01*
X14120681Y-5139488D02*
G75*
G03X14120681Y-5139488I-50000J0D01*
G01*
X14272000Y-8852000D02*
X14372000Y-8952000D01*
X14372000Y-8852000D02*
X14272000Y-8952000D01*
X14372000Y-8902000D02*
G75*
G03X14372000Y-8902000I-50000J0D01*
G01*
X14274681Y-5089488D02*
X14374681Y-5189488D01*
X14374681Y-5089488D02*
X14274681Y-5189488D01*
X14374681Y-5139488D02*
G75*
G03X14374681Y-5139488I-50000J0D01*
G01*
X14526000Y-8852000D02*
X14626000Y-8952000D01*
X14626000Y-8852000D02*
X14526000Y-8952000D01*
X14626000Y-8902000D02*
G75*
G03X14626000Y-8902000I-50000J0D01*
G01*
X14528681Y-5089488D02*
X14628681Y-5189488D01*
X14628681Y-5089488D02*
X14528681Y-5189488D01*
X14628681Y-5139488D02*
G75*
G03X14628681Y-5139488I-50000J0D01*
G01*
X14780000Y-8852000D02*
X14880000Y-8952000D01*
X14880000Y-8852000D02*
X14780000Y-8952000D01*
X14880000Y-8902000D02*
G75*
G03X14880000Y-8902000I-50000J0D01*
G01*
X14782681Y-5089488D02*
X14882681Y-5189488D01*
X14882681Y-5089488D02*
X14782681Y-5189488D01*
X14882681Y-5139488D02*
G75*
G03X14882681Y-5139488I-50000J0D01*
G01*
X16973200Y-6735400D02*
X17073200Y-6835400D01*
X17073200Y-6735400D02*
X16973200Y-6835400D01*
X17073200Y-6785400D02*
G75*
G03X17073200Y-6785400I-50000J0D01*
G01*
X16973200Y-7185400D02*
X17073200Y-7285400D01*
X17073200Y-7185400D02*
X16973200Y-7285400D01*
X17073200Y-7235400D02*
G75*
G03X17073200Y-7235400I-50000J0D01*
G01*
X17623200Y-6735400D02*
X17723200Y-6835400D01*
X17723200Y-6735400D02*
X17623200Y-6835400D01*
X17723200Y-6785400D02*
G75*
G03X17723200Y-6785400I-50000J0D01*
G01*
X17623200Y-7185400D02*
X17723200Y-7285400D01*
X17723200Y-7185400D02*
X17623200Y-7285400D01*
X17723200Y-7235400D02*
G75*
G03X17723200Y-7235400I-50000J0D01*
G01*
X16965400Y-5353800D02*
X17065400Y-5453800D01*
X17065400Y-5353800D02*
X16965400Y-5453800D01*
X17065400Y-5403800D02*
G75*
G03X17065400Y-5403800I-50000J0D01*
G01*
X16965400Y-5803800D02*
X17065400Y-5903800D01*
X17065400Y-5803800D02*
X16965400Y-5903800D01*
X17065400Y-5853800D02*
G75*
G03X17065400Y-5853800I-50000J0D01*
G01*
X17615400Y-5353800D02*
X17715400Y-5453800D01*
X17715400Y-5353800D02*
X17615400Y-5453800D01*
X17715400Y-5403800D02*
G75*
G03X17715400Y-5403800I-50000J0D01*
G01*
X17615400Y-5803800D02*
X17715400Y-5903800D01*
X17715400Y-5803800D02*
X17615400Y-5903800D01*
X17715400Y-5853800D02*
G75*
G03X17715400Y-5853800I-50000J0D01*
G01*
X9729000Y-7087400D02*
X9829000Y-7187400D01*
X9829000Y-7087400D02*
X9729000Y-7187400D01*
X9829000Y-7137400D02*
G75*
G03X9829000Y-7137400I-50000J0D01*
G01*
X9983000Y-7087400D02*
X10083000Y-7187400D01*
X10083000Y-7087400D02*
X9983000Y-7187400D01*
X10083000Y-7137400D02*
G75*
G03X10083000Y-7137400I-50000J0D01*
G01*
X10237000Y-7087400D02*
X10337000Y-7187400D01*
X10337000Y-7087400D02*
X10237000Y-7187400D01*
X10337000Y-7137400D02*
G75*
G03X10337000Y-7137400I-50000J0D01*
G01*
X16312000Y-5618000D02*
X16412000Y-5718000D01*
X16412000Y-5618000D02*
X16312000Y-5718000D01*
X16412000Y-5668000D02*
G75*
G03X16412000Y-5668000I-50000J0D01*
G01*
X16312000Y-5872000D02*
X16412000Y-5972000D01*
X16412000Y-5872000D02*
X16312000Y-5972000D01*
X16412000Y-5922000D02*
G75*
G03X16412000Y-5922000I-50000J0D01*
G01*
X16312000Y-6126000D02*
X16412000Y-6226000D01*
X16412000Y-6126000D02*
X16312000Y-6226000D01*
X16412000Y-6176000D02*
G75*
G03X16412000Y-6176000I-50000J0D01*
G01*
X9729000Y-6528600D02*
X9829000Y-6628600D01*
X9829000Y-6528600D02*
X9729000Y-6628600D01*
X9829000Y-6578600D02*
G75*
G03X9829000Y-6578600I-50000J0D01*
G01*
X9983000Y-6528600D02*
X10083000Y-6628600D01*
X10083000Y-6528600D02*
X9983000Y-6628600D01*
X10083000Y-6578600D02*
G75*
G03X10083000Y-6578600I-50000J0D01*
G01*
X10237000Y-6528600D02*
X10337000Y-6628600D01*
X10337000Y-6528600D02*
X10237000Y-6628600D01*
X10337000Y-6578600D02*
G75*
G03X10337000Y-6578600I-50000J0D01*
G01*
X10491000Y-5258600D02*
X10591000Y-5358600D01*
X10591000Y-5258600D02*
X10491000Y-5358600D01*
X10591000Y-5308600D02*
G75*
G03X10591000Y-5308600I-50000J0D01*
G01*
X10491000Y-6528600D02*
X10591000Y-6628600D01*
X10591000Y-6528600D02*
X10491000Y-6628600D01*
X10591000Y-6578600D02*
G75*
G03X10591000Y-6578600I-50000J0D01*
G01*
X10745000Y-5258600D02*
X10845000Y-5358600D01*
X10845000Y-5258600D02*
X10745000Y-5358600D01*
X10845000Y-5308600D02*
G75*
G03X10845000Y-5308600I-50000J0D01*
G01*
X10745000Y-6528600D02*
X10845000Y-6628600D01*
X10845000Y-6528600D02*
X10745000Y-6628600D01*
X10845000Y-6578600D02*
G75*
G03X10845000Y-6578600I-50000J0D01*
G01*
X10999000Y-5258600D02*
X11099000Y-5358600D01*
X11099000Y-5258600D02*
X10999000Y-5358600D01*
X11099000Y-5308600D02*
G75*
G03X11099000Y-5308600I-50000J0D01*
G01*
X10999000Y-6528600D02*
X11099000Y-6628600D01*
X11099000Y-6528600D02*
X10999000Y-6628600D01*
X11099000Y-6578600D02*
G75*
G03X11099000Y-6578600I-50000J0D01*
G01*
X11253000Y-6528600D02*
X11353000Y-6628600D01*
X11353000Y-6528600D02*
X11253000Y-6628600D01*
X11353000Y-6578600D02*
G75*
G03X11353000Y-6578600I-50000J0D01*
G01*
X11507000Y-6528600D02*
X11607000Y-6628600D01*
X11607000Y-6528600D02*
X11507000Y-6628600D01*
X11607000Y-6578600D02*
G75*
G03X11607000Y-6578600I-50000J0D01*
G01*
X18034800Y-8865400D02*
X18134800Y-8965400D01*
X18134800Y-8865400D02*
X18034800Y-8965400D01*
X18134800Y-8915400D02*
G75*
G03X18134800Y-8915400I-50000J0D01*
G01*
X18034800Y-9119400D02*
X18134800Y-9219400D01*
X18134800Y-9119400D02*
X18034800Y-9219400D01*
X18134800Y-9169400D02*
G75*
G03X18134800Y-9169400I-50000J0D01*
G01*
X10879000Y-6920000D02*
X10979000Y-7020000D01*
X10979000Y-6920000D02*
X10879000Y-7020000D01*
X10979000Y-6970000D02*
G75*
G03X10979000Y-6970000I-50000J0D01*
G01*
X10879000Y-7370000D02*
X10979000Y-7470000D01*
X10979000Y-7370000D02*
X10879000Y-7470000D01*
X10979000Y-7420000D02*
G75*
G03X10979000Y-7420000I-50000J0D01*
G01*
X11529000Y-6920000D02*
X11629000Y-7020000D01*
X11629000Y-6920000D02*
X11529000Y-7020000D01*
X11629000Y-6970000D02*
G75*
G03X11629000Y-6970000I-50000J0D01*
G01*
X11529000Y-7370000D02*
X11629000Y-7470000D01*
X11629000Y-7370000D02*
X11529000Y-7470000D01*
X11629000Y-7420000D02*
G75*
G03X11629000Y-7420000I-50000J0D01*
G01*
X16988900Y-8238700D02*
X17173900Y-8423700D01*
X17173900Y-8238700D02*
X16988900Y-8423700D01*
X17081400Y-8238700D02*
X17081400Y-8423700D01*
X16988900Y-8331200D02*
X17173900Y-8331200D01*
X17458900Y-8238700D02*
X17643900Y-8423700D01*
X17643900Y-8238700D02*
X17458900Y-8423700D01*
X17551400Y-8238700D02*
X17551400Y-8423700D01*
X17458900Y-8331200D02*
X17643900Y-8331200D01*
X17928900Y-8238700D02*
X18113900Y-8423700D01*
X18113900Y-8238700D02*
X17928900Y-8423700D01*
X18021400Y-8238700D02*
X18021400Y-8423700D01*
X17928900Y-8331200D02*
X18113900Y-8331200D01*
X9779000Y-4927600D02*
X10033000Y-5181600D01*
X10033000Y-4927600D02*
X9779000Y-5181600D01*
X9995803Y-5144403D02*
X9995803Y-4964797D01*
X9816197Y-4964797D01*
X9816197Y-5144403D01*
X9995803Y-5144403D01*
X11303000Y-4927600D02*
X11557000Y-5181600D01*
X11557000Y-4927600D02*
X11303000Y-5181600D01*
X11519803Y-5144403D02*
X11519803Y-4964797D01*
X11340197Y-4964797D01*
X11340197Y-5144403D01*
X11519803Y-5144403D01*
X11842000Y-4927000D02*
X12342000Y-5427000D01*
X12342000Y-4927000D02*
X11842000Y-5427000D01*
X12092000Y-5427000D02*
X12342000Y-5177000D01*
X12092000Y-4927000D01*
X11842000Y-5177000D01*
X12092000Y-5427000D01*
X11842000Y-8627000D02*
X12342000Y-9127000D01*
X12342000Y-8627000D02*
X11842000Y-9127000D01*
X12092000Y-9127000D02*
X12342000Y-8877000D01*
X12092000Y-8627000D01*
X11842000Y-8877000D01*
X12092000Y-9127000D01*
X15542000Y-4927000D02*
X16042000Y-5427000D01*
X16042000Y-4927000D02*
X15542000Y-5427000D01*
X15792000Y-5427000D02*
X16042000Y-5177000D01*
X15792000Y-4927000D01*
X15542000Y-5177000D01*
X15792000Y-5427000D01*
X15542000Y-8627000D02*
X16042000Y-9127000D01*
X16042000Y-8627000D02*
X15542000Y-9127000D01*
X15792000Y-9127000D02*
X16042000Y-8877000D01*
X15792000Y-8627000D01*
X15542000Y-8877000D01*
X15792000Y-9127000D01*
D12*
X9808928Y-9923214D02*
X9808928Y-9623214D01*
X9880357Y-9623214D01*
X9923214Y-9637500D01*
X9951786Y-9666072D01*
X9966071Y-9694643D01*
X9980357Y-9751786D01*
X9980357Y-9794643D01*
X9966071Y-9851786D01*
X9951786Y-9880357D01*
X9923214Y-9908929D01*
X9880357Y-9923214D01*
X9808928Y-9923214D01*
X10108928Y-9923214D02*
X10108928Y-9723214D01*
X10108928Y-9780357D02*
X10123214Y-9751786D01*
X10137500Y-9737500D01*
X10166071Y-9723214D01*
X10194643Y-9723214D01*
X10294643Y-9923214D02*
X10294643Y-9723214D01*
X10294643Y-9623214D02*
X10280357Y-9637500D01*
X10294643Y-9651786D01*
X10308928Y-9637500D01*
X10294643Y-9623214D01*
X10294643Y-9651786D01*
X10480357Y-9923214D02*
X10451786Y-9908929D01*
X10437500Y-9880357D01*
X10437500Y-9623214D01*
X10637500Y-9923214D02*
X10608928Y-9908929D01*
X10594643Y-9880357D01*
X10594643Y-9623214D01*
X10980357Y-9923214D02*
X10980357Y-9623214D01*
X11080357Y-9837500D01*
X11180357Y-9623214D01*
X11180357Y-9923214D01*
X11451786Y-9923214D02*
X11451786Y-9766072D01*
X11437500Y-9737500D01*
X11408928Y-9723214D01*
X11351786Y-9723214D01*
X11323214Y-9737500D01*
X11451786Y-9908929D02*
X11423214Y-9923214D01*
X11351786Y-9923214D01*
X11323214Y-9908929D01*
X11308928Y-9880357D01*
X11308928Y-9851786D01*
X11323214Y-9823214D01*
X11351786Y-9808929D01*
X11423214Y-9808929D01*
X11451786Y-9794643D01*
X11594643Y-9723214D02*
X11594643Y-10023214D01*
X11594643Y-9737500D02*
X11623214Y-9723214D01*
X11680357Y-9723214D01*
X11708928Y-9737500D01*
X11723214Y-9751786D01*
X11737500Y-9780357D01*
X11737500Y-9866072D01*
X11723214Y-9894643D01*
X11708928Y-9908929D01*
X11680357Y-9923214D01*
X11623214Y-9923214D01*
X11594643Y-9908929D01*
X11866071Y-9894643D02*
X11880357Y-9908929D01*
X11866071Y-9923214D01*
X11851786Y-9908929D01*
X11866071Y-9894643D01*
X11866071Y-9923214D01*
X11866071Y-9737500D02*
X11880357Y-9751786D01*
X11866071Y-9766072D01*
X11851786Y-9751786D01*
X11866071Y-9737500D01*
X11866071Y-9766072D01*
X9492500Y-10402500D02*
X9522500Y-10432500D01*
X9522500Y-10402500D02*
X9492500Y-10432500D01*
X9866071Y-10253214D02*
X9894643Y-10253214D01*
X9923214Y-10267500D01*
X9937500Y-10281786D01*
X9951786Y-10310357D01*
X9966071Y-10367500D01*
X9966071Y-10438929D01*
X9951786Y-10496072D01*
X9937500Y-10524643D01*
X9923214Y-10538929D01*
X9894643Y-10553214D01*
X9866071Y-10553214D01*
X9837500Y-10538929D01*
X9823214Y-10524643D01*
X9808928Y-10496072D01*
X9794643Y-10438929D01*
X9794643Y-10367500D01*
X9808928Y-10310357D01*
X9823214Y-10281786D01*
X9837500Y-10267500D01*
X9866071Y-10253214D01*
X10094643Y-10524643D02*
X10108928Y-10538929D01*
X10094643Y-10553214D01*
X10080357Y-10538929D01*
X10094643Y-10524643D01*
X10094643Y-10553214D01*
X10208928Y-10253214D02*
X10394643Y-10253214D01*
X10294643Y-10367500D01*
X10337500Y-10367500D01*
X10366071Y-10381786D01*
X10380357Y-10396072D01*
X10394643Y-10424643D01*
X10394643Y-10496072D01*
X10380357Y-10524643D01*
X10366071Y-10538929D01*
X10337500Y-10553214D01*
X10251786Y-10553214D01*
X10223214Y-10538929D01*
X10208928Y-10524643D01*
X10580357Y-10253214D02*
X10608928Y-10253214D01*
X10637500Y-10267500D01*
X10651786Y-10281786D01*
X10666071Y-10310357D01*
X10680357Y-10367500D01*
X10680357Y-10438929D01*
X10666071Y-10496072D01*
X10651786Y-10524643D01*
X10637500Y-10538929D01*
X10608928Y-10553214D01*
X10580357Y-10553214D01*
X10551786Y-10538929D01*
X10537500Y-10524643D01*
X10523214Y-10496072D01*
X10508928Y-10438929D01*
X10508928Y-10367500D01*
X10523214Y-10310357D01*
X10537500Y-10281786D01*
X10551786Y-10267500D01*
X10580357Y-10253214D01*
X10808928Y-10553214D02*
X10808928Y-10353214D01*
X10808928Y-10381786D02*
X10823214Y-10367500D01*
X10851786Y-10353214D01*
X10894643Y-10353214D01*
X10923214Y-10367500D01*
X10937500Y-10396072D01*
X10937500Y-10553214D01*
X10937500Y-10396072D02*
X10951786Y-10367500D01*
X10980357Y-10353214D01*
X11023214Y-10353214D01*
X11051786Y-10367500D01*
X11066071Y-10396072D01*
X11066071Y-10553214D01*
X11208928Y-10553214D02*
X11208928Y-10353214D01*
X11208928Y-10381786D02*
X11223214Y-10367500D01*
X11251786Y-10353214D01*
X11294643Y-10353214D01*
X11323214Y-10367500D01*
X11337500Y-10396072D01*
X11337500Y-10553214D01*
X11337500Y-10396072D02*
X11351786Y-10367500D01*
X11380357Y-10353214D01*
X11423214Y-10353214D01*
X11451786Y-10367500D01*
X11466071Y-10396072D01*
X11466071Y-10553214D01*
X12051786Y-10238929D02*
X11794643Y-10624643D01*
X12437500Y-10253214D02*
X12466071Y-10253214D01*
X12494643Y-10267500D01*
X12508928Y-10281786D01*
X12523214Y-10310357D01*
X12537500Y-10367500D01*
X12537500Y-10438929D01*
X12523214Y-10496072D01*
X12508928Y-10524643D01*
X12494643Y-10538929D01*
X12466071Y-10553214D01*
X12437500Y-10553214D01*
X12408928Y-10538929D01*
X12394643Y-10524643D01*
X12380357Y-10496072D01*
X12366071Y-10438929D01*
X12366071Y-10367500D01*
X12380357Y-10310357D01*
X12394643Y-10281786D01*
X12408928Y-10267500D01*
X12437500Y-10253214D01*
X12666071Y-10524643D02*
X12680357Y-10538929D01*
X12666071Y-10553214D01*
X12651786Y-10538929D01*
X12666071Y-10524643D01*
X12666071Y-10553214D01*
X12866071Y-10253214D02*
X12894643Y-10253214D01*
X12923214Y-10267500D01*
X12937500Y-10281786D01*
X12951786Y-10310357D01*
X12966071Y-10367500D01*
X12966071Y-10438929D01*
X12951786Y-10496072D01*
X12937500Y-10524643D01*
X12923214Y-10538929D01*
X12894643Y-10553214D01*
X12866071Y-10553214D01*
X12837500Y-10538929D01*
X12823214Y-10524643D01*
X12808928Y-10496072D01*
X12794643Y-10438929D01*
X12794643Y-10367500D01*
X12808928Y-10310357D01*
X12823214Y-10281786D01*
X12837500Y-10267500D01*
X12866071Y-10253214D01*
X13251786Y-10553214D02*
X13080357Y-10553214D01*
X13166071Y-10553214D02*
X13166071Y-10253214D01*
X13137500Y-10296072D01*
X13108928Y-10324643D01*
X13080357Y-10338929D01*
X13366071Y-10281786D02*
X13380357Y-10267500D01*
X13408928Y-10253214D01*
X13480357Y-10253214D01*
X13508928Y-10267500D01*
X13523214Y-10281786D01*
X13537500Y-10310357D01*
X13537500Y-10338929D01*
X13523214Y-10381786D01*
X13351786Y-10553214D01*
X13537500Y-10553214D01*
X13651786Y-10253214D02*
X13651786Y-10310357D01*
X13766071Y-10253214D02*
X13766071Y-10310357D01*
X14208928Y-10667500D02*
X14194643Y-10653214D01*
X14166071Y-10610357D01*
X14151786Y-10581786D01*
X14137500Y-10538929D01*
X14123214Y-10467500D01*
X14123214Y-10410357D01*
X14137500Y-10338929D01*
X14151786Y-10296072D01*
X14166071Y-10267500D01*
X14194643Y-10224643D01*
X14208928Y-10210357D01*
X14308928Y-10281786D02*
X14323214Y-10267500D01*
X14351786Y-10253214D01*
X14423214Y-10253214D01*
X14451786Y-10267500D01*
X14466071Y-10281786D01*
X14480357Y-10310357D01*
X14480357Y-10338929D01*
X14466071Y-10381786D01*
X14294643Y-10553214D01*
X14480357Y-10553214D01*
X14666071Y-10253214D02*
X14694643Y-10253214D01*
X14723214Y-10267500D01*
X14737500Y-10281786D01*
X14751786Y-10310357D01*
X14766071Y-10367500D01*
X14766071Y-10438929D01*
X14751786Y-10496072D01*
X14737500Y-10524643D01*
X14723214Y-10538929D01*
X14694643Y-10553214D01*
X14666071Y-10553214D01*
X14637500Y-10538929D01*
X14623214Y-10524643D01*
X14608928Y-10496072D01*
X14594643Y-10438929D01*
X14594643Y-10367500D01*
X14608928Y-10310357D01*
X14623214Y-10281786D01*
X14637500Y-10267500D01*
X14666071Y-10253214D01*
X14951786Y-10253214D02*
X14980357Y-10253214D01*
X15008928Y-10267500D01*
X15023214Y-10281786D01*
X15037500Y-10310357D01*
X15051786Y-10367500D01*
X15051786Y-10438929D01*
X15037500Y-10496072D01*
X15023214Y-10524643D01*
X15008928Y-10538929D01*
X14980357Y-10553214D01*
X14951786Y-10553214D01*
X14923214Y-10538929D01*
X14908928Y-10524643D01*
X14894643Y-10496072D01*
X14880357Y-10438929D01*
X14880357Y-10367500D01*
X14894643Y-10310357D01*
X14908928Y-10281786D01*
X14923214Y-10267500D01*
X14951786Y-10253214D01*
X15408928Y-10553214D02*
X15408928Y-10253214D01*
X15537500Y-10553214D02*
X15537500Y-10396072D01*
X15523214Y-10367500D01*
X15494643Y-10353214D01*
X15451786Y-10353214D01*
X15423214Y-10367500D01*
X15408928Y-10381786D01*
X15723214Y-10553214D02*
X15694643Y-10538929D01*
X15680357Y-10524643D01*
X15666071Y-10496072D01*
X15666071Y-10410357D01*
X15680357Y-10381786D01*
X15694643Y-10367500D01*
X15723214Y-10353214D01*
X15766071Y-10353214D01*
X15794643Y-10367500D01*
X15808928Y-10381786D01*
X15823214Y-10410357D01*
X15823214Y-10496072D01*
X15808928Y-10524643D01*
X15794643Y-10538929D01*
X15766071Y-10553214D01*
X15723214Y-10553214D01*
X15994643Y-10553214D02*
X15966071Y-10538929D01*
X15951786Y-10510357D01*
X15951786Y-10253214D01*
X16223214Y-10538929D02*
X16194643Y-10553214D01*
X16137500Y-10553214D01*
X16108928Y-10538929D01*
X16094643Y-10510357D01*
X16094643Y-10396072D01*
X16108928Y-10367500D01*
X16137500Y-10353214D01*
X16194643Y-10353214D01*
X16223214Y-10367500D01*
X16237500Y-10396072D01*
X16237500Y-10424643D01*
X16094643Y-10453214D01*
X16351786Y-10538929D02*
X16380357Y-10553214D01*
X16437500Y-10553214D01*
X16466071Y-10538929D01*
X16480357Y-10510357D01*
X16480357Y-10496072D01*
X16466071Y-10467500D01*
X16437500Y-10453214D01*
X16394643Y-10453214D01*
X16366071Y-10438929D01*
X16351786Y-10410357D01*
X16351786Y-10396072D01*
X16366071Y-10367500D01*
X16394643Y-10353214D01*
X16437500Y-10353214D01*
X16466071Y-10367500D01*
X16580357Y-10667500D02*
X16594643Y-10653214D01*
X16623214Y-10610357D01*
X16637500Y-10581786D01*
X16651786Y-10538929D01*
X16666071Y-10467500D01*
X16666071Y-10410357D01*
X16651786Y-10338929D01*
X16637500Y-10296072D01*
X16623214Y-10267500D01*
X16594643Y-10224643D01*
X16580357Y-10210357D01*
X9522500Y-10813500D02*
G75*
G03X9522500Y-10813500I-25000J0D01*
G01*
X9866071Y-10649214D02*
X9894643Y-10649214D01*
X9923214Y-10663500D01*
X9937500Y-10677786D01*
X9951786Y-10706357D01*
X9966071Y-10763500D01*
X9966071Y-10834929D01*
X9951786Y-10892072D01*
X9937500Y-10920643D01*
X9923214Y-10934929D01*
X9894643Y-10949214D01*
X9866071Y-10949214D01*
X9837500Y-10934929D01*
X9823214Y-10920643D01*
X9808928Y-10892072D01*
X9794643Y-10834929D01*
X9794643Y-10763500D01*
X9808928Y-10706357D01*
X9823214Y-10677786D01*
X9837500Y-10663500D01*
X9866071Y-10649214D01*
X10094643Y-10920643D02*
X10108928Y-10934929D01*
X10094643Y-10949214D01*
X10080357Y-10934929D01*
X10094643Y-10920643D01*
X10094643Y-10949214D01*
X10380357Y-10649214D02*
X10237500Y-10649214D01*
X10223214Y-10792072D01*
X10237500Y-10777786D01*
X10266071Y-10763500D01*
X10337500Y-10763500D01*
X10366071Y-10777786D01*
X10380357Y-10792072D01*
X10394643Y-10820643D01*
X10394643Y-10892072D01*
X10380357Y-10920643D01*
X10366071Y-10934929D01*
X10337500Y-10949214D01*
X10266071Y-10949214D01*
X10237500Y-10934929D01*
X10223214Y-10920643D01*
X10580357Y-10649214D02*
X10608928Y-10649214D01*
X10637500Y-10663500D01*
X10651786Y-10677786D01*
X10666071Y-10706357D01*
X10680357Y-10763500D01*
X10680357Y-10834929D01*
X10666071Y-10892072D01*
X10651786Y-10920643D01*
X10637500Y-10934929D01*
X10608928Y-10949214D01*
X10580357Y-10949214D01*
X10551786Y-10934929D01*
X10537500Y-10920643D01*
X10523214Y-10892072D01*
X10508928Y-10834929D01*
X10508928Y-10763500D01*
X10523214Y-10706357D01*
X10537500Y-10677786D01*
X10551786Y-10663500D01*
X10580357Y-10649214D01*
X10808928Y-10949214D02*
X10808928Y-10749214D01*
X10808928Y-10777786D02*
X10823214Y-10763500D01*
X10851786Y-10749214D01*
X10894643Y-10749214D01*
X10923214Y-10763500D01*
X10937500Y-10792072D01*
X10937500Y-10949214D01*
X10937500Y-10792072D02*
X10951786Y-10763500D01*
X10980357Y-10749214D01*
X11023214Y-10749214D01*
X11051786Y-10763500D01*
X11066071Y-10792072D01*
X11066071Y-10949214D01*
X11208928Y-10949214D02*
X11208928Y-10749214D01*
X11208928Y-10777786D02*
X11223214Y-10763500D01*
X11251786Y-10749214D01*
X11294643Y-10749214D01*
X11323214Y-10763500D01*
X11337500Y-10792072D01*
X11337500Y-10949214D01*
X11337500Y-10792072D02*
X11351786Y-10763500D01*
X11380357Y-10749214D01*
X11423214Y-10749214D01*
X11451786Y-10763500D01*
X11466071Y-10792072D01*
X11466071Y-10949214D01*
X12051786Y-10634929D02*
X11794643Y-11020643D01*
X12437500Y-10649214D02*
X12466071Y-10649214D01*
X12494643Y-10663500D01*
X12508928Y-10677786D01*
X12523214Y-10706357D01*
X12537500Y-10763500D01*
X12537500Y-10834929D01*
X12523214Y-10892072D01*
X12508928Y-10920643D01*
X12494643Y-10934929D01*
X12466071Y-10949214D01*
X12437500Y-10949214D01*
X12408928Y-10934929D01*
X12394643Y-10920643D01*
X12380357Y-10892072D01*
X12366071Y-10834929D01*
X12366071Y-10763500D01*
X12380357Y-10706357D01*
X12394643Y-10677786D01*
X12408928Y-10663500D01*
X12437500Y-10649214D01*
X12666071Y-10920643D02*
X12680357Y-10934929D01*
X12666071Y-10949214D01*
X12651786Y-10934929D01*
X12666071Y-10920643D01*
X12666071Y-10949214D01*
X12866071Y-10649214D02*
X12894643Y-10649214D01*
X12923214Y-10663500D01*
X12937500Y-10677786D01*
X12951786Y-10706357D01*
X12966071Y-10763500D01*
X12966071Y-10834929D01*
X12951786Y-10892072D01*
X12937500Y-10920643D01*
X12923214Y-10934929D01*
X12894643Y-10949214D01*
X12866071Y-10949214D01*
X12837500Y-10934929D01*
X12823214Y-10920643D01*
X12808928Y-10892072D01*
X12794643Y-10834929D01*
X12794643Y-10763500D01*
X12808928Y-10706357D01*
X12823214Y-10677786D01*
X12837500Y-10663500D01*
X12866071Y-10649214D01*
X13080357Y-10677786D02*
X13094643Y-10663500D01*
X13123214Y-10649214D01*
X13194643Y-10649214D01*
X13223214Y-10663500D01*
X13237500Y-10677786D01*
X13251786Y-10706357D01*
X13251786Y-10734929D01*
X13237500Y-10777786D01*
X13066071Y-10949214D01*
X13251786Y-10949214D01*
X13437500Y-10649214D02*
X13466071Y-10649214D01*
X13494643Y-10663500D01*
X13508928Y-10677786D01*
X13523214Y-10706357D01*
X13537500Y-10763500D01*
X13537500Y-10834929D01*
X13523214Y-10892072D01*
X13508928Y-10920643D01*
X13494643Y-10934929D01*
X13466071Y-10949214D01*
X13437500Y-10949214D01*
X13408928Y-10934929D01*
X13394643Y-10920643D01*
X13380357Y-10892072D01*
X13366071Y-10834929D01*
X13366071Y-10763500D01*
X13380357Y-10706357D01*
X13394643Y-10677786D01*
X13408928Y-10663500D01*
X13437500Y-10649214D01*
X13651786Y-10649214D02*
X13651786Y-10706357D01*
X13766071Y-10649214D02*
X13766071Y-10706357D01*
X14208928Y-11063500D02*
X14194643Y-11049214D01*
X14166071Y-11006357D01*
X14151786Y-10977786D01*
X14137500Y-10934929D01*
X14123214Y-10863500D01*
X14123214Y-10806357D01*
X14137500Y-10734929D01*
X14151786Y-10692072D01*
X14166071Y-10663500D01*
X14194643Y-10620643D01*
X14208928Y-10606357D01*
X14380357Y-10649214D02*
X14408928Y-10649214D01*
X14437500Y-10663500D01*
X14451786Y-10677786D01*
X14466071Y-10706357D01*
X14480357Y-10763500D01*
X14480357Y-10834929D01*
X14466071Y-10892072D01*
X14451786Y-10920643D01*
X14437500Y-10934929D01*
X14408928Y-10949214D01*
X14380357Y-10949214D01*
X14351786Y-10934929D01*
X14337500Y-10920643D01*
X14323214Y-10892072D01*
X14308928Y-10834929D01*
X14308928Y-10763500D01*
X14323214Y-10706357D01*
X14337500Y-10677786D01*
X14351786Y-10663500D01*
X14380357Y-10649214D01*
X14837500Y-10949214D02*
X14837500Y-10649214D01*
X14966071Y-10949214D02*
X14966071Y-10792072D01*
X14951786Y-10763500D01*
X14923214Y-10749214D01*
X14880357Y-10749214D01*
X14851786Y-10763500D01*
X14837500Y-10777786D01*
X15151786Y-10949214D02*
X15123214Y-10934929D01*
X15108928Y-10920643D01*
X15094643Y-10892072D01*
X15094643Y-10806357D01*
X15108928Y-10777786D01*
X15123214Y-10763500D01*
X15151786Y-10749214D01*
X15194643Y-10749214D01*
X15223214Y-10763500D01*
X15237500Y-10777786D01*
X15251786Y-10806357D01*
X15251786Y-10892072D01*
X15237500Y-10920643D01*
X15223214Y-10934929D01*
X15194643Y-10949214D01*
X15151786Y-10949214D01*
X15423214Y-10949214D02*
X15394643Y-10934929D01*
X15380357Y-10906357D01*
X15380357Y-10649214D01*
X15651786Y-10934929D02*
X15623214Y-10949214D01*
X15566071Y-10949214D01*
X15537500Y-10934929D01*
X15523214Y-10906357D01*
X15523214Y-10792072D01*
X15537500Y-10763500D01*
X15566071Y-10749214D01*
X15623214Y-10749214D01*
X15651786Y-10763500D01*
X15666071Y-10792072D01*
X15666071Y-10820643D01*
X15523214Y-10849214D01*
X15780357Y-10934929D02*
X15808928Y-10949214D01*
X15866071Y-10949214D01*
X15894643Y-10934929D01*
X15908928Y-10906357D01*
X15908928Y-10892072D01*
X15894643Y-10863500D01*
X15866071Y-10849214D01*
X15823214Y-10849214D01*
X15794643Y-10834929D01*
X15780357Y-10806357D01*
X15780357Y-10792072D01*
X15794643Y-10763500D01*
X15823214Y-10749214D01*
X15866071Y-10749214D01*
X15894643Y-10763500D01*
X16266071Y-10834929D02*
X16494643Y-10834929D01*
X16380357Y-10949214D02*
X16380357Y-10720643D01*
X16851786Y-10677786D02*
X16866071Y-10663500D01*
X16894643Y-10649214D01*
X16966071Y-10649214D01*
X16994643Y-10663500D01*
X17008928Y-10677786D01*
X17023214Y-10706357D01*
X17023214Y-10734929D01*
X17008928Y-10777786D01*
X16837500Y-10949214D01*
X17023214Y-10949214D01*
X17366071Y-10934929D02*
X17394643Y-10949214D01*
X17451786Y-10949214D01*
X17480357Y-10934929D01*
X17494643Y-10906357D01*
X17494643Y-10892072D01*
X17480357Y-10863500D01*
X17451786Y-10849214D01*
X17408928Y-10849214D01*
X17380357Y-10834929D01*
X17366071Y-10806357D01*
X17366071Y-10792072D01*
X17380357Y-10763500D01*
X17408928Y-10749214D01*
X17451786Y-10749214D01*
X17480357Y-10763500D01*
X17666071Y-10949214D02*
X17637500Y-10934929D01*
X17623214Y-10906357D01*
X17623214Y-10649214D01*
X17823214Y-10949214D02*
X17794643Y-10934929D01*
X17780357Y-10920643D01*
X17766071Y-10892072D01*
X17766071Y-10806357D01*
X17780357Y-10777786D01*
X17794643Y-10763500D01*
X17823214Y-10749214D01*
X17866071Y-10749214D01*
X17894643Y-10763500D01*
X17908928Y-10777786D01*
X17923214Y-10806357D01*
X17923214Y-10892072D01*
X17908928Y-10920643D01*
X17894643Y-10934929D01*
X17866071Y-10949214D01*
X17823214Y-10949214D01*
X18008928Y-10749214D02*
X18123214Y-10749214D01*
X18051786Y-10649214D02*
X18051786Y-10906357D01*
X18066071Y-10934929D01*
X18094643Y-10949214D01*
X18123214Y-10949214D01*
X18208928Y-10934929D02*
X18237500Y-10949214D01*
X18294643Y-10949214D01*
X18323214Y-10934929D01*
X18337500Y-10906357D01*
X18337500Y-10892072D01*
X18323214Y-10863500D01*
X18294643Y-10849214D01*
X18251786Y-10849214D01*
X18223214Y-10834929D01*
X18208928Y-10806357D01*
X18208928Y-10792072D01*
X18223214Y-10763500D01*
X18251786Y-10749214D01*
X18294643Y-10749214D01*
X18323214Y-10763500D01*
X18437500Y-11063500D02*
X18451786Y-11049214D01*
X18480357Y-11006357D01*
X18494643Y-10977786D01*
X18508928Y-10934929D01*
X18523214Y-10863500D01*
X18523214Y-10806357D01*
X18508928Y-10734929D01*
X18494643Y-10692072D01*
X18480357Y-10663500D01*
X18451786Y-10620643D01*
X18437500Y-10606357D01*
X9492500Y-11179500D02*
X9492500Y-11239500D01*
X9462500Y-11209500D02*
X9522500Y-11209500D01*
X9866071Y-11045214D02*
X9894643Y-11045214D01*
X9923214Y-11059500D01*
X9937500Y-11073786D01*
X9951786Y-11102357D01*
X9966071Y-11159500D01*
X9966071Y-11230929D01*
X9951786Y-11288071D01*
X9937500Y-11316643D01*
X9923214Y-11330929D01*
X9894643Y-11345214D01*
X9866071Y-11345214D01*
X9837500Y-11330929D01*
X9823214Y-11316643D01*
X9808928Y-11288071D01*
X9794643Y-11230929D01*
X9794643Y-11159500D01*
X9808928Y-11102357D01*
X9823214Y-11073786D01*
X9837500Y-11059500D01*
X9866071Y-11045214D01*
X10094643Y-11316643D02*
X10108928Y-11330929D01*
X10094643Y-11345214D01*
X10080357Y-11330929D01*
X10094643Y-11316643D01*
X10094643Y-11345214D01*
X10366071Y-11045214D02*
X10308928Y-11045214D01*
X10280357Y-11059500D01*
X10266071Y-11073786D01*
X10237500Y-11116643D01*
X10223214Y-11173786D01*
X10223214Y-11288071D01*
X10237500Y-11316643D01*
X10251786Y-11330929D01*
X10280357Y-11345214D01*
X10337500Y-11345214D01*
X10366071Y-11330929D01*
X10380357Y-11316643D01*
X10394643Y-11288071D01*
X10394643Y-11216643D01*
X10380357Y-11188071D01*
X10366071Y-11173786D01*
X10337500Y-11159500D01*
X10280357Y-11159500D01*
X10251786Y-11173786D01*
X10237500Y-11188071D01*
X10223214Y-11216643D01*
X10580357Y-11045214D02*
X10608928Y-11045214D01*
X10637500Y-11059500D01*
X10651786Y-11073786D01*
X10666071Y-11102357D01*
X10680357Y-11159500D01*
X10680357Y-11230929D01*
X10666071Y-11288071D01*
X10651786Y-11316643D01*
X10637500Y-11330929D01*
X10608928Y-11345214D01*
X10580357Y-11345214D01*
X10551786Y-11330929D01*
X10537500Y-11316643D01*
X10523214Y-11288071D01*
X10508928Y-11230929D01*
X10508928Y-11159500D01*
X10523214Y-11102357D01*
X10537500Y-11073786D01*
X10551786Y-11059500D01*
X10580357Y-11045214D01*
X10808928Y-11345214D02*
X10808928Y-11145214D01*
X10808928Y-11173786D02*
X10823214Y-11159500D01*
X10851786Y-11145214D01*
X10894643Y-11145214D01*
X10923214Y-11159500D01*
X10937500Y-11188071D01*
X10937500Y-11345214D01*
X10937500Y-11188071D02*
X10951786Y-11159500D01*
X10980357Y-11145214D01*
X11023214Y-11145214D01*
X11051786Y-11159500D01*
X11066071Y-11188071D01*
X11066071Y-11345214D01*
X11208928Y-11345214D02*
X11208928Y-11145214D01*
X11208928Y-11173786D02*
X11223214Y-11159500D01*
X11251786Y-11145214D01*
X11294643Y-11145214D01*
X11323214Y-11159500D01*
X11337500Y-11188071D01*
X11337500Y-11345214D01*
X11337500Y-11188071D02*
X11351786Y-11159500D01*
X11380357Y-11145214D01*
X11423214Y-11145214D01*
X11451786Y-11159500D01*
X11466071Y-11188071D01*
X11466071Y-11345214D01*
X12051786Y-11030929D02*
X11794643Y-11416643D01*
X12437500Y-11045214D02*
X12466071Y-11045214D01*
X12494643Y-11059500D01*
X12508928Y-11073786D01*
X12523214Y-11102357D01*
X12537500Y-11159500D01*
X12537500Y-11230929D01*
X12523214Y-11288071D01*
X12508928Y-11316643D01*
X12494643Y-11330929D01*
X12466071Y-11345214D01*
X12437500Y-11345214D01*
X12408928Y-11330929D01*
X12394643Y-11316643D01*
X12380357Y-11288071D01*
X12366071Y-11230929D01*
X12366071Y-11159500D01*
X12380357Y-11102357D01*
X12394643Y-11073786D01*
X12408928Y-11059500D01*
X12437500Y-11045214D01*
X12666071Y-11316643D02*
X12680357Y-11330929D01*
X12666071Y-11345214D01*
X12651786Y-11330929D01*
X12666071Y-11316643D01*
X12666071Y-11345214D01*
X12866071Y-11045214D02*
X12894643Y-11045214D01*
X12923214Y-11059500D01*
X12937500Y-11073786D01*
X12951786Y-11102357D01*
X12966071Y-11159500D01*
X12966071Y-11230929D01*
X12951786Y-11288071D01*
X12937500Y-11316643D01*
X12923214Y-11330929D01*
X12894643Y-11345214D01*
X12866071Y-11345214D01*
X12837500Y-11330929D01*
X12823214Y-11316643D01*
X12808928Y-11288071D01*
X12794643Y-11230929D01*
X12794643Y-11159500D01*
X12808928Y-11102357D01*
X12823214Y-11073786D01*
X12837500Y-11059500D01*
X12866071Y-11045214D01*
X13080357Y-11073786D02*
X13094643Y-11059500D01*
X13123214Y-11045214D01*
X13194643Y-11045214D01*
X13223214Y-11059500D01*
X13237500Y-11073786D01*
X13251786Y-11102357D01*
X13251786Y-11130929D01*
X13237500Y-11173786D01*
X13066071Y-11345214D01*
X13251786Y-11345214D01*
X13508928Y-11145214D02*
X13508928Y-11345214D01*
X13437500Y-11030929D02*
X13366071Y-11245214D01*
X13551786Y-11245214D01*
X13651786Y-11045214D02*
X13651786Y-11102357D01*
X13766071Y-11045214D02*
X13766071Y-11102357D01*
X14208928Y-11459500D02*
X14194643Y-11445214D01*
X14166071Y-11402357D01*
X14151786Y-11373786D01*
X14137500Y-11330929D01*
X14123214Y-11259500D01*
X14123214Y-11202357D01*
X14137500Y-11130929D01*
X14151786Y-11088072D01*
X14166071Y-11059500D01*
X14194643Y-11016643D01*
X14208928Y-11002357D01*
X14308928Y-11073786D02*
X14323214Y-11059500D01*
X14351786Y-11045214D01*
X14423214Y-11045214D01*
X14451786Y-11059500D01*
X14466071Y-11073786D01*
X14480357Y-11102357D01*
X14480357Y-11130929D01*
X14466071Y-11173786D01*
X14294643Y-11345214D01*
X14480357Y-11345214D01*
X14837500Y-11345214D02*
X14837500Y-11045214D01*
X14966071Y-11345214D02*
X14966071Y-11188071D01*
X14951786Y-11159500D01*
X14923214Y-11145214D01*
X14880357Y-11145214D01*
X14851786Y-11159500D01*
X14837500Y-11173786D01*
X15151786Y-11345214D02*
X15123214Y-11330929D01*
X15108928Y-11316643D01*
X15094643Y-11288071D01*
X15094643Y-11202357D01*
X15108928Y-11173786D01*
X15123214Y-11159500D01*
X15151786Y-11145214D01*
X15194643Y-11145214D01*
X15223214Y-11159500D01*
X15237500Y-11173786D01*
X15251786Y-11202357D01*
X15251786Y-11288071D01*
X15237500Y-11316643D01*
X15223214Y-11330929D01*
X15194643Y-11345214D01*
X15151786Y-11345214D01*
X15423214Y-11345214D02*
X15394643Y-11330929D01*
X15380357Y-11302357D01*
X15380357Y-11045214D01*
X15651786Y-11330929D02*
X15623214Y-11345214D01*
X15566071Y-11345214D01*
X15537500Y-11330929D01*
X15523214Y-11302357D01*
X15523214Y-11188071D01*
X15537500Y-11159500D01*
X15566071Y-11145214D01*
X15623214Y-11145214D01*
X15651786Y-11159500D01*
X15666071Y-11188071D01*
X15666071Y-11216643D01*
X15523214Y-11245214D01*
X15780357Y-11330929D02*
X15808928Y-11345214D01*
X15866071Y-11345214D01*
X15894643Y-11330929D01*
X15908928Y-11302357D01*
X15908928Y-11288071D01*
X15894643Y-11259500D01*
X15866071Y-11245214D01*
X15823214Y-11245214D01*
X15794643Y-11230929D01*
X15780357Y-11202357D01*
X15780357Y-11188071D01*
X15794643Y-11159500D01*
X15823214Y-11145214D01*
X15866071Y-11145214D01*
X15894643Y-11159500D01*
X16008928Y-11459500D02*
X16023214Y-11445214D01*
X16051786Y-11402357D01*
X16066071Y-11373786D01*
X16080357Y-11330929D01*
X16094643Y-11259500D01*
X16094643Y-11202357D01*
X16080357Y-11130929D01*
X16066071Y-11088072D01*
X16051786Y-11059500D01*
X16023214Y-11016643D01*
X16008928Y-11002357D01*
X9512981Y-11628481D02*
X9512981Y-11582519D01*
X9467019Y-11582519D01*
X9467019Y-11628481D01*
X9512981Y-11628481D01*
X9866071Y-11441214D02*
X9894643Y-11441214D01*
X9923214Y-11455500D01*
X9937500Y-11469786D01*
X9951786Y-11498357D01*
X9966071Y-11555500D01*
X9966071Y-11626929D01*
X9951786Y-11684071D01*
X9937500Y-11712643D01*
X9923214Y-11726929D01*
X9894643Y-11741214D01*
X9866071Y-11741214D01*
X9837500Y-11726929D01*
X9823214Y-11712643D01*
X9808928Y-11684071D01*
X9794643Y-11626929D01*
X9794643Y-11555500D01*
X9808928Y-11498357D01*
X9823214Y-11469786D01*
X9837500Y-11455500D01*
X9866071Y-11441214D01*
X10094643Y-11712643D02*
X10108928Y-11726929D01*
X10094643Y-11741214D01*
X10080357Y-11726929D01*
X10094643Y-11712643D01*
X10094643Y-11741214D01*
X10366071Y-11441214D02*
X10308928Y-11441214D01*
X10280357Y-11455500D01*
X10266071Y-11469786D01*
X10237500Y-11512643D01*
X10223214Y-11569786D01*
X10223214Y-11684071D01*
X10237500Y-11712643D01*
X10251786Y-11726929D01*
X10280357Y-11741214D01*
X10337500Y-11741214D01*
X10366071Y-11726929D01*
X10380357Y-11712643D01*
X10394643Y-11684071D01*
X10394643Y-11612643D01*
X10380357Y-11584071D01*
X10366071Y-11569786D01*
X10337500Y-11555500D01*
X10280357Y-11555500D01*
X10251786Y-11569786D01*
X10237500Y-11584071D01*
X10223214Y-11612643D01*
X10666071Y-11441214D02*
X10523214Y-11441214D01*
X10508928Y-11584071D01*
X10523214Y-11569786D01*
X10551786Y-11555500D01*
X10623214Y-11555500D01*
X10651786Y-11569786D01*
X10666071Y-11584071D01*
X10680357Y-11612643D01*
X10680357Y-11684071D01*
X10666071Y-11712643D01*
X10651786Y-11726929D01*
X10623214Y-11741214D01*
X10551786Y-11741214D01*
X10523214Y-11726929D01*
X10508928Y-11712643D01*
X10808928Y-11741214D02*
X10808928Y-11541214D01*
X10808928Y-11569786D02*
X10823214Y-11555500D01*
X10851786Y-11541214D01*
X10894643Y-11541214D01*
X10923214Y-11555500D01*
X10937500Y-11584071D01*
X10937500Y-11741214D01*
X10937500Y-11584071D02*
X10951786Y-11555500D01*
X10980357Y-11541214D01*
X11023214Y-11541214D01*
X11051786Y-11555500D01*
X11066071Y-11584071D01*
X11066071Y-11741214D01*
X11208928Y-11741214D02*
X11208928Y-11541214D01*
X11208928Y-11569786D02*
X11223214Y-11555500D01*
X11251786Y-11541214D01*
X11294643Y-11541214D01*
X11323214Y-11555500D01*
X11337500Y-11584071D01*
X11337500Y-11741214D01*
X11337500Y-11584071D02*
X11351786Y-11555500D01*
X11380357Y-11541214D01*
X11423214Y-11541214D01*
X11451786Y-11555500D01*
X11466071Y-11584071D01*
X11466071Y-11741214D01*
X12051786Y-11426929D02*
X11794643Y-11812643D01*
X12437500Y-11441214D02*
X12466071Y-11441214D01*
X12494643Y-11455500D01*
X12508928Y-11469786D01*
X12523214Y-11498357D01*
X12537500Y-11555500D01*
X12537500Y-11626929D01*
X12523214Y-11684071D01*
X12508928Y-11712643D01*
X12494643Y-11726929D01*
X12466071Y-11741214D01*
X12437500Y-11741214D01*
X12408928Y-11726929D01*
X12394643Y-11712643D01*
X12380357Y-11684071D01*
X12366071Y-11626929D01*
X12366071Y-11555500D01*
X12380357Y-11498357D01*
X12394643Y-11469786D01*
X12408928Y-11455500D01*
X12437500Y-11441214D01*
X12666071Y-11712643D02*
X12680357Y-11726929D01*
X12666071Y-11741214D01*
X12651786Y-11726929D01*
X12666071Y-11712643D01*
X12666071Y-11741214D01*
X12866071Y-11441214D02*
X12894643Y-11441214D01*
X12923214Y-11455500D01*
X12937500Y-11469786D01*
X12951786Y-11498357D01*
X12966071Y-11555500D01*
X12966071Y-11626929D01*
X12951786Y-11684071D01*
X12937500Y-11712643D01*
X12923214Y-11726929D01*
X12894643Y-11741214D01*
X12866071Y-11741214D01*
X12837500Y-11726929D01*
X12823214Y-11712643D01*
X12808928Y-11684071D01*
X12794643Y-11626929D01*
X12794643Y-11555500D01*
X12808928Y-11498357D01*
X12823214Y-11469786D01*
X12837500Y-11455500D01*
X12866071Y-11441214D01*
X13080357Y-11469786D02*
X13094643Y-11455500D01*
X13123214Y-11441214D01*
X13194643Y-11441214D01*
X13223214Y-11455500D01*
X13237500Y-11469786D01*
X13251786Y-11498357D01*
X13251786Y-11526929D01*
X13237500Y-11569786D01*
X13066071Y-11741214D01*
X13251786Y-11741214D01*
X13508928Y-11441214D02*
X13451786Y-11441214D01*
X13423214Y-11455500D01*
X13408928Y-11469786D01*
X13380357Y-11512643D01*
X13366071Y-11569786D01*
X13366071Y-11684071D01*
X13380357Y-11712643D01*
X13394643Y-11726929D01*
X13423214Y-11741214D01*
X13480357Y-11741214D01*
X13508928Y-11726929D01*
X13523214Y-11712643D01*
X13537500Y-11684071D01*
X13537500Y-11612643D01*
X13523214Y-11584071D01*
X13508928Y-11569786D01*
X13480357Y-11555500D01*
X13423214Y-11555500D01*
X13394643Y-11569786D01*
X13380357Y-11584071D01*
X13366071Y-11612643D01*
X13651786Y-11441214D02*
X13651786Y-11498357D01*
X13766071Y-11441214D02*
X13766071Y-11498357D01*
X14208928Y-11855500D02*
X14194643Y-11841214D01*
X14166071Y-11798357D01*
X14151786Y-11769786D01*
X14137500Y-11726929D01*
X14123214Y-11655500D01*
X14123214Y-11598357D01*
X14137500Y-11526929D01*
X14151786Y-11484071D01*
X14166071Y-11455500D01*
X14194643Y-11412643D01*
X14208928Y-11398357D01*
X14308928Y-11469786D02*
X14323214Y-11455500D01*
X14351786Y-11441214D01*
X14423214Y-11441214D01*
X14451786Y-11455500D01*
X14466071Y-11469786D01*
X14480357Y-11498357D01*
X14480357Y-11526929D01*
X14466071Y-11569786D01*
X14294643Y-11741214D01*
X14480357Y-11741214D01*
X14837500Y-11741214D02*
X14837500Y-11441214D01*
X14966071Y-11741214D02*
X14966071Y-11584071D01*
X14951786Y-11555500D01*
X14923214Y-11541214D01*
X14880357Y-11541214D01*
X14851786Y-11555500D01*
X14837500Y-11569786D01*
X15151786Y-11741214D02*
X15123214Y-11726929D01*
X15108928Y-11712643D01*
X15094643Y-11684071D01*
X15094643Y-11598357D01*
X15108928Y-11569786D01*
X15123214Y-11555500D01*
X15151786Y-11541214D01*
X15194643Y-11541214D01*
X15223214Y-11555500D01*
X15237500Y-11569786D01*
X15251786Y-11598357D01*
X15251786Y-11684071D01*
X15237500Y-11712643D01*
X15223214Y-11726929D01*
X15194643Y-11741214D01*
X15151786Y-11741214D01*
X15423214Y-11741214D02*
X15394643Y-11726929D01*
X15380357Y-11698357D01*
X15380357Y-11441214D01*
X15651786Y-11726929D02*
X15623214Y-11741214D01*
X15566071Y-11741214D01*
X15537500Y-11726929D01*
X15523214Y-11698357D01*
X15523214Y-11584071D01*
X15537500Y-11555500D01*
X15566071Y-11541214D01*
X15623214Y-11541214D01*
X15651786Y-11555500D01*
X15666071Y-11584071D01*
X15666071Y-11612643D01*
X15523214Y-11641214D01*
X15780357Y-11726929D02*
X15808928Y-11741214D01*
X15866071Y-11741214D01*
X15894643Y-11726929D01*
X15908928Y-11698357D01*
X15908928Y-11684071D01*
X15894643Y-11655500D01*
X15866071Y-11641214D01*
X15823214Y-11641214D01*
X15794643Y-11626929D01*
X15780357Y-11598357D01*
X15780357Y-11584071D01*
X15794643Y-11555500D01*
X15823214Y-11541214D01*
X15866071Y-11541214D01*
X15894643Y-11555500D01*
X16008928Y-11855500D02*
X16023214Y-11841214D01*
X16051786Y-11798357D01*
X16066071Y-11769786D01*
X16080357Y-11726929D01*
X16094643Y-11655500D01*
X16094643Y-11598357D01*
X16080357Y-11526929D01*
X16066071Y-11484071D01*
X16051786Y-11455500D01*
X16023214Y-11412643D01*
X16008928Y-11398357D01*
X9482500Y-12041500D02*
X9522500Y-12001500D01*
X9482500Y-11961500D01*
X9442500Y-12001500D01*
X9482500Y-12041500D01*
X9866071Y-11837214D02*
X9894643Y-11837214D01*
X9923214Y-11851500D01*
X9937500Y-11865786D01*
X9951786Y-11894357D01*
X9966071Y-11951500D01*
X9966071Y-12022929D01*
X9951786Y-12080071D01*
X9937500Y-12108643D01*
X9923214Y-12122929D01*
X9894643Y-12137214D01*
X9866071Y-12137214D01*
X9837500Y-12122929D01*
X9823214Y-12108643D01*
X9808928Y-12080071D01*
X9794643Y-12022929D01*
X9794643Y-11951500D01*
X9808928Y-11894357D01*
X9823214Y-11865786D01*
X9837500Y-11851500D01*
X9866071Y-11837214D01*
X10094643Y-12108643D02*
X10108928Y-12122929D01*
X10094643Y-12137214D01*
X10080357Y-12122929D01*
X10094643Y-12108643D01*
X10094643Y-12137214D01*
X10280357Y-11965786D02*
X10251786Y-11951500D01*
X10237500Y-11937214D01*
X10223214Y-11908643D01*
X10223214Y-11894357D01*
X10237500Y-11865786D01*
X10251786Y-11851500D01*
X10280357Y-11837214D01*
X10337500Y-11837214D01*
X10366071Y-11851500D01*
X10380357Y-11865786D01*
X10394643Y-11894357D01*
X10394643Y-11908643D01*
X10380357Y-11937214D01*
X10366071Y-11951500D01*
X10337500Y-11965786D01*
X10280357Y-11965786D01*
X10251786Y-11980071D01*
X10237500Y-11994357D01*
X10223214Y-12022929D01*
X10223214Y-12080071D01*
X10237500Y-12108643D01*
X10251786Y-12122929D01*
X10280357Y-12137214D01*
X10337500Y-12137214D01*
X10366071Y-12122929D01*
X10380357Y-12108643D01*
X10394643Y-12080071D01*
X10394643Y-12022929D01*
X10380357Y-11994357D01*
X10366071Y-11980071D01*
X10337500Y-11965786D01*
X10580357Y-11837214D02*
X10608928Y-11837214D01*
X10637500Y-11851500D01*
X10651786Y-11865786D01*
X10666071Y-11894357D01*
X10680357Y-11951500D01*
X10680357Y-12022929D01*
X10666071Y-12080071D01*
X10651786Y-12108643D01*
X10637500Y-12122929D01*
X10608928Y-12137214D01*
X10580357Y-12137214D01*
X10551786Y-12122929D01*
X10537500Y-12108643D01*
X10523214Y-12080071D01*
X10508928Y-12022929D01*
X10508928Y-11951500D01*
X10523214Y-11894357D01*
X10537500Y-11865786D01*
X10551786Y-11851500D01*
X10580357Y-11837214D01*
X10808928Y-12137214D02*
X10808928Y-11937214D01*
X10808928Y-11965786D02*
X10823214Y-11951500D01*
X10851786Y-11937214D01*
X10894643Y-11937214D01*
X10923214Y-11951500D01*
X10937500Y-11980071D01*
X10937500Y-12137214D01*
X10937500Y-11980071D02*
X10951786Y-11951500D01*
X10980357Y-11937214D01*
X11023214Y-11937214D01*
X11051786Y-11951500D01*
X11066071Y-11980071D01*
X11066071Y-12137214D01*
X11208928Y-12137214D02*
X11208928Y-11937214D01*
X11208928Y-11965786D02*
X11223214Y-11951500D01*
X11251786Y-11937214D01*
X11294643Y-11937214D01*
X11323214Y-11951500D01*
X11337500Y-11980071D01*
X11337500Y-12137214D01*
X11337500Y-11980071D02*
X11351786Y-11951500D01*
X11380357Y-11937214D01*
X11423214Y-11937214D01*
X11451786Y-11951500D01*
X11466071Y-11980071D01*
X11466071Y-12137214D01*
X12051786Y-11822929D02*
X11794643Y-12208643D01*
X12437500Y-11837214D02*
X12466071Y-11837214D01*
X12494643Y-11851500D01*
X12508928Y-11865786D01*
X12523214Y-11894357D01*
X12537500Y-11951500D01*
X12537500Y-12022929D01*
X12523214Y-12080071D01*
X12508928Y-12108643D01*
X12494643Y-12122929D01*
X12466071Y-12137214D01*
X12437500Y-12137214D01*
X12408928Y-12122929D01*
X12394643Y-12108643D01*
X12380357Y-12080071D01*
X12366071Y-12022929D01*
X12366071Y-11951500D01*
X12380357Y-11894357D01*
X12394643Y-11865786D01*
X12408928Y-11851500D01*
X12437500Y-11837214D01*
X12666071Y-12108643D02*
X12680357Y-12122929D01*
X12666071Y-12137214D01*
X12651786Y-12122929D01*
X12666071Y-12108643D01*
X12666071Y-12137214D01*
X12866071Y-11837214D02*
X12894643Y-11837214D01*
X12923214Y-11851500D01*
X12937500Y-11865786D01*
X12951786Y-11894357D01*
X12966071Y-11951500D01*
X12966071Y-12022929D01*
X12951786Y-12080071D01*
X12937500Y-12108643D01*
X12923214Y-12122929D01*
X12894643Y-12137214D01*
X12866071Y-12137214D01*
X12837500Y-12122929D01*
X12823214Y-12108643D01*
X12808928Y-12080071D01*
X12794643Y-12022929D01*
X12794643Y-11951500D01*
X12808928Y-11894357D01*
X12823214Y-11865786D01*
X12837500Y-11851500D01*
X12866071Y-11837214D01*
X13066071Y-11837214D02*
X13251786Y-11837214D01*
X13151786Y-11951500D01*
X13194643Y-11951500D01*
X13223214Y-11965786D01*
X13237500Y-11980071D01*
X13251786Y-12008643D01*
X13251786Y-12080071D01*
X13237500Y-12108643D01*
X13223214Y-12122929D01*
X13194643Y-12137214D01*
X13108928Y-12137214D01*
X13080357Y-12122929D01*
X13066071Y-12108643D01*
X13537500Y-12137214D02*
X13366071Y-12137214D01*
X13451786Y-12137214D02*
X13451786Y-11837214D01*
X13423214Y-11880071D01*
X13394643Y-11908643D01*
X13366071Y-11922929D01*
X13651786Y-11837214D02*
X13651786Y-11894357D01*
X13766071Y-11837214D02*
X13766071Y-11894357D01*
X14208928Y-12251500D02*
X14194643Y-12237214D01*
X14166071Y-12194357D01*
X14151786Y-12165786D01*
X14137500Y-12122929D01*
X14123214Y-12051500D01*
X14123214Y-11994357D01*
X14137500Y-11922929D01*
X14151786Y-11880071D01*
X14166071Y-11851500D01*
X14194643Y-11808643D01*
X14208928Y-11794357D01*
X14337500Y-12137214D02*
X14394643Y-12137214D01*
X14423214Y-12122929D01*
X14437500Y-12108643D01*
X14466071Y-12065786D01*
X14480357Y-12008643D01*
X14480357Y-11894357D01*
X14466071Y-11865786D01*
X14451786Y-11851500D01*
X14423214Y-11837214D01*
X14366071Y-11837214D01*
X14337500Y-11851500D01*
X14323214Y-11865786D01*
X14308928Y-11894357D01*
X14308928Y-11965786D01*
X14323214Y-11994357D01*
X14337500Y-12008643D01*
X14366071Y-12022929D01*
X14423214Y-12022929D01*
X14451786Y-12008643D01*
X14466071Y-11994357D01*
X14480357Y-11965786D01*
X14837500Y-12137214D02*
X14837500Y-11837214D01*
X14966071Y-12137214D02*
X14966071Y-11980071D01*
X14951786Y-11951500D01*
X14923214Y-11937214D01*
X14880357Y-11937214D01*
X14851786Y-11951500D01*
X14837500Y-11965786D01*
X15151786Y-12137214D02*
X15123214Y-12122929D01*
X15108928Y-12108643D01*
X15094643Y-12080071D01*
X15094643Y-11994357D01*
X15108928Y-11965786D01*
X15123214Y-11951500D01*
X15151786Y-11937214D01*
X15194643Y-11937214D01*
X15223214Y-11951500D01*
X15237500Y-11965786D01*
X15251786Y-11994357D01*
X15251786Y-12080071D01*
X15237500Y-12108643D01*
X15223214Y-12122929D01*
X15194643Y-12137214D01*
X15151786Y-12137214D01*
X15423214Y-12137214D02*
X15394643Y-12122929D01*
X15380357Y-12094357D01*
X15380357Y-11837214D01*
X15651786Y-12122929D02*
X15623214Y-12137214D01*
X15566071Y-12137214D01*
X15537500Y-12122929D01*
X15523214Y-12094357D01*
X15523214Y-11980071D01*
X15537500Y-11951500D01*
X15566071Y-11937214D01*
X15623214Y-11937214D01*
X15651786Y-11951500D01*
X15666071Y-11980071D01*
X15666071Y-12008643D01*
X15523214Y-12037214D01*
X15780357Y-12122929D02*
X15808928Y-12137214D01*
X15866071Y-12137214D01*
X15894643Y-12122929D01*
X15908928Y-12094357D01*
X15908928Y-12080071D01*
X15894643Y-12051500D01*
X15866071Y-12037214D01*
X15823214Y-12037214D01*
X15794643Y-12022929D01*
X15780357Y-11994357D01*
X15780357Y-11980071D01*
X15794643Y-11951500D01*
X15823214Y-11937214D01*
X15866071Y-11937214D01*
X15894643Y-11951500D01*
X16008928Y-12251500D02*
X16023214Y-12237214D01*
X16051786Y-12194357D01*
X16066071Y-12165786D01*
X16080357Y-12122929D01*
X16094643Y-12051500D01*
X16094643Y-11994357D01*
X16080357Y-11922929D01*
X16066071Y-11880071D01*
X16051786Y-11851500D01*
X16023214Y-11808643D01*
X16008928Y-11794357D01*
X9422500Y-12347500D02*
X9522500Y-12447500D01*
X9522500Y-12347500D02*
X9422500Y-12447500D01*
X9522500Y-12397500D02*
G75*
G03X9522500Y-12397500I-50000J0D01*
G01*
X9966071Y-12533214D02*
X9794643Y-12533214D01*
X9880357Y-12533214D02*
X9880357Y-12233214D01*
X9851786Y-12276071D01*
X9823214Y-12304643D01*
X9794643Y-12318929D01*
X10094643Y-12504643D02*
X10108928Y-12518929D01*
X10094643Y-12533214D01*
X10080357Y-12518929D01*
X10094643Y-12504643D01*
X10094643Y-12533214D01*
X10294643Y-12233214D02*
X10323214Y-12233214D01*
X10351786Y-12247500D01*
X10366071Y-12261786D01*
X10380357Y-12290357D01*
X10394643Y-12347500D01*
X10394643Y-12418929D01*
X10380357Y-12476071D01*
X10366071Y-12504643D01*
X10351786Y-12518929D01*
X10323214Y-12533214D01*
X10294643Y-12533214D01*
X10266071Y-12518929D01*
X10251786Y-12504643D01*
X10237500Y-12476071D01*
X10223214Y-12418929D01*
X10223214Y-12347500D01*
X10237500Y-12290357D01*
X10251786Y-12261786D01*
X10266071Y-12247500D01*
X10294643Y-12233214D01*
X10580357Y-12233214D02*
X10608928Y-12233214D01*
X10637500Y-12247500D01*
X10651786Y-12261786D01*
X10666071Y-12290357D01*
X10680357Y-12347500D01*
X10680357Y-12418929D01*
X10666071Y-12476071D01*
X10651786Y-12504643D01*
X10637500Y-12518929D01*
X10608928Y-12533214D01*
X10580357Y-12533214D01*
X10551786Y-12518929D01*
X10537500Y-12504643D01*
X10523214Y-12476071D01*
X10508928Y-12418929D01*
X10508928Y-12347500D01*
X10523214Y-12290357D01*
X10537500Y-12261786D01*
X10551786Y-12247500D01*
X10580357Y-12233214D01*
X10808928Y-12533214D02*
X10808928Y-12333214D01*
X10808928Y-12361786D02*
X10823214Y-12347500D01*
X10851786Y-12333214D01*
X10894643Y-12333214D01*
X10923214Y-12347500D01*
X10937500Y-12376071D01*
X10937500Y-12533214D01*
X10937500Y-12376071D02*
X10951786Y-12347500D01*
X10980357Y-12333214D01*
X11023214Y-12333214D01*
X11051786Y-12347500D01*
X11066071Y-12376071D01*
X11066071Y-12533214D01*
X11208928Y-12533214D02*
X11208928Y-12333214D01*
X11208928Y-12361786D02*
X11223214Y-12347500D01*
X11251786Y-12333214D01*
X11294643Y-12333214D01*
X11323214Y-12347500D01*
X11337500Y-12376071D01*
X11337500Y-12533214D01*
X11337500Y-12376071D02*
X11351786Y-12347500D01*
X11380357Y-12333214D01*
X11423214Y-12333214D01*
X11451786Y-12347500D01*
X11466071Y-12376071D01*
X11466071Y-12533214D01*
X12051786Y-12218929D02*
X11794643Y-12604643D01*
X12437500Y-12233214D02*
X12466071Y-12233214D01*
X12494643Y-12247500D01*
X12508928Y-12261786D01*
X12523214Y-12290357D01*
X12537500Y-12347500D01*
X12537500Y-12418929D01*
X12523214Y-12476071D01*
X12508928Y-12504643D01*
X12494643Y-12518929D01*
X12466071Y-12533214D01*
X12437500Y-12533214D01*
X12408928Y-12518929D01*
X12394643Y-12504643D01*
X12380357Y-12476071D01*
X12366071Y-12418929D01*
X12366071Y-12347500D01*
X12380357Y-12290357D01*
X12394643Y-12261786D01*
X12408928Y-12247500D01*
X12437500Y-12233214D01*
X12666071Y-12504643D02*
X12680357Y-12518929D01*
X12666071Y-12533214D01*
X12651786Y-12518929D01*
X12666071Y-12504643D01*
X12666071Y-12533214D01*
X12866071Y-12233214D02*
X12894643Y-12233214D01*
X12923214Y-12247500D01*
X12937500Y-12261786D01*
X12951786Y-12290357D01*
X12966071Y-12347500D01*
X12966071Y-12418929D01*
X12951786Y-12476071D01*
X12937500Y-12504643D01*
X12923214Y-12518929D01*
X12894643Y-12533214D01*
X12866071Y-12533214D01*
X12837500Y-12518929D01*
X12823214Y-12504643D01*
X12808928Y-12476071D01*
X12794643Y-12418929D01*
X12794643Y-12347500D01*
X12808928Y-12290357D01*
X12823214Y-12261786D01*
X12837500Y-12247500D01*
X12866071Y-12233214D01*
X13066071Y-12233214D02*
X13251786Y-12233214D01*
X13151786Y-12347500D01*
X13194643Y-12347500D01*
X13223214Y-12361786D01*
X13237500Y-12376071D01*
X13251786Y-12404643D01*
X13251786Y-12476071D01*
X13237500Y-12504643D01*
X13223214Y-12518929D01*
X13194643Y-12533214D01*
X13108928Y-12533214D01*
X13080357Y-12518929D01*
X13066071Y-12504643D01*
X13394643Y-12533214D02*
X13451786Y-12533214D01*
X13480357Y-12518929D01*
X13494643Y-12504643D01*
X13523214Y-12461786D01*
X13537500Y-12404643D01*
X13537500Y-12290357D01*
X13523214Y-12261786D01*
X13508928Y-12247500D01*
X13480357Y-12233214D01*
X13423214Y-12233214D01*
X13394643Y-12247500D01*
X13380357Y-12261786D01*
X13366071Y-12290357D01*
X13366071Y-12361786D01*
X13380357Y-12390357D01*
X13394643Y-12404643D01*
X13423214Y-12418929D01*
X13480357Y-12418929D01*
X13508928Y-12404643D01*
X13523214Y-12390357D01*
X13537500Y-12361786D01*
X13651786Y-12233214D02*
X13651786Y-12290357D01*
X13766071Y-12233214D02*
X13766071Y-12290357D01*
X14208928Y-12647500D02*
X14194643Y-12633214D01*
X14166071Y-12590357D01*
X14151786Y-12561786D01*
X14137500Y-12518929D01*
X14123214Y-12447500D01*
X14123214Y-12390357D01*
X14137500Y-12318929D01*
X14151786Y-12276071D01*
X14166071Y-12247500D01*
X14194643Y-12204643D01*
X14208928Y-12190357D01*
X14466071Y-12233214D02*
X14323214Y-12233214D01*
X14308928Y-12376071D01*
X14323214Y-12361786D01*
X14351786Y-12347500D01*
X14423214Y-12347500D01*
X14451786Y-12361786D01*
X14466071Y-12376071D01*
X14480357Y-12404643D01*
X14480357Y-12476071D01*
X14466071Y-12504643D01*
X14451786Y-12518929D01*
X14423214Y-12533214D01*
X14351786Y-12533214D01*
X14323214Y-12518929D01*
X14308928Y-12504643D01*
X14580357Y-12233214D02*
X14780357Y-12233214D01*
X14651786Y-12533214D01*
X15123214Y-12533214D02*
X15123214Y-12233214D01*
X15251786Y-12533214D02*
X15251786Y-12376071D01*
X15237500Y-12347500D01*
X15208928Y-12333214D01*
X15166071Y-12333214D01*
X15137500Y-12347500D01*
X15123214Y-12361786D01*
X15437500Y-12533214D02*
X15408928Y-12518929D01*
X15394643Y-12504643D01*
X15380357Y-12476071D01*
X15380357Y-12390357D01*
X15394643Y-12361786D01*
X15408928Y-12347500D01*
X15437500Y-12333214D01*
X15480357Y-12333214D01*
X15508928Y-12347500D01*
X15523214Y-12361786D01*
X15537500Y-12390357D01*
X15537500Y-12476071D01*
X15523214Y-12504643D01*
X15508928Y-12518929D01*
X15480357Y-12533214D01*
X15437500Y-12533214D01*
X15708928Y-12533214D02*
X15680357Y-12518929D01*
X15666071Y-12490357D01*
X15666071Y-12233214D01*
X15937500Y-12518929D02*
X15908928Y-12533214D01*
X15851786Y-12533214D01*
X15823214Y-12518929D01*
X15808928Y-12490357D01*
X15808928Y-12376071D01*
X15823214Y-12347500D01*
X15851786Y-12333214D01*
X15908928Y-12333214D01*
X15937500Y-12347500D01*
X15951786Y-12376071D01*
X15951786Y-12404643D01*
X15808928Y-12433214D01*
X16066071Y-12518929D02*
X16094643Y-12533214D01*
X16151786Y-12533214D01*
X16180357Y-12518929D01*
X16194643Y-12490357D01*
X16194643Y-12476071D01*
X16180357Y-12447500D01*
X16151786Y-12433214D01*
X16108928Y-12433214D01*
X16080357Y-12418929D01*
X16066071Y-12390357D01*
X16066071Y-12376071D01*
X16080357Y-12347500D01*
X16108928Y-12333214D01*
X16151786Y-12333214D01*
X16180357Y-12347500D01*
X16294643Y-12647500D02*
X16308928Y-12633214D01*
X16337500Y-12590357D01*
X16351786Y-12561786D01*
X16366071Y-12518929D01*
X16380357Y-12447500D01*
X16380357Y-12390357D01*
X16366071Y-12318929D01*
X16351786Y-12276071D01*
X16337500Y-12247500D01*
X16308928Y-12204643D01*
X16294643Y-12190357D01*
X9337500Y-12701000D02*
X9522500Y-12886000D01*
X9522500Y-12701000D02*
X9337500Y-12886000D01*
X9430000Y-12701000D02*
X9430000Y-12886000D01*
X9337500Y-12793500D02*
X9522500Y-12793500D01*
X9966071Y-12929214D02*
X9794643Y-12929214D01*
X9880357Y-12929214D02*
X9880357Y-12629214D01*
X9851786Y-12672071D01*
X9823214Y-12700643D01*
X9794643Y-12714929D01*
X10094643Y-12900643D02*
X10108928Y-12914929D01*
X10094643Y-12929214D01*
X10080357Y-12914929D01*
X10094643Y-12900643D01*
X10094643Y-12929214D01*
X10280357Y-12757786D02*
X10251786Y-12743500D01*
X10237500Y-12729214D01*
X10223214Y-12700643D01*
X10223214Y-12686357D01*
X10237500Y-12657786D01*
X10251786Y-12643500D01*
X10280357Y-12629214D01*
X10337500Y-12629214D01*
X10366071Y-12643500D01*
X10380357Y-12657786D01*
X10394643Y-12686357D01*
X10394643Y-12700643D01*
X10380357Y-12729214D01*
X10366071Y-12743500D01*
X10337500Y-12757786D01*
X10280357Y-12757786D01*
X10251786Y-12772071D01*
X10237500Y-12786357D01*
X10223214Y-12814929D01*
X10223214Y-12872071D01*
X10237500Y-12900643D01*
X10251786Y-12914929D01*
X10280357Y-12929214D01*
X10337500Y-12929214D01*
X10366071Y-12914929D01*
X10380357Y-12900643D01*
X10394643Y-12872071D01*
X10394643Y-12814929D01*
X10380357Y-12786357D01*
X10366071Y-12772071D01*
X10337500Y-12757786D01*
X10666071Y-12629214D02*
X10523214Y-12629214D01*
X10508928Y-12772071D01*
X10523214Y-12757786D01*
X10551786Y-12743500D01*
X10623214Y-12743500D01*
X10651786Y-12757786D01*
X10666071Y-12772071D01*
X10680357Y-12800643D01*
X10680357Y-12872071D01*
X10666071Y-12900643D01*
X10651786Y-12914929D01*
X10623214Y-12929214D01*
X10551786Y-12929214D01*
X10523214Y-12914929D01*
X10508928Y-12900643D01*
X10808928Y-12929214D02*
X10808928Y-12729214D01*
X10808928Y-12757786D02*
X10823214Y-12743500D01*
X10851786Y-12729214D01*
X10894643Y-12729214D01*
X10923214Y-12743500D01*
X10937500Y-12772071D01*
X10937500Y-12929214D01*
X10937500Y-12772071D02*
X10951786Y-12743500D01*
X10980357Y-12729214D01*
X11023214Y-12729214D01*
X11051786Y-12743500D01*
X11066071Y-12772071D01*
X11066071Y-12929214D01*
X11208928Y-12929214D02*
X11208928Y-12729214D01*
X11208928Y-12757786D02*
X11223214Y-12743500D01*
X11251786Y-12729214D01*
X11294643Y-12729214D01*
X11323214Y-12743500D01*
X11337500Y-12772071D01*
X11337500Y-12929214D01*
X11337500Y-12772071D02*
X11351786Y-12743500D01*
X11380357Y-12729214D01*
X11423214Y-12729214D01*
X11451786Y-12743500D01*
X11466071Y-12772071D01*
X11466071Y-12929214D01*
X12051786Y-12614929D02*
X11794643Y-13000643D01*
X12437500Y-12629214D02*
X12466071Y-12629214D01*
X12494643Y-12643500D01*
X12508928Y-12657786D01*
X12523214Y-12686357D01*
X12537500Y-12743500D01*
X12537500Y-12814929D01*
X12523214Y-12872071D01*
X12508928Y-12900643D01*
X12494643Y-12914929D01*
X12466071Y-12929214D01*
X12437500Y-12929214D01*
X12408928Y-12914929D01*
X12394643Y-12900643D01*
X12380357Y-12872071D01*
X12366071Y-12814929D01*
X12366071Y-12743500D01*
X12380357Y-12686357D01*
X12394643Y-12657786D01*
X12408928Y-12643500D01*
X12437500Y-12629214D01*
X12666071Y-12900643D02*
X12680357Y-12914929D01*
X12666071Y-12929214D01*
X12651786Y-12914929D01*
X12666071Y-12900643D01*
X12666071Y-12929214D01*
X12866071Y-12629214D02*
X12894643Y-12629214D01*
X12923214Y-12643500D01*
X12937500Y-12657786D01*
X12951786Y-12686357D01*
X12966071Y-12743500D01*
X12966071Y-12814929D01*
X12951786Y-12872071D01*
X12937500Y-12900643D01*
X12923214Y-12914929D01*
X12894643Y-12929214D01*
X12866071Y-12929214D01*
X12837500Y-12914929D01*
X12823214Y-12900643D01*
X12808928Y-12872071D01*
X12794643Y-12814929D01*
X12794643Y-12743500D01*
X12808928Y-12686357D01*
X12823214Y-12657786D01*
X12837500Y-12643500D01*
X12866071Y-12629214D01*
X13066071Y-12629214D02*
X13266071Y-12629214D01*
X13137500Y-12929214D01*
X13351786Y-12629214D02*
X13537500Y-12629214D01*
X13437500Y-12743500D01*
X13480357Y-12743500D01*
X13508928Y-12757786D01*
X13523214Y-12772071D01*
X13537500Y-12800643D01*
X13537500Y-12872071D01*
X13523214Y-12900643D01*
X13508928Y-12914929D01*
X13480357Y-12929214D01*
X13394643Y-12929214D01*
X13366071Y-12914929D01*
X13351786Y-12900643D01*
X13651786Y-12629214D02*
X13651786Y-12686357D01*
X13766071Y-12629214D02*
X13766071Y-12686357D01*
X14208928Y-13043500D02*
X14194643Y-13029214D01*
X14166071Y-12986357D01*
X14151786Y-12957786D01*
X14137500Y-12914929D01*
X14123214Y-12843500D01*
X14123214Y-12786357D01*
X14137500Y-12714929D01*
X14151786Y-12672071D01*
X14166071Y-12643500D01*
X14194643Y-12600643D01*
X14208928Y-12586357D01*
X14294643Y-12629214D02*
X14480357Y-12629214D01*
X14380357Y-12743500D01*
X14423214Y-12743500D01*
X14451786Y-12757786D01*
X14466071Y-12772071D01*
X14480357Y-12800643D01*
X14480357Y-12872071D01*
X14466071Y-12900643D01*
X14451786Y-12914929D01*
X14423214Y-12929214D01*
X14337500Y-12929214D01*
X14308928Y-12914929D01*
X14294643Y-12900643D01*
X14837500Y-12929214D02*
X14837500Y-12629214D01*
X14966071Y-12929214D02*
X14966071Y-12772071D01*
X14951786Y-12743500D01*
X14923214Y-12729214D01*
X14880357Y-12729214D01*
X14851786Y-12743500D01*
X14837500Y-12757786D01*
X15151786Y-12929214D02*
X15123214Y-12914929D01*
X15108928Y-12900643D01*
X15094643Y-12872071D01*
X15094643Y-12786357D01*
X15108928Y-12757786D01*
X15123214Y-12743500D01*
X15151786Y-12729214D01*
X15194643Y-12729214D01*
X15223214Y-12743500D01*
X15237500Y-12757786D01*
X15251786Y-12786357D01*
X15251786Y-12872071D01*
X15237500Y-12900643D01*
X15223214Y-12914929D01*
X15194643Y-12929214D01*
X15151786Y-12929214D01*
X15423214Y-12929214D02*
X15394643Y-12914929D01*
X15380357Y-12886357D01*
X15380357Y-12629214D01*
X15651786Y-12914929D02*
X15623214Y-12929214D01*
X15566071Y-12929214D01*
X15537500Y-12914929D01*
X15523214Y-12886357D01*
X15523214Y-12772071D01*
X15537500Y-12743500D01*
X15566071Y-12729214D01*
X15623214Y-12729214D01*
X15651786Y-12743500D01*
X15666071Y-12772071D01*
X15666071Y-12800643D01*
X15523214Y-12829214D01*
X15780357Y-12914929D02*
X15808928Y-12929214D01*
X15866071Y-12929214D01*
X15894643Y-12914929D01*
X15908928Y-12886357D01*
X15908928Y-12872071D01*
X15894643Y-12843500D01*
X15866071Y-12829214D01*
X15823214Y-12829214D01*
X15794643Y-12814929D01*
X15780357Y-12786357D01*
X15780357Y-12772071D01*
X15794643Y-12743500D01*
X15823214Y-12729214D01*
X15866071Y-12729214D01*
X15894643Y-12743500D01*
X16008928Y-13043500D02*
X16023214Y-13029214D01*
X16051786Y-12986357D01*
X16066071Y-12957786D01*
X16080357Y-12914929D01*
X16094643Y-12843500D01*
X16094643Y-12786357D01*
X16080357Y-12714929D01*
X16066071Y-12672071D01*
X16051786Y-12643500D01*
X16023214Y-12600643D01*
X16008928Y-12586357D01*
X9268500Y-13062500D02*
X9522500Y-13316500D01*
X9522500Y-13062500D02*
X9268500Y-13316500D01*
X9485303Y-13279303D02*
X9485303Y-13099697D01*
X9305697Y-13099697D01*
X9305697Y-13279303D01*
X9485303Y-13279303D01*
X9794643Y-13053786D02*
X9808928Y-13039500D01*
X9837500Y-13025214D01*
X9908928Y-13025214D01*
X9937500Y-13039500D01*
X9951786Y-13053786D01*
X9966071Y-13082357D01*
X9966071Y-13110929D01*
X9951786Y-13153786D01*
X9780357Y-13325214D01*
X9966071Y-13325214D01*
X10094643Y-13296643D02*
X10108928Y-13310929D01*
X10094643Y-13325214D01*
X10080357Y-13310929D01*
X10094643Y-13296643D01*
X10094643Y-13325214D01*
X10380357Y-13025214D02*
X10237500Y-13025214D01*
X10223214Y-13168071D01*
X10237500Y-13153786D01*
X10266071Y-13139500D01*
X10337500Y-13139500D01*
X10366071Y-13153786D01*
X10380357Y-13168071D01*
X10394643Y-13196643D01*
X10394643Y-13268071D01*
X10380357Y-13296643D01*
X10366071Y-13310929D01*
X10337500Y-13325214D01*
X10266071Y-13325214D01*
X10237500Y-13310929D01*
X10223214Y-13296643D01*
X10651786Y-13125214D02*
X10651786Y-13325214D01*
X10580357Y-13010929D02*
X10508928Y-13225214D01*
X10694643Y-13225214D01*
X10808928Y-13325214D02*
X10808928Y-13125214D01*
X10808928Y-13153786D02*
X10823214Y-13139500D01*
X10851786Y-13125214D01*
X10894643Y-13125214D01*
X10923214Y-13139500D01*
X10937500Y-13168071D01*
X10937500Y-13325214D01*
X10937500Y-13168071D02*
X10951786Y-13139500D01*
X10980357Y-13125214D01*
X11023214Y-13125214D01*
X11051786Y-13139500D01*
X11066071Y-13168071D01*
X11066071Y-13325214D01*
X11208928Y-13325214D02*
X11208928Y-13125214D01*
X11208928Y-13153786D02*
X11223214Y-13139500D01*
X11251786Y-13125214D01*
X11294643Y-13125214D01*
X11323214Y-13139500D01*
X11337500Y-13168071D01*
X11337500Y-13325214D01*
X11337500Y-13168071D02*
X11351786Y-13139500D01*
X11380357Y-13125214D01*
X11423214Y-13125214D01*
X11451786Y-13139500D01*
X11466071Y-13168071D01*
X11466071Y-13325214D01*
X12051786Y-13010929D02*
X11794643Y-13396643D01*
X12437500Y-13025214D02*
X12466071Y-13025214D01*
X12494643Y-13039500D01*
X12508928Y-13053786D01*
X12523214Y-13082357D01*
X12537500Y-13139500D01*
X12537500Y-13210929D01*
X12523214Y-13268071D01*
X12508928Y-13296643D01*
X12494643Y-13310929D01*
X12466071Y-13325214D01*
X12437500Y-13325214D01*
X12408928Y-13310929D01*
X12394643Y-13296643D01*
X12380357Y-13268071D01*
X12366071Y-13210929D01*
X12366071Y-13139500D01*
X12380357Y-13082357D01*
X12394643Y-13053786D01*
X12408928Y-13039500D01*
X12437500Y-13025214D01*
X12666071Y-13296643D02*
X12680357Y-13310929D01*
X12666071Y-13325214D01*
X12651786Y-13310929D01*
X12666071Y-13296643D01*
X12666071Y-13325214D01*
X12966071Y-13325214D02*
X12794643Y-13325214D01*
X12880357Y-13325214D02*
X12880357Y-13025214D01*
X12851786Y-13068071D01*
X12823214Y-13096643D01*
X12794643Y-13110929D01*
X13151786Y-13025214D02*
X13180357Y-13025214D01*
X13208928Y-13039500D01*
X13223214Y-13053786D01*
X13237500Y-13082357D01*
X13251786Y-13139500D01*
X13251786Y-13210929D01*
X13237500Y-13268071D01*
X13223214Y-13296643D01*
X13208928Y-13310929D01*
X13180357Y-13325214D01*
X13151786Y-13325214D01*
X13123214Y-13310929D01*
X13108928Y-13296643D01*
X13094643Y-13268071D01*
X13080357Y-13210929D01*
X13080357Y-13139500D01*
X13094643Y-13082357D01*
X13108928Y-13053786D01*
X13123214Y-13039500D01*
X13151786Y-13025214D01*
X13437500Y-13025214D02*
X13466071Y-13025214D01*
X13494643Y-13039500D01*
X13508928Y-13053786D01*
X13523214Y-13082357D01*
X13537500Y-13139500D01*
X13537500Y-13210929D01*
X13523214Y-13268071D01*
X13508928Y-13296643D01*
X13494643Y-13310929D01*
X13466071Y-13325214D01*
X13437500Y-13325214D01*
X13408928Y-13310929D01*
X13394643Y-13296643D01*
X13380357Y-13268071D01*
X13366071Y-13210929D01*
X13366071Y-13139500D01*
X13380357Y-13082357D01*
X13394643Y-13053786D01*
X13408928Y-13039500D01*
X13437500Y-13025214D01*
X13651786Y-13025214D02*
X13651786Y-13082357D01*
X13766071Y-13025214D02*
X13766071Y-13082357D01*
X14208928Y-13439500D02*
X14194643Y-13425214D01*
X14166071Y-13382357D01*
X14151786Y-13353786D01*
X14137500Y-13310929D01*
X14123214Y-13239500D01*
X14123214Y-13182357D01*
X14137500Y-13110929D01*
X14151786Y-13068071D01*
X14166071Y-13039500D01*
X14194643Y-12996643D01*
X14208928Y-12982357D01*
X14308928Y-13053786D02*
X14323214Y-13039500D01*
X14351786Y-13025214D01*
X14423214Y-13025214D01*
X14451786Y-13039500D01*
X14466071Y-13053786D01*
X14480357Y-13082357D01*
X14480357Y-13110929D01*
X14466071Y-13153786D01*
X14294643Y-13325214D01*
X14480357Y-13325214D01*
X14837500Y-13325214D02*
X14837500Y-13025214D01*
X14966071Y-13325214D02*
X14966071Y-13168071D01*
X14951786Y-13139500D01*
X14923214Y-13125214D01*
X14880357Y-13125214D01*
X14851786Y-13139500D01*
X14837500Y-13153786D01*
X15151786Y-13325214D02*
X15123214Y-13310929D01*
X15108928Y-13296643D01*
X15094643Y-13268071D01*
X15094643Y-13182357D01*
X15108928Y-13153786D01*
X15123214Y-13139500D01*
X15151786Y-13125214D01*
X15194643Y-13125214D01*
X15223214Y-13139500D01*
X15237500Y-13153786D01*
X15251786Y-13182357D01*
X15251786Y-13268071D01*
X15237500Y-13296643D01*
X15223214Y-13310929D01*
X15194643Y-13325214D01*
X15151786Y-13325214D01*
X15423214Y-13325214D02*
X15394643Y-13310929D01*
X15380357Y-13282357D01*
X15380357Y-13025214D01*
X15651786Y-13310929D02*
X15623214Y-13325214D01*
X15566071Y-13325214D01*
X15537500Y-13310929D01*
X15523214Y-13282357D01*
X15523214Y-13168071D01*
X15537500Y-13139500D01*
X15566071Y-13125214D01*
X15623214Y-13125214D01*
X15651786Y-13139500D01*
X15666071Y-13168071D01*
X15666071Y-13196643D01*
X15523214Y-13225214D01*
X15780357Y-13310929D02*
X15808928Y-13325214D01*
X15866071Y-13325214D01*
X15894643Y-13310929D01*
X15908928Y-13282357D01*
X15908928Y-13268071D01*
X15894643Y-13239500D01*
X15866071Y-13225214D01*
X15823214Y-13225214D01*
X15794643Y-13210929D01*
X15780357Y-13182357D01*
X15780357Y-13168071D01*
X15794643Y-13139500D01*
X15823214Y-13125214D01*
X15866071Y-13125214D01*
X15894643Y-13139500D01*
X16008928Y-13439500D02*
X16023214Y-13425214D01*
X16051786Y-13382357D01*
X16066071Y-13353786D01*
X16080357Y-13310929D01*
X16094643Y-13239500D01*
X16094643Y-13182357D01*
X16080357Y-13110929D01*
X16066071Y-13068071D01*
X16051786Y-13039500D01*
X16023214Y-12996643D01*
X16008928Y-12982357D01*
X9022500Y-13335500D02*
X9522500Y-13835500D01*
X9522500Y-13335500D02*
X9022500Y-13835500D01*
X9272500Y-13835500D02*
X9522500Y-13585500D01*
X9272500Y-13335500D01*
X9022500Y-13585500D01*
X9272500Y-13835500D01*
X9951786Y-13421214D02*
X9808928Y-13421214D01*
X9794643Y-13564071D01*
X9808928Y-13549786D01*
X9837500Y-13535500D01*
X9908928Y-13535500D01*
X9937500Y-13549786D01*
X9951786Y-13564071D01*
X9966071Y-13592643D01*
X9966071Y-13664071D01*
X9951786Y-13692643D01*
X9937500Y-13706929D01*
X9908928Y-13721214D01*
X9837500Y-13721214D01*
X9808928Y-13706929D01*
X9794643Y-13692643D01*
X10094643Y-13692643D02*
X10108928Y-13706929D01*
X10094643Y-13721214D01*
X10080357Y-13706929D01*
X10094643Y-13692643D01*
X10094643Y-13721214D01*
X10294643Y-13421214D02*
X10323214Y-13421214D01*
X10351786Y-13435500D01*
X10366071Y-13449786D01*
X10380357Y-13478357D01*
X10394643Y-13535500D01*
X10394643Y-13606929D01*
X10380357Y-13664071D01*
X10366071Y-13692643D01*
X10351786Y-13706929D01*
X10323214Y-13721214D01*
X10294643Y-13721214D01*
X10266071Y-13706929D01*
X10251786Y-13692643D01*
X10237500Y-13664071D01*
X10223214Y-13606929D01*
X10223214Y-13535500D01*
X10237500Y-13478357D01*
X10251786Y-13449786D01*
X10266071Y-13435500D01*
X10294643Y-13421214D01*
X10580357Y-13421214D02*
X10608928Y-13421214D01*
X10637500Y-13435500D01*
X10651786Y-13449786D01*
X10666071Y-13478357D01*
X10680357Y-13535500D01*
X10680357Y-13606929D01*
X10666071Y-13664071D01*
X10651786Y-13692643D01*
X10637500Y-13706929D01*
X10608928Y-13721214D01*
X10580357Y-13721214D01*
X10551786Y-13706929D01*
X10537500Y-13692643D01*
X10523214Y-13664071D01*
X10508928Y-13606929D01*
X10508928Y-13535500D01*
X10523214Y-13478357D01*
X10537500Y-13449786D01*
X10551786Y-13435500D01*
X10580357Y-13421214D01*
X10808928Y-13721214D02*
X10808928Y-13521214D01*
X10808928Y-13549786D02*
X10823214Y-13535500D01*
X10851786Y-13521214D01*
X10894643Y-13521214D01*
X10923214Y-13535500D01*
X10937500Y-13564071D01*
X10937500Y-13721214D01*
X10937500Y-13564071D02*
X10951786Y-13535500D01*
X10980357Y-13521214D01*
X11023214Y-13521214D01*
X11051786Y-13535500D01*
X11066071Y-13564071D01*
X11066071Y-13721214D01*
X11208928Y-13721214D02*
X11208928Y-13521214D01*
X11208928Y-13549786D02*
X11223214Y-13535500D01*
X11251786Y-13521214D01*
X11294643Y-13521214D01*
X11323214Y-13535500D01*
X11337500Y-13564071D01*
X11337500Y-13721214D01*
X11337500Y-13564071D02*
X11351786Y-13535500D01*
X11380357Y-13521214D01*
X11423214Y-13521214D01*
X11451786Y-13535500D01*
X11466071Y-13564071D01*
X11466071Y-13721214D01*
X12051786Y-13406929D02*
X11794643Y-13792643D01*
X12437500Y-13421214D02*
X12466071Y-13421214D01*
X12494643Y-13435500D01*
X12508928Y-13449786D01*
X12523214Y-13478357D01*
X12537500Y-13535500D01*
X12537500Y-13606929D01*
X12523214Y-13664071D01*
X12508928Y-13692643D01*
X12494643Y-13706929D01*
X12466071Y-13721214D01*
X12437500Y-13721214D01*
X12408928Y-13706929D01*
X12394643Y-13692643D01*
X12380357Y-13664071D01*
X12366071Y-13606929D01*
X12366071Y-13535500D01*
X12380357Y-13478357D01*
X12394643Y-13449786D01*
X12408928Y-13435500D01*
X12437500Y-13421214D01*
X12666071Y-13692643D02*
X12680357Y-13706929D01*
X12666071Y-13721214D01*
X12651786Y-13706929D01*
X12666071Y-13692643D01*
X12666071Y-13721214D01*
X12966071Y-13721214D02*
X12794643Y-13721214D01*
X12880357Y-13721214D02*
X12880357Y-13421214D01*
X12851786Y-13464071D01*
X12823214Y-13492643D01*
X12794643Y-13506929D01*
X13108928Y-13721214D02*
X13166071Y-13721214D01*
X13194643Y-13706929D01*
X13208928Y-13692643D01*
X13237500Y-13649786D01*
X13251786Y-13592643D01*
X13251786Y-13478357D01*
X13237500Y-13449786D01*
X13223214Y-13435500D01*
X13194643Y-13421214D01*
X13137500Y-13421214D01*
X13108928Y-13435500D01*
X13094643Y-13449786D01*
X13080357Y-13478357D01*
X13080357Y-13549786D01*
X13094643Y-13578357D01*
X13108928Y-13592643D01*
X13137500Y-13606929D01*
X13194643Y-13606929D01*
X13223214Y-13592643D01*
X13237500Y-13578357D01*
X13251786Y-13549786D01*
X13351786Y-13421214D02*
X13551786Y-13421214D01*
X13423214Y-13721214D01*
X13651786Y-13421214D02*
X13651786Y-13478357D01*
X13766071Y-13421214D02*
X13766071Y-13478357D01*
X14208928Y-13835500D02*
X14194643Y-13821214D01*
X14166071Y-13778357D01*
X14151786Y-13749786D01*
X14137500Y-13706929D01*
X14123214Y-13635500D01*
X14123214Y-13578357D01*
X14137500Y-13506929D01*
X14151786Y-13464071D01*
X14166071Y-13435500D01*
X14194643Y-13392643D01*
X14208928Y-13378357D01*
X14451786Y-13521214D02*
X14451786Y-13721214D01*
X14380357Y-13406929D02*
X14308928Y-13621214D01*
X14494643Y-13621214D01*
X14837500Y-13721214D02*
X14837500Y-13421214D01*
X14966071Y-13721214D02*
X14966071Y-13564071D01*
X14951786Y-13535500D01*
X14923214Y-13521214D01*
X14880357Y-13521214D01*
X14851786Y-13535500D01*
X14837500Y-13549786D01*
X15151786Y-13721214D02*
X15123214Y-13706929D01*
X15108928Y-13692643D01*
X15094643Y-13664071D01*
X15094643Y-13578357D01*
X15108928Y-13549786D01*
X15123214Y-13535500D01*
X15151786Y-13521214D01*
X15194643Y-13521214D01*
X15223214Y-13535500D01*
X15237500Y-13549786D01*
X15251786Y-13578357D01*
X15251786Y-13664071D01*
X15237500Y-13692643D01*
X15223214Y-13706929D01*
X15194643Y-13721214D01*
X15151786Y-13721214D01*
X15423214Y-13721214D02*
X15394643Y-13706929D01*
X15380357Y-13678357D01*
X15380357Y-13421214D01*
X15651786Y-13706929D02*
X15623214Y-13721214D01*
X15566071Y-13721214D01*
X15537500Y-13706929D01*
X15523214Y-13678357D01*
X15523214Y-13564071D01*
X15537500Y-13535500D01*
X15566071Y-13521214D01*
X15623214Y-13521214D01*
X15651786Y-13535500D01*
X15666071Y-13564071D01*
X15666071Y-13592643D01*
X15523214Y-13621214D01*
X15780357Y-13706929D02*
X15808928Y-13721214D01*
X15866071Y-13721214D01*
X15894643Y-13706929D01*
X15908928Y-13678357D01*
X15908928Y-13664071D01*
X15894643Y-13635500D01*
X15866071Y-13621214D01*
X15823214Y-13621214D01*
X15794643Y-13606929D01*
X15780357Y-13578357D01*
X15780357Y-13564071D01*
X15794643Y-13535500D01*
X15823214Y-13521214D01*
X15866071Y-13521214D01*
X15894643Y-13535500D01*
X16008928Y-13835500D02*
X16023214Y-13821214D01*
X16051786Y-13778357D01*
X16066071Y-13749786D01*
X16080357Y-13706929D01*
X16094643Y-13635500D01*
X16094643Y-13578357D01*
X16080357Y-13506929D01*
X16066071Y-13464071D01*
X16051786Y-13435500D01*
X16023214Y-13392643D01*
X16008928Y-13378357D01*
M02*
