G04 #@! TF.GenerationSoftware,KiCad,Pcbnew,5.0.2-bee76a0~70~ubuntu16.04.1*
G04 #@! TF.CreationDate,2019-02-15T10:17:40+01:00*
G04 #@! TF.ProjectId,lab,6c61622e-6b69-4636-9164-5f7063625858,rev?*
G04 #@! TF.SameCoordinates,Original*
G04 #@! TF.FileFunction,Copper,L2,Bot*
G04 #@! TF.FilePolarity,Positive*
%FSLAX46Y46*%
G04 Gerber Fmt 4.6, Leading zero omitted, Abs format (unit mm)*
G04 Created by KiCad (PCBNEW 5.0.2-bee76a0~70~ubuntu16.04.1) date fre 15 feb 2019 10:17:40*
%MOMM*%
%LPD*%
G01*
G04 APERTURE LIST*
G04 #@! TA.AperFunction,ComponentPad*
%ADD10C,2.800000*%
G04 #@! TD*
G04 #@! TA.AperFunction,ComponentPad*
%ADD11R,2.800000X2.800000*%
G04 #@! TD*
G04 #@! TA.AperFunction,ComponentPad*
%ADD12O,1.700000X1.700000*%
G04 #@! TD*
G04 #@! TA.AperFunction,ComponentPad*
%ADD13R,1.700000X1.700000*%
G04 #@! TD*
G04 #@! TA.AperFunction,ComponentPad*
%ADD14C,6.000000*%
G04 #@! TD*
G04 #@! TA.AperFunction,ComponentPad*
%ADD15C,1.600000*%
G04 #@! TD*
G04 #@! TA.AperFunction,ComponentPad*
%ADD16R,1.600000X1.600000*%
G04 #@! TD*
G04 #@! TA.AperFunction,ComponentPad*
%ADD17O,1.600000X1.600000*%
G04 #@! TD*
G04 #@! TA.AperFunction,ComponentPad*
%ADD18O,0.900000X1.600000*%
G04 #@! TD*
G04 #@! TA.AperFunction,ComponentPad*
%ADD19R,1.520000X1.520000*%
G04 #@! TD*
G04 #@! TA.AperFunction,ComponentPad*
%ADD20C,1.520000*%
G04 #@! TD*
G04 #@! TA.AperFunction,ComponentPad*
%ADD21R,1.500000X0.900000*%
G04 #@! TD*
G04 #@! TA.AperFunction,ComponentPad*
%ADD22O,1.500000X0.900000*%
G04 #@! TD*
G04 #@! TA.AperFunction,ComponentPad*
%ADD23C,1.500000*%
G04 #@! TD*
G04 #@! TA.AperFunction,ComponentPad*
%ADD24R,1.500000X1.500000*%
G04 #@! TD*
G04 #@! TA.AperFunction,ComponentPad*
%ADD25C,3.500000*%
G04 #@! TD*
G04 #@! TA.AperFunction,ComponentPad*
%ADD26C,1.000000*%
G04 #@! TD*
G04 #@! TA.AperFunction,ComponentPad*
%ADD27C,1.524000*%
G04 #@! TD*
G04 #@! TA.AperFunction,SMDPad,CuDef*
%ADD28R,1.300000X1.500000*%
G04 #@! TD*
G04 #@! TA.AperFunction,ViaPad*
%ADD29C,0.800000*%
G04 #@! TD*
G04 #@! TA.AperFunction,Conductor*
%ADD30C,0.200000*%
G04 #@! TD*
G04 #@! TA.AperFunction,Conductor*
%ADD31C,0.400000*%
G04 #@! TD*
G04 #@! TA.AperFunction,Conductor*
%ADD32C,0.254000*%
G04 #@! TD*
G04 APERTURE END LIST*
D10*
G04 #@! TO.P,SW1,3*
G04 #@! TO.N,+5V*
X170814000Y-83312000D03*
D11*
G04 #@! TO.P,SW1,2*
G04 #@! TO.N,+VIN*
X175514000Y-83312000D03*
D10*
G04 #@! TO.P,SW1,1*
G04 #@! TO.N,+BATT*
X180214000Y-83312000D03*
G04 #@! TD*
D12*
G04 #@! TO.P,U6,8*
G04 #@! TO.N,/Display/LED*
X148300000Y-89020000D03*
G04 #@! TO.P,U6,7*
G04 #@! TO.N,/SPI1_SCK*
X145760000Y-89020000D03*
G04 #@! TO.P,U6,6*
G04 #@! TO.N,/SPI1_MOSI*
X143220000Y-89020000D03*
G04 #@! TO.P,U6,5*
G04 #@! TO.N,/LCD_DC*
X140680000Y-89020000D03*
G04 #@! TO.P,U6,4*
G04 #@! TO.N,/LCD_RST*
X138140000Y-89020000D03*
G04 #@! TO.P,U6,3*
G04 #@! TO.N,/LCD_SCE*
X135600000Y-89020000D03*
G04 #@! TO.P,U6,2*
G04 #@! TO.N,GND*
X133060000Y-89020000D03*
D13*
G04 #@! TO.P,U6,1*
G04 #@! TO.N,+3V3*
X130520000Y-89020000D03*
D12*
G04 #@! TO.P,U6,*
G04 #@! TO.N,*
X135626810Y-51394875D03*
X140706810Y-51394875D03*
X138166810Y-51394875D03*
X145786810Y-51394875D03*
X143246810Y-51394875D03*
X148326810Y-51394875D03*
X133086810Y-51394875D03*
D13*
X130546810Y-51394875D03*
D14*
X120920000Y-88770000D03*
X157920000Y-88770000D03*
X157920000Y-51770000D03*
X120920000Y-51770000D03*
G04 #@! TD*
D12*
G04 #@! TO.P,BT1,2*
G04 #@! TO.N,GND*
X180848000Y-91694000D03*
D13*
G04 #@! TO.P,BT1,1*
G04 #@! TO.N,+BATT*
X180848000Y-89154000D03*
G04 #@! TD*
D15*
G04 #@! TO.P,C1,2*
G04 #@! TO.N,GND*
X177038000Y-75470000D03*
D16*
G04 #@! TO.P,C1,1*
G04 #@! TO.N,+VIN*
X177038000Y-77470000D03*
G04 #@! TD*
G04 #@! TO.P,C4,1*
G04 #@! TO.N,+3V3*
X171450000Y-77470000D03*
D15*
G04 #@! TO.P,C4,2*
G04 #@! TO.N,GND*
X171450000Y-75470000D03*
G04 #@! TD*
D17*
G04 #@! TO.P,D1,2*
G04 #@! TO.N,Net-(D1-Pad2)*
X102616000Y-78486000D03*
D16*
G04 #@! TO.P,D1,1*
G04 #@! TO.N,Net-(D1-Pad1)*
X110236000Y-78486000D03*
G04 #@! TD*
D18*
G04 #@! TO.P,J1,*
G04 #@! TO.N,*
X177544000Y-90678000D03*
X170944000Y-90678000D03*
G04 #@! TD*
D12*
G04 #@! TO.P,J2,6*
G04 #@! TO.N,/SWO*
X176276000Y-49530000D03*
G04 #@! TO.P,J2,5*
G04 #@! TO.N,/NRST*
X173736000Y-49530000D03*
G04 #@! TO.P,J2,4*
G04 #@! TO.N,/SWDIO*
X171196000Y-49530000D03*
G04 #@! TO.P,J2,3*
G04 #@! TO.N,GND*
X168656000Y-49530000D03*
G04 #@! TO.P,J2,2*
G04 #@! TO.N,/SWCLK*
X166116000Y-49530000D03*
D13*
G04 #@! TO.P,J2,1*
G04 #@! TO.N,+3V3*
X163576000Y-49530000D03*
G04 #@! TD*
D12*
G04 #@! TO.P,J3,3*
G04 #@! TO.N,/USART1_RX*
X163620000Y-56680000D03*
G04 #@! TO.P,J3,2*
G04 #@! TO.N,/USART1_TX*
X163620000Y-59220000D03*
D13*
G04 #@! TO.P,J3,1*
G04 #@! TO.N,/USART1_CK*
X163620000Y-61760000D03*
G04 #@! TD*
D19*
G04 #@! TO.P,Q1,1*
G04 #@! TO.N,GND*
X115570000Y-88646000D03*
D20*
G04 #@! TO.P,Q1,3*
G04 #@! TO.N,Net-(D1-Pad2)*
X110490000Y-88646000D03*
G04 #@! TO.P,Q1,2*
G04 #@! TO.N,Net-(Q1-Pad2)*
X113030000Y-88646000D03*
G04 #@! TD*
D21*
G04 #@! TO.P,TH1,1*
G04 #@! TO.N,Net-(R7-Pad2)*
X165050000Y-77700000D03*
D22*
G04 #@! TO.P,TH1,2*
G04 #@! TO.N,GND*
X165050000Y-75160000D03*
G04 #@! TD*
D23*
G04 #@! TO.P,U3,11*
G04 #@! TO.N,N/C*
X110490000Y-53086000D03*
G04 #@! TO.P,U3,10*
X107950000Y-53086000D03*
G04 #@! TO.P,U3,9*
X105410000Y-53086000D03*
G04 #@! TO.P,U3,8*
G04 #@! TO.N,/CS_INT*
X115570000Y-65786000D03*
G04 #@! TO.P,U3,7*
G04 #@! TO.N,+3V3*
X113030000Y-65786000D03*
G04 #@! TO.P,U3,6*
G04 #@! TO.N,GND*
X110490000Y-65786000D03*
G04 #@! TO.P,U3,5*
G04 #@! TO.N,/I2C1_SDA*
X107950000Y-65786000D03*
G04 #@! TO.P,U3,4*
G04 #@! TO.N,/I2C1_SCL*
X105410000Y-65786000D03*
G04 #@! TO.P,U3,3*
G04 #@! TO.N,GND*
X102870000Y-65786000D03*
G04 #@! TO.P,U3,2*
G04 #@! TO.N,Net-(U3-Pad2)*
X100330000Y-65786000D03*
D24*
G04 #@! TO.P,U3,1*
G04 #@! TO.N,+3V3*
X97790000Y-65786000D03*
D25*
G04 #@! TO.P,U3,*
G04 #@! TO.N,*
X114300000Y-50546000D03*
X99060000Y-50546000D03*
G04 #@! TD*
D13*
G04 #@! TO.P,U4,1*
G04 #@! TO.N,Net-(R18-Pad2)*
X102870000Y-71374000D03*
D12*
G04 #@! TO.P,U4,2*
G04 #@! TO.N,GND*
X100330000Y-71374000D03*
G04 #@! TO.P,U4,3*
G04 #@! TO.N,+3V3*
X97790000Y-71374000D03*
G04 #@! TD*
D26*
G04 #@! TO.P,U7,1*
G04 #@! TO.N,+3V3*
X100370000Y-87376000D03*
G04 #@! TO.P,U7,2*
G04 #@! TO.N,Net-(D1-Pad2)*
X105370000Y-87376000D03*
G04 #@! TD*
D27*
G04 #@! TO.P,U8,4*
G04 #@! TO.N,/NRST*
X115790000Y-74200000D03*
G04 #@! TO.P,U8,3*
X109290000Y-74200000D03*
G04 #@! TO.P,U8,2*
G04 #@! TO.N,GND*
X115790000Y-69700000D03*
G04 #@! TO.P,U8,1*
X109290000Y-69700000D03*
G04 #@! TD*
G04 #@! TO.P,U9,1*
G04 #@! TO.N,+3V3*
X170154000Y-54038000D03*
G04 #@! TO.P,U9,2*
X176654000Y-54038000D03*
G04 #@! TO.P,U9,3*
G04 #@! TO.N,/TIM_START*
X170154000Y-58538000D03*
G04 #@! TO.P,U9,4*
X176654000Y-58538000D03*
G04 #@! TD*
G04 #@! TO.P,U10,1*
G04 #@! TO.N,+3V3*
X170254000Y-60918000D03*
G04 #@! TO.P,U10,2*
X176754000Y-60918000D03*
G04 #@! TO.P,U10,3*
G04 #@! TO.N,/TIM_INC*
X170254000Y-65418000D03*
G04 #@! TO.P,U10,4*
X176754000Y-65418000D03*
G04 #@! TD*
G04 #@! TO.P,U11,4*
G04 #@! TO.N,/TIM_RES*
X176732000Y-72354000D03*
G04 #@! TO.P,U11,3*
X170232000Y-72354000D03*
G04 #@! TO.P,U11,2*
G04 #@! TO.N,+3V3*
X176732000Y-67854000D03*
G04 #@! TO.P,U11,1*
X170232000Y-67854000D03*
G04 #@! TD*
D28*
G04 #@! TO.P,R19,2*
G04 #@! TO.N,/Temp Sensor/INAMPFB*
X152550000Y-75620000D03*
G04 #@! TO.P,R19,1*
G04 #@! TO.N,/TEMPOUT*
X152550000Y-78320000D03*
G04 #@! TD*
D29*
G04 #@! TO.N,GND*
X145750000Y-55250000D03*
X141750000Y-59000000D03*
X143500000Y-57250000D03*
X133500000Y-61500000D03*
X133600000Y-63700000D03*
X133600000Y-65600000D03*
X129900000Y-60700000D03*
X129900000Y-61900000D03*
X127100000Y-58600000D03*
X127750000Y-67000000D03*
X127750000Y-65250000D03*
X131100000Y-72400000D03*
X127900000Y-74300000D03*
X127900000Y-72000000D03*
X133300000Y-76100000D03*
X135400000Y-78300000D03*
X146200000Y-78700000D03*
X146200000Y-76100000D03*
X144800000Y-77000000D03*
X141300000Y-78500000D03*
X141300000Y-81600000D03*
X141400000Y-84400000D03*
X144900000Y-84600000D03*
X150500000Y-88900000D03*
X151800000Y-90600000D03*
X147000000Y-90700000D03*
X141600000Y-90700000D03*
X139300000Y-90700000D03*
X136800000Y-90700000D03*
X134200000Y-90700000D03*
X114500000Y-86000000D03*
X117600000Y-86100000D03*
X115600000Y-91500000D03*
X112900000Y-91500000D03*
X110100000Y-90500000D03*
X106500000Y-88700000D03*
X102950000Y-74000000D03*
X102950000Y-76500000D03*
X109400000Y-64000000D03*
X108300000Y-63100000D03*
X102400000Y-63000000D03*
X99200000Y-67300000D03*
X101600000Y-67300000D03*
X104300000Y-67300000D03*
X106800000Y-67300000D03*
X153500000Y-52250000D03*
X149750000Y-56000000D03*
X145500000Y-60000000D03*
X156500000Y-56000000D03*
X153250000Y-59250000D03*
X167500000Y-50900000D03*
X172300000Y-51550000D03*
X175250000Y-51500000D03*
X173750000Y-52600000D03*
X171750000Y-55500000D03*
X175250000Y-55500000D03*
X173500000Y-57250000D03*
X171750000Y-62250000D03*
X175250000Y-62250000D03*
X173500000Y-64000000D03*
X173500000Y-59750000D03*
X173500000Y-66500000D03*
X172500000Y-69250000D03*
X175000000Y-69250000D03*
X173750000Y-70750000D03*
X167750000Y-67500000D03*
X157750000Y-65250000D03*
X161500000Y-63000000D03*
X161500000Y-60750000D03*
X156500000Y-61750000D03*
X159000000Y-59250000D03*
X161250000Y-56750000D03*
X154000000Y-64500000D03*
X147750000Y-64750000D03*
X146250000Y-66000000D03*
X144750000Y-66000000D03*
X142750000Y-67750000D03*
X139750000Y-67750000D03*
X137000000Y-67750000D03*
X137000000Y-70000000D03*
X139750000Y-70000000D03*
X142750000Y-70000000D03*
X142750000Y-72250000D03*
X139750000Y-72250000D03*
X137000000Y-72250000D03*
X133750000Y-79750000D03*
X155500000Y-75500000D03*
X154250000Y-76750000D03*
X155750000Y-78500000D03*
X159250000Y-78500000D03*
X159250000Y-77000000D03*
X163000000Y-77000000D03*
X163000000Y-75500000D03*
X167750000Y-77500000D03*
X166250000Y-79000000D03*
X163000000Y-80500000D03*
X159250000Y-84500000D03*
X161500000Y-86000000D03*
X163250000Y-84250000D03*
X166000000Y-83500000D03*
X169750000Y-86000000D03*
X171500000Y-86000000D03*
X174500000Y-86000000D03*
X176750000Y-86000000D03*
X179000000Y-86000000D03*
X179000000Y-90750000D03*
X177000000Y-93000000D03*
X174250000Y-93000000D03*
X171500000Y-93000000D03*
X164750000Y-88000000D03*
X164750000Y-89750000D03*
X161250000Y-92500000D03*
X107400000Y-76500000D03*
X108000000Y-82500000D03*
X108250000Y-85500000D03*
X112500000Y-82250000D03*
X112500000Y-76750000D03*
X103750000Y-82000000D03*
X103500000Y-87750000D03*
X107400000Y-70000000D03*
X111500000Y-70000000D03*
X114000000Y-70000000D03*
X116500000Y-72000000D03*
X114000000Y-73000000D03*
X111500000Y-73000000D03*
X107400000Y-73000000D03*
X163000000Y-65000000D03*
X164500000Y-67000000D03*
X166000000Y-69000000D03*
X179350000Y-48400000D03*
X179500000Y-55000000D03*
X179500000Y-62250000D03*
X179500000Y-69250000D03*
X179500000Y-75500000D03*
X179500000Y-73750000D03*
X179500000Y-79000000D03*
X178500000Y-81250000D03*
X180500000Y-80500000D03*
X153590000Y-73120000D03*
X153590000Y-69420000D03*
X134000000Y-58500000D03*
X169700000Y-51600000D03*
X131100000Y-77774002D03*
X134700000Y-82700000D03*
X133000000Y-84600000D03*
X120900000Y-76900000D03*
X124000000Y-81500000D03*
X129250000Y-84250000D03*
X120550000Y-65100000D03*
X120600000Y-68500000D03*
X120650000Y-72550000D03*
X123500000Y-62500000D03*
X123500000Y-72250000D03*
X127750000Y-63500000D03*
X123900000Y-56900000D03*
X121800000Y-59000000D03*
X119600000Y-61100000D03*
X117400000Y-63300000D03*
X113250000Y-63000000D03*
X110500000Y-60500000D03*
X98750000Y-60000000D03*
X127900000Y-79450000D03*
X140000000Y-56750000D03*
X163250000Y-54500000D03*
X166530000Y-54500000D03*
X166500000Y-57250000D03*
X166750000Y-61000000D03*
X174750000Y-73500000D03*
X126750000Y-69500000D03*
X125000000Y-70500000D03*
X125000000Y-68750000D03*
X123500000Y-66750000D03*
X118250000Y-67750000D03*
X105750000Y-63000000D03*
X132000000Y-81500000D03*
X129250000Y-81500000D03*
X150500000Y-50750000D03*
X153000000Y-48250000D03*
X149680000Y-84170000D03*
X150350000Y-73850000D03*
G04 #@! TO.N,/NRST*
X132250000Y-71400000D03*
G04 #@! TO.N,+3V3*
X149150000Y-63525000D03*
X149200000Y-60825000D03*
X160100000Y-67900000D03*
X151150000Y-87525000D03*
X127900000Y-77625000D03*
X128700000Y-58650000D03*
X146375016Y-86300000D03*
G04 #@! TO.N,/Temp Sensor/INAMPFB*
X152400000Y-73914000D03*
G04 #@! TO.N,/TEMPOUT*
X135600000Y-73650000D03*
X148600000Y-87150000D03*
X152549990Y-79900000D03*
G04 #@! TO.N,/LCD_DC*
X140030000Y-73890000D03*
G04 #@! TO.N,/LCD_RST*
X138900000Y-75000000D03*
G04 #@! TO.N,/LCD_SCE*
X138925000Y-73875000D03*
G04 #@! TO.N,/TIM_START*
X148900000Y-72900000D03*
G04 #@! TO.N,/TIM_INC*
X150150000Y-71975000D03*
G04 #@! TO.N,/TIM_RES*
X151450000Y-71625000D03*
G04 #@! TO.N,/PIEZOPWM*
X142400000Y-61950000D03*
X120725000Y-84025000D03*
G04 #@! TD*
D30*
G04 #@! TO.N,GND*
X134000000Y-58500000D02*
X134500000Y-58000000D01*
X134500000Y-58000000D02*
X135500000Y-58000000D01*
X169700000Y-50574000D02*
X169700000Y-51600000D01*
G04 #@! TO.N,/NRST*
X130600000Y-69750000D02*
X132250000Y-71400000D01*
X169129002Y-53225000D02*
X162250000Y-53225000D01*
X152874999Y-62600001D02*
X141750001Y-62600001D01*
X130600000Y-61900000D02*
X130600000Y-69750000D01*
X162250000Y-53225000D02*
X152874999Y-62600001D01*
X141750001Y-62600001D02*
X139150000Y-60000000D01*
X139150000Y-60000000D02*
X132500000Y-60000000D01*
X132500000Y-60000000D02*
X130600000Y-61900000D01*
X169129002Y-53225000D02*
X172704002Y-49650000D01*
X173616000Y-49650000D02*
X173736000Y-49530000D01*
X172704002Y-49650000D02*
X173616000Y-49650000D01*
D31*
G04 #@! TO.N,+3V3*
X163576000Y-51072002D02*
X153823002Y-60825000D01*
X163576000Y-49530000D02*
X163576000Y-51072002D01*
X153823002Y-60825000D02*
X149200000Y-60825000D01*
X159025000Y-63525000D02*
X149150000Y-63525000D01*
X160100000Y-64600000D02*
X159025000Y-63525000D01*
X160100000Y-67900000D02*
X160100000Y-64600000D01*
X130520000Y-80245000D02*
X130520000Y-89020000D01*
X127900000Y-77625000D02*
X130520000Y-80245000D01*
X148800001Y-60425001D02*
X148775001Y-60425001D01*
X149200000Y-60825000D02*
X148800001Y-60425001D01*
X148775001Y-60425001D02*
X143975000Y-55625000D01*
X123191000Y-55625000D02*
X113030000Y-65786000D01*
X128700000Y-55675000D02*
X128750000Y-55625000D01*
X128700000Y-58650000D02*
X128700000Y-55675000D01*
X128750000Y-55625000D02*
X123191000Y-55625000D01*
X143975000Y-55625000D02*
X128750000Y-55625000D01*
X164776001Y-48329999D02*
X163576000Y-49530000D01*
X176654000Y-54038000D02*
X177476001Y-53215999D01*
X177476001Y-53215999D02*
X177476001Y-48953999D01*
X177476001Y-48953999D02*
X176852001Y-48329999D01*
X176852001Y-48329999D02*
X164776001Y-48329999D01*
X146940701Y-86300000D02*
X146375016Y-86300000D01*
X149925000Y-86300000D02*
X146940701Y-86300000D01*
X151150000Y-87525000D02*
X149925000Y-86300000D01*
D30*
G04 #@! TO.N,/Temp Sensor/INAMPFB*
X152400000Y-75612000D02*
X152400000Y-73914000D01*
G04 #@! TO.N,/TEMPOUT*
X148034315Y-87150000D02*
X148600000Y-87150000D01*
X139650000Y-86725000D02*
X140075000Y-87150000D01*
X139650000Y-75950000D02*
X139650000Y-86725000D01*
X140075000Y-87150000D02*
X148034315Y-87150000D01*
X140880000Y-74720000D02*
X139650000Y-75950000D01*
X135600000Y-73650000D02*
X136090002Y-73159998D01*
X136090002Y-73159998D02*
X140319998Y-73159998D01*
X140880000Y-73720000D02*
X140880000Y-74720000D01*
X140319998Y-73159998D02*
X140880000Y-73720000D01*
X152550000Y-79899990D02*
X152549990Y-79900000D01*
X152550000Y-78320000D02*
X152550000Y-79899990D01*
G04 #@! TO.N,/LCD_DC*
X138684000Y-76178002D02*
X140030000Y-74832002D01*
X140030000Y-74455685D02*
X140030000Y-73890000D01*
X140680000Y-89020000D02*
X138684000Y-87024000D01*
X140030000Y-74832002D02*
X140030000Y-74455685D01*
X138684000Y-87024000D02*
X138684000Y-76178002D01*
G04 #@! TO.N,/LCD_RST*
X138140000Y-75760000D02*
X138900000Y-75000000D01*
X138140000Y-89020000D02*
X138140000Y-75760000D01*
G04 #@! TO.N,/LCD_SCE*
X136449999Y-88170001D02*
X136454999Y-88170001D01*
X135600000Y-89020000D02*
X136449999Y-88170001D01*
X136454999Y-88170001D02*
X137600000Y-87025000D01*
X137600000Y-75275000D02*
X139000000Y-73875000D01*
X137600000Y-87025000D02*
X137600000Y-75275000D01*
G04 #@! TO.N,/TIM_START*
X169200000Y-62866238D02*
X169200000Y-59492000D01*
X171266001Y-64932239D02*
X169200000Y-62866238D01*
X170725000Y-73425000D02*
X171266001Y-72883999D01*
X171266001Y-72883999D02*
X171266001Y-64932239D01*
X169625000Y-73425000D02*
X170725000Y-73425000D01*
X148900000Y-72900000D02*
X151600000Y-72900000D01*
X151600000Y-72900000D02*
X152500000Y-72000000D01*
X168200000Y-72000000D02*
X169625000Y-73425000D01*
X169200000Y-59492000D02*
X170154000Y-58538000D01*
X152500000Y-72000000D02*
X168200000Y-72000000D01*
G04 #@! TO.N,/TIM_INC*
X151150001Y-70974999D02*
X152199999Y-70974999D01*
X150150000Y-71975000D02*
X151150001Y-70974999D01*
X152199999Y-70974999D02*
X152475000Y-71250000D01*
X152475000Y-71250000D02*
X168900000Y-71250000D01*
X168900000Y-71250000D02*
X169075000Y-71075000D01*
X169075000Y-66597000D02*
X170254000Y-65418000D01*
X169075000Y-71075000D02*
X169075000Y-66597000D01*
G04 #@! TO.N,/TIM_RES*
X169503000Y-71625000D02*
X170232000Y-72354000D01*
X151450000Y-71625000D02*
X169503000Y-71625000D01*
G04 #@! TO.N,/PIEZOPWM*
X122400000Y-82350000D02*
X120725000Y-84025000D01*
X122400000Y-81875000D02*
X122400000Y-82350000D01*
X122400000Y-61725000D02*
X122400000Y-63425000D01*
X122400000Y-63425000D02*
X122400000Y-81875000D01*
X122400000Y-63300000D02*
X122400000Y-63425000D01*
X124525000Y-59600000D02*
X122400000Y-61725000D01*
X140050000Y-59600000D02*
X124525000Y-59600000D01*
X142400000Y-61950000D02*
X140050000Y-59600000D01*
G04 #@! TD*
D32*
G04 #@! TO.N,GND*
G36*
X182390001Y-93790000D02*
X96010000Y-93790000D01*
X96010000Y-87150234D01*
X99235000Y-87150234D01*
X99235000Y-87601766D01*
X99407793Y-88018926D01*
X99727074Y-88338207D01*
X100144234Y-88511000D01*
X100595766Y-88511000D01*
X101012926Y-88338207D01*
X101332207Y-88018926D01*
X101505000Y-87601766D01*
X101505000Y-87150234D01*
X104235000Y-87150234D01*
X104235000Y-87601766D01*
X104407793Y-88018926D01*
X104727074Y-88338207D01*
X105144234Y-88511000D01*
X105595766Y-88511000D01*
X105939751Y-88368517D01*
X109095000Y-88368517D01*
X109095000Y-88923483D01*
X109307376Y-89436204D01*
X109699796Y-89828624D01*
X110212517Y-90041000D01*
X110767483Y-90041000D01*
X111280204Y-89828624D01*
X111672624Y-89436204D01*
X111760000Y-89225260D01*
X111847376Y-89436204D01*
X112239796Y-89828624D01*
X112752517Y-90041000D01*
X113307483Y-90041000D01*
X113820204Y-89828624D01*
X114175000Y-89473828D01*
X114175000Y-89532309D01*
X114271673Y-89765698D01*
X114450301Y-89944327D01*
X114683690Y-90041000D01*
X115284250Y-90041000D01*
X115443000Y-89882250D01*
X115443000Y-88773000D01*
X115697000Y-88773000D01*
X115697000Y-89882250D01*
X115855750Y-90041000D01*
X116456310Y-90041000D01*
X116689699Y-89944327D01*
X116868327Y-89765698D01*
X116965000Y-89532309D01*
X116965000Y-88931750D01*
X116806250Y-88773000D01*
X115697000Y-88773000D01*
X115443000Y-88773000D01*
X115423000Y-88773000D01*
X115423000Y-88519000D01*
X115443000Y-88519000D01*
X115443000Y-87409750D01*
X115697000Y-87409750D01*
X115697000Y-88519000D01*
X116806250Y-88519000D01*
X116965000Y-88360250D01*
X116965000Y-88046954D01*
X117285000Y-88046954D01*
X117285000Y-89493046D01*
X117838396Y-90829062D01*
X118860938Y-91851604D01*
X120196954Y-92405000D01*
X121643046Y-92405000D01*
X122979062Y-91851604D01*
X124001604Y-90829062D01*
X124555000Y-89493046D01*
X124555000Y-88046954D01*
X124001604Y-86710938D01*
X122979062Y-85688396D01*
X121643046Y-85135000D01*
X120196954Y-85135000D01*
X118860938Y-85688396D01*
X117838396Y-86710938D01*
X117285000Y-88046954D01*
X116965000Y-88046954D01*
X116965000Y-87759691D01*
X116868327Y-87526302D01*
X116689699Y-87347673D01*
X116456310Y-87251000D01*
X115855750Y-87251000D01*
X115697000Y-87409750D01*
X115443000Y-87409750D01*
X115284250Y-87251000D01*
X114683690Y-87251000D01*
X114450301Y-87347673D01*
X114271673Y-87526302D01*
X114175000Y-87759691D01*
X114175000Y-87818172D01*
X113820204Y-87463376D01*
X113307483Y-87251000D01*
X112752517Y-87251000D01*
X112239796Y-87463376D01*
X111847376Y-87855796D01*
X111760000Y-88066740D01*
X111672624Y-87855796D01*
X111280204Y-87463376D01*
X110767483Y-87251000D01*
X110212517Y-87251000D01*
X109699796Y-87463376D01*
X109307376Y-87855796D01*
X109095000Y-88368517D01*
X105939751Y-88368517D01*
X106012926Y-88338207D01*
X106332207Y-88018926D01*
X106505000Y-87601766D01*
X106505000Y-87150234D01*
X106332207Y-86733074D01*
X106012926Y-86413793D01*
X105595766Y-86241000D01*
X105144234Y-86241000D01*
X104727074Y-86413793D01*
X104407793Y-86733074D01*
X104235000Y-87150234D01*
X101505000Y-87150234D01*
X101332207Y-86733074D01*
X101012926Y-86413793D01*
X100595766Y-86241000D01*
X100144234Y-86241000D01*
X99727074Y-86413793D01*
X99407793Y-86733074D01*
X99235000Y-87150234D01*
X96010000Y-87150234D01*
X96010000Y-78486000D01*
X101152887Y-78486000D01*
X101264260Y-79045909D01*
X101581423Y-79520577D01*
X102056091Y-79837740D01*
X102474667Y-79921000D01*
X102757333Y-79921000D01*
X103175909Y-79837740D01*
X103650577Y-79520577D01*
X103967740Y-79045909D01*
X104079113Y-78486000D01*
X103967740Y-77926091D01*
X103807317Y-77686000D01*
X108788560Y-77686000D01*
X108788560Y-79286000D01*
X108837843Y-79533765D01*
X108978191Y-79743809D01*
X109188235Y-79884157D01*
X109436000Y-79933440D01*
X111036000Y-79933440D01*
X111283765Y-79884157D01*
X111493809Y-79743809D01*
X111634157Y-79533765D01*
X111683440Y-79286000D01*
X111683440Y-77686000D01*
X111634157Y-77438235D01*
X111493809Y-77228191D01*
X111283765Y-77087843D01*
X111036000Y-77038560D01*
X109436000Y-77038560D01*
X109188235Y-77087843D01*
X108978191Y-77228191D01*
X108837843Y-77438235D01*
X108788560Y-77686000D01*
X103807317Y-77686000D01*
X103650577Y-77451423D01*
X103175909Y-77134260D01*
X102757333Y-77051000D01*
X102474667Y-77051000D01*
X102056091Y-77134260D01*
X101581423Y-77451423D01*
X101264260Y-77926091D01*
X101152887Y-78486000D01*
X96010000Y-78486000D01*
X96010000Y-73922119D01*
X107893000Y-73922119D01*
X107893000Y-74477881D01*
X108105680Y-74991337D01*
X108498663Y-75384320D01*
X109012119Y-75597000D01*
X109567881Y-75597000D01*
X110081337Y-75384320D01*
X110474320Y-74991337D01*
X110687000Y-74477881D01*
X110687000Y-73922119D01*
X114393000Y-73922119D01*
X114393000Y-74477881D01*
X114605680Y-74991337D01*
X114998663Y-75384320D01*
X115512119Y-75597000D01*
X116067881Y-75597000D01*
X116581337Y-75384320D01*
X116974320Y-74991337D01*
X117187000Y-74477881D01*
X117187000Y-73922119D01*
X116974320Y-73408663D01*
X116581337Y-73015680D01*
X116067881Y-72803000D01*
X115512119Y-72803000D01*
X114998663Y-73015680D01*
X114605680Y-73408663D01*
X114393000Y-73922119D01*
X110687000Y-73922119D01*
X110474320Y-73408663D01*
X110081337Y-73015680D01*
X109567881Y-72803000D01*
X109012119Y-72803000D01*
X108498663Y-73015680D01*
X108105680Y-73408663D01*
X107893000Y-73922119D01*
X96010000Y-73922119D01*
X96010000Y-71374000D01*
X96275908Y-71374000D01*
X96391161Y-71953418D01*
X96719375Y-72444625D01*
X97210582Y-72772839D01*
X97643744Y-72859000D01*
X97936256Y-72859000D01*
X98369418Y-72772839D01*
X98860625Y-72444625D01*
X99073843Y-72125522D01*
X99134817Y-72255358D01*
X99563076Y-72645645D01*
X99973110Y-72815476D01*
X100203000Y-72694155D01*
X100203000Y-71501000D01*
X100183000Y-71501000D01*
X100183000Y-71247000D01*
X100203000Y-71247000D01*
X100203000Y-70053845D01*
X100457000Y-70053845D01*
X100457000Y-71247000D01*
X100477000Y-71247000D01*
X100477000Y-71501000D01*
X100457000Y-71501000D01*
X100457000Y-72694155D01*
X100686890Y-72815476D01*
X101096924Y-72645645D01*
X101401261Y-72368292D01*
X101421843Y-72471765D01*
X101562191Y-72681809D01*
X101772235Y-72822157D01*
X102020000Y-72871440D01*
X103720000Y-72871440D01*
X103967765Y-72822157D01*
X104177809Y-72681809D01*
X104318157Y-72471765D01*
X104367440Y-72224000D01*
X104367440Y-70680213D01*
X108489392Y-70680213D01*
X108558857Y-70922397D01*
X109082302Y-71109144D01*
X109637368Y-71081362D01*
X110021143Y-70922397D01*
X110090608Y-70680213D01*
X114989392Y-70680213D01*
X115058857Y-70922397D01*
X115582302Y-71109144D01*
X116137368Y-71081362D01*
X116521143Y-70922397D01*
X116590608Y-70680213D01*
X115790000Y-69879605D01*
X114989392Y-70680213D01*
X110090608Y-70680213D01*
X109290000Y-69879605D01*
X108489392Y-70680213D01*
X104367440Y-70680213D01*
X104367440Y-70524000D01*
X104318157Y-70276235D01*
X104177809Y-70066191D01*
X103967765Y-69925843D01*
X103720000Y-69876560D01*
X102020000Y-69876560D01*
X101772235Y-69925843D01*
X101562191Y-70066191D01*
X101421843Y-70276235D01*
X101401261Y-70379708D01*
X101096924Y-70102355D01*
X100686890Y-69932524D01*
X100457000Y-70053845D01*
X100203000Y-70053845D01*
X99973110Y-69932524D01*
X99563076Y-70102355D01*
X99134817Y-70492642D01*
X99073843Y-70622478D01*
X98860625Y-70303375D01*
X98369418Y-69975161D01*
X97936256Y-69889000D01*
X97643744Y-69889000D01*
X97210582Y-69975161D01*
X96719375Y-70303375D01*
X96391161Y-70794582D01*
X96275908Y-71374000D01*
X96010000Y-71374000D01*
X96010000Y-69492302D01*
X107880856Y-69492302D01*
X107908638Y-70047368D01*
X108067603Y-70431143D01*
X108309787Y-70500608D01*
X109110395Y-69700000D01*
X109469605Y-69700000D01*
X110270213Y-70500608D01*
X110512397Y-70431143D01*
X110699144Y-69907698D01*
X110678353Y-69492302D01*
X114380856Y-69492302D01*
X114408638Y-70047368D01*
X114567603Y-70431143D01*
X114809787Y-70500608D01*
X115610395Y-69700000D01*
X115969605Y-69700000D01*
X116770213Y-70500608D01*
X117012397Y-70431143D01*
X117199144Y-69907698D01*
X117171362Y-69352632D01*
X117012397Y-68968857D01*
X116770213Y-68899392D01*
X115969605Y-69700000D01*
X115610395Y-69700000D01*
X114809787Y-68899392D01*
X114567603Y-68968857D01*
X114380856Y-69492302D01*
X110678353Y-69492302D01*
X110671362Y-69352632D01*
X110512397Y-68968857D01*
X110270213Y-68899392D01*
X109469605Y-69700000D01*
X109110395Y-69700000D01*
X108309787Y-68899392D01*
X108067603Y-68968857D01*
X107880856Y-69492302D01*
X96010000Y-69492302D01*
X96010000Y-68719787D01*
X108489392Y-68719787D01*
X109290000Y-69520395D01*
X110090608Y-68719787D01*
X114989392Y-68719787D01*
X115790000Y-69520395D01*
X116590608Y-68719787D01*
X116521143Y-68477603D01*
X115997698Y-68290856D01*
X115442632Y-68318638D01*
X115058857Y-68477603D01*
X114989392Y-68719787D01*
X110090608Y-68719787D01*
X110021143Y-68477603D01*
X109497698Y-68290856D01*
X108942632Y-68318638D01*
X108558857Y-68477603D01*
X108489392Y-68719787D01*
X96010000Y-68719787D01*
X96010000Y-65036000D01*
X96392560Y-65036000D01*
X96392560Y-66536000D01*
X96441843Y-66783765D01*
X96582191Y-66993809D01*
X96792235Y-67134157D01*
X97040000Y-67183440D01*
X98540000Y-67183440D01*
X98787765Y-67134157D01*
X98997809Y-66993809D01*
X99138157Y-66783765D01*
X99176469Y-66591156D01*
X99545460Y-66960147D01*
X100054506Y-67171000D01*
X100605494Y-67171000D01*
X101114540Y-66960147D01*
X101317170Y-66757517D01*
X102078088Y-66757517D01*
X102146077Y-66998460D01*
X102665171Y-67183201D01*
X103215448Y-67155230D01*
X103593923Y-66998460D01*
X103661912Y-66757517D01*
X102870000Y-65965605D01*
X102078088Y-66757517D01*
X101317170Y-66757517D01*
X101504147Y-66570540D01*
X101593397Y-66355070D01*
X101657540Y-66509923D01*
X101898483Y-66577912D01*
X102690395Y-65786000D01*
X103049605Y-65786000D01*
X103841517Y-66577912D01*
X104082460Y-66509923D01*
X104141745Y-66343342D01*
X104235853Y-66570540D01*
X104625460Y-66960147D01*
X105134506Y-67171000D01*
X105685494Y-67171000D01*
X106194540Y-66960147D01*
X106584147Y-66570540D01*
X106680000Y-66339130D01*
X106775853Y-66570540D01*
X107165460Y-66960147D01*
X107674506Y-67171000D01*
X108225494Y-67171000D01*
X108734540Y-66960147D01*
X108937170Y-66757517D01*
X109698088Y-66757517D01*
X109766077Y-66998460D01*
X110285171Y-67183201D01*
X110835448Y-67155230D01*
X111213923Y-66998460D01*
X111281912Y-66757517D01*
X110490000Y-65965605D01*
X109698088Y-66757517D01*
X108937170Y-66757517D01*
X109124147Y-66570540D01*
X109213397Y-66355070D01*
X109277540Y-66509923D01*
X109518483Y-66577912D01*
X110310395Y-65786000D01*
X110669605Y-65786000D01*
X111461517Y-66577912D01*
X111702460Y-66509923D01*
X111761745Y-66343342D01*
X111855853Y-66570540D01*
X112245460Y-66960147D01*
X112754506Y-67171000D01*
X113305494Y-67171000D01*
X113814540Y-66960147D01*
X114204147Y-66570540D01*
X114300000Y-66339130D01*
X114395853Y-66570540D01*
X114785460Y-66960147D01*
X115294506Y-67171000D01*
X115845494Y-67171000D01*
X116354540Y-66960147D01*
X116744147Y-66570540D01*
X116955000Y-66061494D01*
X116955000Y-65510506D01*
X116744147Y-65001460D01*
X116354540Y-64611853D01*
X115845494Y-64401000D01*
X115595867Y-64401000D01*
X123536868Y-56460000D01*
X127865001Y-56460000D01*
X127865000Y-58021289D01*
X127822569Y-58063720D01*
X127665000Y-58444126D01*
X127665000Y-58855874D01*
X127668780Y-58865000D01*
X124597384Y-58865000D01*
X124525000Y-58850602D01*
X124452616Y-58865000D01*
X124452612Y-58865000D01*
X124238217Y-58907646D01*
X123995095Y-59070095D01*
X123954090Y-59131463D01*
X121931465Y-61154089D01*
X121870095Y-61195095D01*
X121707646Y-61438218D01*
X121665000Y-61652613D01*
X121665000Y-61652616D01*
X121650602Y-61725000D01*
X121665000Y-61797385D01*
X121665001Y-63227609D01*
X121665000Y-63227613D01*
X121665000Y-63352613D01*
X121665001Y-81802608D01*
X121665000Y-81802613D01*
X121665000Y-82045553D01*
X120720554Y-82990000D01*
X120519126Y-82990000D01*
X120138720Y-83147569D01*
X119847569Y-83438720D01*
X119690000Y-83819126D01*
X119690000Y-84230874D01*
X119847569Y-84611280D01*
X120138720Y-84902431D01*
X120519126Y-85060000D01*
X120930874Y-85060000D01*
X121311280Y-84902431D01*
X121602431Y-84611280D01*
X121760000Y-84230874D01*
X121760000Y-84029446D01*
X122868537Y-82920910D01*
X122929905Y-82879905D01*
X123092354Y-82636783D01*
X123135000Y-82422388D01*
X123149399Y-82350000D01*
X123135000Y-82277612D01*
X123135000Y-77419126D01*
X126865000Y-77419126D01*
X126865000Y-77830874D01*
X127022569Y-78211280D01*
X127313720Y-78502431D01*
X127694126Y-78660000D01*
X127754133Y-78660000D01*
X129685000Y-80590868D01*
X129685001Y-87522560D01*
X129670000Y-87522560D01*
X129422235Y-87571843D01*
X129212191Y-87712191D01*
X129071843Y-87922235D01*
X129022560Y-88170000D01*
X129022560Y-89870000D01*
X129071843Y-90117765D01*
X129212191Y-90327809D01*
X129422235Y-90468157D01*
X129670000Y-90517440D01*
X131370000Y-90517440D01*
X131617765Y-90468157D01*
X131827809Y-90327809D01*
X131968157Y-90117765D01*
X131988739Y-90014292D01*
X132293076Y-90291645D01*
X132703110Y-90461476D01*
X132933000Y-90340155D01*
X132933000Y-89147000D01*
X132913000Y-89147000D01*
X132913000Y-88893000D01*
X132933000Y-88893000D01*
X132933000Y-87699845D01*
X133187000Y-87699845D01*
X133187000Y-88893000D01*
X133207000Y-88893000D01*
X133207000Y-89147000D01*
X133187000Y-89147000D01*
X133187000Y-90340155D01*
X133416890Y-90461476D01*
X133826924Y-90291645D01*
X134255183Y-89901358D01*
X134316157Y-89771522D01*
X134529375Y-90090625D01*
X135020582Y-90418839D01*
X135453744Y-90505000D01*
X135746256Y-90505000D01*
X136179418Y-90418839D01*
X136670625Y-90090625D01*
X136870000Y-89792239D01*
X137069375Y-90090625D01*
X137560582Y-90418839D01*
X137993744Y-90505000D01*
X138286256Y-90505000D01*
X138719418Y-90418839D01*
X139210625Y-90090625D01*
X139410000Y-89792239D01*
X139609375Y-90090625D01*
X140100582Y-90418839D01*
X140533744Y-90505000D01*
X140826256Y-90505000D01*
X141259418Y-90418839D01*
X141750625Y-90090625D01*
X141950000Y-89792239D01*
X142149375Y-90090625D01*
X142640582Y-90418839D01*
X143073744Y-90505000D01*
X143366256Y-90505000D01*
X143799418Y-90418839D01*
X144290625Y-90090625D01*
X144490000Y-89792239D01*
X144689375Y-90090625D01*
X145180582Y-90418839D01*
X145613744Y-90505000D01*
X145906256Y-90505000D01*
X146339418Y-90418839D01*
X146830625Y-90090625D01*
X147030000Y-89792239D01*
X147229375Y-90090625D01*
X147720582Y-90418839D01*
X148153744Y-90505000D01*
X148446256Y-90505000D01*
X148879418Y-90418839D01*
X149370625Y-90090625D01*
X149698839Y-89599418D01*
X149814092Y-89020000D01*
X149698839Y-88440582D01*
X149370625Y-87949375D01*
X149306909Y-87906802D01*
X149477431Y-87736280D01*
X149635000Y-87355874D01*
X149635000Y-87190867D01*
X150115000Y-87670868D01*
X150115000Y-87730874D01*
X150272569Y-88111280D01*
X150563720Y-88402431D01*
X150944126Y-88560000D01*
X151355874Y-88560000D01*
X151736280Y-88402431D01*
X152027431Y-88111280D01*
X152054075Y-88046954D01*
X154285000Y-88046954D01*
X154285000Y-89493046D01*
X154838396Y-90829062D01*
X155860938Y-91851604D01*
X157196954Y-92405000D01*
X158643046Y-92405000D01*
X159979062Y-91851604D01*
X161001604Y-90829062D01*
X161253413Y-90221140D01*
X169859000Y-90221140D01*
X169859000Y-91134861D01*
X169921954Y-91451346D01*
X170161760Y-91810241D01*
X170520655Y-92050047D01*
X170944000Y-92134256D01*
X171367346Y-92050047D01*
X171726241Y-91810241D01*
X171966047Y-91451346D01*
X172029000Y-91134860D01*
X172029000Y-90221140D01*
X176459000Y-90221140D01*
X176459000Y-91134861D01*
X176521954Y-91451346D01*
X176761760Y-91810241D01*
X177120655Y-92050047D01*
X177544000Y-92134256D01*
X177963107Y-92050890D01*
X179406524Y-92050890D01*
X179576355Y-92460924D01*
X179966642Y-92889183D01*
X180491108Y-93135486D01*
X180721000Y-93014819D01*
X180721000Y-91821000D01*
X180975000Y-91821000D01*
X180975000Y-93014819D01*
X181204892Y-93135486D01*
X181729358Y-92889183D01*
X182119645Y-92460924D01*
X182289476Y-92050890D01*
X182168155Y-91821000D01*
X180975000Y-91821000D01*
X180721000Y-91821000D01*
X179527845Y-91821000D01*
X179406524Y-92050890D01*
X177963107Y-92050890D01*
X177967346Y-92050047D01*
X178326241Y-91810241D01*
X178566047Y-91451346D01*
X178629000Y-91134860D01*
X178629000Y-90221139D01*
X178566047Y-89904654D01*
X178326241Y-89545759D01*
X177967345Y-89305953D01*
X177544000Y-89221744D01*
X177120654Y-89305953D01*
X176761759Y-89545759D01*
X176521953Y-89904655D01*
X176459000Y-90221140D01*
X172029000Y-90221140D01*
X172029000Y-90221139D01*
X171966047Y-89904654D01*
X171726241Y-89545759D01*
X171367345Y-89305953D01*
X170944000Y-89221744D01*
X170520654Y-89305953D01*
X170161759Y-89545759D01*
X169921953Y-89904655D01*
X169859000Y-90221140D01*
X161253413Y-90221140D01*
X161555000Y-89493046D01*
X161555000Y-88304000D01*
X179350560Y-88304000D01*
X179350560Y-90004000D01*
X179399843Y-90251765D01*
X179540191Y-90461809D01*
X179750235Y-90602157D01*
X179853708Y-90622739D01*
X179576355Y-90927076D01*
X179406524Y-91337110D01*
X179527845Y-91567000D01*
X180721000Y-91567000D01*
X180721000Y-91547000D01*
X180975000Y-91547000D01*
X180975000Y-91567000D01*
X182168155Y-91567000D01*
X182289476Y-91337110D01*
X182119645Y-90927076D01*
X181842292Y-90622739D01*
X181945765Y-90602157D01*
X182155809Y-90461809D01*
X182296157Y-90251765D01*
X182345440Y-90004000D01*
X182345440Y-88304000D01*
X182296157Y-88056235D01*
X182155809Y-87846191D01*
X181945765Y-87705843D01*
X181698000Y-87656560D01*
X179998000Y-87656560D01*
X179750235Y-87705843D01*
X179540191Y-87846191D01*
X179399843Y-88056235D01*
X179350560Y-88304000D01*
X161555000Y-88304000D01*
X161555000Y-88046954D01*
X161001604Y-86710938D01*
X159979062Y-85688396D01*
X158643046Y-85135000D01*
X157196954Y-85135000D01*
X155860938Y-85688396D01*
X154838396Y-86710938D01*
X154285000Y-88046954D01*
X152054075Y-88046954D01*
X152185000Y-87730874D01*
X152185000Y-87319126D01*
X152027431Y-86938720D01*
X151736280Y-86647569D01*
X151355874Y-86490000D01*
X151295868Y-86490000D01*
X150573587Y-85767720D01*
X150527001Y-85697999D01*
X150250801Y-85513448D01*
X150007237Y-85465000D01*
X150007233Y-85465000D01*
X149925000Y-85448643D01*
X149842767Y-85465000D01*
X147003727Y-85465000D01*
X146961296Y-85422569D01*
X146580890Y-85265000D01*
X146169142Y-85265000D01*
X145788736Y-85422569D01*
X145497585Y-85713720D01*
X145340016Y-86094126D01*
X145340016Y-86415000D01*
X140385000Y-86415000D01*
X140385000Y-82907213D01*
X168779000Y-82907213D01*
X168779000Y-83716787D01*
X169088810Y-84464735D01*
X169661265Y-85037190D01*
X170409213Y-85347000D01*
X171218787Y-85347000D01*
X171966735Y-85037190D01*
X172539190Y-84464735D01*
X172849000Y-83716787D01*
X172849000Y-82907213D01*
X172539190Y-82159265D01*
X172291925Y-81912000D01*
X173466560Y-81912000D01*
X173466560Y-84712000D01*
X173515843Y-84959765D01*
X173656191Y-85169809D01*
X173866235Y-85310157D01*
X174114000Y-85359440D01*
X176914000Y-85359440D01*
X177161765Y-85310157D01*
X177371809Y-85169809D01*
X177512157Y-84959765D01*
X177561440Y-84712000D01*
X177561440Y-82907213D01*
X178179000Y-82907213D01*
X178179000Y-83716787D01*
X178488810Y-84464735D01*
X179061265Y-85037190D01*
X179809213Y-85347000D01*
X180618787Y-85347000D01*
X181366735Y-85037190D01*
X181939190Y-84464735D01*
X182249000Y-83716787D01*
X182249000Y-82907213D01*
X181939190Y-82159265D01*
X181366735Y-81586810D01*
X180618787Y-81277000D01*
X179809213Y-81277000D01*
X179061265Y-81586810D01*
X178488810Y-82159265D01*
X178179000Y-82907213D01*
X177561440Y-82907213D01*
X177561440Y-81912000D01*
X177512157Y-81664235D01*
X177371809Y-81454191D01*
X177161765Y-81313843D01*
X176914000Y-81264560D01*
X174114000Y-81264560D01*
X173866235Y-81313843D01*
X173656191Y-81454191D01*
X173515843Y-81664235D01*
X173466560Y-81912000D01*
X172291925Y-81912000D01*
X171966735Y-81586810D01*
X171218787Y-81277000D01*
X170409213Y-81277000D01*
X169661265Y-81586810D01*
X169088810Y-82159265D01*
X168779000Y-82907213D01*
X140385000Y-82907213D01*
X140385000Y-76254446D01*
X141348537Y-75290910D01*
X141409905Y-75249905D01*
X141572354Y-75006783D01*
X141615000Y-74792388D01*
X141629399Y-74720000D01*
X141615000Y-74647612D01*
X141615000Y-73792383D01*
X141629398Y-73719999D01*
X141615000Y-73647613D01*
X141615000Y-73647612D01*
X141572354Y-73433217D01*
X141409905Y-73190095D01*
X141348538Y-73149091D01*
X140893573Y-72694126D01*
X147865000Y-72694126D01*
X147865000Y-73105874D01*
X148022569Y-73486280D01*
X148313720Y-73777431D01*
X148694126Y-73935000D01*
X149105874Y-73935000D01*
X149486280Y-73777431D01*
X149628711Y-73635000D01*
X151395290Y-73635000D01*
X151365000Y-73708126D01*
X151365000Y-74119874D01*
X151476567Y-74389221D01*
X151442191Y-74412191D01*
X151301843Y-74622235D01*
X151252560Y-74870000D01*
X151252560Y-76370000D01*
X151301843Y-76617765D01*
X151442191Y-76827809D01*
X151652235Y-76968157D01*
X151661500Y-76970000D01*
X151652235Y-76971843D01*
X151442191Y-77112191D01*
X151301843Y-77322235D01*
X151252560Y-77570000D01*
X151252560Y-79070000D01*
X151301843Y-79317765D01*
X151442191Y-79527809D01*
X151553166Y-79601961D01*
X151514990Y-79694126D01*
X151514990Y-80105874D01*
X151672559Y-80486280D01*
X151963710Y-80777431D01*
X152344116Y-80935000D01*
X152755864Y-80935000D01*
X153136270Y-80777431D01*
X153427421Y-80486280D01*
X153584990Y-80105874D01*
X153584990Y-79694126D01*
X153546818Y-79601971D01*
X153657809Y-79527809D01*
X153798157Y-79317765D01*
X153847440Y-79070000D01*
X153847440Y-77570000D01*
X153798157Y-77322235D01*
X153749891Y-77250000D01*
X163652560Y-77250000D01*
X163652560Y-78150000D01*
X163701843Y-78397765D01*
X163842191Y-78607809D01*
X164052235Y-78748157D01*
X164300000Y-78797440D01*
X165800000Y-78797440D01*
X166047765Y-78748157D01*
X166257809Y-78607809D01*
X166398157Y-78397765D01*
X166447440Y-78150000D01*
X166447440Y-77250000D01*
X166398157Y-77002235D01*
X166257809Y-76792191D01*
X166074939Y-76670000D01*
X170002560Y-76670000D01*
X170002560Y-78270000D01*
X170051843Y-78517765D01*
X170192191Y-78727809D01*
X170402235Y-78868157D01*
X170650000Y-78917440D01*
X172250000Y-78917440D01*
X172497765Y-78868157D01*
X172707809Y-78727809D01*
X172848157Y-78517765D01*
X172897440Y-78270000D01*
X172897440Y-76670000D01*
X175590560Y-76670000D01*
X175590560Y-78270000D01*
X175639843Y-78517765D01*
X175780191Y-78727809D01*
X175990235Y-78868157D01*
X176238000Y-78917440D01*
X177838000Y-78917440D01*
X178085765Y-78868157D01*
X178295809Y-78727809D01*
X178436157Y-78517765D01*
X178485440Y-78270000D01*
X178485440Y-76670000D01*
X178436157Y-76422235D01*
X178296005Y-76212484D01*
X178484965Y-75686777D01*
X178457778Y-75116546D01*
X178291864Y-74715995D01*
X178045745Y-74641861D01*
X177217605Y-75470000D01*
X177231748Y-75484142D01*
X177052143Y-75663748D01*
X177038000Y-75649605D01*
X177023858Y-75663748D01*
X176844252Y-75484142D01*
X176858395Y-75470000D01*
X176030255Y-74641861D01*
X175784136Y-74715995D01*
X175591035Y-75253223D01*
X175618222Y-75823454D01*
X175779605Y-76213067D01*
X175639843Y-76422235D01*
X175590560Y-76670000D01*
X172897440Y-76670000D01*
X172848157Y-76422235D01*
X172708005Y-76212484D01*
X172896965Y-75686777D01*
X172869778Y-75116546D01*
X172703864Y-74715995D01*
X172457745Y-74641861D01*
X171629605Y-75470000D01*
X171643748Y-75484142D01*
X171464143Y-75663748D01*
X171450000Y-75649605D01*
X171435858Y-75663748D01*
X171256252Y-75484142D01*
X171270395Y-75470000D01*
X170442255Y-74641861D01*
X170196136Y-74715995D01*
X170003035Y-75253223D01*
X170030222Y-75823454D01*
X170191605Y-76213067D01*
X170051843Y-76422235D01*
X170002560Y-76670000D01*
X166074939Y-76670000D01*
X166047765Y-76651843D01*
X165800000Y-76602560D01*
X164300000Y-76602560D01*
X164052235Y-76651843D01*
X163842191Y-76792191D01*
X163701843Y-77002235D01*
X163652560Y-77250000D01*
X153749891Y-77250000D01*
X153657809Y-77112191D01*
X153447765Y-76971843D01*
X153438500Y-76970000D01*
X153447765Y-76968157D01*
X153657809Y-76827809D01*
X153798157Y-76617765D01*
X153847440Y-76370000D01*
X153847440Y-75454001D01*
X163705592Y-75454001D01*
X163892987Y-75837408D01*
X164217456Y-76113808D01*
X164623000Y-76245000D01*
X164923000Y-76245000D01*
X164923000Y-75287000D01*
X165177000Y-75287000D01*
X165177000Y-76245000D01*
X165477000Y-76245000D01*
X165882544Y-76113808D01*
X166207013Y-75837408D01*
X166394408Y-75454001D01*
X166267502Y-75287000D01*
X165177000Y-75287000D01*
X164923000Y-75287000D01*
X163832498Y-75287000D01*
X163705592Y-75454001D01*
X153847440Y-75454001D01*
X153847440Y-74870000D01*
X153846645Y-74865999D01*
X163705592Y-74865999D01*
X163832498Y-75033000D01*
X164923000Y-75033000D01*
X164923000Y-74075000D01*
X165177000Y-74075000D01*
X165177000Y-75033000D01*
X166267502Y-75033000D01*
X166394408Y-74865999D01*
X166207013Y-74482592D01*
X165882544Y-74206192D01*
X165477000Y-74075000D01*
X165177000Y-74075000D01*
X164923000Y-74075000D01*
X164623000Y-74075000D01*
X164217456Y-74206192D01*
X163892987Y-74482592D01*
X163705592Y-74865999D01*
X153846645Y-74865999D01*
X153798157Y-74622235D01*
X153657809Y-74412191D01*
X153447765Y-74271843D01*
X153377816Y-74257929D01*
X153435000Y-74119874D01*
X153435000Y-73708126D01*
X153277431Y-73327720D01*
X152986280Y-73036569D01*
X152644463Y-72894984D01*
X152804447Y-72735000D01*
X167895554Y-72735000D01*
X169054090Y-73893537D01*
X169095095Y-73954905D01*
X169338217Y-74117354D01*
X169552612Y-74160000D01*
X169552615Y-74160000D01*
X169624999Y-74174398D01*
X169697383Y-74160000D01*
X170652616Y-74160000D01*
X170725000Y-74174398D01*
X170797384Y-74160000D01*
X170797388Y-74160000D01*
X170863052Y-74146939D01*
X170695995Y-74216136D01*
X170621861Y-74462255D01*
X171450000Y-75290395D01*
X172278139Y-74462255D01*
X176209861Y-74462255D01*
X177038000Y-75290395D01*
X177866139Y-74462255D01*
X177792005Y-74216136D01*
X177254777Y-74023035D01*
X176684546Y-74050222D01*
X176283995Y-74216136D01*
X176209861Y-74462255D01*
X172278139Y-74462255D01*
X172204005Y-74216136D01*
X171666777Y-74023035D01*
X171113460Y-74049416D01*
X171254905Y-73954905D01*
X171295911Y-73893535D01*
X171734539Y-73454908D01*
X171795906Y-73413904D01*
X171958355Y-73170782D01*
X172001001Y-72956387D01*
X172001001Y-72956383D01*
X172015399Y-72883999D01*
X172001001Y-72811615D01*
X172001001Y-72076119D01*
X175335000Y-72076119D01*
X175335000Y-72631881D01*
X175547680Y-73145337D01*
X175940663Y-73538320D01*
X176454119Y-73751000D01*
X177009881Y-73751000D01*
X177523337Y-73538320D01*
X177916320Y-73145337D01*
X178129000Y-72631881D01*
X178129000Y-72076119D01*
X177916320Y-71562663D01*
X177523337Y-71169680D01*
X177009881Y-70957000D01*
X176454119Y-70957000D01*
X175940663Y-71169680D01*
X175547680Y-71562663D01*
X175335000Y-72076119D01*
X172001001Y-72076119D01*
X172001001Y-67576119D01*
X175335000Y-67576119D01*
X175335000Y-68131881D01*
X175547680Y-68645337D01*
X175940663Y-69038320D01*
X176454119Y-69251000D01*
X177009881Y-69251000D01*
X177523337Y-69038320D01*
X177916320Y-68645337D01*
X178129000Y-68131881D01*
X178129000Y-67576119D01*
X177916320Y-67062663D01*
X177523337Y-66669680D01*
X177453026Y-66640556D01*
X177545337Y-66602320D01*
X177938320Y-66209337D01*
X178151000Y-65695881D01*
X178151000Y-65140119D01*
X177938320Y-64626663D01*
X177545337Y-64233680D01*
X177031881Y-64021000D01*
X176476119Y-64021000D01*
X175962663Y-64233680D01*
X175569680Y-64626663D01*
X175357000Y-65140119D01*
X175357000Y-65695881D01*
X175569680Y-66209337D01*
X175962663Y-66602320D01*
X176032974Y-66631444D01*
X175940663Y-66669680D01*
X175547680Y-67062663D01*
X175335000Y-67576119D01*
X172001001Y-67576119D01*
X172001001Y-65004627D01*
X172015400Y-64932239D01*
X171958355Y-64645457D01*
X171958355Y-64645456D01*
X171795906Y-64402334D01*
X171734538Y-64361329D01*
X169935000Y-62561792D01*
X169935000Y-62297968D01*
X169976119Y-62315000D01*
X170531881Y-62315000D01*
X171045337Y-62102320D01*
X171438320Y-61709337D01*
X171651000Y-61195881D01*
X171651000Y-60640119D01*
X171438320Y-60126663D01*
X171045337Y-59733680D01*
X170966594Y-59701063D01*
X171338320Y-59329337D01*
X171551000Y-58815881D01*
X171551000Y-58260119D01*
X175257000Y-58260119D01*
X175257000Y-58815881D01*
X175469680Y-59329337D01*
X175862663Y-59722320D01*
X175941406Y-59754937D01*
X175569680Y-60126663D01*
X175357000Y-60640119D01*
X175357000Y-61195881D01*
X175569680Y-61709337D01*
X175962663Y-62102320D01*
X176476119Y-62315000D01*
X177031881Y-62315000D01*
X177545337Y-62102320D01*
X177938320Y-61709337D01*
X178151000Y-61195881D01*
X178151000Y-60640119D01*
X177938320Y-60126663D01*
X177545337Y-59733680D01*
X177466594Y-59701063D01*
X177838320Y-59329337D01*
X178051000Y-58815881D01*
X178051000Y-58260119D01*
X177838320Y-57746663D01*
X177445337Y-57353680D01*
X176931881Y-57141000D01*
X176376119Y-57141000D01*
X175862663Y-57353680D01*
X175469680Y-57746663D01*
X175257000Y-58260119D01*
X171551000Y-58260119D01*
X171338320Y-57746663D01*
X170945337Y-57353680D01*
X170431881Y-57141000D01*
X169876119Y-57141000D01*
X169362663Y-57353680D01*
X168969680Y-57746663D01*
X168757000Y-58260119D01*
X168757000Y-58815881D01*
X168780336Y-58872218D01*
X168731463Y-58921091D01*
X168670096Y-58962095D01*
X168629092Y-59023462D01*
X168629091Y-59023463D01*
X168507646Y-59205218D01*
X168450602Y-59492000D01*
X168465001Y-59564389D01*
X168465000Y-62793854D01*
X168450602Y-62866238D01*
X168465000Y-62938622D01*
X168465000Y-62938625D01*
X168507646Y-63153020D01*
X168670095Y-63396143D01*
X168731465Y-63437149D01*
X169508860Y-64214545D01*
X169462663Y-64233680D01*
X169069680Y-64626663D01*
X168857000Y-65140119D01*
X168857000Y-65695881D01*
X168880336Y-65752218D01*
X168606463Y-66026091D01*
X168545096Y-66067095D01*
X168504092Y-66128462D01*
X168504091Y-66128463D01*
X168382646Y-66310218D01*
X168325602Y-66597000D01*
X168340001Y-66669389D01*
X168340000Y-70515000D01*
X152779446Y-70515000D01*
X152770910Y-70506464D01*
X152729904Y-70445094D01*
X152486782Y-70282645D01*
X152272387Y-70239999D01*
X152272383Y-70239999D01*
X152199999Y-70225601D01*
X152127615Y-70239999D01*
X151222385Y-70239999D01*
X151150001Y-70225601D01*
X151077617Y-70239999D01*
X151077613Y-70239999D01*
X150863218Y-70282645D01*
X150620096Y-70445094D01*
X150579091Y-70506462D01*
X150145553Y-70940000D01*
X149944126Y-70940000D01*
X149563720Y-71097569D01*
X149272569Y-71388720D01*
X149115000Y-71769126D01*
X149115000Y-71868780D01*
X149105874Y-71865000D01*
X148694126Y-71865000D01*
X148313720Y-72022569D01*
X148022569Y-72313720D01*
X147865000Y-72694126D01*
X140893573Y-72694126D01*
X140890909Y-72691463D01*
X140849903Y-72630093D01*
X140606781Y-72467644D01*
X140392386Y-72424998D01*
X140392382Y-72424998D01*
X140319998Y-72410600D01*
X140247614Y-72424998D01*
X136162385Y-72424998D01*
X136090001Y-72410600D01*
X136017617Y-72424998D01*
X136017614Y-72424998D01*
X135803219Y-72467644D01*
X135582685Y-72615000D01*
X135394126Y-72615000D01*
X135013720Y-72772569D01*
X134722569Y-73063720D01*
X134565000Y-73444126D01*
X134565000Y-73855874D01*
X134722569Y-74236280D01*
X135013720Y-74527431D01*
X135394126Y-74685000D01*
X135805874Y-74685000D01*
X136186280Y-74527431D01*
X136477431Y-74236280D01*
X136618794Y-73894998D01*
X137890000Y-73894998D01*
X137890000Y-73945553D01*
X137131463Y-74704091D01*
X137070096Y-74745095D01*
X137029092Y-74806462D01*
X137029091Y-74806463D01*
X136907646Y-74988218D01*
X136850602Y-75275000D01*
X136865001Y-75347389D01*
X136865000Y-86720553D01*
X136000068Y-87585486D01*
X135746256Y-87535000D01*
X135453744Y-87535000D01*
X135020582Y-87621161D01*
X134529375Y-87949375D01*
X134316157Y-88268478D01*
X134255183Y-88138642D01*
X133826924Y-87748355D01*
X133416890Y-87578524D01*
X133187000Y-87699845D01*
X132933000Y-87699845D01*
X132703110Y-87578524D01*
X132293076Y-87748355D01*
X131988739Y-88025708D01*
X131968157Y-87922235D01*
X131827809Y-87712191D01*
X131617765Y-87571843D01*
X131370000Y-87522560D01*
X131355000Y-87522560D01*
X131355000Y-80327237D01*
X131371358Y-80245000D01*
X131306552Y-79919200D01*
X131306552Y-79919199D01*
X131122001Y-79642999D01*
X131052283Y-79596415D01*
X128935000Y-77479133D01*
X128935000Y-77419126D01*
X128777431Y-77038720D01*
X128486280Y-76747569D01*
X128105874Y-76590000D01*
X127694126Y-76590000D01*
X127313720Y-76747569D01*
X127022569Y-77038720D01*
X126865000Y-77419126D01*
X123135000Y-77419126D01*
X123135000Y-62029446D01*
X124829447Y-60335000D01*
X131125553Y-60335000D01*
X130131465Y-61329089D01*
X130070095Y-61370095D01*
X129907646Y-61613218D01*
X129865000Y-61827613D01*
X129865000Y-61827616D01*
X129850602Y-61900000D01*
X129865000Y-61972384D01*
X129865001Y-69677611D01*
X129850602Y-69750000D01*
X129907646Y-70036782D01*
X129951461Y-70102355D01*
X130070096Y-70279905D01*
X130131463Y-70320909D01*
X131215000Y-71404447D01*
X131215000Y-71605874D01*
X131372569Y-71986280D01*
X131663720Y-72277431D01*
X132044126Y-72435000D01*
X132455874Y-72435000D01*
X132836280Y-72277431D01*
X133127431Y-71986280D01*
X133285000Y-71605874D01*
X133285000Y-71194126D01*
X133127431Y-70813720D01*
X132836280Y-70522569D01*
X132455874Y-70365000D01*
X132254447Y-70365000D01*
X131335000Y-69445554D01*
X131335000Y-62204446D01*
X132804447Y-60735000D01*
X138845554Y-60735000D01*
X141179092Y-63068538D01*
X141220096Y-63129906D01*
X141463218Y-63292355D01*
X141677613Y-63335001D01*
X141750001Y-63349400D01*
X141822389Y-63335001D01*
X148115000Y-63335001D01*
X148115000Y-63730874D01*
X148272569Y-64111280D01*
X148563720Y-64402431D01*
X148944126Y-64560000D01*
X149355874Y-64560000D01*
X149736280Y-64402431D01*
X149778711Y-64360000D01*
X158679133Y-64360000D01*
X159265001Y-64945869D01*
X159265000Y-67271289D01*
X159222569Y-67313720D01*
X159065000Y-67694126D01*
X159065000Y-68105874D01*
X159222569Y-68486280D01*
X159513720Y-68777431D01*
X159894126Y-68935000D01*
X160305874Y-68935000D01*
X160686280Y-68777431D01*
X160977431Y-68486280D01*
X161135000Y-68105874D01*
X161135000Y-67694126D01*
X160977431Y-67313720D01*
X160935000Y-67271289D01*
X160935000Y-64682237D01*
X160951358Y-64600000D01*
X160886552Y-64274200D01*
X160886552Y-64274199D01*
X160702001Y-63997999D01*
X160632282Y-63951415D01*
X159673587Y-62992720D01*
X159627001Y-62922999D01*
X159350801Y-62738448D01*
X159107237Y-62690000D01*
X159107233Y-62690000D01*
X159025000Y-62673643D01*
X158942767Y-62690000D01*
X153824446Y-62690000D01*
X159834446Y-56680000D01*
X162105908Y-56680000D01*
X162221161Y-57259418D01*
X162549375Y-57750625D01*
X162847761Y-57950000D01*
X162549375Y-58149375D01*
X162221161Y-58640582D01*
X162105908Y-59220000D01*
X162221161Y-59799418D01*
X162549375Y-60290625D01*
X162567619Y-60302816D01*
X162522235Y-60311843D01*
X162312191Y-60452191D01*
X162171843Y-60662235D01*
X162122560Y-60910000D01*
X162122560Y-62610000D01*
X162171843Y-62857765D01*
X162312191Y-63067809D01*
X162522235Y-63208157D01*
X162770000Y-63257440D01*
X164470000Y-63257440D01*
X164717765Y-63208157D01*
X164927809Y-63067809D01*
X165068157Y-62857765D01*
X165117440Y-62610000D01*
X165117440Y-60910000D01*
X165068157Y-60662235D01*
X164927809Y-60452191D01*
X164717765Y-60311843D01*
X164672381Y-60302816D01*
X164690625Y-60290625D01*
X165018839Y-59799418D01*
X165134092Y-59220000D01*
X165018839Y-58640582D01*
X164690625Y-58149375D01*
X164392239Y-57950000D01*
X164690625Y-57750625D01*
X165018839Y-57259418D01*
X165134092Y-56680000D01*
X165018839Y-56100582D01*
X164690625Y-55609375D01*
X164199418Y-55281161D01*
X163766256Y-55195000D01*
X163473744Y-55195000D01*
X163040582Y-55281161D01*
X162549375Y-55609375D01*
X162221161Y-56100582D01*
X162105908Y-56680000D01*
X159834446Y-56680000D01*
X162554447Y-53960000D01*
X168757000Y-53960000D01*
X168757000Y-54315881D01*
X168969680Y-54829337D01*
X169362663Y-55222320D01*
X169876119Y-55435000D01*
X170431881Y-55435000D01*
X170945337Y-55222320D01*
X171338320Y-54829337D01*
X171551000Y-54315881D01*
X171551000Y-53760119D01*
X171338320Y-53246663D01*
X170945337Y-52853680D01*
X170658556Y-52734892D01*
X172741775Y-50651674D01*
X173156582Y-50928839D01*
X173589744Y-51015000D01*
X173882256Y-51015000D01*
X174315418Y-50928839D01*
X174806625Y-50600625D01*
X175006000Y-50302239D01*
X175205375Y-50600625D01*
X175696582Y-50928839D01*
X176129744Y-51015000D01*
X176422256Y-51015000D01*
X176641002Y-50971489D01*
X176641001Y-52641000D01*
X176376119Y-52641000D01*
X175862663Y-52853680D01*
X175469680Y-53246663D01*
X175257000Y-53760119D01*
X175257000Y-54315881D01*
X175469680Y-54829337D01*
X175862663Y-55222320D01*
X176376119Y-55435000D01*
X176931881Y-55435000D01*
X177445337Y-55222320D01*
X177838320Y-54829337D01*
X178051000Y-54315881D01*
X178051000Y-53836042D01*
X178078002Y-53818000D01*
X178262553Y-53541800D01*
X178311001Y-53298236D01*
X178311001Y-53298235D01*
X178327359Y-53215999D01*
X178311001Y-53133762D01*
X178311001Y-49036231D01*
X178327358Y-48953998D01*
X178311001Y-48871765D01*
X178311001Y-48871762D01*
X178262553Y-48628198D01*
X178078002Y-48351998D01*
X178008286Y-48305415D01*
X177500588Y-47797718D01*
X177454002Y-47727998D01*
X177177802Y-47543447D01*
X176934238Y-47494999D01*
X176934234Y-47494999D01*
X176852001Y-47478642D01*
X176769768Y-47494999D01*
X164858238Y-47494999D01*
X164776001Y-47478641D01*
X164693764Y-47494999D01*
X164450200Y-47543447D01*
X164174000Y-47727998D01*
X164127416Y-47797717D01*
X163892572Y-48032560D01*
X162726000Y-48032560D01*
X162478235Y-48081843D01*
X162268191Y-48222191D01*
X162127843Y-48432235D01*
X162078560Y-48680000D01*
X162078560Y-50380000D01*
X162127843Y-50627765D01*
X162268191Y-50837809D01*
X162478235Y-50978157D01*
X162487195Y-50979939D01*
X161555000Y-51912134D01*
X161555000Y-51046954D01*
X161001604Y-49710938D01*
X159979062Y-48688396D01*
X158643046Y-48135000D01*
X157196954Y-48135000D01*
X155860938Y-48688396D01*
X154838396Y-49710938D01*
X154285000Y-51046954D01*
X154285000Y-52493046D01*
X154838396Y-53829062D01*
X155860938Y-54851604D01*
X157196954Y-55405000D01*
X158062135Y-55405000D01*
X153477135Y-59990000D01*
X149828711Y-59990000D01*
X149786280Y-59947569D01*
X149405874Y-59790000D01*
X149352614Y-59790000D01*
X149256942Y-59726074D01*
X144623587Y-55092720D01*
X144577001Y-55022999D01*
X144300801Y-54838448D01*
X144057237Y-54790000D01*
X144057233Y-54790000D01*
X143975000Y-54773643D01*
X143892767Y-54790000D01*
X128832237Y-54790000D01*
X128750000Y-54773642D01*
X128667763Y-54790000D01*
X123273232Y-54790000D01*
X123190999Y-54773643D01*
X123108766Y-54790000D01*
X123108763Y-54790000D01*
X123023757Y-54806909D01*
X124001604Y-53829062D01*
X124555000Y-52493046D01*
X124555000Y-51046954D01*
X124347033Y-50544875D01*
X129049370Y-50544875D01*
X129049370Y-52244875D01*
X129098653Y-52492640D01*
X129239001Y-52702684D01*
X129449045Y-52843032D01*
X129696810Y-52892315D01*
X131396810Y-52892315D01*
X131644575Y-52843032D01*
X131854619Y-52702684D01*
X131994967Y-52492640D01*
X132003994Y-52447256D01*
X132016185Y-52465500D01*
X132507392Y-52793714D01*
X132940554Y-52879875D01*
X133233066Y-52879875D01*
X133666228Y-52793714D01*
X134157435Y-52465500D01*
X134356810Y-52167114D01*
X134556185Y-52465500D01*
X135047392Y-52793714D01*
X135480554Y-52879875D01*
X135773066Y-52879875D01*
X136206228Y-52793714D01*
X136697435Y-52465500D01*
X136896810Y-52167114D01*
X137096185Y-52465500D01*
X137587392Y-52793714D01*
X138020554Y-52879875D01*
X138313066Y-52879875D01*
X138746228Y-52793714D01*
X139237435Y-52465500D01*
X139436810Y-52167114D01*
X139636185Y-52465500D01*
X140127392Y-52793714D01*
X140560554Y-52879875D01*
X140853066Y-52879875D01*
X141286228Y-52793714D01*
X141777435Y-52465500D01*
X141976810Y-52167114D01*
X142176185Y-52465500D01*
X142667392Y-52793714D01*
X143100554Y-52879875D01*
X143393066Y-52879875D01*
X143826228Y-52793714D01*
X144317435Y-52465500D01*
X144516810Y-52167114D01*
X144716185Y-52465500D01*
X145207392Y-52793714D01*
X145640554Y-52879875D01*
X145933066Y-52879875D01*
X146366228Y-52793714D01*
X146857435Y-52465500D01*
X147056810Y-52167114D01*
X147256185Y-52465500D01*
X147747392Y-52793714D01*
X148180554Y-52879875D01*
X148473066Y-52879875D01*
X148906228Y-52793714D01*
X149397435Y-52465500D01*
X149725649Y-51974293D01*
X149840902Y-51394875D01*
X149725649Y-50815457D01*
X149397435Y-50324250D01*
X148906228Y-49996036D01*
X148473066Y-49909875D01*
X148180554Y-49909875D01*
X147747392Y-49996036D01*
X147256185Y-50324250D01*
X147056810Y-50622636D01*
X146857435Y-50324250D01*
X146366228Y-49996036D01*
X145933066Y-49909875D01*
X145640554Y-49909875D01*
X145207392Y-49996036D01*
X144716185Y-50324250D01*
X144516810Y-50622636D01*
X144317435Y-50324250D01*
X143826228Y-49996036D01*
X143393066Y-49909875D01*
X143100554Y-49909875D01*
X142667392Y-49996036D01*
X142176185Y-50324250D01*
X141976810Y-50622636D01*
X141777435Y-50324250D01*
X141286228Y-49996036D01*
X140853066Y-49909875D01*
X140560554Y-49909875D01*
X140127392Y-49996036D01*
X139636185Y-50324250D01*
X139436810Y-50622636D01*
X139237435Y-50324250D01*
X138746228Y-49996036D01*
X138313066Y-49909875D01*
X138020554Y-49909875D01*
X137587392Y-49996036D01*
X137096185Y-50324250D01*
X136896810Y-50622636D01*
X136697435Y-50324250D01*
X136206228Y-49996036D01*
X135773066Y-49909875D01*
X135480554Y-49909875D01*
X135047392Y-49996036D01*
X134556185Y-50324250D01*
X134356810Y-50622636D01*
X134157435Y-50324250D01*
X133666228Y-49996036D01*
X133233066Y-49909875D01*
X132940554Y-49909875D01*
X132507392Y-49996036D01*
X132016185Y-50324250D01*
X132003994Y-50342494D01*
X131994967Y-50297110D01*
X131854619Y-50087066D01*
X131644575Y-49946718D01*
X131396810Y-49897435D01*
X129696810Y-49897435D01*
X129449045Y-49946718D01*
X129239001Y-50087066D01*
X129098653Y-50297110D01*
X129049370Y-50544875D01*
X124347033Y-50544875D01*
X124001604Y-49710938D01*
X122979062Y-48688396D01*
X121643046Y-48135000D01*
X120196954Y-48135000D01*
X118860938Y-48688396D01*
X117838396Y-49710938D01*
X117285000Y-51046954D01*
X117285000Y-52493046D01*
X117838396Y-53829062D01*
X118860938Y-54851604D01*
X120196954Y-55405000D01*
X121643046Y-55405000D01*
X122627688Y-54997148D01*
X122588999Y-55022999D01*
X122542415Y-55092717D01*
X113234133Y-64401000D01*
X112754506Y-64401000D01*
X112245460Y-64611853D01*
X111855853Y-65001460D01*
X111766603Y-65216930D01*
X111702460Y-65062077D01*
X111461517Y-64994088D01*
X110669605Y-65786000D01*
X110310395Y-65786000D01*
X109518483Y-64994088D01*
X109277540Y-65062077D01*
X109218255Y-65228658D01*
X109124147Y-65001460D01*
X108937170Y-64814483D01*
X109698088Y-64814483D01*
X110490000Y-65606395D01*
X111281912Y-64814483D01*
X111213923Y-64573540D01*
X110694829Y-64388799D01*
X110144552Y-64416770D01*
X109766077Y-64573540D01*
X109698088Y-64814483D01*
X108937170Y-64814483D01*
X108734540Y-64611853D01*
X108225494Y-64401000D01*
X107674506Y-64401000D01*
X107165460Y-64611853D01*
X106775853Y-65001460D01*
X106680000Y-65232870D01*
X106584147Y-65001460D01*
X106194540Y-64611853D01*
X105685494Y-64401000D01*
X105134506Y-64401000D01*
X104625460Y-64611853D01*
X104235853Y-65001460D01*
X104146603Y-65216930D01*
X104082460Y-65062077D01*
X103841517Y-64994088D01*
X103049605Y-65786000D01*
X102690395Y-65786000D01*
X101898483Y-64994088D01*
X101657540Y-65062077D01*
X101598255Y-65228658D01*
X101504147Y-65001460D01*
X101317170Y-64814483D01*
X102078088Y-64814483D01*
X102870000Y-65606395D01*
X103661912Y-64814483D01*
X103593923Y-64573540D01*
X103074829Y-64388799D01*
X102524552Y-64416770D01*
X102146077Y-64573540D01*
X102078088Y-64814483D01*
X101317170Y-64814483D01*
X101114540Y-64611853D01*
X100605494Y-64401000D01*
X100054506Y-64401000D01*
X99545460Y-64611853D01*
X99176469Y-64980844D01*
X99138157Y-64788235D01*
X98997809Y-64578191D01*
X98787765Y-64437843D01*
X98540000Y-64388560D01*
X97040000Y-64388560D01*
X96792235Y-64437843D01*
X96582191Y-64578191D01*
X96441843Y-64788235D01*
X96392560Y-65036000D01*
X96010000Y-65036000D01*
X96010000Y-50071594D01*
X96675000Y-50071594D01*
X96675000Y-51020406D01*
X97038095Y-51896994D01*
X97709006Y-52567905D01*
X98585594Y-52931000D01*
X99534406Y-52931000D01*
X99825303Y-52810506D01*
X104025000Y-52810506D01*
X104025000Y-53361494D01*
X104235853Y-53870540D01*
X104625460Y-54260147D01*
X105134506Y-54471000D01*
X105685494Y-54471000D01*
X106194540Y-54260147D01*
X106584147Y-53870540D01*
X106680000Y-53639130D01*
X106775853Y-53870540D01*
X107165460Y-54260147D01*
X107674506Y-54471000D01*
X108225494Y-54471000D01*
X108734540Y-54260147D01*
X109124147Y-53870540D01*
X109220000Y-53639130D01*
X109315853Y-53870540D01*
X109705460Y-54260147D01*
X110214506Y-54471000D01*
X110765494Y-54471000D01*
X111274540Y-54260147D01*
X111664147Y-53870540D01*
X111875000Y-53361494D01*
X111875000Y-52810506D01*
X111664147Y-52301460D01*
X111274540Y-51911853D01*
X110765494Y-51701000D01*
X110214506Y-51701000D01*
X109705460Y-51911853D01*
X109315853Y-52301460D01*
X109220000Y-52532870D01*
X109124147Y-52301460D01*
X108734540Y-51911853D01*
X108225494Y-51701000D01*
X107674506Y-51701000D01*
X107165460Y-51911853D01*
X106775853Y-52301460D01*
X106680000Y-52532870D01*
X106584147Y-52301460D01*
X106194540Y-51911853D01*
X105685494Y-51701000D01*
X105134506Y-51701000D01*
X104625460Y-51911853D01*
X104235853Y-52301460D01*
X104025000Y-52810506D01*
X99825303Y-52810506D01*
X100410994Y-52567905D01*
X101081905Y-51896994D01*
X101445000Y-51020406D01*
X101445000Y-50071594D01*
X111915000Y-50071594D01*
X111915000Y-51020406D01*
X112278095Y-51896994D01*
X112949006Y-52567905D01*
X113825594Y-52931000D01*
X114774406Y-52931000D01*
X115650994Y-52567905D01*
X116321905Y-51896994D01*
X116685000Y-51020406D01*
X116685000Y-50071594D01*
X116321905Y-49195006D01*
X115650994Y-48524095D01*
X114774406Y-48161000D01*
X113825594Y-48161000D01*
X112949006Y-48524095D01*
X112278095Y-49195006D01*
X111915000Y-50071594D01*
X101445000Y-50071594D01*
X101081905Y-49195006D01*
X100410994Y-48524095D01*
X99534406Y-48161000D01*
X98585594Y-48161000D01*
X97709006Y-48524095D01*
X97038095Y-49195006D01*
X96675000Y-50071594D01*
X96010000Y-50071594D01*
X96010000Y-47110000D01*
X182390000Y-47110000D01*
X182390001Y-93790000D01*
X182390001Y-93790000D01*
G37*
X182390001Y-93790000D02*
X96010000Y-93790000D01*
X96010000Y-87150234D01*
X99235000Y-87150234D01*
X99235000Y-87601766D01*
X99407793Y-88018926D01*
X99727074Y-88338207D01*
X100144234Y-88511000D01*
X100595766Y-88511000D01*
X101012926Y-88338207D01*
X101332207Y-88018926D01*
X101505000Y-87601766D01*
X101505000Y-87150234D01*
X104235000Y-87150234D01*
X104235000Y-87601766D01*
X104407793Y-88018926D01*
X104727074Y-88338207D01*
X105144234Y-88511000D01*
X105595766Y-88511000D01*
X105939751Y-88368517D01*
X109095000Y-88368517D01*
X109095000Y-88923483D01*
X109307376Y-89436204D01*
X109699796Y-89828624D01*
X110212517Y-90041000D01*
X110767483Y-90041000D01*
X111280204Y-89828624D01*
X111672624Y-89436204D01*
X111760000Y-89225260D01*
X111847376Y-89436204D01*
X112239796Y-89828624D01*
X112752517Y-90041000D01*
X113307483Y-90041000D01*
X113820204Y-89828624D01*
X114175000Y-89473828D01*
X114175000Y-89532309D01*
X114271673Y-89765698D01*
X114450301Y-89944327D01*
X114683690Y-90041000D01*
X115284250Y-90041000D01*
X115443000Y-89882250D01*
X115443000Y-88773000D01*
X115697000Y-88773000D01*
X115697000Y-89882250D01*
X115855750Y-90041000D01*
X116456310Y-90041000D01*
X116689699Y-89944327D01*
X116868327Y-89765698D01*
X116965000Y-89532309D01*
X116965000Y-88931750D01*
X116806250Y-88773000D01*
X115697000Y-88773000D01*
X115443000Y-88773000D01*
X115423000Y-88773000D01*
X115423000Y-88519000D01*
X115443000Y-88519000D01*
X115443000Y-87409750D01*
X115697000Y-87409750D01*
X115697000Y-88519000D01*
X116806250Y-88519000D01*
X116965000Y-88360250D01*
X116965000Y-88046954D01*
X117285000Y-88046954D01*
X117285000Y-89493046D01*
X117838396Y-90829062D01*
X118860938Y-91851604D01*
X120196954Y-92405000D01*
X121643046Y-92405000D01*
X122979062Y-91851604D01*
X124001604Y-90829062D01*
X124555000Y-89493046D01*
X124555000Y-88046954D01*
X124001604Y-86710938D01*
X122979062Y-85688396D01*
X121643046Y-85135000D01*
X120196954Y-85135000D01*
X118860938Y-85688396D01*
X117838396Y-86710938D01*
X117285000Y-88046954D01*
X116965000Y-88046954D01*
X116965000Y-87759691D01*
X116868327Y-87526302D01*
X116689699Y-87347673D01*
X116456310Y-87251000D01*
X115855750Y-87251000D01*
X115697000Y-87409750D01*
X115443000Y-87409750D01*
X115284250Y-87251000D01*
X114683690Y-87251000D01*
X114450301Y-87347673D01*
X114271673Y-87526302D01*
X114175000Y-87759691D01*
X114175000Y-87818172D01*
X113820204Y-87463376D01*
X113307483Y-87251000D01*
X112752517Y-87251000D01*
X112239796Y-87463376D01*
X111847376Y-87855796D01*
X111760000Y-88066740D01*
X111672624Y-87855796D01*
X111280204Y-87463376D01*
X110767483Y-87251000D01*
X110212517Y-87251000D01*
X109699796Y-87463376D01*
X109307376Y-87855796D01*
X109095000Y-88368517D01*
X105939751Y-88368517D01*
X106012926Y-88338207D01*
X106332207Y-88018926D01*
X106505000Y-87601766D01*
X106505000Y-87150234D01*
X106332207Y-86733074D01*
X106012926Y-86413793D01*
X105595766Y-86241000D01*
X105144234Y-86241000D01*
X104727074Y-86413793D01*
X104407793Y-86733074D01*
X104235000Y-87150234D01*
X101505000Y-87150234D01*
X101332207Y-86733074D01*
X101012926Y-86413793D01*
X100595766Y-86241000D01*
X100144234Y-86241000D01*
X99727074Y-86413793D01*
X99407793Y-86733074D01*
X99235000Y-87150234D01*
X96010000Y-87150234D01*
X96010000Y-78486000D01*
X101152887Y-78486000D01*
X101264260Y-79045909D01*
X101581423Y-79520577D01*
X102056091Y-79837740D01*
X102474667Y-79921000D01*
X102757333Y-79921000D01*
X103175909Y-79837740D01*
X103650577Y-79520577D01*
X103967740Y-79045909D01*
X104079113Y-78486000D01*
X103967740Y-77926091D01*
X103807317Y-77686000D01*
X108788560Y-77686000D01*
X108788560Y-79286000D01*
X108837843Y-79533765D01*
X108978191Y-79743809D01*
X109188235Y-79884157D01*
X109436000Y-79933440D01*
X111036000Y-79933440D01*
X111283765Y-79884157D01*
X111493809Y-79743809D01*
X111634157Y-79533765D01*
X111683440Y-79286000D01*
X111683440Y-77686000D01*
X111634157Y-77438235D01*
X111493809Y-77228191D01*
X111283765Y-77087843D01*
X111036000Y-77038560D01*
X109436000Y-77038560D01*
X109188235Y-77087843D01*
X108978191Y-77228191D01*
X108837843Y-77438235D01*
X108788560Y-77686000D01*
X103807317Y-77686000D01*
X103650577Y-77451423D01*
X103175909Y-77134260D01*
X102757333Y-77051000D01*
X102474667Y-77051000D01*
X102056091Y-77134260D01*
X101581423Y-77451423D01*
X101264260Y-77926091D01*
X101152887Y-78486000D01*
X96010000Y-78486000D01*
X96010000Y-73922119D01*
X107893000Y-73922119D01*
X107893000Y-74477881D01*
X108105680Y-74991337D01*
X108498663Y-75384320D01*
X109012119Y-75597000D01*
X109567881Y-75597000D01*
X110081337Y-75384320D01*
X110474320Y-74991337D01*
X110687000Y-74477881D01*
X110687000Y-73922119D01*
X114393000Y-73922119D01*
X114393000Y-74477881D01*
X114605680Y-74991337D01*
X114998663Y-75384320D01*
X115512119Y-75597000D01*
X116067881Y-75597000D01*
X116581337Y-75384320D01*
X116974320Y-74991337D01*
X117187000Y-74477881D01*
X117187000Y-73922119D01*
X116974320Y-73408663D01*
X116581337Y-73015680D01*
X116067881Y-72803000D01*
X115512119Y-72803000D01*
X114998663Y-73015680D01*
X114605680Y-73408663D01*
X114393000Y-73922119D01*
X110687000Y-73922119D01*
X110474320Y-73408663D01*
X110081337Y-73015680D01*
X109567881Y-72803000D01*
X109012119Y-72803000D01*
X108498663Y-73015680D01*
X108105680Y-73408663D01*
X107893000Y-73922119D01*
X96010000Y-73922119D01*
X96010000Y-71374000D01*
X96275908Y-71374000D01*
X96391161Y-71953418D01*
X96719375Y-72444625D01*
X97210582Y-72772839D01*
X97643744Y-72859000D01*
X97936256Y-72859000D01*
X98369418Y-72772839D01*
X98860625Y-72444625D01*
X99073843Y-72125522D01*
X99134817Y-72255358D01*
X99563076Y-72645645D01*
X99973110Y-72815476D01*
X100203000Y-72694155D01*
X100203000Y-71501000D01*
X100183000Y-71501000D01*
X100183000Y-71247000D01*
X100203000Y-71247000D01*
X100203000Y-70053845D01*
X100457000Y-70053845D01*
X100457000Y-71247000D01*
X100477000Y-71247000D01*
X100477000Y-71501000D01*
X100457000Y-71501000D01*
X100457000Y-72694155D01*
X100686890Y-72815476D01*
X101096924Y-72645645D01*
X101401261Y-72368292D01*
X101421843Y-72471765D01*
X101562191Y-72681809D01*
X101772235Y-72822157D01*
X102020000Y-72871440D01*
X103720000Y-72871440D01*
X103967765Y-72822157D01*
X104177809Y-72681809D01*
X104318157Y-72471765D01*
X104367440Y-72224000D01*
X104367440Y-70680213D01*
X108489392Y-70680213D01*
X108558857Y-70922397D01*
X109082302Y-71109144D01*
X109637368Y-71081362D01*
X110021143Y-70922397D01*
X110090608Y-70680213D01*
X114989392Y-70680213D01*
X115058857Y-70922397D01*
X115582302Y-71109144D01*
X116137368Y-71081362D01*
X116521143Y-70922397D01*
X116590608Y-70680213D01*
X115790000Y-69879605D01*
X114989392Y-70680213D01*
X110090608Y-70680213D01*
X109290000Y-69879605D01*
X108489392Y-70680213D01*
X104367440Y-70680213D01*
X104367440Y-70524000D01*
X104318157Y-70276235D01*
X104177809Y-70066191D01*
X103967765Y-69925843D01*
X103720000Y-69876560D01*
X102020000Y-69876560D01*
X101772235Y-69925843D01*
X101562191Y-70066191D01*
X101421843Y-70276235D01*
X101401261Y-70379708D01*
X101096924Y-70102355D01*
X100686890Y-69932524D01*
X100457000Y-70053845D01*
X100203000Y-70053845D01*
X99973110Y-69932524D01*
X99563076Y-70102355D01*
X99134817Y-70492642D01*
X99073843Y-70622478D01*
X98860625Y-70303375D01*
X98369418Y-69975161D01*
X97936256Y-69889000D01*
X97643744Y-69889000D01*
X97210582Y-69975161D01*
X96719375Y-70303375D01*
X96391161Y-70794582D01*
X96275908Y-71374000D01*
X96010000Y-71374000D01*
X96010000Y-69492302D01*
X107880856Y-69492302D01*
X107908638Y-70047368D01*
X108067603Y-70431143D01*
X108309787Y-70500608D01*
X109110395Y-69700000D01*
X109469605Y-69700000D01*
X110270213Y-70500608D01*
X110512397Y-70431143D01*
X110699144Y-69907698D01*
X110678353Y-69492302D01*
X114380856Y-69492302D01*
X114408638Y-70047368D01*
X114567603Y-70431143D01*
X114809787Y-70500608D01*
X115610395Y-69700000D01*
X115969605Y-69700000D01*
X116770213Y-70500608D01*
X117012397Y-70431143D01*
X117199144Y-69907698D01*
X117171362Y-69352632D01*
X117012397Y-68968857D01*
X116770213Y-68899392D01*
X115969605Y-69700000D01*
X115610395Y-69700000D01*
X114809787Y-68899392D01*
X114567603Y-68968857D01*
X114380856Y-69492302D01*
X110678353Y-69492302D01*
X110671362Y-69352632D01*
X110512397Y-68968857D01*
X110270213Y-68899392D01*
X109469605Y-69700000D01*
X109110395Y-69700000D01*
X108309787Y-68899392D01*
X108067603Y-68968857D01*
X107880856Y-69492302D01*
X96010000Y-69492302D01*
X96010000Y-68719787D01*
X108489392Y-68719787D01*
X109290000Y-69520395D01*
X110090608Y-68719787D01*
X114989392Y-68719787D01*
X115790000Y-69520395D01*
X116590608Y-68719787D01*
X116521143Y-68477603D01*
X115997698Y-68290856D01*
X115442632Y-68318638D01*
X115058857Y-68477603D01*
X114989392Y-68719787D01*
X110090608Y-68719787D01*
X110021143Y-68477603D01*
X109497698Y-68290856D01*
X108942632Y-68318638D01*
X108558857Y-68477603D01*
X108489392Y-68719787D01*
X96010000Y-68719787D01*
X96010000Y-65036000D01*
X96392560Y-65036000D01*
X96392560Y-66536000D01*
X96441843Y-66783765D01*
X96582191Y-66993809D01*
X96792235Y-67134157D01*
X97040000Y-67183440D01*
X98540000Y-67183440D01*
X98787765Y-67134157D01*
X98997809Y-66993809D01*
X99138157Y-66783765D01*
X99176469Y-66591156D01*
X99545460Y-66960147D01*
X100054506Y-67171000D01*
X100605494Y-67171000D01*
X101114540Y-66960147D01*
X101317170Y-66757517D01*
X102078088Y-66757517D01*
X102146077Y-66998460D01*
X102665171Y-67183201D01*
X103215448Y-67155230D01*
X103593923Y-66998460D01*
X103661912Y-66757517D01*
X102870000Y-65965605D01*
X102078088Y-66757517D01*
X101317170Y-66757517D01*
X101504147Y-66570540D01*
X101593397Y-66355070D01*
X101657540Y-66509923D01*
X101898483Y-66577912D01*
X102690395Y-65786000D01*
X103049605Y-65786000D01*
X103841517Y-66577912D01*
X104082460Y-66509923D01*
X104141745Y-66343342D01*
X104235853Y-66570540D01*
X104625460Y-66960147D01*
X105134506Y-67171000D01*
X105685494Y-67171000D01*
X106194540Y-66960147D01*
X106584147Y-66570540D01*
X106680000Y-66339130D01*
X106775853Y-66570540D01*
X107165460Y-66960147D01*
X107674506Y-67171000D01*
X108225494Y-67171000D01*
X108734540Y-66960147D01*
X108937170Y-66757517D01*
X109698088Y-66757517D01*
X109766077Y-66998460D01*
X110285171Y-67183201D01*
X110835448Y-67155230D01*
X111213923Y-66998460D01*
X111281912Y-66757517D01*
X110490000Y-65965605D01*
X109698088Y-66757517D01*
X108937170Y-66757517D01*
X109124147Y-66570540D01*
X109213397Y-66355070D01*
X109277540Y-66509923D01*
X109518483Y-66577912D01*
X110310395Y-65786000D01*
X110669605Y-65786000D01*
X111461517Y-66577912D01*
X111702460Y-66509923D01*
X111761745Y-66343342D01*
X111855853Y-66570540D01*
X112245460Y-66960147D01*
X112754506Y-67171000D01*
X113305494Y-67171000D01*
X113814540Y-66960147D01*
X114204147Y-66570540D01*
X114300000Y-66339130D01*
X114395853Y-66570540D01*
X114785460Y-66960147D01*
X115294506Y-67171000D01*
X115845494Y-67171000D01*
X116354540Y-66960147D01*
X116744147Y-66570540D01*
X116955000Y-66061494D01*
X116955000Y-65510506D01*
X116744147Y-65001460D01*
X116354540Y-64611853D01*
X115845494Y-64401000D01*
X115595867Y-64401000D01*
X123536868Y-56460000D01*
X127865001Y-56460000D01*
X127865000Y-58021289D01*
X127822569Y-58063720D01*
X127665000Y-58444126D01*
X127665000Y-58855874D01*
X127668780Y-58865000D01*
X124597384Y-58865000D01*
X124525000Y-58850602D01*
X124452616Y-58865000D01*
X124452612Y-58865000D01*
X124238217Y-58907646D01*
X123995095Y-59070095D01*
X123954090Y-59131463D01*
X121931465Y-61154089D01*
X121870095Y-61195095D01*
X121707646Y-61438218D01*
X121665000Y-61652613D01*
X121665000Y-61652616D01*
X121650602Y-61725000D01*
X121665000Y-61797385D01*
X121665001Y-63227609D01*
X121665000Y-63227613D01*
X121665000Y-63352613D01*
X121665001Y-81802608D01*
X121665000Y-81802613D01*
X121665000Y-82045553D01*
X120720554Y-82990000D01*
X120519126Y-82990000D01*
X120138720Y-83147569D01*
X119847569Y-83438720D01*
X119690000Y-83819126D01*
X119690000Y-84230874D01*
X119847569Y-84611280D01*
X120138720Y-84902431D01*
X120519126Y-85060000D01*
X120930874Y-85060000D01*
X121311280Y-84902431D01*
X121602431Y-84611280D01*
X121760000Y-84230874D01*
X121760000Y-84029446D01*
X122868537Y-82920910D01*
X122929905Y-82879905D01*
X123092354Y-82636783D01*
X123135000Y-82422388D01*
X123149399Y-82350000D01*
X123135000Y-82277612D01*
X123135000Y-77419126D01*
X126865000Y-77419126D01*
X126865000Y-77830874D01*
X127022569Y-78211280D01*
X127313720Y-78502431D01*
X127694126Y-78660000D01*
X127754133Y-78660000D01*
X129685000Y-80590868D01*
X129685001Y-87522560D01*
X129670000Y-87522560D01*
X129422235Y-87571843D01*
X129212191Y-87712191D01*
X129071843Y-87922235D01*
X129022560Y-88170000D01*
X129022560Y-89870000D01*
X129071843Y-90117765D01*
X129212191Y-90327809D01*
X129422235Y-90468157D01*
X129670000Y-90517440D01*
X131370000Y-90517440D01*
X131617765Y-90468157D01*
X131827809Y-90327809D01*
X131968157Y-90117765D01*
X131988739Y-90014292D01*
X132293076Y-90291645D01*
X132703110Y-90461476D01*
X132933000Y-90340155D01*
X132933000Y-89147000D01*
X132913000Y-89147000D01*
X132913000Y-88893000D01*
X132933000Y-88893000D01*
X132933000Y-87699845D01*
X133187000Y-87699845D01*
X133187000Y-88893000D01*
X133207000Y-88893000D01*
X133207000Y-89147000D01*
X133187000Y-89147000D01*
X133187000Y-90340155D01*
X133416890Y-90461476D01*
X133826924Y-90291645D01*
X134255183Y-89901358D01*
X134316157Y-89771522D01*
X134529375Y-90090625D01*
X135020582Y-90418839D01*
X135453744Y-90505000D01*
X135746256Y-90505000D01*
X136179418Y-90418839D01*
X136670625Y-90090625D01*
X136870000Y-89792239D01*
X137069375Y-90090625D01*
X137560582Y-90418839D01*
X137993744Y-90505000D01*
X138286256Y-90505000D01*
X138719418Y-90418839D01*
X139210625Y-90090625D01*
X139410000Y-89792239D01*
X139609375Y-90090625D01*
X140100582Y-90418839D01*
X140533744Y-90505000D01*
X140826256Y-90505000D01*
X141259418Y-90418839D01*
X141750625Y-90090625D01*
X141950000Y-89792239D01*
X142149375Y-90090625D01*
X142640582Y-90418839D01*
X143073744Y-90505000D01*
X143366256Y-90505000D01*
X143799418Y-90418839D01*
X144290625Y-90090625D01*
X144490000Y-89792239D01*
X144689375Y-90090625D01*
X145180582Y-90418839D01*
X145613744Y-90505000D01*
X145906256Y-90505000D01*
X146339418Y-90418839D01*
X146830625Y-90090625D01*
X147030000Y-89792239D01*
X147229375Y-90090625D01*
X147720582Y-90418839D01*
X148153744Y-90505000D01*
X148446256Y-90505000D01*
X148879418Y-90418839D01*
X149370625Y-90090625D01*
X149698839Y-89599418D01*
X149814092Y-89020000D01*
X149698839Y-88440582D01*
X149370625Y-87949375D01*
X149306909Y-87906802D01*
X149477431Y-87736280D01*
X149635000Y-87355874D01*
X149635000Y-87190867D01*
X150115000Y-87670868D01*
X150115000Y-87730874D01*
X150272569Y-88111280D01*
X150563720Y-88402431D01*
X150944126Y-88560000D01*
X151355874Y-88560000D01*
X151736280Y-88402431D01*
X152027431Y-88111280D01*
X152054075Y-88046954D01*
X154285000Y-88046954D01*
X154285000Y-89493046D01*
X154838396Y-90829062D01*
X155860938Y-91851604D01*
X157196954Y-92405000D01*
X158643046Y-92405000D01*
X159979062Y-91851604D01*
X161001604Y-90829062D01*
X161253413Y-90221140D01*
X169859000Y-90221140D01*
X169859000Y-91134861D01*
X169921954Y-91451346D01*
X170161760Y-91810241D01*
X170520655Y-92050047D01*
X170944000Y-92134256D01*
X171367346Y-92050047D01*
X171726241Y-91810241D01*
X171966047Y-91451346D01*
X172029000Y-91134860D01*
X172029000Y-90221140D01*
X176459000Y-90221140D01*
X176459000Y-91134861D01*
X176521954Y-91451346D01*
X176761760Y-91810241D01*
X177120655Y-92050047D01*
X177544000Y-92134256D01*
X177963107Y-92050890D01*
X179406524Y-92050890D01*
X179576355Y-92460924D01*
X179966642Y-92889183D01*
X180491108Y-93135486D01*
X180721000Y-93014819D01*
X180721000Y-91821000D01*
X180975000Y-91821000D01*
X180975000Y-93014819D01*
X181204892Y-93135486D01*
X181729358Y-92889183D01*
X182119645Y-92460924D01*
X182289476Y-92050890D01*
X182168155Y-91821000D01*
X180975000Y-91821000D01*
X180721000Y-91821000D01*
X179527845Y-91821000D01*
X179406524Y-92050890D01*
X177963107Y-92050890D01*
X177967346Y-92050047D01*
X178326241Y-91810241D01*
X178566047Y-91451346D01*
X178629000Y-91134860D01*
X178629000Y-90221139D01*
X178566047Y-89904654D01*
X178326241Y-89545759D01*
X177967345Y-89305953D01*
X177544000Y-89221744D01*
X177120654Y-89305953D01*
X176761759Y-89545759D01*
X176521953Y-89904655D01*
X176459000Y-90221140D01*
X172029000Y-90221140D01*
X172029000Y-90221139D01*
X171966047Y-89904654D01*
X171726241Y-89545759D01*
X171367345Y-89305953D01*
X170944000Y-89221744D01*
X170520654Y-89305953D01*
X170161759Y-89545759D01*
X169921953Y-89904655D01*
X169859000Y-90221140D01*
X161253413Y-90221140D01*
X161555000Y-89493046D01*
X161555000Y-88304000D01*
X179350560Y-88304000D01*
X179350560Y-90004000D01*
X179399843Y-90251765D01*
X179540191Y-90461809D01*
X179750235Y-90602157D01*
X179853708Y-90622739D01*
X179576355Y-90927076D01*
X179406524Y-91337110D01*
X179527845Y-91567000D01*
X180721000Y-91567000D01*
X180721000Y-91547000D01*
X180975000Y-91547000D01*
X180975000Y-91567000D01*
X182168155Y-91567000D01*
X182289476Y-91337110D01*
X182119645Y-90927076D01*
X181842292Y-90622739D01*
X181945765Y-90602157D01*
X182155809Y-90461809D01*
X182296157Y-90251765D01*
X182345440Y-90004000D01*
X182345440Y-88304000D01*
X182296157Y-88056235D01*
X182155809Y-87846191D01*
X181945765Y-87705843D01*
X181698000Y-87656560D01*
X179998000Y-87656560D01*
X179750235Y-87705843D01*
X179540191Y-87846191D01*
X179399843Y-88056235D01*
X179350560Y-88304000D01*
X161555000Y-88304000D01*
X161555000Y-88046954D01*
X161001604Y-86710938D01*
X159979062Y-85688396D01*
X158643046Y-85135000D01*
X157196954Y-85135000D01*
X155860938Y-85688396D01*
X154838396Y-86710938D01*
X154285000Y-88046954D01*
X152054075Y-88046954D01*
X152185000Y-87730874D01*
X152185000Y-87319126D01*
X152027431Y-86938720D01*
X151736280Y-86647569D01*
X151355874Y-86490000D01*
X151295868Y-86490000D01*
X150573587Y-85767720D01*
X150527001Y-85697999D01*
X150250801Y-85513448D01*
X150007237Y-85465000D01*
X150007233Y-85465000D01*
X149925000Y-85448643D01*
X149842767Y-85465000D01*
X147003727Y-85465000D01*
X146961296Y-85422569D01*
X146580890Y-85265000D01*
X146169142Y-85265000D01*
X145788736Y-85422569D01*
X145497585Y-85713720D01*
X145340016Y-86094126D01*
X145340016Y-86415000D01*
X140385000Y-86415000D01*
X140385000Y-82907213D01*
X168779000Y-82907213D01*
X168779000Y-83716787D01*
X169088810Y-84464735D01*
X169661265Y-85037190D01*
X170409213Y-85347000D01*
X171218787Y-85347000D01*
X171966735Y-85037190D01*
X172539190Y-84464735D01*
X172849000Y-83716787D01*
X172849000Y-82907213D01*
X172539190Y-82159265D01*
X172291925Y-81912000D01*
X173466560Y-81912000D01*
X173466560Y-84712000D01*
X173515843Y-84959765D01*
X173656191Y-85169809D01*
X173866235Y-85310157D01*
X174114000Y-85359440D01*
X176914000Y-85359440D01*
X177161765Y-85310157D01*
X177371809Y-85169809D01*
X177512157Y-84959765D01*
X177561440Y-84712000D01*
X177561440Y-82907213D01*
X178179000Y-82907213D01*
X178179000Y-83716787D01*
X178488810Y-84464735D01*
X179061265Y-85037190D01*
X179809213Y-85347000D01*
X180618787Y-85347000D01*
X181366735Y-85037190D01*
X181939190Y-84464735D01*
X182249000Y-83716787D01*
X182249000Y-82907213D01*
X181939190Y-82159265D01*
X181366735Y-81586810D01*
X180618787Y-81277000D01*
X179809213Y-81277000D01*
X179061265Y-81586810D01*
X178488810Y-82159265D01*
X178179000Y-82907213D01*
X177561440Y-82907213D01*
X177561440Y-81912000D01*
X177512157Y-81664235D01*
X177371809Y-81454191D01*
X177161765Y-81313843D01*
X176914000Y-81264560D01*
X174114000Y-81264560D01*
X173866235Y-81313843D01*
X173656191Y-81454191D01*
X173515843Y-81664235D01*
X173466560Y-81912000D01*
X172291925Y-81912000D01*
X171966735Y-81586810D01*
X171218787Y-81277000D01*
X170409213Y-81277000D01*
X169661265Y-81586810D01*
X169088810Y-82159265D01*
X168779000Y-82907213D01*
X140385000Y-82907213D01*
X140385000Y-76254446D01*
X141348537Y-75290910D01*
X141409905Y-75249905D01*
X141572354Y-75006783D01*
X141615000Y-74792388D01*
X141629399Y-74720000D01*
X141615000Y-74647612D01*
X141615000Y-73792383D01*
X141629398Y-73719999D01*
X141615000Y-73647613D01*
X141615000Y-73647612D01*
X141572354Y-73433217D01*
X141409905Y-73190095D01*
X141348538Y-73149091D01*
X140893573Y-72694126D01*
X147865000Y-72694126D01*
X147865000Y-73105874D01*
X148022569Y-73486280D01*
X148313720Y-73777431D01*
X148694126Y-73935000D01*
X149105874Y-73935000D01*
X149486280Y-73777431D01*
X149628711Y-73635000D01*
X151395290Y-73635000D01*
X151365000Y-73708126D01*
X151365000Y-74119874D01*
X151476567Y-74389221D01*
X151442191Y-74412191D01*
X151301843Y-74622235D01*
X151252560Y-74870000D01*
X151252560Y-76370000D01*
X151301843Y-76617765D01*
X151442191Y-76827809D01*
X151652235Y-76968157D01*
X151661500Y-76970000D01*
X151652235Y-76971843D01*
X151442191Y-77112191D01*
X151301843Y-77322235D01*
X151252560Y-77570000D01*
X151252560Y-79070000D01*
X151301843Y-79317765D01*
X151442191Y-79527809D01*
X151553166Y-79601961D01*
X151514990Y-79694126D01*
X151514990Y-80105874D01*
X151672559Y-80486280D01*
X151963710Y-80777431D01*
X152344116Y-80935000D01*
X152755864Y-80935000D01*
X153136270Y-80777431D01*
X153427421Y-80486280D01*
X153584990Y-80105874D01*
X153584990Y-79694126D01*
X153546818Y-79601971D01*
X153657809Y-79527809D01*
X153798157Y-79317765D01*
X153847440Y-79070000D01*
X153847440Y-77570000D01*
X153798157Y-77322235D01*
X153749891Y-77250000D01*
X163652560Y-77250000D01*
X163652560Y-78150000D01*
X163701843Y-78397765D01*
X163842191Y-78607809D01*
X164052235Y-78748157D01*
X164300000Y-78797440D01*
X165800000Y-78797440D01*
X166047765Y-78748157D01*
X166257809Y-78607809D01*
X166398157Y-78397765D01*
X166447440Y-78150000D01*
X166447440Y-77250000D01*
X166398157Y-77002235D01*
X166257809Y-76792191D01*
X166074939Y-76670000D01*
X170002560Y-76670000D01*
X170002560Y-78270000D01*
X170051843Y-78517765D01*
X170192191Y-78727809D01*
X170402235Y-78868157D01*
X170650000Y-78917440D01*
X172250000Y-78917440D01*
X172497765Y-78868157D01*
X172707809Y-78727809D01*
X172848157Y-78517765D01*
X172897440Y-78270000D01*
X172897440Y-76670000D01*
X175590560Y-76670000D01*
X175590560Y-78270000D01*
X175639843Y-78517765D01*
X175780191Y-78727809D01*
X175990235Y-78868157D01*
X176238000Y-78917440D01*
X177838000Y-78917440D01*
X178085765Y-78868157D01*
X178295809Y-78727809D01*
X178436157Y-78517765D01*
X178485440Y-78270000D01*
X178485440Y-76670000D01*
X178436157Y-76422235D01*
X178296005Y-76212484D01*
X178484965Y-75686777D01*
X178457778Y-75116546D01*
X178291864Y-74715995D01*
X178045745Y-74641861D01*
X177217605Y-75470000D01*
X177231748Y-75484142D01*
X177052143Y-75663748D01*
X177038000Y-75649605D01*
X177023858Y-75663748D01*
X176844252Y-75484142D01*
X176858395Y-75470000D01*
X176030255Y-74641861D01*
X175784136Y-74715995D01*
X175591035Y-75253223D01*
X175618222Y-75823454D01*
X175779605Y-76213067D01*
X175639843Y-76422235D01*
X175590560Y-76670000D01*
X172897440Y-76670000D01*
X172848157Y-76422235D01*
X172708005Y-76212484D01*
X172896965Y-75686777D01*
X172869778Y-75116546D01*
X172703864Y-74715995D01*
X172457745Y-74641861D01*
X171629605Y-75470000D01*
X171643748Y-75484142D01*
X171464143Y-75663748D01*
X171450000Y-75649605D01*
X171435858Y-75663748D01*
X171256252Y-75484142D01*
X171270395Y-75470000D01*
X170442255Y-74641861D01*
X170196136Y-74715995D01*
X170003035Y-75253223D01*
X170030222Y-75823454D01*
X170191605Y-76213067D01*
X170051843Y-76422235D01*
X170002560Y-76670000D01*
X166074939Y-76670000D01*
X166047765Y-76651843D01*
X165800000Y-76602560D01*
X164300000Y-76602560D01*
X164052235Y-76651843D01*
X163842191Y-76792191D01*
X163701843Y-77002235D01*
X163652560Y-77250000D01*
X153749891Y-77250000D01*
X153657809Y-77112191D01*
X153447765Y-76971843D01*
X153438500Y-76970000D01*
X153447765Y-76968157D01*
X153657809Y-76827809D01*
X153798157Y-76617765D01*
X153847440Y-76370000D01*
X153847440Y-75454001D01*
X163705592Y-75454001D01*
X163892987Y-75837408D01*
X164217456Y-76113808D01*
X164623000Y-76245000D01*
X164923000Y-76245000D01*
X164923000Y-75287000D01*
X165177000Y-75287000D01*
X165177000Y-76245000D01*
X165477000Y-76245000D01*
X165882544Y-76113808D01*
X166207013Y-75837408D01*
X166394408Y-75454001D01*
X166267502Y-75287000D01*
X165177000Y-75287000D01*
X164923000Y-75287000D01*
X163832498Y-75287000D01*
X163705592Y-75454001D01*
X153847440Y-75454001D01*
X153847440Y-74870000D01*
X153846645Y-74865999D01*
X163705592Y-74865999D01*
X163832498Y-75033000D01*
X164923000Y-75033000D01*
X164923000Y-74075000D01*
X165177000Y-74075000D01*
X165177000Y-75033000D01*
X166267502Y-75033000D01*
X166394408Y-74865999D01*
X166207013Y-74482592D01*
X165882544Y-74206192D01*
X165477000Y-74075000D01*
X165177000Y-74075000D01*
X164923000Y-74075000D01*
X164623000Y-74075000D01*
X164217456Y-74206192D01*
X163892987Y-74482592D01*
X163705592Y-74865999D01*
X153846645Y-74865999D01*
X153798157Y-74622235D01*
X153657809Y-74412191D01*
X153447765Y-74271843D01*
X153377816Y-74257929D01*
X153435000Y-74119874D01*
X153435000Y-73708126D01*
X153277431Y-73327720D01*
X152986280Y-73036569D01*
X152644463Y-72894984D01*
X152804447Y-72735000D01*
X167895554Y-72735000D01*
X169054090Y-73893537D01*
X169095095Y-73954905D01*
X169338217Y-74117354D01*
X169552612Y-74160000D01*
X169552615Y-74160000D01*
X169624999Y-74174398D01*
X169697383Y-74160000D01*
X170652616Y-74160000D01*
X170725000Y-74174398D01*
X170797384Y-74160000D01*
X170797388Y-74160000D01*
X170863052Y-74146939D01*
X170695995Y-74216136D01*
X170621861Y-74462255D01*
X171450000Y-75290395D01*
X172278139Y-74462255D01*
X176209861Y-74462255D01*
X177038000Y-75290395D01*
X177866139Y-74462255D01*
X177792005Y-74216136D01*
X177254777Y-74023035D01*
X176684546Y-74050222D01*
X176283995Y-74216136D01*
X176209861Y-74462255D01*
X172278139Y-74462255D01*
X172204005Y-74216136D01*
X171666777Y-74023035D01*
X171113460Y-74049416D01*
X171254905Y-73954905D01*
X171295911Y-73893535D01*
X171734539Y-73454908D01*
X171795906Y-73413904D01*
X171958355Y-73170782D01*
X172001001Y-72956387D01*
X172001001Y-72956383D01*
X172015399Y-72883999D01*
X172001001Y-72811615D01*
X172001001Y-72076119D01*
X175335000Y-72076119D01*
X175335000Y-72631881D01*
X175547680Y-73145337D01*
X175940663Y-73538320D01*
X176454119Y-73751000D01*
X177009881Y-73751000D01*
X177523337Y-73538320D01*
X177916320Y-73145337D01*
X178129000Y-72631881D01*
X178129000Y-72076119D01*
X177916320Y-71562663D01*
X177523337Y-71169680D01*
X177009881Y-70957000D01*
X176454119Y-70957000D01*
X175940663Y-71169680D01*
X175547680Y-71562663D01*
X175335000Y-72076119D01*
X172001001Y-72076119D01*
X172001001Y-67576119D01*
X175335000Y-67576119D01*
X175335000Y-68131881D01*
X175547680Y-68645337D01*
X175940663Y-69038320D01*
X176454119Y-69251000D01*
X177009881Y-69251000D01*
X177523337Y-69038320D01*
X177916320Y-68645337D01*
X178129000Y-68131881D01*
X178129000Y-67576119D01*
X177916320Y-67062663D01*
X177523337Y-66669680D01*
X177453026Y-66640556D01*
X177545337Y-66602320D01*
X177938320Y-66209337D01*
X178151000Y-65695881D01*
X178151000Y-65140119D01*
X177938320Y-64626663D01*
X177545337Y-64233680D01*
X177031881Y-64021000D01*
X176476119Y-64021000D01*
X175962663Y-64233680D01*
X175569680Y-64626663D01*
X175357000Y-65140119D01*
X175357000Y-65695881D01*
X175569680Y-66209337D01*
X175962663Y-66602320D01*
X176032974Y-66631444D01*
X175940663Y-66669680D01*
X175547680Y-67062663D01*
X175335000Y-67576119D01*
X172001001Y-67576119D01*
X172001001Y-65004627D01*
X172015400Y-64932239D01*
X171958355Y-64645457D01*
X171958355Y-64645456D01*
X171795906Y-64402334D01*
X171734538Y-64361329D01*
X169935000Y-62561792D01*
X169935000Y-62297968D01*
X169976119Y-62315000D01*
X170531881Y-62315000D01*
X171045337Y-62102320D01*
X171438320Y-61709337D01*
X171651000Y-61195881D01*
X171651000Y-60640119D01*
X171438320Y-60126663D01*
X171045337Y-59733680D01*
X170966594Y-59701063D01*
X171338320Y-59329337D01*
X171551000Y-58815881D01*
X171551000Y-58260119D01*
X175257000Y-58260119D01*
X175257000Y-58815881D01*
X175469680Y-59329337D01*
X175862663Y-59722320D01*
X175941406Y-59754937D01*
X175569680Y-60126663D01*
X175357000Y-60640119D01*
X175357000Y-61195881D01*
X175569680Y-61709337D01*
X175962663Y-62102320D01*
X176476119Y-62315000D01*
X177031881Y-62315000D01*
X177545337Y-62102320D01*
X177938320Y-61709337D01*
X178151000Y-61195881D01*
X178151000Y-60640119D01*
X177938320Y-60126663D01*
X177545337Y-59733680D01*
X177466594Y-59701063D01*
X177838320Y-59329337D01*
X178051000Y-58815881D01*
X178051000Y-58260119D01*
X177838320Y-57746663D01*
X177445337Y-57353680D01*
X176931881Y-57141000D01*
X176376119Y-57141000D01*
X175862663Y-57353680D01*
X175469680Y-57746663D01*
X175257000Y-58260119D01*
X171551000Y-58260119D01*
X171338320Y-57746663D01*
X170945337Y-57353680D01*
X170431881Y-57141000D01*
X169876119Y-57141000D01*
X169362663Y-57353680D01*
X168969680Y-57746663D01*
X168757000Y-58260119D01*
X168757000Y-58815881D01*
X168780336Y-58872218D01*
X168731463Y-58921091D01*
X168670096Y-58962095D01*
X168629092Y-59023462D01*
X168629091Y-59023463D01*
X168507646Y-59205218D01*
X168450602Y-59492000D01*
X168465001Y-59564389D01*
X168465000Y-62793854D01*
X168450602Y-62866238D01*
X168465000Y-62938622D01*
X168465000Y-62938625D01*
X168507646Y-63153020D01*
X168670095Y-63396143D01*
X168731465Y-63437149D01*
X169508860Y-64214545D01*
X169462663Y-64233680D01*
X169069680Y-64626663D01*
X168857000Y-65140119D01*
X168857000Y-65695881D01*
X168880336Y-65752218D01*
X168606463Y-66026091D01*
X168545096Y-66067095D01*
X168504092Y-66128462D01*
X168504091Y-66128463D01*
X168382646Y-66310218D01*
X168325602Y-66597000D01*
X168340001Y-66669389D01*
X168340000Y-70515000D01*
X152779446Y-70515000D01*
X152770910Y-70506464D01*
X152729904Y-70445094D01*
X152486782Y-70282645D01*
X152272387Y-70239999D01*
X152272383Y-70239999D01*
X152199999Y-70225601D01*
X152127615Y-70239999D01*
X151222385Y-70239999D01*
X151150001Y-70225601D01*
X151077617Y-70239999D01*
X151077613Y-70239999D01*
X150863218Y-70282645D01*
X150620096Y-70445094D01*
X150579091Y-70506462D01*
X150145553Y-70940000D01*
X149944126Y-70940000D01*
X149563720Y-71097569D01*
X149272569Y-71388720D01*
X149115000Y-71769126D01*
X149115000Y-71868780D01*
X149105874Y-71865000D01*
X148694126Y-71865000D01*
X148313720Y-72022569D01*
X148022569Y-72313720D01*
X147865000Y-72694126D01*
X140893573Y-72694126D01*
X140890909Y-72691463D01*
X140849903Y-72630093D01*
X140606781Y-72467644D01*
X140392386Y-72424998D01*
X140392382Y-72424998D01*
X140319998Y-72410600D01*
X140247614Y-72424998D01*
X136162385Y-72424998D01*
X136090001Y-72410600D01*
X136017617Y-72424998D01*
X136017614Y-72424998D01*
X135803219Y-72467644D01*
X135582685Y-72615000D01*
X135394126Y-72615000D01*
X135013720Y-72772569D01*
X134722569Y-73063720D01*
X134565000Y-73444126D01*
X134565000Y-73855874D01*
X134722569Y-74236280D01*
X135013720Y-74527431D01*
X135394126Y-74685000D01*
X135805874Y-74685000D01*
X136186280Y-74527431D01*
X136477431Y-74236280D01*
X136618794Y-73894998D01*
X137890000Y-73894998D01*
X137890000Y-73945553D01*
X137131463Y-74704091D01*
X137070096Y-74745095D01*
X137029092Y-74806462D01*
X137029091Y-74806463D01*
X136907646Y-74988218D01*
X136850602Y-75275000D01*
X136865001Y-75347389D01*
X136865000Y-86720553D01*
X136000068Y-87585486D01*
X135746256Y-87535000D01*
X135453744Y-87535000D01*
X135020582Y-87621161D01*
X134529375Y-87949375D01*
X134316157Y-88268478D01*
X134255183Y-88138642D01*
X133826924Y-87748355D01*
X133416890Y-87578524D01*
X133187000Y-87699845D01*
X132933000Y-87699845D01*
X132703110Y-87578524D01*
X132293076Y-87748355D01*
X131988739Y-88025708D01*
X131968157Y-87922235D01*
X131827809Y-87712191D01*
X131617765Y-87571843D01*
X131370000Y-87522560D01*
X131355000Y-87522560D01*
X131355000Y-80327237D01*
X131371358Y-80245000D01*
X131306552Y-79919200D01*
X131306552Y-79919199D01*
X131122001Y-79642999D01*
X131052283Y-79596415D01*
X128935000Y-77479133D01*
X128935000Y-77419126D01*
X128777431Y-77038720D01*
X128486280Y-76747569D01*
X128105874Y-76590000D01*
X127694126Y-76590000D01*
X127313720Y-76747569D01*
X127022569Y-77038720D01*
X126865000Y-77419126D01*
X123135000Y-77419126D01*
X123135000Y-62029446D01*
X124829447Y-60335000D01*
X131125553Y-60335000D01*
X130131465Y-61329089D01*
X130070095Y-61370095D01*
X129907646Y-61613218D01*
X129865000Y-61827613D01*
X129865000Y-61827616D01*
X129850602Y-61900000D01*
X129865000Y-61972384D01*
X129865001Y-69677611D01*
X129850602Y-69750000D01*
X129907646Y-70036782D01*
X129951461Y-70102355D01*
X130070096Y-70279905D01*
X130131463Y-70320909D01*
X131215000Y-71404447D01*
X131215000Y-71605874D01*
X131372569Y-71986280D01*
X131663720Y-72277431D01*
X132044126Y-72435000D01*
X132455874Y-72435000D01*
X132836280Y-72277431D01*
X133127431Y-71986280D01*
X133285000Y-71605874D01*
X133285000Y-71194126D01*
X133127431Y-70813720D01*
X132836280Y-70522569D01*
X132455874Y-70365000D01*
X132254447Y-70365000D01*
X131335000Y-69445554D01*
X131335000Y-62204446D01*
X132804447Y-60735000D01*
X138845554Y-60735000D01*
X141179092Y-63068538D01*
X141220096Y-63129906D01*
X141463218Y-63292355D01*
X141677613Y-63335001D01*
X141750001Y-63349400D01*
X141822389Y-63335001D01*
X148115000Y-63335001D01*
X148115000Y-63730874D01*
X148272569Y-64111280D01*
X148563720Y-64402431D01*
X148944126Y-64560000D01*
X149355874Y-64560000D01*
X149736280Y-64402431D01*
X149778711Y-64360000D01*
X158679133Y-64360000D01*
X159265001Y-64945869D01*
X159265000Y-67271289D01*
X159222569Y-67313720D01*
X159065000Y-67694126D01*
X159065000Y-68105874D01*
X159222569Y-68486280D01*
X159513720Y-68777431D01*
X159894126Y-68935000D01*
X160305874Y-68935000D01*
X160686280Y-68777431D01*
X160977431Y-68486280D01*
X161135000Y-68105874D01*
X161135000Y-67694126D01*
X160977431Y-67313720D01*
X160935000Y-67271289D01*
X160935000Y-64682237D01*
X160951358Y-64600000D01*
X160886552Y-64274200D01*
X160886552Y-64274199D01*
X160702001Y-63997999D01*
X160632282Y-63951415D01*
X159673587Y-62992720D01*
X159627001Y-62922999D01*
X159350801Y-62738448D01*
X159107237Y-62690000D01*
X159107233Y-62690000D01*
X159025000Y-62673643D01*
X158942767Y-62690000D01*
X153824446Y-62690000D01*
X159834446Y-56680000D01*
X162105908Y-56680000D01*
X162221161Y-57259418D01*
X162549375Y-57750625D01*
X162847761Y-57950000D01*
X162549375Y-58149375D01*
X162221161Y-58640582D01*
X162105908Y-59220000D01*
X162221161Y-59799418D01*
X162549375Y-60290625D01*
X162567619Y-60302816D01*
X162522235Y-60311843D01*
X162312191Y-60452191D01*
X162171843Y-60662235D01*
X162122560Y-60910000D01*
X162122560Y-62610000D01*
X162171843Y-62857765D01*
X162312191Y-63067809D01*
X162522235Y-63208157D01*
X162770000Y-63257440D01*
X164470000Y-63257440D01*
X164717765Y-63208157D01*
X164927809Y-63067809D01*
X165068157Y-62857765D01*
X165117440Y-62610000D01*
X165117440Y-60910000D01*
X165068157Y-60662235D01*
X164927809Y-60452191D01*
X164717765Y-60311843D01*
X164672381Y-60302816D01*
X164690625Y-60290625D01*
X165018839Y-59799418D01*
X165134092Y-59220000D01*
X165018839Y-58640582D01*
X164690625Y-58149375D01*
X164392239Y-57950000D01*
X164690625Y-57750625D01*
X165018839Y-57259418D01*
X165134092Y-56680000D01*
X165018839Y-56100582D01*
X164690625Y-55609375D01*
X164199418Y-55281161D01*
X163766256Y-55195000D01*
X163473744Y-55195000D01*
X163040582Y-55281161D01*
X162549375Y-55609375D01*
X162221161Y-56100582D01*
X162105908Y-56680000D01*
X159834446Y-56680000D01*
X162554447Y-53960000D01*
X168757000Y-53960000D01*
X168757000Y-54315881D01*
X168969680Y-54829337D01*
X169362663Y-55222320D01*
X169876119Y-55435000D01*
X170431881Y-55435000D01*
X170945337Y-55222320D01*
X171338320Y-54829337D01*
X171551000Y-54315881D01*
X171551000Y-53760119D01*
X171338320Y-53246663D01*
X170945337Y-52853680D01*
X170658556Y-52734892D01*
X172741775Y-50651674D01*
X173156582Y-50928839D01*
X173589744Y-51015000D01*
X173882256Y-51015000D01*
X174315418Y-50928839D01*
X174806625Y-50600625D01*
X175006000Y-50302239D01*
X175205375Y-50600625D01*
X175696582Y-50928839D01*
X176129744Y-51015000D01*
X176422256Y-51015000D01*
X176641002Y-50971489D01*
X176641001Y-52641000D01*
X176376119Y-52641000D01*
X175862663Y-52853680D01*
X175469680Y-53246663D01*
X175257000Y-53760119D01*
X175257000Y-54315881D01*
X175469680Y-54829337D01*
X175862663Y-55222320D01*
X176376119Y-55435000D01*
X176931881Y-55435000D01*
X177445337Y-55222320D01*
X177838320Y-54829337D01*
X178051000Y-54315881D01*
X178051000Y-53836042D01*
X178078002Y-53818000D01*
X178262553Y-53541800D01*
X178311001Y-53298236D01*
X178311001Y-53298235D01*
X178327359Y-53215999D01*
X178311001Y-53133762D01*
X178311001Y-49036231D01*
X178327358Y-48953998D01*
X178311001Y-48871765D01*
X178311001Y-48871762D01*
X178262553Y-48628198D01*
X178078002Y-48351998D01*
X178008286Y-48305415D01*
X177500588Y-47797718D01*
X177454002Y-47727998D01*
X177177802Y-47543447D01*
X176934238Y-47494999D01*
X176934234Y-47494999D01*
X176852001Y-47478642D01*
X176769768Y-47494999D01*
X164858238Y-47494999D01*
X164776001Y-47478641D01*
X164693764Y-47494999D01*
X164450200Y-47543447D01*
X164174000Y-47727998D01*
X164127416Y-47797717D01*
X163892572Y-48032560D01*
X162726000Y-48032560D01*
X162478235Y-48081843D01*
X162268191Y-48222191D01*
X162127843Y-48432235D01*
X162078560Y-48680000D01*
X162078560Y-50380000D01*
X162127843Y-50627765D01*
X162268191Y-50837809D01*
X162478235Y-50978157D01*
X162487195Y-50979939D01*
X161555000Y-51912134D01*
X161555000Y-51046954D01*
X161001604Y-49710938D01*
X159979062Y-48688396D01*
X158643046Y-48135000D01*
X157196954Y-48135000D01*
X155860938Y-48688396D01*
X154838396Y-49710938D01*
X154285000Y-51046954D01*
X154285000Y-52493046D01*
X154838396Y-53829062D01*
X155860938Y-54851604D01*
X157196954Y-55405000D01*
X158062135Y-55405000D01*
X153477135Y-59990000D01*
X149828711Y-59990000D01*
X149786280Y-59947569D01*
X149405874Y-59790000D01*
X149352614Y-59790000D01*
X149256942Y-59726074D01*
X144623587Y-55092720D01*
X144577001Y-55022999D01*
X144300801Y-54838448D01*
X144057237Y-54790000D01*
X144057233Y-54790000D01*
X143975000Y-54773643D01*
X143892767Y-54790000D01*
X128832237Y-54790000D01*
X128750000Y-54773642D01*
X128667763Y-54790000D01*
X123273232Y-54790000D01*
X123190999Y-54773643D01*
X123108766Y-54790000D01*
X123108763Y-54790000D01*
X123023757Y-54806909D01*
X124001604Y-53829062D01*
X124555000Y-52493046D01*
X124555000Y-51046954D01*
X124347033Y-50544875D01*
X129049370Y-50544875D01*
X129049370Y-52244875D01*
X129098653Y-52492640D01*
X129239001Y-52702684D01*
X129449045Y-52843032D01*
X129696810Y-52892315D01*
X131396810Y-52892315D01*
X131644575Y-52843032D01*
X131854619Y-52702684D01*
X131994967Y-52492640D01*
X132003994Y-52447256D01*
X132016185Y-52465500D01*
X132507392Y-52793714D01*
X132940554Y-52879875D01*
X133233066Y-52879875D01*
X133666228Y-52793714D01*
X134157435Y-52465500D01*
X134356810Y-52167114D01*
X134556185Y-52465500D01*
X135047392Y-52793714D01*
X135480554Y-52879875D01*
X135773066Y-52879875D01*
X136206228Y-52793714D01*
X136697435Y-52465500D01*
X136896810Y-52167114D01*
X137096185Y-52465500D01*
X137587392Y-52793714D01*
X138020554Y-52879875D01*
X138313066Y-52879875D01*
X138746228Y-52793714D01*
X139237435Y-52465500D01*
X139436810Y-52167114D01*
X139636185Y-52465500D01*
X140127392Y-52793714D01*
X140560554Y-52879875D01*
X140853066Y-52879875D01*
X141286228Y-52793714D01*
X141777435Y-52465500D01*
X141976810Y-52167114D01*
X142176185Y-52465500D01*
X142667392Y-52793714D01*
X143100554Y-52879875D01*
X143393066Y-52879875D01*
X143826228Y-52793714D01*
X144317435Y-52465500D01*
X144516810Y-52167114D01*
X144716185Y-52465500D01*
X145207392Y-52793714D01*
X145640554Y-52879875D01*
X145933066Y-52879875D01*
X146366228Y-52793714D01*
X146857435Y-52465500D01*
X147056810Y-52167114D01*
X147256185Y-52465500D01*
X147747392Y-52793714D01*
X148180554Y-52879875D01*
X148473066Y-52879875D01*
X148906228Y-52793714D01*
X149397435Y-52465500D01*
X149725649Y-51974293D01*
X149840902Y-51394875D01*
X149725649Y-50815457D01*
X149397435Y-50324250D01*
X148906228Y-49996036D01*
X148473066Y-49909875D01*
X148180554Y-49909875D01*
X147747392Y-49996036D01*
X147256185Y-50324250D01*
X147056810Y-50622636D01*
X146857435Y-50324250D01*
X146366228Y-49996036D01*
X145933066Y-49909875D01*
X145640554Y-49909875D01*
X145207392Y-49996036D01*
X144716185Y-50324250D01*
X144516810Y-50622636D01*
X144317435Y-50324250D01*
X143826228Y-49996036D01*
X143393066Y-49909875D01*
X143100554Y-49909875D01*
X142667392Y-49996036D01*
X142176185Y-50324250D01*
X141976810Y-50622636D01*
X141777435Y-50324250D01*
X141286228Y-49996036D01*
X140853066Y-49909875D01*
X140560554Y-49909875D01*
X140127392Y-49996036D01*
X139636185Y-50324250D01*
X139436810Y-50622636D01*
X139237435Y-50324250D01*
X138746228Y-49996036D01*
X138313066Y-49909875D01*
X138020554Y-49909875D01*
X137587392Y-49996036D01*
X137096185Y-50324250D01*
X136896810Y-50622636D01*
X136697435Y-50324250D01*
X136206228Y-49996036D01*
X135773066Y-49909875D01*
X135480554Y-49909875D01*
X135047392Y-49996036D01*
X134556185Y-50324250D01*
X134356810Y-50622636D01*
X134157435Y-50324250D01*
X133666228Y-49996036D01*
X133233066Y-49909875D01*
X132940554Y-49909875D01*
X132507392Y-49996036D01*
X132016185Y-50324250D01*
X132003994Y-50342494D01*
X131994967Y-50297110D01*
X131854619Y-50087066D01*
X131644575Y-49946718D01*
X131396810Y-49897435D01*
X129696810Y-49897435D01*
X129449045Y-49946718D01*
X129239001Y-50087066D01*
X129098653Y-50297110D01*
X129049370Y-50544875D01*
X124347033Y-50544875D01*
X124001604Y-49710938D01*
X122979062Y-48688396D01*
X121643046Y-48135000D01*
X120196954Y-48135000D01*
X118860938Y-48688396D01*
X117838396Y-49710938D01*
X117285000Y-51046954D01*
X117285000Y-52493046D01*
X117838396Y-53829062D01*
X118860938Y-54851604D01*
X120196954Y-55405000D01*
X121643046Y-55405000D01*
X122627688Y-54997148D01*
X122588999Y-55022999D01*
X122542415Y-55092717D01*
X113234133Y-64401000D01*
X112754506Y-64401000D01*
X112245460Y-64611853D01*
X111855853Y-65001460D01*
X111766603Y-65216930D01*
X111702460Y-65062077D01*
X111461517Y-64994088D01*
X110669605Y-65786000D01*
X110310395Y-65786000D01*
X109518483Y-64994088D01*
X109277540Y-65062077D01*
X109218255Y-65228658D01*
X109124147Y-65001460D01*
X108937170Y-64814483D01*
X109698088Y-64814483D01*
X110490000Y-65606395D01*
X111281912Y-64814483D01*
X111213923Y-64573540D01*
X110694829Y-64388799D01*
X110144552Y-64416770D01*
X109766077Y-64573540D01*
X109698088Y-64814483D01*
X108937170Y-64814483D01*
X108734540Y-64611853D01*
X108225494Y-64401000D01*
X107674506Y-64401000D01*
X107165460Y-64611853D01*
X106775853Y-65001460D01*
X106680000Y-65232870D01*
X106584147Y-65001460D01*
X106194540Y-64611853D01*
X105685494Y-64401000D01*
X105134506Y-64401000D01*
X104625460Y-64611853D01*
X104235853Y-65001460D01*
X104146603Y-65216930D01*
X104082460Y-65062077D01*
X103841517Y-64994088D01*
X103049605Y-65786000D01*
X102690395Y-65786000D01*
X101898483Y-64994088D01*
X101657540Y-65062077D01*
X101598255Y-65228658D01*
X101504147Y-65001460D01*
X101317170Y-64814483D01*
X102078088Y-64814483D01*
X102870000Y-65606395D01*
X103661912Y-64814483D01*
X103593923Y-64573540D01*
X103074829Y-64388799D01*
X102524552Y-64416770D01*
X102146077Y-64573540D01*
X102078088Y-64814483D01*
X101317170Y-64814483D01*
X101114540Y-64611853D01*
X100605494Y-64401000D01*
X100054506Y-64401000D01*
X99545460Y-64611853D01*
X99176469Y-64980844D01*
X99138157Y-64788235D01*
X98997809Y-64578191D01*
X98787765Y-64437843D01*
X98540000Y-64388560D01*
X97040000Y-64388560D01*
X96792235Y-64437843D01*
X96582191Y-64578191D01*
X96441843Y-64788235D01*
X96392560Y-65036000D01*
X96010000Y-65036000D01*
X96010000Y-50071594D01*
X96675000Y-50071594D01*
X96675000Y-51020406D01*
X97038095Y-51896994D01*
X97709006Y-52567905D01*
X98585594Y-52931000D01*
X99534406Y-52931000D01*
X99825303Y-52810506D01*
X104025000Y-52810506D01*
X104025000Y-53361494D01*
X104235853Y-53870540D01*
X104625460Y-54260147D01*
X105134506Y-54471000D01*
X105685494Y-54471000D01*
X106194540Y-54260147D01*
X106584147Y-53870540D01*
X106680000Y-53639130D01*
X106775853Y-53870540D01*
X107165460Y-54260147D01*
X107674506Y-54471000D01*
X108225494Y-54471000D01*
X108734540Y-54260147D01*
X109124147Y-53870540D01*
X109220000Y-53639130D01*
X109315853Y-53870540D01*
X109705460Y-54260147D01*
X110214506Y-54471000D01*
X110765494Y-54471000D01*
X111274540Y-54260147D01*
X111664147Y-53870540D01*
X111875000Y-53361494D01*
X111875000Y-52810506D01*
X111664147Y-52301460D01*
X111274540Y-51911853D01*
X110765494Y-51701000D01*
X110214506Y-51701000D01*
X109705460Y-51911853D01*
X109315853Y-52301460D01*
X109220000Y-52532870D01*
X109124147Y-52301460D01*
X108734540Y-51911853D01*
X108225494Y-51701000D01*
X107674506Y-51701000D01*
X107165460Y-51911853D01*
X106775853Y-52301460D01*
X106680000Y-52532870D01*
X106584147Y-52301460D01*
X106194540Y-51911853D01*
X105685494Y-51701000D01*
X105134506Y-51701000D01*
X104625460Y-51911853D01*
X104235853Y-52301460D01*
X104025000Y-52810506D01*
X99825303Y-52810506D01*
X100410994Y-52567905D01*
X101081905Y-51896994D01*
X101445000Y-51020406D01*
X101445000Y-50071594D01*
X111915000Y-50071594D01*
X111915000Y-51020406D01*
X112278095Y-51896994D01*
X112949006Y-52567905D01*
X113825594Y-52931000D01*
X114774406Y-52931000D01*
X115650994Y-52567905D01*
X116321905Y-51896994D01*
X116685000Y-51020406D01*
X116685000Y-50071594D01*
X116321905Y-49195006D01*
X115650994Y-48524095D01*
X114774406Y-48161000D01*
X113825594Y-48161000D01*
X112949006Y-48524095D01*
X112278095Y-49195006D01*
X111915000Y-50071594D01*
X101445000Y-50071594D01*
X101081905Y-49195006D01*
X100410994Y-48524095D01*
X99534406Y-48161000D01*
X98585594Y-48161000D01*
X97709006Y-48524095D01*
X97038095Y-49195006D01*
X96675000Y-50071594D01*
X96010000Y-50071594D01*
X96010000Y-47110000D01*
X182390000Y-47110000D01*
X182390001Y-93790000D01*
G36*
X148126416Y-60957284D02*
X148165000Y-61015029D01*
X148165000Y-61030874D01*
X148322569Y-61411280D01*
X148613720Y-61702431D01*
X148994126Y-61860000D01*
X149405874Y-61860000D01*
X149786280Y-61702431D01*
X149828711Y-61660000D01*
X152775554Y-61660000D01*
X152570553Y-61865001D01*
X143435000Y-61865001D01*
X143435000Y-61744126D01*
X143277431Y-61363720D01*
X142986280Y-61072569D01*
X142605874Y-60915000D01*
X142404447Y-60915000D01*
X140620911Y-59131465D01*
X140579905Y-59070095D01*
X140336783Y-58907646D01*
X140122388Y-58865000D01*
X140122384Y-58865000D01*
X140050000Y-58850602D01*
X139977616Y-58865000D01*
X129731220Y-58865000D01*
X129735000Y-58855874D01*
X129735000Y-58444126D01*
X129577431Y-58063720D01*
X129535000Y-58021289D01*
X129535000Y-56460000D01*
X143629133Y-56460000D01*
X148126416Y-60957284D01*
X148126416Y-60957284D01*
G37*
X148126416Y-60957284D02*
X148165000Y-61015029D01*
X148165000Y-61030874D01*
X148322569Y-61411280D01*
X148613720Y-61702431D01*
X148994126Y-61860000D01*
X149405874Y-61860000D01*
X149786280Y-61702431D01*
X149828711Y-61660000D01*
X152775554Y-61660000D01*
X152570553Y-61865001D01*
X143435000Y-61865001D01*
X143435000Y-61744126D01*
X143277431Y-61363720D01*
X142986280Y-61072569D01*
X142605874Y-60915000D01*
X142404447Y-60915000D01*
X140620911Y-59131465D01*
X140579905Y-59070095D01*
X140336783Y-58907646D01*
X140122388Y-58865000D01*
X140122384Y-58865000D01*
X140050000Y-58850602D01*
X139977616Y-58865000D01*
X129731220Y-58865000D01*
X129735000Y-58855874D01*
X129735000Y-58444126D01*
X129577431Y-58063720D01*
X129535000Y-58021289D01*
X129535000Y-56460000D01*
X143629133Y-56460000D01*
X148126416Y-60957284D01*
G36*
X168783000Y-49403000D02*
X168803000Y-49403000D01*
X168803000Y-49657000D01*
X168783000Y-49657000D01*
X168783000Y-50850155D01*
X169012890Y-50971476D01*
X169422924Y-50801645D01*
X169851183Y-50411358D01*
X169912157Y-50281522D01*
X170125375Y-50600625D01*
X170478188Y-50836367D01*
X168824556Y-52490000D01*
X163338870Y-52490000D01*
X164108283Y-51720587D01*
X164178001Y-51674003D01*
X164362552Y-51397803D01*
X164411000Y-51154239D01*
X164411000Y-51154236D01*
X164427357Y-51072003D01*
X164418493Y-51027440D01*
X164426000Y-51027440D01*
X164673765Y-50978157D01*
X164883809Y-50837809D01*
X165024157Y-50627765D01*
X165033184Y-50582381D01*
X165045375Y-50600625D01*
X165536582Y-50928839D01*
X165969744Y-51015000D01*
X166262256Y-51015000D01*
X166695418Y-50928839D01*
X167186625Y-50600625D01*
X167399843Y-50281522D01*
X167460817Y-50411358D01*
X167889076Y-50801645D01*
X168299110Y-50971476D01*
X168529000Y-50850155D01*
X168529000Y-49657000D01*
X168509000Y-49657000D01*
X168509000Y-49403000D01*
X168529000Y-49403000D01*
X168529000Y-49383000D01*
X168783000Y-49383000D01*
X168783000Y-49403000D01*
X168783000Y-49403000D01*
G37*
X168783000Y-49403000D02*
X168803000Y-49403000D01*
X168803000Y-49657000D01*
X168783000Y-49657000D01*
X168783000Y-50850155D01*
X169012890Y-50971476D01*
X169422924Y-50801645D01*
X169851183Y-50411358D01*
X169912157Y-50281522D01*
X170125375Y-50600625D01*
X170478188Y-50836367D01*
X168824556Y-52490000D01*
X163338870Y-52490000D01*
X164108283Y-51720587D01*
X164178001Y-51674003D01*
X164362552Y-51397803D01*
X164411000Y-51154239D01*
X164411000Y-51154236D01*
X164427357Y-51072003D01*
X164418493Y-51027440D01*
X164426000Y-51027440D01*
X164673765Y-50978157D01*
X164883809Y-50837809D01*
X165024157Y-50627765D01*
X165033184Y-50582381D01*
X165045375Y-50600625D01*
X165536582Y-50928839D01*
X165969744Y-51015000D01*
X166262256Y-51015000D01*
X166695418Y-50928839D01*
X167186625Y-50600625D01*
X167399843Y-50281522D01*
X167460817Y-50411358D01*
X167889076Y-50801645D01*
X168299110Y-50971476D01*
X168529000Y-50850155D01*
X168529000Y-49657000D01*
X168509000Y-49657000D01*
X168509000Y-49403000D01*
X168529000Y-49403000D01*
X168529000Y-49383000D01*
X168783000Y-49383000D01*
X168783000Y-49403000D01*
G04 #@! TD*
M02*
