G04 #@! TF.GenerationSoftware,KiCad,Pcbnew,(5.0.2)-1*
G04 #@! TF.CreationDate,2019-01-30T15:42:14+01:00*
G04 #@! TF.ProjectId,lab,6c61622e-6b69-4636-9164-5f7063625858,rev?*
G04 #@! TF.SameCoordinates,Original*
G04 #@! TF.FileFunction,Copper,L1,Top*
G04 #@! TF.FilePolarity,Positive*
%FSLAX46Y46*%
G04 Gerber Fmt 4.6, Leading zero omitted, Abs format (unit mm)*
G04 Created by KiCad (PCBNEW (5.0.2)-1) date 30/01/2019 15:42:14*
%MOMM*%
%LPD*%
G01*
G04 APERTURE LIST*
G04 #@! TA.AperFunction,SMDPad,CuDef*
%ADD10R,2.000000X7.875000*%
G04 #@! TD*
G04 #@! TA.AperFunction,ComponentPad*
%ADD11C,1.600000*%
G04 #@! TD*
G04 #@! TA.AperFunction,ComponentPad*
%ADD12R,1.600000X1.600000*%
G04 #@! TD*
G04 #@! TA.AperFunction,Conductor*
%ADD13C,0.100000*%
G04 #@! TD*
G04 #@! TA.AperFunction,SMDPad,CuDef*
%ADD14C,1.150000*%
G04 #@! TD*
G04 #@! TA.AperFunction,SMDPad,CuDef*
%ADD15R,0.500000X2.000000*%
G04 #@! TD*
G04 #@! TA.AperFunction,SMDPad,CuDef*
%ADD16R,2.000000X1.700000*%
G04 #@! TD*
G04 #@! TA.AperFunction,ComponentPad*
%ADD17R,1.700000X1.700000*%
G04 #@! TD*
G04 #@! TA.AperFunction,ComponentPad*
%ADD18O,1.700000X1.700000*%
G04 #@! TD*
G04 #@! TA.AperFunction,SMDPad,CuDef*
%ADD19R,1.000000X0.250000*%
G04 #@! TD*
G04 #@! TA.AperFunction,SMDPad,CuDef*
%ADD20R,0.250000X1.000000*%
G04 #@! TD*
G04 #@! TA.AperFunction,SMDPad,CuDef*
%ADD21R,2.000000X3.800000*%
G04 #@! TD*
G04 #@! TA.AperFunction,SMDPad,CuDef*
%ADD22R,2.000000X1.500000*%
G04 #@! TD*
G04 #@! TA.AperFunction,ViaPad*
%ADD23C,0.800000*%
G04 #@! TD*
G04 #@! TA.AperFunction,Conductor*
%ADD24C,0.300000*%
G04 #@! TD*
G04 #@! TA.AperFunction,Conductor*
%ADD25C,0.400000*%
G04 #@! TD*
G04 #@! TA.AperFunction,Conductor*
%ADD26C,0.200000*%
G04 #@! TD*
G04 #@! TA.AperFunction,Conductor*
%ADD27C,0.254000*%
G04 #@! TD*
G04 APERTURE END LIST*
D10*
G04 #@! TO.P,Y1,2*
G04 #@! TO.N,/XTAL+*
X55000000Y-47437500D03*
G04 #@! TO.P,Y1,1*
G04 #@! TO.N,/XTAL-*
X55000000Y-35562500D03*
G04 #@! TD*
D11*
G04 #@! TO.P,C1,2*
G04 #@! TO.N,GND*
X23000000Y-38000000D03*
D12*
G04 #@! TO.P,C1,1*
G04 #@! TO.N,+5V*
X25000000Y-38000000D03*
G04 #@! TD*
D13*
G04 #@! TO.N,GND*
G04 #@! TO.C,C2*
G36*
X39324505Y-51301204D02*
X39348773Y-51304804D01*
X39372572Y-51310765D01*
X39395671Y-51319030D01*
X39417850Y-51329520D01*
X39438893Y-51342132D01*
X39458599Y-51356747D01*
X39476777Y-51373223D01*
X39493253Y-51391401D01*
X39507868Y-51411107D01*
X39520480Y-51432150D01*
X39530970Y-51454329D01*
X39539235Y-51477428D01*
X39545196Y-51501227D01*
X39548796Y-51525495D01*
X39550000Y-51549999D01*
X39550000Y-52450001D01*
X39548796Y-52474505D01*
X39545196Y-52498773D01*
X39539235Y-52522572D01*
X39530970Y-52545671D01*
X39520480Y-52567850D01*
X39507868Y-52588893D01*
X39493253Y-52608599D01*
X39476777Y-52626777D01*
X39458599Y-52643253D01*
X39438893Y-52657868D01*
X39417850Y-52670480D01*
X39395671Y-52680970D01*
X39372572Y-52689235D01*
X39348773Y-52695196D01*
X39324505Y-52698796D01*
X39300001Y-52700000D01*
X38649999Y-52700000D01*
X38625495Y-52698796D01*
X38601227Y-52695196D01*
X38577428Y-52689235D01*
X38554329Y-52680970D01*
X38532150Y-52670480D01*
X38511107Y-52657868D01*
X38491401Y-52643253D01*
X38473223Y-52626777D01*
X38456747Y-52608599D01*
X38442132Y-52588893D01*
X38429520Y-52567850D01*
X38419030Y-52545671D01*
X38410765Y-52522572D01*
X38404804Y-52498773D01*
X38401204Y-52474505D01*
X38400000Y-52450001D01*
X38400000Y-51549999D01*
X38401204Y-51525495D01*
X38404804Y-51501227D01*
X38410765Y-51477428D01*
X38419030Y-51454329D01*
X38429520Y-51432150D01*
X38442132Y-51411107D01*
X38456747Y-51391401D01*
X38473223Y-51373223D01*
X38491401Y-51356747D01*
X38511107Y-51342132D01*
X38532150Y-51329520D01*
X38554329Y-51319030D01*
X38577428Y-51310765D01*
X38601227Y-51304804D01*
X38625495Y-51301204D01*
X38649999Y-51300000D01*
X39300001Y-51300000D01*
X39324505Y-51301204D01*
X39324505Y-51301204D01*
G37*
D14*
G04 #@! TD*
G04 #@! TO.P,C2,2*
G04 #@! TO.N,GND*
X38975000Y-52000000D03*
D13*
G04 #@! TO.N,+3V3*
G04 #@! TO.C,C2*
G36*
X41374505Y-51301204D02*
X41398773Y-51304804D01*
X41422572Y-51310765D01*
X41445671Y-51319030D01*
X41467850Y-51329520D01*
X41488893Y-51342132D01*
X41508599Y-51356747D01*
X41526777Y-51373223D01*
X41543253Y-51391401D01*
X41557868Y-51411107D01*
X41570480Y-51432150D01*
X41580970Y-51454329D01*
X41589235Y-51477428D01*
X41595196Y-51501227D01*
X41598796Y-51525495D01*
X41600000Y-51549999D01*
X41600000Y-52450001D01*
X41598796Y-52474505D01*
X41595196Y-52498773D01*
X41589235Y-52522572D01*
X41580970Y-52545671D01*
X41570480Y-52567850D01*
X41557868Y-52588893D01*
X41543253Y-52608599D01*
X41526777Y-52626777D01*
X41508599Y-52643253D01*
X41488893Y-52657868D01*
X41467850Y-52670480D01*
X41445671Y-52680970D01*
X41422572Y-52689235D01*
X41398773Y-52695196D01*
X41374505Y-52698796D01*
X41350001Y-52700000D01*
X40699999Y-52700000D01*
X40675495Y-52698796D01*
X40651227Y-52695196D01*
X40627428Y-52689235D01*
X40604329Y-52680970D01*
X40582150Y-52670480D01*
X40561107Y-52657868D01*
X40541401Y-52643253D01*
X40523223Y-52626777D01*
X40506747Y-52608599D01*
X40492132Y-52588893D01*
X40479520Y-52567850D01*
X40469030Y-52545671D01*
X40460765Y-52522572D01*
X40454804Y-52498773D01*
X40451204Y-52474505D01*
X40450000Y-52450001D01*
X40450000Y-51549999D01*
X40451204Y-51525495D01*
X40454804Y-51501227D01*
X40460765Y-51477428D01*
X40469030Y-51454329D01*
X40479520Y-51432150D01*
X40492132Y-51411107D01*
X40506747Y-51391401D01*
X40523223Y-51373223D01*
X40541401Y-51356747D01*
X40561107Y-51342132D01*
X40582150Y-51329520D01*
X40604329Y-51319030D01*
X40627428Y-51310765D01*
X40651227Y-51304804D01*
X40675495Y-51301204D01*
X40699999Y-51300000D01*
X41350001Y-51300000D01*
X41374505Y-51301204D01*
X41374505Y-51301204D01*
G37*
D14*
G04 #@! TD*
G04 #@! TO.P,C2,1*
G04 #@! TO.N,+3V3*
X41025000Y-52000000D03*
D13*
G04 #@! TO.N,+5V*
G04 #@! TO.C,C3*
G36*
X29374505Y-23301204D02*
X29398773Y-23304804D01*
X29422572Y-23310765D01*
X29445671Y-23319030D01*
X29467850Y-23329520D01*
X29488893Y-23342132D01*
X29508599Y-23356747D01*
X29526777Y-23373223D01*
X29543253Y-23391401D01*
X29557868Y-23411107D01*
X29570480Y-23432150D01*
X29580970Y-23454329D01*
X29589235Y-23477428D01*
X29595196Y-23501227D01*
X29598796Y-23525495D01*
X29600000Y-23549999D01*
X29600000Y-24450001D01*
X29598796Y-24474505D01*
X29595196Y-24498773D01*
X29589235Y-24522572D01*
X29580970Y-24545671D01*
X29570480Y-24567850D01*
X29557868Y-24588893D01*
X29543253Y-24608599D01*
X29526777Y-24626777D01*
X29508599Y-24643253D01*
X29488893Y-24657868D01*
X29467850Y-24670480D01*
X29445671Y-24680970D01*
X29422572Y-24689235D01*
X29398773Y-24695196D01*
X29374505Y-24698796D01*
X29350001Y-24700000D01*
X28699999Y-24700000D01*
X28675495Y-24698796D01*
X28651227Y-24695196D01*
X28627428Y-24689235D01*
X28604329Y-24680970D01*
X28582150Y-24670480D01*
X28561107Y-24657868D01*
X28541401Y-24643253D01*
X28523223Y-24626777D01*
X28506747Y-24608599D01*
X28492132Y-24588893D01*
X28479520Y-24567850D01*
X28469030Y-24545671D01*
X28460765Y-24522572D01*
X28454804Y-24498773D01*
X28451204Y-24474505D01*
X28450000Y-24450001D01*
X28450000Y-23549999D01*
X28451204Y-23525495D01*
X28454804Y-23501227D01*
X28460765Y-23477428D01*
X28469030Y-23454329D01*
X28479520Y-23432150D01*
X28492132Y-23411107D01*
X28506747Y-23391401D01*
X28523223Y-23373223D01*
X28541401Y-23356747D01*
X28561107Y-23342132D01*
X28582150Y-23329520D01*
X28604329Y-23319030D01*
X28627428Y-23310765D01*
X28651227Y-23304804D01*
X28675495Y-23301204D01*
X28699999Y-23300000D01*
X29350001Y-23300000D01*
X29374505Y-23301204D01*
X29374505Y-23301204D01*
G37*
D14*
G04 #@! TD*
G04 #@! TO.P,C3,1*
G04 #@! TO.N,+5V*
X29025000Y-24000000D03*
D13*
G04 #@! TO.N,GND*
G04 #@! TO.C,C3*
G36*
X27324505Y-23301204D02*
X27348773Y-23304804D01*
X27372572Y-23310765D01*
X27395671Y-23319030D01*
X27417850Y-23329520D01*
X27438893Y-23342132D01*
X27458599Y-23356747D01*
X27476777Y-23373223D01*
X27493253Y-23391401D01*
X27507868Y-23411107D01*
X27520480Y-23432150D01*
X27530970Y-23454329D01*
X27539235Y-23477428D01*
X27545196Y-23501227D01*
X27548796Y-23525495D01*
X27550000Y-23549999D01*
X27550000Y-24450001D01*
X27548796Y-24474505D01*
X27545196Y-24498773D01*
X27539235Y-24522572D01*
X27530970Y-24545671D01*
X27520480Y-24567850D01*
X27507868Y-24588893D01*
X27493253Y-24608599D01*
X27476777Y-24626777D01*
X27458599Y-24643253D01*
X27438893Y-24657868D01*
X27417850Y-24670480D01*
X27395671Y-24680970D01*
X27372572Y-24689235D01*
X27348773Y-24695196D01*
X27324505Y-24698796D01*
X27300001Y-24700000D01*
X26649999Y-24700000D01*
X26625495Y-24698796D01*
X26601227Y-24695196D01*
X26577428Y-24689235D01*
X26554329Y-24680970D01*
X26532150Y-24670480D01*
X26511107Y-24657868D01*
X26491401Y-24643253D01*
X26473223Y-24626777D01*
X26456747Y-24608599D01*
X26442132Y-24588893D01*
X26429520Y-24567850D01*
X26419030Y-24545671D01*
X26410765Y-24522572D01*
X26404804Y-24498773D01*
X26401204Y-24474505D01*
X26400000Y-24450001D01*
X26400000Y-23549999D01*
X26401204Y-23525495D01*
X26404804Y-23501227D01*
X26410765Y-23477428D01*
X26419030Y-23454329D01*
X26429520Y-23432150D01*
X26442132Y-23411107D01*
X26456747Y-23391401D01*
X26473223Y-23373223D01*
X26491401Y-23356747D01*
X26511107Y-23342132D01*
X26532150Y-23329520D01*
X26554329Y-23319030D01*
X26577428Y-23310765D01*
X26601227Y-23304804D01*
X26625495Y-23301204D01*
X26649999Y-23300000D01*
X27300001Y-23300000D01*
X27324505Y-23301204D01*
X27324505Y-23301204D01*
G37*
D14*
G04 #@! TD*
G04 #@! TO.P,C3,2*
G04 #@! TO.N,GND*
X26975000Y-24000000D03*
D13*
G04 #@! TO.N,GND*
G04 #@! TO.C,C4*
G36*
X29474505Y-37451204D02*
X29498773Y-37454804D01*
X29522572Y-37460765D01*
X29545671Y-37469030D01*
X29567850Y-37479520D01*
X29588893Y-37492132D01*
X29608599Y-37506747D01*
X29626777Y-37523223D01*
X29643253Y-37541401D01*
X29657868Y-37561107D01*
X29670480Y-37582150D01*
X29680970Y-37604329D01*
X29689235Y-37627428D01*
X29695196Y-37651227D01*
X29698796Y-37675495D01*
X29700000Y-37699999D01*
X29700000Y-38350001D01*
X29698796Y-38374505D01*
X29695196Y-38398773D01*
X29689235Y-38422572D01*
X29680970Y-38445671D01*
X29670480Y-38467850D01*
X29657868Y-38488893D01*
X29643253Y-38508599D01*
X29626777Y-38526777D01*
X29608599Y-38543253D01*
X29588893Y-38557868D01*
X29567850Y-38570480D01*
X29545671Y-38580970D01*
X29522572Y-38589235D01*
X29498773Y-38595196D01*
X29474505Y-38598796D01*
X29450001Y-38600000D01*
X28549999Y-38600000D01*
X28525495Y-38598796D01*
X28501227Y-38595196D01*
X28477428Y-38589235D01*
X28454329Y-38580970D01*
X28432150Y-38570480D01*
X28411107Y-38557868D01*
X28391401Y-38543253D01*
X28373223Y-38526777D01*
X28356747Y-38508599D01*
X28342132Y-38488893D01*
X28329520Y-38467850D01*
X28319030Y-38445671D01*
X28310765Y-38422572D01*
X28304804Y-38398773D01*
X28301204Y-38374505D01*
X28300000Y-38350001D01*
X28300000Y-37699999D01*
X28301204Y-37675495D01*
X28304804Y-37651227D01*
X28310765Y-37627428D01*
X28319030Y-37604329D01*
X28329520Y-37582150D01*
X28342132Y-37561107D01*
X28356747Y-37541401D01*
X28373223Y-37523223D01*
X28391401Y-37506747D01*
X28411107Y-37492132D01*
X28432150Y-37479520D01*
X28454329Y-37469030D01*
X28477428Y-37460765D01*
X28501227Y-37454804D01*
X28525495Y-37451204D01*
X28549999Y-37450000D01*
X29450001Y-37450000D01*
X29474505Y-37451204D01*
X29474505Y-37451204D01*
G37*
D14*
G04 #@! TD*
G04 #@! TO.P,C4,2*
G04 #@! TO.N,GND*
X29000000Y-38025000D03*
D13*
G04 #@! TO.N,Net-(C4-Pad1)*
G04 #@! TO.C,C4*
G36*
X29474505Y-35401204D02*
X29498773Y-35404804D01*
X29522572Y-35410765D01*
X29545671Y-35419030D01*
X29567850Y-35429520D01*
X29588893Y-35442132D01*
X29608599Y-35456747D01*
X29626777Y-35473223D01*
X29643253Y-35491401D01*
X29657868Y-35511107D01*
X29670480Y-35532150D01*
X29680970Y-35554329D01*
X29689235Y-35577428D01*
X29695196Y-35601227D01*
X29698796Y-35625495D01*
X29700000Y-35649999D01*
X29700000Y-36300001D01*
X29698796Y-36324505D01*
X29695196Y-36348773D01*
X29689235Y-36372572D01*
X29680970Y-36395671D01*
X29670480Y-36417850D01*
X29657868Y-36438893D01*
X29643253Y-36458599D01*
X29626777Y-36476777D01*
X29608599Y-36493253D01*
X29588893Y-36507868D01*
X29567850Y-36520480D01*
X29545671Y-36530970D01*
X29522572Y-36539235D01*
X29498773Y-36545196D01*
X29474505Y-36548796D01*
X29450001Y-36550000D01*
X28549999Y-36550000D01*
X28525495Y-36548796D01*
X28501227Y-36545196D01*
X28477428Y-36539235D01*
X28454329Y-36530970D01*
X28432150Y-36520480D01*
X28411107Y-36507868D01*
X28391401Y-36493253D01*
X28373223Y-36476777D01*
X28356747Y-36458599D01*
X28342132Y-36438893D01*
X28329520Y-36417850D01*
X28319030Y-36395671D01*
X28310765Y-36372572D01*
X28304804Y-36348773D01*
X28301204Y-36324505D01*
X28300000Y-36300001D01*
X28300000Y-35649999D01*
X28301204Y-35625495D01*
X28304804Y-35601227D01*
X28310765Y-35577428D01*
X28319030Y-35554329D01*
X28329520Y-35532150D01*
X28342132Y-35511107D01*
X28356747Y-35491401D01*
X28373223Y-35473223D01*
X28391401Y-35456747D01*
X28411107Y-35442132D01*
X28432150Y-35429520D01*
X28454329Y-35419030D01*
X28477428Y-35410765D01*
X28501227Y-35404804D01*
X28525495Y-35401204D01*
X28549999Y-35400000D01*
X29450001Y-35400000D01*
X29474505Y-35401204D01*
X29474505Y-35401204D01*
G37*
D14*
G04 #@! TD*
G04 #@! TO.P,C4,1*
G04 #@! TO.N,Net-(C4-Pad1)*
X29000000Y-35975000D03*
D12*
G04 #@! TO.P,C5,1*
G04 #@! TO.N,+3V3*
X44000000Y-24000000D03*
D11*
G04 #@! TO.P,C5,2*
G04 #@! TO.N,GND*
X46000000Y-24000000D03*
G04 #@! TD*
D13*
G04 #@! TO.N,GND*
G04 #@! TO.C,C6*
G36*
X38324505Y-22301204D02*
X38348773Y-22304804D01*
X38372572Y-22310765D01*
X38395671Y-22319030D01*
X38417850Y-22329520D01*
X38438893Y-22342132D01*
X38458599Y-22356747D01*
X38476777Y-22373223D01*
X38493253Y-22391401D01*
X38507868Y-22411107D01*
X38520480Y-22432150D01*
X38530970Y-22454329D01*
X38539235Y-22477428D01*
X38545196Y-22501227D01*
X38548796Y-22525495D01*
X38550000Y-22549999D01*
X38550000Y-23450001D01*
X38548796Y-23474505D01*
X38545196Y-23498773D01*
X38539235Y-23522572D01*
X38530970Y-23545671D01*
X38520480Y-23567850D01*
X38507868Y-23588893D01*
X38493253Y-23608599D01*
X38476777Y-23626777D01*
X38458599Y-23643253D01*
X38438893Y-23657868D01*
X38417850Y-23670480D01*
X38395671Y-23680970D01*
X38372572Y-23689235D01*
X38348773Y-23695196D01*
X38324505Y-23698796D01*
X38300001Y-23700000D01*
X37649999Y-23700000D01*
X37625495Y-23698796D01*
X37601227Y-23695196D01*
X37577428Y-23689235D01*
X37554329Y-23680970D01*
X37532150Y-23670480D01*
X37511107Y-23657868D01*
X37491401Y-23643253D01*
X37473223Y-23626777D01*
X37456747Y-23608599D01*
X37442132Y-23588893D01*
X37429520Y-23567850D01*
X37419030Y-23545671D01*
X37410765Y-23522572D01*
X37404804Y-23498773D01*
X37401204Y-23474505D01*
X37400000Y-23450001D01*
X37400000Y-22549999D01*
X37401204Y-22525495D01*
X37404804Y-22501227D01*
X37410765Y-22477428D01*
X37419030Y-22454329D01*
X37429520Y-22432150D01*
X37442132Y-22411107D01*
X37456747Y-22391401D01*
X37473223Y-22373223D01*
X37491401Y-22356747D01*
X37511107Y-22342132D01*
X37532150Y-22329520D01*
X37554329Y-22319030D01*
X37577428Y-22310765D01*
X37601227Y-22304804D01*
X37625495Y-22301204D01*
X37649999Y-22300000D01*
X38300001Y-22300000D01*
X38324505Y-22301204D01*
X38324505Y-22301204D01*
G37*
D14*
G04 #@! TD*
G04 #@! TO.P,C6,2*
G04 #@! TO.N,GND*
X37975000Y-23000000D03*
D13*
G04 #@! TO.N,+3V3*
G04 #@! TO.C,C6*
G36*
X40374505Y-22301204D02*
X40398773Y-22304804D01*
X40422572Y-22310765D01*
X40445671Y-22319030D01*
X40467850Y-22329520D01*
X40488893Y-22342132D01*
X40508599Y-22356747D01*
X40526777Y-22373223D01*
X40543253Y-22391401D01*
X40557868Y-22411107D01*
X40570480Y-22432150D01*
X40580970Y-22454329D01*
X40589235Y-22477428D01*
X40595196Y-22501227D01*
X40598796Y-22525495D01*
X40600000Y-22549999D01*
X40600000Y-23450001D01*
X40598796Y-23474505D01*
X40595196Y-23498773D01*
X40589235Y-23522572D01*
X40580970Y-23545671D01*
X40570480Y-23567850D01*
X40557868Y-23588893D01*
X40543253Y-23608599D01*
X40526777Y-23626777D01*
X40508599Y-23643253D01*
X40488893Y-23657868D01*
X40467850Y-23670480D01*
X40445671Y-23680970D01*
X40422572Y-23689235D01*
X40398773Y-23695196D01*
X40374505Y-23698796D01*
X40350001Y-23700000D01*
X39699999Y-23700000D01*
X39675495Y-23698796D01*
X39651227Y-23695196D01*
X39627428Y-23689235D01*
X39604329Y-23680970D01*
X39582150Y-23670480D01*
X39561107Y-23657868D01*
X39541401Y-23643253D01*
X39523223Y-23626777D01*
X39506747Y-23608599D01*
X39492132Y-23588893D01*
X39479520Y-23567850D01*
X39469030Y-23545671D01*
X39460765Y-23522572D01*
X39454804Y-23498773D01*
X39451204Y-23474505D01*
X39450000Y-23450001D01*
X39450000Y-22549999D01*
X39451204Y-22525495D01*
X39454804Y-22501227D01*
X39460765Y-22477428D01*
X39469030Y-22454329D01*
X39479520Y-22432150D01*
X39492132Y-22411107D01*
X39506747Y-22391401D01*
X39523223Y-22373223D01*
X39541401Y-22356747D01*
X39561107Y-22342132D01*
X39582150Y-22329520D01*
X39604329Y-22319030D01*
X39627428Y-22310765D01*
X39651227Y-22304804D01*
X39675495Y-22301204D01*
X39699999Y-22300000D01*
X40350001Y-22300000D01*
X40374505Y-22301204D01*
X40374505Y-22301204D01*
G37*
D14*
G04 #@! TD*
G04 #@! TO.P,C6,1*
G04 #@! TO.N,+3V3*
X40025000Y-23000000D03*
D13*
G04 #@! TO.N,/XTAL+*
G04 #@! TO.C,C7*
G36*
X51474505Y-42401204D02*
X51498773Y-42404804D01*
X51522572Y-42410765D01*
X51545671Y-42419030D01*
X51567850Y-42429520D01*
X51588893Y-42442132D01*
X51608599Y-42456747D01*
X51626777Y-42473223D01*
X51643253Y-42491401D01*
X51657868Y-42511107D01*
X51670480Y-42532150D01*
X51680970Y-42554329D01*
X51689235Y-42577428D01*
X51695196Y-42601227D01*
X51698796Y-42625495D01*
X51700000Y-42649999D01*
X51700000Y-43300001D01*
X51698796Y-43324505D01*
X51695196Y-43348773D01*
X51689235Y-43372572D01*
X51680970Y-43395671D01*
X51670480Y-43417850D01*
X51657868Y-43438893D01*
X51643253Y-43458599D01*
X51626777Y-43476777D01*
X51608599Y-43493253D01*
X51588893Y-43507868D01*
X51567850Y-43520480D01*
X51545671Y-43530970D01*
X51522572Y-43539235D01*
X51498773Y-43545196D01*
X51474505Y-43548796D01*
X51450001Y-43550000D01*
X50549999Y-43550000D01*
X50525495Y-43548796D01*
X50501227Y-43545196D01*
X50477428Y-43539235D01*
X50454329Y-43530970D01*
X50432150Y-43520480D01*
X50411107Y-43507868D01*
X50391401Y-43493253D01*
X50373223Y-43476777D01*
X50356747Y-43458599D01*
X50342132Y-43438893D01*
X50329520Y-43417850D01*
X50319030Y-43395671D01*
X50310765Y-43372572D01*
X50304804Y-43348773D01*
X50301204Y-43324505D01*
X50300000Y-43300001D01*
X50300000Y-42649999D01*
X50301204Y-42625495D01*
X50304804Y-42601227D01*
X50310765Y-42577428D01*
X50319030Y-42554329D01*
X50329520Y-42532150D01*
X50342132Y-42511107D01*
X50356747Y-42491401D01*
X50373223Y-42473223D01*
X50391401Y-42456747D01*
X50411107Y-42442132D01*
X50432150Y-42429520D01*
X50454329Y-42419030D01*
X50477428Y-42410765D01*
X50501227Y-42404804D01*
X50525495Y-42401204D01*
X50549999Y-42400000D01*
X51450001Y-42400000D01*
X51474505Y-42401204D01*
X51474505Y-42401204D01*
G37*
D14*
G04 #@! TD*
G04 #@! TO.P,C7,1*
G04 #@! TO.N,/XTAL+*
X51000000Y-42975000D03*
D13*
G04 #@! TO.N,GND*
G04 #@! TO.C,C7*
G36*
X51474505Y-44451204D02*
X51498773Y-44454804D01*
X51522572Y-44460765D01*
X51545671Y-44469030D01*
X51567850Y-44479520D01*
X51588893Y-44492132D01*
X51608599Y-44506747D01*
X51626777Y-44523223D01*
X51643253Y-44541401D01*
X51657868Y-44561107D01*
X51670480Y-44582150D01*
X51680970Y-44604329D01*
X51689235Y-44627428D01*
X51695196Y-44651227D01*
X51698796Y-44675495D01*
X51700000Y-44699999D01*
X51700000Y-45350001D01*
X51698796Y-45374505D01*
X51695196Y-45398773D01*
X51689235Y-45422572D01*
X51680970Y-45445671D01*
X51670480Y-45467850D01*
X51657868Y-45488893D01*
X51643253Y-45508599D01*
X51626777Y-45526777D01*
X51608599Y-45543253D01*
X51588893Y-45557868D01*
X51567850Y-45570480D01*
X51545671Y-45580970D01*
X51522572Y-45589235D01*
X51498773Y-45595196D01*
X51474505Y-45598796D01*
X51450001Y-45600000D01*
X50549999Y-45600000D01*
X50525495Y-45598796D01*
X50501227Y-45595196D01*
X50477428Y-45589235D01*
X50454329Y-45580970D01*
X50432150Y-45570480D01*
X50411107Y-45557868D01*
X50391401Y-45543253D01*
X50373223Y-45526777D01*
X50356747Y-45508599D01*
X50342132Y-45488893D01*
X50329520Y-45467850D01*
X50319030Y-45445671D01*
X50310765Y-45422572D01*
X50304804Y-45398773D01*
X50301204Y-45374505D01*
X50300000Y-45350001D01*
X50300000Y-44699999D01*
X50301204Y-44675495D01*
X50304804Y-44651227D01*
X50310765Y-44627428D01*
X50319030Y-44604329D01*
X50329520Y-44582150D01*
X50342132Y-44561107D01*
X50356747Y-44541401D01*
X50373223Y-44523223D01*
X50391401Y-44506747D01*
X50411107Y-44492132D01*
X50432150Y-44479520D01*
X50454329Y-44469030D01*
X50477428Y-44460765D01*
X50501227Y-44454804D01*
X50525495Y-44451204D01*
X50549999Y-44450000D01*
X51450001Y-44450000D01*
X51474505Y-44451204D01*
X51474505Y-44451204D01*
G37*
D14*
G04 #@! TD*
G04 #@! TO.P,C7,2*
G04 #@! TO.N,GND*
X51000000Y-45025000D03*
D13*
G04 #@! TO.N,/XTAL-*
G04 #@! TO.C,C8*
G36*
X51474505Y-39451204D02*
X51498773Y-39454804D01*
X51522572Y-39460765D01*
X51545671Y-39469030D01*
X51567850Y-39479520D01*
X51588893Y-39492132D01*
X51608599Y-39506747D01*
X51626777Y-39523223D01*
X51643253Y-39541401D01*
X51657868Y-39561107D01*
X51670480Y-39582150D01*
X51680970Y-39604329D01*
X51689235Y-39627428D01*
X51695196Y-39651227D01*
X51698796Y-39675495D01*
X51700000Y-39699999D01*
X51700000Y-40350001D01*
X51698796Y-40374505D01*
X51695196Y-40398773D01*
X51689235Y-40422572D01*
X51680970Y-40445671D01*
X51670480Y-40467850D01*
X51657868Y-40488893D01*
X51643253Y-40508599D01*
X51626777Y-40526777D01*
X51608599Y-40543253D01*
X51588893Y-40557868D01*
X51567850Y-40570480D01*
X51545671Y-40580970D01*
X51522572Y-40589235D01*
X51498773Y-40595196D01*
X51474505Y-40598796D01*
X51450001Y-40600000D01*
X50549999Y-40600000D01*
X50525495Y-40598796D01*
X50501227Y-40595196D01*
X50477428Y-40589235D01*
X50454329Y-40580970D01*
X50432150Y-40570480D01*
X50411107Y-40557868D01*
X50391401Y-40543253D01*
X50373223Y-40526777D01*
X50356747Y-40508599D01*
X50342132Y-40488893D01*
X50329520Y-40467850D01*
X50319030Y-40445671D01*
X50310765Y-40422572D01*
X50304804Y-40398773D01*
X50301204Y-40374505D01*
X50300000Y-40350001D01*
X50300000Y-39699999D01*
X50301204Y-39675495D01*
X50304804Y-39651227D01*
X50310765Y-39627428D01*
X50319030Y-39604329D01*
X50329520Y-39582150D01*
X50342132Y-39561107D01*
X50356747Y-39541401D01*
X50373223Y-39523223D01*
X50391401Y-39506747D01*
X50411107Y-39492132D01*
X50432150Y-39479520D01*
X50454329Y-39469030D01*
X50477428Y-39460765D01*
X50501227Y-39454804D01*
X50525495Y-39451204D01*
X50549999Y-39450000D01*
X51450001Y-39450000D01*
X51474505Y-39451204D01*
X51474505Y-39451204D01*
G37*
D14*
G04 #@! TD*
G04 #@! TO.P,C8,1*
G04 #@! TO.N,/XTAL-*
X51000000Y-40025000D03*
D13*
G04 #@! TO.N,GND*
G04 #@! TO.C,C8*
G36*
X51474505Y-37401204D02*
X51498773Y-37404804D01*
X51522572Y-37410765D01*
X51545671Y-37419030D01*
X51567850Y-37429520D01*
X51588893Y-37442132D01*
X51608599Y-37456747D01*
X51626777Y-37473223D01*
X51643253Y-37491401D01*
X51657868Y-37511107D01*
X51670480Y-37532150D01*
X51680970Y-37554329D01*
X51689235Y-37577428D01*
X51695196Y-37601227D01*
X51698796Y-37625495D01*
X51700000Y-37649999D01*
X51700000Y-38300001D01*
X51698796Y-38324505D01*
X51695196Y-38348773D01*
X51689235Y-38372572D01*
X51680970Y-38395671D01*
X51670480Y-38417850D01*
X51657868Y-38438893D01*
X51643253Y-38458599D01*
X51626777Y-38476777D01*
X51608599Y-38493253D01*
X51588893Y-38507868D01*
X51567850Y-38520480D01*
X51545671Y-38530970D01*
X51522572Y-38539235D01*
X51498773Y-38545196D01*
X51474505Y-38548796D01*
X51450001Y-38550000D01*
X50549999Y-38550000D01*
X50525495Y-38548796D01*
X50501227Y-38545196D01*
X50477428Y-38539235D01*
X50454329Y-38530970D01*
X50432150Y-38520480D01*
X50411107Y-38507868D01*
X50391401Y-38493253D01*
X50373223Y-38476777D01*
X50356747Y-38458599D01*
X50342132Y-38438893D01*
X50329520Y-38417850D01*
X50319030Y-38395671D01*
X50310765Y-38372572D01*
X50304804Y-38348773D01*
X50301204Y-38324505D01*
X50300000Y-38300001D01*
X50300000Y-37649999D01*
X50301204Y-37625495D01*
X50304804Y-37601227D01*
X50310765Y-37577428D01*
X50319030Y-37554329D01*
X50329520Y-37532150D01*
X50342132Y-37511107D01*
X50356747Y-37491401D01*
X50373223Y-37473223D01*
X50391401Y-37456747D01*
X50411107Y-37442132D01*
X50432150Y-37429520D01*
X50454329Y-37419030D01*
X50477428Y-37410765D01*
X50501227Y-37404804D01*
X50525495Y-37401204D01*
X50549999Y-37400000D01*
X51450001Y-37400000D01*
X51474505Y-37401204D01*
X51474505Y-37401204D01*
G37*
D14*
G04 #@! TD*
G04 #@! TO.P,C8,2*
G04 #@! TO.N,GND*
X51000000Y-37975000D03*
D13*
G04 #@! TO.N,GND*
G04 #@! TO.C,C9*
G36*
X46474505Y-28401204D02*
X46498773Y-28404804D01*
X46522572Y-28410765D01*
X46545671Y-28419030D01*
X46567850Y-28429520D01*
X46588893Y-28442132D01*
X46608599Y-28456747D01*
X46626777Y-28473223D01*
X46643253Y-28491401D01*
X46657868Y-28511107D01*
X46670480Y-28532150D01*
X46680970Y-28554329D01*
X46689235Y-28577428D01*
X46695196Y-28601227D01*
X46698796Y-28625495D01*
X46700000Y-28649999D01*
X46700000Y-29300001D01*
X46698796Y-29324505D01*
X46695196Y-29348773D01*
X46689235Y-29372572D01*
X46680970Y-29395671D01*
X46670480Y-29417850D01*
X46657868Y-29438893D01*
X46643253Y-29458599D01*
X46626777Y-29476777D01*
X46608599Y-29493253D01*
X46588893Y-29507868D01*
X46567850Y-29520480D01*
X46545671Y-29530970D01*
X46522572Y-29539235D01*
X46498773Y-29545196D01*
X46474505Y-29548796D01*
X46450001Y-29550000D01*
X45549999Y-29550000D01*
X45525495Y-29548796D01*
X45501227Y-29545196D01*
X45477428Y-29539235D01*
X45454329Y-29530970D01*
X45432150Y-29520480D01*
X45411107Y-29507868D01*
X45391401Y-29493253D01*
X45373223Y-29476777D01*
X45356747Y-29458599D01*
X45342132Y-29438893D01*
X45329520Y-29417850D01*
X45319030Y-29395671D01*
X45310765Y-29372572D01*
X45304804Y-29348773D01*
X45301204Y-29324505D01*
X45300000Y-29300001D01*
X45300000Y-28649999D01*
X45301204Y-28625495D01*
X45304804Y-28601227D01*
X45310765Y-28577428D01*
X45319030Y-28554329D01*
X45329520Y-28532150D01*
X45342132Y-28511107D01*
X45356747Y-28491401D01*
X45373223Y-28473223D01*
X45391401Y-28456747D01*
X45411107Y-28442132D01*
X45432150Y-28429520D01*
X45454329Y-28419030D01*
X45477428Y-28410765D01*
X45501227Y-28404804D01*
X45525495Y-28401204D01*
X45549999Y-28400000D01*
X46450001Y-28400000D01*
X46474505Y-28401204D01*
X46474505Y-28401204D01*
G37*
D14*
G04 #@! TD*
G04 #@! TO.P,C9,2*
G04 #@! TO.N,GND*
X46000000Y-28975000D03*
D13*
G04 #@! TO.N,+3V3*
G04 #@! TO.C,C9*
G36*
X46474505Y-30451204D02*
X46498773Y-30454804D01*
X46522572Y-30460765D01*
X46545671Y-30469030D01*
X46567850Y-30479520D01*
X46588893Y-30492132D01*
X46608599Y-30506747D01*
X46626777Y-30523223D01*
X46643253Y-30541401D01*
X46657868Y-30561107D01*
X46670480Y-30582150D01*
X46680970Y-30604329D01*
X46689235Y-30627428D01*
X46695196Y-30651227D01*
X46698796Y-30675495D01*
X46700000Y-30699999D01*
X46700000Y-31350001D01*
X46698796Y-31374505D01*
X46695196Y-31398773D01*
X46689235Y-31422572D01*
X46680970Y-31445671D01*
X46670480Y-31467850D01*
X46657868Y-31488893D01*
X46643253Y-31508599D01*
X46626777Y-31526777D01*
X46608599Y-31543253D01*
X46588893Y-31557868D01*
X46567850Y-31570480D01*
X46545671Y-31580970D01*
X46522572Y-31589235D01*
X46498773Y-31595196D01*
X46474505Y-31598796D01*
X46450001Y-31600000D01*
X45549999Y-31600000D01*
X45525495Y-31598796D01*
X45501227Y-31595196D01*
X45477428Y-31589235D01*
X45454329Y-31580970D01*
X45432150Y-31570480D01*
X45411107Y-31557868D01*
X45391401Y-31543253D01*
X45373223Y-31526777D01*
X45356747Y-31508599D01*
X45342132Y-31488893D01*
X45329520Y-31467850D01*
X45319030Y-31445671D01*
X45310765Y-31422572D01*
X45304804Y-31398773D01*
X45301204Y-31374505D01*
X45300000Y-31350001D01*
X45300000Y-30699999D01*
X45301204Y-30675495D01*
X45304804Y-30651227D01*
X45310765Y-30627428D01*
X45319030Y-30604329D01*
X45329520Y-30582150D01*
X45342132Y-30561107D01*
X45356747Y-30541401D01*
X45373223Y-30523223D01*
X45391401Y-30506747D01*
X45411107Y-30492132D01*
X45432150Y-30479520D01*
X45454329Y-30469030D01*
X45477428Y-30460765D01*
X45501227Y-30454804D01*
X45525495Y-30451204D01*
X45549999Y-30450000D01*
X46450001Y-30450000D01*
X46474505Y-30451204D01*
X46474505Y-30451204D01*
G37*
D14*
G04 #@! TD*
G04 #@! TO.P,C9,1*
G04 #@! TO.N,+3V3*
X46000000Y-31025000D03*
D13*
G04 #@! TO.N,Net-(C10-Pad1)*
G04 #@! TO.C,C10*
G36*
X38474505Y-30451204D02*
X38498773Y-30454804D01*
X38522572Y-30460765D01*
X38545671Y-30469030D01*
X38567850Y-30479520D01*
X38588893Y-30492132D01*
X38608599Y-30506747D01*
X38626777Y-30523223D01*
X38643253Y-30541401D01*
X38657868Y-30561107D01*
X38670480Y-30582150D01*
X38680970Y-30604329D01*
X38689235Y-30627428D01*
X38695196Y-30651227D01*
X38698796Y-30675495D01*
X38700000Y-30699999D01*
X38700000Y-31350001D01*
X38698796Y-31374505D01*
X38695196Y-31398773D01*
X38689235Y-31422572D01*
X38680970Y-31445671D01*
X38670480Y-31467850D01*
X38657868Y-31488893D01*
X38643253Y-31508599D01*
X38626777Y-31526777D01*
X38608599Y-31543253D01*
X38588893Y-31557868D01*
X38567850Y-31570480D01*
X38545671Y-31580970D01*
X38522572Y-31589235D01*
X38498773Y-31595196D01*
X38474505Y-31598796D01*
X38450001Y-31600000D01*
X37549999Y-31600000D01*
X37525495Y-31598796D01*
X37501227Y-31595196D01*
X37477428Y-31589235D01*
X37454329Y-31580970D01*
X37432150Y-31570480D01*
X37411107Y-31557868D01*
X37391401Y-31543253D01*
X37373223Y-31526777D01*
X37356747Y-31508599D01*
X37342132Y-31488893D01*
X37329520Y-31467850D01*
X37319030Y-31445671D01*
X37310765Y-31422572D01*
X37304804Y-31398773D01*
X37301204Y-31374505D01*
X37300000Y-31350001D01*
X37300000Y-30699999D01*
X37301204Y-30675495D01*
X37304804Y-30651227D01*
X37310765Y-30627428D01*
X37319030Y-30604329D01*
X37329520Y-30582150D01*
X37342132Y-30561107D01*
X37356747Y-30541401D01*
X37373223Y-30523223D01*
X37391401Y-30506747D01*
X37411107Y-30492132D01*
X37432150Y-30479520D01*
X37454329Y-30469030D01*
X37477428Y-30460765D01*
X37501227Y-30454804D01*
X37525495Y-30451204D01*
X37549999Y-30450000D01*
X38450001Y-30450000D01*
X38474505Y-30451204D01*
X38474505Y-30451204D01*
G37*
D14*
G04 #@! TD*
G04 #@! TO.P,C10,1*
G04 #@! TO.N,Net-(C10-Pad1)*
X38000000Y-31025000D03*
D13*
G04 #@! TO.N,GND*
G04 #@! TO.C,C10*
G36*
X38474505Y-28401204D02*
X38498773Y-28404804D01*
X38522572Y-28410765D01*
X38545671Y-28419030D01*
X38567850Y-28429520D01*
X38588893Y-28442132D01*
X38608599Y-28456747D01*
X38626777Y-28473223D01*
X38643253Y-28491401D01*
X38657868Y-28511107D01*
X38670480Y-28532150D01*
X38680970Y-28554329D01*
X38689235Y-28577428D01*
X38695196Y-28601227D01*
X38698796Y-28625495D01*
X38700000Y-28649999D01*
X38700000Y-29300001D01*
X38698796Y-29324505D01*
X38695196Y-29348773D01*
X38689235Y-29372572D01*
X38680970Y-29395671D01*
X38670480Y-29417850D01*
X38657868Y-29438893D01*
X38643253Y-29458599D01*
X38626777Y-29476777D01*
X38608599Y-29493253D01*
X38588893Y-29507868D01*
X38567850Y-29520480D01*
X38545671Y-29530970D01*
X38522572Y-29539235D01*
X38498773Y-29545196D01*
X38474505Y-29548796D01*
X38450001Y-29550000D01*
X37549999Y-29550000D01*
X37525495Y-29548796D01*
X37501227Y-29545196D01*
X37477428Y-29539235D01*
X37454329Y-29530970D01*
X37432150Y-29520480D01*
X37411107Y-29507868D01*
X37391401Y-29493253D01*
X37373223Y-29476777D01*
X37356747Y-29458599D01*
X37342132Y-29438893D01*
X37329520Y-29417850D01*
X37319030Y-29395671D01*
X37310765Y-29372572D01*
X37304804Y-29348773D01*
X37301204Y-29324505D01*
X37300000Y-29300001D01*
X37300000Y-28649999D01*
X37301204Y-28625495D01*
X37304804Y-28601227D01*
X37310765Y-28577428D01*
X37319030Y-28554329D01*
X37329520Y-28532150D01*
X37342132Y-28511107D01*
X37356747Y-28491401D01*
X37373223Y-28473223D01*
X37391401Y-28456747D01*
X37411107Y-28442132D01*
X37432150Y-28429520D01*
X37454329Y-28419030D01*
X37477428Y-28410765D01*
X37501227Y-28404804D01*
X37525495Y-28401204D01*
X37549999Y-28400000D01*
X38450001Y-28400000D01*
X38474505Y-28401204D01*
X38474505Y-28401204D01*
G37*
D14*
G04 #@! TD*
G04 #@! TO.P,C10,2*
G04 #@! TO.N,GND*
X38000000Y-28975000D03*
D13*
G04 #@! TO.N,+3V3*
G04 #@! TO.C,C11*
G36*
X42474505Y-30451204D02*
X42498773Y-30454804D01*
X42522572Y-30460765D01*
X42545671Y-30469030D01*
X42567850Y-30479520D01*
X42588893Y-30492132D01*
X42608599Y-30506747D01*
X42626777Y-30523223D01*
X42643253Y-30541401D01*
X42657868Y-30561107D01*
X42670480Y-30582150D01*
X42680970Y-30604329D01*
X42689235Y-30627428D01*
X42695196Y-30651227D01*
X42698796Y-30675495D01*
X42700000Y-30699999D01*
X42700000Y-31350001D01*
X42698796Y-31374505D01*
X42695196Y-31398773D01*
X42689235Y-31422572D01*
X42680970Y-31445671D01*
X42670480Y-31467850D01*
X42657868Y-31488893D01*
X42643253Y-31508599D01*
X42626777Y-31526777D01*
X42608599Y-31543253D01*
X42588893Y-31557868D01*
X42567850Y-31570480D01*
X42545671Y-31580970D01*
X42522572Y-31589235D01*
X42498773Y-31595196D01*
X42474505Y-31598796D01*
X42450001Y-31600000D01*
X41549999Y-31600000D01*
X41525495Y-31598796D01*
X41501227Y-31595196D01*
X41477428Y-31589235D01*
X41454329Y-31580970D01*
X41432150Y-31570480D01*
X41411107Y-31557868D01*
X41391401Y-31543253D01*
X41373223Y-31526777D01*
X41356747Y-31508599D01*
X41342132Y-31488893D01*
X41329520Y-31467850D01*
X41319030Y-31445671D01*
X41310765Y-31422572D01*
X41304804Y-31398773D01*
X41301204Y-31374505D01*
X41300000Y-31350001D01*
X41300000Y-30699999D01*
X41301204Y-30675495D01*
X41304804Y-30651227D01*
X41310765Y-30627428D01*
X41319030Y-30604329D01*
X41329520Y-30582150D01*
X41342132Y-30561107D01*
X41356747Y-30541401D01*
X41373223Y-30523223D01*
X41391401Y-30506747D01*
X41411107Y-30492132D01*
X41432150Y-30479520D01*
X41454329Y-30469030D01*
X41477428Y-30460765D01*
X41501227Y-30454804D01*
X41525495Y-30451204D01*
X41549999Y-30450000D01*
X42450001Y-30450000D01*
X42474505Y-30451204D01*
X42474505Y-30451204D01*
G37*
D14*
G04 #@! TD*
G04 #@! TO.P,C11,1*
G04 #@! TO.N,+3V3*
X42000000Y-31025000D03*
D13*
G04 #@! TO.N,GND*
G04 #@! TO.C,C11*
G36*
X42474505Y-28401204D02*
X42498773Y-28404804D01*
X42522572Y-28410765D01*
X42545671Y-28419030D01*
X42567850Y-28429520D01*
X42588893Y-28442132D01*
X42608599Y-28456747D01*
X42626777Y-28473223D01*
X42643253Y-28491401D01*
X42657868Y-28511107D01*
X42670480Y-28532150D01*
X42680970Y-28554329D01*
X42689235Y-28577428D01*
X42695196Y-28601227D01*
X42698796Y-28625495D01*
X42700000Y-28649999D01*
X42700000Y-29300001D01*
X42698796Y-29324505D01*
X42695196Y-29348773D01*
X42689235Y-29372572D01*
X42680970Y-29395671D01*
X42670480Y-29417850D01*
X42657868Y-29438893D01*
X42643253Y-29458599D01*
X42626777Y-29476777D01*
X42608599Y-29493253D01*
X42588893Y-29507868D01*
X42567850Y-29520480D01*
X42545671Y-29530970D01*
X42522572Y-29539235D01*
X42498773Y-29545196D01*
X42474505Y-29548796D01*
X42450001Y-29550000D01*
X41549999Y-29550000D01*
X41525495Y-29548796D01*
X41501227Y-29545196D01*
X41477428Y-29539235D01*
X41454329Y-29530970D01*
X41432150Y-29520480D01*
X41411107Y-29507868D01*
X41391401Y-29493253D01*
X41373223Y-29476777D01*
X41356747Y-29458599D01*
X41342132Y-29438893D01*
X41329520Y-29417850D01*
X41319030Y-29395671D01*
X41310765Y-29372572D01*
X41304804Y-29348773D01*
X41301204Y-29324505D01*
X41300000Y-29300001D01*
X41300000Y-28649999D01*
X41301204Y-28625495D01*
X41304804Y-28601227D01*
X41310765Y-28577428D01*
X41319030Y-28554329D01*
X41329520Y-28532150D01*
X41342132Y-28511107D01*
X41356747Y-28491401D01*
X41373223Y-28473223D01*
X41391401Y-28456747D01*
X41411107Y-28442132D01*
X41432150Y-28429520D01*
X41454329Y-28419030D01*
X41477428Y-28410765D01*
X41501227Y-28404804D01*
X41525495Y-28401204D01*
X41549999Y-28400000D01*
X42450001Y-28400000D01*
X42474505Y-28401204D01*
X42474505Y-28401204D01*
G37*
D14*
G04 #@! TD*
G04 #@! TO.P,C11,2*
G04 #@! TO.N,GND*
X42000000Y-28975000D03*
D13*
G04 #@! TO.N,+3V3*
G04 #@! TO.C,C12*
G36*
X35374505Y-30301204D02*
X35398773Y-30304804D01*
X35422572Y-30310765D01*
X35445671Y-30319030D01*
X35467850Y-30329520D01*
X35488893Y-30342132D01*
X35508599Y-30356747D01*
X35526777Y-30373223D01*
X35543253Y-30391401D01*
X35557868Y-30411107D01*
X35570480Y-30432150D01*
X35580970Y-30454329D01*
X35589235Y-30477428D01*
X35595196Y-30501227D01*
X35598796Y-30525495D01*
X35600000Y-30549999D01*
X35600000Y-31450001D01*
X35598796Y-31474505D01*
X35595196Y-31498773D01*
X35589235Y-31522572D01*
X35580970Y-31545671D01*
X35570480Y-31567850D01*
X35557868Y-31588893D01*
X35543253Y-31608599D01*
X35526777Y-31626777D01*
X35508599Y-31643253D01*
X35488893Y-31657868D01*
X35467850Y-31670480D01*
X35445671Y-31680970D01*
X35422572Y-31689235D01*
X35398773Y-31695196D01*
X35374505Y-31698796D01*
X35350001Y-31700000D01*
X34699999Y-31700000D01*
X34675495Y-31698796D01*
X34651227Y-31695196D01*
X34627428Y-31689235D01*
X34604329Y-31680970D01*
X34582150Y-31670480D01*
X34561107Y-31657868D01*
X34541401Y-31643253D01*
X34523223Y-31626777D01*
X34506747Y-31608599D01*
X34492132Y-31588893D01*
X34479520Y-31567850D01*
X34469030Y-31545671D01*
X34460765Y-31522572D01*
X34454804Y-31498773D01*
X34451204Y-31474505D01*
X34450000Y-31450001D01*
X34450000Y-30549999D01*
X34451204Y-30525495D01*
X34454804Y-30501227D01*
X34460765Y-30477428D01*
X34469030Y-30454329D01*
X34479520Y-30432150D01*
X34492132Y-30411107D01*
X34506747Y-30391401D01*
X34523223Y-30373223D01*
X34541401Y-30356747D01*
X34561107Y-30342132D01*
X34582150Y-30329520D01*
X34604329Y-30319030D01*
X34627428Y-30310765D01*
X34651227Y-30304804D01*
X34675495Y-30301204D01*
X34699999Y-30300000D01*
X35350001Y-30300000D01*
X35374505Y-30301204D01*
X35374505Y-30301204D01*
G37*
D14*
G04 #@! TD*
G04 #@! TO.P,C12,1*
G04 #@! TO.N,+3V3*
X35025000Y-31000000D03*
D13*
G04 #@! TO.N,GND*
G04 #@! TO.C,C12*
G36*
X33324505Y-30301204D02*
X33348773Y-30304804D01*
X33372572Y-30310765D01*
X33395671Y-30319030D01*
X33417850Y-30329520D01*
X33438893Y-30342132D01*
X33458599Y-30356747D01*
X33476777Y-30373223D01*
X33493253Y-30391401D01*
X33507868Y-30411107D01*
X33520480Y-30432150D01*
X33530970Y-30454329D01*
X33539235Y-30477428D01*
X33545196Y-30501227D01*
X33548796Y-30525495D01*
X33550000Y-30549999D01*
X33550000Y-31450001D01*
X33548796Y-31474505D01*
X33545196Y-31498773D01*
X33539235Y-31522572D01*
X33530970Y-31545671D01*
X33520480Y-31567850D01*
X33507868Y-31588893D01*
X33493253Y-31608599D01*
X33476777Y-31626777D01*
X33458599Y-31643253D01*
X33438893Y-31657868D01*
X33417850Y-31670480D01*
X33395671Y-31680970D01*
X33372572Y-31689235D01*
X33348773Y-31695196D01*
X33324505Y-31698796D01*
X33300001Y-31700000D01*
X32649999Y-31700000D01*
X32625495Y-31698796D01*
X32601227Y-31695196D01*
X32577428Y-31689235D01*
X32554329Y-31680970D01*
X32532150Y-31670480D01*
X32511107Y-31657868D01*
X32491401Y-31643253D01*
X32473223Y-31626777D01*
X32456747Y-31608599D01*
X32442132Y-31588893D01*
X32429520Y-31567850D01*
X32419030Y-31545671D01*
X32410765Y-31522572D01*
X32404804Y-31498773D01*
X32401204Y-31474505D01*
X32400000Y-31450001D01*
X32400000Y-30549999D01*
X32401204Y-30525495D01*
X32404804Y-30501227D01*
X32410765Y-30477428D01*
X32419030Y-30454329D01*
X32429520Y-30432150D01*
X32442132Y-30411107D01*
X32456747Y-30391401D01*
X32473223Y-30373223D01*
X32491401Y-30356747D01*
X32511107Y-30342132D01*
X32532150Y-30329520D01*
X32554329Y-30319030D01*
X32577428Y-30310765D01*
X32601227Y-30304804D01*
X32625495Y-30301204D01*
X32649999Y-30300000D01*
X33300001Y-30300000D01*
X33324505Y-30301204D01*
X33324505Y-30301204D01*
G37*
D14*
G04 #@! TD*
G04 #@! TO.P,C12,2*
G04 #@! TO.N,GND*
X32975000Y-31000000D03*
D13*
G04 #@! TO.N,+3V3*
G04 #@! TO.C,C13*
G36*
X31374505Y-42801204D02*
X31398773Y-42804804D01*
X31422572Y-42810765D01*
X31445671Y-42819030D01*
X31467850Y-42829520D01*
X31488893Y-42842132D01*
X31508599Y-42856747D01*
X31526777Y-42873223D01*
X31543253Y-42891401D01*
X31557868Y-42911107D01*
X31570480Y-42932150D01*
X31580970Y-42954329D01*
X31589235Y-42977428D01*
X31595196Y-43001227D01*
X31598796Y-43025495D01*
X31600000Y-43049999D01*
X31600000Y-43950001D01*
X31598796Y-43974505D01*
X31595196Y-43998773D01*
X31589235Y-44022572D01*
X31580970Y-44045671D01*
X31570480Y-44067850D01*
X31557868Y-44088893D01*
X31543253Y-44108599D01*
X31526777Y-44126777D01*
X31508599Y-44143253D01*
X31488893Y-44157868D01*
X31467850Y-44170480D01*
X31445671Y-44180970D01*
X31422572Y-44189235D01*
X31398773Y-44195196D01*
X31374505Y-44198796D01*
X31350001Y-44200000D01*
X30699999Y-44200000D01*
X30675495Y-44198796D01*
X30651227Y-44195196D01*
X30627428Y-44189235D01*
X30604329Y-44180970D01*
X30582150Y-44170480D01*
X30561107Y-44157868D01*
X30541401Y-44143253D01*
X30523223Y-44126777D01*
X30506747Y-44108599D01*
X30492132Y-44088893D01*
X30479520Y-44067850D01*
X30469030Y-44045671D01*
X30460765Y-44022572D01*
X30454804Y-43998773D01*
X30451204Y-43974505D01*
X30450000Y-43950001D01*
X30450000Y-43049999D01*
X30451204Y-43025495D01*
X30454804Y-43001227D01*
X30460765Y-42977428D01*
X30469030Y-42954329D01*
X30479520Y-42932150D01*
X30492132Y-42911107D01*
X30506747Y-42891401D01*
X30523223Y-42873223D01*
X30541401Y-42856747D01*
X30561107Y-42842132D01*
X30582150Y-42829520D01*
X30604329Y-42819030D01*
X30627428Y-42810765D01*
X30651227Y-42804804D01*
X30675495Y-42801204D01*
X30699999Y-42800000D01*
X31350001Y-42800000D01*
X31374505Y-42801204D01*
X31374505Y-42801204D01*
G37*
D14*
G04 #@! TD*
G04 #@! TO.P,C13,1*
G04 #@! TO.N,+3V3*
X31025000Y-43500000D03*
D13*
G04 #@! TO.N,GND*
G04 #@! TO.C,C13*
G36*
X29324505Y-42801204D02*
X29348773Y-42804804D01*
X29372572Y-42810765D01*
X29395671Y-42819030D01*
X29417850Y-42829520D01*
X29438893Y-42842132D01*
X29458599Y-42856747D01*
X29476777Y-42873223D01*
X29493253Y-42891401D01*
X29507868Y-42911107D01*
X29520480Y-42932150D01*
X29530970Y-42954329D01*
X29539235Y-42977428D01*
X29545196Y-43001227D01*
X29548796Y-43025495D01*
X29550000Y-43049999D01*
X29550000Y-43950001D01*
X29548796Y-43974505D01*
X29545196Y-43998773D01*
X29539235Y-44022572D01*
X29530970Y-44045671D01*
X29520480Y-44067850D01*
X29507868Y-44088893D01*
X29493253Y-44108599D01*
X29476777Y-44126777D01*
X29458599Y-44143253D01*
X29438893Y-44157868D01*
X29417850Y-44170480D01*
X29395671Y-44180970D01*
X29372572Y-44189235D01*
X29348773Y-44195196D01*
X29324505Y-44198796D01*
X29300001Y-44200000D01*
X28649999Y-44200000D01*
X28625495Y-44198796D01*
X28601227Y-44195196D01*
X28577428Y-44189235D01*
X28554329Y-44180970D01*
X28532150Y-44170480D01*
X28511107Y-44157868D01*
X28491401Y-44143253D01*
X28473223Y-44126777D01*
X28456747Y-44108599D01*
X28442132Y-44088893D01*
X28429520Y-44067850D01*
X28419030Y-44045671D01*
X28410765Y-44022572D01*
X28404804Y-43998773D01*
X28401204Y-43974505D01*
X28400000Y-43950001D01*
X28400000Y-43049999D01*
X28401204Y-43025495D01*
X28404804Y-43001227D01*
X28410765Y-42977428D01*
X28419030Y-42954329D01*
X28429520Y-42932150D01*
X28442132Y-42911107D01*
X28456747Y-42891401D01*
X28473223Y-42873223D01*
X28491401Y-42856747D01*
X28511107Y-42842132D01*
X28532150Y-42829520D01*
X28554329Y-42819030D01*
X28577428Y-42810765D01*
X28601227Y-42804804D01*
X28625495Y-42801204D01*
X28649999Y-42800000D01*
X29300001Y-42800000D01*
X29324505Y-42801204D01*
X29324505Y-42801204D01*
G37*
D14*
G04 #@! TD*
G04 #@! TO.P,C13,2*
G04 #@! TO.N,GND*
X28975000Y-43500000D03*
D13*
G04 #@! TO.N,+3V3*
G04 #@! TO.C,C14*
G36*
X44324505Y-48301204D02*
X44348773Y-48304804D01*
X44372572Y-48310765D01*
X44395671Y-48319030D01*
X44417850Y-48329520D01*
X44438893Y-48342132D01*
X44458599Y-48356747D01*
X44476777Y-48373223D01*
X44493253Y-48391401D01*
X44507868Y-48411107D01*
X44520480Y-48432150D01*
X44530970Y-48454329D01*
X44539235Y-48477428D01*
X44545196Y-48501227D01*
X44548796Y-48525495D01*
X44550000Y-48549999D01*
X44550000Y-49450001D01*
X44548796Y-49474505D01*
X44545196Y-49498773D01*
X44539235Y-49522572D01*
X44530970Y-49545671D01*
X44520480Y-49567850D01*
X44507868Y-49588893D01*
X44493253Y-49608599D01*
X44476777Y-49626777D01*
X44458599Y-49643253D01*
X44438893Y-49657868D01*
X44417850Y-49670480D01*
X44395671Y-49680970D01*
X44372572Y-49689235D01*
X44348773Y-49695196D01*
X44324505Y-49698796D01*
X44300001Y-49700000D01*
X43649999Y-49700000D01*
X43625495Y-49698796D01*
X43601227Y-49695196D01*
X43577428Y-49689235D01*
X43554329Y-49680970D01*
X43532150Y-49670480D01*
X43511107Y-49657868D01*
X43491401Y-49643253D01*
X43473223Y-49626777D01*
X43456747Y-49608599D01*
X43442132Y-49588893D01*
X43429520Y-49567850D01*
X43419030Y-49545671D01*
X43410765Y-49522572D01*
X43404804Y-49498773D01*
X43401204Y-49474505D01*
X43400000Y-49450001D01*
X43400000Y-48549999D01*
X43401204Y-48525495D01*
X43404804Y-48501227D01*
X43410765Y-48477428D01*
X43419030Y-48454329D01*
X43429520Y-48432150D01*
X43442132Y-48411107D01*
X43456747Y-48391401D01*
X43473223Y-48373223D01*
X43491401Y-48356747D01*
X43511107Y-48342132D01*
X43532150Y-48329520D01*
X43554329Y-48319030D01*
X43577428Y-48310765D01*
X43601227Y-48304804D01*
X43625495Y-48301204D01*
X43649999Y-48300000D01*
X44300001Y-48300000D01*
X44324505Y-48301204D01*
X44324505Y-48301204D01*
G37*
D14*
G04 #@! TD*
G04 #@! TO.P,C14,1*
G04 #@! TO.N,+3V3*
X43975000Y-49000000D03*
D13*
G04 #@! TO.N,GND*
G04 #@! TO.C,C14*
G36*
X46374505Y-48301204D02*
X46398773Y-48304804D01*
X46422572Y-48310765D01*
X46445671Y-48319030D01*
X46467850Y-48329520D01*
X46488893Y-48342132D01*
X46508599Y-48356747D01*
X46526777Y-48373223D01*
X46543253Y-48391401D01*
X46557868Y-48411107D01*
X46570480Y-48432150D01*
X46580970Y-48454329D01*
X46589235Y-48477428D01*
X46595196Y-48501227D01*
X46598796Y-48525495D01*
X46600000Y-48549999D01*
X46600000Y-49450001D01*
X46598796Y-49474505D01*
X46595196Y-49498773D01*
X46589235Y-49522572D01*
X46580970Y-49545671D01*
X46570480Y-49567850D01*
X46557868Y-49588893D01*
X46543253Y-49608599D01*
X46526777Y-49626777D01*
X46508599Y-49643253D01*
X46488893Y-49657868D01*
X46467850Y-49670480D01*
X46445671Y-49680970D01*
X46422572Y-49689235D01*
X46398773Y-49695196D01*
X46374505Y-49698796D01*
X46350001Y-49700000D01*
X45699999Y-49700000D01*
X45675495Y-49698796D01*
X45651227Y-49695196D01*
X45627428Y-49689235D01*
X45604329Y-49680970D01*
X45582150Y-49670480D01*
X45561107Y-49657868D01*
X45541401Y-49643253D01*
X45523223Y-49626777D01*
X45506747Y-49608599D01*
X45492132Y-49588893D01*
X45479520Y-49567850D01*
X45469030Y-49545671D01*
X45460765Y-49522572D01*
X45454804Y-49498773D01*
X45451204Y-49474505D01*
X45450000Y-49450001D01*
X45450000Y-48549999D01*
X45451204Y-48525495D01*
X45454804Y-48501227D01*
X45460765Y-48477428D01*
X45469030Y-48454329D01*
X45479520Y-48432150D01*
X45492132Y-48411107D01*
X45506747Y-48391401D01*
X45523223Y-48373223D01*
X45541401Y-48356747D01*
X45561107Y-48342132D01*
X45582150Y-48329520D01*
X45604329Y-48319030D01*
X45627428Y-48310765D01*
X45651227Y-48304804D01*
X45675495Y-48301204D01*
X45699999Y-48300000D01*
X46350001Y-48300000D01*
X46374505Y-48301204D01*
X46374505Y-48301204D01*
G37*
D14*
G04 #@! TD*
G04 #@! TO.P,C14,2*
G04 #@! TO.N,GND*
X46025000Y-49000000D03*
D13*
G04 #@! TO.N,GND*
G04 #@! TO.C,C15*
G36*
X51374505Y-34301204D02*
X51398773Y-34304804D01*
X51422572Y-34310765D01*
X51445671Y-34319030D01*
X51467850Y-34329520D01*
X51488893Y-34342132D01*
X51508599Y-34356747D01*
X51526777Y-34373223D01*
X51543253Y-34391401D01*
X51557868Y-34411107D01*
X51570480Y-34432150D01*
X51580970Y-34454329D01*
X51589235Y-34477428D01*
X51595196Y-34501227D01*
X51598796Y-34525495D01*
X51600000Y-34549999D01*
X51600000Y-35450001D01*
X51598796Y-35474505D01*
X51595196Y-35498773D01*
X51589235Y-35522572D01*
X51580970Y-35545671D01*
X51570480Y-35567850D01*
X51557868Y-35588893D01*
X51543253Y-35608599D01*
X51526777Y-35626777D01*
X51508599Y-35643253D01*
X51488893Y-35657868D01*
X51467850Y-35670480D01*
X51445671Y-35680970D01*
X51422572Y-35689235D01*
X51398773Y-35695196D01*
X51374505Y-35698796D01*
X51350001Y-35700000D01*
X50699999Y-35700000D01*
X50675495Y-35698796D01*
X50651227Y-35695196D01*
X50627428Y-35689235D01*
X50604329Y-35680970D01*
X50582150Y-35670480D01*
X50561107Y-35657868D01*
X50541401Y-35643253D01*
X50523223Y-35626777D01*
X50506747Y-35608599D01*
X50492132Y-35588893D01*
X50479520Y-35567850D01*
X50469030Y-35545671D01*
X50460765Y-35522572D01*
X50454804Y-35498773D01*
X50451204Y-35474505D01*
X50450000Y-35450001D01*
X50450000Y-34549999D01*
X50451204Y-34525495D01*
X50454804Y-34501227D01*
X50460765Y-34477428D01*
X50469030Y-34454329D01*
X50479520Y-34432150D01*
X50492132Y-34411107D01*
X50506747Y-34391401D01*
X50523223Y-34373223D01*
X50541401Y-34356747D01*
X50561107Y-34342132D01*
X50582150Y-34329520D01*
X50604329Y-34319030D01*
X50627428Y-34310765D01*
X50651227Y-34304804D01*
X50675495Y-34301204D01*
X50699999Y-34300000D01*
X51350001Y-34300000D01*
X51374505Y-34301204D01*
X51374505Y-34301204D01*
G37*
D14*
G04 #@! TD*
G04 #@! TO.P,C15,2*
G04 #@! TO.N,GND*
X51025000Y-35000000D03*
D13*
G04 #@! TO.N,+3V3*
G04 #@! TO.C,C15*
G36*
X49324505Y-34301204D02*
X49348773Y-34304804D01*
X49372572Y-34310765D01*
X49395671Y-34319030D01*
X49417850Y-34329520D01*
X49438893Y-34342132D01*
X49458599Y-34356747D01*
X49476777Y-34373223D01*
X49493253Y-34391401D01*
X49507868Y-34411107D01*
X49520480Y-34432150D01*
X49530970Y-34454329D01*
X49539235Y-34477428D01*
X49545196Y-34501227D01*
X49548796Y-34525495D01*
X49550000Y-34549999D01*
X49550000Y-35450001D01*
X49548796Y-35474505D01*
X49545196Y-35498773D01*
X49539235Y-35522572D01*
X49530970Y-35545671D01*
X49520480Y-35567850D01*
X49507868Y-35588893D01*
X49493253Y-35608599D01*
X49476777Y-35626777D01*
X49458599Y-35643253D01*
X49438893Y-35657868D01*
X49417850Y-35670480D01*
X49395671Y-35680970D01*
X49372572Y-35689235D01*
X49348773Y-35695196D01*
X49324505Y-35698796D01*
X49300001Y-35700000D01*
X48649999Y-35700000D01*
X48625495Y-35698796D01*
X48601227Y-35695196D01*
X48577428Y-35689235D01*
X48554329Y-35680970D01*
X48532150Y-35670480D01*
X48511107Y-35657868D01*
X48491401Y-35643253D01*
X48473223Y-35626777D01*
X48456747Y-35608599D01*
X48442132Y-35588893D01*
X48429520Y-35567850D01*
X48419030Y-35545671D01*
X48410765Y-35522572D01*
X48404804Y-35498773D01*
X48401204Y-35474505D01*
X48400000Y-35450001D01*
X48400000Y-34549999D01*
X48401204Y-34525495D01*
X48404804Y-34501227D01*
X48410765Y-34477428D01*
X48419030Y-34454329D01*
X48429520Y-34432150D01*
X48442132Y-34411107D01*
X48456747Y-34391401D01*
X48473223Y-34373223D01*
X48491401Y-34356747D01*
X48511107Y-34342132D01*
X48532150Y-34329520D01*
X48554329Y-34319030D01*
X48577428Y-34310765D01*
X48601227Y-34304804D01*
X48625495Y-34301204D01*
X48649999Y-34300000D01*
X49300001Y-34300000D01*
X49324505Y-34301204D01*
X49324505Y-34301204D01*
G37*
D14*
G04 #@! TD*
G04 #@! TO.P,C15,1*
G04 #@! TO.N,+3V3*
X48975000Y-35000000D03*
D13*
G04 #@! TO.N,GND*
G04 #@! TO.C,C16*
G36*
X23324505Y-44301204D02*
X23348773Y-44304804D01*
X23372572Y-44310765D01*
X23395671Y-44319030D01*
X23417850Y-44329520D01*
X23438893Y-44342132D01*
X23458599Y-44356747D01*
X23476777Y-44373223D01*
X23493253Y-44391401D01*
X23507868Y-44411107D01*
X23520480Y-44432150D01*
X23530970Y-44454329D01*
X23539235Y-44477428D01*
X23545196Y-44501227D01*
X23548796Y-44525495D01*
X23550000Y-44549999D01*
X23550000Y-45450001D01*
X23548796Y-45474505D01*
X23545196Y-45498773D01*
X23539235Y-45522572D01*
X23530970Y-45545671D01*
X23520480Y-45567850D01*
X23507868Y-45588893D01*
X23493253Y-45608599D01*
X23476777Y-45626777D01*
X23458599Y-45643253D01*
X23438893Y-45657868D01*
X23417850Y-45670480D01*
X23395671Y-45680970D01*
X23372572Y-45689235D01*
X23348773Y-45695196D01*
X23324505Y-45698796D01*
X23300001Y-45700000D01*
X22649999Y-45700000D01*
X22625495Y-45698796D01*
X22601227Y-45695196D01*
X22577428Y-45689235D01*
X22554329Y-45680970D01*
X22532150Y-45670480D01*
X22511107Y-45657868D01*
X22491401Y-45643253D01*
X22473223Y-45626777D01*
X22456747Y-45608599D01*
X22442132Y-45588893D01*
X22429520Y-45567850D01*
X22419030Y-45545671D01*
X22410765Y-45522572D01*
X22404804Y-45498773D01*
X22401204Y-45474505D01*
X22400000Y-45450001D01*
X22400000Y-44549999D01*
X22401204Y-44525495D01*
X22404804Y-44501227D01*
X22410765Y-44477428D01*
X22419030Y-44454329D01*
X22429520Y-44432150D01*
X22442132Y-44411107D01*
X22456747Y-44391401D01*
X22473223Y-44373223D01*
X22491401Y-44356747D01*
X22511107Y-44342132D01*
X22532150Y-44329520D01*
X22554329Y-44319030D01*
X22577428Y-44310765D01*
X22601227Y-44304804D01*
X22625495Y-44301204D01*
X22649999Y-44300000D01*
X23300001Y-44300000D01*
X23324505Y-44301204D01*
X23324505Y-44301204D01*
G37*
D14*
G04 #@! TD*
G04 #@! TO.P,C16,2*
G04 #@! TO.N,GND*
X22975000Y-45000000D03*
D13*
G04 #@! TO.N,+5V*
G04 #@! TO.C,C16*
G36*
X25374505Y-44301204D02*
X25398773Y-44304804D01*
X25422572Y-44310765D01*
X25445671Y-44319030D01*
X25467850Y-44329520D01*
X25488893Y-44342132D01*
X25508599Y-44356747D01*
X25526777Y-44373223D01*
X25543253Y-44391401D01*
X25557868Y-44411107D01*
X25570480Y-44432150D01*
X25580970Y-44454329D01*
X25589235Y-44477428D01*
X25595196Y-44501227D01*
X25598796Y-44525495D01*
X25600000Y-44549999D01*
X25600000Y-45450001D01*
X25598796Y-45474505D01*
X25595196Y-45498773D01*
X25589235Y-45522572D01*
X25580970Y-45545671D01*
X25570480Y-45567850D01*
X25557868Y-45588893D01*
X25543253Y-45608599D01*
X25526777Y-45626777D01*
X25508599Y-45643253D01*
X25488893Y-45657868D01*
X25467850Y-45670480D01*
X25445671Y-45680970D01*
X25422572Y-45689235D01*
X25398773Y-45695196D01*
X25374505Y-45698796D01*
X25350001Y-45700000D01*
X24699999Y-45700000D01*
X24675495Y-45698796D01*
X24651227Y-45695196D01*
X24627428Y-45689235D01*
X24604329Y-45680970D01*
X24582150Y-45670480D01*
X24561107Y-45657868D01*
X24541401Y-45643253D01*
X24523223Y-45626777D01*
X24506747Y-45608599D01*
X24492132Y-45588893D01*
X24479520Y-45567850D01*
X24469030Y-45545671D01*
X24460765Y-45522572D01*
X24454804Y-45498773D01*
X24451204Y-45474505D01*
X24450000Y-45450001D01*
X24450000Y-44549999D01*
X24451204Y-44525495D01*
X24454804Y-44501227D01*
X24460765Y-44477428D01*
X24469030Y-44454329D01*
X24479520Y-44432150D01*
X24492132Y-44411107D01*
X24506747Y-44391401D01*
X24523223Y-44373223D01*
X24541401Y-44356747D01*
X24561107Y-44342132D01*
X24582150Y-44329520D01*
X24604329Y-44319030D01*
X24627428Y-44310765D01*
X24651227Y-44304804D01*
X24675495Y-44301204D01*
X24699999Y-44300000D01*
X25350001Y-44300000D01*
X25374505Y-44301204D01*
X25374505Y-44301204D01*
G37*
D14*
G04 #@! TD*
G04 #@! TO.P,C16,1*
G04 #@! TO.N,+5V*
X25025000Y-45000000D03*
D13*
G04 #@! TO.N,+3V3*
G04 #@! TO.C,C17*
G36*
X49324505Y-31301204D02*
X49348773Y-31304804D01*
X49372572Y-31310765D01*
X49395671Y-31319030D01*
X49417850Y-31329520D01*
X49438893Y-31342132D01*
X49458599Y-31356747D01*
X49476777Y-31373223D01*
X49493253Y-31391401D01*
X49507868Y-31411107D01*
X49520480Y-31432150D01*
X49530970Y-31454329D01*
X49539235Y-31477428D01*
X49545196Y-31501227D01*
X49548796Y-31525495D01*
X49550000Y-31549999D01*
X49550000Y-32450001D01*
X49548796Y-32474505D01*
X49545196Y-32498773D01*
X49539235Y-32522572D01*
X49530970Y-32545671D01*
X49520480Y-32567850D01*
X49507868Y-32588893D01*
X49493253Y-32608599D01*
X49476777Y-32626777D01*
X49458599Y-32643253D01*
X49438893Y-32657868D01*
X49417850Y-32670480D01*
X49395671Y-32680970D01*
X49372572Y-32689235D01*
X49348773Y-32695196D01*
X49324505Y-32698796D01*
X49300001Y-32700000D01*
X48649999Y-32700000D01*
X48625495Y-32698796D01*
X48601227Y-32695196D01*
X48577428Y-32689235D01*
X48554329Y-32680970D01*
X48532150Y-32670480D01*
X48511107Y-32657868D01*
X48491401Y-32643253D01*
X48473223Y-32626777D01*
X48456747Y-32608599D01*
X48442132Y-32588893D01*
X48429520Y-32567850D01*
X48419030Y-32545671D01*
X48410765Y-32522572D01*
X48404804Y-32498773D01*
X48401204Y-32474505D01*
X48400000Y-32450001D01*
X48400000Y-31549999D01*
X48401204Y-31525495D01*
X48404804Y-31501227D01*
X48410765Y-31477428D01*
X48419030Y-31454329D01*
X48429520Y-31432150D01*
X48442132Y-31411107D01*
X48456747Y-31391401D01*
X48473223Y-31373223D01*
X48491401Y-31356747D01*
X48511107Y-31342132D01*
X48532150Y-31329520D01*
X48554329Y-31319030D01*
X48577428Y-31310765D01*
X48601227Y-31304804D01*
X48625495Y-31301204D01*
X48649999Y-31300000D01*
X49300001Y-31300000D01*
X49324505Y-31301204D01*
X49324505Y-31301204D01*
G37*
D14*
G04 #@! TD*
G04 #@! TO.P,C17,1*
G04 #@! TO.N,+3V3*
X48975000Y-32000000D03*
D13*
G04 #@! TO.N,GND*
G04 #@! TO.C,C17*
G36*
X51374505Y-31301204D02*
X51398773Y-31304804D01*
X51422572Y-31310765D01*
X51445671Y-31319030D01*
X51467850Y-31329520D01*
X51488893Y-31342132D01*
X51508599Y-31356747D01*
X51526777Y-31373223D01*
X51543253Y-31391401D01*
X51557868Y-31411107D01*
X51570480Y-31432150D01*
X51580970Y-31454329D01*
X51589235Y-31477428D01*
X51595196Y-31501227D01*
X51598796Y-31525495D01*
X51600000Y-31549999D01*
X51600000Y-32450001D01*
X51598796Y-32474505D01*
X51595196Y-32498773D01*
X51589235Y-32522572D01*
X51580970Y-32545671D01*
X51570480Y-32567850D01*
X51557868Y-32588893D01*
X51543253Y-32608599D01*
X51526777Y-32626777D01*
X51508599Y-32643253D01*
X51488893Y-32657868D01*
X51467850Y-32670480D01*
X51445671Y-32680970D01*
X51422572Y-32689235D01*
X51398773Y-32695196D01*
X51374505Y-32698796D01*
X51350001Y-32700000D01*
X50699999Y-32700000D01*
X50675495Y-32698796D01*
X50651227Y-32695196D01*
X50627428Y-32689235D01*
X50604329Y-32680970D01*
X50582150Y-32670480D01*
X50561107Y-32657868D01*
X50541401Y-32643253D01*
X50523223Y-32626777D01*
X50506747Y-32608599D01*
X50492132Y-32588893D01*
X50479520Y-32567850D01*
X50469030Y-32545671D01*
X50460765Y-32522572D01*
X50454804Y-32498773D01*
X50451204Y-32474505D01*
X50450000Y-32450001D01*
X50450000Y-31549999D01*
X50451204Y-31525495D01*
X50454804Y-31501227D01*
X50460765Y-31477428D01*
X50469030Y-31454329D01*
X50479520Y-31432150D01*
X50492132Y-31411107D01*
X50506747Y-31391401D01*
X50523223Y-31373223D01*
X50541401Y-31356747D01*
X50561107Y-31342132D01*
X50582150Y-31329520D01*
X50604329Y-31319030D01*
X50627428Y-31310765D01*
X50651227Y-31304804D01*
X50675495Y-31301204D01*
X50699999Y-31300000D01*
X51350001Y-31300000D01*
X51374505Y-31301204D01*
X51374505Y-31301204D01*
G37*
D14*
G04 #@! TD*
G04 #@! TO.P,C17,2*
G04 #@! TO.N,GND*
X51025000Y-32000000D03*
D15*
G04 #@! TO.P,J1,1*
G04 #@! TO.N,+5V*
X29400000Y-51300000D03*
G04 #@! TO.P,J1,2*
G04 #@! TO.N,Net-(J1-Pad2)*
X30200000Y-51300000D03*
G04 #@! TO.P,J1,3*
G04 #@! TO.N,Net-(J1-Pad3)*
X31000000Y-51300000D03*
G04 #@! TO.P,J1,4*
G04 #@! TO.N,Net-(J1-Pad4)*
X31800000Y-51300000D03*
G04 #@! TO.P,J1,5*
G04 #@! TO.N,GND*
X32600000Y-51300000D03*
D16*
G04 #@! TO.P,J1,6*
X26550000Y-51400000D03*
X26550000Y-56850000D03*
X35450000Y-51400000D03*
X35450000Y-56850000D03*
G04 #@! TD*
D17*
G04 #@! TO.P,J2,1*
G04 #@! TO.N,+3V3*
X40000000Y-56000000D03*
D18*
G04 #@! TO.P,J2,2*
G04 #@! TO.N,/SWCLK*
X42540000Y-56000000D03*
G04 #@! TO.P,J2,3*
G04 #@! TO.N,GND*
X45080000Y-56000000D03*
G04 #@! TO.P,J2,4*
G04 #@! TO.N,/SWDIO*
X47620000Y-56000000D03*
G04 #@! TO.P,J2,5*
G04 #@! TO.N,/NRST*
X50160000Y-56000000D03*
G04 #@! TO.P,J2,6*
G04 #@! TO.N,/SWO*
X52700000Y-56000000D03*
G04 #@! TD*
D13*
G04 #@! TO.N,+3V3*
G04 #@! TO.C,R1*
G36*
X40374505Y-25301204D02*
X40398773Y-25304804D01*
X40422572Y-25310765D01*
X40445671Y-25319030D01*
X40467850Y-25329520D01*
X40488893Y-25342132D01*
X40508599Y-25356747D01*
X40526777Y-25373223D01*
X40543253Y-25391401D01*
X40557868Y-25411107D01*
X40570480Y-25432150D01*
X40580970Y-25454329D01*
X40589235Y-25477428D01*
X40595196Y-25501227D01*
X40598796Y-25525495D01*
X40600000Y-25549999D01*
X40600000Y-26450001D01*
X40598796Y-26474505D01*
X40595196Y-26498773D01*
X40589235Y-26522572D01*
X40580970Y-26545671D01*
X40570480Y-26567850D01*
X40557868Y-26588893D01*
X40543253Y-26608599D01*
X40526777Y-26626777D01*
X40508599Y-26643253D01*
X40488893Y-26657868D01*
X40467850Y-26670480D01*
X40445671Y-26680970D01*
X40422572Y-26689235D01*
X40398773Y-26695196D01*
X40374505Y-26698796D01*
X40350001Y-26700000D01*
X39699999Y-26700000D01*
X39675495Y-26698796D01*
X39651227Y-26695196D01*
X39627428Y-26689235D01*
X39604329Y-26680970D01*
X39582150Y-26670480D01*
X39561107Y-26657868D01*
X39541401Y-26643253D01*
X39523223Y-26626777D01*
X39506747Y-26608599D01*
X39492132Y-26588893D01*
X39479520Y-26567850D01*
X39469030Y-26545671D01*
X39460765Y-26522572D01*
X39454804Y-26498773D01*
X39451204Y-26474505D01*
X39450000Y-26450001D01*
X39450000Y-25549999D01*
X39451204Y-25525495D01*
X39454804Y-25501227D01*
X39460765Y-25477428D01*
X39469030Y-25454329D01*
X39479520Y-25432150D01*
X39492132Y-25411107D01*
X39506747Y-25391401D01*
X39523223Y-25373223D01*
X39541401Y-25356747D01*
X39561107Y-25342132D01*
X39582150Y-25329520D01*
X39604329Y-25319030D01*
X39627428Y-25310765D01*
X39651227Y-25304804D01*
X39675495Y-25301204D01*
X39699999Y-25300000D01*
X40350001Y-25300000D01*
X40374505Y-25301204D01*
X40374505Y-25301204D01*
G37*
D14*
G04 #@! TD*
G04 #@! TO.P,R1,1*
G04 #@! TO.N,+3V3*
X40025000Y-26000000D03*
D13*
G04 #@! TO.N,Net-(R1-Pad2)*
G04 #@! TO.C,R1*
G36*
X38324505Y-25301204D02*
X38348773Y-25304804D01*
X38372572Y-25310765D01*
X38395671Y-25319030D01*
X38417850Y-25329520D01*
X38438893Y-25342132D01*
X38458599Y-25356747D01*
X38476777Y-25373223D01*
X38493253Y-25391401D01*
X38507868Y-25411107D01*
X38520480Y-25432150D01*
X38530970Y-25454329D01*
X38539235Y-25477428D01*
X38545196Y-25501227D01*
X38548796Y-25525495D01*
X38550000Y-25549999D01*
X38550000Y-26450001D01*
X38548796Y-26474505D01*
X38545196Y-26498773D01*
X38539235Y-26522572D01*
X38530970Y-26545671D01*
X38520480Y-26567850D01*
X38507868Y-26588893D01*
X38493253Y-26608599D01*
X38476777Y-26626777D01*
X38458599Y-26643253D01*
X38438893Y-26657868D01*
X38417850Y-26670480D01*
X38395671Y-26680970D01*
X38372572Y-26689235D01*
X38348773Y-26695196D01*
X38324505Y-26698796D01*
X38300001Y-26700000D01*
X37649999Y-26700000D01*
X37625495Y-26698796D01*
X37601227Y-26695196D01*
X37577428Y-26689235D01*
X37554329Y-26680970D01*
X37532150Y-26670480D01*
X37511107Y-26657868D01*
X37491401Y-26643253D01*
X37473223Y-26626777D01*
X37456747Y-26608599D01*
X37442132Y-26588893D01*
X37429520Y-26567850D01*
X37419030Y-26545671D01*
X37410765Y-26522572D01*
X37404804Y-26498773D01*
X37401204Y-26474505D01*
X37400000Y-26450001D01*
X37400000Y-25549999D01*
X37401204Y-25525495D01*
X37404804Y-25501227D01*
X37410765Y-25477428D01*
X37419030Y-25454329D01*
X37429520Y-25432150D01*
X37442132Y-25411107D01*
X37456747Y-25391401D01*
X37473223Y-25373223D01*
X37491401Y-25356747D01*
X37511107Y-25342132D01*
X37532150Y-25329520D01*
X37554329Y-25319030D01*
X37577428Y-25310765D01*
X37601227Y-25304804D01*
X37625495Y-25301204D01*
X37649999Y-25300000D01*
X38300001Y-25300000D01*
X38324505Y-25301204D01*
X38324505Y-25301204D01*
G37*
D14*
G04 #@! TD*
G04 #@! TO.P,R1,2*
G04 #@! TO.N,Net-(R1-Pad2)*
X37975000Y-26000000D03*
D13*
G04 #@! TO.N,Net-(R1-Pad2)*
G04 #@! TO.C,R2*
G36*
X35374505Y-25301204D02*
X35398773Y-25304804D01*
X35422572Y-25310765D01*
X35445671Y-25319030D01*
X35467850Y-25329520D01*
X35488893Y-25342132D01*
X35508599Y-25356747D01*
X35526777Y-25373223D01*
X35543253Y-25391401D01*
X35557868Y-25411107D01*
X35570480Y-25432150D01*
X35580970Y-25454329D01*
X35589235Y-25477428D01*
X35595196Y-25501227D01*
X35598796Y-25525495D01*
X35600000Y-25549999D01*
X35600000Y-26450001D01*
X35598796Y-26474505D01*
X35595196Y-26498773D01*
X35589235Y-26522572D01*
X35580970Y-26545671D01*
X35570480Y-26567850D01*
X35557868Y-26588893D01*
X35543253Y-26608599D01*
X35526777Y-26626777D01*
X35508599Y-26643253D01*
X35488893Y-26657868D01*
X35467850Y-26670480D01*
X35445671Y-26680970D01*
X35422572Y-26689235D01*
X35398773Y-26695196D01*
X35374505Y-26698796D01*
X35350001Y-26700000D01*
X34699999Y-26700000D01*
X34675495Y-26698796D01*
X34651227Y-26695196D01*
X34627428Y-26689235D01*
X34604329Y-26680970D01*
X34582150Y-26670480D01*
X34561107Y-26657868D01*
X34541401Y-26643253D01*
X34523223Y-26626777D01*
X34506747Y-26608599D01*
X34492132Y-26588893D01*
X34479520Y-26567850D01*
X34469030Y-26545671D01*
X34460765Y-26522572D01*
X34454804Y-26498773D01*
X34451204Y-26474505D01*
X34450000Y-26450001D01*
X34450000Y-25549999D01*
X34451204Y-25525495D01*
X34454804Y-25501227D01*
X34460765Y-25477428D01*
X34469030Y-25454329D01*
X34479520Y-25432150D01*
X34492132Y-25411107D01*
X34506747Y-25391401D01*
X34523223Y-25373223D01*
X34541401Y-25356747D01*
X34561107Y-25342132D01*
X34582150Y-25329520D01*
X34604329Y-25319030D01*
X34627428Y-25310765D01*
X34651227Y-25304804D01*
X34675495Y-25301204D01*
X34699999Y-25300000D01*
X35350001Y-25300000D01*
X35374505Y-25301204D01*
X35374505Y-25301204D01*
G37*
D14*
G04 #@! TD*
G04 #@! TO.P,R2,1*
G04 #@! TO.N,Net-(R1-Pad2)*
X35025000Y-26000000D03*
D13*
G04 #@! TO.N,Net-(C4-Pad1)*
G04 #@! TO.C,R2*
G36*
X33324505Y-25301204D02*
X33348773Y-25304804D01*
X33372572Y-25310765D01*
X33395671Y-25319030D01*
X33417850Y-25329520D01*
X33438893Y-25342132D01*
X33458599Y-25356747D01*
X33476777Y-25373223D01*
X33493253Y-25391401D01*
X33507868Y-25411107D01*
X33520480Y-25432150D01*
X33530970Y-25454329D01*
X33539235Y-25477428D01*
X33545196Y-25501227D01*
X33548796Y-25525495D01*
X33550000Y-25549999D01*
X33550000Y-26450001D01*
X33548796Y-26474505D01*
X33545196Y-26498773D01*
X33539235Y-26522572D01*
X33530970Y-26545671D01*
X33520480Y-26567850D01*
X33507868Y-26588893D01*
X33493253Y-26608599D01*
X33476777Y-26626777D01*
X33458599Y-26643253D01*
X33438893Y-26657868D01*
X33417850Y-26670480D01*
X33395671Y-26680970D01*
X33372572Y-26689235D01*
X33348773Y-26695196D01*
X33324505Y-26698796D01*
X33300001Y-26700000D01*
X32649999Y-26700000D01*
X32625495Y-26698796D01*
X32601227Y-26695196D01*
X32577428Y-26689235D01*
X32554329Y-26680970D01*
X32532150Y-26670480D01*
X32511107Y-26657868D01*
X32491401Y-26643253D01*
X32473223Y-26626777D01*
X32456747Y-26608599D01*
X32442132Y-26588893D01*
X32429520Y-26567850D01*
X32419030Y-26545671D01*
X32410765Y-26522572D01*
X32404804Y-26498773D01*
X32401204Y-26474505D01*
X32400000Y-26450001D01*
X32400000Y-25549999D01*
X32401204Y-25525495D01*
X32404804Y-25501227D01*
X32410765Y-25477428D01*
X32419030Y-25454329D01*
X32429520Y-25432150D01*
X32442132Y-25411107D01*
X32456747Y-25391401D01*
X32473223Y-25373223D01*
X32491401Y-25356747D01*
X32511107Y-25342132D01*
X32532150Y-25329520D01*
X32554329Y-25319030D01*
X32577428Y-25310765D01*
X32601227Y-25304804D01*
X32625495Y-25301204D01*
X32649999Y-25300000D01*
X33300001Y-25300000D01*
X33324505Y-25301204D01*
X33324505Y-25301204D01*
G37*
D14*
G04 #@! TD*
G04 #@! TO.P,R2,2*
G04 #@! TO.N,Net-(C4-Pad1)*
X32975000Y-26000000D03*
D13*
G04 #@! TO.N,GND*
G04 #@! TO.C,R3*
G36*
X33324505Y-22301204D02*
X33348773Y-22304804D01*
X33372572Y-22310765D01*
X33395671Y-22319030D01*
X33417850Y-22329520D01*
X33438893Y-22342132D01*
X33458599Y-22356747D01*
X33476777Y-22373223D01*
X33493253Y-22391401D01*
X33507868Y-22411107D01*
X33520480Y-22432150D01*
X33530970Y-22454329D01*
X33539235Y-22477428D01*
X33545196Y-22501227D01*
X33548796Y-22525495D01*
X33550000Y-22549999D01*
X33550000Y-23450001D01*
X33548796Y-23474505D01*
X33545196Y-23498773D01*
X33539235Y-23522572D01*
X33530970Y-23545671D01*
X33520480Y-23567850D01*
X33507868Y-23588893D01*
X33493253Y-23608599D01*
X33476777Y-23626777D01*
X33458599Y-23643253D01*
X33438893Y-23657868D01*
X33417850Y-23670480D01*
X33395671Y-23680970D01*
X33372572Y-23689235D01*
X33348773Y-23695196D01*
X33324505Y-23698796D01*
X33300001Y-23700000D01*
X32649999Y-23700000D01*
X32625495Y-23698796D01*
X32601227Y-23695196D01*
X32577428Y-23689235D01*
X32554329Y-23680970D01*
X32532150Y-23670480D01*
X32511107Y-23657868D01*
X32491401Y-23643253D01*
X32473223Y-23626777D01*
X32456747Y-23608599D01*
X32442132Y-23588893D01*
X32429520Y-23567850D01*
X32419030Y-23545671D01*
X32410765Y-23522572D01*
X32404804Y-23498773D01*
X32401204Y-23474505D01*
X32400000Y-23450001D01*
X32400000Y-22549999D01*
X32401204Y-22525495D01*
X32404804Y-22501227D01*
X32410765Y-22477428D01*
X32419030Y-22454329D01*
X32429520Y-22432150D01*
X32442132Y-22411107D01*
X32456747Y-22391401D01*
X32473223Y-22373223D01*
X32491401Y-22356747D01*
X32511107Y-22342132D01*
X32532150Y-22329520D01*
X32554329Y-22319030D01*
X32577428Y-22310765D01*
X32601227Y-22304804D01*
X32625495Y-22301204D01*
X32649999Y-22300000D01*
X33300001Y-22300000D01*
X33324505Y-22301204D01*
X33324505Y-22301204D01*
G37*
D14*
G04 #@! TD*
G04 #@! TO.P,R3,2*
G04 #@! TO.N,GND*
X32975000Y-23000000D03*
D13*
G04 #@! TO.N,Net-(C4-Pad1)*
G04 #@! TO.C,R3*
G36*
X35374505Y-22301204D02*
X35398773Y-22304804D01*
X35422572Y-22310765D01*
X35445671Y-22319030D01*
X35467850Y-22329520D01*
X35488893Y-22342132D01*
X35508599Y-22356747D01*
X35526777Y-22373223D01*
X35543253Y-22391401D01*
X35557868Y-22411107D01*
X35570480Y-22432150D01*
X35580970Y-22454329D01*
X35589235Y-22477428D01*
X35595196Y-22501227D01*
X35598796Y-22525495D01*
X35600000Y-22549999D01*
X35600000Y-23450001D01*
X35598796Y-23474505D01*
X35595196Y-23498773D01*
X35589235Y-23522572D01*
X35580970Y-23545671D01*
X35570480Y-23567850D01*
X35557868Y-23588893D01*
X35543253Y-23608599D01*
X35526777Y-23626777D01*
X35508599Y-23643253D01*
X35488893Y-23657868D01*
X35467850Y-23670480D01*
X35445671Y-23680970D01*
X35422572Y-23689235D01*
X35398773Y-23695196D01*
X35374505Y-23698796D01*
X35350001Y-23700000D01*
X34699999Y-23700000D01*
X34675495Y-23698796D01*
X34651227Y-23695196D01*
X34627428Y-23689235D01*
X34604329Y-23680970D01*
X34582150Y-23670480D01*
X34561107Y-23657868D01*
X34541401Y-23643253D01*
X34523223Y-23626777D01*
X34506747Y-23608599D01*
X34492132Y-23588893D01*
X34479520Y-23567850D01*
X34469030Y-23545671D01*
X34460765Y-23522572D01*
X34454804Y-23498773D01*
X34451204Y-23474505D01*
X34450000Y-23450001D01*
X34450000Y-22549999D01*
X34451204Y-22525495D01*
X34454804Y-22501227D01*
X34460765Y-22477428D01*
X34469030Y-22454329D01*
X34479520Y-22432150D01*
X34492132Y-22411107D01*
X34506747Y-22391401D01*
X34523223Y-22373223D01*
X34541401Y-22356747D01*
X34561107Y-22342132D01*
X34582150Y-22329520D01*
X34604329Y-22319030D01*
X34627428Y-22310765D01*
X34651227Y-22304804D01*
X34675495Y-22301204D01*
X34699999Y-22300000D01*
X35350001Y-22300000D01*
X35374505Y-22301204D01*
X35374505Y-22301204D01*
G37*
D14*
G04 #@! TD*
G04 #@! TO.P,R3,1*
G04 #@! TO.N,Net-(C4-Pad1)*
X35025000Y-23000000D03*
D13*
G04 #@! TO.N,Net-(R4-Pad1)*
G04 #@! TO.C,R4*
G36*
X41374505Y-48301204D02*
X41398773Y-48304804D01*
X41422572Y-48310765D01*
X41445671Y-48319030D01*
X41467850Y-48329520D01*
X41488893Y-48342132D01*
X41508599Y-48356747D01*
X41526777Y-48373223D01*
X41543253Y-48391401D01*
X41557868Y-48411107D01*
X41570480Y-48432150D01*
X41580970Y-48454329D01*
X41589235Y-48477428D01*
X41595196Y-48501227D01*
X41598796Y-48525495D01*
X41600000Y-48549999D01*
X41600000Y-49450001D01*
X41598796Y-49474505D01*
X41595196Y-49498773D01*
X41589235Y-49522572D01*
X41580970Y-49545671D01*
X41570480Y-49567850D01*
X41557868Y-49588893D01*
X41543253Y-49608599D01*
X41526777Y-49626777D01*
X41508599Y-49643253D01*
X41488893Y-49657868D01*
X41467850Y-49670480D01*
X41445671Y-49680970D01*
X41422572Y-49689235D01*
X41398773Y-49695196D01*
X41374505Y-49698796D01*
X41350001Y-49700000D01*
X40699999Y-49700000D01*
X40675495Y-49698796D01*
X40651227Y-49695196D01*
X40627428Y-49689235D01*
X40604329Y-49680970D01*
X40582150Y-49670480D01*
X40561107Y-49657868D01*
X40541401Y-49643253D01*
X40523223Y-49626777D01*
X40506747Y-49608599D01*
X40492132Y-49588893D01*
X40479520Y-49567850D01*
X40469030Y-49545671D01*
X40460765Y-49522572D01*
X40454804Y-49498773D01*
X40451204Y-49474505D01*
X40450000Y-49450001D01*
X40450000Y-48549999D01*
X40451204Y-48525495D01*
X40454804Y-48501227D01*
X40460765Y-48477428D01*
X40469030Y-48454329D01*
X40479520Y-48432150D01*
X40492132Y-48411107D01*
X40506747Y-48391401D01*
X40523223Y-48373223D01*
X40541401Y-48356747D01*
X40561107Y-48342132D01*
X40582150Y-48329520D01*
X40604329Y-48319030D01*
X40627428Y-48310765D01*
X40651227Y-48304804D01*
X40675495Y-48301204D01*
X40699999Y-48300000D01*
X41350001Y-48300000D01*
X41374505Y-48301204D01*
X41374505Y-48301204D01*
G37*
D14*
G04 #@! TD*
G04 #@! TO.P,R4,1*
G04 #@! TO.N,Net-(R4-Pad1)*
X41025000Y-49000000D03*
D13*
G04 #@! TO.N,GND*
G04 #@! TO.C,R4*
G36*
X39324505Y-48301204D02*
X39348773Y-48304804D01*
X39372572Y-48310765D01*
X39395671Y-48319030D01*
X39417850Y-48329520D01*
X39438893Y-48342132D01*
X39458599Y-48356747D01*
X39476777Y-48373223D01*
X39493253Y-48391401D01*
X39507868Y-48411107D01*
X39520480Y-48432150D01*
X39530970Y-48454329D01*
X39539235Y-48477428D01*
X39545196Y-48501227D01*
X39548796Y-48525495D01*
X39550000Y-48549999D01*
X39550000Y-49450001D01*
X39548796Y-49474505D01*
X39545196Y-49498773D01*
X39539235Y-49522572D01*
X39530970Y-49545671D01*
X39520480Y-49567850D01*
X39507868Y-49588893D01*
X39493253Y-49608599D01*
X39476777Y-49626777D01*
X39458599Y-49643253D01*
X39438893Y-49657868D01*
X39417850Y-49670480D01*
X39395671Y-49680970D01*
X39372572Y-49689235D01*
X39348773Y-49695196D01*
X39324505Y-49698796D01*
X39300001Y-49700000D01*
X38649999Y-49700000D01*
X38625495Y-49698796D01*
X38601227Y-49695196D01*
X38577428Y-49689235D01*
X38554329Y-49680970D01*
X38532150Y-49670480D01*
X38511107Y-49657868D01*
X38491401Y-49643253D01*
X38473223Y-49626777D01*
X38456747Y-49608599D01*
X38442132Y-49588893D01*
X38429520Y-49567850D01*
X38419030Y-49545671D01*
X38410765Y-49522572D01*
X38404804Y-49498773D01*
X38401204Y-49474505D01*
X38400000Y-49450001D01*
X38400000Y-48549999D01*
X38401204Y-48525495D01*
X38404804Y-48501227D01*
X38410765Y-48477428D01*
X38419030Y-48454329D01*
X38429520Y-48432150D01*
X38442132Y-48411107D01*
X38456747Y-48391401D01*
X38473223Y-48373223D01*
X38491401Y-48356747D01*
X38511107Y-48342132D01*
X38532150Y-48329520D01*
X38554329Y-48319030D01*
X38577428Y-48310765D01*
X38601227Y-48304804D01*
X38625495Y-48301204D01*
X38649999Y-48300000D01*
X39300001Y-48300000D01*
X39324505Y-48301204D01*
X39324505Y-48301204D01*
G37*
D14*
G04 #@! TD*
G04 #@! TO.P,R4,2*
G04 #@! TO.N,GND*
X38975000Y-49000000D03*
D13*
G04 #@! TO.N,/NRST*
G04 #@! TO.C,R5*
G36*
X49324505Y-51801204D02*
X49348773Y-51804804D01*
X49372572Y-51810765D01*
X49395671Y-51819030D01*
X49417850Y-51829520D01*
X49438893Y-51842132D01*
X49458599Y-51856747D01*
X49476777Y-51873223D01*
X49493253Y-51891401D01*
X49507868Y-51911107D01*
X49520480Y-51932150D01*
X49530970Y-51954329D01*
X49539235Y-51977428D01*
X49545196Y-52001227D01*
X49548796Y-52025495D01*
X49550000Y-52049999D01*
X49550000Y-52950001D01*
X49548796Y-52974505D01*
X49545196Y-52998773D01*
X49539235Y-53022572D01*
X49530970Y-53045671D01*
X49520480Y-53067850D01*
X49507868Y-53088893D01*
X49493253Y-53108599D01*
X49476777Y-53126777D01*
X49458599Y-53143253D01*
X49438893Y-53157868D01*
X49417850Y-53170480D01*
X49395671Y-53180970D01*
X49372572Y-53189235D01*
X49348773Y-53195196D01*
X49324505Y-53198796D01*
X49300001Y-53200000D01*
X48649999Y-53200000D01*
X48625495Y-53198796D01*
X48601227Y-53195196D01*
X48577428Y-53189235D01*
X48554329Y-53180970D01*
X48532150Y-53170480D01*
X48511107Y-53157868D01*
X48491401Y-53143253D01*
X48473223Y-53126777D01*
X48456747Y-53108599D01*
X48442132Y-53088893D01*
X48429520Y-53067850D01*
X48419030Y-53045671D01*
X48410765Y-53022572D01*
X48404804Y-52998773D01*
X48401204Y-52974505D01*
X48400000Y-52950001D01*
X48400000Y-52049999D01*
X48401204Y-52025495D01*
X48404804Y-52001227D01*
X48410765Y-51977428D01*
X48419030Y-51954329D01*
X48429520Y-51932150D01*
X48442132Y-51911107D01*
X48456747Y-51891401D01*
X48473223Y-51873223D01*
X48491401Y-51856747D01*
X48511107Y-51842132D01*
X48532150Y-51829520D01*
X48554329Y-51819030D01*
X48577428Y-51810765D01*
X48601227Y-51804804D01*
X48625495Y-51801204D01*
X48649999Y-51800000D01*
X49300001Y-51800000D01*
X49324505Y-51801204D01*
X49324505Y-51801204D01*
G37*
D14*
G04 #@! TD*
G04 #@! TO.P,R5,2*
G04 #@! TO.N,/NRST*
X48975000Y-52500000D03*
D13*
G04 #@! TO.N,+3V3*
G04 #@! TO.C,R5*
G36*
X51374505Y-51801204D02*
X51398773Y-51804804D01*
X51422572Y-51810765D01*
X51445671Y-51819030D01*
X51467850Y-51829520D01*
X51488893Y-51842132D01*
X51508599Y-51856747D01*
X51526777Y-51873223D01*
X51543253Y-51891401D01*
X51557868Y-51911107D01*
X51570480Y-51932150D01*
X51580970Y-51954329D01*
X51589235Y-51977428D01*
X51595196Y-52001227D01*
X51598796Y-52025495D01*
X51600000Y-52049999D01*
X51600000Y-52950001D01*
X51598796Y-52974505D01*
X51595196Y-52998773D01*
X51589235Y-53022572D01*
X51580970Y-53045671D01*
X51570480Y-53067850D01*
X51557868Y-53088893D01*
X51543253Y-53108599D01*
X51526777Y-53126777D01*
X51508599Y-53143253D01*
X51488893Y-53157868D01*
X51467850Y-53170480D01*
X51445671Y-53180970D01*
X51422572Y-53189235D01*
X51398773Y-53195196D01*
X51374505Y-53198796D01*
X51350001Y-53200000D01*
X50699999Y-53200000D01*
X50675495Y-53198796D01*
X50651227Y-53195196D01*
X50627428Y-53189235D01*
X50604329Y-53180970D01*
X50582150Y-53170480D01*
X50561107Y-53157868D01*
X50541401Y-53143253D01*
X50523223Y-53126777D01*
X50506747Y-53108599D01*
X50492132Y-53088893D01*
X50479520Y-53067850D01*
X50469030Y-53045671D01*
X50460765Y-53022572D01*
X50454804Y-52998773D01*
X50451204Y-52974505D01*
X50450000Y-52950001D01*
X50450000Y-52049999D01*
X50451204Y-52025495D01*
X50454804Y-52001227D01*
X50460765Y-51977428D01*
X50469030Y-51954329D01*
X50479520Y-51932150D01*
X50492132Y-51911107D01*
X50506747Y-51891401D01*
X50523223Y-51873223D01*
X50541401Y-51856747D01*
X50561107Y-51842132D01*
X50582150Y-51829520D01*
X50604329Y-51819030D01*
X50627428Y-51810765D01*
X50651227Y-51804804D01*
X50675495Y-51801204D01*
X50699999Y-51800000D01*
X51350001Y-51800000D01*
X51374505Y-51801204D01*
X51374505Y-51801204D01*
G37*
D14*
G04 #@! TD*
G04 #@! TO.P,R5,1*
G04 #@! TO.N,+3V3*
X51025000Y-52500000D03*
D19*
G04 #@! TO.P,U2,1*
G04 #@! TO.N,+3V3*
X45700000Y-43750000D03*
G04 #@! TO.P,U2,2*
G04 #@! TO.N,Net-(U2-Pad2)*
X45700000Y-43250000D03*
G04 #@! TO.P,U2,3*
G04 #@! TO.N,Net-(U2-Pad3)*
X45700000Y-42750000D03*
G04 #@! TO.P,U2,4*
G04 #@! TO.N,Net-(U2-Pad4)*
X45700000Y-42250000D03*
G04 #@! TO.P,U2,5*
G04 #@! TO.N,/XTAL+*
X45700000Y-41750000D03*
G04 #@! TO.P,U2,6*
G04 #@! TO.N,/XTAL-*
X45700000Y-41250000D03*
G04 #@! TO.P,U2,7*
G04 #@! TO.N,/NRST*
X45700000Y-40750000D03*
G04 #@! TO.P,U2,8*
G04 #@! TO.N,Net-(U2-Pad8)*
X45700000Y-40250000D03*
G04 #@! TO.P,U2,9*
G04 #@! TO.N,Net-(U2-Pad9)*
X45700000Y-39750000D03*
G04 #@! TO.P,U2,10*
G04 #@! TO.N,Net-(U2-Pad10)*
X45700000Y-39250000D03*
G04 #@! TO.P,U2,11*
G04 #@! TO.N,Net-(U2-Pad11)*
X45700000Y-38750000D03*
G04 #@! TO.P,U2,12*
G04 #@! TO.N,GND*
X45700000Y-38250000D03*
G04 #@! TO.P,U2,13*
G04 #@! TO.N,+3V3*
X45700000Y-37750000D03*
G04 #@! TO.P,U2,14*
G04 #@! TO.N,Net-(U2-Pad14)*
X45700000Y-37250000D03*
G04 #@! TO.P,U2,15*
G04 #@! TO.N,Net-(U2-Pad15)*
X45700000Y-36750000D03*
G04 #@! TO.P,U2,16*
G04 #@! TO.N,Net-(U2-Pad16)*
X45700000Y-36250000D03*
D20*
G04 #@! TO.P,U2,17*
G04 #@! TO.N,Net-(U2-Pad17)*
X43750000Y-34300000D03*
G04 #@! TO.P,U2,18*
G04 #@! TO.N,GND*
X43250000Y-34300000D03*
G04 #@! TO.P,U2,19*
G04 #@! TO.N,+3V3*
X42750000Y-34300000D03*
G04 #@! TO.P,U2,20*
G04 #@! TO.N,Net-(U2-Pad20)*
X42250000Y-34300000D03*
G04 #@! TO.P,U2,21*
G04 #@! TO.N,Net-(U2-Pad21)*
X41750000Y-34300000D03*
G04 #@! TO.P,U2,22*
G04 #@! TO.N,Net-(U2-Pad22)*
X41250000Y-34300000D03*
G04 #@! TO.P,U2,23*
G04 #@! TO.N,Net-(U2-Pad23)*
X40750000Y-34300000D03*
G04 #@! TO.P,U2,24*
G04 #@! TO.N,Net-(U2-Pad24)*
X40250000Y-34300000D03*
G04 #@! TO.P,U2,25*
G04 #@! TO.N,Net-(U2-Pad25)*
X39750000Y-34300000D03*
G04 #@! TO.P,U2,26*
G04 #@! TO.N,Net-(U2-Pad26)*
X39250000Y-34300000D03*
G04 #@! TO.P,U2,27*
G04 #@! TO.N,Net-(U2-Pad27)*
X38750000Y-34300000D03*
G04 #@! TO.P,U2,28*
G04 #@! TO.N,Net-(U2-Pad28)*
X38250000Y-34300000D03*
G04 #@! TO.P,U2,29*
G04 #@! TO.N,Net-(U2-Pad29)*
X37750000Y-34300000D03*
G04 #@! TO.P,U2,30*
G04 #@! TO.N,Net-(C10-Pad1)*
X37250000Y-34300000D03*
G04 #@! TO.P,U2,31*
G04 #@! TO.N,GND*
X36750000Y-34300000D03*
G04 #@! TO.P,U2,32*
G04 #@! TO.N,+3V3*
X36250000Y-34300000D03*
D19*
G04 #@! TO.P,U2,33*
G04 #@! TO.N,Net-(U2-Pad33)*
X34300000Y-36250000D03*
G04 #@! TO.P,U2,34*
G04 #@! TO.N,Net-(U2-Pad34)*
X34300000Y-36750000D03*
G04 #@! TO.P,U2,35*
G04 #@! TO.N,Net-(U2-Pad35)*
X34300000Y-37250000D03*
G04 #@! TO.P,U2,36*
G04 #@! TO.N,Net-(U2-Pad36)*
X34300000Y-37750000D03*
G04 #@! TO.P,U2,37*
G04 #@! TO.N,Net-(U2-Pad37)*
X34300000Y-38250000D03*
G04 #@! TO.P,U2,38*
G04 #@! TO.N,Net-(U2-Pad38)*
X34300000Y-38750000D03*
G04 #@! TO.P,U2,39*
G04 #@! TO.N,Net-(U2-Pad39)*
X34300000Y-39250000D03*
G04 #@! TO.P,U2,40*
G04 #@! TO.N,Net-(U2-Pad40)*
X34300000Y-39750000D03*
G04 #@! TO.P,U2,41*
G04 #@! TO.N,Net-(U2-Pad41)*
X34300000Y-40250000D03*
G04 #@! TO.P,U2,42*
G04 #@! TO.N,Net-(U2-Pad42)*
X34300000Y-40750000D03*
G04 #@! TO.P,U2,43*
G04 #@! TO.N,Net-(U2-Pad43)*
X34300000Y-41250000D03*
G04 #@! TO.P,U2,44*
G04 #@! TO.N,Net-(U2-Pad44)*
X34300000Y-41750000D03*
G04 #@! TO.P,U2,45*
G04 #@! TO.N,Net-(U2-Pad45)*
X34300000Y-42250000D03*
G04 #@! TO.P,U2,46*
G04 #@! TO.N,/SWDIO*
X34300000Y-42750000D03*
G04 #@! TO.P,U2,47*
G04 #@! TO.N,GND*
X34300000Y-43250000D03*
G04 #@! TO.P,U2,48*
G04 #@! TO.N,+3V3*
X34300000Y-43750000D03*
D20*
G04 #@! TO.P,U2,49*
G04 #@! TO.N,/SWCLK*
X36250000Y-45700000D03*
G04 #@! TO.P,U2,50*
G04 #@! TO.N,Net-(U2-Pad50)*
X36750000Y-45700000D03*
G04 #@! TO.P,U2,51*
G04 #@! TO.N,Net-(U2-Pad51)*
X37250000Y-45700000D03*
G04 #@! TO.P,U2,52*
G04 #@! TO.N,Net-(U2-Pad52)*
X37750000Y-45700000D03*
G04 #@! TO.P,U2,53*
G04 #@! TO.N,Net-(U2-Pad53)*
X38250000Y-45700000D03*
G04 #@! TO.P,U2,54*
G04 #@! TO.N,Net-(U2-Pad54)*
X38750000Y-45700000D03*
G04 #@! TO.P,U2,55*
G04 #@! TO.N,/SWO*
X39250000Y-45700000D03*
G04 #@! TO.P,U2,56*
G04 #@! TO.N,Net-(U2-Pad56)*
X39750000Y-45700000D03*
G04 #@! TO.P,U2,57*
G04 #@! TO.N,Net-(U2-Pad57)*
X40250000Y-45700000D03*
G04 #@! TO.P,U2,58*
G04 #@! TO.N,Net-(U2-Pad58)*
X40750000Y-45700000D03*
G04 #@! TO.P,U2,59*
G04 #@! TO.N,Net-(U2-Pad59)*
X41250000Y-45700000D03*
G04 #@! TO.P,U2,60*
G04 #@! TO.N,Net-(R4-Pad1)*
X41750000Y-45700000D03*
G04 #@! TO.P,U2,61*
G04 #@! TO.N,Net-(U2-Pad61)*
X42250000Y-45700000D03*
G04 #@! TO.P,U2,62*
G04 #@! TO.N,Net-(U2-Pad62)*
X42750000Y-45700000D03*
G04 #@! TO.P,U2,63*
G04 #@! TO.N,GND*
X43250000Y-45700000D03*
G04 #@! TO.P,U2,64*
G04 #@! TO.N,+3V3*
X43750000Y-45700000D03*
G04 #@! TD*
D21*
G04 #@! TO.P,U1,4*
G04 #@! TO.N,GND*
X22850000Y-30000000D03*
D22*
G04 #@! TO.P,U1,2*
G04 #@! TO.N,+3V3*
X29150000Y-30000000D03*
G04 #@! TO.P,U1,3*
G04 #@! TO.N,+5V*
X29150000Y-27700000D03*
G04 #@! TO.P,U1,1*
G04 #@! TO.N,Net-(C4-Pad1)*
X29150000Y-32300000D03*
G04 #@! TD*
D23*
G04 #@! TO.N,GND*
X37000000Y-38000000D03*
X37000000Y-40000000D03*
X39000000Y-40000000D03*
X39000000Y-38000000D03*
X41000000Y-38000000D03*
X43000000Y-38000000D03*
X43000000Y-40000000D03*
X41000000Y-40000000D03*
X41000000Y-42000000D03*
X41000000Y-36000000D03*
X39000000Y-36000000D03*
X23000000Y-40000000D03*
X23000000Y-36000000D03*
X23000000Y-43000000D03*
X23000000Y-47000000D03*
X26000000Y-49000000D03*
X24000000Y-51000000D03*
X29000000Y-57000000D03*
X36000000Y-54000000D03*
X29000000Y-40000000D03*
X31000000Y-38000000D03*
X33000000Y-33000000D03*
X44000000Y-29000000D03*
X48000000Y-29000000D03*
X50000000Y-29000000D03*
X50000000Y-27000000D03*
X42000000Y-26000000D03*
X39500000Y-29000000D03*
X40000000Y-31000000D03*
X44000000Y-32500000D03*
X36500000Y-23000000D03*
X31500000Y-23000000D03*
X27000000Y-22500000D03*
X25500000Y-24000000D03*
X27000000Y-25500000D03*
X23000000Y-27000000D03*
X25000000Y-30000000D03*
X23000000Y-33000000D03*
X50000000Y-22500000D03*
X54000000Y-22500000D03*
X54000000Y-27000000D03*
X45000000Y-58000000D03*
X49000000Y-58000000D03*
X51000000Y-48500000D03*
X48000000Y-46000000D03*
X31000000Y-45500000D03*
X32500000Y-47000000D03*
X35000000Y-48000000D03*
X42500000Y-52500000D03*
G04 #@! TO.N,+3V3*
X49000000Y-28000000D03*
X44500000Y-27500000D03*
X40500000Y-27500000D03*
X27500000Y-31500000D03*
X42500000Y-50500000D03*
X27500000Y-45000000D03*
X31900000Y-27500000D03*
X36500000Y-27500000D03*
G04 #@! TO.N,/SWCLK*
X36900000Y-44000000D03*
G04 #@! TO.N,/SWDIO*
X37900000Y-44000000D03*
G04 #@! TO.N,/NRST*
X45800000Y-52500000D03*
X44399999Y-42199999D03*
G04 #@! TO.N,/SWO*
X38900000Y-44000000D03*
G04 #@! TD*
D24*
G04 #@! TO.N,GND*
X45700000Y-38250000D02*
X44250000Y-38250000D01*
X43250000Y-34600000D02*
X43250000Y-36000000D01*
X43250000Y-45700000D02*
X43250000Y-44400000D01*
X36750000Y-34300000D02*
X36750000Y-36000000D01*
X33400000Y-43250000D02*
X32650000Y-42500000D01*
X34300000Y-43250000D02*
X33400000Y-43250000D01*
D25*
G04 #@! TO.N,+3V3*
X29150000Y-30000000D02*
X29400000Y-30000000D01*
X49000000Y-31975000D02*
X48975000Y-32000000D01*
X49000000Y-28000000D02*
X49000000Y-31975000D01*
X48975000Y-32000000D02*
X48975000Y-35000000D01*
X40500000Y-29525000D02*
X42000000Y-31025000D01*
X40500000Y-27500000D02*
X40500000Y-29525000D01*
X44500000Y-27500000D02*
X44500000Y-26500000D01*
X44000000Y-26000000D02*
X44000000Y-24000000D01*
X44500000Y-26500000D02*
X44000000Y-26000000D01*
X42623372Y-30401628D02*
X42000000Y-31025000D01*
X45376628Y-30401628D02*
X42623372Y-30401628D01*
X46000000Y-31025000D02*
X45376628Y-30401628D01*
X29150000Y-30000000D02*
X29000000Y-30000000D01*
X29000000Y-30000000D02*
X27500000Y-31500000D01*
X42500000Y-50475000D02*
X43975000Y-49000000D01*
X42500000Y-50500000D02*
X42500000Y-50475000D01*
X42500000Y-50525000D02*
X41025000Y-52000000D01*
X42500000Y-50500000D02*
X42500000Y-50525000D01*
X41025000Y-54975000D02*
X40000000Y-56000000D01*
X41025000Y-52000000D02*
X41025000Y-54975000D01*
D24*
X36250000Y-32225000D02*
X35025000Y-31000000D01*
X36250000Y-34300000D02*
X36250000Y-32225000D01*
D25*
X43750000Y-48775000D02*
X43975000Y-49000000D01*
X49725000Y-51200000D02*
X51025000Y-52500000D01*
X42500000Y-50500000D02*
X43200000Y-51200000D01*
X43200000Y-51200000D02*
X49725000Y-51200000D01*
X31275000Y-43750000D02*
X31025000Y-43500000D01*
D24*
X34300000Y-43750000D02*
X31275000Y-43750000D01*
D25*
X31025000Y-43500000D02*
X29525000Y-45000000D01*
X29525000Y-45000000D02*
X27500000Y-45000000D01*
X29400000Y-30000000D02*
X31900000Y-27500000D01*
X40500000Y-26475000D02*
X40025000Y-26000000D01*
X40500000Y-27500000D02*
X40500000Y-26475000D01*
X40025000Y-26000000D02*
X40025000Y-23000000D01*
D24*
X42750000Y-31775000D02*
X42000000Y-31025000D01*
X43750000Y-45700000D02*
X43750000Y-44944998D01*
X43750000Y-44944998D02*
X44694998Y-44000000D01*
X44950000Y-43750000D02*
X45700000Y-43750000D01*
X44694998Y-44000000D02*
X44700000Y-44000000D01*
X44700000Y-44000000D02*
X44950000Y-43750000D01*
X43750000Y-46675000D02*
X43750000Y-45700000D01*
X43750000Y-48775000D02*
X43750000Y-46675000D01*
X42750000Y-34300000D02*
X42750000Y-31775000D01*
X48250000Y-37750000D02*
X45700000Y-37750000D01*
X49000000Y-37000000D02*
X48250000Y-37750000D01*
X48975000Y-35000000D02*
X48975000Y-36975000D01*
X48975000Y-36975000D02*
X49000000Y-37000000D01*
D25*
X36500000Y-29525000D02*
X35025000Y-31000000D01*
X36500000Y-27500000D02*
X36500000Y-29525000D01*
D26*
G04 #@! TO.N,Net-(C10-Pad1)*
X37250000Y-31775000D02*
X38000000Y-31025000D01*
X37250000Y-34300000D02*
X37250000Y-31775000D01*
G04 #@! TO.N,/SWCLK*
X36250000Y-44650000D02*
X36250000Y-45700000D01*
X36900000Y-44000000D02*
X36250000Y-44650000D01*
G04 #@! TO.N,/SWDIO*
X35000000Y-42750000D02*
X34300000Y-42750000D01*
X37215685Y-42750000D02*
X35000000Y-42750000D01*
X37900000Y-43434315D02*
X37215685Y-42750000D01*
X37900000Y-44000000D02*
X37900000Y-43434315D01*
G04 #@! TO.N,/NRST*
X50160000Y-53685000D02*
X48975000Y-52500000D01*
X50160000Y-56000000D02*
X50160000Y-53685000D01*
X48975000Y-52500000D02*
X45800000Y-52500000D01*
X45000000Y-40750000D02*
X44399999Y-41350001D01*
X44399999Y-41634314D02*
X44399999Y-42199999D01*
X45700000Y-40750000D02*
X45000000Y-40750000D01*
X44399999Y-41350001D02*
X44399999Y-41634314D01*
G04 #@! TO.N,/SWO*
X39250000Y-44350000D02*
X39250000Y-45700000D01*
X38900000Y-44000000D02*
X39250000Y-44350000D01*
G04 #@! TO.N,Net-(R4-Pad1)*
X41750000Y-45700000D02*
X41750000Y-46750000D01*
X41025000Y-47475000D02*
X41025000Y-49000000D01*
X41750000Y-46750000D02*
X41025000Y-47475000D01*
D25*
G04 #@! TO.N,+5V*
X29400000Y-49375000D02*
X25025000Y-45000000D01*
X29400000Y-51300000D02*
X29400000Y-49375000D01*
X25025000Y-38025000D02*
X25000000Y-38000000D01*
X25025000Y-45000000D02*
X25025000Y-38025000D01*
X28900000Y-27700000D02*
X29150000Y-27700000D01*
X25000000Y-31600000D02*
X28900000Y-27700000D01*
X25000000Y-38000000D02*
X25000000Y-31600000D01*
X29150000Y-24125000D02*
X29025000Y-24000000D01*
X29150000Y-27700000D02*
X29150000Y-24125000D01*
D26*
G04 #@! TO.N,Net-(C4-Pad1)*
X29150000Y-35825000D02*
X29000000Y-35975000D01*
X29150000Y-32300000D02*
X29150000Y-35825000D01*
X35025000Y-23950000D02*
X34475000Y-24500000D01*
X35025000Y-23000000D02*
X35025000Y-23950000D01*
X34475000Y-24500000D02*
X33400000Y-24500000D01*
X32975000Y-24925000D02*
X32975000Y-26000000D01*
X33400000Y-24500000D02*
X32975000Y-24925000D01*
X29400000Y-32300000D02*
X29150000Y-32300000D01*
X32975000Y-28725000D02*
X29400000Y-32300000D01*
X32975000Y-26000000D02*
X32975000Y-28725000D01*
G04 #@! TO.N,Net-(R1-Pad2)*
X37975000Y-26000000D02*
X35025000Y-26000000D01*
G04 #@! TO.N,/XTAL+*
X50700000Y-42675000D02*
X51000000Y-42975000D01*
X50700000Y-42100000D02*
X50700000Y-42675000D01*
X50325000Y-41725000D02*
X50700000Y-42100000D01*
X46475001Y-41725000D02*
X50325000Y-41725000D01*
X45700000Y-41750000D02*
X46450001Y-41750000D01*
X46450001Y-41750000D02*
X46475001Y-41725000D01*
X51000000Y-42975000D02*
X53475000Y-42975000D01*
X55000000Y-44500000D02*
X55000000Y-47437500D01*
X53475000Y-42975000D02*
X55000000Y-44500000D01*
G04 #@! TO.N,/XTAL-*
X50700000Y-40325000D02*
X51000000Y-40025000D01*
X50700000Y-40900000D02*
X50700000Y-40325000D01*
X50325000Y-41275000D02*
X50700000Y-40900000D01*
X46475001Y-41275000D02*
X50325000Y-41275000D01*
X45700000Y-41250000D02*
X46450001Y-41250000D01*
X46450001Y-41250000D02*
X46475001Y-41275000D01*
X51000000Y-40025000D02*
X53475000Y-40025000D01*
X55000000Y-38500000D02*
X55000000Y-35562500D01*
X53475000Y-40025000D02*
X55000000Y-38500000D01*
G04 #@! TD*
D27*
G04 #@! TO.N,GND*
G36*
X59290001Y-59290000D02*
X20710000Y-59290000D01*
X20710000Y-56654887D01*
X21265000Y-56654887D01*
X21265000Y-57345113D01*
X21529138Y-57982799D01*
X22017201Y-58470862D01*
X22654887Y-58735000D01*
X23345113Y-58735000D01*
X23982799Y-58470862D01*
X24470862Y-57982799D01*
X24735000Y-57345113D01*
X24735000Y-57135750D01*
X24915000Y-57135750D01*
X24915000Y-57826310D01*
X25011673Y-58059699D01*
X25190302Y-58238327D01*
X25423691Y-58335000D01*
X26264250Y-58335000D01*
X26423000Y-58176250D01*
X26423000Y-56977000D01*
X26677000Y-56977000D01*
X26677000Y-58176250D01*
X26835750Y-58335000D01*
X27676309Y-58335000D01*
X27909698Y-58238327D01*
X28088327Y-58059699D01*
X28185000Y-57826310D01*
X28185000Y-57135750D01*
X33815000Y-57135750D01*
X33815000Y-57826310D01*
X33911673Y-58059699D01*
X34090302Y-58238327D01*
X34323691Y-58335000D01*
X35164250Y-58335000D01*
X35323000Y-58176250D01*
X35323000Y-56977000D01*
X35577000Y-56977000D01*
X35577000Y-58176250D01*
X35735750Y-58335000D01*
X36576309Y-58335000D01*
X36809698Y-58238327D01*
X36988327Y-58059699D01*
X37085000Y-57826310D01*
X37085000Y-57135750D01*
X36926250Y-56977000D01*
X35577000Y-56977000D01*
X35323000Y-56977000D01*
X33973750Y-56977000D01*
X33815000Y-57135750D01*
X28185000Y-57135750D01*
X28026250Y-56977000D01*
X26677000Y-56977000D01*
X26423000Y-56977000D01*
X25073750Y-56977000D01*
X24915000Y-57135750D01*
X24735000Y-57135750D01*
X24735000Y-56654887D01*
X24470862Y-56017201D01*
X24327351Y-55873690D01*
X24915000Y-55873690D01*
X24915000Y-56564250D01*
X25073750Y-56723000D01*
X26423000Y-56723000D01*
X26423000Y-55523750D01*
X26677000Y-55523750D01*
X26677000Y-56723000D01*
X28026250Y-56723000D01*
X28185000Y-56564250D01*
X28185000Y-55873690D01*
X33815000Y-55873690D01*
X33815000Y-56564250D01*
X33973750Y-56723000D01*
X35323000Y-56723000D01*
X35323000Y-55523750D01*
X35577000Y-55523750D01*
X35577000Y-56723000D01*
X36926250Y-56723000D01*
X37085000Y-56564250D01*
X37085000Y-55873690D01*
X36988327Y-55640301D01*
X36809698Y-55461673D01*
X36576309Y-55365000D01*
X35735750Y-55365000D01*
X35577000Y-55523750D01*
X35323000Y-55523750D01*
X35164250Y-55365000D01*
X34323691Y-55365000D01*
X34090302Y-55461673D01*
X33911673Y-55640301D01*
X33815000Y-55873690D01*
X28185000Y-55873690D01*
X28088327Y-55640301D01*
X27909698Y-55461673D01*
X27676309Y-55365000D01*
X26835750Y-55365000D01*
X26677000Y-55523750D01*
X26423000Y-55523750D01*
X26264250Y-55365000D01*
X25423691Y-55365000D01*
X25190302Y-55461673D01*
X25011673Y-55640301D01*
X24915000Y-55873690D01*
X24327351Y-55873690D01*
X23982799Y-55529138D01*
X23345113Y-55265000D01*
X22654887Y-55265000D01*
X22017201Y-55529138D01*
X21529138Y-56017201D01*
X21265000Y-56654887D01*
X20710000Y-56654887D01*
X20710000Y-51685750D01*
X24915000Y-51685750D01*
X24915000Y-52376310D01*
X25011673Y-52609699D01*
X25190302Y-52788327D01*
X25423691Y-52885000D01*
X26264250Y-52885000D01*
X26423000Y-52726250D01*
X26423000Y-51527000D01*
X26677000Y-51527000D01*
X26677000Y-52726250D01*
X26835750Y-52885000D01*
X27676309Y-52885000D01*
X27909698Y-52788327D01*
X28088327Y-52609699D01*
X28185000Y-52376310D01*
X28185000Y-51685750D01*
X28026250Y-51527000D01*
X26677000Y-51527000D01*
X26423000Y-51527000D01*
X25073750Y-51527000D01*
X24915000Y-51685750D01*
X20710000Y-51685750D01*
X20710000Y-50423690D01*
X24915000Y-50423690D01*
X24915000Y-51114250D01*
X25073750Y-51273000D01*
X26423000Y-51273000D01*
X26423000Y-50073750D01*
X26677000Y-50073750D01*
X26677000Y-51273000D01*
X28026250Y-51273000D01*
X28185000Y-51114250D01*
X28185000Y-50423690D01*
X28088327Y-50190301D01*
X27909698Y-50011673D01*
X27676309Y-49915000D01*
X26835750Y-49915000D01*
X26677000Y-50073750D01*
X26423000Y-50073750D01*
X26264250Y-49915000D01*
X25423691Y-49915000D01*
X25190302Y-50011673D01*
X25011673Y-50190301D01*
X24915000Y-50423690D01*
X20710000Y-50423690D01*
X20710000Y-45285750D01*
X21765000Y-45285750D01*
X21765000Y-45826310D01*
X21861673Y-46059699D01*
X22040302Y-46238327D01*
X22273691Y-46335000D01*
X22689250Y-46335000D01*
X22848000Y-46176250D01*
X22848000Y-45127000D01*
X21923750Y-45127000D01*
X21765000Y-45285750D01*
X20710000Y-45285750D01*
X20710000Y-44173690D01*
X21765000Y-44173690D01*
X21765000Y-44714250D01*
X21923750Y-44873000D01*
X22848000Y-44873000D01*
X22848000Y-43823750D01*
X22689250Y-43665000D01*
X22273691Y-43665000D01*
X22040302Y-43761673D01*
X21861673Y-43940301D01*
X21765000Y-44173690D01*
X20710000Y-44173690D01*
X20710000Y-37783223D01*
X21553035Y-37783223D01*
X21580222Y-38353454D01*
X21746136Y-38754005D01*
X21992255Y-38828139D01*
X22820395Y-38000000D01*
X21992255Y-37171861D01*
X21746136Y-37245995D01*
X21553035Y-37783223D01*
X20710000Y-37783223D01*
X20710000Y-36992255D01*
X22171861Y-36992255D01*
X23000000Y-37820395D01*
X23014142Y-37806252D01*
X23193748Y-37985858D01*
X23179605Y-38000000D01*
X23193748Y-38014143D01*
X23014142Y-38193748D01*
X23000000Y-38179605D01*
X22171861Y-39007745D01*
X22245995Y-39253864D01*
X22783223Y-39446965D01*
X23353454Y-39419778D01*
X23743067Y-39258395D01*
X23952235Y-39398157D01*
X24190001Y-39445451D01*
X24190000Y-43832168D01*
X24065414Y-43915414D01*
X24064623Y-43916597D01*
X23909698Y-43761673D01*
X23676309Y-43665000D01*
X23260750Y-43665000D01*
X23102000Y-43823750D01*
X23102000Y-44873000D01*
X23122000Y-44873000D01*
X23122000Y-45127000D01*
X23102000Y-45127000D01*
X23102000Y-46176250D01*
X23260750Y-46335000D01*
X23676309Y-46335000D01*
X23909698Y-46238327D01*
X24064623Y-46083403D01*
X24065414Y-46084586D01*
X24356564Y-46279127D01*
X24699999Y-46347440D01*
X25191573Y-46347440D01*
X28565001Y-49720870D01*
X28565001Y-50032543D01*
X28551843Y-50052235D01*
X28502560Y-50300000D01*
X28502560Y-52300000D01*
X28551843Y-52547765D01*
X28692191Y-52757809D01*
X28852612Y-52865000D01*
X28574234Y-52865000D01*
X28157074Y-53037793D01*
X27837793Y-53357074D01*
X27665000Y-53774234D01*
X27665000Y-54225766D01*
X27837793Y-54642926D01*
X28157074Y-54962207D01*
X28574234Y-55135000D01*
X29025766Y-55135000D01*
X29442926Y-54962207D01*
X29762207Y-54642926D01*
X29935000Y-54225766D01*
X29935000Y-53774234D01*
X32065000Y-53774234D01*
X32065000Y-54225766D01*
X32237793Y-54642926D01*
X32557074Y-54962207D01*
X32974234Y-55135000D01*
X33425766Y-55135000D01*
X33842926Y-54962207D01*
X34162207Y-54642926D01*
X34335000Y-54225766D01*
X34335000Y-53774234D01*
X34162207Y-53357074D01*
X33842926Y-53037793D01*
X33425766Y-52865000D01*
X33145304Y-52865000D01*
X33209698Y-52838327D01*
X33388327Y-52659699D01*
X33485000Y-52426310D01*
X33485000Y-51685750D01*
X33815000Y-51685750D01*
X33815000Y-52376310D01*
X33911673Y-52609699D01*
X34090302Y-52788327D01*
X34323691Y-52885000D01*
X35164250Y-52885000D01*
X35323000Y-52726250D01*
X35323000Y-51527000D01*
X35577000Y-51527000D01*
X35577000Y-52726250D01*
X35735750Y-52885000D01*
X36576309Y-52885000D01*
X36809698Y-52788327D01*
X36988327Y-52609699D01*
X37085000Y-52376310D01*
X37085000Y-52285750D01*
X37765000Y-52285750D01*
X37765000Y-52826310D01*
X37861673Y-53059699D01*
X38040302Y-53238327D01*
X38273691Y-53335000D01*
X38689250Y-53335000D01*
X38848000Y-53176250D01*
X38848000Y-52127000D01*
X37923750Y-52127000D01*
X37765000Y-52285750D01*
X37085000Y-52285750D01*
X37085000Y-51685750D01*
X36926250Y-51527000D01*
X35577000Y-51527000D01*
X35323000Y-51527000D01*
X33973750Y-51527000D01*
X33815000Y-51685750D01*
X33485000Y-51685750D01*
X33485000Y-51585750D01*
X33326250Y-51427000D01*
X32725000Y-51427000D01*
X32725000Y-52776250D01*
X32860755Y-52912005D01*
X32557074Y-53037793D01*
X32237793Y-53357074D01*
X32065000Y-53774234D01*
X29935000Y-53774234D01*
X29762207Y-53357074D01*
X29442926Y-53037793D01*
X29224794Y-52947440D01*
X29650000Y-52947440D01*
X29800000Y-52917603D01*
X29950000Y-52947440D01*
X30450000Y-52947440D01*
X30600000Y-52917603D01*
X30750000Y-52947440D01*
X31250000Y-52947440D01*
X31400000Y-52917603D01*
X31550000Y-52947440D01*
X32050000Y-52947440D01*
X32187632Y-52920064D01*
X32223691Y-52935000D01*
X32316250Y-52935000D01*
X32464508Y-52786742D01*
X32507809Y-52757809D01*
X32648157Y-52547765D01*
X32697440Y-52300000D01*
X32697440Y-50300000D01*
X32648157Y-50052235D01*
X32507809Y-49842191D01*
X32480211Y-49823750D01*
X32725000Y-49823750D01*
X32725000Y-51173000D01*
X33326250Y-51173000D01*
X33485000Y-51014250D01*
X33485000Y-50423690D01*
X33815000Y-50423690D01*
X33815000Y-51114250D01*
X33973750Y-51273000D01*
X35323000Y-51273000D01*
X35323000Y-50073750D01*
X35577000Y-50073750D01*
X35577000Y-51273000D01*
X36926250Y-51273000D01*
X37025560Y-51173690D01*
X37765000Y-51173690D01*
X37765000Y-51714250D01*
X37923750Y-51873000D01*
X38848000Y-51873000D01*
X38848000Y-50823750D01*
X38689250Y-50665000D01*
X38273691Y-50665000D01*
X38040302Y-50761673D01*
X37861673Y-50940301D01*
X37765000Y-51173690D01*
X37025560Y-51173690D01*
X37085000Y-51114250D01*
X37085000Y-50423690D01*
X36988327Y-50190301D01*
X36809698Y-50011673D01*
X36576309Y-49915000D01*
X35735750Y-49915000D01*
X35577000Y-50073750D01*
X35323000Y-50073750D01*
X35164250Y-49915000D01*
X34323691Y-49915000D01*
X34090302Y-50011673D01*
X33911673Y-50190301D01*
X33815000Y-50423690D01*
X33485000Y-50423690D01*
X33485000Y-50173690D01*
X33388327Y-49940301D01*
X33209698Y-49761673D01*
X32976309Y-49665000D01*
X32883750Y-49665000D01*
X32725000Y-49823750D01*
X32480211Y-49823750D01*
X32464508Y-49813258D01*
X32316250Y-49665000D01*
X32223691Y-49665000D01*
X32187632Y-49679936D01*
X32050000Y-49652560D01*
X31550000Y-49652560D01*
X31400000Y-49682397D01*
X31250000Y-49652560D01*
X30750000Y-49652560D01*
X30600000Y-49682397D01*
X30450000Y-49652560D01*
X30235000Y-49652560D01*
X30235000Y-49457232D01*
X30251357Y-49374999D01*
X30235000Y-49292766D01*
X30235000Y-49292763D01*
X30233606Y-49285750D01*
X37765000Y-49285750D01*
X37765000Y-49826310D01*
X37861673Y-50059699D01*
X38040302Y-50238327D01*
X38273691Y-50335000D01*
X38689250Y-50335000D01*
X38848000Y-50176250D01*
X38848000Y-49127000D01*
X37923750Y-49127000D01*
X37765000Y-49285750D01*
X30233606Y-49285750D01*
X30186552Y-49049199D01*
X30054999Y-48852316D01*
X30048584Y-48842715D01*
X30048583Y-48842714D01*
X30002001Y-48772999D01*
X29932286Y-48726417D01*
X29379559Y-48173690D01*
X37765000Y-48173690D01*
X37765000Y-48714250D01*
X37923750Y-48873000D01*
X38848000Y-48873000D01*
X38848000Y-47823750D01*
X38689250Y-47665000D01*
X38273691Y-47665000D01*
X38040302Y-47761673D01*
X37861673Y-47940301D01*
X37765000Y-48173690D01*
X29379559Y-48173690D01*
X27203209Y-45997341D01*
X27294126Y-46035000D01*
X27705874Y-46035000D01*
X28086280Y-45877431D01*
X28128711Y-45835000D01*
X29442767Y-45835000D01*
X29525000Y-45851357D01*
X29607233Y-45835000D01*
X29607237Y-45835000D01*
X29850801Y-45786552D01*
X30127001Y-45602001D01*
X30173587Y-45532280D01*
X30858428Y-44847440D01*
X31350001Y-44847440D01*
X31693436Y-44779127D01*
X31984586Y-44584586D01*
X32017718Y-44535000D01*
X34377316Y-44535000D01*
X34440460Y-44522440D01*
X34800000Y-44522440D01*
X35047765Y-44473157D01*
X35257809Y-44332809D01*
X35398157Y-44122765D01*
X35447440Y-43875000D01*
X35447440Y-43625000D01*
X35426783Y-43521148D01*
X35435000Y-43501310D01*
X35435000Y-43485000D01*
X35993044Y-43485000D01*
X35865000Y-43794126D01*
X35865000Y-43995554D01*
X35781465Y-44079089D01*
X35720095Y-44120095D01*
X35557646Y-44363218D01*
X35515000Y-44577613D01*
X35515000Y-44577616D01*
X35500602Y-44650000D01*
X35515000Y-44722385D01*
X35515000Y-45011773D01*
X35477560Y-45200000D01*
X35477560Y-46200000D01*
X35526843Y-46447765D01*
X35667191Y-46657809D01*
X35877235Y-46798157D01*
X36125000Y-46847440D01*
X36375000Y-46847440D01*
X36500000Y-46822576D01*
X36625000Y-46847440D01*
X36875000Y-46847440D01*
X37000000Y-46822576D01*
X37125000Y-46847440D01*
X37375000Y-46847440D01*
X37500000Y-46822576D01*
X37625000Y-46847440D01*
X37875000Y-46847440D01*
X38000000Y-46822576D01*
X38125000Y-46847440D01*
X38375000Y-46847440D01*
X38500000Y-46822576D01*
X38625000Y-46847440D01*
X38875000Y-46847440D01*
X39000000Y-46822576D01*
X39125000Y-46847440D01*
X39375000Y-46847440D01*
X39500000Y-46822576D01*
X39625000Y-46847440D01*
X39875000Y-46847440D01*
X40000000Y-46822576D01*
X40125000Y-46847440D01*
X40375000Y-46847440D01*
X40500000Y-46822576D01*
X40615086Y-46845468D01*
X40556465Y-46904089D01*
X40495095Y-46945095D01*
X40332646Y-47188218D01*
X40290000Y-47402613D01*
X40290000Y-47402616D01*
X40275602Y-47475000D01*
X40290000Y-47547385D01*
X40290000Y-47765350D01*
X40065414Y-47915414D01*
X40064623Y-47916597D01*
X39909698Y-47761673D01*
X39676309Y-47665000D01*
X39260750Y-47665000D01*
X39102000Y-47823750D01*
X39102000Y-48873000D01*
X39122000Y-48873000D01*
X39122000Y-49127000D01*
X39102000Y-49127000D01*
X39102000Y-50176250D01*
X39260750Y-50335000D01*
X39676309Y-50335000D01*
X39909698Y-50238327D01*
X40064623Y-50083403D01*
X40065414Y-50084586D01*
X40356564Y-50279127D01*
X40699999Y-50347440D01*
X41350001Y-50347440D01*
X41465000Y-50324565D01*
X41465000Y-50379132D01*
X41191572Y-50652560D01*
X40699999Y-50652560D01*
X40356564Y-50720873D01*
X40065414Y-50915414D01*
X40064623Y-50916597D01*
X39909698Y-50761673D01*
X39676309Y-50665000D01*
X39260750Y-50665000D01*
X39102000Y-50823750D01*
X39102000Y-51873000D01*
X39122000Y-51873000D01*
X39122000Y-52127000D01*
X39102000Y-52127000D01*
X39102000Y-53176250D01*
X39260750Y-53335000D01*
X39676309Y-53335000D01*
X39909698Y-53238327D01*
X40064623Y-53083403D01*
X40065414Y-53084586D01*
X40190000Y-53167832D01*
X40190001Y-54502560D01*
X39150000Y-54502560D01*
X38902235Y-54551843D01*
X38692191Y-54692191D01*
X38551843Y-54902235D01*
X38502560Y-55150000D01*
X38502560Y-56850000D01*
X38551843Y-57097765D01*
X38692191Y-57307809D01*
X38902235Y-57448157D01*
X39150000Y-57497440D01*
X40850000Y-57497440D01*
X41097765Y-57448157D01*
X41307809Y-57307809D01*
X41448157Y-57097765D01*
X41457184Y-57052381D01*
X41469375Y-57070625D01*
X41960582Y-57398839D01*
X42393744Y-57485000D01*
X42686256Y-57485000D01*
X43119418Y-57398839D01*
X43610625Y-57070625D01*
X43823843Y-56751522D01*
X43884817Y-56881358D01*
X44313076Y-57271645D01*
X44723110Y-57441476D01*
X44953000Y-57320155D01*
X44953000Y-56127000D01*
X44933000Y-56127000D01*
X44933000Y-55873000D01*
X44953000Y-55873000D01*
X44953000Y-54679845D01*
X44723110Y-54558524D01*
X44313076Y-54728355D01*
X43884817Y-55118642D01*
X43823843Y-55248478D01*
X43610625Y-54929375D01*
X43119418Y-54601161D01*
X42686256Y-54515000D01*
X42393744Y-54515000D01*
X41960582Y-54601161D01*
X41860000Y-54668368D01*
X41860000Y-53167832D01*
X41984586Y-53084586D01*
X42179127Y-52793436D01*
X42247440Y-52450001D01*
X42247440Y-51958427D01*
X42512499Y-51693368D01*
X42551416Y-51732285D01*
X42597999Y-51802001D01*
X42667714Y-51848583D01*
X42667715Y-51848584D01*
X42846009Y-51967716D01*
X42874199Y-51986552D01*
X43117763Y-52035000D01*
X43117766Y-52035000D01*
X43199999Y-52051357D01*
X43282232Y-52035000D01*
X44872333Y-52035000D01*
X44765000Y-52294126D01*
X44765000Y-52705874D01*
X44922569Y-53086280D01*
X45213720Y-53377431D01*
X45594126Y-53535000D01*
X46005874Y-53535000D01*
X46386280Y-53377431D01*
X46528711Y-53235000D01*
X47809249Y-53235000D01*
X47820873Y-53293436D01*
X48015414Y-53584586D01*
X48306564Y-53779127D01*
X48649999Y-53847440D01*
X49282993Y-53847440D01*
X49425001Y-53989448D01*
X49425001Y-54705117D01*
X49089375Y-54929375D01*
X48890000Y-55227761D01*
X48690625Y-54929375D01*
X48199418Y-54601161D01*
X47766256Y-54515000D01*
X47473744Y-54515000D01*
X47040582Y-54601161D01*
X46549375Y-54929375D01*
X46336157Y-55248478D01*
X46275183Y-55118642D01*
X45846924Y-54728355D01*
X45436890Y-54558524D01*
X45207000Y-54679845D01*
X45207000Y-55873000D01*
X45227000Y-55873000D01*
X45227000Y-56127000D01*
X45207000Y-56127000D01*
X45207000Y-57320155D01*
X45436890Y-57441476D01*
X45846924Y-57271645D01*
X46275183Y-56881358D01*
X46336157Y-56751522D01*
X46549375Y-57070625D01*
X47040582Y-57398839D01*
X47473744Y-57485000D01*
X47766256Y-57485000D01*
X48199418Y-57398839D01*
X48690625Y-57070625D01*
X48890000Y-56772239D01*
X49089375Y-57070625D01*
X49580582Y-57398839D01*
X50013744Y-57485000D01*
X50306256Y-57485000D01*
X50739418Y-57398839D01*
X51230625Y-57070625D01*
X51430000Y-56772239D01*
X51629375Y-57070625D01*
X52120582Y-57398839D01*
X52553744Y-57485000D01*
X52846256Y-57485000D01*
X53279418Y-57398839D01*
X53770625Y-57070625D01*
X54048412Y-56654887D01*
X55265000Y-56654887D01*
X55265000Y-57345113D01*
X55529138Y-57982799D01*
X56017201Y-58470862D01*
X56654887Y-58735000D01*
X57345113Y-58735000D01*
X57982799Y-58470862D01*
X58470862Y-57982799D01*
X58735000Y-57345113D01*
X58735000Y-56654887D01*
X58470862Y-56017201D01*
X57982799Y-55529138D01*
X57345113Y-55265000D01*
X56654887Y-55265000D01*
X56017201Y-55529138D01*
X55529138Y-56017201D01*
X55265000Y-56654887D01*
X54048412Y-56654887D01*
X54098839Y-56579418D01*
X54214092Y-56000000D01*
X54098839Y-55420582D01*
X53770625Y-54929375D01*
X53279418Y-54601161D01*
X52846256Y-54515000D01*
X52553744Y-54515000D01*
X52120582Y-54601161D01*
X51629375Y-54929375D01*
X51430000Y-55227761D01*
X51230625Y-54929375D01*
X50895000Y-54705118D01*
X50895000Y-53847440D01*
X51350001Y-53847440D01*
X51693436Y-53779127D01*
X51984586Y-53584586D01*
X52179127Y-53293436D01*
X52247440Y-52950001D01*
X52247440Y-52049999D01*
X52179127Y-51706564D01*
X51984586Y-51415414D01*
X51693436Y-51220873D01*
X51350001Y-51152560D01*
X50858427Y-51152560D01*
X50373587Y-50667720D01*
X50327001Y-50597999D01*
X50050801Y-50413448D01*
X49807237Y-50365000D01*
X49807233Y-50365000D01*
X49725000Y-50348643D01*
X49642767Y-50365000D01*
X43790867Y-50365000D01*
X43808427Y-50347440D01*
X44300001Y-50347440D01*
X44643436Y-50279127D01*
X44934586Y-50084586D01*
X44935377Y-50083403D01*
X45090302Y-50238327D01*
X45323691Y-50335000D01*
X45739250Y-50335000D01*
X45898000Y-50176250D01*
X45898000Y-49127000D01*
X46152000Y-49127000D01*
X46152000Y-50176250D01*
X46310750Y-50335000D01*
X46726309Y-50335000D01*
X46959698Y-50238327D01*
X47138327Y-50059699D01*
X47235000Y-49826310D01*
X47235000Y-49285750D01*
X47076250Y-49127000D01*
X46152000Y-49127000D01*
X45898000Y-49127000D01*
X45878000Y-49127000D01*
X45878000Y-48873000D01*
X45898000Y-48873000D01*
X45898000Y-47823750D01*
X46152000Y-47823750D01*
X46152000Y-48873000D01*
X47076250Y-48873000D01*
X47235000Y-48714250D01*
X47235000Y-48173690D01*
X47138327Y-47940301D01*
X46959698Y-47761673D01*
X46726309Y-47665000D01*
X46310750Y-47665000D01*
X46152000Y-47823750D01*
X45898000Y-47823750D01*
X45739250Y-47665000D01*
X45323691Y-47665000D01*
X45090302Y-47761673D01*
X44935377Y-47916597D01*
X44934586Y-47915414D01*
X44643436Y-47720873D01*
X44535000Y-47699304D01*
X44535000Y-45310750D01*
X49665000Y-45310750D01*
X49665000Y-45726309D01*
X49761673Y-45959698D01*
X49940301Y-46138327D01*
X50173690Y-46235000D01*
X50714250Y-46235000D01*
X50873000Y-46076250D01*
X50873000Y-45152000D01*
X51127000Y-45152000D01*
X51127000Y-46076250D01*
X51285750Y-46235000D01*
X51826310Y-46235000D01*
X52059699Y-46138327D01*
X52238327Y-45959698D01*
X52335000Y-45726309D01*
X52335000Y-45310750D01*
X52176250Y-45152000D01*
X51127000Y-45152000D01*
X50873000Y-45152000D01*
X49823750Y-45152000D01*
X49665000Y-45310750D01*
X44535000Y-45310750D01*
X44535000Y-45270155D01*
X45185336Y-44619820D01*
X45265953Y-44565953D01*
X45286635Y-44535000D01*
X45777316Y-44535000D01*
X45840460Y-44522440D01*
X46200000Y-44522440D01*
X46447765Y-44473157D01*
X46657809Y-44332809D01*
X46798157Y-44122765D01*
X46847440Y-43875000D01*
X46847440Y-43625000D01*
X46822576Y-43500000D01*
X46847440Y-43375000D01*
X46847440Y-43125000D01*
X46822576Y-43000000D01*
X46847440Y-42875000D01*
X46847440Y-42625000D01*
X46822576Y-42500000D01*
X46830533Y-42460000D01*
X49690353Y-42460000D01*
X49652560Y-42649999D01*
X49652560Y-43300001D01*
X49720873Y-43643436D01*
X49915414Y-43934586D01*
X49916597Y-43935377D01*
X49761673Y-44090302D01*
X49665000Y-44323691D01*
X49665000Y-44739250D01*
X49823750Y-44898000D01*
X50873000Y-44898000D01*
X50873000Y-44878000D01*
X51127000Y-44878000D01*
X51127000Y-44898000D01*
X52176250Y-44898000D01*
X52335000Y-44739250D01*
X52335000Y-44323691D01*
X52238327Y-44090302D01*
X52083403Y-43935377D01*
X52084586Y-43934586D01*
X52234650Y-43710000D01*
X53170554Y-43710000D01*
X53352560Y-43892006D01*
X53352560Y-51375000D01*
X53401843Y-51622765D01*
X53542191Y-51832809D01*
X53752235Y-51973157D01*
X54000000Y-52022440D01*
X56000000Y-52022440D01*
X56247765Y-51973157D01*
X56457809Y-51832809D01*
X56598157Y-51622765D01*
X56647440Y-51375000D01*
X56647440Y-43500000D01*
X56598157Y-43252235D01*
X56457809Y-43042191D01*
X56247765Y-42901843D01*
X56000000Y-42852560D01*
X54392006Y-42852560D01*
X54045911Y-42506465D01*
X54004905Y-42445095D01*
X53761783Y-42282646D01*
X53547388Y-42240000D01*
X53547384Y-42240000D01*
X53475000Y-42225602D01*
X53402616Y-42240000D01*
X52234650Y-42240000D01*
X52084586Y-42015414D01*
X51793436Y-41820873D01*
X51450001Y-41752560D01*
X51351824Y-41752560D01*
X51229905Y-41570095D01*
X51168535Y-41529089D01*
X51139446Y-41500000D01*
X51168535Y-41470911D01*
X51229905Y-41429905D01*
X51351824Y-41247440D01*
X51450001Y-41247440D01*
X51793436Y-41179127D01*
X52084586Y-40984586D01*
X52234650Y-40760000D01*
X53402616Y-40760000D01*
X53475000Y-40774398D01*
X53547384Y-40760000D01*
X53547388Y-40760000D01*
X53761783Y-40717354D01*
X54004905Y-40554905D01*
X54045911Y-40493535D01*
X54392006Y-40147440D01*
X56000000Y-40147440D01*
X56247765Y-40098157D01*
X56457809Y-39957809D01*
X56598157Y-39747765D01*
X56647440Y-39500000D01*
X56647440Y-31625000D01*
X56598157Y-31377235D01*
X56457809Y-31167191D01*
X56247765Y-31026843D01*
X56000000Y-30977560D01*
X54000000Y-30977560D01*
X53752235Y-31026843D01*
X53542191Y-31167191D01*
X53401843Y-31377235D01*
X53352560Y-31625000D01*
X53352560Y-39107994D01*
X53170554Y-39290000D01*
X52234650Y-39290000D01*
X52084586Y-39065414D01*
X52083403Y-39064623D01*
X52238327Y-38909698D01*
X52335000Y-38676309D01*
X52335000Y-38260750D01*
X52176250Y-38102000D01*
X51127000Y-38102000D01*
X51127000Y-38122000D01*
X50873000Y-38122000D01*
X50873000Y-38102000D01*
X49823750Y-38102000D01*
X49665000Y-38260750D01*
X49665000Y-38676309D01*
X49761673Y-38909698D01*
X49916597Y-39064623D01*
X49915414Y-39065414D01*
X49720873Y-39356564D01*
X49652560Y-39699999D01*
X49652560Y-40350001D01*
X49690353Y-40540000D01*
X46830533Y-40540000D01*
X46822576Y-40500000D01*
X46847440Y-40375000D01*
X46847440Y-40125000D01*
X46822576Y-40000000D01*
X46847440Y-39875000D01*
X46847440Y-39625000D01*
X46822576Y-39500000D01*
X46847440Y-39375000D01*
X46847440Y-39125000D01*
X46822576Y-39000000D01*
X46847440Y-38875000D01*
X46847440Y-38625000D01*
X46829538Y-38535000D01*
X48172688Y-38535000D01*
X48250000Y-38550378D01*
X48327312Y-38535000D01*
X48327316Y-38535000D01*
X48556292Y-38489454D01*
X48815953Y-38315953D01*
X48859749Y-38250408D01*
X49500412Y-37609746D01*
X49565953Y-37565953D01*
X49609746Y-37500412D01*
X49609749Y-37500409D01*
X49665000Y-37417720D01*
X49665000Y-37689250D01*
X49823750Y-37848000D01*
X50873000Y-37848000D01*
X50873000Y-36923750D01*
X51127000Y-36923750D01*
X51127000Y-37848000D01*
X52176250Y-37848000D01*
X52335000Y-37689250D01*
X52335000Y-37273691D01*
X52238327Y-37040302D01*
X52059699Y-36861673D01*
X51826310Y-36765000D01*
X51285750Y-36765000D01*
X51127000Y-36923750D01*
X50873000Y-36923750D01*
X50714250Y-36765000D01*
X50173690Y-36765000D01*
X49940301Y-36861673D01*
X49799982Y-37001993D01*
X49800378Y-37000001D01*
X49798838Y-36992255D01*
X49760000Y-36797005D01*
X49760000Y-36201241D01*
X49934586Y-36084586D01*
X49935377Y-36083403D01*
X50090302Y-36238327D01*
X50323691Y-36335000D01*
X50739250Y-36335000D01*
X50898000Y-36176250D01*
X50898000Y-35127000D01*
X51152000Y-35127000D01*
X51152000Y-36176250D01*
X51310750Y-36335000D01*
X51726309Y-36335000D01*
X51959698Y-36238327D01*
X52138327Y-36059699D01*
X52235000Y-35826310D01*
X52235000Y-35285750D01*
X52076250Y-35127000D01*
X51152000Y-35127000D01*
X50898000Y-35127000D01*
X50878000Y-35127000D01*
X50878000Y-34873000D01*
X50898000Y-34873000D01*
X50898000Y-33823750D01*
X51152000Y-33823750D01*
X51152000Y-34873000D01*
X52076250Y-34873000D01*
X52235000Y-34714250D01*
X52235000Y-34173690D01*
X52138327Y-33940301D01*
X51959698Y-33761673D01*
X51726309Y-33665000D01*
X51310750Y-33665000D01*
X51152000Y-33823750D01*
X50898000Y-33823750D01*
X50739250Y-33665000D01*
X50323691Y-33665000D01*
X50090302Y-33761673D01*
X49935377Y-33916597D01*
X49934586Y-33915414D01*
X49810000Y-33832168D01*
X49810000Y-33167832D01*
X49934586Y-33084586D01*
X49935377Y-33083403D01*
X50090302Y-33238327D01*
X50323691Y-33335000D01*
X50739250Y-33335000D01*
X50898000Y-33176250D01*
X50898000Y-32127000D01*
X51152000Y-32127000D01*
X51152000Y-33176250D01*
X51310750Y-33335000D01*
X51726309Y-33335000D01*
X51959698Y-33238327D01*
X52138327Y-33059699D01*
X52235000Y-32826310D01*
X52235000Y-32285750D01*
X52076250Y-32127000D01*
X51152000Y-32127000D01*
X50898000Y-32127000D01*
X50878000Y-32127000D01*
X50878000Y-31873000D01*
X50898000Y-31873000D01*
X50898000Y-30823750D01*
X51152000Y-30823750D01*
X51152000Y-31873000D01*
X52076250Y-31873000D01*
X52235000Y-31714250D01*
X52235000Y-31173690D01*
X52138327Y-30940301D01*
X51959698Y-30761673D01*
X51726309Y-30665000D01*
X51310750Y-30665000D01*
X51152000Y-30823750D01*
X50898000Y-30823750D01*
X50739250Y-30665000D01*
X50323691Y-30665000D01*
X50090302Y-30761673D01*
X49935377Y-30916597D01*
X49934586Y-30915414D01*
X49835000Y-30848872D01*
X49835000Y-28628711D01*
X49877431Y-28586280D01*
X50035000Y-28205874D01*
X50035000Y-27794126D01*
X49877431Y-27413720D01*
X49586280Y-27122569D01*
X49205874Y-26965000D01*
X48794126Y-26965000D01*
X48413720Y-27122569D01*
X48122569Y-27413720D01*
X47965000Y-27794126D01*
X47965000Y-28205874D01*
X48122569Y-28586280D01*
X48165000Y-28628711D01*
X48165001Y-30815463D01*
X48015414Y-30915414D01*
X47820873Y-31206564D01*
X47752560Y-31549999D01*
X47752560Y-32450001D01*
X47820873Y-32793436D01*
X48015414Y-33084586D01*
X48140000Y-33167832D01*
X48140001Y-33832168D01*
X48015414Y-33915414D01*
X47820873Y-34206564D01*
X47752560Y-34549999D01*
X47752560Y-35450001D01*
X47820873Y-35793436D01*
X48015414Y-36084586D01*
X48190001Y-36201242D01*
X48190001Y-36699842D01*
X47924843Y-36965000D01*
X46829538Y-36965000D01*
X46847440Y-36875000D01*
X46847440Y-36625000D01*
X46822576Y-36500000D01*
X46847440Y-36375000D01*
X46847440Y-36125000D01*
X46798157Y-35877235D01*
X46657809Y-35667191D01*
X46447765Y-35526843D01*
X46200000Y-35477560D01*
X45200000Y-35477560D01*
X44952235Y-35526843D01*
X44742191Y-35667191D01*
X44601843Y-35877235D01*
X44552560Y-36125000D01*
X44552560Y-36375000D01*
X44577424Y-36500000D01*
X44552560Y-36625000D01*
X44552560Y-36875000D01*
X44577424Y-36999999D01*
X44552560Y-37125000D01*
X44552560Y-37375000D01*
X44577424Y-37500000D01*
X44552560Y-37625000D01*
X44552560Y-37875000D01*
X44573217Y-37978852D01*
X44565000Y-37998690D01*
X44565000Y-38028750D01*
X44587647Y-38051397D01*
X44601843Y-38122765D01*
X44686859Y-38250000D01*
X44601843Y-38377235D01*
X44587647Y-38448603D01*
X44565000Y-38471250D01*
X44565000Y-38501310D01*
X44573217Y-38521148D01*
X44552560Y-38625000D01*
X44552560Y-38875000D01*
X44577424Y-39000000D01*
X44552560Y-39125000D01*
X44552560Y-39375000D01*
X44577424Y-39500000D01*
X44552560Y-39625000D01*
X44552560Y-39875000D01*
X44577424Y-40000000D01*
X44552560Y-40125000D01*
X44552560Y-40164994D01*
X44470095Y-40220095D01*
X44429090Y-40281463D01*
X43931464Y-40779090D01*
X43870094Y-40820096D01*
X43707645Y-41063219D01*
X43664999Y-41277614D01*
X43664999Y-41277617D01*
X43650601Y-41350001D01*
X43664999Y-41422385D01*
X43664999Y-41471288D01*
X43522568Y-41613719D01*
X43364999Y-41994125D01*
X43364999Y-42405873D01*
X43522568Y-42786279D01*
X43813719Y-43077430D01*
X44194125Y-43234999D01*
X44350002Y-43234999D01*
X44340251Y-43249592D01*
X44209666Y-43380177D01*
X44194589Y-43390251D01*
X44194587Y-43390253D01*
X44129045Y-43434047D01*
X44085251Y-43499589D01*
X43249590Y-44335251D01*
X43184048Y-44379045D01*
X43140254Y-44444587D01*
X43140251Y-44444590D01*
X43047360Y-44583610D01*
X43028750Y-44565000D01*
X42998690Y-44565000D01*
X42978852Y-44573217D01*
X42875000Y-44552560D01*
X42625000Y-44552560D01*
X42500000Y-44577424D01*
X42375000Y-44552560D01*
X42125000Y-44552560D01*
X42000000Y-44577424D01*
X41875000Y-44552560D01*
X41625000Y-44552560D01*
X41500000Y-44577424D01*
X41375000Y-44552560D01*
X41125000Y-44552560D01*
X41000000Y-44577424D01*
X40875000Y-44552560D01*
X40625000Y-44552560D01*
X40500000Y-44577424D01*
X40375000Y-44552560D01*
X40125000Y-44552560D01*
X40000000Y-44577424D01*
X39985000Y-44574440D01*
X39985000Y-44422388D01*
X39999399Y-44350000D01*
X39965875Y-44181463D01*
X39942354Y-44063217D01*
X39935000Y-44052211D01*
X39935000Y-43794126D01*
X39777431Y-43413720D01*
X39486280Y-43122569D01*
X39105874Y-42965000D01*
X38694126Y-42965000D01*
X38518890Y-43037585D01*
X38429905Y-42904410D01*
X38368537Y-42863405D01*
X37786596Y-42281465D01*
X37745590Y-42220095D01*
X37502468Y-42057646D01*
X37288073Y-42015000D01*
X37288069Y-42015000D01*
X37215685Y-42000602D01*
X37143301Y-42015000D01*
X35425560Y-42015000D01*
X35422576Y-42000000D01*
X35447440Y-41875000D01*
X35447440Y-41625000D01*
X35422576Y-41500000D01*
X35447440Y-41375000D01*
X35447440Y-41125000D01*
X35422576Y-41000000D01*
X35447440Y-40875000D01*
X35447440Y-40625000D01*
X35422576Y-40500000D01*
X35447440Y-40375000D01*
X35447440Y-40125000D01*
X35422576Y-40000000D01*
X35447440Y-39875000D01*
X35447440Y-39625000D01*
X35422576Y-39500000D01*
X35447440Y-39375000D01*
X35447440Y-39125000D01*
X35422576Y-39000000D01*
X35447440Y-38875000D01*
X35447440Y-38625000D01*
X35422576Y-38500000D01*
X35447440Y-38375000D01*
X35447440Y-38125000D01*
X35422576Y-38000000D01*
X35447440Y-37875000D01*
X35447440Y-37625000D01*
X35422576Y-37500000D01*
X35447440Y-37375000D01*
X35447440Y-37125000D01*
X35422576Y-36999999D01*
X35447440Y-36875000D01*
X35447440Y-36625000D01*
X35422576Y-36500000D01*
X35447440Y-36375000D01*
X35447440Y-36125000D01*
X35398157Y-35877235D01*
X35257809Y-35667191D01*
X35047765Y-35526843D01*
X34800000Y-35477560D01*
X33800000Y-35477560D01*
X33552235Y-35526843D01*
X33342191Y-35667191D01*
X33201843Y-35877235D01*
X33152560Y-36125000D01*
X33152560Y-36375000D01*
X33177424Y-36500000D01*
X33152560Y-36625000D01*
X33152560Y-36875000D01*
X33177424Y-36999999D01*
X33152560Y-37125000D01*
X33152560Y-37375000D01*
X33177424Y-37500000D01*
X33152560Y-37625000D01*
X33152560Y-37875000D01*
X33177424Y-38000000D01*
X33152560Y-38125000D01*
X33152560Y-38375000D01*
X33177424Y-38500000D01*
X33152560Y-38625000D01*
X33152560Y-38875000D01*
X33177424Y-39000000D01*
X33152560Y-39125000D01*
X33152560Y-39375000D01*
X33177424Y-39500000D01*
X33152560Y-39625000D01*
X33152560Y-39875000D01*
X33177424Y-40000000D01*
X33152560Y-40125000D01*
X33152560Y-40375000D01*
X33177424Y-40500000D01*
X33152560Y-40625000D01*
X33152560Y-40875000D01*
X33177424Y-41000000D01*
X33152560Y-41125000D01*
X33152560Y-41375000D01*
X33177424Y-41500000D01*
X33152560Y-41625000D01*
X33152560Y-41875000D01*
X33177424Y-42000000D01*
X33152560Y-42125000D01*
X33152560Y-42375000D01*
X33177424Y-42500000D01*
X33152560Y-42625000D01*
X33152560Y-42875000D01*
X33170462Y-42965000D01*
X32230533Y-42965000D01*
X32179127Y-42706564D01*
X31984586Y-42415414D01*
X31693436Y-42220873D01*
X31350001Y-42152560D01*
X30699999Y-42152560D01*
X30356564Y-42220873D01*
X30065414Y-42415414D01*
X30064623Y-42416597D01*
X29909698Y-42261673D01*
X29676309Y-42165000D01*
X29260750Y-42165000D01*
X29102000Y-42323750D01*
X29102000Y-43373000D01*
X29122000Y-43373000D01*
X29122000Y-43627000D01*
X29102000Y-43627000D01*
X29102000Y-43647000D01*
X28848000Y-43647000D01*
X28848000Y-43627000D01*
X27923750Y-43627000D01*
X27765000Y-43785750D01*
X27765000Y-43989491D01*
X27705874Y-43965000D01*
X27294126Y-43965000D01*
X26913720Y-44122569D01*
X26622569Y-44413720D01*
X26465000Y-44794126D01*
X26465000Y-45205874D01*
X26502659Y-45296792D01*
X26247440Y-45041573D01*
X26247440Y-44549999D01*
X26179127Y-44206564D01*
X25984586Y-43915414D01*
X25860000Y-43832168D01*
X25860000Y-42673690D01*
X27765000Y-42673690D01*
X27765000Y-43214250D01*
X27923750Y-43373000D01*
X28848000Y-43373000D01*
X28848000Y-42323750D01*
X28689250Y-42165000D01*
X28273691Y-42165000D01*
X28040302Y-42261673D01*
X27861673Y-42440301D01*
X27765000Y-42673690D01*
X25860000Y-42673690D01*
X25860000Y-39435505D01*
X26047765Y-39398157D01*
X26257809Y-39257809D01*
X26398157Y-39047765D01*
X26447440Y-38800000D01*
X26447440Y-38310750D01*
X27665000Y-38310750D01*
X27665000Y-38726309D01*
X27761673Y-38959698D01*
X27940301Y-39138327D01*
X28173690Y-39235000D01*
X28714250Y-39235000D01*
X28873000Y-39076250D01*
X28873000Y-38152000D01*
X29127000Y-38152000D01*
X29127000Y-39076250D01*
X29285750Y-39235000D01*
X29826310Y-39235000D01*
X30059699Y-39138327D01*
X30238327Y-38959698D01*
X30335000Y-38726309D01*
X30335000Y-38310750D01*
X30176250Y-38152000D01*
X29127000Y-38152000D01*
X28873000Y-38152000D01*
X27823750Y-38152000D01*
X27665000Y-38310750D01*
X26447440Y-38310750D01*
X26447440Y-37200000D01*
X26398157Y-36952235D01*
X26257809Y-36742191D01*
X26047765Y-36601843D01*
X25835000Y-36559522D01*
X25835000Y-31945867D01*
X26465000Y-31315867D01*
X26465000Y-31705874D01*
X26622569Y-32086280D01*
X26913720Y-32377431D01*
X27294126Y-32535000D01*
X27502560Y-32535000D01*
X27502560Y-33050000D01*
X27551843Y-33297765D01*
X27692191Y-33507809D01*
X27902235Y-33648157D01*
X28150000Y-33697440D01*
X28415000Y-33697440D01*
X28415001Y-34779413D01*
X28206564Y-34820873D01*
X27915414Y-35015414D01*
X27720873Y-35306564D01*
X27652560Y-35649999D01*
X27652560Y-36300001D01*
X27720873Y-36643436D01*
X27915414Y-36934586D01*
X27916597Y-36935377D01*
X27761673Y-37090302D01*
X27665000Y-37323691D01*
X27665000Y-37739250D01*
X27823750Y-37898000D01*
X28873000Y-37898000D01*
X28873000Y-37878000D01*
X29127000Y-37878000D01*
X29127000Y-37898000D01*
X30176250Y-37898000D01*
X30335000Y-37739250D01*
X30335000Y-37323691D01*
X30238327Y-37090302D01*
X30083403Y-36935377D01*
X30084586Y-36934586D01*
X30279127Y-36643436D01*
X30347440Y-36300001D01*
X30347440Y-35649999D01*
X30279127Y-35306564D01*
X30084586Y-35015414D01*
X29885000Y-34882054D01*
X29885000Y-33697440D01*
X30150000Y-33697440D01*
X30397765Y-33648157D01*
X30607809Y-33507809D01*
X30748157Y-33297765D01*
X30797440Y-33050000D01*
X30797440Y-31942006D01*
X31453696Y-31285750D01*
X31765000Y-31285750D01*
X31765000Y-31826310D01*
X31861673Y-32059699D01*
X32040302Y-32238327D01*
X32273691Y-32335000D01*
X32689250Y-32335000D01*
X32848000Y-32176250D01*
X32848000Y-31127000D01*
X31923750Y-31127000D01*
X31765000Y-31285750D01*
X31453696Y-31285750D01*
X31895098Y-30844348D01*
X31923750Y-30873000D01*
X32848000Y-30873000D01*
X32848000Y-30853000D01*
X33102000Y-30853000D01*
X33102000Y-30873000D01*
X33122000Y-30873000D01*
X33122000Y-31127000D01*
X33102000Y-31127000D01*
X33102000Y-32176250D01*
X33260750Y-32335000D01*
X33676309Y-32335000D01*
X33909698Y-32238327D01*
X34064623Y-32083403D01*
X34065414Y-32084586D01*
X34356564Y-32279127D01*
X34699999Y-32347440D01*
X35262283Y-32347440D01*
X35465001Y-32550158D01*
X35465000Y-34377315D01*
X35477560Y-34440459D01*
X35477560Y-34800000D01*
X35526843Y-35047765D01*
X35667191Y-35257809D01*
X35877235Y-35398157D01*
X36125000Y-35447440D01*
X36375000Y-35447440D01*
X36478852Y-35426783D01*
X36498690Y-35435000D01*
X36528750Y-35435000D01*
X36551397Y-35412353D01*
X36622765Y-35398157D01*
X36750000Y-35313141D01*
X36877235Y-35398157D01*
X36948603Y-35412353D01*
X36971250Y-35435000D01*
X37001310Y-35435000D01*
X37021148Y-35426783D01*
X37125000Y-35447440D01*
X37375000Y-35447440D01*
X37500000Y-35422576D01*
X37625000Y-35447440D01*
X37875000Y-35447440D01*
X38000000Y-35422576D01*
X38125000Y-35447440D01*
X38375000Y-35447440D01*
X38500000Y-35422576D01*
X38625000Y-35447440D01*
X38875000Y-35447440D01*
X39000000Y-35422576D01*
X39125000Y-35447440D01*
X39375000Y-35447440D01*
X39500000Y-35422576D01*
X39625000Y-35447440D01*
X39875000Y-35447440D01*
X40000000Y-35422576D01*
X40125000Y-35447440D01*
X40375000Y-35447440D01*
X40500000Y-35422576D01*
X40625000Y-35447440D01*
X40875000Y-35447440D01*
X41000000Y-35422576D01*
X41125000Y-35447440D01*
X41375000Y-35447440D01*
X41500000Y-35422576D01*
X41625000Y-35447440D01*
X41875000Y-35447440D01*
X42000000Y-35422576D01*
X42125000Y-35447440D01*
X42375000Y-35447440D01*
X42500000Y-35422576D01*
X42625000Y-35447440D01*
X42875000Y-35447440D01*
X42978852Y-35426783D01*
X42998690Y-35435000D01*
X43028750Y-35435000D01*
X43051397Y-35412353D01*
X43122765Y-35398157D01*
X43250000Y-35313141D01*
X43377235Y-35398157D01*
X43448603Y-35412353D01*
X43471250Y-35435000D01*
X43501310Y-35435000D01*
X43521148Y-35426783D01*
X43625000Y-35447440D01*
X43875000Y-35447440D01*
X44122765Y-35398157D01*
X44332809Y-35257809D01*
X44473157Y-35047765D01*
X44522440Y-34800000D01*
X44522440Y-33800000D01*
X44473157Y-33552235D01*
X44332809Y-33342191D01*
X44122765Y-33201843D01*
X43875000Y-33152560D01*
X43625000Y-33152560D01*
X43535000Y-33170462D01*
X43535000Y-31852310D01*
X43550378Y-31774999D01*
X43535000Y-31697688D01*
X43535000Y-31697684D01*
X43489454Y-31468708D01*
X43394377Y-31326416D01*
X43359749Y-31274591D01*
X43359747Y-31274589D01*
X43347440Y-31256170D01*
X43347440Y-31236628D01*
X44652560Y-31236628D01*
X44652560Y-31350001D01*
X44720873Y-31693436D01*
X44915414Y-31984586D01*
X45206564Y-32179127D01*
X45549999Y-32247440D01*
X46450001Y-32247440D01*
X46793436Y-32179127D01*
X47084586Y-31984586D01*
X47279127Y-31693436D01*
X47347440Y-31350001D01*
X47347440Y-30699999D01*
X47279127Y-30356564D01*
X47084586Y-30065414D01*
X47083403Y-30064623D01*
X47238327Y-29909698D01*
X47335000Y-29676309D01*
X47335000Y-29260750D01*
X47176250Y-29102000D01*
X46127000Y-29102000D01*
X46127000Y-29122000D01*
X45873000Y-29122000D01*
X45873000Y-29102000D01*
X44823750Y-29102000D01*
X44665000Y-29260750D01*
X44665000Y-29566628D01*
X43335000Y-29566628D01*
X43335000Y-29260750D01*
X43176250Y-29102000D01*
X42127000Y-29102000D01*
X42127000Y-29122000D01*
X41873000Y-29122000D01*
X41873000Y-29102000D01*
X41853000Y-29102000D01*
X41853000Y-28848000D01*
X41873000Y-28848000D01*
X41873000Y-27923750D01*
X42127000Y-27923750D01*
X42127000Y-28848000D01*
X43176250Y-28848000D01*
X43335000Y-28689250D01*
X43335000Y-28273691D01*
X43238327Y-28040302D01*
X43059699Y-27861673D01*
X42826310Y-27765000D01*
X42285750Y-27765000D01*
X42127000Y-27923750D01*
X41873000Y-27923750D01*
X41714250Y-27765000D01*
X41510509Y-27765000D01*
X41535000Y-27705874D01*
X41535000Y-27294126D01*
X41377431Y-26913720D01*
X41335000Y-26871289D01*
X41335000Y-26557232D01*
X41351357Y-26474999D01*
X41335000Y-26392766D01*
X41335000Y-26392763D01*
X41286552Y-26149199D01*
X41247440Y-26090664D01*
X41247440Y-25549999D01*
X41179127Y-25206564D01*
X40984586Y-24915414D01*
X40860000Y-24832168D01*
X40860000Y-24167832D01*
X40984586Y-24084586D01*
X41179127Y-23793436D01*
X41247440Y-23450001D01*
X41247440Y-23200000D01*
X42552560Y-23200000D01*
X42552560Y-24800000D01*
X42601843Y-25047765D01*
X42742191Y-25257809D01*
X42952235Y-25398157D01*
X43165000Y-25440478D01*
X43165000Y-25917767D01*
X43148643Y-26000000D01*
X43165000Y-26082233D01*
X43165000Y-26082236D01*
X43213448Y-26325800D01*
X43397999Y-26602001D01*
X43467720Y-26648587D01*
X43665001Y-26845868D01*
X43665001Y-26871288D01*
X43622569Y-26913720D01*
X43465000Y-27294126D01*
X43465000Y-27705874D01*
X43622569Y-28086280D01*
X43913720Y-28377431D01*
X44294126Y-28535000D01*
X44665000Y-28535000D01*
X44665000Y-28689250D01*
X44823750Y-28848000D01*
X45873000Y-28848000D01*
X45873000Y-27923750D01*
X46127000Y-27923750D01*
X46127000Y-28848000D01*
X47176250Y-28848000D01*
X47335000Y-28689250D01*
X47335000Y-28273691D01*
X47238327Y-28040302D01*
X47059699Y-27861673D01*
X46826310Y-27765000D01*
X46285750Y-27765000D01*
X46127000Y-27923750D01*
X45873000Y-27923750D01*
X45714250Y-27765000D01*
X45510509Y-27765000D01*
X45535000Y-27705874D01*
X45535000Y-27294126D01*
X45377431Y-26913720D01*
X45335000Y-26871289D01*
X45335000Y-26582237D01*
X45351358Y-26500000D01*
X45286552Y-26174199D01*
X45102001Y-25897999D01*
X45032280Y-25851413D01*
X44835000Y-25654133D01*
X44835000Y-25440478D01*
X45047765Y-25398157D01*
X45257516Y-25258005D01*
X45783223Y-25446965D01*
X46353454Y-25419778D01*
X46754005Y-25253864D01*
X46828139Y-25007745D01*
X46000000Y-24179605D01*
X45985858Y-24193748D01*
X45806253Y-24014143D01*
X45820395Y-24000000D01*
X46179605Y-24000000D01*
X47007745Y-24828139D01*
X47253864Y-24754005D01*
X47446965Y-24216777D01*
X47419778Y-23646546D01*
X47253864Y-23245995D01*
X47007745Y-23171861D01*
X46179605Y-24000000D01*
X45820395Y-24000000D01*
X45806253Y-23985858D01*
X45985858Y-23806252D01*
X46000000Y-23820395D01*
X46828139Y-22992255D01*
X46754005Y-22746136D01*
X46500141Y-22654887D01*
X55265000Y-22654887D01*
X55265000Y-23345113D01*
X55529138Y-23982799D01*
X56017201Y-24470862D01*
X56654887Y-24735000D01*
X57345113Y-24735000D01*
X57982799Y-24470862D01*
X58470862Y-23982799D01*
X58735000Y-23345113D01*
X58735000Y-22654887D01*
X58470862Y-22017201D01*
X57982799Y-21529138D01*
X57345113Y-21265000D01*
X56654887Y-21265000D01*
X56017201Y-21529138D01*
X55529138Y-22017201D01*
X55265000Y-22654887D01*
X46500141Y-22654887D01*
X46216777Y-22553035D01*
X45646546Y-22580222D01*
X45256933Y-22741605D01*
X45047765Y-22601843D01*
X44800000Y-22552560D01*
X43200000Y-22552560D01*
X42952235Y-22601843D01*
X42742191Y-22742191D01*
X42601843Y-22952235D01*
X42552560Y-23200000D01*
X41247440Y-23200000D01*
X41247440Y-22549999D01*
X41179127Y-22206564D01*
X40984586Y-21915414D01*
X40693436Y-21720873D01*
X40350001Y-21652560D01*
X39699999Y-21652560D01*
X39356564Y-21720873D01*
X39065414Y-21915414D01*
X39064623Y-21916597D01*
X38909698Y-21761673D01*
X38676309Y-21665000D01*
X38260750Y-21665000D01*
X38102000Y-21823750D01*
X38102000Y-22873000D01*
X38122000Y-22873000D01*
X38122000Y-23127000D01*
X38102000Y-23127000D01*
X38102000Y-24176250D01*
X38260750Y-24335000D01*
X38676309Y-24335000D01*
X38909698Y-24238327D01*
X39064623Y-24083403D01*
X39065414Y-24084586D01*
X39190001Y-24167832D01*
X39190000Y-24832168D01*
X39065414Y-24915414D01*
X39000000Y-25013313D01*
X38934586Y-24915414D01*
X38643436Y-24720873D01*
X38300001Y-24652560D01*
X37649999Y-24652560D01*
X37306564Y-24720873D01*
X37015414Y-24915414D01*
X36820873Y-25206564D01*
X36809249Y-25265000D01*
X36190751Y-25265000D01*
X36179127Y-25206564D01*
X35984586Y-24915414D01*
X35693436Y-24720873D01*
X35359915Y-24654532D01*
X35493537Y-24520910D01*
X35554905Y-24479905D01*
X35688390Y-24280131D01*
X35693436Y-24279127D01*
X35984586Y-24084586D01*
X36179127Y-23793436D01*
X36247440Y-23450001D01*
X36247440Y-23285750D01*
X36765000Y-23285750D01*
X36765000Y-23826310D01*
X36861673Y-24059699D01*
X37040302Y-24238327D01*
X37273691Y-24335000D01*
X37689250Y-24335000D01*
X37848000Y-24176250D01*
X37848000Y-23127000D01*
X36923750Y-23127000D01*
X36765000Y-23285750D01*
X36247440Y-23285750D01*
X36247440Y-22549999D01*
X36179127Y-22206564D01*
X36157162Y-22173690D01*
X36765000Y-22173690D01*
X36765000Y-22714250D01*
X36923750Y-22873000D01*
X37848000Y-22873000D01*
X37848000Y-21823750D01*
X37689250Y-21665000D01*
X37273691Y-21665000D01*
X37040302Y-21761673D01*
X36861673Y-21940301D01*
X36765000Y-22173690D01*
X36157162Y-22173690D01*
X35984586Y-21915414D01*
X35693436Y-21720873D01*
X35350001Y-21652560D01*
X34699999Y-21652560D01*
X34356564Y-21720873D01*
X34065414Y-21915414D01*
X34064623Y-21916597D01*
X33909698Y-21761673D01*
X33676309Y-21665000D01*
X33260750Y-21665000D01*
X33102000Y-21823750D01*
X33102000Y-22873000D01*
X33122000Y-22873000D01*
X33122000Y-23127000D01*
X33102000Y-23127000D01*
X33102000Y-23147000D01*
X32848000Y-23147000D01*
X32848000Y-23127000D01*
X31923750Y-23127000D01*
X31765000Y-23285750D01*
X31765000Y-23826310D01*
X31861673Y-24059699D01*
X32040302Y-24238327D01*
X32273691Y-24335000D01*
X32525554Y-24335000D01*
X32506465Y-24354089D01*
X32445095Y-24395095D01*
X32282646Y-24638218D01*
X32260018Y-24751974D01*
X32015414Y-24915414D01*
X31820873Y-25206564D01*
X31752560Y-25549999D01*
X31752560Y-26450001D01*
X31755543Y-26465000D01*
X31694126Y-26465000D01*
X31313720Y-26622569D01*
X31022569Y-26913720D01*
X30865000Y-27294126D01*
X30865000Y-27354132D01*
X30797440Y-27421692D01*
X30797440Y-26950000D01*
X30748157Y-26702235D01*
X30607809Y-26492191D01*
X30397765Y-26351843D01*
X30150000Y-26302560D01*
X29985000Y-26302560D01*
X29985000Y-25083966D01*
X30179127Y-24793436D01*
X30247440Y-24450001D01*
X30247440Y-23549999D01*
X30179127Y-23206564D01*
X29984586Y-22915414D01*
X29693436Y-22720873D01*
X29350001Y-22652560D01*
X28699999Y-22652560D01*
X28356564Y-22720873D01*
X28065414Y-22915414D01*
X28064623Y-22916597D01*
X27909698Y-22761673D01*
X27676309Y-22665000D01*
X27260750Y-22665000D01*
X27102000Y-22823750D01*
X27102000Y-23873000D01*
X27122000Y-23873000D01*
X27122000Y-24127000D01*
X27102000Y-24127000D01*
X27102000Y-25176250D01*
X27260750Y-25335000D01*
X27676309Y-25335000D01*
X27909698Y-25238327D01*
X28064623Y-25083403D01*
X28065414Y-25084586D01*
X28315001Y-25251355D01*
X28315000Y-26302560D01*
X28150000Y-26302560D01*
X27902235Y-26351843D01*
X27692191Y-26492191D01*
X27551843Y-26702235D01*
X27502560Y-26950000D01*
X27502560Y-27916572D01*
X24485000Y-30934133D01*
X24485000Y-30285750D01*
X24326250Y-30127000D01*
X22977000Y-30127000D01*
X22977000Y-32376250D01*
X23135750Y-32535000D01*
X23976309Y-32535000D01*
X24165001Y-32456841D01*
X24165000Y-36559522D01*
X23952235Y-36601843D01*
X23742484Y-36741995D01*
X23216777Y-36553035D01*
X22646546Y-36580222D01*
X22245995Y-36746136D01*
X22171861Y-36992255D01*
X20710000Y-36992255D01*
X20710000Y-30285750D01*
X21215000Y-30285750D01*
X21215000Y-32026310D01*
X21311673Y-32259699D01*
X21490302Y-32438327D01*
X21723691Y-32535000D01*
X22564250Y-32535000D01*
X22723000Y-32376250D01*
X22723000Y-30127000D01*
X21373750Y-30127000D01*
X21215000Y-30285750D01*
X20710000Y-30285750D01*
X20710000Y-27973690D01*
X21215000Y-27973690D01*
X21215000Y-29714250D01*
X21373750Y-29873000D01*
X22723000Y-29873000D01*
X22723000Y-27623750D01*
X22977000Y-27623750D01*
X22977000Y-29873000D01*
X24326250Y-29873000D01*
X24485000Y-29714250D01*
X24485000Y-27973690D01*
X24388327Y-27740301D01*
X24209698Y-27561673D01*
X23976309Y-27465000D01*
X23135750Y-27465000D01*
X22977000Y-27623750D01*
X22723000Y-27623750D01*
X22564250Y-27465000D01*
X21723691Y-27465000D01*
X21490302Y-27561673D01*
X21311673Y-27740301D01*
X21215000Y-27973690D01*
X20710000Y-27973690D01*
X20710000Y-22654887D01*
X21265000Y-22654887D01*
X21265000Y-23345113D01*
X21529138Y-23982799D01*
X22017201Y-24470862D01*
X22654887Y-24735000D01*
X23345113Y-24735000D01*
X23982799Y-24470862D01*
X24167911Y-24285750D01*
X25765000Y-24285750D01*
X25765000Y-24826310D01*
X25861673Y-25059699D01*
X26040302Y-25238327D01*
X26273691Y-25335000D01*
X26689250Y-25335000D01*
X26848000Y-25176250D01*
X26848000Y-24127000D01*
X25923750Y-24127000D01*
X25765000Y-24285750D01*
X24167911Y-24285750D01*
X24470862Y-23982799D01*
X24735000Y-23345113D01*
X24735000Y-23173690D01*
X25765000Y-23173690D01*
X25765000Y-23714250D01*
X25923750Y-23873000D01*
X26848000Y-23873000D01*
X26848000Y-22823750D01*
X26689250Y-22665000D01*
X26273691Y-22665000D01*
X26040302Y-22761673D01*
X25861673Y-22940301D01*
X25765000Y-23173690D01*
X24735000Y-23173690D01*
X24735000Y-22654887D01*
X24535682Y-22173690D01*
X31765000Y-22173690D01*
X31765000Y-22714250D01*
X31923750Y-22873000D01*
X32848000Y-22873000D01*
X32848000Y-21823750D01*
X32689250Y-21665000D01*
X32273691Y-21665000D01*
X32040302Y-21761673D01*
X31861673Y-21940301D01*
X31765000Y-22173690D01*
X24535682Y-22173690D01*
X24470862Y-22017201D01*
X23982799Y-21529138D01*
X23345113Y-21265000D01*
X22654887Y-21265000D01*
X22017201Y-21529138D01*
X21529138Y-22017201D01*
X21265000Y-22654887D01*
X20710000Y-22654887D01*
X20710000Y-20710000D01*
X59290000Y-20710000D01*
X59290001Y-59290000D01*
X59290001Y-59290000D01*
G37*
X59290001Y-59290000D02*
X20710000Y-59290000D01*
X20710000Y-56654887D01*
X21265000Y-56654887D01*
X21265000Y-57345113D01*
X21529138Y-57982799D01*
X22017201Y-58470862D01*
X22654887Y-58735000D01*
X23345113Y-58735000D01*
X23982799Y-58470862D01*
X24470862Y-57982799D01*
X24735000Y-57345113D01*
X24735000Y-57135750D01*
X24915000Y-57135750D01*
X24915000Y-57826310D01*
X25011673Y-58059699D01*
X25190302Y-58238327D01*
X25423691Y-58335000D01*
X26264250Y-58335000D01*
X26423000Y-58176250D01*
X26423000Y-56977000D01*
X26677000Y-56977000D01*
X26677000Y-58176250D01*
X26835750Y-58335000D01*
X27676309Y-58335000D01*
X27909698Y-58238327D01*
X28088327Y-58059699D01*
X28185000Y-57826310D01*
X28185000Y-57135750D01*
X33815000Y-57135750D01*
X33815000Y-57826310D01*
X33911673Y-58059699D01*
X34090302Y-58238327D01*
X34323691Y-58335000D01*
X35164250Y-58335000D01*
X35323000Y-58176250D01*
X35323000Y-56977000D01*
X35577000Y-56977000D01*
X35577000Y-58176250D01*
X35735750Y-58335000D01*
X36576309Y-58335000D01*
X36809698Y-58238327D01*
X36988327Y-58059699D01*
X37085000Y-57826310D01*
X37085000Y-57135750D01*
X36926250Y-56977000D01*
X35577000Y-56977000D01*
X35323000Y-56977000D01*
X33973750Y-56977000D01*
X33815000Y-57135750D01*
X28185000Y-57135750D01*
X28026250Y-56977000D01*
X26677000Y-56977000D01*
X26423000Y-56977000D01*
X25073750Y-56977000D01*
X24915000Y-57135750D01*
X24735000Y-57135750D01*
X24735000Y-56654887D01*
X24470862Y-56017201D01*
X24327351Y-55873690D01*
X24915000Y-55873690D01*
X24915000Y-56564250D01*
X25073750Y-56723000D01*
X26423000Y-56723000D01*
X26423000Y-55523750D01*
X26677000Y-55523750D01*
X26677000Y-56723000D01*
X28026250Y-56723000D01*
X28185000Y-56564250D01*
X28185000Y-55873690D01*
X33815000Y-55873690D01*
X33815000Y-56564250D01*
X33973750Y-56723000D01*
X35323000Y-56723000D01*
X35323000Y-55523750D01*
X35577000Y-55523750D01*
X35577000Y-56723000D01*
X36926250Y-56723000D01*
X37085000Y-56564250D01*
X37085000Y-55873690D01*
X36988327Y-55640301D01*
X36809698Y-55461673D01*
X36576309Y-55365000D01*
X35735750Y-55365000D01*
X35577000Y-55523750D01*
X35323000Y-55523750D01*
X35164250Y-55365000D01*
X34323691Y-55365000D01*
X34090302Y-55461673D01*
X33911673Y-55640301D01*
X33815000Y-55873690D01*
X28185000Y-55873690D01*
X28088327Y-55640301D01*
X27909698Y-55461673D01*
X27676309Y-55365000D01*
X26835750Y-55365000D01*
X26677000Y-55523750D01*
X26423000Y-55523750D01*
X26264250Y-55365000D01*
X25423691Y-55365000D01*
X25190302Y-55461673D01*
X25011673Y-55640301D01*
X24915000Y-55873690D01*
X24327351Y-55873690D01*
X23982799Y-55529138D01*
X23345113Y-55265000D01*
X22654887Y-55265000D01*
X22017201Y-55529138D01*
X21529138Y-56017201D01*
X21265000Y-56654887D01*
X20710000Y-56654887D01*
X20710000Y-51685750D01*
X24915000Y-51685750D01*
X24915000Y-52376310D01*
X25011673Y-52609699D01*
X25190302Y-52788327D01*
X25423691Y-52885000D01*
X26264250Y-52885000D01*
X26423000Y-52726250D01*
X26423000Y-51527000D01*
X26677000Y-51527000D01*
X26677000Y-52726250D01*
X26835750Y-52885000D01*
X27676309Y-52885000D01*
X27909698Y-52788327D01*
X28088327Y-52609699D01*
X28185000Y-52376310D01*
X28185000Y-51685750D01*
X28026250Y-51527000D01*
X26677000Y-51527000D01*
X26423000Y-51527000D01*
X25073750Y-51527000D01*
X24915000Y-51685750D01*
X20710000Y-51685750D01*
X20710000Y-50423690D01*
X24915000Y-50423690D01*
X24915000Y-51114250D01*
X25073750Y-51273000D01*
X26423000Y-51273000D01*
X26423000Y-50073750D01*
X26677000Y-50073750D01*
X26677000Y-51273000D01*
X28026250Y-51273000D01*
X28185000Y-51114250D01*
X28185000Y-50423690D01*
X28088327Y-50190301D01*
X27909698Y-50011673D01*
X27676309Y-49915000D01*
X26835750Y-49915000D01*
X26677000Y-50073750D01*
X26423000Y-50073750D01*
X26264250Y-49915000D01*
X25423691Y-49915000D01*
X25190302Y-50011673D01*
X25011673Y-50190301D01*
X24915000Y-50423690D01*
X20710000Y-50423690D01*
X20710000Y-45285750D01*
X21765000Y-45285750D01*
X21765000Y-45826310D01*
X21861673Y-46059699D01*
X22040302Y-46238327D01*
X22273691Y-46335000D01*
X22689250Y-46335000D01*
X22848000Y-46176250D01*
X22848000Y-45127000D01*
X21923750Y-45127000D01*
X21765000Y-45285750D01*
X20710000Y-45285750D01*
X20710000Y-44173690D01*
X21765000Y-44173690D01*
X21765000Y-44714250D01*
X21923750Y-44873000D01*
X22848000Y-44873000D01*
X22848000Y-43823750D01*
X22689250Y-43665000D01*
X22273691Y-43665000D01*
X22040302Y-43761673D01*
X21861673Y-43940301D01*
X21765000Y-44173690D01*
X20710000Y-44173690D01*
X20710000Y-37783223D01*
X21553035Y-37783223D01*
X21580222Y-38353454D01*
X21746136Y-38754005D01*
X21992255Y-38828139D01*
X22820395Y-38000000D01*
X21992255Y-37171861D01*
X21746136Y-37245995D01*
X21553035Y-37783223D01*
X20710000Y-37783223D01*
X20710000Y-36992255D01*
X22171861Y-36992255D01*
X23000000Y-37820395D01*
X23014142Y-37806252D01*
X23193748Y-37985858D01*
X23179605Y-38000000D01*
X23193748Y-38014143D01*
X23014142Y-38193748D01*
X23000000Y-38179605D01*
X22171861Y-39007745D01*
X22245995Y-39253864D01*
X22783223Y-39446965D01*
X23353454Y-39419778D01*
X23743067Y-39258395D01*
X23952235Y-39398157D01*
X24190001Y-39445451D01*
X24190000Y-43832168D01*
X24065414Y-43915414D01*
X24064623Y-43916597D01*
X23909698Y-43761673D01*
X23676309Y-43665000D01*
X23260750Y-43665000D01*
X23102000Y-43823750D01*
X23102000Y-44873000D01*
X23122000Y-44873000D01*
X23122000Y-45127000D01*
X23102000Y-45127000D01*
X23102000Y-46176250D01*
X23260750Y-46335000D01*
X23676309Y-46335000D01*
X23909698Y-46238327D01*
X24064623Y-46083403D01*
X24065414Y-46084586D01*
X24356564Y-46279127D01*
X24699999Y-46347440D01*
X25191573Y-46347440D01*
X28565001Y-49720870D01*
X28565001Y-50032543D01*
X28551843Y-50052235D01*
X28502560Y-50300000D01*
X28502560Y-52300000D01*
X28551843Y-52547765D01*
X28692191Y-52757809D01*
X28852612Y-52865000D01*
X28574234Y-52865000D01*
X28157074Y-53037793D01*
X27837793Y-53357074D01*
X27665000Y-53774234D01*
X27665000Y-54225766D01*
X27837793Y-54642926D01*
X28157074Y-54962207D01*
X28574234Y-55135000D01*
X29025766Y-55135000D01*
X29442926Y-54962207D01*
X29762207Y-54642926D01*
X29935000Y-54225766D01*
X29935000Y-53774234D01*
X32065000Y-53774234D01*
X32065000Y-54225766D01*
X32237793Y-54642926D01*
X32557074Y-54962207D01*
X32974234Y-55135000D01*
X33425766Y-55135000D01*
X33842926Y-54962207D01*
X34162207Y-54642926D01*
X34335000Y-54225766D01*
X34335000Y-53774234D01*
X34162207Y-53357074D01*
X33842926Y-53037793D01*
X33425766Y-52865000D01*
X33145304Y-52865000D01*
X33209698Y-52838327D01*
X33388327Y-52659699D01*
X33485000Y-52426310D01*
X33485000Y-51685750D01*
X33815000Y-51685750D01*
X33815000Y-52376310D01*
X33911673Y-52609699D01*
X34090302Y-52788327D01*
X34323691Y-52885000D01*
X35164250Y-52885000D01*
X35323000Y-52726250D01*
X35323000Y-51527000D01*
X35577000Y-51527000D01*
X35577000Y-52726250D01*
X35735750Y-52885000D01*
X36576309Y-52885000D01*
X36809698Y-52788327D01*
X36988327Y-52609699D01*
X37085000Y-52376310D01*
X37085000Y-52285750D01*
X37765000Y-52285750D01*
X37765000Y-52826310D01*
X37861673Y-53059699D01*
X38040302Y-53238327D01*
X38273691Y-53335000D01*
X38689250Y-53335000D01*
X38848000Y-53176250D01*
X38848000Y-52127000D01*
X37923750Y-52127000D01*
X37765000Y-52285750D01*
X37085000Y-52285750D01*
X37085000Y-51685750D01*
X36926250Y-51527000D01*
X35577000Y-51527000D01*
X35323000Y-51527000D01*
X33973750Y-51527000D01*
X33815000Y-51685750D01*
X33485000Y-51685750D01*
X33485000Y-51585750D01*
X33326250Y-51427000D01*
X32725000Y-51427000D01*
X32725000Y-52776250D01*
X32860755Y-52912005D01*
X32557074Y-53037793D01*
X32237793Y-53357074D01*
X32065000Y-53774234D01*
X29935000Y-53774234D01*
X29762207Y-53357074D01*
X29442926Y-53037793D01*
X29224794Y-52947440D01*
X29650000Y-52947440D01*
X29800000Y-52917603D01*
X29950000Y-52947440D01*
X30450000Y-52947440D01*
X30600000Y-52917603D01*
X30750000Y-52947440D01*
X31250000Y-52947440D01*
X31400000Y-52917603D01*
X31550000Y-52947440D01*
X32050000Y-52947440D01*
X32187632Y-52920064D01*
X32223691Y-52935000D01*
X32316250Y-52935000D01*
X32464508Y-52786742D01*
X32507809Y-52757809D01*
X32648157Y-52547765D01*
X32697440Y-52300000D01*
X32697440Y-50300000D01*
X32648157Y-50052235D01*
X32507809Y-49842191D01*
X32480211Y-49823750D01*
X32725000Y-49823750D01*
X32725000Y-51173000D01*
X33326250Y-51173000D01*
X33485000Y-51014250D01*
X33485000Y-50423690D01*
X33815000Y-50423690D01*
X33815000Y-51114250D01*
X33973750Y-51273000D01*
X35323000Y-51273000D01*
X35323000Y-50073750D01*
X35577000Y-50073750D01*
X35577000Y-51273000D01*
X36926250Y-51273000D01*
X37025560Y-51173690D01*
X37765000Y-51173690D01*
X37765000Y-51714250D01*
X37923750Y-51873000D01*
X38848000Y-51873000D01*
X38848000Y-50823750D01*
X38689250Y-50665000D01*
X38273691Y-50665000D01*
X38040302Y-50761673D01*
X37861673Y-50940301D01*
X37765000Y-51173690D01*
X37025560Y-51173690D01*
X37085000Y-51114250D01*
X37085000Y-50423690D01*
X36988327Y-50190301D01*
X36809698Y-50011673D01*
X36576309Y-49915000D01*
X35735750Y-49915000D01*
X35577000Y-50073750D01*
X35323000Y-50073750D01*
X35164250Y-49915000D01*
X34323691Y-49915000D01*
X34090302Y-50011673D01*
X33911673Y-50190301D01*
X33815000Y-50423690D01*
X33485000Y-50423690D01*
X33485000Y-50173690D01*
X33388327Y-49940301D01*
X33209698Y-49761673D01*
X32976309Y-49665000D01*
X32883750Y-49665000D01*
X32725000Y-49823750D01*
X32480211Y-49823750D01*
X32464508Y-49813258D01*
X32316250Y-49665000D01*
X32223691Y-49665000D01*
X32187632Y-49679936D01*
X32050000Y-49652560D01*
X31550000Y-49652560D01*
X31400000Y-49682397D01*
X31250000Y-49652560D01*
X30750000Y-49652560D01*
X30600000Y-49682397D01*
X30450000Y-49652560D01*
X30235000Y-49652560D01*
X30235000Y-49457232D01*
X30251357Y-49374999D01*
X30235000Y-49292766D01*
X30235000Y-49292763D01*
X30233606Y-49285750D01*
X37765000Y-49285750D01*
X37765000Y-49826310D01*
X37861673Y-50059699D01*
X38040302Y-50238327D01*
X38273691Y-50335000D01*
X38689250Y-50335000D01*
X38848000Y-50176250D01*
X38848000Y-49127000D01*
X37923750Y-49127000D01*
X37765000Y-49285750D01*
X30233606Y-49285750D01*
X30186552Y-49049199D01*
X30054999Y-48852316D01*
X30048584Y-48842715D01*
X30048583Y-48842714D01*
X30002001Y-48772999D01*
X29932286Y-48726417D01*
X29379559Y-48173690D01*
X37765000Y-48173690D01*
X37765000Y-48714250D01*
X37923750Y-48873000D01*
X38848000Y-48873000D01*
X38848000Y-47823750D01*
X38689250Y-47665000D01*
X38273691Y-47665000D01*
X38040302Y-47761673D01*
X37861673Y-47940301D01*
X37765000Y-48173690D01*
X29379559Y-48173690D01*
X27203209Y-45997341D01*
X27294126Y-46035000D01*
X27705874Y-46035000D01*
X28086280Y-45877431D01*
X28128711Y-45835000D01*
X29442767Y-45835000D01*
X29525000Y-45851357D01*
X29607233Y-45835000D01*
X29607237Y-45835000D01*
X29850801Y-45786552D01*
X30127001Y-45602001D01*
X30173587Y-45532280D01*
X30858428Y-44847440D01*
X31350001Y-44847440D01*
X31693436Y-44779127D01*
X31984586Y-44584586D01*
X32017718Y-44535000D01*
X34377316Y-44535000D01*
X34440460Y-44522440D01*
X34800000Y-44522440D01*
X35047765Y-44473157D01*
X35257809Y-44332809D01*
X35398157Y-44122765D01*
X35447440Y-43875000D01*
X35447440Y-43625000D01*
X35426783Y-43521148D01*
X35435000Y-43501310D01*
X35435000Y-43485000D01*
X35993044Y-43485000D01*
X35865000Y-43794126D01*
X35865000Y-43995554D01*
X35781465Y-44079089D01*
X35720095Y-44120095D01*
X35557646Y-44363218D01*
X35515000Y-44577613D01*
X35515000Y-44577616D01*
X35500602Y-44650000D01*
X35515000Y-44722385D01*
X35515000Y-45011773D01*
X35477560Y-45200000D01*
X35477560Y-46200000D01*
X35526843Y-46447765D01*
X35667191Y-46657809D01*
X35877235Y-46798157D01*
X36125000Y-46847440D01*
X36375000Y-46847440D01*
X36500000Y-46822576D01*
X36625000Y-46847440D01*
X36875000Y-46847440D01*
X37000000Y-46822576D01*
X37125000Y-46847440D01*
X37375000Y-46847440D01*
X37500000Y-46822576D01*
X37625000Y-46847440D01*
X37875000Y-46847440D01*
X38000000Y-46822576D01*
X38125000Y-46847440D01*
X38375000Y-46847440D01*
X38500000Y-46822576D01*
X38625000Y-46847440D01*
X38875000Y-46847440D01*
X39000000Y-46822576D01*
X39125000Y-46847440D01*
X39375000Y-46847440D01*
X39500000Y-46822576D01*
X39625000Y-46847440D01*
X39875000Y-46847440D01*
X40000000Y-46822576D01*
X40125000Y-46847440D01*
X40375000Y-46847440D01*
X40500000Y-46822576D01*
X40615086Y-46845468D01*
X40556465Y-46904089D01*
X40495095Y-46945095D01*
X40332646Y-47188218D01*
X40290000Y-47402613D01*
X40290000Y-47402616D01*
X40275602Y-47475000D01*
X40290000Y-47547385D01*
X40290000Y-47765350D01*
X40065414Y-47915414D01*
X40064623Y-47916597D01*
X39909698Y-47761673D01*
X39676309Y-47665000D01*
X39260750Y-47665000D01*
X39102000Y-47823750D01*
X39102000Y-48873000D01*
X39122000Y-48873000D01*
X39122000Y-49127000D01*
X39102000Y-49127000D01*
X39102000Y-50176250D01*
X39260750Y-50335000D01*
X39676309Y-50335000D01*
X39909698Y-50238327D01*
X40064623Y-50083403D01*
X40065414Y-50084586D01*
X40356564Y-50279127D01*
X40699999Y-50347440D01*
X41350001Y-50347440D01*
X41465000Y-50324565D01*
X41465000Y-50379132D01*
X41191572Y-50652560D01*
X40699999Y-50652560D01*
X40356564Y-50720873D01*
X40065414Y-50915414D01*
X40064623Y-50916597D01*
X39909698Y-50761673D01*
X39676309Y-50665000D01*
X39260750Y-50665000D01*
X39102000Y-50823750D01*
X39102000Y-51873000D01*
X39122000Y-51873000D01*
X39122000Y-52127000D01*
X39102000Y-52127000D01*
X39102000Y-53176250D01*
X39260750Y-53335000D01*
X39676309Y-53335000D01*
X39909698Y-53238327D01*
X40064623Y-53083403D01*
X40065414Y-53084586D01*
X40190000Y-53167832D01*
X40190001Y-54502560D01*
X39150000Y-54502560D01*
X38902235Y-54551843D01*
X38692191Y-54692191D01*
X38551843Y-54902235D01*
X38502560Y-55150000D01*
X38502560Y-56850000D01*
X38551843Y-57097765D01*
X38692191Y-57307809D01*
X38902235Y-57448157D01*
X39150000Y-57497440D01*
X40850000Y-57497440D01*
X41097765Y-57448157D01*
X41307809Y-57307809D01*
X41448157Y-57097765D01*
X41457184Y-57052381D01*
X41469375Y-57070625D01*
X41960582Y-57398839D01*
X42393744Y-57485000D01*
X42686256Y-57485000D01*
X43119418Y-57398839D01*
X43610625Y-57070625D01*
X43823843Y-56751522D01*
X43884817Y-56881358D01*
X44313076Y-57271645D01*
X44723110Y-57441476D01*
X44953000Y-57320155D01*
X44953000Y-56127000D01*
X44933000Y-56127000D01*
X44933000Y-55873000D01*
X44953000Y-55873000D01*
X44953000Y-54679845D01*
X44723110Y-54558524D01*
X44313076Y-54728355D01*
X43884817Y-55118642D01*
X43823843Y-55248478D01*
X43610625Y-54929375D01*
X43119418Y-54601161D01*
X42686256Y-54515000D01*
X42393744Y-54515000D01*
X41960582Y-54601161D01*
X41860000Y-54668368D01*
X41860000Y-53167832D01*
X41984586Y-53084586D01*
X42179127Y-52793436D01*
X42247440Y-52450001D01*
X42247440Y-51958427D01*
X42512499Y-51693368D01*
X42551416Y-51732285D01*
X42597999Y-51802001D01*
X42667714Y-51848583D01*
X42667715Y-51848584D01*
X42846009Y-51967716D01*
X42874199Y-51986552D01*
X43117763Y-52035000D01*
X43117766Y-52035000D01*
X43199999Y-52051357D01*
X43282232Y-52035000D01*
X44872333Y-52035000D01*
X44765000Y-52294126D01*
X44765000Y-52705874D01*
X44922569Y-53086280D01*
X45213720Y-53377431D01*
X45594126Y-53535000D01*
X46005874Y-53535000D01*
X46386280Y-53377431D01*
X46528711Y-53235000D01*
X47809249Y-53235000D01*
X47820873Y-53293436D01*
X48015414Y-53584586D01*
X48306564Y-53779127D01*
X48649999Y-53847440D01*
X49282993Y-53847440D01*
X49425001Y-53989448D01*
X49425001Y-54705117D01*
X49089375Y-54929375D01*
X48890000Y-55227761D01*
X48690625Y-54929375D01*
X48199418Y-54601161D01*
X47766256Y-54515000D01*
X47473744Y-54515000D01*
X47040582Y-54601161D01*
X46549375Y-54929375D01*
X46336157Y-55248478D01*
X46275183Y-55118642D01*
X45846924Y-54728355D01*
X45436890Y-54558524D01*
X45207000Y-54679845D01*
X45207000Y-55873000D01*
X45227000Y-55873000D01*
X45227000Y-56127000D01*
X45207000Y-56127000D01*
X45207000Y-57320155D01*
X45436890Y-57441476D01*
X45846924Y-57271645D01*
X46275183Y-56881358D01*
X46336157Y-56751522D01*
X46549375Y-57070625D01*
X47040582Y-57398839D01*
X47473744Y-57485000D01*
X47766256Y-57485000D01*
X48199418Y-57398839D01*
X48690625Y-57070625D01*
X48890000Y-56772239D01*
X49089375Y-57070625D01*
X49580582Y-57398839D01*
X50013744Y-57485000D01*
X50306256Y-57485000D01*
X50739418Y-57398839D01*
X51230625Y-57070625D01*
X51430000Y-56772239D01*
X51629375Y-57070625D01*
X52120582Y-57398839D01*
X52553744Y-57485000D01*
X52846256Y-57485000D01*
X53279418Y-57398839D01*
X53770625Y-57070625D01*
X54048412Y-56654887D01*
X55265000Y-56654887D01*
X55265000Y-57345113D01*
X55529138Y-57982799D01*
X56017201Y-58470862D01*
X56654887Y-58735000D01*
X57345113Y-58735000D01*
X57982799Y-58470862D01*
X58470862Y-57982799D01*
X58735000Y-57345113D01*
X58735000Y-56654887D01*
X58470862Y-56017201D01*
X57982799Y-55529138D01*
X57345113Y-55265000D01*
X56654887Y-55265000D01*
X56017201Y-55529138D01*
X55529138Y-56017201D01*
X55265000Y-56654887D01*
X54048412Y-56654887D01*
X54098839Y-56579418D01*
X54214092Y-56000000D01*
X54098839Y-55420582D01*
X53770625Y-54929375D01*
X53279418Y-54601161D01*
X52846256Y-54515000D01*
X52553744Y-54515000D01*
X52120582Y-54601161D01*
X51629375Y-54929375D01*
X51430000Y-55227761D01*
X51230625Y-54929375D01*
X50895000Y-54705118D01*
X50895000Y-53847440D01*
X51350001Y-53847440D01*
X51693436Y-53779127D01*
X51984586Y-53584586D01*
X52179127Y-53293436D01*
X52247440Y-52950001D01*
X52247440Y-52049999D01*
X52179127Y-51706564D01*
X51984586Y-51415414D01*
X51693436Y-51220873D01*
X51350001Y-51152560D01*
X50858427Y-51152560D01*
X50373587Y-50667720D01*
X50327001Y-50597999D01*
X50050801Y-50413448D01*
X49807237Y-50365000D01*
X49807233Y-50365000D01*
X49725000Y-50348643D01*
X49642767Y-50365000D01*
X43790867Y-50365000D01*
X43808427Y-50347440D01*
X44300001Y-50347440D01*
X44643436Y-50279127D01*
X44934586Y-50084586D01*
X44935377Y-50083403D01*
X45090302Y-50238327D01*
X45323691Y-50335000D01*
X45739250Y-50335000D01*
X45898000Y-50176250D01*
X45898000Y-49127000D01*
X46152000Y-49127000D01*
X46152000Y-50176250D01*
X46310750Y-50335000D01*
X46726309Y-50335000D01*
X46959698Y-50238327D01*
X47138327Y-50059699D01*
X47235000Y-49826310D01*
X47235000Y-49285750D01*
X47076250Y-49127000D01*
X46152000Y-49127000D01*
X45898000Y-49127000D01*
X45878000Y-49127000D01*
X45878000Y-48873000D01*
X45898000Y-48873000D01*
X45898000Y-47823750D01*
X46152000Y-47823750D01*
X46152000Y-48873000D01*
X47076250Y-48873000D01*
X47235000Y-48714250D01*
X47235000Y-48173690D01*
X47138327Y-47940301D01*
X46959698Y-47761673D01*
X46726309Y-47665000D01*
X46310750Y-47665000D01*
X46152000Y-47823750D01*
X45898000Y-47823750D01*
X45739250Y-47665000D01*
X45323691Y-47665000D01*
X45090302Y-47761673D01*
X44935377Y-47916597D01*
X44934586Y-47915414D01*
X44643436Y-47720873D01*
X44535000Y-47699304D01*
X44535000Y-45310750D01*
X49665000Y-45310750D01*
X49665000Y-45726309D01*
X49761673Y-45959698D01*
X49940301Y-46138327D01*
X50173690Y-46235000D01*
X50714250Y-46235000D01*
X50873000Y-46076250D01*
X50873000Y-45152000D01*
X51127000Y-45152000D01*
X51127000Y-46076250D01*
X51285750Y-46235000D01*
X51826310Y-46235000D01*
X52059699Y-46138327D01*
X52238327Y-45959698D01*
X52335000Y-45726309D01*
X52335000Y-45310750D01*
X52176250Y-45152000D01*
X51127000Y-45152000D01*
X50873000Y-45152000D01*
X49823750Y-45152000D01*
X49665000Y-45310750D01*
X44535000Y-45310750D01*
X44535000Y-45270155D01*
X45185336Y-44619820D01*
X45265953Y-44565953D01*
X45286635Y-44535000D01*
X45777316Y-44535000D01*
X45840460Y-44522440D01*
X46200000Y-44522440D01*
X46447765Y-44473157D01*
X46657809Y-44332809D01*
X46798157Y-44122765D01*
X46847440Y-43875000D01*
X46847440Y-43625000D01*
X46822576Y-43500000D01*
X46847440Y-43375000D01*
X46847440Y-43125000D01*
X46822576Y-43000000D01*
X46847440Y-42875000D01*
X46847440Y-42625000D01*
X46822576Y-42500000D01*
X46830533Y-42460000D01*
X49690353Y-42460000D01*
X49652560Y-42649999D01*
X49652560Y-43300001D01*
X49720873Y-43643436D01*
X49915414Y-43934586D01*
X49916597Y-43935377D01*
X49761673Y-44090302D01*
X49665000Y-44323691D01*
X49665000Y-44739250D01*
X49823750Y-44898000D01*
X50873000Y-44898000D01*
X50873000Y-44878000D01*
X51127000Y-44878000D01*
X51127000Y-44898000D01*
X52176250Y-44898000D01*
X52335000Y-44739250D01*
X52335000Y-44323691D01*
X52238327Y-44090302D01*
X52083403Y-43935377D01*
X52084586Y-43934586D01*
X52234650Y-43710000D01*
X53170554Y-43710000D01*
X53352560Y-43892006D01*
X53352560Y-51375000D01*
X53401843Y-51622765D01*
X53542191Y-51832809D01*
X53752235Y-51973157D01*
X54000000Y-52022440D01*
X56000000Y-52022440D01*
X56247765Y-51973157D01*
X56457809Y-51832809D01*
X56598157Y-51622765D01*
X56647440Y-51375000D01*
X56647440Y-43500000D01*
X56598157Y-43252235D01*
X56457809Y-43042191D01*
X56247765Y-42901843D01*
X56000000Y-42852560D01*
X54392006Y-42852560D01*
X54045911Y-42506465D01*
X54004905Y-42445095D01*
X53761783Y-42282646D01*
X53547388Y-42240000D01*
X53547384Y-42240000D01*
X53475000Y-42225602D01*
X53402616Y-42240000D01*
X52234650Y-42240000D01*
X52084586Y-42015414D01*
X51793436Y-41820873D01*
X51450001Y-41752560D01*
X51351824Y-41752560D01*
X51229905Y-41570095D01*
X51168535Y-41529089D01*
X51139446Y-41500000D01*
X51168535Y-41470911D01*
X51229905Y-41429905D01*
X51351824Y-41247440D01*
X51450001Y-41247440D01*
X51793436Y-41179127D01*
X52084586Y-40984586D01*
X52234650Y-40760000D01*
X53402616Y-40760000D01*
X53475000Y-40774398D01*
X53547384Y-40760000D01*
X53547388Y-40760000D01*
X53761783Y-40717354D01*
X54004905Y-40554905D01*
X54045911Y-40493535D01*
X54392006Y-40147440D01*
X56000000Y-40147440D01*
X56247765Y-40098157D01*
X56457809Y-39957809D01*
X56598157Y-39747765D01*
X56647440Y-39500000D01*
X56647440Y-31625000D01*
X56598157Y-31377235D01*
X56457809Y-31167191D01*
X56247765Y-31026843D01*
X56000000Y-30977560D01*
X54000000Y-30977560D01*
X53752235Y-31026843D01*
X53542191Y-31167191D01*
X53401843Y-31377235D01*
X53352560Y-31625000D01*
X53352560Y-39107994D01*
X53170554Y-39290000D01*
X52234650Y-39290000D01*
X52084586Y-39065414D01*
X52083403Y-39064623D01*
X52238327Y-38909698D01*
X52335000Y-38676309D01*
X52335000Y-38260750D01*
X52176250Y-38102000D01*
X51127000Y-38102000D01*
X51127000Y-38122000D01*
X50873000Y-38122000D01*
X50873000Y-38102000D01*
X49823750Y-38102000D01*
X49665000Y-38260750D01*
X49665000Y-38676309D01*
X49761673Y-38909698D01*
X49916597Y-39064623D01*
X49915414Y-39065414D01*
X49720873Y-39356564D01*
X49652560Y-39699999D01*
X49652560Y-40350001D01*
X49690353Y-40540000D01*
X46830533Y-40540000D01*
X46822576Y-40500000D01*
X46847440Y-40375000D01*
X46847440Y-40125000D01*
X46822576Y-40000000D01*
X46847440Y-39875000D01*
X46847440Y-39625000D01*
X46822576Y-39500000D01*
X46847440Y-39375000D01*
X46847440Y-39125000D01*
X46822576Y-39000000D01*
X46847440Y-38875000D01*
X46847440Y-38625000D01*
X46829538Y-38535000D01*
X48172688Y-38535000D01*
X48250000Y-38550378D01*
X48327312Y-38535000D01*
X48327316Y-38535000D01*
X48556292Y-38489454D01*
X48815953Y-38315953D01*
X48859749Y-38250408D01*
X49500412Y-37609746D01*
X49565953Y-37565953D01*
X49609746Y-37500412D01*
X49609749Y-37500409D01*
X49665000Y-37417720D01*
X49665000Y-37689250D01*
X49823750Y-37848000D01*
X50873000Y-37848000D01*
X50873000Y-36923750D01*
X51127000Y-36923750D01*
X51127000Y-37848000D01*
X52176250Y-37848000D01*
X52335000Y-37689250D01*
X52335000Y-37273691D01*
X52238327Y-37040302D01*
X52059699Y-36861673D01*
X51826310Y-36765000D01*
X51285750Y-36765000D01*
X51127000Y-36923750D01*
X50873000Y-36923750D01*
X50714250Y-36765000D01*
X50173690Y-36765000D01*
X49940301Y-36861673D01*
X49799982Y-37001993D01*
X49800378Y-37000001D01*
X49798838Y-36992255D01*
X49760000Y-36797005D01*
X49760000Y-36201241D01*
X49934586Y-36084586D01*
X49935377Y-36083403D01*
X50090302Y-36238327D01*
X50323691Y-36335000D01*
X50739250Y-36335000D01*
X50898000Y-36176250D01*
X50898000Y-35127000D01*
X51152000Y-35127000D01*
X51152000Y-36176250D01*
X51310750Y-36335000D01*
X51726309Y-36335000D01*
X51959698Y-36238327D01*
X52138327Y-36059699D01*
X52235000Y-35826310D01*
X52235000Y-35285750D01*
X52076250Y-35127000D01*
X51152000Y-35127000D01*
X50898000Y-35127000D01*
X50878000Y-35127000D01*
X50878000Y-34873000D01*
X50898000Y-34873000D01*
X50898000Y-33823750D01*
X51152000Y-33823750D01*
X51152000Y-34873000D01*
X52076250Y-34873000D01*
X52235000Y-34714250D01*
X52235000Y-34173690D01*
X52138327Y-33940301D01*
X51959698Y-33761673D01*
X51726309Y-33665000D01*
X51310750Y-33665000D01*
X51152000Y-33823750D01*
X50898000Y-33823750D01*
X50739250Y-33665000D01*
X50323691Y-33665000D01*
X50090302Y-33761673D01*
X49935377Y-33916597D01*
X49934586Y-33915414D01*
X49810000Y-33832168D01*
X49810000Y-33167832D01*
X49934586Y-33084586D01*
X49935377Y-33083403D01*
X50090302Y-33238327D01*
X50323691Y-33335000D01*
X50739250Y-33335000D01*
X50898000Y-33176250D01*
X50898000Y-32127000D01*
X51152000Y-32127000D01*
X51152000Y-33176250D01*
X51310750Y-33335000D01*
X51726309Y-33335000D01*
X51959698Y-33238327D01*
X52138327Y-33059699D01*
X52235000Y-32826310D01*
X52235000Y-32285750D01*
X52076250Y-32127000D01*
X51152000Y-32127000D01*
X50898000Y-32127000D01*
X50878000Y-32127000D01*
X50878000Y-31873000D01*
X50898000Y-31873000D01*
X50898000Y-30823750D01*
X51152000Y-30823750D01*
X51152000Y-31873000D01*
X52076250Y-31873000D01*
X52235000Y-31714250D01*
X52235000Y-31173690D01*
X52138327Y-30940301D01*
X51959698Y-30761673D01*
X51726309Y-30665000D01*
X51310750Y-30665000D01*
X51152000Y-30823750D01*
X50898000Y-30823750D01*
X50739250Y-30665000D01*
X50323691Y-30665000D01*
X50090302Y-30761673D01*
X49935377Y-30916597D01*
X49934586Y-30915414D01*
X49835000Y-30848872D01*
X49835000Y-28628711D01*
X49877431Y-28586280D01*
X50035000Y-28205874D01*
X50035000Y-27794126D01*
X49877431Y-27413720D01*
X49586280Y-27122569D01*
X49205874Y-26965000D01*
X48794126Y-26965000D01*
X48413720Y-27122569D01*
X48122569Y-27413720D01*
X47965000Y-27794126D01*
X47965000Y-28205874D01*
X48122569Y-28586280D01*
X48165000Y-28628711D01*
X48165001Y-30815463D01*
X48015414Y-30915414D01*
X47820873Y-31206564D01*
X47752560Y-31549999D01*
X47752560Y-32450001D01*
X47820873Y-32793436D01*
X48015414Y-33084586D01*
X48140000Y-33167832D01*
X48140001Y-33832168D01*
X48015414Y-33915414D01*
X47820873Y-34206564D01*
X47752560Y-34549999D01*
X47752560Y-35450001D01*
X47820873Y-35793436D01*
X48015414Y-36084586D01*
X48190001Y-36201242D01*
X48190001Y-36699842D01*
X47924843Y-36965000D01*
X46829538Y-36965000D01*
X46847440Y-36875000D01*
X46847440Y-36625000D01*
X46822576Y-36500000D01*
X46847440Y-36375000D01*
X46847440Y-36125000D01*
X46798157Y-35877235D01*
X46657809Y-35667191D01*
X46447765Y-35526843D01*
X46200000Y-35477560D01*
X45200000Y-35477560D01*
X44952235Y-35526843D01*
X44742191Y-35667191D01*
X44601843Y-35877235D01*
X44552560Y-36125000D01*
X44552560Y-36375000D01*
X44577424Y-36500000D01*
X44552560Y-36625000D01*
X44552560Y-36875000D01*
X44577424Y-36999999D01*
X44552560Y-37125000D01*
X44552560Y-37375000D01*
X44577424Y-37500000D01*
X44552560Y-37625000D01*
X44552560Y-37875000D01*
X44573217Y-37978852D01*
X44565000Y-37998690D01*
X44565000Y-38028750D01*
X44587647Y-38051397D01*
X44601843Y-38122765D01*
X44686859Y-38250000D01*
X44601843Y-38377235D01*
X44587647Y-38448603D01*
X44565000Y-38471250D01*
X44565000Y-38501310D01*
X44573217Y-38521148D01*
X44552560Y-38625000D01*
X44552560Y-38875000D01*
X44577424Y-39000000D01*
X44552560Y-39125000D01*
X44552560Y-39375000D01*
X44577424Y-39500000D01*
X44552560Y-39625000D01*
X44552560Y-39875000D01*
X44577424Y-40000000D01*
X44552560Y-40125000D01*
X44552560Y-40164994D01*
X44470095Y-40220095D01*
X44429090Y-40281463D01*
X43931464Y-40779090D01*
X43870094Y-40820096D01*
X43707645Y-41063219D01*
X43664999Y-41277614D01*
X43664999Y-41277617D01*
X43650601Y-41350001D01*
X43664999Y-41422385D01*
X43664999Y-41471288D01*
X43522568Y-41613719D01*
X43364999Y-41994125D01*
X43364999Y-42405873D01*
X43522568Y-42786279D01*
X43813719Y-43077430D01*
X44194125Y-43234999D01*
X44350002Y-43234999D01*
X44340251Y-43249592D01*
X44209666Y-43380177D01*
X44194589Y-43390251D01*
X44194587Y-43390253D01*
X44129045Y-43434047D01*
X44085251Y-43499589D01*
X43249590Y-44335251D01*
X43184048Y-44379045D01*
X43140254Y-44444587D01*
X43140251Y-44444590D01*
X43047360Y-44583610D01*
X43028750Y-44565000D01*
X42998690Y-44565000D01*
X42978852Y-44573217D01*
X42875000Y-44552560D01*
X42625000Y-44552560D01*
X42500000Y-44577424D01*
X42375000Y-44552560D01*
X42125000Y-44552560D01*
X42000000Y-44577424D01*
X41875000Y-44552560D01*
X41625000Y-44552560D01*
X41500000Y-44577424D01*
X41375000Y-44552560D01*
X41125000Y-44552560D01*
X41000000Y-44577424D01*
X40875000Y-44552560D01*
X40625000Y-44552560D01*
X40500000Y-44577424D01*
X40375000Y-44552560D01*
X40125000Y-44552560D01*
X40000000Y-44577424D01*
X39985000Y-44574440D01*
X39985000Y-44422388D01*
X39999399Y-44350000D01*
X39965875Y-44181463D01*
X39942354Y-44063217D01*
X39935000Y-44052211D01*
X39935000Y-43794126D01*
X39777431Y-43413720D01*
X39486280Y-43122569D01*
X39105874Y-42965000D01*
X38694126Y-42965000D01*
X38518890Y-43037585D01*
X38429905Y-42904410D01*
X38368537Y-42863405D01*
X37786596Y-42281465D01*
X37745590Y-42220095D01*
X37502468Y-42057646D01*
X37288073Y-42015000D01*
X37288069Y-42015000D01*
X37215685Y-42000602D01*
X37143301Y-42015000D01*
X35425560Y-42015000D01*
X35422576Y-42000000D01*
X35447440Y-41875000D01*
X35447440Y-41625000D01*
X35422576Y-41500000D01*
X35447440Y-41375000D01*
X35447440Y-41125000D01*
X35422576Y-41000000D01*
X35447440Y-40875000D01*
X35447440Y-40625000D01*
X35422576Y-40500000D01*
X35447440Y-40375000D01*
X35447440Y-40125000D01*
X35422576Y-40000000D01*
X35447440Y-39875000D01*
X35447440Y-39625000D01*
X35422576Y-39500000D01*
X35447440Y-39375000D01*
X35447440Y-39125000D01*
X35422576Y-39000000D01*
X35447440Y-38875000D01*
X35447440Y-38625000D01*
X35422576Y-38500000D01*
X35447440Y-38375000D01*
X35447440Y-38125000D01*
X35422576Y-38000000D01*
X35447440Y-37875000D01*
X35447440Y-37625000D01*
X35422576Y-37500000D01*
X35447440Y-37375000D01*
X35447440Y-37125000D01*
X35422576Y-36999999D01*
X35447440Y-36875000D01*
X35447440Y-36625000D01*
X35422576Y-36500000D01*
X35447440Y-36375000D01*
X35447440Y-36125000D01*
X35398157Y-35877235D01*
X35257809Y-35667191D01*
X35047765Y-35526843D01*
X34800000Y-35477560D01*
X33800000Y-35477560D01*
X33552235Y-35526843D01*
X33342191Y-35667191D01*
X33201843Y-35877235D01*
X33152560Y-36125000D01*
X33152560Y-36375000D01*
X33177424Y-36500000D01*
X33152560Y-36625000D01*
X33152560Y-36875000D01*
X33177424Y-36999999D01*
X33152560Y-37125000D01*
X33152560Y-37375000D01*
X33177424Y-37500000D01*
X33152560Y-37625000D01*
X33152560Y-37875000D01*
X33177424Y-38000000D01*
X33152560Y-38125000D01*
X33152560Y-38375000D01*
X33177424Y-38500000D01*
X33152560Y-38625000D01*
X33152560Y-38875000D01*
X33177424Y-39000000D01*
X33152560Y-39125000D01*
X33152560Y-39375000D01*
X33177424Y-39500000D01*
X33152560Y-39625000D01*
X33152560Y-39875000D01*
X33177424Y-40000000D01*
X33152560Y-40125000D01*
X33152560Y-40375000D01*
X33177424Y-40500000D01*
X33152560Y-40625000D01*
X33152560Y-40875000D01*
X33177424Y-41000000D01*
X33152560Y-41125000D01*
X33152560Y-41375000D01*
X33177424Y-41500000D01*
X33152560Y-41625000D01*
X33152560Y-41875000D01*
X33177424Y-42000000D01*
X33152560Y-42125000D01*
X33152560Y-42375000D01*
X33177424Y-42500000D01*
X33152560Y-42625000D01*
X33152560Y-42875000D01*
X33170462Y-42965000D01*
X32230533Y-42965000D01*
X32179127Y-42706564D01*
X31984586Y-42415414D01*
X31693436Y-42220873D01*
X31350001Y-42152560D01*
X30699999Y-42152560D01*
X30356564Y-42220873D01*
X30065414Y-42415414D01*
X30064623Y-42416597D01*
X29909698Y-42261673D01*
X29676309Y-42165000D01*
X29260750Y-42165000D01*
X29102000Y-42323750D01*
X29102000Y-43373000D01*
X29122000Y-43373000D01*
X29122000Y-43627000D01*
X29102000Y-43627000D01*
X29102000Y-43647000D01*
X28848000Y-43647000D01*
X28848000Y-43627000D01*
X27923750Y-43627000D01*
X27765000Y-43785750D01*
X27765000Y-43989491D01*
X27705874Y-43965000D01*
X27294126Y-43965000D01*
X26913720Y-44122569D01*
X26622569Y-44413720D01*
X26465000Y-44794126D01*
X26465000Y-45205874D01*
X26502659Y-45296792D01*
X26247440Y-45041573D01*
X26247440Y-44549999D01*
X26179127Y-44206564D01*
X25984586Y-43915414D01*
X25860000Y-43832168D01*
X25860000Y-42673690D01*
X27765000Y-42673690D01*
X27765000Y-43214250D01*
X27923750Y-43373000D01*
X28848000Y-43373000D01*
X28848000Y-42323750D01*
X28689250Y-42165000D01*
X28273691Y-42165000D01*
X28040302Y-42261673D01*
X27861673Y-42440301D01*
X27765000Y-42673690D01*
X25860000Y-42673690D01*
X25860000Y-39435505D01*
X26047765Y-39398157D01*
X26257809Y-39257809D01*
X26398157Y-39047765D01*
X26447440Y-38800000D01*
X26447440Y-38310750D01*
X27665000Y-38310750D01*
X27665000Y-38726309D01*
X27761673Y-38959698D01*
X27940301Y-39138327D01*
X28173690Y-39235000D01*
X28714250Y-39235000D01*
X28873000Y-39076250D01*
X28873000Y-38152000D01*
X29127000Y-38152000D01*
X29127000Y-39076250D01*
X29285750Y-39235000D01*
X29826310Y-39235000D01*
X30059699Y-39138327D01*
X30238327Y-38959698D01*
X30335000Y-38726309D01*
X30335000Y-38310750D01*
X30176250Y-38152000D01*
X29127000Y-38152000D01*
X28873000Y-38152000D01*
X27823750Y-38152000D01*
X27665000Y-38310750D01*
X26447440Y-38310750D01*
X26447440Y-37200000D01*
X26398157Y-36952235D01*
X26257809Y-36742191D01*
X26047765Y-36601843D01*
X25835000Y-36559522D01*
X25835000Y-31945867D01*
X26465000Y-31315867D01*
X26465000Y-31705874D01*
X26622569Y-32086280D01*
X26913720Y-32377431D01*
X27294126Y-32535000D01*
X27502560Y-32535000D01*
X27502560Y-33050000D01*
X27551843Y-33297765D01*
X27692191Y-33507809D01*
X27902235Y-33648157D01*
X28150000Y-33697440D01*
X28415000Y-33697440D01*
X28415001Y-34779413D01*
X28206564Y-34820873D01*
X27915414Y-35015414D01*
X27720873Y-35306564D01*
X27652560Y-35649999D01*
X27652560Y-36300001D01*
X27720873Y-36643436D01*
X27915414Y-36934586D01*
X27916597Y-36935377D01*
X27761673Y-37090302D01*
X27665000Y-37323691D01*
X27665000Y-37739250D01*
X27823750Y-37898000D01*
X28873000Y-37898000D01*
X28873000Y-37878000D01*
X29127000Y-37878000D01*
X29127000Y-37898000D01*
X30176250Y-37898000D01*
X30335000Y-37739250D01*
X30335000Y-37323691D01*
X30238327Y-37090302D01*
X30083403Y-36935377D01*
X30084586Y-36934586D01*
X30279127Y-36643436D01*
X30347440Y-36300001D01*
X30347440Y-35649999D01*
X30279127Y-35306564D01*
X30084586Y-35015414D01*
X29885000Y-34882054D01*
X29885000Y-33697440D01*
X30150000Y-33697440D01*
X30397765Y-33648157D01*
X30607809Y-33507809D01*
X30748157Y-33297765D01*
X30797440Y-33050000D01*
X30797440Y-31942006D01*
X31453696Y-31285750D01*
X31765000Y-31285750D01*
X31765000Y-31826310D01*
X31861673Y-32059699D01*
X32040302Y-32238327D01*
X32273691Y-32335000D01*
X32689250Y-32335000D01*
X32848000Y-32176250D01*
X32848000Y-31127000D01*
X31923750Y-31127000D01*
X31765000Y-31285750D01*
X31453696Y-31285750D01*
X31895098Y-30844348D01*
X31923750Y-30873000D01*
X32848000Y-30873000D01*
X32848000Y-30853000D01*
X33102000Y-30853000D01*
X33102000Y-30873000D01*
X33122000Y-30873000D01*
X33122000Y-31127000D01*
X33102000Y-31127000D01*
X33102000Y-32176250D01*
X33260750Y-32335000D01*
X33676309Y-32335000D01*
X33909698Y-32238327D01*
X34064623Y-32083403D01*
X34065414Y-32084586D01*
X34356564Y-32279127D01*
X34699999Y-32347440D01*
X35262283Y-32347440D01*
X35465001Y-32550158D01*
X35465000Y-34377315D01*
X35477560Y-34440459D01*
X35477560Y-34800000D01*
X35526843Y-35047765D01*
X35667191Y-35257809D01*
X35877235Y-35398157D01*
X36125000Y-35447440D01*
X36375000Y-35447440D01*
X36478852Y-35426783D01*
X36498690Y-35435000D01*
X36528750Y-35435000D01*
X36551397Y-35412353D01*
X36622765Y-35398157D01*
X36750000Y-35313141D01*
X36877235Y-35398157D01*
X36948603Y-35412353D01*
X36971250Y-35435000D01*
X37001310Y-35435000D01*
X37021148Y-35426783D01*
X37125000Y-35447440D01*
X37375000Y-35447440D01*
X37500000Y-35422576D01*
X37625000Y-35447440D01*
X37875000Y-35447440D01*
X38000000Y-35422576D01*
X38125000Y-35447440D01*
X38375000Y-35447440D01*
X38500000Y-35422576D01*
X38625000Y-35447440D01*
X38875000Y-35447440D01*
X39000000Y-35422576D01*
X39125000Y-35447440D01*
X39375000Y-35447440D01*
X39500000Y-35422576D01*
X39625000Y-35447440D01*
X39875000Y-35447440D01*
X40000000Y-35422576D01*
X40125000Y-35447440D01*
X40375000Y-35447440D01*
X40500000Y-35422576D01*
X40625000Y-35447440D01*
X40875000Y-35447440D01*
X41000000Y-35422576D01*
X41125000Y-35447440D01*
X41375000Y-35447440D01*
X41500000Y-35422576D01*
X41625000Y-35447440D01*
X41875000Y-35447440D01*
X42000000Y-35422576D01*
X42125000Y-35447440D01*
X42375000Y-35447440D01*
X42500000Y-35422576D01*
X42625000Y-35447440D01*
X42875000Y-35447440D01*
X42978852Y-35426783D01*
X42998690Y-35435000D01*
X43028750Y-35435000D01*
X43051397Y-35412353D01*
X43122765Y-35398157D01*
X43250000Y-35313141D01*
X43377235Y-35398157D01*
X43448603Y-35412353D01*
X43471250Y-35435000D01*
X43501310Y-35435000D01*
X43521148Y-35426783D01*
X43625000Y-35447440D01*
X43875000Y-35447440D01*
X44122765Y-35398157D01*
X44332809Y-35257809D01*
X44473157Y-35047765D01*
X44522440Y-34800000D01*
X44522440Y-33800000D01*
X44473157Y-33552235D01*
X44332809Y-33342191D01*
X44122765Y-33201843D01*
X43875000Y-33152560D01*
X43625000Y-33152560D01*
X43535000Y-33170462D01*
X43535000Y-31852310D01*
X43550378Y-31774999D01*
X43535000Y-31697688D01*
X43535000Y-31697684D01*
X43489454Y-31468708D01*
X43394377Y-31326416D01*
X43359749Y-31274591D01*
X43359747Y-31274589D01*
X43347440Y-31256170D01*
X43347440Y-31236628D01*
X44652560Y-31236628D01*
X44652560Y-31350001D01*
X44720873Y-31693436D01*
X44915414Y-31984586D01*
X45206564Y-32179127D01*
X45549999Y-32247440D01*
X46450001Y-32247440D01*
X46793436Y-32179127D01*
X47084586Y-31984586D01*
X47279127Y-31693436D01*
X47347440Y-31350001D01*
X47347440Y-30699999D01*
X47279127Y-30356564D01*
X47084586Y-30065414D01*
X47083403Y-30064623D01*
X47238327Y-29909698D01*
X47335000Y-29676309D01*
X47335000Y-29260750D01*
X47176250Y-29102000D01*
X46127000Y-29102000D01*
X46127000Y-29122000D01*
X45873000Y-29122000D01*
X45873000Y-29102000D01*
X44823750Y-29102000D01*
X44665000Y-29260750D01*
X44665000Y-29566628D01*
X43335000Y-29566628D01*
X43335000Y-29260750D01*
X43176250Y-29102000D01*
X42127000Y-29102000D01*
X42127000Y-29122000D01*
X41873000Y-29122000D01*
X41873000Y-29102000D01*
X41853000Y-29102000D01*
X41853000Y-28848000D01*
X41873000Y-28848000D01*
X41873000Y-27923750D01*
X42127000Y-27923750D01*
X42127000Y-28848000D01*
X43176250Y-28848000D01*
X43335000Y-28689250D01*
X43335000Y-28273691D01*
X43238327Y-28040302D01*
X43059699Y-27861673D01*
X42826310Y-27765000D01*
X42285750Y-27765000D01*
X42127000Y-27923750D01*
X41873000Y-27923750D01*
X41714250Y-27765000D01*
X41510509Y-27765000D01*
X41535000Y-27705874D01*
X41535000Y-27294126D01*
X41377431Y-26913720D01*
X41335000Y-26871289D01*
X41335000Y-26557232D01*
X41351357Y-26474999D01*
X41335000Y-26392766D01*
X41335000Y-26392763D01*
X41286552Y-26149199D01*
X41247440Y-26090664D01*
X41247440Y-25549999D01*
X41179127Y-25206564D01*
X40984586Y-24915414D01*
X40860000Y-24832168D01*
X40860000Y-24167832D01*
X40984586Y-24084586D01*
X41179127Y-23793436D01*
X41247440Y-23450001D01*
X41247440Y-23200000D01*
X42552560Y-23200000D01*
X42552560Y-24800000D01*
X42601843Y-25047765D01*
X42742191Y-25257809D01*
X42952235Y-25398157D01*
X43165000Y-25440478D01*
X43165000Y-25917767D01*
X43148643Y-26000000D01*
X43165000Y-26082233D01*
X43165000Y-26082236D01*
X43213448Y-26325800D01*
X43397999Y-26602001D01*
X43467720Y-26648587D01*
X43665001Y-26845868D01*
X43665001Y-26871288D01*
X43622569Y-26913720D01*
X43465000Y-27294126D01*
X43465000Y-27705874D01*
X43622569Y-28086280D01*
X43913720Y-28377431D01*
X44294126Y-28535000D01*
X44665000Y-28535000D01*
X44665000Y-28689250D01*
X44823750Y-28848000D01*
X45873000Y-28848000D01*
X45873000Y-27923750D01*
X46127000Y-27923750D01*
X46127000Y-28848000D01*
X47176250Y-28848000D01*
X47335000Y-28689250D01*
X47335000Y-28273691D01*
X47238327Y-28040302D01*
X47059699Y-27861673D01*
X46826310Y-27765000D01*
X46285750Y-27765000D01*
X46127000Y-27923750D01*
X45873000Y-27923750D01*
X45714250Y-27765000D01*
X45510509Y-27765000D01*
X45535000Y-27705874D01*
X45535000Y-27294126D01*
X45377431Y-26913720D01*
X45335000Y-26871289D01*
X45335000Y-26582237D01*
X45351358Y-26500000D01*
X45286552Y-26174199D01*
X45102001Y-25897999D01*
X45032280Y-25851413D01*
X44835000Y-25654133D01*
X44835000Y-25440478D01*
X45047765Y-25398157D01*
X45257516Y-25258005D01*
X45783223Y-25446965D01*
X46353454Y-25419778D01*
X46754005Y-25253864D01*
X46828139Y-25007745D01*
X46000000Y-24179605D01*
X45985858Y-24193748D01*
X45806253Y-24014143D01*
X45820395Y-24000000D01*
X46179605Y-24000000D01*
X47007745Y-24828139D01*
X47253864Y-24754005D01*
X47446965Y-24216777D01*
X47419778Y-23646546D01*
X47253864Y-23245995D01*
X47007745Y-23171861D01*
X46179605Y-24000000D01*
X45820395Y-24000000D01*
X45806253Y-23985858D01*
X45985858Y-23806252D01*
X46000000Y-23820395D01*
X46828139Y-22992255D01*
X46754005Y-22746136D01*
X46500141Y-22654887D01*
X55265000Y-22654887D01*
X55265000Y-23345113D01*
X55529138Y-23982799D01*
X56017201Y-24470862D01*
X56654887Y-24735000D01*
X57345113Y-24735000D01*
X57982799Y-24470862D01*
X58470862Y-23982799D01*
X58735000Y-23345113D01*
X58735000Y-22654887D01*
X58470862Y-22017201D01*
X57982799Y-21529138D01*
X57345113Y-21265000D01*
X56654887Y-21265000D01*
X56017201Y-21529138D01*
X55529138Y-22017201D01*
X55265000Y-22654887D01*
X46500141Y-22654887D01*
X46216777Y-22553035D01*
X45646546Y-22580222D01*
X45256933Y-22741605D01*
X45047765Y-22601843D01*
X44800000Y-22552560D01*
X43200000Y-22552560D01*
X42952235Y-22601843D01*
X42742191Y-22742191D01*
X42601843Y-22952235D01*
X42552560Y-23200000D01*
X41247440Y-23200000D01*
X41247440Y-22549999D01*
X41179127Y-22206564D01*
X40984586Y-21915414D01*
X40693436Y-21720873D01*
X40350001Y-21652560D01*
X39699999Y-21652560D01*
X39356564Y-21720873D01*
X39065414Y-21915414D01*
X39064623Y-21916597D01*
X38909698Y-21761673D01*
X38676309Y-21665000D01*
X38260750Y-21665000D01*
X38102000Y-21823750D01*
X38102000Y-22873000D01*
X38122000Y-22873000D01*
X38122000Y-23127000D01*
X38102000Y-23127000D01*
X38102000Y-24176250D01*
X38260750Y-24335000D01*
X38676309Y-24335000D01*
X38909698Y-24238327D01*
X39064623Y-24083403D01*
X39065414Y-24084586D01*
X39190001Y-24167832D01*
X39190000Y-24832168D01*
X39065414Y-24915414D01*
X39000000Y-25013313D01*
X38934586Y-24915414D01*
X38643436Y-24720873D01*
X38300001Y-24652560D01*
X37649999Y-24652560D01*
X37306564Y-24720873D01*
X37015414Y-24915414D01*
X36820873Y-25206564D01*
X36809249Y-25265000D01*
X36190751Y-25265000D01*
X36179127Y-25206564D01*
X35984586Y-24915414D01*
X35693436Y-24720873D01*
X35359915Y-24654532D01*
X35493537Y-24520910D01*
X35554905Y-24479905D01*
X35688390Y-24280131D01*
X35693436Y-24279127D01*
X35984586Y-24084586D01*
X36179127Y-23793436D01*
X36247440Y-23450001D01*
X36247440Y-23285750D01*
X36765000Y-23285750D01*
X36765000Y-23826310D01*
X36861673Y-24059699D01*
X37040302Y-24238327D01*
X37273691Y-24335000D01*
X37689250Y-24335000D01*
X37848000Y-24176250D01*
X37848000Y-23127000D01*
X36923750Y-23127000D01*
X36765000Y-23285750D01*
X36247440Y-23285750D01*
X36247440Y-22549999D01*
X36179127Y-22206564D01*
X36157162Y-22173690D01*
X36765000Y-22173690D01*
X36765000Y-22714250D01*
X36923750Y-22873000D01*
X37848000Y-22873000D01*
X37848000Y-21823750D01*
X37689250Y-21665000D01*
X37273691Y-21665000D01*
X37040302Y-21761673D01*
X36861673Y-21940301D01*
X36765000Y-22173690D01*
X36157162Y-22173690D01*
X35984586Y-21915414D01*
X35693436Y-21720873D01*
X35350001Y-21652560D01*
X34699999Y-21652560D01*
X34356564Y-21720873D01*
X34065414Y-21915414D01*
X34064623Y-21916597D01*
X33909698Y-21761673D01*
X33676309Y-21665000D01*
X33260750Y-21665000D01*
X33102000Y-21823750D01*
X33102000Y-22873000D01*
X33122000Y-22873000D01*
X33122000Y-23127000D01*
X33102000Y-23127000D01*
X33102000Y-23147000D01*
X32848000Y-23147000D01*
X32848000Y-23127000D01*
X31923750Y-23127000D01*
X31765000Y-23285750D01*
X31765000Y-23826310D01*
X31861673Y-24059699D01*
X32040302Y-24238327D01*
X32273691Y-24335000D01*
X32525554Y-24335000D01*
X32506465Y-24354089D01*
X32445095Y-24395095D01*
X32282646Y-24638218D01*
X32260018Y-24751974D01*
X32015414Y-24915414D01*
X31820873Y-25206564D01*
X31752560Y-25549999D01*
X31752560Y-26450001D01*
X31755543Y-26465000D01*
X31694126Y-26465000D01*
X31313720Y-26622569D01*
X31022569Y-26913720D01*
X30865000Y-27294126D01*
X30865000Y-27354132D01*
X30797440Y-27421692D01*
X30797440Y-26950000D01*
X30748157Y-26702235D01*
X30607809Y-26492191D01*
X30397765Y-26351843D01*
X30150000Y-26302560D01*
X29985000Y-26302560D01*
X29985000Y-25083966D01*
X30179127Y-24793436D01*
X30247440Y-24450001D01*
X30247440Y-23549999D01*
X30179127Y-23206564D01*
X29984586Y-22915414D01*
X29693436Y-22720873D01*
X29350001Y-22652560D01*
X28699999Y-22652560D01*
X28356564Y-22720873D01*
X28065414Y-22915414D01*
X28064623Y-22916597D01*
X27909698Y-22761673D01*
X27676309Y-22665000D01*
X27260750Y-22665000D01*
X27102000Y-22823750D01*
X27102000Y-23873000D01*
X27122000Y-23873000D01*
X27122000Y-24127000D01*
X27102000Y-24127000D01*
X27102000Y-25176250D01*
X27260750Y-25335000D01*
X27676309Y-25335000D01*
X27909698Y-25238327D01*
X28064623Y-25083403D01*
X28065414Y-25084586D01*
X28315001Y-25251355D01*
X28315000Y-26302560D01*
X28150000Y-26302560D01*
X27902235Y-26351843D01*
X27692191Y-26492191D01*
X27551843Y-26702235D01*
X27502560Y-26950000D01*
X27502560Y-27916572D01*
X24485000Y-30934133D01*
X24485000Y-30285750D01*
X24326250Y-30127000D01*
X22977000Y-30127000D01*
X22977000Y-32376250D01*
X23135750Y-32535000D01*
X23976309Y-32535000D01*
X24165001Y-32456841D01*
X24165000Y-36559522D01*
X23952235Y-36601843D01*
X23742484Y-36741995D01*
X23216777Y-36553035D01*
X22646546Y-36580222D01*
X22245995Y-36746136D01*
X22171861Y-36992255D01*
X20710000Y-36992255D01*
X20710000Y-30285750D01*
X21215000Y-30285750D01*
X21215000Y-32026310D01*
X21311673Y-32259699D01*
X21490302Y-32438327D01*
X21723691Y-32535000D01*
X22564250Y-32535000D01*
X22723000Y-32376250D01*
X22723000Y-30127000D01*
X21373750Y-30127000D01*
X21215000Y-30285750D01*
X20710000Y-30285750D01*
X20710000Y-27973690D01*
X21215000Y-27973690D01*
X21215000Y-29714250D01*
X21373750Y-29873000D01*
X22723000Y-29873000D01*
X22723000Y-27623750D01*
X22977000Y-27623750D01*
X22977000Y-29873000D01*
X24326250Y-29873000D01*
X24485000Y-29714250D01*
X24485000Y-27973690D01*
X24388327Y-27740301D01*
X24209698Y-27561673D01*
X23976309Y-27465000D01*
X23135750Y-27465000D01*
X22977000Y-27623750D01*
X22723000Y-27623750D01*
X22564250Y-27465000D01*
X21723691Y-27465000D01*
X21490302Y-27561673D01*
X21311673Y-27740301D01*
X21215000Y-27973690D01*
X20710000Y-27973690D01*
X20710000Y-22654887D01*
X21265000Y-22654887D01*
X21265000Y-23345113D01*
X21529138Y-23982799D01*
X22017201Y-24470862D01*
X22654887Y-24735000D01*
X23345113Y-24735000D01*
X23982799Y-24470862D01*
X24167911Y-24285750D01*
X25765000Y-24285750D01*
X25765000Y-24826310D01*
X25861673Y-25059699D01*
X26040302Y-25238327D01*
X26273691Y-25335000D01*
X26689250Y-25335000D01*
X26848000Y-25176250D01*
X26848000Y-24127000D01*
X25923750Y-24127000D01*
X25765000Y-24285750D01*
X24167911Y-24285750D01*
X24470862Y-23982799D01*
X24735000Y-23345113D01*
X24735000Y-23173690D01*
X25765000Y-23173690D01*
X25765000Y-23714250D01*
X25923750Y-23873000D01*
X26848000Y-23873000D01*
X26848000Y-22823750D01*
X26689250Y-22665000D01*
X26273691Y-22665000D01*
X26040302Y-22761673D01*
X25861673Y-22940301D01*
X25765000Y-23173690D01*
X24735000Y-23173690D01*
X24735000Y-22654887D01*
X24535682Y-22173690D01*
X31765000Y-22173690D01*
X31765000Y-22714250D01*
X31923750Y-22873000D01*
X32848000Y-22873000D01*
X32848000Y-21823750D01*
X32689250Y-21665000D01*
X32273691Y-21665000D01*
X32040302Y-21761673D01*
X31861673Y-21940301D01*
X31765000Y-22173690D01*
X24535682Y-22173690D01*
X24470862Y-22017201D01*
X23982799Y-21529138D01*
X23345113Y-21265000D01*
X22654887Y-21265000D01*
X22017201Y-21529138D01*
X21529138Y-22017201D01*
X21265000Y-22654887D01*
X20710000Y-22654887D01*
X20710000Y-20710000D01*
X59290000Y-20710000D01*
X59290001Y-59290000D01*
G36*
X39065414Y-27084586D02*
X39356564Y-27279127D01*
X39465000Y-27300696D01*
X39465000Y-27705874D01*
X39622569Y-28086280D01*
X39665000Y-28128711D01*
X39665001Y-29442762D01*
X39648643Y-29525000D01*
X39713448Y-29850800D01*
X39728282Y-29873000D01*
X39898000Y-30127001D01*
X39967718Y-30173585D01*
X40652560Y-30858428D01*
X40652560Y-31350001D01*
X40720873Y-31693436D01*
X40915414Y-31984586D01*
X41206564Y-32179127D01*
X41549999Y-32247440D01*
X41965001Y-32247440D01*
X41965000Y-33170462D01*
X41875000Y-33152560D01*
X41625000Y-33152560D01*
X41500000Y-33177424D01*
X41375000Y-33152560D01*
X41125000Y-33152560D01*
X41000000Y-33177424D01*
X40875000Y-33152560D01*
X40625000Y-33152560D01*
X40500000Y-33177424D01*
X40375000Y-33152560D01*
X40125000Y-33152560D01*
X40000000Y-33177424D01*
X39875000Y-33152560D01*
X39625000Y-33152560D01*
X39500000Y-33177424D01*
X39375000Y-33152560D01*
X39125000Y-33152560D01*
X39000000Y-33177424D01*
X38875000Y-33152560D01*
X38625000Y-33152560D01*
X38500000Y-33177424D01*
X38375000Y-33152560D01*
X38125000Y-33152560D01*
X38000000Y-33177424D01*
X37985000Y-33174440D01*
X37985000Y-32247440D01*
X38450001Y-32247440D01*
X38793436Y-32179127D01*
X39084586Y-31984586D01*
X39279127Y-31693436D01*
X39347440Y-31350001D01*
X39347440Y-30699999D01*
X39279127Y-30356564D01*
X39084586Y-30065414D01*
X39083403Y-30064623D01*
X39238327Y-29909698D01*
X39335000Y-29676309D01*
X39335000Y-29260750D01*
X39176250Y-29102000D01*
X38127000Y-29102000D01*
X38127000Y-29122000D01*
X37873000Y-29122000D01*
X37873000Y-29102000D01*
X37853000Y-29102000D01*
X37853000Y-28848000D01*
X37873000Y-28848000D01*
X37873000Y-27923750D01*
X38127000Y-27923750D01*
X38127000Y-28848000D01*
X39176250Y-28848000D01*
X39335000Y-28689250D01*
X39335000Y-28273691D01*
X39238327Y-28040302D01*
X39059699Y-27861673D01*
X38826310Y-27765000D01*
X38285750Y-27765000D01*
X38127000Y-27923750D01*
X37873000Y-27923750D01*
X37714250Y-27765000D01*
X37510509Y-27765000D01*
X37535000Y-27705874D01*
X37535000Y-27324565D01*
X37649999Y-27347440D01*
X38300001Y-27347440D01*
X38643436Y-27279127D01*
X38934586Y-27084586D01*
X39000000Y-26986687D01*
X39065414Y-27084586D01*
X39065414Y-27084586D01*
G37*
X39065414Y-27084586D02*
X39356564Y-27279127D01*
X39465000Y-27300696D01*
X39465000Y-27705874D01*
X39622569Y-28086280D01*
X39665000Y-28128711D01*
X39665001Y-29442762D01*
X39648643Y-29525000D01*
X39713448Y-29850800D01*
X39728282Y-29873000D01*
X39898000Y-30127001D01*
X39967718Y-30173585D01*
X40652560Y-30858428D01*
X40652560Y-31350001D01*
X40720873Y-31693436D01*
X40915414Y-31984586D01*
X41206564Y-32179127D01*
X41549999Y-32247440D01*
X41965001Y-32247440D01*
X41965000Y-33170462D01*
X41875000Y-33152560D01*
X41625000Y-33152560D01*
X41500000Y-33177424D01*
X41375000Y-33152560D01*
X41125000Y-33152560D01*
X41000000Y-33177424D01*
X40875000Y-33152560D01*
X40625000Y-33152560D01*
X40500000Y-33177424D01*
X40375000Y-33152560D01*
X40125000Y-33152560D01*
X40000000Y-33177424D01*
X39875000Y-33152560D01*
X39625000Y-33152560D01*
X39500000Y-33177424D01*
X39375000Y-33152560D01*
X39125000Y-33152560D01*
X39000000Y-33177424D01*
X38875000Y-33152560D01*
X38625000Y-33152560D01*
X38500000Y-33177424D01*
X38375000Y-33152560D01*
X38125000Y-33152560D01*
X38000000Y-33177424D01*
X37985000Y-33174440D01*
X37985000Y-32247440D01*
X38450001Y-32247440D01*
X38793436Y-32179127D01*
X39084586Y-31984586D01*
X39279127Y-31693436D01*
X39347440Y-31350001D01*
X39347440Y-30699999D01*
X39279127Y-30356564D01*
X39084586Y-30065414D01*
X39083403Y-30064623D01*
X39238327Y-29909698D01*
X39335000Y-29676309D01*
X39335000Y-29260750D01*
X39176250Y-29102000D01*
X38127000Y-29102000D01*
X38127000Y-29122000D01*
X37873000Y-29122000D01*
X37873000Y-29102000D01*
X37853000Y-29102000D01*
X37853000Y-28848000D01*
X37873000Y-28848000D01*
X37873000Y-27923750D01*
X38127000Y-27923750D01*
X38127000Y-28848000D01*
X39176250Y-28848000D01*
X39335000Y-28689250D01*
X39335000Y-28273691D01*
X39238327Y-28040302D01*
X39059699Y-27861673D01*
X38826310Y-27765000D01*
X38285750Y-27765000D01*
X38127000Y-27923750D01*
X37873000Y-27923750D01*
X37714250Y-27765000D01*
X37510509Y-27765000D01*
X37535000Y-27705874D01*
X37535000Y-27324565D01*
X37649999Y-27347440D01*
X38300001Y-27347440D01*
X38643436Y-27279127D01*
X38934586Y-27084586D01*
X39000000Y-26986687D01*
X39065414Y-27084586D01*
G04 #@! TD*
M02*
