G04 #@! TF.GenerationSoftware,KiCad,Pcbnew,(5.0.2)-1*
G04 #@! TF.CreationDate,2019-01-30T15:42:14+01:00*
G04 #@! TF.ProjectId,lab,6c61622e-6b69-4636-9164-5f7063625858,rev?*
G04 #@! TF.SameCoordinates,Original*
G04 #@! TF.FileFunction,Soldermask,Top*
G04 #@! TF.FilePolarity,Negative*
%FSLAX46Y46*%
G04 Gerber Fmt 4.6, Leading zero omitted, Abs format (unit mm)*
G04 Created by KiCad (PCBNEW (5.0.2)-1) date 30/01/2019 15:42:14*
%MOMM*%
%LPD*%
G01*
G04 APERTURE LIST*
%ADD10C,0.100000*%
G04 APERTURE END LIST*
D10*
G36*
X57335734Y-55893232D02*
X57545202Y-55979996D01*
X57733723Y-56105962D01*
X57894038Y-56266277D01*
X58020004Y-56454798D01*
X58106768Y-56664266D01*
X58151000Y-56886635D01*
X58151000Y-57113365D01*
X58106768Y-57335734D01*
X58020004Y-57545202D01*
X57894038Y-57733723D01*
X57733723Y-57894038D01*
X57545202Y-58020004D01*
X57335734Y-58106768D01*
X57113365Y-58151000D01*
X56886635Y-58151000D01*
X56664266Y-58106768D01*
X56454798Y-58020004D01*
X56266277Y-57894038D01*
X56105962Y-57733723D01*
X55979996Y-57545202D01*
X55893232Y-57335734D01*
X55849000Y-57113365D01*
X55849000Y-56886635D01*
X55893232Y-56664266D01*
X55979996Y-56454798D01*
X56105962Y-56266277D01*
X56266277Y-56105962D01*
X56454798Y-55979996D01*
X56664266Y-55893232D01*
X56886635Y-55849000D01*
X57113365Y-55849000D01*
X57335734Y-55893232D01*
X57335734Y-55893232D01*
G37*
G36*
X23335734Y-55893232D02*
X23545202Y-55979996D01*
X23733723Y-56105962D01*
X23894038Y-56266277D01*
X24020004Y-56454798D01*
X24106768Y-56664266D01*
X24151000Y-56886635D01*
X24151000Y-57113365D01*
X24106768Y-57335734D01*
X24020004Y-57545202D01*
X23894038Y-57733723D01*
X23733723Y-57894038D01*
X23545202Y-58020004D01*
X23335734Y-58106768D01*
X23113365Y-58151000D01*
X22886635Y-58151000D01*
X22664266Y-58106768D01*
X22454798Y-58020004D01*
X22266277Y-57894038D01*
X22105962Y-57733723D01*
X21979996Y-57545202D01*
X21893232Y-57335734D01*
X21849000Y-57113365D01*
X21849000Y-56886635D01*
X21893232Y-56664266D01*
X21979996Y-56454798D01*
X22105962Y-56266277D01*
X22266277Y-56105962D01*
X22454798Y-55979996D01*
X22664266Y-55893232D01*
X22886635Y-55849000D01*
X23113365Y-55849000D01*
X23335734Y-55893232D01*
X23335734Y-55893232D01*
G37*
G36*
X27601000Y-57751000D02*
X25499000Y-57751000D01*
X25499000Y-55949000D01*
X27601000Y-55949000D01*
X27601000Y-57751000D01*
X27601000Y-57751000D01*
G37*
G36*
X36501000Y-57751000D02*
X34399000Y-57751000D01*
X34399000Y-55949000D01*
X36501000Y-55949000D01*
X36501000Y-57751000D01*
X36501000Y-57751000D01*
G37*
G36*
X50270442Y-55105518D02*
X50336627Y-55112037D01*
X50449853Y-55146384D01*
X50506467Y-55163557D01*
X50645087Y-55237652D01*
X50662991Y-55247222D01*
X50698729Y-55276552D01*
X50800186Y-55359814D01*
X50883448Y-55461271D01*
X50912778Y-55497009D01*
X50912779Y-55497011D01*
X50996443Y-55653533D01*
X50996443Y-55653534D01*
X51047963Y-55823373D01*
X51065359Y-56000000D01*
X51047963Y-56176627D01*
X51020768Y-56266277D01*
X50996443Y-56346467D01*
X50938538Y-56454798D01*
X50912778Y-56502991D01*
X50883448Y-56538729D01*
X50800186Y-56640186D01*
X50698729Y-56723448D01*
X50662991Y-56752778D01*
X50662989Y-56752779D01*
X50506467Y-56836443D01*
X50449853Y-56853616D01*
X50336627Y-56887963D01*
X50270443Y-56894481D01*
X50204260Y-56901000D01*
X50115740Y-56901000D01*
X50049557Y-56894481D01*
X49983373Y-56887963D01*
X49870147Y-56853616D01*
X49813533Y-56836443D01*
X49657011Y-56752779D01*
X49657009Y-56752778D01*
X49621271Y-56723448D01*
X49519814Y-56640186D01*
X49436552Y-56538729D01*
X49407222Y-56502991D01*
X49381462Y-56454798D01*
X49323557Y-56346467D01*
X49299232Y-56266277D01*
X49272037Y-56176627D01*
X49254641Y-56000000D01*
X49272037Y-55823373D01*
X49323557Y-55653534D01*
X49323557Y-55653533D01*
X49407221Y-55497011D01*
X49407222Y-55497009D01*
X49436552Y-55461271D01*
X49519814Y-55359814D01*
X49621271Y-55276552D01*
X49657009Y-55247222D01*
X49674913Y-55237652D01*
X49813533Y-55163557D01*
X49870147Y-55146384D01*
X49983373Y-55112037D01*
X50049558Y-55105518D01*
X50115740Y-55099000D01*
X50204260Y-55099000D01*
X50270442Y-55105518D01*
X50270442Y-55105518D01*
G37*
G36*
X40901000Y-56901000D02*
X39099000Y-56901000D01*
X39099000Y-55099000D01*
X40901000Y-55099000D01*
X40901000Y-56901000D01*
X40901000Y-56901000D01*
G37*
G36*
X42650442Y-55105518D02*
X42716627Y-55112037D01*
X42829853Y-55146384D01*
X42886467Y-55163557D01*
X43025087Y-55237652D01*
X43042991Y-55247222D01*
X43078729Y-55276552D01*
X43180186Y-55359814D01*
X43263448Y-55461271D01*
X43292778Y-55497009D01*
X43292779Y-55497011D01*
X43376443Y-55653533D01*
X43376443Y-55653534D01*
X43427963Y-55823373D01*
X43445359Y-56000000D01*
X43427963Y-56176627D01*
X43400768Y-56266277D01*
X43376443Y-56346467D01*
X43318538Y-56454798D01*
X43292778Y-56502991D01*
X43263448Y-56538729D01*
X43180186Y-56640186D01*
X43078729Y-56723448D01*
X43042991Y-56752778D01*
X43042989Y-56752779D01*
X42886467Y-56836443D01*
X42829853Y-56853616D01*
X42716627Y-56887963D01*
X42650443Y-56894481D01*
X42584260Y-56901000D01*
X42495740Y-56901000D01*
X42429557Y-56894481D01*
X42363373Y-56887963D01*
X42250147Y-56853616D01*
X42193533Y-56836443D01*
X42037011Y-56752779D01*
X42037009Y-56752778D01*
X42001271Y-56723448D01*
X41899814Y-56640186D01*
X41816552Y-56538729D01*
X41787222Y-56502991D01*
X41761462Y-56454798D01*
X41703557Y-56346467D01*
X41679232Y-56266277D01*
X41652037Y-56176627D01*
X41634641Y-56000000D01*
X41652037Y-55823373D01*
X41703557Y-55653534D01*
X41703557Y-55653533D01*
X41787221Y-55497011D01*
X41787222Y-55497009D01*
X41816552Y-55461271D01*
X41899814Y-55359814D01*
X42001271Y-55276552D01*
X42037009Y-55247222D01*
X42054913Y-55237652D01*
X42193533Y-55163557D01*
X42250147Y-55146384D01*
X42363373Y-55112037D01*
X42429558Y-55105518D01*
X42495740Y-55099000D01*
X42584260Y-55099000D01*
X42650442Y-55105518D01*
X42650442Y-55105518D01*
G37*
G36*
X45190442Y-55105518D02*
X45256627Y-55112037D01*
X45369853Y-55146384D01*
X45426467Y-55163557D01*
X45565087Y-55237652D01*
X45582991Y-55247222D01*
X45618729Y-55276552D01*
X45720186Y-55359814D01*
X45803448Y-55461271D01*
X45832778Y-55497009D01*
X45832779Y-55497011D01*
X45916443Y-55653533D01*
X45916443Y-55653534D01*
X45967963Y-55823373D01*
X45985359Y-56000000D01*
X45967963Y-56176627D01*
X45940768Y-56266277D01*
X45916443Y-56346467D01*
X45858538Y-56454798D01*
X45832778Y-56502991D01*
X45803448Y-56538729D01*
X45720186Y-56640186D01*
X45618729Y-56723448D01*
X45582991Y-56752778D01*
X45582989Y-56752779D01*
X45426467Y-56836443D01*
X45369853Y-56853616D01*
X45256627Y-56887963D01*
X45190443Y-56894481D01*
X45124260Y-56901000D01*
X45035740Y-56901000D01*
X44969557Y-56894481D01*
X44903373Y-56887963D01*
X44790147Y-56853616D01*
X44733533Y-56836443D01*
X44577011Y-56752779D01*
X44577009Y-56752778D01*
X44541271Y-56723448D01*
X44439814Y-56640186D01*
X44356552Y-56538729D01*
X44327222Y-56502991D01*
X44301462Y-56454798D01*
X44243557Y-56346467D01*
X44219232Y-56266277D01*
X44192037Y-56176627D01*
X44174641Y-56000000D01*
X44192037Y-55823373D01*
X44243557Y-55653534D01*
X44243557Y-55653533D01*
X44327221Y-55497011D01*
X44327222Y-55497009D01*
X44356552Y-55461271D01*
X44439814Y-55359814D01*
X44541271Y-55276552D01*
X44577009Y-55247222D01*
X44594913Y-55237652D01*
X44733533Y-55163557D01*
X44790147Y-55146384D01*
X44903373Y-55112037D01*
X44969558Y-55105518D01*
X45035740Y-55099000D01*
X45124260Y-55099000D01*
X45190442Y-55105518D01*
X45190442Y-55105518D01*
G37*
G36*
X47730442Y-55105518D02*
X47796627Y-55112037D01*
X47909853Y-55146384D01*
X47966467Y-55163557D01*
X48105087Y-55237652D01*
X48122991Y-55247222D01*
X48158729Y-55276552D01*
X48260186Y-55359814D01*
X48343448Y-55461271D01*
X48372778Y-55497009D01*
X48372779Y-55497011D01*
X48456443Y-55653533D01*
X48456443Y-55653534D01*
X48507963Y-55823373D01*
X48525359Y-56000000D01*
X48507963Y-56176627D01*
X48480768Y-56266277D01*
X48456443Y-56346467D01*
X48398538Y-56454798D01*
X48372778Y-56502991D01*
X48343448Y-56538729D01*
X48260186Y-56640186D01*
X48158729Y-56723448D01*
X48122991Y-56752778D01*
X48122989Y-56752779D01*
X47966467Y-56836443D01*
X47909853Y-56853616D01*
X47796627Y-56887963D01*
X47730443Y-56894481D01*
X47664260Y-56901000D01*
X47575740Y-56901000D01*
X47509557Y-56894481D01*
X47443373Y-56887963D01*
X47330147Y-56853616D01*
X47273533Y-56836443D01*
X47117011Y-56752779D01*
X47117009Y-56752778D01*
X47081271Y-56723448D01*
X46979814Y-56640186D01*
X46896552Y-56538729D01*
X46867222Y-56502991D01*
X46841462Y-56454798D01*
X46783557Y-56346467D01*
X46759232Y-56266277D01*
X46732037Y-56176627D01*
X46714641Y-56000000D01*
X46732037Y-55823373D01*
X46783557Y-55653534D01*
X46783557Y-55653533D01*
X46867221Y-55497011D01*
X46867222Y-55497009D01*
X46896552Y-55461271D01*
X46979814Y-55359814D01*
X47081271Y-55276552D01*
X47117009Y-55247222D01*
X47134913Y-55237652D01*
X47273533Y-55163557D01*
X47330147Y-55146384D01*
X47443373Y-55112037D01*
X47509558Y-55105518D01*
X47575740Y-55099000D01*
X47664260Y-55099000D01*
X47730442Y-55105518D01*
X47730442Y-55105518D01*
G37*
G36*
X52810442Y-55105518D02*
X52876627Y-55112037D01*
X52989853Y-55146384D01*
X53046467Y-55163557D01*
X53185087Y-55237652D01*
X53202991Y-55247222D01*
X53238729Y-55276552D01*
X53340186Y-55359814D01*
X53423448Y-55461271D01*
X53452778Y-55497009D01*
X53452779Y-55497011D01*
X53536443Y-55653533D01*
X53536443Y-55653534D01*
X53587963Y-55823373D01*
X53605359Y-56000000D01*
X53587963Y-56176627D01*
X53560768Y-56266277D01*
X53536443Y-56346467D01*
X53478538Y-56454798D01*
X53452778Y-56502991D01*
X53423448Y-56538729D01*
X53340186Y-56640186D01*
X53238729Y-56723448D01*
X53202991Y-56752778D01*
X53202989Y-56752779D01*
X53046467Y-56836443D01*
X52989853Y-56853616D01*
X52876627Y-56887963D01*
X52810443Y-56894481D01*
X52744260Y-56901000D01*
X52655740Y-56901000D01*
X52589557Y-56894481D01*
X52523373Y-56887963D01*
X52410147Y-56853616D01*
X52353533Y-56836443D01*
X52197011Y-56752779D01*
X52197009Y-56752778D01*
X52161271Y-56723448D01*
X52059814Y-56640186D01*
X51976552Y-56538729D01*
X51947222Y-56502991D01*
X51921462Y-56454798D01*
X51863557Y-56346467D01*
X51839232Y-56266277D01*
X51812037Y-56176627D01*
X51794641Y-56000000D01*
X51812037Y-55823373D01*
X51863557Y-55653534D01*
X51863557Y-55653533D01*
X51947221Y-55497011D01*
X51947222Y-55497009D01*
X51976552Y-55461271D01*
X52059814Y-55359814D01*
X52161271Y-55276552D01*
X52197009Y-55247222D01*
X52214913Y-55237652D01*
X52353533Y-55163557D01*
X52410147Y-55146384D01*
X52523373Y-55112037D01*
X52589558Y-55105518D01*
X52655740Y-55099000D01*
X52744260Y-55099000D01*
X52810442Y-55105518D01*
X52810442Y-55105518D01*
G37*
G36*
X28960721Y-53470174D02*
X29060995Y-53511709D01*
X29151245Y-53572012D01*
X29227988Y-53648755D01*
X29288291Y-53739005D01*
X29329826Y-53839279D01*
X29351000Y-53945730D01*
X29351000Y-54054270D01*
X29329826Y-54160721D01*
X29288291Y-54260995D01*
X29227988Y-54351245D01*
X29151245Y-54427988D01*
X29060995Y-54488291D01*
X28960721Y-54529826D01*
X28854270Y-54551000D01*
X28745730Y-54551000D01*
X28639279Y-54529826D01*
X28539005Y-54488291D01*
X28448755Y-54427988D01*
X28372012Y-54351245D01*
X28311709Y-54260995D01*
X28270174Y-54160721D01*
X28249000Y-54054270D01*
X28249000Y-53945730D01*
X28270174Y-53839279D01*
X28311709Y-53739005D01*
X28372012Y-53648755D01*
X28448755Y-53572012D01*
X28539005Y-53511709D01*
X28639279Y-53470174D01*
X28745730Y-53449000D01*
X28854270Y-53449000D01*
X28960721Y-53470174D01*
X28960721Y-53470174D01*
G37*
G36*
X33360721Y-53470174D02*
X33460995Y-53511709D01*
X33551245Y-53572012D01*
X33627988Y-53648755D01*
X33688291Y-53739005D01*
X33729826Y-53839279D01*
X33751000Y-53945730D01*
X33751000Y-54054270D01*
X33729826Y-54160721D01*
X33688291Y-54260995D01*
X33627988Y-54351245D01*
X33551245Y-54427988D01*
X33460995Y-54488291D01*
X33360721Y-54529826D01*
X33254270Y-54551000D01*
X33145730Y-54551000D01*
X33039279Y-54529826D01*
X32939005Y-54488291D01*
X32848755Y-54427988D01*
X32772012Y-54351245D01*
X32711709Y-54260995D01*
X32670174Y-54160721D01*
X32649000Y-54054270D01*
X32649000Y-53945730D01*
X32670174Y-53839279D01*
X32711709Y-53739005D01*
X32772012Y-53648755D01*
X32848755Y-53572012D01*
X32939005Y-53511709D01*
X33039279Y-53470174D01*
X33145730Y-53449000D01*
X33254270Y-53449000D01*
X33360721Y-53470174D01*
X33360721Y-53470174D01*
G37*
G36*
X49438677Y-51753465D02*
X49476364Y-51764898D01*
X49511103Y-51783466D01*
X49541548Y-51808452D01*
X49566534Y-51838897D01*
X49585102Y-51873636D01*
X49596535Y-51911323D01*
X49601000Y-51956661D01*
X49601000Y-53043339D01*
X49596535Y-53088677D01*
X49585102Y-53126364D01*
X49566534Y-53161103D01*
X49541548Y-53191548D01*
X49511103Y-53216534D01*
X49476364Y-53235102D01*
X49438677Y-53246535D01*
X49393339Y-53251000D01*
X48556661Y-53251000D01*
X48511323Y-53246535D01*
X48473636Y-53235102D01*
X48438897Y-53216534D01*
X48408452Y-53191548D01*
X48383466Y-53161103D01*
X48364898Y-53126364D01*
X48353465Y-53088677D01*
X48349000Y-53043339D01*
X48349000Y-51956661D01*
X48353465Y-51911323D01*
X48364898Y-51873636D01*
X48383466Y-51838897D01*
X48408452Y-51808452D01*
X48438897Y-51783466D01*
X48473636Y-51764898D01*
X48511323Y-51753465D01*
X48556661Y-51749000D01*
X49393339Y-51749000D01*
X49438677Y-51753465D01*
X49438677Y-51753465D01*
G37*
G36*
X51488677Y-51753465D02*
X51526364Y-51764898D01*
X51561103Y-51783466D01*
X51591548Y-51808452D01*
X51616534Y-51838897D01*
X51635102Y-51873636D01*
X51646535Y-51911323D01*
X51651000Y-51956661D01*
X51651000Y-53043339D01*
X51646535Y-53088677D01*
X51635102Y-53126364D01*
X51616534Y-53161103D01*
X51591548Y-53191548D01*
X51561103Y-53216534D01*
X51526364Y-53235102D01*
X51488677Y-53246535D01*
X51443339Y-53251000D01*
X50606661Y-53251000D01*
X50561323Y-53246535D01*
X50523636Y-53235102D01*
X50488897Y-53216534D01*
X50458452Y-53191548D01*
X50433466Y-53161103D01*
X50414898Y-53126364D01*
X50403465Y-53088677D01*
X50399000Y-53043339D01*
X50399000Y-51956661D01*
X50403465Y-51911323D01*
X50414898Y-51873636D01*
X50433466Y-51838897D01*
X50458452Y-51808452D01*
X50488897Y-51783466D01*
X50523636Y-51764898D01*
X50561323Y-51753465D01*
X50606661Y-51749000D01*
X51443339Y-51749000D01*
X51488677Y-51753465D01*
X51488677Y-51753465D01*
G37*
G36*
X41488677Y-51253465D02*
X41526364Y-51264898D01*
X41561103Y-51283466D01*
X41591548Y-51308452D01*
X41616534Y-51338897D01*
X41635102Y-51373636D01*
X41646535Y-51411323D01*
X41651000Y-51456661D01*
X41651000Y-52543339D01*
X41646535Y-52588677D01*
X41635102Y-52626364D01*
X41616534Y-52661103D01*
X41591548Y-52691548D01*
X41561103Y-52716534D01*
X41526364Y-52735102D01*
X41488677Y-52746535D01*
X41443339Y-52751000D01*
X40606661Y-52751000D01*
X40561323Y-52746535D01*
X40523636Y-52735102D01*
X40488897Y-52716534D01*
X40458452Y-52691548D01*
X40433466Y-52661103D01*
X40414898Y-52626364D01*
X40403465Y-52588677D01*
X40399000Y-52543339D01*
X40399000Y-51456661D01*
X40403465Y-51411323D01*
X40414898Y-51373636D01*
X40433466Y-51338897D01*
X40458452Y-51308452D01*
X40488897Y-51283466D01*
X40523636Y-51264898D01*
X40561323Y-51253465D01*
X40606661Y-51249000D01*
X41443339Y-51249000D01*
X41488677Y-51253465D01*
X41488677Y-51253465D01*
G37*
G36*
X39438677Y-51253465D02*
X39476364Y-51264898D01*
X39511103Y-51283466D01*
X39541548Y-51308452D01*
X39566534Y-51338897D01*
X39585102Y-51373636D01*
X39596535Y-51411323D01*
X39601000Y-51456661D01*
X39601000Y-52543339D01*
X39596535Y-52588677D01*
X39585102Y-52626364D01*
X39566534Y-52661103D01*
X39541548Y-52691548D01*
X39511103Y-52716534D01*
X39476364Y-52735102D01*
X39438677Y-52746535D01*
X39393339Y-52751000D01*
X38556661Y-52751000D01*
X38511323Y-52746535D01*
X38473636Y-52735102D01*
X38438897Y-52716534D01*
X38408452Y-52691548D01*
X38383466Y-52661103D01*
X38364898Y-52626364D01*
X38353465Y-52588677D01*
X38349000Y-52543339D01*
X38349000Y-51456661D01*
X38353465Y-51411323D01*
X38364898Y-51373636D01*
X38383466Y-51338897D01*
X38408452Y-51308452D01*
X38438897Y-51283466D01*
X38473636Y-51264898D01*
X38511323Y-51253465D01*
X38556661Y-51249000D01*
X39393339Y-51249000D01*
X39438677Y-51253465D01*
X39438677Y-51253465D01*
G37*
G36*
X32901000Y-52351000D02*
X29099000Y-52351000D01*
X29099000Y-50249000D01*
X32901000Y-50249000D01*
X32901000Y-52351000D01*
X32901000Y-52351000D01*
G37*
G36*
X36501000Y-52301000D02*
X34399000Y-52301000D01*
X34399000Y-50499000D01*
X36501000Y-50499000D01*
X36501000Y-52301000D01*
X36501000Y-52301000D01*
G37*
G36*
X27601000Y-52301000D02*
X25499000Y-52301000D01*
X25499000Y-50499000D01*
X27601000Y-50499000D01*
X27601000Y-52301000D01*
X27601000Y-52301000D01*
G37*
G36*
X56051000Y-51426000D02*
X53949000Y-51426000D01*
X53949000Y-43449000D01*
X56051000Y-43449000D01*
X56051000Y-51426000D01*
X56051000Y-51426000D01*
G37*
G36*
X39438677Y-48253465D02*
X39476364Y-48264898D01*
X39511103Y-48283466D01*
X39541548Y-48308452D01*
X39566534Y-48338897D01*
X39585102Y-48373636D01*
X39596535Y-48411323D01*
X39601000Y-48456661D01*
X39601000Y-49543339D01*
X39596535Y-49588677D01*
X39585102Y-49626364D01*
X39566534Y-49661103D01*
X39541548Y-49691548D01*
X39511103Y-49716534D01*
X39476364Y-49735102D01*
X39438677Y-49746535D01*
X39393339Y-49751000D01*
X38556661Y-49751000D01*
X38511323Y-49746535D01*
X38473636Y-49735102D01*
X38438897Y-49716534D01*
X38408452Y-49691548D01*
X38383466Y-49661103D01*
X38364898Y-49626364D01*
X38353465Y-49588677D01*
X38349000Y-49543339D01*
X38349000Y-48456661D01*
X38353465Y-48411323D01*
X38364898Y-48373636D01*
X38383466Y-48338897D01*
X38408452Y-48308452D01*
X38438897Y-48283466D01*
X38473636Y-48264898D01*
X38511323Y-48253465D01*
X38556661Y-48249000D01*
X39393339Y-48249000D01*
X39438677Y-48253465D01*
X39438677Y-48253465D01*
G37*
G36*
X41488677Y-48253465D02*
X41526364Y-48264898D01*
X41561103Y-48283466D01*
X41591548Y-48308452D01*
X41616534Y-48338897D01*
X41635102Y-48373636D01*
X41646535Y-48411323D01*
X41651000Y-48456661D01*
X41651000Y-49543339D01*
X41646535Y-49588677D01*
X41635102Y-49626364D01*
X41616534Y-49661103D01*
X41591548Y-49691548D01*
X41561103Y-49716534D01*
X41526364Y-49735102D01*
X41488677Y-49746535D01*
X41443339Y-49751000D01*
X40606661Y-49751000D01*
X40561323Y-49746535D01*
X40523636Y-49735102D01*
X40488897Y-49716534D01*
X40458452Y-49691548D01*
X40433466Y-49661103D01*
X40414898Y-49626364D01*
X40403465Y-49588677D01*
X40399000Y-49543339D01*
X40399000Y-48456661D01*
X40403465Y-48411323D01*
X40414898Y-48373636D01*
X40433466Y-48338897D01*
X40458452Y-48308452D01*
X40488897Y-48283466D01*
X40523636Y-48264898D01*
X40561323Y-48253465D01*
X40606661Y-48249000D01*
X41443339Y-48249000D01*
X41488677Y-48253465D01*
X41488677Y-48253465D01*
G37*
G36*
X46488677Y-48253465D02*
X46526364Y-48264898D01*
X46561103Y-48283466D01*
X46591548Y-48308452D01*
X46616534Y-48338897D01*
X46635102Y-48373636D01*
X46646535Y-48411323D01*
X46651000Y-48456661D01*
X46651000Y-49543339D01*
X46646535Y-49588677D01*
X46635102Y-49626364D01*
X46616534Y-49661103D01*
X46591548Y-49691548D01*
X46561103Y-49716534D01*
X46526364Y-49735102D01*
X46488677Y-49746535D01*
X46443339Y-49751000D01*
X45606661Y-49751000D01*
X45561323Y-49746535D01*
X45523636Y-49735102D01*
X45488897Y-49716534D01*
X45458452Y-49691548D01*
X45433466Y-49661103D01*
X45414898Y-49626364D01*
X45403465Y-49588677D01*
X45399000Y-49543339D01*
X45399000Y-48456661D01*
X45403465Y-48411323D01*
X45414898Y-48373636D01*
X45433466Y-48338897D01*
X45458452Y-48308452D01*
X45488897Y-48283466D01*
X45523636Y-48264898D01*
X45561323Y-48253465D01*
X45606661Y-48249000D01*
X46443339Y-48249000D01*
X46488677Y-48253465D01*
X46488677Y-48253465D01*
G37*
G36*
X44438677Y-48253465D02*
X44476364Y-48264898D01*
X44511103Y-48283466D01*
X44541548Y-48308452D01*
X44566534Y-48338897D01*
X44585102Y-48373636D01*
X44596535Y-48411323D01*
X44601000Y-48456661D01*
X44601000Y-49543339D01*
X44596535Y-49588677D01*
X44585102Y-49626364D01*
X44566534Y-49661103D01*
X44541548Y-49691548D01*
X44511103Y-49716534D01*
X44476364Y-49735102D01*
X44438677Y-49746535D01*
X44393339Y-49751000D01*
X43556661Y-49751000D01*
X43511323Y-49746535D01*
X43473636Y-49735102D01*
X43438897Y-49716534D01*
X43408452Y-49691548D01*
X43383466Y-49661103D01*
X43364898Y-49626364D01*
X43353465Y-49588677D01*
X43349000Y-49543339D01*
X43349000Y-48456661D01*
X43353465Y-48411323D01*
X43364898Y-48373636D01*
X43383466Y-48338897D01*
X43408452Y-48308452D01*
X43438897Y-48283466D01*
X43473636Y-48264898D01*
X43511323Y-48253465D01*
X43556661Y-48249000D01*
X44393339Y-48249000D01*
X44438677Y-48253465D01*
X44438677Y-48253465D01*
G37*
G36*
X43926000Y-46251000D02*
X36074000Y-46251000D01*
X36074000Y-45149000D01*
X43926000Y-45149000D01*
X43926000Y-46251000D01*
X43926000Y-46251000D01*
G37*
G36*
X25488677Y-44253465D02*
X25526364Y-44264898D01*
X25561103Y-44283466D01*
X25591548Y-44308452D01*
X25616534Y-44338897D01*
X25635102Y-44373636D01*
X25646535Y-44411323D01*
X25651000Y-44456661D01*
X25651000Y-45543339D01*
X25646535Y-45588677D01*
X25635102Y-45626364D01*
X25616534Y-45661103D01*
X25591548Y-45691548D01*
X25561103Y-45716534D01*
X25526364Y-45735102D01*
X25488677Y-45746535D01*
X25443339Y-45751000D01*
X24606661Y-45751000D01*
X24561323Y-45746535D01*
X24523636Y-45735102D01*
X24488897Y-45716534D01*
X24458452Y-45691548D01*
X24433466Y-45661103D01*
X24414898Y-45626364D01*
X24403465Y-45588677D01*
X24399000Y-45543339D01*
X24399000Y-44456661D01*
X24403465Y-44411323D01*
X24414898Y-44373636D01*
X24433466Y-44338897D01*
X24458452Y-44308452D01*
X24488897Y-44283466D01*
X24523636Y-44264898D01*
X24561323Y-44253465D01*
X24606661Y-44249000D01*
X25443339Y-44249000D01*
X25488677Y-44253465D01*
X25488677Y-44253465D01*
G37*
G36*
X23438677Y-44253465D02*
X23476364Y-44264898D01*
X23511103Y-44283466D01*
X23541548Y-44308452D01*
X23566534Y-44338897D01*
X23585102Y-44373636D01*
X23596535Y-44411323D01*
X23601000Y-44456661D01*
X23601000Y-45543339D01*
X23596535Y-45588677D01*
X23585102Y-45626364D01*
X23566534Y-45661103D01*
X23541548Y-45691548D01*
X23511103Y-45716534D01*
X23476364Y-45735102D01*
X23438677Y-45746535D01*
X23393339Y-45751000D01*
X22556661Y-45751000D01*
X22511323Y-45746535D01*
X22473636Y-45735102D01*
X22438897Y-45716534D01*
X22408452Y-45691548D01*
X22383466Y-45661103D01*
X22364898Y-45626364D01*
X22353465Y-45588677D01*
X22349000Y-45543339D01*
X22349000Y-44456661D01*
X22353465Y-44411323D01*
X22364898Y-44373636D01*
X22383466Y-44338897D01*
X22408452Y-44308452D01*
X22438897Y-44283466D01*
X22473636Y-44264898D01*
X22511323Y-44253465D01*
X22556661Y-44249000D01*
X23393339Y-44249000D01*
X23438677Y-44253465D01*
X23438677Y-44253465D01*
G37*
G36*
X51588677Y-44403465D02*
X51626364Y-44414898D01*
X51661103Y-44433466D01*
X51691548Y-44458452D01*
X51716534Y-44488897D01*
X51735102Y-44523636D01*
X51746535Y-44561323D01*
X51751000Y-44606661D01*
X51751000Y-45443339D01*
X51746535Y-45488677D01*
X51735102Y-45526364D01*
X51716534Y-45561103D01*
X51691548Y-45591548D01*
X51661103Y-45616534D01*
X51626364Y-45635102D01*
X51588677Y-45646535D01*
X51543339Y-45651000D01*
X50456661Y-45651000D01*
X50411323Y-45646535D01*
X50373636Y-45635102D01*
X50338897Y-45616534D01*
X50308452Y-45591548D01*
X50283466Y-45561103D01*
X50264898Y-45526364D01*
X50253465Y-45488677D01*
X50249000Y-45443339D01*
X50249000Y-44606661D01*
X50253465Y-44561323D01*
X50264898Y-44523636D01*
X50283466Y-44488897D01*
X50308452Y-44458452D01*
X50338897Y-44433466D01*
X50373636Y-44414898D01*
X50411323Y-44403465D01*
X50456661Y-44399000D01*
X51543339Y-44399000D01*
X51588677Y-44403465D01*
X51588677Y-44403465D01*
G37*
G36*
X31488677Y-42753465D02*
X31526364Y-42764898D01*
X31561103Y-42783466D01*
X31591548Y-42808452D01*
X31616534Y-42838897D01*
X31635102Y-42873636D01*
X31646535Y-42911323D01*
X31651000Y-42956661D01*
X31651000Y-44043339D01*
X31646535Y-44088677D01*
X31635102Y-44126364D01*
X31616534Y-44161103D01*
X31591548Y-44191548D01*
X31561103Y-44216534D01*
X31526364Y-44235102D01*
X31488677Y-44246535D01*
X31443339Y-44251000D01*
X30606661Y-44251000D01*
X30561323Y-44246535D01*
X30523636Y-44235102D01*
X30488897Y-44216534D01*
X30458452Y-44191548D01*
X30433466Y-44161103D01*
X30414898Y-44126364D01*
X30403465Y-44088677D01*
X30399000Y-44043339D01*
X30399000Y-42956661D01*
X30403465Y-42911323D01*
X30414898Y-42873636D01*
X30433466Y-42838897D01*
X30458452Y-42808452D01*
X30488897Y-42783466D01*
X30523636Y-42764898D01*
X30561323Y-42753465D01*
X30606661Y-42749000D01*
X31443339Y-42749000D01*
X31488677Y-42753465D01*
X31488677Y-42753465D01*
G37*
G36*
X29438677Y-42753465D02*
X29476364Y-42764898D01*
X29511103Y-42783466D01*
X29541548Y-42808452D01*
X29566534Y-42838897D01*
X29585102Y-42873636D01*
X29596535Y-42911323D01*
X29601000Y-42956661D01*
X29601000Y-44043339D01*
X29596535Y-44088677D01*
X29585102Y-44126364D01*
X29566534Y-44161103D01*
X29541548Y-44191548D01*
X29511103Y-44216534D01*
X29476364Y-44235102D01*
X29438677Y-44246535D01*
X29393339Y-44251000D01*
X28556661Y-44251000D01*
X28511323Y-44246535D01*
X28473636Y-44235102D01*
X28438897Y-44216534D01*
X28408452Y-44191548D01*
X28383466Y-44161103D01*
X28364898Y-44126364D01*
X28353465Y-44088677D01*
X28349000Y-44043339D01*
X28349000Y-42956661D01*
X28353465Y-42911323D01*
X28364898Y-42873636D01*
X28383466Y-42838897D01*
X28408452Y-42808452D01*
X28438897Y-42783466D01*
X28473636Y-42764898D01*
X28511323Y-42753465D01*
X28556661Y-42749000D01*
X29393339Y-42749000D01*
X29438677Y-42753465D01*
X29438677Y-42753465D01*
G37*
G36*
X46251000Y-43926000D02*
X45149000Y-43926000D01*
X45149000Y-36074000D01*
X46251000Y-36074000D01*
X46251000Y-43926000D01*
X46251000Y-43926000D01*
G37*
G36*
X34851000Y-43926000D02*
X33749000Y-43926000D01*
X33749000Y-36074000D01*
X34851000Y-36074000D01*
X34851000Y-43926000D01*
X34851000Y-43926000D01*
G37*
G36*
X51588677Y-42353465D02*
X51626364Y-42364898D01*
X51661103Y-42383466D01*
X51691548Y-42408452D01*
X51716534Y-42438897D01*
X51735102Y-42473636D01*
X51746535Y-42511323D01*
X51751000Y-42556661D01*
X51751000Y-43393339D01*
X51746535Y-43438677D01*
X51735102Y-43476364D01*
X51716534Y-43511103D01*
X51691548Y-43541548D01*
X51661103Y-43566534D01*
X51626364Y-43585102D01*
X51588677Y-43596535D01*
X51543339Y-43601000D01*
X50456661Y-43601000D01*
X50411323Y-43596535D01*
X50373636Y-43585102D01*
X50338897Y-43566534D01*
X50308452Y-43541548D01*
X50283466Y-43511103D01*
X50264898Y-43476364D01*
X50253465Y-43438677D01*
X50249000Y-43393339D01*
X50249000Y-42556661D01*
X50253465Y-42511323D01*
X50264898Y-42473636D01*
X50283466Y-42438897D01*
X50308452Y-42408452D01*
X50338897Y-42383466D01*
X50373636Y-42364898D01*
X50411323Y-42353465D01*
X50456661Y-42349000D01*
X51543339Y-42349000D01*
X51588677Y-42353465D01*
X51588677Y-42353465D01*
G37*
G36*
X51588677Y-39403465D02*
X51626364Y-39414898D01*
X51661103Y-39433466D01*
X51691548Y-39458452D01*
X51716534Y-39488897D01*
X51735102Y-39523636D01*
X51746535Y-39561323D01*
X51751000Y-39606661D01*
X51751000Y-40443339D01*
X51746535Y-40488677D01*
X51735102Y-40526364D01*
X51716534Y-40561103D01*
X51691548Y-40591548D01*
X51661103Y-40616534D01*
X51626364Y-40635102D01*
X51588677Y-40646535D01*
X51543339Y-40651000D01*
X50456661Y-40651000D01*
X50411323Y-40646535D01*
X50373636Y-40635102D01*
X50338897Y-40616534D01*
X50308452Y-40591548D01*
X50283466Y-40561103D01*
X50264898Y-40526364D01*
X50253465Y-40488677D01*
X50249000Y-40443339D01*
X50249000Y-39606661D01*
X50253465Y-39561323D01*
X50264898Y-39523636D01*
X50283466Y-39488897D01*
X50308452Y-39458452D01*
X50338897Y-39433466D01*
X50373636Y-39414898D01*
X50411323Y-39403465D01*
X50456661Y-39399000D01*
X51543339Y-39399000D01*
X51588677Y-39403465D01*
X51588677Y-39403465D01*
G37*
G36*
X56051000Y-39551000D02*
X53949000Y-39551000D01*
X53949000Y-31574000D01*
X56051000Y-31574000D01*
X56051000Y-39551000D01*
X56051000Y-39551000D01*
G37*
G36*
X23248228Y-37181703D02*
X23403100Y-37245853D01*
X23542481Y-37338985D01*
X23661015Y-37457519D01*
X23754147Y-37596900D01*
X23818297Y-37751772D01*
X23851000Y-37916184D01*
X23851000Y-38083816D01*
X23818297Y-38248228D01*
X23754147Y-38403100D01*
X23661015Y-38542481D01*
X23542481Y-38661015D01*
X23403100Y-38754147D01*
X23248228Y-38818297D01*
X23083816Y-38851000D01*
X22916184Y-38851000D01*
X22751772Y-38818297D01*
X22596900Y-38754147D01*
X22457519Y-38661015D01*
X22338985Y-38542481D01*
X22245853Y-38403100D01*
X22181703Y-38248228D01*
X22149000Y-38083816D01*
X22149000Y-37916184D01*
X22181703Y-37751772D01*
X22245853Y-37596900D01*
X22338985Y-37457519D01*
X22457519Y-37338985D01*
X22596900Y-37245853D01*
X22751772Y-37181703D01*
X22916184Y-37149000D01*
X23083816Y-37149000D01*
X23248228Y-37181703D01*
X23248228Y-37181703D01*
G37*
G36*
X25851000Y-38851000D02*
X24149000Y-38851000D01*
X24149000Y-37149000D01*
X25851000Y-37149000D01*
X25851000Y-38851000D01*
X25851000Y-38851000D01*
G37*
G36*
X29588677Y-37403465D02*
X29626364Y-37414898D01*
X29661103Y-37433466D01*
X29691548Y-37458452D01*
X29716534Y-37488897D01*
X29735102Y-37523636D01*
X29746535Y-37561323D01*
X29751000Y-37606661D01*
X29751000Y-38443339D01*
X29746535Y-38488677D01*
X29735102Y-38526364D01*
X29716534Y-38561103D01*
X29691548Y-38591548D01*
X29661103Y-38616534D01*
X29626364Y-38635102D01*
X29588677Y-38646535D01*
X29543339Y-38651000D01*
X28456661Y-38651000D01*
X28411323Y-38646535D01*
X28373636Y-38635102D01*
X28338897Y-38616534D01*
X28308452Y-38591548D01*
X28283466Y-38561103D01*
X28264898Y-38526364D01*
X28253465Y-38488677D01*
X28249000Y-38443339D01*
X28249000Y-37606661D01*
X28253465Y-37561323D01*
X28264898Y-37523636D01*
X28283466Y-37488897D01*
X28308452Y-37458452D01*
X28338897Y-37433466D01*
X28373636Y-37414898D01*
X28411323Y-37403465D01*
X28456661Y-37399000D01*
X29543339Y-37399000D01*
X29588677Y-37403465D01*
X29588677Y-37403465D01*
G37*
G36*
X51588677Y-37353465D02*
X51626364Y-37364898D01*
X51661103Y-37383466D01*
X51691548Y-37408452D01*
X51716534Y-37438897D01*
X51735102Y-37473636D01*
X51746535Y-37511323D01*
X51751000Y-37556661D01*
X51751000Y-38393339D01*
X51746535Y-38438677D01*
X51735102Y-38476364D01*
X51716534Y-38511103D01*
X51691548Y-38541548D01*
X51661103Y-38566534D01*
X51626364Y-38585102D01*
X51588677Y-38596535D01*
X51543339Y-38601000D01*
X50456661Y-38601000D01*
X50411323Y-38596535D01*
X50373636Y-38585102D01*
X50338897Y-38566534D01*
X50308452Y-38541548D01*
X50283466Y-38511103D01*
X50264898Y-38476364D01*
X50253465Y-38438677D01*
X50249000Y-38393339D01*
X50249000Y-37556661D01*
X50253465Y-37511323D01*
X50264898Y-37473636D01*
X50283466Y-37438897D01*
X50308452Y-37408452D01*
X50338897Y-37383466D01*
X50373636Y-37364898D01*
X50411323Y-37353465D01*
X50456661Y-37349000D01*
X51543339Y-37349000D01*
X51588677Y-37353465D01*
X51588677Y-37353465D01*
G37*
G36*
X29588677Y-35353465D02*
X29626364Y-35364898D01*
X29661103Y-35383466D01*
X29691548Y-35408452D01*
X29716534Y-35438897D01*
X29735102Y-35473636D01*
X29746535Y-35511323D01*
X29751000Y-35556661D01*
X29751000Y-36393339D01*
X29746535Y-36438677D01*
X29735102Y-36476364D01*
X29716534Y-36511103D01*
X29691548Y-36541548D01*
X29661103Y-36566534D01*
X29626364Y-36585102D01*
X29588677Y-36596535D01*
X29543339Y-36601000D01*
X28456661Y-36601000D01*
X28411323Y-36596535D01*
X28373636Y-36585102D01*
X28338897Y-36566534D01*
X28308452Y-36541548D01*
X28283466Y-36511103D01*
X28264898Y-36476364D01*
X28253465Y-36438677D01*
X28249000Y-36393339D01*
X28249000Y-35556661D01*
X28253465Y-35511323D01*
X28264898Y-35473636D01*
X28283466Y-35438897D01*
X28308452Y-35408452D01*
X28338897Y-35383466D01*
X28373636Y-35364898D01*
X28411323Y-35353465D01*
X28456661Y-35349000D01*
X29543339Y-35349000D01*
X29588677Y-35353465D01*
X29588677Y-35353465D01*
G37*
G36*
X49438677Y-34253465D02*
X49476364Y-34264898D01*
X49511103Y-34283466D01*
X49541548Y-34308452D01*
X49566534Y-34338897D01*
X49585102Y-34373636D01*
X49596535Y-34411323D01*
X49601000Y-34456661D01*
X49601000Y-35543339D01*
X49596535Y-35588677D01*
X49585102Y-35626364D01*
X49566534Y-35661103D01*
X49541548Y-35691548D01*
X49511103Y-35716534D01*
X49476364Y-35735102D01*
X49438677Y-35746535D01*
X49393339Y-35751000D01*
X48556661Y-35751000D01*
X48511323Y-35746535D01*
X48473636Y-35735102D01*
X48438897Y-35716534D01*
X48408452Y-35691548D01*
X48383466Y-35661103D01*
X48364898Y-35626364D01*
X48353465Y-35588677D01*
X48349000Y-35543339D01*
X48349000Y-34456661D01*
X48353465Y-34411323D01*
X48364898Y-34373636D01*
X48383466Y-34338897D01*
X48408452Y-34308452D01*
X48438897Y-34283466D01*
X48473636Y-34264898D01*
X48511323Y-34253465D01*
X48556661Y-34249000D01*
X49393339Y-34249000D01*
X49438677Y-34253465D01*
X49438677Y-34253465D01*
G37*
G36*
X51488677Y-34253465D02*
X51526364Y-34264898D01*
X51561103Y-34283466D01*
X51591548Y-34308452D01*
X51616534Y-34338897D01*
X51635102Y-34373636D01*
X51646535Y-34411323D01*
X51651000Y-34456661D01*
X51651000Y-35543339D01*
X51646535Y-35588677D01*
X51635102Y-35626364D01*
X51616534Y-35661103D01*
X51591548Y-35691548D01*
X51561103Y-35716534D01*
X51526364Y-35735102D01*
X51488677Y-35746535D01*
X51443339Y-35751000D01*
X50606661Y-35751000D01*
X50561323Y-35746535D01*
X50523636Y-35735102D01*
X50488897Y-35716534D01*
X50458452Y-35691548D01*
X50433466Y-35661103D01*
X50414898Y-35626364D01*
X50403465Y-35588677D01*
X50399000Y-35543339D01*
X50399000Y-34456661D01*
X50403465Y-34411323D01*
X50414898Y-34373636D01*
X50433466Y-34338897D01*
X50458452Y-34308452D01*
X50488897Y-34283466D01*
X50523636Y-34264898D01*
X50561323Y-34253465D01*
X50606661Y-34249000D01*
X51443339Y-34249000D01*
X51488677Y-34253465D01*
X51488677Y-34253465D01*
G37*
G36*
X43926000Y-34851000D02*
X36074000Y-34851000D01*
X36074000Y-33749000D01*
X43926000Y-33749000D01*
X43926000Y-34851000D01*
X43926000Y-34851000D01*
G37*
G36*
X30201000Y-33101000D02*
X28099000Y-33101000D01*
X28099000Y-31499000D01*
X30201000Y-31499000D01*
X30201000Y-33101000D01*
X30201000Y-33101000D01*
G37*
G36*
X49438677Y-31253465D02*
X49476364Y-31264898D01*
X49511103Y-31283466D01*
X49541548Y-31308452D01*
X49566534Y-31338897D01*
X49585102Y-31373636D01*
X49596535Y-31411323D01*
X49601000Y-31456661D01*
X49601000Y-32543339D01*
X49596535Y-32588677D01*
X49585102Y-32626364D01*
X49566534Y-32661103D01*
X49541548Y-32691548D01*
X49511103Y-32716534D01*
X49476364Y-32735102D01*
X49438677Y-32746535D01*
X49393339Y-32751000D01*
X48556661Y-32751000D01*
X48511323Y-32746535D01*
X48473636Y-32735102D01*
X48438897Y-32716534D01*
X48408452Y-32691548D01*
X48383466Y-32661103D01*
X48364898Y-32626364D01*
X48353465Y-32588677D01*
X48349000Y-32543339D01*
X48349000Y-31456661D01*
X48353465Y-31411323D01*
X48364898Y-31373636D01*
X48383466Y-31338897D01*
X48408452Y-31308452D01*
X48438897Y-31283466D01*
X48473636Y-31264898D01*
X48511323Y-31253465D01*
X48556661Y-31249000D01*
X49393339Y-31249000D01*
X49438677Y-31253465D01*
X49438677Y-31253465D01*
G37*
G36*
X51488677Y-31253465D02*
X51526364Y-31264898D01*
X51561103Y-31283466D01*
X51591548Y-31308452D01*
X51616534Y-31338897D01*
X51635102Y-31373636D01*
X51646535Y-31411323D01*
X51651000Y-31456661D01*
X51651000Y-32543339D01*
X51646535Y-32588677D01*
X51635102Y-32626364D01*
X51616534Y-32661103D01*
X51591548Y-32691548D01*
X51561103Y-32716534D01*
X51526364Y-32735102D01*
X51488677Y-32746535D01*
X51443339Y-32751000D01*
X50606661Y-32751000D01*
X50561323Y-32746535D01*
X50523636Y-32735102D01*
X50488897Y-32716534D01*
X50458452Y-32691548D01*
X50433466Y-32661103D01*
X50414898Y-32626364D01*
X50403465Y-32588677D01*
X50399000Y-32543339D01*
X50399000Y-31456661D01*
X50403465Y-31411323D01*
X50414898Y-31373636D01*
X50433466Y-31338897D01*
X50458452Y-31308452D01*
X50488897Y-31283466D01*
X50523636Y-31264898D01*
X50561323Y-31253465D01*
X50606661Y-31249000D01*
X51443339Y-31249000D01*
X51488677Y-31253465D01*
X51488677Y-31253465D01*
G37*
G36*
X23901000Y-31951000D02*
X21799000Y-31951000D01*
X21799000Y-28049000D01*
X23901000Y-28049000D01*
X23901000Y-31951000D01*
X23901000Y-31951000D01*
G37*
G36*
X35488677Y-30253465D02*
X35526364Y-30264898D01*
X35561103Y-30283466D01*
X35591548Y-30308452D01*
X35616534Y-30338897D01*
X35635102Y-30373636D01*
X35646535Y-30411323D01*
X35651000Y-30456661D01*
X35651000Y-31543339D01*
X35646535Y-31588677D01*
X35635102Y-31626364D01*
X35616534Y-31661103D01*
X35591548Y-31691548D01*
X35561103Y-31716534D01*
X35526364Y-31735102D01*
X35488677Y-31746535D01*
X35443339Y-31751000D01*
X34606661Y-31751000D01*
X34561323Y-31746535D01*
X34523636Y-31735102D01*
X34488897Y-31716534D01*
X34458452Y-31691548D01*
X34433466Y-31661103D01*
X34414898Y-31626364D01*
X34403465Y-31588677D01*
X34399000Y-31543339D01*
X34399000Y-30456661D01*
X34403465Y-30411323D01*
X34414898Y-30373636D01*
X34433466Y-30338897D01*
X34458452Y-30308452D01*
X34488897Y-30283466D01*
X34523636Y-30264898D01*
X34561323Y-30253465D01*
X34606661Y-30249000D01*
X35443339Y-30249000D01*
X35488677Y-30253465D01*
X35488677Y-30253465D01*
G37*
G36*
X33438677Y-30253465D02*
X33476364Y-30264898D01*
X33511103Y-30283466D01*
X33541548Y-30308452D01*
X33566534Y-30338897D01*
X33585102Y-30373636D01*
X33596535Y-30411323D01*
X33601000Y-30456661D01*
X33601000Y-31543339D01*
X33596535Y-31588677D01*
X33585102Y-31626364D01*
X33566534Y-31661103D01*
X33541548Y-31691548D01*
X33511103Y-31716534D01*
X33476364Y-31735102D01*
X33438677Y-31746535D01*
X33393339Y-31751000D01*
X32556661Y-31751000D01*
X32511323Y-31746535D01*
X32473636Y-31735102D01*
X32438897Y-31716534D01*
X32408452Y-31691548D01*
X32383466Y-31661103D01*
X32364898Y-31626364D01*
X32353465Y-31588677D01*
X32349000Y-31543339D01*
X32349000Y-30456661D01*
X32353465Y-30411323D01*
X32364898Y-30373636D01*
X32383466Y-30338897D01*
X32408452Y-30308452D01*
X32438897Y-30283466D01*
X32473636Y-30264898D01*
X32511323Y-30253465D01*
X32556661Y-30249000D01*
X33393339Y-30249000D01*
X33438677Y-30253465D01*
X33438677Y-30253465D01*
G37*
G36*
X38588677Y-30403465D02*
X38626364Y-30414898D01*
X38661103Y-30433466D01*
X38691548Y-30458452D01*
X38716534Y-30488897D01*
X38735102Y-30523636D01*
X38746535Y-30561323D01*
X38751000Y-30606661D01*
X38751000Y-31443339D01*
X38746535Y-31488677D01*
X38735102Y-31526364D01*
X38716534Y-31561103D01*
X38691548Y-31591548D01*
X38661103Y-31616534D01*
X38626364Y-31635102D01*
X38588677Y-31646535D01*
X38543339Y-31651000D01*
X37456661Y-31651000D01*
X37411323Y-31646535D01*
X37373636Y-31635102D01*
X37338897Y-31616534D01*
X37308452Y-31591548D01*
X37283466Y-31561103D01*
X37264898Y-31526364D01*
X37253465Y-31488677D01*
X37249000Y-31443339D01*
X37249000Y-30606661D01*
X37253465Y-30561323D01*
X37264898Y-30523636D01*
X37283466Y-30488897D01*
X37308452Y-30458452D01*
X37338897Y-30433466D01*
X37373636Y-30414898D01*
X37411323Y-30403465D01*
X37456661Y-30399000D01*
X38543339Y-30399000D01*
X38588677Y-30403465D01*
X38588677Y-30403465D01*
G37*
G36*
X46588677Y-30403465D02*
X46626364Y-30414898D01*
X46661103Y-30433466D01*
X46691548Y-30458452D01*
X46716534Y-30488897D01*
X46735102Y-30523636D01*
X46746535Y-30561323D01*
X46751000Y-30606661D01*
X46751000Y-31443339D01*
X46746535Y-31488677D01*
X46735102Y-31526364D01*
X46716534Y-31561103D01*
X46691548Y-31591548D01*
X46661103Y-31616534D01*
X46626364Y-31635102D01*
X46588677Y-31646535D01*
X46543339Y-31651000D01*
X45456661Y-31651000D01*
X45411323Y-31646535D01*
X45373636Y-31635102D01*
X45338897Y-31616534D01*
X45308452Y-31591548D01*
X45283466Y-31561103D01*
X45264898Y-31526364D01*
X45253465Y-31488677D01*
X45249000Y-31443339D01*
X45249000Y-30606661D01*
X45253465Y-30561323D01*
X45264898Y-30523636D01*
X45283466Y-30488897D01*
X45308452Y-30458452D01*
X45338897Y-30433466D01*
X45373636Y-30414898D01*
X45411323Y-30403465D01*
X45456661Y-30399000D01*
X46543339Y-30399000D01*
X46588677Y-30403465D01*
X46588677Y-30403465D01*
G37*
G36*
X42588677Y-30403465D02*
X42626364Y-30414898D01*
X42661103Y-30433466D01*
X42691548Y-30458452D01*
X42716534Y-30488897D01*
X42735102Y-30523636D01*
X42746535Y-30561323D01*
X42751000Y-30606661D01*
X42751000Y-31443339D01*
X42746535Y-31488677D01*
X42735102Y-31526364D01*
X42716534Y-31561103D01*
X42691548Y-31591548D01*
X42661103Y-31616534D01*
X42626364Y-31635102D01*
X42588677Y-31646535D01*
X42543339Y-31651000D01*
X41456661Y-31651000D01*
X41411323Y-31646535D01*
X41373636Y-31635102D01*
X41338897Y-31616534D01*
X41308452Y-31591548D01*
X41283466Y-31561103D01*
X41264898Y-31526364D01*
X41253465Y-31488677D01*
X41249000Y-31443339D01*
X41249000Y-30606661D01*
X41253465Y-30561323D01*
X41264898Y-30523636D01*
X41283466Y-30488897D01*
X41308452Y-30458452D01*
X41338897Y-30433466D01*
X41373636Y-30414898D01*
X41411323Y-30403465D01*
X41456661Y-30399000D01*
X42543339Y-30399000D01*
X42588677Y-30403465D01*
X42588677Y-30403465D01*
G37*
G36*
X30201000Y-30801000D02*
X28099000Y-30801000D01*
X28099000Y-29199000D01*
X30201000Y-29199000D01*
X30201000Y-30801000D01*
X30201000Y-30801000D01*
G37*
G36*
X46588677Y-28353465D02*
X46626364Y-28364898D01*
X46661103Y-28383466D01*
X46691548Y-28408452D01*
X46716534Y-28438897D01*
X46735102Y-28473636D01*
X46746535Y-28511323D01*
X46751000Y-28556661D01*
X46751000Y-29393339D01*
X46746535Y-29438677D01*
X46735102Y-29476364D01*
X46716534Y-29511103D01*
X46691548Y-29541548D01*
X46661103Y-29566534D01*
X46626364Y-29585102D01*
X46588677Y-29596535D01*
X46543339Y-29601000D01*
X45456661Y-29601000D01*
X45411323Y-29596535D01*
X45373636Y-29585102D01*
X45338897Y-29566534D01*
X45308452Y-29541548D01*
X45283466Y-29511103D01*
X45264898Y-29476364D01*
X45253465Y-29438677D01*
X45249000Y-29393339D01*
X45249000Y-28556661D01*
X45253465Y-28511323D01*
X45264898Y-28473636D01*
X45283466Y-28438897D01*
X45308452Y-28408452D01*
X45338897Y-28383466D01*
X45373636Y-28364898D01*
X45411323Y-28353465D01*
X45456661Y-28349000D01*
X46543339Y-28349000D01*
X46588677Y-28353465D01*
X46588677Y-28353465D01*
G37*
G36*
X38588677Y-28353465D02*
X38626364Y-28364898D01*
X38661103Y-28383466D01*
X38691548Y-28408452D01*
X38716534Y-28438897D01*
X38735102Y-28473636D01*
X38746535Y-28511323D01*
X38751000Y-28556661D01*
X38751000Y-29393339D01*
X38746535Y-29438677D01*
X38735102Y-29476364D01*
X38716534Y-29511103D01*
X38691548Y-29541548D01*
X38661103Y-29566534D01*
X38626364Y-29585102D01*
X38588677Y-29596535D01*
X38543339Y-29601000D01*
X37456661Y-29601000D01*
X37411323Y-29596535D01*
X37373636Y-29585102D01*
X37338897Y-29566534D01*
X37308452Y-29541548D01*
X37283466Y-29511103D01*
X37264898Y-29476364D01*
X37253465Y-29438677D01*
X37249000Y-29393339D01*
X37249000Y-28556661D01*
X37253465Y-28511323D01*
X37264898Y-28473636D01*
X37283466Y-28438897D01*
X37308452Y-28408452D01*
X37338897Y-28383466D01*
X37373636Y-28364898D01*
X37411323Y-28353465D01*
X37456661Y-28349000D01*
X38543339Y-28349000D01*
X38588677Y-28353465D01*
X38588677Y-28353465D01*
G37*
G36*
X42588677Y-28353465D02*
X42626364Y-28364898D01*
X42661103Y-28383466D01*
X42691548Y-28408452D01*
X42716534Y-28438897D01*
X42735102Y-28473636D01*
X42746535Y-28511323D01*
X42751000Y-28556661D01*
X42751000Y-29393339D01*
X42746535Y-29438677D01*
X42735102Y-29476364D01*
X42716534Y-29511103D01*
X42691548Y-29541548D01*
X42661103Y-29566534D01*
X42626364Y-29585102D01*
X42588677Y-29596535D01*
X42543339Y-29601000D01*
X41456661Y-29601000D01*
X41411323Y-29596535D01*
X41373636Y-29585102D01*
X41338897Y-29566534D01*
X41308452Y-29541548D01*
X41283466Y-29511103D01*
X41264898Y-29476364D01*
X41253465Y-29438677D01*
X41249000Y-29393339D01*
X41249000Y-28556661D01*
X41253465Y-28511323D01*
X41264898Y-28473636D01*
X41283466Y-28438897D01*
X41308452Y-28408452D01*
X41338897Y-28383466D01*
X41373636Y-28364898D01*
X41411323Y-28353465D01*
X41456661Y-28349000D01*
X42543339Y-28349000D01*
X42588677Y-28353465D01*
X42588677Y-28353465D01*
G37*
G36*
X30201000Y-28501000D02*
X28099000Y-28501000D01*
X28099000Y-26899000D01*
X30201000Y-26899000D01*
X30201000Y-28501000D01*
X30201000Y-28501000D01*
G37*
G36*
X40488677Y-25253465D02*
X40526364Y-25264898D01*
X40561103Y-25283466D01*
X40591548Y-25308452D01*
X40616534Y-25338897D01*
X40635102Y-25373636D01*
X40646535Y-25411323D01*
X40651000Y-25456661D01*
X40651000Y-26543339D01*
X40646535Y-26588677D01*
X40635102Y-26626364D01*
X40616534Y-26661103D01*
X40591548Y-26691548D01*
X40561103Y-26716534D01*
X40526364Y-26735102D01*
X40488677Y-26746535D01*
X40443339Y-26751000D01*
X39606661Y-26751000D01*
X39561323Y-26746535D01*
X39523636Y-26735102D01*
X39488897Y-26716534D01*
X39458452Y-26691548D01*
X39433466Y-26661103D01*
X39414898Y-26626364D01*
X39403465Y-26588677D01*
X39399000Y-26543339D01*
X39399000Y-25456661D01*
X39403465Y-25411323D01*
X39414898Y-25373636D01*
X39433466Y-25338897D01*
X39458452Y-25308452D01*
X39488897Y-25283466D01*
X39523636Y-25264898D01*
X39561323Y-25253465D01*
X39606661Y-25249000D01*
X40443339Y-25249000D01*
X40488677Y-25253465D01*
X40488677Y-25253465D01*
G37*
G36*
X33438677Y-25253465D02*
X33476364Y-25264898D01*
X33511103Y-25283466D01*
X33541548Y-25308452D01*
X33566534Y-25338897D01*
X33585102Y-25373636D01*
X33596535Y-25411323D01*
X33601000Y-25456661D01*
X33601000Y-26543339D01*
X33596535Y-26588677D01*
X33585102Y-26626364D01*
X33566534Y-26661103D01*
X33541548Y-26691548D01*
X33511103Y-26716534D01*
X33476364Y-26735102D01*
X33438677Y-26746535D01*
X33393339Y-26751000D01*
X32556661Y-26751000D01*
X32511323Y-26746535D01*
X32473636Y-26735102D01*
X32438897Y-26716534D01*
X32408452Y-26691548D01*
X32383466Y-26661103D01*
X32364898Y-26626364D01*
X32353465Y-26588677D01*
X32349000Y-26543339D01*
X32349000Y-25456661D01*
X32353465Y-25411323D01*
X32364898Y-25373636D01*
X32383466Y-25338897D01*
X32408452Y-25308452D01*
X32438897Y-25283466D01*
X32473636Y-25264898D01*
X32511323Y-25253465D01*
X32556661Y-25249000D01*
X33393339Y-25249000D01*
X33438677Y-25253465D01*
X33438677Y-25253465D01*
G37*
G36*
X35488677Y-25253465D02*
X35526364Y-25264898D01*
X35561103Y-25283466D01*
X35591548Y-25308452D01*
X35616534Y-25338897D01*
X35635102Y-25373636D01*
X35646535Y-25411323D01*
X35651000Y-25456661D01*
X35651000Y-26543339D01*
X35646535Y-26588677D01*
X35635102Y-26626364D01*
X35616534Y-26661103D01*
X35591548Y-26691548D01*
X35561103Y-26716534D01*
X35526364Y-26735102D01*
X35488677Y-26746535D01*
X35443339Y-26751000D01*
X34606661Y-26751000D01*
X34561323Y-26746535D01*
X34523636Y-26735102D01*
X34488897Y-26716534D01*
X34458452Y-26691548D01*
X34433466Y-26661103D01*
X34414898Y-26626364D01*
X34403465Y-26588677D01*
X34399000Y-26543339D01*
X34399000Y-25456661D01*
X34403465Y-25411323D01*
X34414898Y-25373636D01*
X34433466Y-25338897D01*
X34458452Y-25308452D01*
X34488897Y-25283466D01*
X34523636Y-25264898D01*
X34561323Y-25253465D01*
X34606661Y-25249000D01*
X35443339Y-25249000D01*
X35488677Y-25253465D01*
X35488677Y-25253465D01*
G37*
G36*
X38438677Y-25253465D02*
X38476364Y-25264898D01*
X38511103Y-25283466D01*
X38541548Y-25308452D01*
X38566534Y-25338897D01*
X38585102Y-25373636D01*
X38596535Y-25411323D01*
X38601000Y-25456661D01*
X38601000Y-26543339D01*
X38596535Y-26588677D01*
X38585102Y-26626364D01*
X38566534Y-26661103D01*
X38541548Y-26691548D01*
X38511103Y-26716534D01*
X38476364Y-26735102D01*
X38438677Y-26746535D01*
X38393339Y-26751000D01*
X37556661Y-26751000D01*
X37511323Y-26746535D01*
X37473636Y-26735102D01*
X37438897Y-26716534D01*
X37408452Y-26691548D01*
X37383466Y-26661103D01*
X37364898Y-26626364D01*
X37353465Y-26588677D01*
X37349000Y-26543339D01*
X37349000Y-25456661D01*
X37353465Y-25411323D01*
X37364898Y-25373636D01*
X37383466Y-25338897D01*
X37408452Y-25308452D01*
X37438897Y-25283466D01*
X37473636Y-25264898D01*
X37511323Y-25253465D01*
X37556661Y-25249000D01*
X38393339Y-25249000D01*
X38438677Y-25253465D01*
X38438677Y-25253465D01*
G37*
G36*
X46248228Y-23181703D02*
X46403100Y-23245853D01*
X46542481Y-23338985D01*
X46661015Y-23457519D01*
X46754147Y-23596900D01*
X46818297Y-23751772D01*
X46851000Y-23916184D01*
X46851000Y-24083816D01*
X46818297Y-24248228D01*
X46754147Y-24403100D01*
X46661015Y-24542481D01*
X46542481Y-24661015D01*
X46403100Y-24754147D01*
X46248228Y-24818297D01*
X46083816Y-24851000D01*
X45916184Y-24851000D01*
X45751772Y-24818297D01*
X45596900Y-24754147D01*
X45457519Y-24661015D01*
X45338985Y-24542481D01*
X45245853Y-24403100D01*
X45181703Y-24248228D01*
X45149000Y-24083816D01*
X45149000Y-23916184D01*
X45181703Y-23751772D01*
X45245853Y-23596900D01*
X45338985Y-23457519D01*
X45457519Y-23338985D01*
X45596900Y-23245853D01*
X45751772Y-23181703D01*
X45916184Y-23149000D01*
X46083816Y-23149000D01*
X46248228Y-23181703D01*
X46248228Y-23181703D01*
G37*
G36*
X44851000Y-24851000D02*
X43149000Y-24851000D01*
X43149000Y-23149000D01*
X44851000Y-23149000D01*
X44851000Y-24851000D01*
X44851000Y-24851000D01*
G37*
G36*
X27438677Y-23253465D02*
X27476364Y-23264898D01*
X27511103Y-23283466D01*
X27541548Y-23308452D01*
X27566534Y-23338897D01*
X27585102Y-23373636D01*
X27596535Y-23411323D01*
X27601000Y-23456661D01*
X27601000Y-24543339D01*
X27596535Y-24588677D01*
X27585102Y-24626364D01*
X27566534Y-24661103D01*
X27541548Y-24691548D01*
X27511103Y-24716534D01*
X27476364Y-24735102D01*
X27438677Y-24746535D01*
X27393339Y-24751000D01*
X26556661Y-24751000D01*
X26511323Y-24746535D01*
X26473636Y-24735102D01*
X26438897Y-24716534D01*
X26408452Y-24691548D01*
X26383466Y-24661103D01*
X26364898Y-24626364D01*
X26353465Y-24588677D01*
X26349000Y-24543339D01*
X26349000Y-23456661D01*
X26353465Y-23411323D01*
X26364898Y-23373636D01*
X26383466Y-23338897D01*
X26408452Y-23308452D01*
X26438897Y-23283466D01*
X26473636Y-23264898D01*
X26511323Y-23253465D01*
X26556661Y-23249000D01*
X27393339Y-23249000D01*
X27438677Y-23253465D01*
X27438677Y-23253465D01*
G37*
G36*
X29488677Y-23253465D02*
X29526364Y-23264898D01*
X29561103Y-23283466D01*
X29591548Y-23308452D01*
X29616534Y-23338897D01*
X29635102Y-23373636D01*
X29646535Y-23411323D01*
X29651000Y-23456661D01*
X29651000Y-24543339D01*
X29646535Y-24588677D01*
X29635102Y-24626364D01*
X29616534Y-24661103D01*
X29591548Y-24691548D01*
X29561103Y-24716534D01*
X29526364Y-24735102D01*
X29488677Y-24746535D01*
X29443339Y-24751000D01*
X28606661Y-24751000D01*
X28561323Y-24746535D01*
X28523636Y-24735102D01*
X28488897Y-24716534D01*
X28458452Y-24691548D01*
X28433466Y-24661103D01*
X28414898Y-24626364D01*
X28403465Y-24588677D01*
X28399000Y-24543339D01*
X28399000Y-23456661D01*
X28403465Y-23411323D01*
X28414898Y-23373636D01*
X28433466Y-23338897D01*
X28458452Y-23308452D01*
X28488897Y-23283466D01*
X28523636Y-23264898D01*
X28561323Y-23253465D01*
X28606661Y-23249000D01*
X29443339Y-23249000D01*
X29488677Y-23253465D01*
X29488677Y-23253465D01*
G37*
G36*
X57335734Y-21893232D02*
X57545202Y-21979996D01*
X57733723Y-22105962D01*
X57894038Y-22266277D01*
X58020004Y-22454798D01*
X58106768Y-22664266D01*
X58151000Y-22886635D01*
X58151000Y-23113365D01*
X58106768Y-23335734D01*
X58020004Y-23545202D01*
X57894038Y-23733723D01*
X57733723Y-23894038D01*
X57545202Y-24020004D01*
X57335734Y-24106768D01*
X57113365Y-24151000D01*
X56886635Y-24151000D01*
X56664266Y-24106768D01*
X56454798Y-24020004D01*
X56266277Y-23894038D01*
X56105962Y-23733723D01*
X55979996Y-23545202D01*
X55893232Y-23335734D01*
X55849000Y-23113365D01*
X55849000Y-22886635D01*
X55893232Y-22664266D01*
X55979996Y-22454798D01*
X56105962Y-22266277D01*
X56266277Y-22105962D01*
X56454798Y-21979996D01*
X56664266Y-21893232D01*
X56886635Y-21849000D01*
X57113365Y-21849000D01*
X57335734Y-21893232D01*
X57335734Y-21893232D01*
G37*
G36*
X23335734Y-21893232D02*
X23545202Y-21979996D01*
X23733723Y-22105962D01*
X23894038Y-22266277D01*
X24020004Y-22454798D01*
X24106768Y-22664266D01*
X24151000Y-22886635D01*
X24151000Y-23113365D01*
X24106768Y-23335734D01*
X24020004Y-23545202D01*
X23894038Y-23733723D01*
X23733723Y-23894038D01*
X23545202Y-24020004D01*
X23335734Y-24106768D01*
X23113365Y-24151000D01*
X22886635Y-24151000D01*
X22664266Y-24106768D01*
X22454798Y-24020004D01*
X22266277Y-23894038D01*
X22105962Y-23733723D01*
X21979996Y-23545202D01*
X21893232Y-23335734D01*
X21849000Y-23113365D01*
X21849000Y-22886635D01*
X21893232Y-22664266D01*
X21979996Y-22454798D01*
X22105962Y-22266277D01*
X22266277Y-22105962D01*
X22454798Y-21979996D01*
X22664266Y-21893232D01*
X22886635Y-21849000D01*
X23113365Y-21849000D01*
X23335734Y-21893232D01*
X23335734Y-21893232D01*
G37*
G36*
X35488677Y-22253465D02*
X35526364Y-22264898D01*
X35561103Y-22283466D01*
X35591548Y-22308452D01*
X35616534Y-22338897D01*
X35635102Y-22373636D01*
X35646535Y-22411323D01*
X35651000Y-22456661D01*
X35651000Y-23543339D01*
X35646535Y-23588677D01*
X35635102Y-23626364D01*
X35616534Y-23661103D01*
X35591548Y-23691548D01*
X35561103Y-23716534D01*
X35526364Y-23735102D01*
X35488677Y-23746535D01*
X35443339Y-23751000D01*
X34606661Y-23751000D01*
X34561323Y-23746535D01*
X34523636Y-23735102D01*
X34488897Y-23716534D01*
X34458452Y-23691548D01*
X34433466Y-23661103D01*
X34414898Y-23626364D01*
X34403465Y-23588677D01*
X34399000Y-23543339D01*
X34399000Y-22456661D01*
X34403465Y-22411323D01*
X34414898Y-22373636D01*
X34433466Y-22338897D01*
X34458452Y-22308452D01*
X34488897Y-22283466D01*
X34523636Y-22264898D01*
X34561323Y-22253465D01*
X34606661Y-22249000D01*
X35443339Y-22249000D01*
X35488677Y-22253465D01*
X35488677Y-22253465D01*
G37*
G36*
X38438677Y-22253465D02*
X38476364Y-22264898D01*
X38511103Y-22283466D01*
X38541548Y-22308452D01*
X38566534Y-22338897D01*
X38585102Y-22373636D01*
X38596535Y-22411323D01*
X38601000Y-22456661D01*
X38601000Y-23543339D01*
X38596535Y-23588677D01*
X38585102Y-23626364D01*
X38566534Y-23661103D01*
X38541548Y-23691548D01*
X38511103Y-23716534D01*
X38476364Y-23735102D01*
X38438677Y-23746535D01*
X38393339Y-23751000D01*
X37556661Y-23751000D01*
X37511323Y-23746535D01*
X37473636Y-23735102D01*
X37438897Y-23716534D01*
X37408452Y-23691548D01*
X37383466Y-23661103D01*
X37364898Y-23626364D01*
X37353465Y-23588677D01*
X37349000Y-23543339D01*
X37349000Y-22456661D01*
X37353465Y-22411323D01*
X37364898Y-22373636D01*
X37383466Y-22338897D01*
X37408452Y-22308452D01*
X37438897Y-22283466D01*
X37473636Y-22264898D01*
X37511323Y-22253465D01*
X37556661Y-22249000D01*
X38393339Y-22249000D01*
X38438677Y-22253465D01*
X38438677Y-22253465D01*
G37*
G36*
X40488677Y-22253465D02*
X40526364Y-22264898D01*
X40561103Y-22283466D01*
X40591548Y-22308452D01*
X40616534Y-22338897D01*
X40635102Y-22373636D01*
X40646535Y-22411323D01*
X40651000Y-22456661D01*
X40651000Y-23543339D01*
X40646535Y-23588677D01*
X40635102Y-23626364D01*
X40616534Y-23661103D01*
X40591548Y-23691548D01*
X40561103Y-23716534D01*
X40526364Y-23735102D01*
X40488677Y-23746535D01*
X40443339Y-23751000D01*
X39606661Y-23751000D01*
X39561323Y-23746535D01*
X39523636Y-23735102D01*
X39488897Y-23716534D01*
X39458452Y-23691548D01*
X39433466Y-23661103D01*
X39414898Y-23626364D01*
X39403465Y-23588677D01*
X39399000Y-23543339D01*
X39399000Y-22456661D01*
X39403465Y-22411323D01*
X39414898Y-22373636D01*
X39433466Y-22338897D01*
X39458452Y-22308452D01*
X39488897Y-22283466D01*
X39523636Y-22264898D01*
X39561323Y-22253465D01*
X39606661Y-22249000D01*
X40443339Y-22249000D01*
X40488677Y-22253465D01*
X40488677Y-22253465D01*
G37*
G36*
X33438677Y-22253465D02*
X33476364Y-22264898D01*
X33511103Y-22283466D01*
X33541548Y-22308452D01*
X33566534Y-22338897D01*
X33585102Y-22373636D01*
X33596535Y-22411323D01*
X33601000Y-22456661D01*
X33601000Y-23543339D01*
X33596535Y-23588677D01*
X33585102Y-23626364D01*
X33566534Y-23661103D01*
X33541548Y-23691548D01*
X33511103Y-23716534D01*
X33476364Y-23735102D01*
X33438677Y-23746535D01*
X33393339Y-23751000D01*
X32556661Y-23751000D01*
X32511323Y-23746535D01*
X32473636Y-23735102D01*
X32438897Y-23716534D01*
X32408452Y-23691548D01*
X32383466Y-23661103D01*
X32364898Y-23626364D01*
X32353465Y-23588677D01*
X32349000Y-23543339D01*
X32349000Y-22456661D01*
X32353465Y-22411323D01*
X32364898Y-22373636D01*
X32383466Y-22338897D01*
X32408452Y-22308452D01*
X32438897Y-22283466D01*
X32473636Y-22264898D01*
X32511323Y-22253465D01*
X32556661Y-22249000D01*
X33393339Y-22249000D01*
X33438677Y-22253465D01*
X33438677Y-22253465D01*
G37*
M02*
