G04 #@! TF.GenerationSoftware,KiCad,Pcbnew,(5.0.2)-1*
G04 #@! TF.CreationDate,2019-01-30T15:35:23+01:00*
G04 #@! TF.ProjectId,lab,6c61622e-6b69-4636-9164-5f7063625858,rev?*
G04 #@! TF.SameCoordinates,Original*
G04 #@! TF.FileFunction,Legend,Top*
G04 #@! TF.FilePolarity,Positive*
%FSLAX46Y46*%
G04 Gerber Fmt 4.6, Leading zero omitted, Abs format (unit mm)*
G04 Created by KiCad (PCBNEW (5.0.2)-1) date 30/01/2019 15:35:23*
%MOMM*%
%LPD*%
G01*
G04 APERTURE LIST*
%ADD10C,0.120000*%
%ADD11C,0.150000*%
G04 APERTURE END LIST*
D10*
G04 #@! TO.C,Y1*
X52450000Y-31425000D02*
X52450000Y-47400000D01*
X57550000Y-31425000D02*
X52450000Y-31425000D01*
X57550000Y-47400000D02*
X57550000Y-31425000D01*
G04 #@! TO.C,C1*
X26554775Y-39725000D02*
X26554775Y-39225000D01*
X26804775Y-39475000D02*
X26304775Y-39475000D01*
X21399000Y-38284000D02*
X21399000Y-37716000D01*
X21439000Y-38518000D02*
X21439000Y-37482000D01*
X21479000Y-38677000D02*
X21479000Y-37323000D01*
X21519000Y-38805000D02*
X21519000Y-37195000D01*
X21559000Y-38915000D02*
X21559000Y-37085000D01*
X21599000Y-39011000D02*
X21599000Y-36989000D01*
X21639000Y-39098000D02*
X21639000Y-36902000D01*
X21679000Y-39178000D02*
X21679000Y-36822000D01*
X21719000Y-39251000D02*
X21719000Y-36749000D01*
X21759000Y-39319000D02*
X21759000Y-36681000D01*
X21799000Y-39383000D02*
X21799000Y-36617000D01*
X21839000Y-39443000D02*
X21839000Y-36557000D01*
X21879000Y-39500000D02*
X21879000Y-36500000D01*
X21919000Y-39554000D02*
X21919000Y-36446000D01*
X21959000Y-39605000D02*
X21959000Y-36395000D01*
X21999000Y-36960000D02*
X21999000Y-36347000D01*
X21999000Y-39653000D02*
X21999000Y-39040000D01*
X22039000Y-36960000D02*
X22039000Y-36301000D01*
X22039000Y-39699000D02*
X22039000Y-39040000D01*
X22079000Y-36960000D02*
X22079000Y-36257000D01*
X22079000Y-39743000D02*
X22079000Y-39040000D01*
X22119000Y-36960000D02*
X22119000Y-36215000D01*
X22119000Y-39785000D02*
X22119000Y-39040000D01*
X22159000Y-36960000D02*
X22159000Y-36174000D01*
X22159000Y-39826000D02*
X22159000Y-39040000D01*
X22199000Y-36960000D02*
X22199000Y-36136000D01*
X22199000Y-39864000D02*
X22199000Y-39040000D01*
X22239000Y-36960000D02*
X22239000Y-36099000D01*
X22239000Y-39901000D02*
X22239000Y-39040000D01*
X22279000Y-36960000D02*
X22279000Y-36063000D01*
X22279000Y-39937000D02*
X22279000Y-39040000D01*
X22319000Y-36960000D02*
X22319000Y-36029000D01*
X22319000Y-39971000D02*
X22319000Y-39040000D01*
X22359000Y-36960000D02*
X22359000Y-35996000D01*
X22359000Y-40004000D02*
X22359000Y-39040000D01*
X22399000Y-36960000D02*
X22399000Y-35965000D01*
X22399000Y-40035000D02*
X22399000Y-39040000D01*
X22439000Y-36960000D02*
X22439000Y-35935000D01*
X22439000Y-40065000D02*
X22439000Y-39040000D01*
X22479000Y-36960000D02*
X22479000Y-35905000D01*
X22479000Y-40095000D02*
X22479000Y-39040000D01*
X22519000Y-36960000D02*
X22519000Y-35878000D01*
X22519000Y-40122000D02*
X22519000Y-39040000D01*
X22559000Y-36960000D02*
X22559000Y-35851000D01*
X22559000Y-40149000D02*
X22559000Y-39040000D01*
X22599000Y-36960000D02*
X22599000Y-35825000D01*
X22599000Y-40175000D02*
X22599000Y-39040000D01*
X22639000Y-36960000D02*
X22639000Y-35800000D01*
X22639000Y-40200000D02*
X22639000Y-39040000D01*
X22679000Y-36960000D02*
X22679000Y-35776000D01*
X22679000Y-40224000D02*
X22679000Y-39040000D01*
X22719000Y-36960000D02*
X22719000Y-35753000D01*
X22719000Y-40247000D02*
X22719000Y-39040000D01*
X22759000Y-36960000D02*
X22759000Y-35732000D01*
X22759000Y-40268000D02*
X22759000Y-39040000D01*
X22799000Y-36960000D02*
X22799000Y-35710000D01*
X22799000Y-40290000D02*
X22799000Y-39040000D01*
X22839000Y-36960000D02*
X22839000Y-35690000D01*
X22839000Y-40310000D02*
X22839000Y-39040000D01*
X22879000Y-36960000D02*
X22879000Y-35671000D01*
X22879000Y-40329000D02*
X22879000Y-39040000D01*
X22919000Y-36960000D02*
X22919000Y-35652000D01*
X22919000Y-40348000D02*
X22919000Y-39040000D01*
X22959000Y-36960000D02*
X22959000Y-35635000D01*
X22959000Y-40365000D02*
X22959000Y-39040000D01*
X22999000Y-36960000D02*
X22999000Y-35618000D01*
X22999000Y-40382000D02*
X22999000Y-39040000D01*
X23039000Y-36960000D02*
X23039000Y-35602000D01*
X23039000Y-40398000D02*
X23039000Y-39040000D01*
X23079000Y-36960000D02*
X23079000Y-35586000D01*
X23079000Y-40414000D02*
X23079000Y-39040000D01*
X23119000Y-36960000D02*
X23119000Y-35572000D01*
X23119000Y-40428000D02*
X23119000Y-39040000D01*
X23159000Y-36960000D02*
X23159000Y-35558000D01*
X23159000Y-40442000D02*
X23159000Y-39040000D01*
X23199000Y-36960000D02*
X23199000Y-35545000D01*
X23199000Y-40455000D02*
X23199000Y-39040000D01*
X23239000Y-36960000D02*
X23239000Y-35532000D01*
X23239000Y-40468000D02*
X23239000Y-39040000D01*
X23279000Y-36960000D02*
X23279000Y-35520000D01*
X23279000Y-40480000D02*
X23279000Y-39040000D01*
X23320000Y-36960000D02*
X23320000Y-35509000D01*
X23320000Y-40491000D02*
X23320000Y-39040000D01*
X23360000Y-36960000D02*
X23360000Y-35499000D01*
X23360000Y-40501000D02*
X23360000Y-39040000D01*
X23400000Y-36960000D02*
X23400000Y-35489000D01*
X23400000Y-40511000D02*
X23400000Y-39040000D01*
X23440000Y-36960000D02*
X23440000Y-35480000D01*
X23440000Y-40520000D02*
X23440000Y-39040000D01*
X23480000Y-36960000D02*
X23480000Y-35472000D01*
X23480000Y-40528000D02*
X23480000Y-39040000D01*
X23520000Y-36960000D02*
X23520000Y-35464000D01*
X23520000Y-40536000D02*
X23520000Y-39040000D01*
X23560000Y-36960000D02*
X23560000Y-35457000D01*
X23560000Y-40543000D02*
X23560000Y-39040000D01*
X23600000Y-36960000D02*
X23600000Y-35450000D01*
X23600000Y-40550000D02*
X23600000Y-39040000D01*
X23640000Y-36960000D02*
X23640000Y-35444000D01*
X23640000Y-40556000D02*
X23640000Y-39040000D01*
X23680000Y-36960000D02*
X23680000Y-35439000D01*
X23680000Y-40561000D02*
X23680000Y-39040000D01*
X23720000Y-36960000D02*
X23720000Y-35435000D01*
X23720000Y-40565000D02*
X23720000Y-39040000D01*
X23760000Y-36960000D02*
X23760000Y-35431000D01*
X23760000Y-40569000D02*
X23760000Y-39040000D01*
X23800000Y-36960000D02*
X23800000Y-35427000D01*
X23800000Y-40573000D02*
X23800000Y-39040000D01*
X23840000Y-36960000D02*
X23840000Y-35424000D01*
X23840000Y-40576000D02*
X23840000Y-39040000D01*
X23880000Y-36960000D02*
X23880000Y-35422000D01*
X23880000Y-40578000D02*
X23880000Y-39040000D01*
X23920000Y-36960000D02*
X23920000Y-35421000D01*
X23920000Y-40579000D02*
X23920000Y-39040000D01*
X23960000Y-40580000D02*
X23960000Y-39040000D01*
X23960000Y-36960000D02*
X23960000Y-35420000D01*
X24000000Y-40580000D02*
X24000000Y-39040000D01*
X24000000Y-36960000D02*
X24000000Y-35420000D01*
X26620000Y-38000000D02*
G75*
G03X26620000Y-38000000I-2620000J0D01*
G01*
G04 #@! TO.C,C2*
X40261252Y-51290000D02*
X39738748Y-51290000D01*
X40261252Y-52710000D02*
X39738748Y-52710000D01*
G04 #@! TO.C,C3*
X28261252Y-24710000D02*
X27738748Y-24710000D01*
X28261252Y-23290000D02*
X27738748Y-23290000D01*
G04 #@! TO.C,C4*
X28290000Y-36738748D02*
X28290000Y-37261252D01*
X29710000Y-36738748D02*
X29710000Y-37261252D01*
G04 #@! TO.C,C5*
X47620000Y-24000000D02*
G75*
G03X47620000Y-24000000I-2620000J0D01*
G01*
X45000000Y-25040000D02*
X45000000Y-26580000D01*
X45000000Y-21420000D02*
X45000000Y-22960000D01*
X45040000Y-25040000D02*
X45040000Y-26580000D01*
X45040000Y-21420000D02*
X45040000Y-22960000D01*
X45080000Y-21421000D02*
X45080000Y-22960000D01*
X45080000Y-25040000D02*
X45080000Y-26579000D01*
X45120000Y-21422000D02*
X45120000Y-22960000D01*
X45120000Y-25040000D02*
X45120000Y-26578000D01*
X45160000Y-21424000D02*
X45160000Y-22960000D01*
X45160000Y-25040000D02*
X45160000Y-26576000D01*
X45200000Y-21427000D02*
X45200000Y-22960000D01*
X45200000Y-25040000D02*
X45200000Y-26573000D01*
X45240000Y-21431000D02*
X45240000Y-22960000D01*
X45240000Y-25040000D02*
X45240000Y-26569000D01*
X45280000Y-21435000D02*
X45280000Y-22960000D01*
X45280000Y-25040000D02*
X45280000Y-26565000D01*
X45320000Y-21439000D02*
X45320000Y-22960000D01*
X45320000Y-25040000D02*
X45320000Y-26561000D01*
X45360000Y-21444000D02*
X45360000Y-22960000D01*
X45360000Y-25040000D02*
X45360000Y-26556000D01*
X45400000Y-21450000D02*
X45400000Y-22960000D01*
X45400000Y-25040000D02*
X45400000Y-26550000D01*
X45440000Y-21457000D02*
X45440000Y-22960000D01*
X45440000Y-25040000D02*
X45440000Y-26543000D01*
X45480000Y-21464000D02*
X45480000Y-22960000D01*
X45480000Y-25040000D02*
X45480000Y-26536000D01*
X45520000Y-21472000D02*
X45520000Y-22960000D01*
X45520000Y-25040000D02*
X45520000Y-26528000D01*
X45560000Y-21480000D02*
X45560000Y-22960000D01*
X45560000Y-25040000D02*
X45560000Y-26520000D01*
X45600000Y-21489000D02*
X45600000Y-22960000D01*
X45600000Y-25040000D02*
X45600000Y-26511000D01*
X45640000Y-21499000D02*
X45640000Y-22960000D01*
X45640000Y-25040000D02*
X45640000Y-26501000D01*
X45680000Y-21509000D02*
X45680000Y-22960000D01*
X45680000Y-25040000D02*
X45680000Y-26491000D01*
X45721000Y-21520000D02*
X45721000Y-22960000D01*
X45721000Y-25040000D02*
X45721000Y-26480000D01*
X45761000Y-21532000D02*
X45761000Y-22960000D01*
X45761000Y-25040000D02*
X45761000Y-26468000D01*
X45801000Y-21545000D02*
X45801000Y-22960000D01*
X45801000Y-25040000D02*
X45801000Y-26455000D01*
X45841000Y-21558000D02*
X45841000Y-22960000D01*
X45841000Y-25040000D02*
X45841000Y-26442000D01*
X45881000Y-21572000D02*
X45881000Y-22960000D01*
X45881000Y-25040000D02*
X45881000Y-26428000D01*
X45921000Y-21586000D02*
X45921000Y-22960000D01*
X45921000Y-25040000D02*
X45921000Y-26414000D01*
X45961000Y-21602000D02*
X45961000Y-22960000D01*
X45961000Y-25040000D02*
X45961000Y-26398000D01*
X46001000Y-21618000D02*
X46001000Y-22960000D01*
X46001000Y-25040000D02*
X46001000Y-26382000D01*
X46041000Y-21635000D02*
X46041000Y-22960000D01*
X46041000Y-25040000D02*
X46041000Y-26365000D01*
X46081000Y-21652000D02*
X46081000Y-22960000D01*
X46081000Y-25040000D02*
X46081000Y-26348000D01*
X46121000Y-21671000D02*
X46121000Y-22960000D01*
X46121000Y-25040000D02*
X46121000Y-26329000D01*
X46161000Y-21690000D02*
X46161000Y-22960000D01*
X46161000Y-25040000D02*
X46161000Y-26310000D01*
X46201000Y-21710000D02*
X46201000Y-22960000D01*
X46201000Y-25040000D02*
X46201000Y-26290000D01*
X46241000Y-21732000D02*
X46241000Y-22960000D01*
X46241000Y-25040000D02*
X46241000Y-26268000D01*
X46281000Y-21753000D02*
X46281000Y-22960000D01*
X46281000Y-25040000D02*
X46281000Y-26247000D01*
X46321000Y-21776000D02*
X46321000Y-22960000D01*
X46321000Y-25040000D02*
X46321000Y-26224000D01*
X46361000Y-21800000D02*
X46361000Y-22960000D01*
X46361000Y-25040000D02*
X46361000Y-26200000D01*
X46401000Y-21825000D02*
X46401000Y-22960000D01*
X46401000Y-25040000D02*
X46401000Y-26175000D01*
X46441000Y-21851000D02*
X46441000Y-22960000D01*
X46441000Y-25040000D02*
X46441000Y-26149000D01*
X46481000Y-21878000D02*
X46481000Y-22960000D01*
X46481000Y-25040000D02*
X46481000Y-26122000D01*
X46521000Y-21905000D02*
X46521000Y-22960000D01*
X46521000Y-25040000D02*
X46521000Y-26095000D01*
X46561000Y-21935000D02*
X46561000Y-22960000D01*
X46561000Y-25040000D02*
X46561000Y-26065000D01*
X46601000Y-21965000D02*
X46601000Y-22960000D01*
X46601000Y-25040000D02*
X46601000Y-26035000D01*
X46641000Y-21996000D02*
X46641000Y-22960000D01*
X46641000Y-25040000D02*
X46641000Y-26004000D01*
X46681000Y-22029000D02*
X46681000Y-22960000D01*
X46681000Y-25040000D02*
X46681000Y-25971000D01*
X46721000Y-22063000D02*
X46721000Y-22960000D01*
X46721000Y-25040000D02*
X46721000Y-25937000D01*
X46761000Y-22099000D02*
X46761000Y-22960000D01*
X46761000Y-25040000D02*
X46761000Y-25901000D01*
X46801000Y-22136000D02*
X46801000Y-22960000D01*
X46801000Y-25040000D02*
X46801000Y-25864000D01*
X46841000Y-22174000D02*
X46841000Y-22960000D01*
X46841000Y-25040000D02*
X46841000Y-25826000D01*
X46881000Y-22215000D02*
X46881000Y-22960000D01*
X46881000Y-25040000D02*
X46881000Y-25785000D01*
X46921000Y-22257000D02*
X46921000Y-22960000D01*
X46921000Y-25040000D02*
X46921000Y-25743000D01*
X46961000Y-22301000D02*
X46961000Y-22960000D01*
X46961000Y-25040000D02*
X46961000Y-25699000D01*
X47001000Y-22347000D02*
X47001000Y-22960000D01*
X47001000Y-25040000D02*
X47001000Y-25653000D01*
X47041000Y-22395000D02*
X47041000Y-25605000D01*
X47081000Y-22446000D02*
X47081000Y-25554000D01*
X47121000Y-22500000D02*
X47121000Y-25500000D01*
X47161000Y-22557000D02*
X47161000Y-25443000D01*
X47201000Y-22617000D02*
X47201000Y-25383000D01*
X47241000Y-22681000D02*
X47241000Y-25319000D01*
X47281000Y-22749000D02*
X47281000Y-25251000D01*
X47321000Y-22822000D02*
X47321000Y-25178000D01*
X47361000Y-22902000D02*
X47361000Y-25098000D01*
X47401000Y-22989000D02*
X47401000Y-25011000D01*
X47441000Y-23085000D02*
X47441000Y-24915000D01*
X47481000Y-23195000D02*
X47481000Y-24805000D01*
X47521000Y-23323000D02*
X47521000Y-24677000D01*
X47561000Y-23482000D02*
X47561000Y-24518000D01*
X47601000Y-23716000D02*
X47601000Y-24284000D01*
X42195225Y-22525000D02*
X42695225Y-22525000D01*
X42445225Y-22275000D02*
X42445225Y-22775000D01*
G04 #@! TO.C,C6*
X39261252Y-22290000D02*
X38738748Y-22290000D01*
X39261252Y-23710000D02*
X38738748Y-23710000D01*
G04 #@! TO.C,C7*
X51710000Y-43738748D02*
X51710000Y-44261252D01*
X50290000Y-43738748D02*
X50290000Y-44261252D01*
G04 #@! TO.C,C8*
X50290000Y-39261252D02*
X50290000Y-38738748D01*
X51710000Y-39261252D02*
X51710000Y-38738748D01*
G04 #@! TO.C,C9*
X46710000Y-30261252D02*
X46710000Y-29738748D01*
X45290000Y-30261252D02*
X45290000Y-29738748D01*
G04 #@! TO.C,C10*
X37290000Y-30261252D02*
X37290000Y-29738748D01*
X38710000Y-30261252D02*
X38710000Y-29738748D01*
G04 #@! TO.C,C11*
X41290000Y-30261252D02*
X41290000Y-29738748D01*
X42710000Y-30261252D02*
X42710000Y-29738748D01*
G04 #@! TO.C,C12*
X34261252Y-31710000D02*
X33738748Y-31710000D01*
X34261252Y-30290000D02*
X33738748Y-30290000D01*
G04 #@! TO.C,C13*
X30261252Y-44210000D02*
X29738748Y-44210000D01*
X30261252Y-42790000D02*
X29738748Y-42790000D01*
G04 #@! TO.C,C14*
X44738748Y-48290000D02*
X45261252Y-48290000D01*
X44738748Y-49710000D02*
X45261252Y-49710000D01*
G04 #@! TO.C,C15*
X49738748Y-35710000D02*
X50261252Y-35710000D01*
X49738748Y-34290000D02*
X50261252Y-34290000D01*
G04 #@! TO.C,C16*
X24261252Y-44290000D02*
X23738748Y-44290000D01*
X24261252Y-45710000D02*
X23738748Y-45710000D01*
G04 #@! TO.C,C17*
X49738748Y-31290000D02*
X50261252Y-31290000D01*
X49738748Y-32710000D02*
X50261252Y-32710000D01*
G04 #@! TO.C,J1*
X34910000Y-59910000D02*
X27090000Y-59910000D01*
X28890000Y-50590000D02*
X28890000Y-50160000D01*
X34910000Y-59910000D02*
X34910000Y-57960000D01*
X34910000Y-55740000D02*
X34910000Y-52510000D01*
X33110000Y-50590000D02*
X34190000Y-50590000D01*
X27810000Y-50590000D02*
X28890000Y-50590000D01*
X27090000Y-55740000D02*
X27090000Y-52510000D01*
X27090000Y-59910000D02*
X27090000Y-57960000D01*
G04 #@! TO.C,J2*
X54030000Y-57330000D02*
X54030000Y-54670000D01*
X41270000Y-57330000D02*
X54030000Y-57330000D01*
X41270000Y-54670000D02*
X54030000Y-54670000D01*
X41270000Y-57330000D02*
X41270000Y-54670000D01*
X40000000Y-57330000D02*
X38670000Y-57330000D01*
X38670000Y-57330000D02*
X38670000Y-56000000D01*
G04 #@! TO.C,R1*
X39261252Y-26710000D02*
X38738748Y-26710000D01*
X39261252Y-25290000D02*
X38738748Y-25290000D01*
G04 #@! TO.C,R2*
X34261252Y-26710000D02*
X33738748Y-26710000D01*
X34261252Y-25290000D02*
X33738748Y-25290000D01*
G04 #@! TO.C,R3*
X34261252Y-22290000D02*
X33738748Y-22290000D01*
X34261252Y-23710000D02*
X33738748Y-23710000D01*
G04 #@! TO.C,R4*
X40261252Y-49710000D02*
X39738748Y-49710000D01*
X40261252Y-48290000D02*
X39738748Y-48290000D01*
G04 #@! TO.C,R5*
X50261252Y-51790000D02*
X49738748Y-51790000D01*
X50261252Y-53210000D02*
X49738748Y-53210000D01*
D11*
G04 #@! TO.C,U2*
X45175000Y-45175000D02*
X45175000Y-44175000D01*
X34825000Y-45175000D02*
X34825000Y-44100000D01*
X34825000Y-34825000D02*
X34825000Y-35900000D01*
X45175000Y-34825000D02*
X45175000Y-35900000D01*
X45175000Y-45175000D02*
X44100000Y-45175000D01*
X45175000Y-34825000D02*
X44100000Y-34825000D01*
X34825000Y-34825000D02*
X35900000Y-34825000D01*
X34825000Y-45175000D02*
X35900000Y-45175000D01*
X45175000Y-44175000D02*
X46200000Y-44175000D01*
D10*
G04 #@! TO.C,U1*
X24090000Y-26590000D02*
X24090000Y-27850000D01*
X24090000Y-33410000D02*
X24090000Y-32150000D01*
X27850000Y-26590000D02*
X24090000Y-26590000D01*
X30100000Y-33410000D02*
X24090000Y-33410000D01*
G04 #@! TO.C,Y1*
D11*
X54523809Y-29976190D02*
X54523809Y-30452380D01*
X54190476Y-29452380D02*
X54523809Y-29976190D01*
X54857142Y-29452380D01*
X55714285Y-30452380D02*
X55142857Y-30452380D01*
X55428571Y-30452380D02*
X55428571Y-29452380D01*
X55333333Y-29595238D01*
X55238095Y-29690476D01*
X55142857Y-29738095D01*
G04 #@! TO.C,C1*
X23833333Y-42107142D02*
X23785714Y-42154761D01*
X23642857Y-42202380D01*
X23547619Y-42202380D01*
X23404761Y-42154761D01*
X23309523Y-42059523D01*
X23261904Y-41964285D01*
X23214285Y-41773809D01*
X23214285Y-41630952D01*
X23261904Y-41440476D01*
X23309523Y-41345238D01*
X23404761Y-41250000D01*
X23547619Y-41202380D01*
X23642857Y-41202380D01*
X23785714Y-41250000D01*
X23833333Y-41297619D01*
X24785714Y-42202380D02*
X24214285Y-42202380D01*
X24500000Y-42202380D02*
X24500000Y-41202380D01*
X24404761Y-41345238D01*
X24309523Y-41440476D01*
X24214285Y-41488095D01*
G04 #@! TO.C,C2*
X42833333Y-52357142D02*
X42785714Y-52404761D01*
X42642857Y-52452380D01*
X42547619Y-52452380D01*
X42404761Y-52404761D01*
X42309523Y-52309523D01*
X42261904Y-52214285D01*
X42214285Y-52023809D01*
X42214285Y-51880952D01*
X42261904Y-51690476D01*
X42309523Y-51595238D01*
X42404761Y-51500000D01*
X42547619Y-51452380D01*
X42642857Y-51452380D01*
X42785714Y-51500000D01*
X42833333Y-51547619D01*
X43214285Y-51547619D02*
X43261904Y-51500000D01*
X43357142Y-51452380D01*
X43595238Y-51452380D01*
X43690476Y-51500000D01*
X43738095Y-51547619D01*
X43785714Y-51642857D01*
X43785714Y-51738095D01*
X43738095Y-51880952D01*
X43166666Y-52452380D01*
X43785714Y-52452380D01*
G04 #@! TO.C,C3*
X28833333Y-22357142D02*
X28785714Y-22404761D01*
X28642857Y-22452380D01*
X28547619Y-22452380D01*
X28404761Y-22404761D01*
X28309523Y-22309523D01*
X28261904Y-22214285D01*
X28214285Y-22023809D01*
X28214285Y-21880952D01*
X28261904Y-21690476D01*
X28309523Y-21595238D01*
X28404761Y-21500000D01*
X28547619Y-21452380D01*
X28642857Y-21452380D01*
X28785714Y-21500000D01*
X28833333Y-21547619D01*
X29166666Y-21452380D02*
X29785714Y-21452380D01*
X29452380Y-21833333D01*
X29595238Y-21833333D01*
X29690476Y-21880952D01*
X29738095Y-21928571D01*
X29785714Y-22023809D01*
X29785714Y-22261904D01*
X29738095Y-22357142D01*
X29690476Y-22404761D01*
X29595238Y-22452380D01*
X29309523Y-22452380D01*
X29214285Y-22404761D01*
X29166666Y-22357142D01*
G04 #@! TO.C,C4*
X30833333Y-36357142D02*
X30785714Y-36404761D01*
X30642857Y-36452380D01*
X30547619Y-36452380D01*
X30404761Y-36404761D01*
X30309523Y-36309523D01*
X30261904Y-36214285D01*
X30214285Y-36023809D01*
X30214285Y-35880952D01*
X30261904Y-35690476D01*
X30309523Y-35595238D01*
X30404761Y-35500000D01*
X30547619Y-35452380D01*
X30642857Y-35452380D01*
X30785714Y-35500000D01*
X30833333Y-35547619D01*
X31690476Y-35785714D02*
X31690476Y-36452380D01*
X31452380Y-35404761D02*
X31214285Y-36119047D01*
X31833333Y-36119047D01*
G04 #@! TO.C,C5*
X48333333Y-22357142D02*
X48285714Y-22404761D01*
X48142857Y-22452380D01*
X48047619Y-22452380D01*
X47904761Y-22404761D01*
X47809523Y-22309523D01*
X47761904Y-22214285D01*
X47714285Y-22023809D01*
X47714285Y-21880952D01*
X47761904Y-21690476D01*
X47809523Y-21595238D01*
X47904761Y-21500000D01*
X48047619Y-21452380D01*
X48142857Y-21452380D01*
X48285714Y-21500000D01*
X48333333Y-21547619D01*
X49238095Y-21452380D02*
X48761904Y-21452380D01*
X48714285Y-21928571D01*
X48761904Y-21880952D01*
X48857142Y-21833333D01*
X49095238Y-21833333D01*
X49190476Y-21880952D01*
X49238095Y-21928571D01*
X49285714Y-22023809D01*
X49285714Y-22261904D01*
X49238095Y-22357142D01*
X49190476Y-22404761D01*
X49095238Y-22452380D01*
X48857142Y-22452380D01*
X48761904Y-22404761D01*
X48714285Y-22357142D01*
G04 #@! TO.C,C6*
X38833333Y-21857142D02*
X38785714Y-21904761D01*
X38642857Y-21952380D01*
X38547619Y-21952380D01*
X38404761Y-21904761D01*
X38309523Y-21809523D01*
X38261904Y-21714285D01*
X38214285Y-21523809D01*
X38214285Y-21380952D01*
X38261904Y-21190476D01*
X38309523Y-21095238D01*
X38404761Y-21000000D01*
X38547619Y-20952380D01*
X38642857Y-20952380D01*
X38785714Y-21000000D01*
X38833333Y-21047619D01*
X39690476Y-20952380D02*
X39500000Y-20952380D01*
X39404761Y-21000000D01*
X39357142Y-21047619D01*
X39261904Y-21190476D01*
X39214285Y-21380952D01*
X39214285Y-21761904D01*
X39261904Y-21857142D01*
X39309523Y-21904761D01*
X39404761Y-21952380D01*
X39595238Y-21952380D01*
X39690476Y-21904761D01*
X39738095Y-21857142D01*
X39785714Y-21761904D01*
X39785714Y-21523809D01*
X39738095Y-21428571D01*
X39690476Y-21380952D01*
X39595238Y-21333333D01*
X39404761Y-21333333D01*
X39309523Y-21380952D01*
X39261904Y-21428571D01*
X39214285Y-21523809D01*
G04 #@! TO.C,C7*
X48833333Y-44357142D02*
X48785714Y-44404761D01*
X48642857Y-44452380D01*
X48547619Y-44452380D01*
X48404761Y-44404761D01*
X48309523Y-44309523D01*
X48261904Y-44214285D01*
X48214285Y-44023809D01*
X48214285Y-43880952D01*
X48261904Y-43690476D01*
X48309523Y-43595238D01*
X48404761Y-43500000D01*
X48547619Y-43452380D01*
X48642857Y-43452380D01*
X48785714Y-43500000D01*
X48833333Y-43547619D01*
X49166666Y-43452380D02*
X49833333Y-43452380D01*
X49404761Y-44452380D01*
G04 #@! TO.C,C8*
X48833333Y-39357142D02*
X48785714Y-39404761D01*
X48642857Y-39452380D01*
X48547619Y-39452380D01*
X48404761Y-39404761D01*
X48309523Y-39309523D01*
X48261904Y-39214285D01*
X48214285Y-39023809D01*
X48214285Y-38880952D01*
X48261904Y-38690476D01*
X48309523Y-38595238D01*
X48404761Y-38500000D01*
X48547619Y-38452380D01*
X48642857Y-38452380D01*
X48785714Y-38500000D01*
X48833333Y-38547619D01*
X49404761Y-38880952D02*
X49309523Y-38833333D01*
X49261904Y-38785714D01*
X49214285Y-38690476D01*
X49214285Y-38642857D01*
X49261904Y-38547619D01*
X49309523Y-38500000D01*
X49404761Y-38452380D01*
X49595238Y-38452380D01*
X49690476Y-38500000D01*
X49738095Y-38547619D01*
X49785714Y-38642857D01*
X49785714Y-38690476D01*
X49738095Y-38785714D01*
X49690476Y-38833333D01*
X49595238Y-38880952D01*
X49404761Y-38880952D01*
X49309523Y-38928571D01*
X49261904Y-38976190D01*
X49214285Y-39071428D01*
X49214285Y-39261904D01*
X49261904Y-39357142D01*
X49309523Y-39404761D01*
X49404761Y-39452380D01*
X49595238Y-39452380D01*
X49690476Y-39404761D01*
X49738095Y-39357142D01*
X49785714Y-39261904D01*
X49785714Y-39071428D01*
X49738095Y-38976190D01*
X49690476Y-38928571D01*
X49595238Y-38880952D01*
G04 #@! TO.C,C9*
X45833333Y-32857142D02*
X45785714Y-32904761D01*
X45642857Y-32952380D01*
X45547619Y-32952380D01*
X45404761Y-32904761D01*
X45309523Y-32809523D01*
X45261904Y-32714285D01*
X45214285Y-32523809D01*
X45214285Y-32380952D01*
X45261904Y-32190476D01*
X45309523Y-32095238D01*
X45404761Y-32000000D01*
X45547619Y-31952380D01*
X45642857Y-31952380D01*
X45785714Y-32000000D01*
X45833333Y-32047619D01*
X46309523Y-32952380D02*
X46500000Y-32952380D01*
X46595238Y-32904761D01*
X46642857Y-32857142D01*
X46738095Y-32714285D01*
X46785714Y-32523809D01*
X46785714Y-32142857D01*
X46738095Y-32047619D01*
X46690476Y-32000000D01*
X46595238Y-31952380D01*
X46404761Y-31952380D01*
X46309523Y-32000000D01*
X46261904Y-32047619D01*
X46214285Y-32142857D01*
X46214285Y-32380952D01*
X46261904Y-32476190D01*
X46309523Y-32523809D01*
X46404761Y-32571428D01*
X46595238Y-32571428D01*
X46690476Y-32523809D01*
X46738095Y-32476190D01*
X46785714Y-32380952D01*
G04 #@! TO.C,C10*
X37357142Y-32857142D02*
X37309523Y-32904761D01*
X37166666Y-32952380D01*
X37071428Y-32952380D01*
X36928571Y-32904761D01*
X36833333Y-32809523D01*
X36785714Y-32714285D01*
X36738095Y-32523809D01*
X36738095Y-32380952D01*
X36785714Y-32190476D01*
X36833333Y-32095238D01*
X36928571Y-32000000D01*
X37071428Y-31952380D01*
X37166666Y-31952380D01*
X37309523Y-32000000D01*
X37357142Y-32047619D01*
X38309523Y-32952380D02*
X37738095Y-32952380D01*
X38023809Y-32952380D02*
X38023809Y-31952380D01*
X37928571Y-32095238D01*
X37833333Y-32190476D01*
X37738095Y-32238095D01*
X38928571Y-31952380D02*
X39023809Y-31952380D01*
X39119047Y-32000000D01*
X39166666Y-32047619D01*
X39214285Y-32142857D01*
X39261904Y-32333333D01*
X39261904Y-32571428D01*
X39214285Y-32761904D01*
X39166666Y-32857142D01*
X39119047Y-32904761D01*
X39023809Y-32952380D01*
X38928571Y-32952380D01*
X38833333Y-32904761D01*
X38785714Y-32857142D01*
X38738095Y-32761904D01*
X38690476Y-32571428D01*
X38690476Y-32333333D01*
X38738095Y-32142857D01*
X38785714Y-32047619D01*
X38833333Y-32000000D01*
X38928571Y-31952380D01*
G04 #@! TO.C,C11*
X41357142Y-32857142D02*
X41309523Y-32904761D01*
X41166666Y-32952380D01*
X41071428Y-32952380D01*
X40928571Y-32904761D01*
X40833333Y-32809523D01*
X40785714Y-32714285D01*
X40738095Y-32523809D01*
X40738095Y-32380952D01*
X40785714Y-32190476D01*
X40833333Y-32095238D01*
X40928571Y-32000000D01*
X41071428Y-31952380D01*
X41166666Y-31952380D01*
X41309523Y-32000000D01*
X41357142Y-32047619D01*
X42309523Y-32952380D02*
X41738095Y-32952380D01*
X42023809Y-32952380D02*
X42023809Y-31952380D01*
X41928571Y-32095238D01*
X41833333Y-32190476D01*
X41738095Y-32238095D01*
X43261904Y-32952380D02*
X42690476Y-32952380D01*
X42976190Y-32952380D02*
X42976190Y-31952380D01*
X42880952Y-32095238D01*
X42785714Y-32190476D01*
X42690476Y-32238095D01*
G04 #@! TO.C,C12*
X32857142Y-33007142D02*
X32809523Y-33054761D01*
X32666666Y-33102380D01*
X32571428Y-33102380D01*
X32428571Y-33054761D01*
X32333333Y-32959523D01*
X32285714Y-32864285D01*
X32238095Y-32673809D01*
X32238095Y-32530952D01*
X32285714Y-32340476D01*
X32333333Y-32245238D01*
X32428571Y-32150000D01*
X32571428Y-32102380D01*
X32666666Y-32102380D01*
X32809523Y-32150000D01*
X32857142Y-32197619D01*
X33809523Y-33102380D02*
X33238095Y-33102380D01*
X33523809Y-33102380D02*
X33523809Y-32102380D01*
X33428571Y-32245238D01*
X33333333Y-32340476D01*
X33238095Y-32388095D01*
X34190476Y-32197619D02*
X34238095Y-32150000D01*
X34333333Y-32102380D01*
X34571428Y-32102380D01*
X34666666Y-32150000D01*
X34714285Y-32197619D01*
X34761904Y-32292857D01*
X34761904Y-32388095D01*
X34714285Y-32530952D01*
X34142857Y-33102380D01*
X34761904Y-33102380D01*
G04 #@! TO.C,C13*
X29357142Y-41857142D02*
X29309523Y-41904761D01*
X29166666Y-41952380D01*
X29071428Y-41952380D01*
X28928571Y-41904761D01*
X28833333Y-41809523D01*
X28785714Y-41714285D01*
X28738095Y-41523809D01*
X28738095Y-41380952D01*
X28785714Y-41190476D01*
X28833333Y-41095238D01*
X28928571Y-41000000D01*
X29071428Y-40952380D01*
X29166666Y-40952380D01*
X29309523Y-41000000D01*
X29357142Y-41047619D01*
X30309523Y-41952380D02*
X29738095Y-41952380D01*
X30023809Y-41952380D02*
X30023809Y-40952380D01*
X29928571Y-41095238D01*
X29833333Y-41190476D01*
X29738095Y-41238095D01*
X30642857Y-40952380D02*
X31261904Y-40952380D01*
X30928571Y-41333333D01*
X31071428Y-41333333D01*
X31166666Y-41380952D01*
X31214285Y-41428571D01*
X31261904Y-41523809D01*
X31261904Y-41761904D01*
X31214285Y-41857142D01*
X31166666Y-41904761D01*
X31071428Y-41952380D01*
X30785714Y-41952380D01*
X30690476Y-41904761D01*
X30642857Y-41857142D01*
G04 #@! TO.C,C14*
X47857142Y-48357142D02*
X47809523Y-48404761D01*
X47666666Y-48452380D01*
X47571428Y-48452380D01*
X47428571Y-48404761D01*
X47333333Y-48309523D01*
X47285714Y-48214285D01*
X47238095Y-48023809D01*
X47238095Y-47880952D01*
X47285714Y-47690476D01*
X47333333Y-47595238D01*
X47428571Y-47500000D01*
X47571428Y-47452380D01*
X47666666Y-47452380D01*
X47809523Y-47500000D01*
X47857142Y-47547619D01*
X48809523Y-48452380D02*
X48238095Y-48452380D01*
X48523809Y-48452380D02*
X48523809Y-47452380D01*
X48428571Y-47595238D01*
X48333333Y-47690476D01*
X48238095Y-47738095D01*
X49666666Y-47785714D02*
X49666666Y-48452380D01*
X49428571Y-47404761D02*
X49190476Y-48119047D01*
X49809523Y-48119047D01*
G04 #@! TO.C,C15*
X49357142Y-36857142D02*
X49309523Y-36904761D01*
X49166666Y-36952380D01*
X49071428Y-36952380D01*
X48928571Y-36904761D01*
X48833333Y-36809523D01*
X48785714Y-36714285D01*
X48738095Y-36523809D01*
X48738095Y-36380952D01*
X48785714Y-36190476D01*
X48833333Y-36095238D01*
X48928571Y-36000000D01*
X49071428Y-35952380D01*
X49166666Y-35952380D01*
X49309523Y-36000000D01*
X49357142Y-36047619D01*
X50309523Y-36952380D02*
X49738095Y-36952380D01*
X50023809Y-36952380D02*
X50023809Y-35952380D01*
X49928571Y-36095238D01*
X49833333Y-36190476D01*
X49738095Y-36238095D01*
X51214285Y-35952380D02*
X50738095Y-35952380D01*
X50690476Y-36428571D01*
X50738095Y-36380952D01*
X50833333Y-36333333D01*
X51071428Y-36333333D01*
X51166666Y-36380952D01*
X51214285Y-36428571D01*
X51261904Y-36523809D01*
X51261904Y-36761904D01*
X51214285Y-36857142D01*
X51166666Y-36904761D01*
X51071428Y-36952380D01*
X50833333Y-36952380D01*
X50738095Y-36904761D01*
X50690476Y-36857142D01*
G04 #@! TO.C,C16*
X23357142Y-47007142D02*
X23309523Y-47054761D01*
X23166666Y-47102380D01*
X23071428Y-47102380D01*
X22928571Y-47054761D01*
X22833333Y-46959523D01*
X22785714Y-46864285D01*
X22738095Y-46673809D01*
X22738095Y-46530952D01*
X22785714Y-46340476D01*
X22833333Y-46245238D01*
X22928571Y-46150000D01*
X23071428Y-46102380D01*
X23166666Y-46102380D01*
X23309523Y-46150000D01*
X23357142Y-46197619D01*
X24309523Y-47102380D02*
X23738095Y-47102380D01*
X24023809Y-47102380D02*
X24023809Y-46102380D01*
X23928571Y-46245238D01*
X23833333Y-46340476D01*
X23738095Y-46388095D01*
X25166666Y-46102380D02*
X24976190Y-46102380D01*
X24880952Y-46150000D01*
X24833333Y-46197619D01*
X24738095Y-46340476D01*
X24690476Y-46530952D01*
X24690476Y-46911904D01*
X24738095Y-47007142D01*
X24785714Y-47054761D01*
X24880952Y-47102380D01*
X25071428Y-47102380D01*
X25166666Y-47054761D01*
X25214285Y-47007142D01*
X25261904Y-46911904D01*
X25261904Y-46673809D01*
X25214285Y-46578571D01*
X25166666Y-46530952D01*
X25071428Y-46483333D01*
X24880952Y-46483333D01*
X24785714Y-46530952D01*
X24738095Y-46578571D01*
X24690476Y-46673809D01*
G04 #@! TO.C,C17*
X49357142Y-30707142D02*
X49309523Y-30754761D01*
X49166666Y-30802380D01*
X49071428Y-30802380D01*
X48928571Y-30754761D01*
X48833333Y-30659523D01*
X48785714Y-30564285D01*
X48738095Y-30373809D01*
X48738095Y-30230952D01*
X48785714Y-30040476D01*
X48833333Y-29945238D01*
X48928571Y-29850000D01*
X49071428Y-29802380D01*
X49166666Y-29802380D01*
X49309523Y-29850000D01*
X49357142Y-29897619D01*
X50309523Y-30802380D02*
X49738095Y-30802380D01*
X50023809Y-30802380D02*
X50023809Y-29802380D01*
X49928571Y-29945238D01*
X49833333Y-30040476D01*
X49738095Y-30088095D01*
X50642857Y-29802380D02*
X51309523Y-29802380D01*
X50880952Y-30802380D01*
G04 #@! TO.C,J1*
X30666666Y-48452380D02*
X30666666Y-49166666D01*
X30619047Y-49309523D01*
X30523809Y-49404761D01*
X30380952Y-49452380D01*
X30285714Y-49452380D01*
X31666666Y-49452380D02*
X31095238Y-49452380D01*
X31380952Y-49452380D02*
X31380952Y-48452380D01*
X31285714Y-48595238D01*
X31190476Y-48690476D01*
X31095238Y-48738095D01*
G04 #@! TO.C,J2*
X44166666Y-52952380D02*
X44166666Y-53666666D01*
X44119047Y-53809523D01*
X44023809Y-53904761D01*
X43880952Y-53952380D01*
X43785714Y-53952380D01*
X44595238Y-53047619D02*
X44642857Y-53000000D01*
X44738095Y-52952380D01*
X44976190Y-52952380D01*
X45071428Y-53000000D01*
X45119047Y-53047619D01*
X45166666Y-53142857D01*
X45166666Y-53238095D01*
X45119047Y-53380952D01*
X44547619Y-53952380D01*
X45166666Y-53952380D01*
G04 #@! TO.C,R1*
X38833333Y-27952380D02*
X38500000Y-27476190D01*
X38261904Y-27952380D02*
X38261904Y-26952380D01*
X38642857Y-26952380D01*
X38738095Y-27000000D01*
X38785714Y-27047619D01*
X38833333Y-27142857D01*
X38833333Y-27285714D01*
X38785714Y-27380952D01*
X38738095Y-27428571D01*
X38642857Y-27476190D01*
X38261904Y-27476190D01*
X39785714Y-27952380D02*
X39214285Y-27952380D01*
X39500000Y-27952380D02*
X39500000Y-26952380D01*
X39404761Y-27095238D01*
X39309523Y-27190476D01*
X39214285Y-27238095D01*
G04 #@! TO.C,R2*
X33833333Y-27952380D02*
X33500000Y-27476190D01*
X33261904Y-27952380D02*
X33261904Y-26952380D01*
X33642857Y-26952380D01*
X33738095Y-27000000D01*
X33785714Y-27047619D01*
X33833333Y-27142857D01*
X33833333Y-27285714D01*
X33785714Y-27380952D01*
X33738095Y-27428571D01*
X33642857Y-27476190D01*
X33261904Y-27476190D01*
X34214285Y-27047619D02*
X34261904Y-27000000D01*
X34357142Y-26952380D01*
X34595238Y-26952380D01*
X34690476Y-27000000D01*
X34738095Y-27047619D01*
X34785714Y-27142857D01*
X34785714Y-27238095D01*
X34738095Y-27380952D01*
X34166666Y-27952380D01*
X34785714Y-27952380D01*
G04 #@! TO.C,R3*
X33833333Y-21952380D02*
X33500000Y-21476190D01*
X33261904Y-21952380D02*
X33261904Y-20952380D01*
X33642857Y-20952380D01*
X33738095Y-21000000D01*
X33785714Y-21047619D01*
X33833333Y-21142857D01*
X33833333Y-21285714D01*
X33785714Y-21380952D01*
X33738095Y-21428571D01*
X33642857Y-21476190D01*
X33261904Y-21476190D01*
X34166666Y-20952380D02*
X34785714Y-20952380D01*
X34452380Y-21333333D01*
X34595238Y-21333333D01*
X34690476Y-21380952D01*
X34738095Y-21428571D01*
X34785714Y-21523809D01*
X34785714Y-21761904D01*
X34738095Y-21857142D01*
X34690476Y-21904761D01*
X34595238Y-21952380D01*
X34309523Y-21952380D01*
X34214285Y-21904761D01*
X34166666Y-21857142D01*
G04 #@! TO.C,R4*
X36833333Y-48952380D02*
X36500000Y-48476190D01*
X36261904Y-48952380D02*
X36261904Y-47952380D01*
X36642857Y-47952380D01*
X36738095Y-48000000D01*
X36785714Y-48047619D01*
X36833333Y-48142857D01*
X36833333Y-48285714D01*
X36785714Y-48380952D01*
X36738095Y-48428571D01*
X36642857Y-48476190D01*
X36261904Y-48476190D01*
X37690476Y-48285714D02*
X37690476Y-48952380D01*
X37452380Y-47904761D02*
X37214285Y-48619047D01*
X37833333Y-48619047D01*
G04 #@! TO.C,R5*
X49833333Y-50952380D02*
X49500000Y-50476190D01*
X49261904Y-50952380D02*
X49261904Y-49952380D01*
X49642857Y-49952380D01*
X49738095Y-50000000D01*
X49785714Y-50047619D01*
X49833333Y-50142857D01*
X49833333Y-50285714D01*
X49785714Y-50380952D01*
X49738095Y-50428571D01*
X49642857Y-50476190D01*
X49261904Y-50476190D01*
X50738095Y-49952380D02*
X50261904Y-49952380D01*
X50214285Y-50428571D01*
X50261904Y-50380952D01*
X50357142Y-50333333D01*
X50595238Y-50333333D01*
X50690476Y-50380952D01*
X50738095Y-50428571D01*
X50785714Y-50523809D01*
X50785714Y-50761904D01*
X50738095Y-50857142D01*
X50690476Y-50904761D01*
X50595238Y-50952380D01*
X50357142Y-50952380D01*
X50261904Y-50904761D01*
X50214285Y-50857142D01*
G04 #@! TO.C,U2*
X45738095Y-44952380D02*
X45738095Y-45761904D01*
X45785714Y-45857142D01*
X45833333Y-45904761D01*
X45928571Y-45952380D01*
X46119047Y-45952380D01*
X46214285Y-45904761D01*
X46261904Y-45857142D01*
X46309523Y-45761904D01*
X46309523Y-44952380D01*
X46738095Y-45047619D02*
X46785714Y-45000000D01*
X46880952Y-44952380D01*
X47119047Y-44952380D01*
X47214285Y-45000000D01*
X47261904Y-45047619D01*
X47309523Y-45142857D01*
X47309523Y-45238095D01*
X47261904Y-45380952D01*
X46690476Y-45952380D01*
X47309523Y-45952380D01*
G04 #@! TO.C,U1*
X24238095Y-24952380D02*
X24238095Y-25761904D01*
X24285714Y-25857142D01*
X24333333Y-25904761D01*
X24428571Y-25952380D01*
X24619047Y-25952380D01*
X24714285Y-25904761D01*
X24761904Y-25857142D01*
X24809523Y-25761904D01*
X24809523Y-24952380D01*
X25809523Y-25952380D02*
X25238095Y-25952380D01*
X25523809Y-25952380D02*
X25523809Y-24952380D01*
X25428571Y-25095238D01*
X25333333Y-25190476D01*
X25238095Y-25238095D01*
G04 #@! TO.C,REF\002A\002A*
X21666666Y-54552380D02*
X21333333Y-54076190D01*
X21095238Y-54552380D02*
X21095238Y-53552380D01*
X21476190Y-53552380D01*
X21571428Y-53600000D01*
X21619047Y-53647619D01*
X21666666Y-53742857D01*
X21666666Y-53885714D01*
X21619047Y-53980952D01*
X21571428Y-54028571D01*
X21476190Y-54076190D01*
X21095238Y-54076190D01*
X22095238Y-54028571D02*
X22428571Y-54028571D01*
X22571428Y-54552380D02*
X22095238Y-54552380D01*
X22095238Y-53552380D01*
X22571428Y-53552380D01*
X23333333Y-54028571D02*
X23000000Y-54028571D01*
X23000000Y-54552380D02*
X23000000Y-53552380D01*
X23476190Y-53552380D01*
X24000000Y-53552380D02*
X24000000Y-53790476D01*
X23761904Y-53695238D02*
X24000000Y-53790476D01*
X24238095Y-53695238D01*
X23857142Y-53980952D02*
X24000000Y-53790476D01*
X24142857Y-53980952D01*
X24761904Y-53552380D02*
X24761904Y-53790476D01*
X24523809Y-53695238D02*
X24761904Y-53790476D01*
X25000000Y-53695238D01*
X24619047Y-53980952D02*
X24761904Y-53790476D01*
X24904761Y-53980952D01*
X55666666Y-54552380D02*
X55333333Y-54076190D01*
X55095238Y-54552380D02*
X55095238Y-53552380D01*
X55476190Y-53552380D01*
X55571428Y-53600000D01*
X55619047Y-53647619D01*
X55666666Y-53742857D01*
X55666666Y-53885714D01*
X55619047Y-53980952D01*
X55571428Y-54028571D01*
X55476190Y-54076190D01*
X55095238Y-54076190D01*
X56095238Y-54028571D02*
X56428571Y-54028571D01*
X56571428Y-54552380D02*
X56095238Y-54552380D01*
X56095238Y-53552380D01*
X56571428Y-53552380D01*
X57333333Y-54028571D02*
X57000000Y-54028571D01*
X57000000Y-54552380D02*
X57000000Y-53552380D01*
X57476190Y-53552380D01*
X58000000Y-53552380D02*
X58000000Y-53790476D01*
X57761904Y-53695238D02*
X58000000Y-53790476D01*
X58238095Y-53695238D01*
X57857142Y-53980952D02*
X58000000Y-53790476D01*
X58142857Y-53980952D01*
X58761904Y-53552380D02*
X58761904Y-53790476D01*
X58523809Y-53695238D02*
X58761904Y-53790476D01*
X59000000Y-53695238D01*
X58619047Y-53980952D02*
X58761904Y-53790476D01*
X58904761Y-53980952D01*
X55666666Y-20552380D02*
X55333333Y-20076190D01*
X55095238Y-20552380D02*
X55095238Y-19552380D01*
X55476190Y-19552380D01*
X55571428Y-19600000D01*
X55619047Y-19647619D01*
X55666666Y-19742857D01*
X55666666Y-19885714D01*
X55619047Y-19980952D01*
X55571428Y-20028571D01*
X55476190Y-20076190D01*
X55095238Y-20076190D01*
X56095238Y-20028571D02*
X56428571Y-20028571D01*
X56571428Y-20552380D02*
X56095238Y-20552380D01*
X56095238Y-19552380D01*
X56571428Y-19552380D01*
X57333333Y-20028571D02*
X57000000Y-20028571D01*
X57000000Y-20552380D02*
X57000000Y-19552380D01*
X57476190Y-19552380D01*
X58000000Y-19552380D02*
X58000000Y-19790476D01*
X57761904Y-19695238D02*
X58000000Y-19790476D01*
X58238095Y-19695238D01*
X57857142Y-19980952D02*
X58000000Y-19790476D01*
X58142857Y-19980952D01*
X58761904Y-19552380D02*
X58761904Y-19790476D01*
X58523809Y-19695238D02*
X58761904Y-19790476D01*
X59000000Y-19695238D01*
X58619047Y-19980952D02*
X58761904Y-19790476D01*
X58904761Y-19980952D01*
X21666666Y-20552380D02*
X21333333Y-20076190D01*
X21095238Y-20552380D02*
X21095238Y-19552380D01*
X21476190Y-19552380D01*
X21571428Y-19600000D01*
X21619047Y-19647619D01*
X21666666Y-19742857D01*
X21666666Y-19885714D01*
X21619047Y-19980952D01*
X21571428Y-20028571D01*
X21476190Y-20076190D01*
X21095238Y-20076190D01*
X22095238Y-20028571D02*
X22428571Y-20028571D01*
X22571428Y-20552380D02*
X22095238Y-20552380D01*
X22095238Y-19552380D01*
X22571428Y-19552380D01*
X23333333Y-20028571D02*
X23000000Y-20028571D01*
X23000000Y-20552380D02*
X23000000Y-19552380D01*
X23476190Y-19552380D01*
X24000000Y-19552380D02*
X24000000Y-19790476D01*
X23761904Y-19695238D02*
X24000000Y-19790476D01*
X24238095Y-19695238D01*
X23857142Y-19980952D02*
X24000000Y-19790476D01*
X24142857Y-19980952D01*
X24761904Y-19552380D02*
X24761904Y-19790476D01*
X24523809Y-19695238D02*
X24761904Y-19790476D01*
X25000000Y-19695238D01*
X24619047Y-19980952D02*
X24761904Y-19790476D01*
X24904761Y-19980952D01*
G04 #@! TD*
M02*
