M48
;DRILL file {KiCad (5.0.2)-1} date 2019-02-15 20:24:42
;FORMAT={-:-/ absolute / metric / decimal}
FMAT,2
METRIC,TZ
T1C0.300
T2C0.500
T3C0.650
T4C0.750
T5C0.800
T6C1.000
T7C2.000
T8C2.540
T9C5.000
%
G90
G05
T1
X16.Y-23.
X16.Y-26.
X16.Y-29.
X16.Y-32.
X16.Y-35.
X16.Y-38.
X16.Y-41.
X16.Y-44.
X17.Y-51.
X18.Y-23.
X18.Y-26.
X18.Y-29.
X18.Y-32.
X18.Y-35.
X18.Y-38.
X18.Y-41.
X18.Y-44.
X18.Y-63.
X19.Y-51.
X19.5Y-59.
X19.9Y-45.65
X22.Y-32.
X23.3Y-44.6
X24.Y-23.
X24.Y-26.
X24.95Y-50.95
X25.3Y-43.2
X26.05Y-45.55
X26.775Y-32.3
X28.59Y-30.41
X29.Y-63.
X30.Y-35.
X30.Y-37.
X30.Y-39.
X30.35Y-48.1
X31.2Y-30.95
X31.5Y-45.5
X32.Y-37.
X32.Y-39.
X32.Y-41.
X33.7Y-36.9
X34.Y-39.
X34.Y-41.
X35.Y-25.
X35.Y-28.
X36.Y-39.
X36.Y-41.
X36.Y-52.
X37.Y-35.
X37.75Y-52.
X38.Y-63.
X40.Y-32.
X40.Y-49.
X40.3Y-41.3
X42.3Y-41.3
X43.Y-48.
X43.8Y-50.1
X44.Y-40.
X44.Y-42.
X44.Y-44.
X45.Y-22.
X45.Y-26.
X46.Y-40.
X46.Y-42.
X46.Y-44.
X47.Y-63.
X48.Y-22.
X48.Y-59.
X49.Y-34.5
X49.Y-40.
X49.Y-42.
X49.Y-44.
X50.4Y-28.9
X51.Y-27.
X51.Y-62.
X52.Y-53.
X53.6Y-37.6
X54.Y-25.
X54.Y-27.
X55.Y-50.1
X56.Y-35.
X56.Y-37.
X56.Y-39.
X57.Y-27.
X57.Y-59.
X60.Y-57.
X61.Y-43.
X61.Y-50.
X61.Y-62.
X63.1Y-56.6
X64.Y-43.
X64.Y-50.
X65.Y-61.
X66.Y-22.
X66.Y-25.
X66.Y-28.
X66.Y-31.
X66.Y-37.
X66.Y-39.
X66.Y-41.
X67.Y-43.
X67.Y-50.
X67.Y-55.
X67.Y-61.
X68.Y-39.
X68.Y-41.
X70.Y-16.
X70.Y-19.
X70.Y-22.
X70.Y-25.
X70.Y-28.
X70.Y-31.
X70.Y-55.
X70.Y-58.
X70.Y-60.
X73.Y-16.
X73.Y-19.
X73.Y-22.
X73.Y-25.
X73.Y-28.
X73.Y-31.
X73.Y-55.
X73.Y-58.
X73.Y-60.
X74.Y-43.
X74.Y-45.
X74.Y-47.
X74.Y-49.
X76.Y-43.
X76.Y-45.
X76.Y-47.
X76.Y-49.
X76.Y-55.
X76.Y-58.
X76.Y-60.
X77.Y-22.
X77.Y-25.
X77.Y-28.
X78.Y-43.
X78.Y-45.
X78.Y-47.
X78.Y-49.
X79.Y-55.
X79.Y-58.
X79.Y-60.
X79.Y-62.
X79.Y-64.
X81.Y-23.
X81.Y-26.
X81.Y-66.
X82.Y-58.
X83.Y-38.
X83.5Y-50.4
X84.Y-66.
X85.Y-58.
X87.Y-66.
X87.5Y-22.
X87.9Y-44.6
X88.Y-29.
X88.Y-58.
X89.Y-35.
X90.Y-66.
X91.Y-49.
X91.Y-52.
X91.Y-55.
X91.Y-58.
X93.Y-22.
X93.Y-60.
X93.Y-63.
X93.Y-66.
T3
X81.Y-50.4
X86.Y-50.4
T4
X62.6Y-36.56
X62.6Y-39.1
T5
X90.75Y-24.5
X90.75Y-26.5
X66.5Y-52.8
X74.12Y-52.8
X70.Y-43.8
X70.Y-46.34
X70.Y-48.88
X75.25Y-37.25
X75.25Y-39.25
T6
X28.193Y-55.375
X28.22Y-17.75
X30.733Y-55.375
X30.76Y-17.75
X33.273Y-55.375
X33.3Y-17.75
X35.813Y-55.375
X35.84Y-17.75
X38.353Y-55.375
X38.38Y-17.75
X40.893Y-55.375
X40.92Y-17.75
X43.433Y-55.375
X43.46Y-17.75
X45.973Y-55.375
X46.Y-17.75
X16.25Y-60.25
X16.25Y-64.75
X22.75Y-60.25
X22.75Y-64.75
X53.5Y-63.25
X56.04Y-63.25
X58.58Y-63.25
X25.25Y-60.25
X25.25Y-64.75
X31.75Y-60.25
X31.75Y-64.75
X63.13Y-63.25
X65.67Y-63.25
X68.21Y-63.25
X70.75Y-63.25
X73.29Y-63.25
X75.83Y-63.25
X43.25Y-60.25
X43.25Y-64.75
X49.75Y-60.25
X49.75Y-64.75
X91.75Y-36.92
X91.75Y-39.46
X91.75Y-42.
X91.75Y-16.5
X91.75Y-19.04
X34.25Y-60.25
X34.25Y-64.75
X40.75Y-60.25
X40.75Y-64.75
X62.54Y-15.61
X62.54Y-18.15
X62.54Y-20.69
X62.54Y-23.23
X62.54Y-25.77
X62.54Y-28.31
X62.54Y-30.85
X62.54Y-33.39
X74.91Y-25.77
X74.92Y-23.23
X74.92Y-28.31
T7
X84.Y-24.3
X84.Y-29.
X84.Y-33.7
T8
X77.5Y-17.
X77.5Y-32.
T9
X18.6Y-18.
X18.6Y-55.
X55.6Y-18.
X55.6Y-55.
T2
X81.45Y-18.1G85X81.45Y-17.4
G05
X88.05Y-18.1G85X88.05Y-17.4
G05
T0
M30
