G04 #@! TF.GenerationSoftware,KiCad,Pcbnew,(5.0.2)-1*
G04 #@! TF.CreationDate,2019-01-30T15:42:14+01:00*
G04 #@! TF.ProjectId,lab,6c61622e-6b69-4636-9164-5f7063625858,rev?*
G04 #@! TF.SameCoordinates,Original*
G04 #@! TF.FileFunction,Copper,L2,Bot*
G04 #@! TF.FilePolarity,Positive*
%FSLAX46Y46*%
G04 Gerber Fmt 4.6, Leading zero omitted, Abs format (unit mm)*
G04 Created by KiCad (PCBNEW (5.0.2)-1) date 30/01/2019 15:42:14*
%MOMM*%
%LPD*%
G01*
G04 APERTURE LIST*
G04 #@! TA.AperFunction,ComponentPad*
%ADD10C,1.600000*%
G04 #@! TD*
G04 #@! TA.AperFunction,ComponentPad*
%ADD11R,1.600000X1.600000*%
G04 #@! TD*
G04 #@! TA.AperFunction,ComponentPad*
%ADD12R,1.700000X1.700000*%
G04 #@! TD*
G04 #@! TA.AperFunction,ComponentPad*
%ADD13O,1.700000X1.700000*%
G04 #@! TD*
G04 #@! TA.AperFunction,ViaPad*
%ADD14C,0.800000*%
G04 #@! TD*
G04 #@! TA.AperFunction,Conductor*
%ADD15C,0.400000*%
G04 #@! TD*
G04 #@! TA.AperFunction,Conductor*
%ADD16C,0.200000*%
G04 #@! TD*
G04 #@! TA.AperFunction,Conductor*
%ADD17C,0.254000*%
G04 #@! TD*
G04 APERTURE END LIST*
D10*
G04 #@! TO.P,C1,2*
G04 #@! TO.N,GND*
X23000000Y-38000000D03*
D11*
G04 #@! TO.P,C1,1*
G04 #@! TO.N,+5V*
X25000000Y-38000000D03*
G04 #@! TD*
G04 #@! TO.P,C5,1*
G04 #@! TO.N,+3V3*
X44000000Y-24000000D03*
D10*
G04 #@! TO.P,C5,2*
G04 #@! TO.N,GND*
X46000000Y-24000000D03*
G04 #@! TD*
D12*
G04 #@! TO.P,J2,1*
G04 #@! TO.N,+3V3*
X40000000Y-56000000D03*
D13*
G04 #@! TO.P,J2,2*
G04 #@! TO.N,/SWCLK*
X42540000Y-56000000D03*
G04 #@! TO.P,J2,3*
G04 #@! TO.N,GND*
X45080000Y-56000000D03*
G04 #@! TO.P,J2,4*
G04 #@! TO.N,/SWDIO*
X47620000Y-56000000D03*
G04 #@! TO.P,J2,5*
G04 #@! TO.N,/NRST*
X50160000Y-56000000D03*
G04 #@! TO.P,J2,6*
G04 #@! TO.N,/SWO*
X52700000Y-56000000D03*
G04 #@! TD*
D14*
G04 #@! TO.N,GND*
X37000000Y-38000000D03*
X37000000Y-40000000D03*
X39000000Y-40000000D03*
X39000000Y-38000000D03*
X41000000Y-38000000D03*
X43000000Y-38000000D03*
X43000000Y-40000000D03*
X41000000Y-40000000D03*
X41000000Y-42000000D03*
X41000000Y-36000000D03*
X39000000Y-36000000D03*
X23000000Y-40000000D03*
X23000000Y-36000000D03*
X23000000Y-43000000D03*
X23000000Y-47000000D03*
X26000000Y-49000000D03*
X24000000Y-51000000D03*
X29000000Y-57000000D03*
X36000000Y-54000000D03*
X29000000Y-40000000D03*
X31000000Y-38000000D03*
X33000000Y-33000000D03*
X44000000Y-29000000D03*
X48000000Y-29000000D03*
X50000000Y-29000000D03*
X50000000Y-27000000D03*
X42000000Y-26000000D03*
X39500000Y-29000000D03*
X40000000Y-31000000D03*
X44000000Y-32500000D03*
X36500000Y-23000000D03*
X31500000Y-23000000D03*
X27000000Y-22500000D03*
X25500000Y-24000000D03*
X27000000Y-25500000D03*
X23000000Y-27000000D03*
X25000000Y-30000000D03*
X23000000Y-33000000D03*
X50000000Y-22500000D03*
X54000000Y-22500000D03*
X54000000Y-27000000D03*
X45000000Y-58000000D03*
X49000000Y-58000000D03*
X51000000Y-48500000D03*
X48000000Y-46000000D03*
X31000000Y-45500000D03*
X32500000Y-47000000D03*
X35000000Y-48000000D03*
X42500000Y-52500000D03*
G04 #@! TO.N,+3V3*
X49000000Y-28000000D03*
X44500000Y-27500000D03*
X40500000Y-27500000D03*
X27500000Y-31500000D03*
X42500000Y-50500000D03*
X27500000Y-45000000D03*
X31900000Y-27500000D03*
X36500000Y-27500000D03*
G04 #@! TO.N,/SWCLK*
X36900000Y-44000000D03*
G04 #@! TO.N,/SWDIO*
X37900000Y-44000000D03*
G04 #@! TO.N,/NRST*
X45800000Y-52500000D03*
X44399999Y-42199999D03*
G04 #@! TO.N,/SWO*
X38900000Y-44000000D03*
G04 #@! TD*
D15*
G04 #@! TO.N,+3V3*
X48500000Y-27500000D02*
X49000000Y-28000000D01*
X44500000Y-27500000D02*
X48500000Y-27500000D01*
X40500000Y-27500000D02*
X44500000Y-27500000D01*
X27500000Y-31500000D02*
X27500000Y-45000000D01*
X27500000Y-45000000D02*
X32000000Y-49500000D01*
X32000000Y-49500000D02*
X36500000Y-49500000D01*
X36500000Y-49500000D02*
X37500000Y-50500000D01*
X37500000Y-50500000D02*
X42500000Y-50500000D01*
X31900000Y-27500000D02*
X32465685Y-27500000D01*
X36500000Y-27500000D02*
X40500000Y-27500000D01*
X32465685Y-27500000D02*
X36500000Y-27500000D01*
D16*
G04 #@! TO.N,/SWCLK*
X38800000Y-49500000D02*
X36900000Y-47600000D01*
X43300000Y-49500000D02*
X38800000Y-49500000D01*
X43600000Y-49800000D02*
X43300000Y-49500000D01*
X43600000Y-53200000D02*
X43600000Y-49800000D01*
X42540000Y-56000000D02*
X42540000Y-54260000D01*
X42540000Y-54260000D02*
X43600000Y-53200000D01*
X36900000Y-47600000D02*
X36900000Y-44000000D01*
G04 #@! TO.N,/SWDIO*
X39100000Y-48800000D02*
X37900000Y-47600000D01*
X43700000Y-48800000D02*
X39100000Y-48800000D01*
X47620000Y-54520000D02*
X47300000Y-54200000D01*
X47300000Y-54200000D02*
X45300000Y-54200000D01*
X47620000Y-56000000D02*
X47620000Y-54520000D01*
X45300000Y-54200000D02*
X44300000Y-53200000D01*
X44300000Y-53200000D02*
X44300000Y-49400000D01*
X44300000Y-49400000D02*
X43700000Y-48800000D01*
X37900000Y-47600000D02*
X37900000Y-44000000D01*
G04 #@! TO.N,/NRST*
X44799998Y-42599998D02*
X44399999Y-42199999D01*
X45800000Y-43600000D02*
X44799998Y-42599998D01*
X45800000Y-52500000D02*
X45800000Y-43600000D01*
G04 #@! TO.N,/SWO*
X39400000Y-48100000D02*
X38900000Y-47600000D01*
X44300000Y-48100000D02*
X39400000Y-48100000D01*
X52700000Y-54200000D02*
X52000000Y-53500000D01*
X52700000Y-56000000D02*
X52700000Y-54200000D01*
X45600000Y-53500000D02*
X45000000Y-52900000D01*
X45000000Y-52900000D02*
X45000000Y-48800000D01*
X52000000Y-53500000D02*
X45600000Y-53500000D01*
X45000000Y-48800000D02*
X44300000Y-48100000D01*
X38900000Y-47600000D02*
X38900000Y-44000000D01*
G04 #@! TD*
D17*
G04 #@! TO.N,GND*
G36*
X59290001Y-59290000D02*
X20710000Y-59290000D01*
X20710000Y-56654887D01*
X21265000Y-56654887D01*
X21265000Y-57345113D01*
X21529138Y-57982799D01*
X22017201Y-58470862D01*
X22654887Y-58735000D01*
X23345113Y-58735000D01*
X23982799Y-58470862D01*
X24470862Y-57982799D01*
X24735000Y-57345113D01*
X24735000Y-56654887D01*
X24470862Y-56017201D01*
X23982799Y-55529138D01*
X23345113Y-55265000D01*
X22654887Y-55265000D01*
X22017201Y-55529138D01*
X21529138Y-56017201D01*
X21265000Y-56654887D01*
X20710000Y-56654887D01*
X20710000Y-53774234D01*
X27665000Y-53774234D01*
X27665000Y-54225766D01*
X27837793Y-54642926D01*
X28157074Y-54962207D01*
X28574234Y-55135000D01*
X29025766Y-55135000D01*
X29442926Y-54962207D01*
X29762207Y-54642926D01*
X29935000Y-54225766D01*
X29935000Y-53774234D01*
X32065000Y-53774234D01*
X32065000Y-54225766D01*
X32237793Y-54642926D01*
X32557074Y-54962207D01*
X32974234Y-55135000D01*
X33425766Y-55135000D01*
X33842926Y-54962207D01*
X34162207Y-54642926D01*
X34335000Y-54225766D01*
X34335000Y-53774234D01*
X34162207Y-53357074D01*
X33842926Y-53037793D01*
X33425766Y-52865000D01*
X32974234Y-52865000D01*
X32557074Y-53037793D01*
X32237793Y-53357074D01*
X32065000Y-53774234D01*
X29935000Y-53774234D01*
X29762207Y-53357074D01*
X29442926Y-53037793D01*
X29025766Y-52865000D01*
X28574234Y-52865000D01*
X28157074Y-53037793D01*
X27837793Y-53357074D01*
X27665000Y-53774234D01*
X20710000Y-53774234D01*
X20710000Y-37783223D01*
X21553035Y-37783223D01*
X21580222Y-38353454D01*
X21746136Y-38754005D01*
X21992255Y-38828139D01*
X22820395Y-38000000D01*
X21992255Y-37171861D01*
X21746136Y-37245995D01*
X21553035Y-37783223D01*
X20710000Y-37783223D01*
X20710000Y-36992255D01*
X22171861Y-36992255D01*
X23000000Y-37820395D01*
X23014142Y-37806252D01*
X23193748Y-37985858D01*
X23179605Y-38000000D01*
X23193748Y-38014143D01*
X23014142Y-38193748D01*
X23000000Y-38179605D01*
X22171861Y-39007745D01*
X22245995Y-39253864D01*
X22783223Y-39446965D01*
X23353454Y-39419778D01*
X23743067Y-39258395D01*
X23952235Y-39398157D01*
X24200000Y-39447440D01*
X25800000Y-39447440D01*
X26047765Y-39398157D01*
X26257809Y-39257809D01*
X26398157Y-39047765D01*
X26447440Y-38800000D01*
X26447440Y-37200000D01*
X26398157Y-36952235D01*
X26257809Y-36742191D01*
X26047765Y-36601843D01*
X25800000Y-36552560D01*
X24200000Y-36552560D01*
X23952235Y-36601843D01*
X23742484Y-36741995D01*
X23216777Y-36553035D01*
X22646546Y-36580222D01*
X22245995Y-36746136D01*
X22171861Y-36992255D01*
X20710000Y-36992255D01*
X20710000Y-31294126D01*
X26465000Y-31294126D01*
X26465000Y-31705874D01*
X26622569Y-32086280D01*
X26665000Y-32128711D01*
X26665001Y-44371288D01*
X26622569Y-44413720D01*
X26465000Y-44794126D01*
X26465000Y-45205874D01*
X26622569Y-45586280D01*
X26913720Y-45877431D01*
X27294126Y-46035000D01*
X27354133Y-46035000D01*
X31351415Y-50032283D01*
X31397999Y-50102001D01*
X31674199Y-50286552D01*
X31917763Y-50335000D01*
X31917766Y-50335000D01*
X31999999Y-50351357D01*
X32082232Y-50335000D01*
X36154133Y-50335000D01*
X36851415Y-51032282D01*
X36897999Y-51102001D01*
X37174199Y-51286552D01*
X37417763Y-51335000D01*
X37500000Y-51351358D01*
X37582237Y-51335000D01*
X41871289Y-51335000D01*
X41913720Y-51377431D01*
X42294126Y-51535000D01*
X42705874Y-51535000D01*
X42865001Y-51469088D01*
X42865000Y-52895553D01*
X42071463Y-53689091D01*
X42010096Y-53730095D01*
X41969092Y-53791462D01*
X41969091Y-53791463D01*
X41847646Y-53973218D01*
X41790602Y-54260000D01*
X41805001Y-54332389D01*
X41805001Y-54705117D01*
X41469375Y-54929375D01*
X41457184Y-54947619D01*
X41448157Y-54902235D01*
X41307809Y-54692191D01*
X41097765Y-54551843D01*
X40850000Y-54502560D01*
X39150000Y-54502560D01*
X38902235Y-54551843D01*
X38692191Y-54692191D01*
X38551843Y-54902235D01*
X38502560Y-55150000D01*
X38502560Y-56850000D01*
X38551843Y-57097765D01*
X38692191Y-57307809D01*
X38902235Y-57448157D01*
X39150000Y-57497440D01*
X40850000Y-57497440D01*
X41097765Y-57448157D01*
X41307809Y-57307809D01*
X41448157Y-57097765D01*
X41457184Y-57052381D01*
X41469375Y-57070625D01*
X41960582Y-57398839D01*
X42393744Y-57485000D01*
X42686256Y-57485000D01*
X43119418Y-57398839D01*
X43610625Y-57070625D01*
X43823843Y-56751522D01*
X43884817Y-56881358D01*
X44313076Y-57271645D01*
X44723110Y-57441476D01*
X44953000Y-57320155D01*
X44953000Y-56127000D01*
X44933000Y-56127000D01*
X44933000Y-55873000D01*
X44953000Y-55873000D01*
X44953000Y-55853000D01*
X45207000Y-55853000D01*
X45207000Y-55873000D01*
X45227000Y-55873000D01*
X45227000Y-56127000D01*
X45207000Y-56127000D01*
X45207000Y-57320155D01*
X45436890Y-57441476D01*
X45846924Y-57271645D01*
X46275183Y-56881358D01*
X46336157Y-56751522D01*
X46549375Y-57070625D01*
X47040582Y-57398839D01*
X47473744Y-57485000D01*
X47766256Y-57485000D01*
X48199418Y-57398839D01*
X48690625Y-57070625D01*
X48890000Y-56772239D01*
X49089375Y-57070625D01*
X49580582Y-57398839D01*
X50013744Y-57485000D01*
X50306256Y-57485000D01*
X50739418Y-57398839D01*
X51230625Y-57070625D01*
X51430000Y-56772239D01*
X51629375Y-57070625D01*
X52120582Y-57398839D01*
X52553744Y-57485000D01*
X52846256Y-57485000D01*
X53279418Y-57398839D01*
X53770625Y-57070625D01*
X54048412Y-56654887D01*
X55265000Y-56654887D01*
X55265000Y-57345113D01*
X55529138Y-57982799D01*
X56017201Y-58470862D01*
X56654887Y-58735000D01*
X57345113Y-58735000D01*
X57982799Y-58470862D01*
X58470862Y-57982799D01*
X58735000Y-57345113D01*
X58735000Y-56654887D01*
X58470862Y-56017201D01*
X57982799Y-55529138D01*
X57345113Y-55265000D01*
X56654887Y-55265000D01*
X56017201Y-55529138D01*
X55529138Y-56017201D01*
X55265000Y-56654887D01*
X54048412Y-56654887D01*
X54098839Y-56579418D01*
X54214092Y-56000000D01*
X54098839Y-55420582D01*
X53770625Y-54929375D01*
X53435000Y-54705118D01*
X53435000Y-54272383D01*
X53449398Y-54199999D01*
X53435000Y-54127615D01*
X53435000Y-54127612D01*
X53392354Y-53913217D01*
X53229905Y-53670095D01*
X53168537Y-53629090D01*
X52570911Y-53031465D01*
X52529905Y-52970095D01*
X52286783Y-52807646D01*
X52072388Y-52765000D01*
X52072384Y-52765000D01*
X52000000Y-52750602D01*
X51927616Y-52765000D01*
X46810509Y-52765000D01*
X46835000Y-52705874D01*
X46835000Y-52294126D01*
X46677431Y-51913720D01*
X46535000Y-51771289D01*
X46535000Y-43672383D01*
X46549398Y-43599999D01*
X46535000Y-43527615D01*
X46535000Y-43527612D01*
X46492354Y-43313217D01*
X46329905Y-43070095D01*
X46268537Y-43029090D01*
X45434999Y-42195553D01*
X45434999Y-41994125D01*
X45277430Y-41613719D01*
X44986279Y-41322568D01*
X44605873Y-41164999D01*
X44194125Y-41164999D01*
X43813719Y-41322568D01*
X43522568Y-41613719D01*
X43364999Y-41994125D01*
X43364999Y-42405873D01*
X43522568Y-42786279D01*
X43813719Y-43077430D01*
X44194125Y-43234999D01*
X44395553Y-43234999D01*
X45065001Y-43904448D01*
X45065001Y-47825554D01*
X44870911Y-47631465D01*
X44829905Y-47570095D01*
X44586783Y-47407646D01*
X44372388Y-47365000D01*
X44372384Y-47365000D01*
X44300000Y-47350602D01*
X44227616Y-47365000D01*
X39704447Y-47365000D01*
X39635000Y-47295554D01*
X39635000Y-44728711D01*
X39777431Y-44586280D01*
X39935000Y-44205874D01*
X39935000Y-43794126D01*
X39777431Y-43413720D01*
X39486280Y-43122569D01*
X39105874Y-42965000D01*
X38694126Y-42965000D01*
X38400000Y-43086831D01*
X38105874Y-42965000D01*
X37694126Y-42965000D01*
X37400000Y-43086831D01*
X37105874Y-42965000D01*
X36694126Y-42965000D01*
X36313720Y-43122569D01*
X36022569Y-43413720D01*
X35865000Y-43794126D01*
X35865000Y-44205874D01*
X36022569Y-44586280D01*
X36165001Y-44728712D01*
X36165000Y-47527616D01*
X36150602Y-47600000D01*
X36165000Y-47672384D01*
X36165000Y-47672387D01*
X36207646Y-47886782D01*
X36370095Y-48129905D01*
X36431465Y-48170911D01*
X37925553Y-49665000D01*
X37845868Y-49665000D01*
X37148587Y-48967720D01*
X37102001Y-48897999D01*
X36825801Y-48713448D01*
X36582237Y-48665000D01*
X36582233Y-48665000D01*
X36500000Y-48648643D01*
X36417767Y-48665000D01*
X32345868Y-48665000D01*
X28535000Y-44854133D01*
X28535000Y-44794126D01*
X28377431Y-44413720D01*
X28335000Y-44371289D01*
X28335000Y-32128711D01*
X28377431Y-32086280D01*
X28535000Y-31705874D01*
X28535000Y-31294126D01*
X28377431Y-30913720D01*
X28086280Y-30622569D01*
X27705874Y-30465000D01*
X27294126Y-30465000D01*
X26913720Y-30622569D01*
X26622569Y-30913720D01*
X26465000Y-31294126D01*
X20710000Y-31294126D01*
X20710000Y-27294126D01*
X30865000Y-27294126D01*
X30865000Y-27705874D01*
X31022569Y-28086280D01*
X31313720Y-28377431D01*
X31694126Y-28535000D01*
X32105874Y-28535000D01*
X32486280Y-28377431D01*
X32528711Y-28335000D01*
X35871289Y-28335000D01*
X35913720Y-28377431D01*
X36294126Y-28535000D01*
X36705874Y-28535000D01*
X37086280Y-28377431D01*
X37128711Y-28335000D01*
X39871289Y-28335000D01*
X39913720Y-28377431D01*
X40294126Y-28535000D01*
X40705874Y-28535000D01*
X41086280Y-28377431D01*
X41128711Y-28335000D01*
X43871289Y-28335000D01*
X43913720Y-28377431D01*
X44294126Y-28535000D01*
X44705874Y-28535000D01*
X45086280Y-28377431D01*
X45128711Y-28335000D01*
X48018486Y-28335000D01*
X48122569Y-28586280D01*
X48413720Y-28877431D01*
X48794126Y-29035000D01*
X49205874Y-29035000D01*
X49586280Y-28877431D01*
X49877431Y-28586280D01*
X50035000Y-28205874D01*
X50035000Y-27794126D01*
X49877431Y-27413720D01*
X49586280Y-27122569D01*
X49205874Y-26965000D01*
X49146770Y-26965000D01*
X49102001Y-26897999D01*
X48825801Y-26713448D01*
X48582237Y-26665000D01*
X48582233Y-26665000D01*
X48500000Y-26648643D01*
X48417767Y-26665000D01*
X45128711Y-26665000D01*
X45086280Y-26622569D01*
X44705874Y-26465000D01*
X44294126Y-26465000D01*
X43913720Y-26622569D01*
X43871289Y-26665000D01*
X41128711Y-26665000D01*
X41086280Y-26622569D01*
X40705874Y-26465000D01*
X40294126Y-26465000D01*
X39913720Y-26622569D01*
X39871289Y-26665000D01*
X37128711Y-26665000D01*
X37086280Y-26622569D01*
X36705874Y-26465000D01*
X36294126Y-26465000D01*
X35913720Y-26622569D01*
X35871289Y-26665000D01*
X32528711Y-26665000D01*
X32486280Y-26622569D01*
X32105874Y-26465000D01*
X31694126Y-26465000D01*
X31313720Y-26622569D01*
X31022569Y-26913720D01*
X30865000Y-27294126D01*
X20710000Y-27294126D01*
X20710000Y-22654887D01*
X21265000Y-22654887D01*
X21265000Y-23345113D01*
X21529138Y-23982799D01*
X22017201Y-24470862D01*
X22654887Y-24735000D01*
X23345113Y-24735000D01*
X23982799Y-24470862D01*
X24470862Y-23982799D01*
X24735000Y-23345113D01*
X24735000Y-23200000D01*
X42552560Y-23200000D01*
X42552560Y-24800000D01*
X42601843Y-25047765D01*
X42742191Y-25257809D01*
X42952235Y-25398157D01*
X43200000Y-25447440D01*
X44800000Y-25447440D01*
X45047765Y-25398157D01*
X45257516Y-25258005D01*
X45783223Y-25446965D01*
X46353454Y-25419778D01*
X46754005Y-25253864D01*
X46828139Y-25007745D01*
X46000000Y-24179605D01*
X45985858Y-24193748D01*
X45806253Y-24014143D01*
X45820395Y-24000000D01*
X46179605Y-24000000D01*
X47007745Y-24828139D01*
X47253864Y-24754005D01*
X47446965Y-24216777D01*
X47419778Y-23646546D01*
X47253864Y-23245995D01*
X47007745Y-23171861D01*
X46179605Y-24000000D01*
X45820395Y-24000000D01*
X45806253Y-23985858D01*
X45985858Y-23806252D01*
X46000000Y-23820395D01*
X46828139Y-22992255D01*
X46754005Y-22746136D01*
X46500141Y-22654887D01*
X55265000Y-22654887D01*
X55265000Y-23345113D01*
X55529138Y-23982799D01*
X56017201Y-24470862D01*
X56654887Y-24735000D01*
X57345113Y-24735000D01*
X57982799Y-24470862D01*
X58470862Y-23982799D01*
X58735000Y-23345113D01*
X58735000Y-22654887D01*
X58470862Y-22017201D01*
X57982799Y-21529138D01*
X57345113Y-21265000D01*
X56654887Y-21265000D01*
X56017201Y-21529138D01*
X55529138Y-22017201D01*
X55265000Y-22654887D01*
X46500141Y-22654887D01*
X46216777Y-22553035D01*
X45646546Y-22580222D01*
X45256933Y-22741605D01*
X45047765Y-22601843D01*
X44800000Y-22552560D01*
X43200000Y-22552560D01*
X42952235Y-22601843D01*
X42742191Y-22742191D01*
X42601843Y-22952235D01*
X42552560Y-23200000D01*
X24735000Y-23200000D01*
X24735000Y-22654887D01*
X24470862Y-22017201D01*
X23982799Y-21529138D01*
X23345113Y-21265000D01*
X22654887Y-21265000D01*
X22017201Y-21529138D01*
X21529138Y-22017201D01*
X21265000Y-22654887D01*
X20710000Y-22654887D01*
X20710000Y-20710000D01*
X59290000Y-20710000D01*
X59290001Y-59290000D01*
X59290001Y-59290000D01*
G37*
X59290001Y-59290000D02*
X20710000Y-59290000D01*
X20710000Y-56654887D01*
X21265000Y-56654887D01*
X21265000Y-57345113D01*
X21529138Y-57982799D01*
X22017201Y-58470862D01*
X22654887Y-58735000D01*
X23345113Y-58735000D01*
X23982799Y-58470862D01*
X24470862Y-57982799D01*
X24735000Y-57345113D01*
X24735000Y-56654887D01*
X24470862Y-56017201D01*
X23982799Y-55529138D01*
X23345113Y-55265000D01*
X22654887Y-55265000D01*
X22017201Y-55529138D01*
X21529138Y-56017201D01*
X21265000Y-56654887D01*
X20710000Y-56654887D01*
X20710000Y-53774234D01*
X27665000Y-53774234D01*
X27665000Y-54225766D01*
X27837793Y-54642926D01*
X28157074Y-54962207D01*
X28574234Y-55135000D01*
X29025766Y-55135000D01*
X29442926Y-54962207D01*
X29762207Y-54642926D01*
X29935000Y-54225766D01*
X29935000Y-53774234D01*
X32065000Y-53774234D01*
X32065000Y-54225766D01*
X32237793Y-54642926D01*
X32557074Y-54962207D01*
X32974234Y-55135000D01*
X33425766Y-55135000D01*
X33842926Y-54962207D01*
X34162207Y-54642926D01*
X34335000Y-54225766D01*
X34335000Y-53774234D01*
X34162207Y-53357074D01*
X33842926Y-53037793D01*
X33425766Y-52865000D01*
X32974234Y-52865000D01*
X32557074Y-53037793D01*
X32237793Y-53357074D01*
X32065000Y-53774234D01*
X29935000Y-53774234D01*
X29762207Y-53357074D01*
X29442926Y-53037793D01*
X29025766Y-52865000D01*
X28574234Y-52865000D01*
X28157074Y-53037793D01*
X27837793Y-53357074D01*
X27665000Y-53774234D01*
X20710000Y-53774234D01*
X20710000Y-37783223D01*
X21553035Y-37783223D01*
X21580222Y-38353454D01*
X21746136Y-38754005D01*
X21992255Y-38828139D01*
X22820395Y-38000000D01*
X21992255Y-37171861D01*
X21746136Y-37245995D01*
X21553035Y-37783223D01*
X20710000Y-37783223D01*
X20710000Y-36992255D01*
X22171861Y-36992255D01*
X23000000Y-37820395D01*
X23014142Y-37806252D01*
X23193748Y-37985858D01*
X23179605Y-38000000D01*
X23193748Y-38014143D01*
X23014142Y-38193748D01*
X23000000Y-38179605D01*
X22171861Y-39007745D01*
X22245995Y-39253864D01*
X22783223Y-39446965D01*
X23353454Y-39419778D01*
X23743067Y-39258395D01*
X23952235Y-39398157D01*
X24200000Y-39447440D01*
X25800000Y-39447440D01*
X26047765Y-39398157D01*
X26257809Y-39257809D01*
X26398157Y-39047765D01*
X26447440Y-38800000D01*
X26447440Y-37200000D01*
X26398157Y-36952235D01*
X26257809Y-36742191D01*
X26047765Y-36601843D01*
X25800000Y-36552560D01*
X24200000Y-36552560D01*
X23952235Y-36601843D01*
X23742484Y-36741995D01*
X23216777Y-36553035D01*
X22646546Y-36580222D01*
X22245995Y-36746136D01*
X22171861Y-36992255D01*
X20710000Y-36992255D01*
X20710000Y-31294126D01*
X26465000Y-31294126D01*
X26465000Y-31705874D01*
X26622569Y-32086280D01*
X26665000Y-32128711D01*
X26665001Y-44371288D01*
X26622569Y-44413720D01*
X26465000Y-44794126D01*
X26465000Y-45205874D01*
X26622569Y-45586280D01*
X26913720Y-45877431D01*
X27294126Y-46035000D01*
X27354133Y-46035000D01*
X31351415Y-50032283D01*
X31397999Y-50102001D01*
X31674199Y-50286552D01*
X31917763Y-50335000D01*
X31917766Y-50335000D01*
X31999999Y-50351357D01*
X32082232Y-50335000D01*
X36154133Y-50335000D01*
X36851415Y-51032282D01*
X36897999Y-51102001D01*
X37174199Y-51286552D01*
X37417763Y-51335000D01*
X37500000Y-51351358D01*
X37582237Y-51335000D01*
X41871289Y-51335000D01*
X41913720Y-51377431D01*
X42294126Y-51535000D01*
X42705874Y-51535000D01*
X42865001Y-51469088D01*
X42865000Y-52895553D01*
X42071463Y-53689091D01*
X42010096Y-53730095D01*
X41969092Y-53791462D01*
X41969091Y-53791463D01*
X41847646Y-53973218D01*
X41790602Y-54260000D01*
X41805001Y-54332389D01*
X41805001Y-54705117D01*
X41469375Y-54929375D01*
X41457184Y-54947619D01*
X41448157Y-54902235D01*
X41307809Y-54692191D01*
X41097765Y-54551843D01*
X40850000Y-54502560D01*
X39150000Y-54502560D01*
X38902235Y-54551843D01*
X38692191Y-54692191D01*
X38551843Y-54902235D01*
X38502560Y-55150000D01*
X38502560Y-56850000D01*
X38551843Y-57097765D01*
X38692191Y-57307809D01*
X38902235Y-57448157D01*
X39150000Y-57497440D01*
X40850000Y-57497440D01*
X41097765Y-57448157D01*
X41307809Y-57307809D01*
X41448157Y-57097765D01*
X41457184Y-57052381D01*
X41469375Y-57070625D01*
X41960582Y-57398839D01*
X42393744Y-57485000D01*
X42686256Y-57485000D01*
X43119418Y-57398839D01*
X43610625Y-57070625D01*
X43823843Y-56751522D01*
X43884817Y-56881358D01*
X44313076Y-57271645D01*
X44723110Y-57441476D01*
X44953000Y-57320155D01*
X44953000Y-56127000D01*
X44933000Y-56127000D01*
X44933000Y-55873000D01*
X44953000Y-55873000D01*
X44953000Y-55853000D01*
X45207000Y-55853000D01*
X45207000Y-55873000D01*
X45227000Y-55873000D01*
X45227000Y-56127000D01*
X45207000Y-56127000D01*
X45207000Y-57320155D01*
X45436890Y-57441476D01*
X45846924Y-57271645D01*
X46275183Y-56881358D01*
X46336157Y-56751522D01*
X46549375Y-57070625D01*
X47040582Y-57398839D01*
X47473744Y-57485000D01*
X47766256Y-57485000D01*
X48199418Y-57398839D01*
X48690625Y-57070625D01*
X48890000Y-56772239D01*
X49089375Y-57070625D01*
X49580582Y-57398839D01*
X50013744Y-57485000D01*
X50306256Y-57485000D01*
X50739418Y-57398839D01*
X51230625Y-57070625D01*
X51430000Y-56772239D01*
X51629375Y-57070625D01*
X52120582Y-57398839D01*
X52553744Y-57485000D01*
X52846256Y-57485000D01*
X53279418Y-57398839D01*
X53770625Y-57070625D01*
X54048412Y-56654887D01*
X55265000Y-56654887D01*
X55265000Y-57345113D01*
X55529138Y-57982799D01*
X56017201Y-58470862D01*
X56654887Y-58735000D01*
X57345113Y-58735000D01*
X57982799Y-58470862D01*
X58470862Y-57982799D01*
X58735000Y-57345113D01*
X58735000Y-56654887D01*
X58470862Y-56017201D01*
X57982799Y-55529138D01*
X57345113Y-55265000D01*
X56654887Y-55265000D01*
X56017201Y-55529138D01*
X55529138Y-56017201D01*
X55265000Y-56654887D01*
X54048412Y-56654887D01*
X54098839Y-56579418D01*
X54214092Y-56000000D01*
X54098839Y-55420582D01*
X53770625Y-54929375D01*
X53435000Y-54705118D01*
X53435000Y-54272383D01*
X53449398Y-54199999D01*
X53435000Y-54127615D01*
X53435000Y-54127612D01*
X53392354Y-53913217D01*
X53229905Y-53670095D01*
X53168537Y-53629090D01*
X52570911Y-53031465D01*
X52529905Y-52970095D01*
X52286783Y-52807646D01*
X52072388Y-52765000D01*
X52072384Y-52765000D01*
X52000000Y-52750602D01*
X51927616Y-52765000D01*
X46810509Y-52765000D01*
X46835000Y-52705874D01*
X46835000Y-52294126D01*
X46677431Y-51913720D01*
X46535000Y-51771289D01*
X46535000Y-43672383D01*
X46549398Y-43599999D01*
X46535000Y-43527615D01*
X46535000Y-43527612D01*
X46492354Y-43313217D01*
X46329905Y-43070095D01*
X46268537Y-43029090D01*
X45434999Y-42195553D01*
X45434999Y-41994125D01*
X45277430Y-41613719D01*
X44986279Y-41322568D01*
X44605873Y-41164999D01*
X44194125Y-41164999D01*
X43813719Y-41322568D01*
X43522568Y-41613719D01*
X43364999Y-41994125D01*
X43364999Y-42405873D01*
X43522568Y-42786279D01*
X43813719Y-43077430D01*
X44194125Y-43234999D01*
X44395553Y-43234999D01*
X45065001Y-43904448D01*
X45065001Y-47825554D01*
X44870911Y-47631465D01*
X44829905Y-47570095D01*
X44586783Y-47407646D01*
X44372388Y-47365000D01*
X44372384Y-47365000D01*
X44300000Y-47350602D01*
X44227616Y-47365000D01*
X39704447Y-47365000D01*
X39635000Y-47295554D01*
X39635000Y-44728711D01*
X39777431Y-44586280D01*
X39935000Y-44205874D01*
X39935000Y-43794126D01*
X39777431Y-43413720D01*
X39486280Y-43122569D01*
X39105874Y-42965000D01*
X38694126Y-42965000D01*
X38400000Y-43086831D01*
X38105874Y-42965000D01*
X37694126Y-42965000D01*
X37400000Y-43086831D01*
X37105874Y-42965000D01*
X36694126Y-42965000D01*
X36313720Y-43122569D01*
X36022569Y-43413720D01*
X35865000Y-43794126D01*
X35865000Y-44205874D01*
X36022569Y-44586280D01*
X36165001Y-44728712D01*
X36165000Y-47527616D01*
X36150602Y-47600000D01*
X36165000Y-47672384D01*
X36165000Y-47672387D01*
X36207646Y-47886782D01*
X36370095Y-48129905D01*
X36431465Y-48170911D01*
X37925553Y-49665000D01*
X37845868Y-49665000D01*
X37148587Y-48967720D01*
X37102001Y-48897999D01*
X36825801Y-48713448D01*
X36582237Y-48665000D01*
X36582233Y-48665000D01*
X36500000Y-48648643D01*
X36417767Y-48665000D01*
X32345868Y-48665000D01*
X28535000Y-44854133D01*
X28535000Y-44794126D01*
X28377431Y-44413720D01*
X28335000Y-44371289D01*
X28335000Y-32128711D01*
X28377431Y-32086280D01*
X28535000Y-31705874D01*
X28535000Y-31294126D01*
X28377431Y-30913720D01*
X28086280Y-30622569D01*
X27705874Y-30465000D01*
X27294126Y-30465000D01*
X26913720Y-30622569D01*
X26622569Y-30913720D01*
X26465000Y-31294126D01*
X20710000Y-31294126D01*
X20710000Y-27294126D01*
X30865000Y-27294126D01*
X30865000Y-27705874D01*
X31022569Y-28086280D01*
X31313720Y-28377431D01*
X31694126Y-28535000D01*
X32105874Y-28535000D01*
X32486280Y-28377431D01*
X32528711Y-28335000D01*
X35871289Y-28335000D01*
X35913720Y-28377431D01*
X36294126Y-28535000D01*
X36705874Y-28535000D01*
X37086280Y-28377431D01*
X37128711Y-28335000D01*
X39871289Y-28335000D01*
X39913720Y-28377431D01*
X40294126Y-28535000D01*
X40705874Y-28535000D01*
X41086280Y-28377431D01*
X41128711Y-28335000D01*
X43871289Y-28335000D01*
X43913720Y-28377431D01*
X44294126Y-28535000D01*
X44705874Y-28535000D01*
X45086280Y-28377431D01*
X45128711Y-28335000D01*
X48018486Y-28335000D01*
X48122569Y-28586280D01*
X48413720Y-28877431D01*
X48794126Y-29035000D01*
X49205874Y-29035000D01*
X49586280Y-28877431D01*
X49877431Y-28586280D01*
X50035000Y-28205874D01*
X50035000Y-27794126D01*
X49877431Y-27413720D01*
X49586280Y-27122569D01*
X49205874Y-26965000D01*
X49146770Y-26965000D01*
X49102001Y-26897999D01*
X48825801Y-26713448D01*
X48582237Y-26665000D01*
X48582233Y-26665000D01*
X48500000Y-26648643D01*
X48417767Y-26665000D01*
X45128711Y-26665000D01*
X45086280Y-26622569D01*
X44705874Y-26465000D01*
X44294126Y-26465000D01*
X43913720Y-26622569D01*
X43871289Y-26665000D01*
X41128711Y-26665000D01*
X41086280Y-26622569D01*
X40705874Y-26465000D01*
X40294126Y-26465000D01*
X39913720Y-26622569D01*
X39871289Y-26665000D01*
X37128711Y-26665000D01*
X37086280Y-26622569D01*
X36705874Y-26465000D01*
X36294126Y-26465000D01*
X35913720Y-26622569D01*
X35871289Y-26665000D01*
X32528711Y-26665000D01*
X32486280Y-26622569D01*
X32105874Y-26465000D01*
X31694126Y-26465000D01*
X31313720Y-26622569D01*
X31022569Y-26913720D01*
X30865000Y-27294126D01*
X20710000Y-27294126D01*
X20710000Y-22654887D01*
X21265000Y-22654887D01*
X21265000Y-23345113D01*
X21529138Y-23982799D01*
X22017201Y-24470862D01*
X22654887Y-24735000D01*
X23345113Y-24735000D01*
X23982799Y-24470862D01*
X24470862Y-23982799D01*
X24735000Y-23345113D01*
X24735000Y-23200000D01*
X42552560Y-23200000D01*
X42552560Y-24800000D01*
X42601843Y-25047765D01*
X42742191Y-25257809D01*
X42952235Y-25398157D01*
X43200000Y-25447440D01*
X44800000Y-25447440D01*
X45047765Y-25398157D01*
X45257516Y-25258005D01*
X45783223Y-25446965D01*
X46353454Y-25419778D01*
X46754005Y-25253864D01*
X46828139Y-25007745D01*
X46000000Y-24179605D01*
X45985858Y-24193748D01*
X45806253Y-24014143D01*
X45820395Y-24000000D01*
X46179605Y-24000000D01*
X47007745Y-24828139D01*
X47253864Y-24754005D01*
X47446965Y-24216777D01*
X47419778Y-23646546D01*
X47253864Y-23245995D01*
X47007745Y-23171861D01*
X46179605Y-24000000D01*
X45820395Y-24000000D01*
X45806253Y-23985858D01*
X45985858Y-23806252D01*
X46000000Y-23820395D01*
X46828139Y-22992255D01*
X46754005Y-22746136D01*
X46500141Y-22654887D01*
X55265000Y-22654887D01*
X55265000Y-23345113D01*
X55529138Y-23982799D01*
X56017201Y-24470862D01*
X56654887Y-24735000D01*
X57345113Y-24735000D01*
X57982799Y-24470862D01*
X58470862Y-23982799D01*
X58735000Y-23345113D01*
X58735000Y-22654887D01*
X58470862Y-22017201D01*
X57982799Y-21529138D01*
X57345113Y-21265000D01*
X56654887Y-21265000D01*
X56017201Y-21529138D01*
X55529138Y-22017201D01*
X55265000Y-22654887D01*
X46500141Y-22654887D01*
X46216777Y-22553035D01*
X45646546Y-22580222D01*
X45256933Y-22741605D01*
X45047765Y-22601843D01*
X44800000Y-22552560D01*
X43200000Y-22552560D01*
X42952235Y-22601843D01*
X42742191Y-22742191D01*
X42601843Y-22952235D01*
X42552560Y-23200000D01*
X24735000Y-23200000D01*
X24735000Y-22654887D01*
X24470862Y-22017201D01*
X23982799Y-21529138D01*
X23345113Y-21265000D01*
X22654887Y-21265000D01*
X22017201Y-21529138D01*
X21529138Y-22017201D01*
X21265000Y-22654887D01*
X20710000Y-22654887D01*
X20710000Y-20710000D01*
X59290000Y-20710000D01*
X59290001Y-59290000D01*
G04 #@! TD*
M02*
