G04 #@! TF.GenerationSoftware,KiCad,Pcbnew,5.0.2-bee76a0~70~ubuntu16.04.1*
G04 #@! TF.CreationDate,2019-01-30T15:52:25+01:00*
G04 #@! TF.ProjectId,Lab1,4c616231-2e6b-4696-9361-645f70636258,rev?*
G04 #@! TF.SameCoordinates,Original*
G04 #@! TF.FileFunction,Copper,L1,Top*
G04 #@! TF.FilePolarity,Positive*
%FSLAX46Y46*%
G04 Gerber Fmt 4.6, Leading zero omitted, Abs format (unit mm)*
G04 Created by KiCad (PCBNEW 5.0.2-bee76a0~70~ubuntu16.04.1) date ons 30 jan 2019 15:52:25*
%MOMM*%
%LPD*%
G01*
G04 APERTURE LIST*
G04 #@! TA.AperFunction,SMDPad,CuDef*
%ADD10R,1.500000X1.300000*%
G04 #@! TD*
G04 #@! TA.AperFunction,SMDPad,CuDef*
%ADD11R,1.800000X3.000000*%
G04 #@! TD*
G04 #@! TA.AperFunction,SMDPad,CuDef*
%ADD12R,1.500000X0.500000*%
G04 #@! TD*
G04 #@! TA.AperFunction,SMDPad,CuDef*
%ADD13R,1.250000X1.500000*%
G04 #@! TD*
G04 #@! TA.AperFunction,SMDPad,CuDef*
%ADD14R,0.250000X1.000000*%
G04 #@! TD*
G04 #@! TA.AperFunction,SMDPad,CuDef*
%ADD15R,1.000000X0.250000*%
G04 #@! TD*
G04 #@! TA.AperFunction,SMDPad,CuDef*
%ADD16R,2.000000X7.875000*%
G04 #@! TD*
G04 #@! TA.AperFunction,SMDPad,CuDef*
%ADD17R,1.500000X1.250000*%
G04 #@! TD*
G04 #@! TA.AperFunction,SMDPad,CuDef*
%ADD18R,1.600000X3.000000*%
G04 #@! TD*
G04 #@! TA.AperFunction,SMDPad,CuDef*
%ADD19R,1.300000X1.500000*%
G04 #@! TD*
G04 #@! TA.AperFunction,SMDPad,CuDef*
%ADD20R,2.000000X3.800000*%
G04 #@! TD*
G04 #@! TA.AperFunction,SMDPad,CuDef*
%ADD21R,2.000000X1.500000*%
G04 #@! TD*
G04 #@! TA.AperFunction,ComponentPad*
%ADD22O,1.700000X1.700000*%
G04 #@! TD*
G04 #@! TA.AperFunction,ComponentPad*
%ADD23R,1.700000X1.700000*%
G04 #@! TD*
G04 #@! TA.AperFunction,ViaPad*
%ADD24C,0.800000*%
G04 #@! TD*
G04 #@! TA.AperFunction,Conductor*
%ADD25C,0.250000*%
G04 #@! TD*
G04 #@! TA.AperFunction,Conductor*
%ADD26C,0.200000*%
G04 #@! TD*
G04 #@! TA.AperFunction,Conductor*
%ADD27C,0.254000*%
G04 #@! TD*
G04 APERTURE END LIST*
D10*
G04 #@! TO.P,R3,1*
G04 #@! TO.N,+3V3*
X124650000Y-91300000D03*
G04 #@! TO.P,R3,2*
G04 #@! TO.N,Net-(R3-Pad2)*
X121950000Y-91300000D03*
G04 #@! TD*
D11*
G04 #@! TO.P,J1,6*
G04 #@! TO.N,GND*
X103350000Y-88550000D03*
X103350000Y-98050000D03*
D12*
G04 #@! TO.P,J1,1*
G04 #@! TO.N,+5V*
X102200000Y-91700000D03*
G04 #@! TO.P,J1,2*
G04 #@! TO.N,/D-*
X102200000Y-92500000D03*
G04 #@! TO.P,J1,3*
G04 #@! TO.N,/D+*
X102200000Y-93300000D03*
G04 #@! TO.P,J1,4*
G04 #@! TO.N,/ID*
X102200000Y-94100000D03*
G04 #@! TO.P,J1,5*
G04 #@! TO.N,GND*
X102200000Y-94900000D03*
G04 #@! TD*
D13*
G04 #@! TO.P,C6,1*
G04 #@! TO.N,Net-(C6-Pad1)*
X123900000Y-84750000D03*
G04 #@! TO.P,C6,2*
G04 #@! TO.N,GND*
X123900000Y-87250000D03*
G04 #@! TD*
G04 #@! TO.P,C15,1*
G04 #@! TO.N,+3V3*
X134600000Y-76050000D03*
G04 #@! TO.P,C15,2*
G04 #@! TO.N,GND*
X134600000Y-78550000D03*
G04 #@! TD*
D14*
G04 #@! TO.P,U2,64*
G04 #@! TO.N,+3V3*
X118050000Y-71700000D03*
G04 #@! TO.P,U2,63*
G04 #@! TO.N,GND*
X118550000Y-71700000D03*
G04 #@! TO.P,U2,62*
G04 #@! TO.N,Net-(U2-Pad62)*
X119050000Y-71700000D03*
G04 #@! TO.P,U2,61*
G04 #@! TO.N,Net-(U2-Pad61)*
X119550000Y-71700000D03*
G04 #@! TO.P,U2,60*
G04 #@! TO.N,Net-(R1-Pad1)*
X120050000Y-71700000D03*
G04 #@! TO.P,U2,59*
G04 #@! TO.N,Net-(U2-Pad59)*
X120550000Y-71700000D03*
G04 #@! TO.P,U2,58*
G04 #@! TO.N,Net-(U2-Pad58)*
X121050000Y-71700000D03*
G04 #@! TO.P,U2,57*
G04 #@! TO.N,Net-(U2-Pad57)*
X121550000Y-71700000D03*
G04 #@! TO.P,U2,56*
G04 #@! TO.N,Net-(U2-Pad56)*
X122050000Y-71700000D03*
G04 #@! TO.P,U2,55*
G04 #@! TO.N,/SWO*
X122550000Y-71700000D03*
G04 #@! TO.P,U2,54*
G04 #@! TO.N,Net-(U2-Pad54)*
X123050000Y-71700000D03*
G04 #@! TO.P,U2,53*
G04 #@! TO.N,Net-(U2-Pad53)*
X123550000Y-71700000D03*
G04 #@! TO.P,U2,52*
G04 #@! TO.N,Net-(U2-Pad52)*
X124050000Y-71700000D03*
G04 #@! TO.P,U2,51*
G04 #@! TO.N,Net-(U2-Pad51)*
X124550000Y-71700000D03*
G04 #@! TO.P,U2,50*
G04 #@! TO.N,Net-(U2-Pad50)*
X125050000Y-71700000D03*
G04 #@! TO.P,U2,49*
G04 #@! TO.N,/SWCLK*
X125550000Y-71700000D03*
D15*
G04 #@! TO.P,U2,48*
G04 #@! TO.N,+3V3*
X127500000Y-73650000D03*
G04 #@! TO.P,U2,47*
G04 #@! TO.N,GND*
X127500000Y-74150000D03*
G04 #@! TO.P,U2,46*
G04 #@! TO.N,/SWDIO*
X127500000Y-74650000D03*
G04 #@! TO.P,U2,45*
G04 #@! TO.N,Net-(U2-Pad45)*
X127500000Y-75150000D03*
G04 #@! TO.P,U2,44*
G04 #@! TO.N,Net-(U2-Pad44)*
X127500000Y-75650000D03*
G04 #@! TO.P,U2,43*
G04 #@! TO.N,Net-(U2-Pad43)*
X127500000Y-76150000D03*
G04 #@! TO.P,U2,42*
G04 #@! TO.N,Net-(U2-Pad42)*
X127500000Y-76650000D03*
G04 #@! TO.P,U2,41*
G04 #@! TO.N,Net-(U2-Pad41)*
X127500000Y-77150000D03*
G04 #@! TO.P,U2,40*
G04 #@! TO.N,Net-(U2-Pad40)*
X127500000Y-77650000D03*
G04 #@! TO.P,U2,39*
G04 #@! TO.N,Net-(U2-Pad39)*
X127500000Y-78150000D03*
G04 #@! TO.P,U2,38*
G04 #@! TO.N,Net-(U2-Pad38)*
X127500000Y-78650000D03*
G04 #@! TO.P,U2,37*
G04 #@! TO.N,Net-(U2-Pad37)*
X127500000Y-79150000D03*
G04 #@! TO.P,U2,36*
G04 #@! TO.N,Net-(U2-Pad36)*
X127500000Y-79650000D03*
G04 #@! TO.P,U2,35*
G04 #@! TO.N,Net-(U2-Pad35)*
X127500000Y-80150000D03*
G04 #@! TO.P,U2,34*
G04 #@! TO.N,Net-(U2-Pad34)*
X127500000Y-80650000D03*
G04 #@! TO.P,U2,33*
G04 #@! TO.N,Net-(U2-Pad33)*
X127500000Y-81150000D03*
D14*
G04 #@! TO.P,U2,32*
G04 #@! TO.N,+3V3*
X125550000Y-83100000D03*
G04 #@! TO.P,U2,31*
G04 #@! TO.N,GND*
X125050000Y-83100000D03*
G04 #@! TO.P,U2,30*
G04 #@! TO.N,Net-(C6-Pad1)*
X124550000Y-83100000D03*
G04 #@! TO.P,U2,29*
G04 #@! TO.N,Net-(U2-Pad29)*
X124050000Y-83100000D03*
G04 #@! TO.P,U2,28*
G04 #@! TO.N,Net-(U2-Pad28)*
X123550000Y-83100000D03*
G04 #@! TO.P,U2,27*
G04 #@! TO.N,Net-(U2-Pad27)*
X123050000Y-83100000D03*
G04 #@! TO.P,U2,26*
G04 #@! TO.N,Net-(U2-Pad26)*
X122550000Y-83100000D03*
G04 #@! TO.P,U2,25*
G04 #@! TO.N,Net-(U2-Pad25)*
X122050000Y-83100000D03*
G04 #@! TO.P,U2,24*
G04 #@! TO.N,Net-(U2-Pad24)*
X121550000Y-83100000D03*
G04 #@! TO.P,U2,23*
G04 #@! TO.N,Net-(U2-Pad23)*
X121050000Y-83100000D03*
G04 #@! TO.P,U2,22*
G04 #@! TO.N,Net-(U2-Pad22)*
X120550000Y-83100000D03*
G04 #@! TO.P,U2,21*
G04 #@! TO.N,Net-(U2-Pad21)*
X120050000Y-83100000D03*
G04 #@! TO.P,U2,20*
G04 #@! TO.N,Net-(U2-Pad20)*
X119550000Y-83100000D03*
G04 #@! TO.P,U2,19*
G04 #@! TO.N,+3V3*
X119050000Y-83100000D03*
G04 #@! TO.P,U2,18*
G04 #@! TO.N,GND*
X118550000Y-83100000D03*
G04 #@! TO.P,U2,17*
G04 #@! TO.N,Net-(U2-Pad17)*
X118050000Y-83100000D03*
D15*
G04 #@! TO.P,U2,16*
G04 #@! TO.N,Net-(U2-Pad16)*
X116100000Y-81150000D03*
G04 #@! TO.P,U2,15*
G04 #@! TO.N,/PA1*
X116100000Y-80650000D03*
G04 #@! TO.P,U2,14*
G04 #@! TO.N,/PA0*
X116100000Y-80150000D03*
G04 #@! TO.P,U2,13*
G04 #@! TO.N,+3V3*
X116100000Y-79650000D03*
G04 #@! TO.P,U2,12*
G04 #@! TO.N,GND*
X116100000Y-79150000D03*
G04 #@! TO.P,U2,11*
G04 #@! TO.N,Net-(U2-Pad11)*
X116100000Y-78650000D03*
G04 #@! TO.P,U2,10*
G04 #@! TO.N,Net-(U2-Pad10)*
X116100000Y-78150000D03*
G04 #@! TO.P,U2,9*
G04 #@! TO.N,Net-(U2-Pad9)*
X116100000Y-77650000D03*
G04 #@! TO.P,U2,8*
G04 #@! TO.N,Net-(U2-Pad8)*
X116100000Y-77150000D03*
G04 #@! TO.P,U2,7*
G04 #@! TO.N,/NRST*
X116100000Y-76650000D03*
G04 #@! TO.P,U2,6*
G04 #@! TO.N,Net-(C5-Pad1)*
X116100000Y-76150000D03*
G04 #@! TO.P,U2,5*
G04 #@! TO.N,Net-(C2-Pad1)*
X116100000Y-75650000D03*
G04 #@! TO.P,U2,4*
G04 #@! TO.N,Net-(U2-Pad4)*
X116100000Y-75150000D03*
G04 #@! TO.P,U2,3*
G04 #@! TO.N,Net-(U2-Pad3)*
X116100000Y-74650000D03*
G04 #@! TO.P,U2,2*
G04 #@! TO.N,Net-(U2-Pad2)*
X116100000Y-74150000D03*
G04 #@! TO.P,U2,1*
G04 #@! TO.N,+3V3*
X116100000Y-73650000D03*
G04 #@! TD*
D16*
G04 #@! TO.P,Y1,2*
G04 #@! TO.N,Net-(C5-Pad1)*
X105900000Y-81237500D03*
G04 #@! TO.P,Y1,1*
G04 #@! TO.N,Net-(C2-Pad1)*
X105900000Y-69362500D03*
G04 #@! TD*
D10*
G04 #@! TO.P,R1,1*
G04 #@! TO.N,Net-(R1-Pad1)*
X121750000Y-65500000D03*
G04 #@! TO.P,R1,2*
G04 #@! TO.N,GND*
X119050000Y-65500000D03*
G04 #@! TD*
D13*
G04 #@! TO.P,C9,1*
G04 #@! TO.N,+3V3*
X126100000Y-84650000D03*
G04 #@! TO.P,C9,2*
G04 #@! TO.N,GND*
X126100000Y-87150000D03*
G04 #@! TD*
D17*
G04 #@! TO.P,C11,1*
G04 #@! TO.N,+3V3*
X129150000Y-73100000D03*
G04 #@! TO.P,C11,2*
G04 #@! TO.N,GND*
X131650000Y-73100000D03*
G04 #@! TD*
G04 #@! TO.P,C10,1*
G04 #@! TO.N,+3V3*
X114450000Y-79600000D03*
G04 #@! TO.P,C10,2*
G04 #@! TO.N,GND*
X111950000Y-79600000D03*
G04 #@! TD*
D13*
G04 #@! TO.P,C12,1*
G04 #@! TO.N,+3V3*
X117200000Y-70000000D03*
G04 #@! TO.P,C12,2*
G04 #@! TO.N,GND*
X117200000Y-67500000D03*
G04 #@! TD*
G04 #@! TO.P,C8,1*
G04 #@! TO.N,+3V3*
X119500000Y-84850000D03*
G04 #@! TO.P,C8,2*
G04 #@! TO.N,GND*
X119500000Y-87350000D03*
G04 #@! TD*
G04 #@! TO.P,C14,1*
G04 #@! TO.N,+3V3*
X119100000Y-69900000D03*
G04 #@! TO.P,C14,2*
G04 #@! TO.N,GND*
X119100000Y-67400000D03*
G04 #@! TD*
G04 #@! TO.P,C2,1*
G04 #@! TO.N,Net-(C2-Pad1)*
X112400000Y-72850000D03*
G04 #@! TO.P,C2,2*
G04 #@! TO.N,GND*
X112400000Y-70350000D03*
G04 #@! TD*
D17*
G04 #@! TO.P,C13,1*
G04 #@! TO.N,+3V3*
X114450000Y-81100000D03*
G04 #@! TO.P,C13,2*
G04 #@! TO.N,GND*
X111950000Y-81100000D03*
G04 #@! TD*
D13*
G04 #@! TO.P,C1,1*
G04 #@! TO.N,+5V*
X107900000Y-93550000D03*
G04 #@! TO.P,C1,2*
G04 #@! TO.N,GND*
X107900000Y-96050000D03*
G04 #@! TD*
D18*
G04 #@! TO.P,C3,1*
G04 #@! TO.N,+5V*
X114600000Y-92800000D03*
G04 #@! TO.P,C3,2*
G04 #@! TO.N,GND*
X114600000Y-97200000D03*
G04 #@! TD*
D13*
G04 #@! TO.P,C4,1*
G04 #@! TO.N,+5V*
X110100000Y-93650000D03*
G04 #@! TO.P,C4,2*
G04 #@! TO.N,GND*
X110100000Y-96150000D03*
G04 #@! TD*
G04 #@! TO.P,C5,1*
G04 #@! TO.N,Net-(C5-Pad1)*
X112400000Y-75050000D03*
G04 #@! TO.P,C5,2*
G04 #@! TO.N,GND*
X112400000Y-77550000D03*
G04 #@! TD*
G04 #@! TO.P,C7,1*
G04 #@! TO.N,+3V3*
X130800000Y-95050000D03*
G04 #@! TO.P,C7,2*
G04 #@! TO.N,GND*
X130800000Y-97550000D03*
G04 #@! TD*
D18*
G04 #@! TO.P,C16,1*
G04 #@! TO.N,+3V3*
X136000000Y-93500000D03*
G04 #@! TO.P,C16,2*
G04 #@! TO.N,GND*
X136000000Y-97900000D03*
G04 #@! TD*
D19*
G04 #@! TO.P,R2,1*
G04 #@! TO.N,+3V3*
X109800000Y-81750000D03*
G04 #@! TO.P,R2,2*
G04 #@! TO.N,/NRST*
X109800000Y-79050000D03*
G04 #@! TD*
D10*
G04 #@! TO.P,R4,1*
G04 #@! TO.N,Net-(R3-Pad2)*
X121950000Y-89500000D03*
G04 #@! TO.P,R4,2*
G04 #@! TO.N,GND*
X124650000Y-89500000D03*
G04 #@! TD*
D20*
G04 #@! TO.P,U1,4*
G04 #@! TO.N,+3V3*
X128050000Y-95700000D03*
D21*
G04 #@! TO.P,U1,2*
X121750000Y-95700000D03*
G04 #@! TO.P,U1,3*
G04 #@! TO.N,+5V*
X121750000Y-98000000D03*
G04 #@! TO.P,U1,1*
G04 #@! TO.N,Net-(R3-Pad2)*
X121750000Y-93400000D03*
G04 #@! TD*
D22*
G04 #@! TO.P,J2,6*
G04 #@! TO.N,/SWO*
X137000000Y-88900000D03*
G04 #@! TO.P,J2,5*
G04 #@! TO.N,/NRST*
X137000000Y-86360000D03*
G04 #@! TO.P,J2,4*
G04 #@! TO.N,/SWDIO*
X137000000Y-83820000D03*
G04 #@! TO.P,J2,3*
G04 #@! TO.N,GND*
X137000000Y-81280000D03*
G04 #@! TO.P,J2,2*
G04 #@! TO.N,/SWCLK*
X137000000Y-78740000D03*
D23*
G04 #@! TO.P,J2,1*
G04 #@! TO.N,+3V3*
X137000000Y-76200000D03*
G04 #@! TD*
D24*
G04 #@! TO.N,GND*
X134900000Y-81100000D03*
X132500000Y-78800000D03*
X121600000Y-84900000D03*
X121600000Y-86900000D03*
X127100000Y-90700000D03*
X133100000Y-90800000D03*
X125300000Y-98300000D03*
X138300000Y-98300000D03*
X111800000Y-90500000D03*
X106800000Y-87400000D03*
X102300000Y-80300000D03*
X102300000Y-70800000D03*
X111900000Y-82100000D03*
X137200000Y-62600000D03*
X137200000Y-67200000D03*
X130200000Y-62600000D03*
X112500000Y-62700000D03*
X102700000Y-62700000D03*
X133400000Y-85200000D03*
X134400000Y-73000000D03*
X108300000Y-98500000D03*
X121800000Y-62600000D03*
G04 #@! TO.N,+3V3*
X118400000Y-92700000D03*
X117900000Y-86200000D03*
X128500000Y-86100000D03*
X132900000Y-76200000D03*
X115700000Y-70500000D03*
G04 #@! TD*
D25*
G04 #@! TO.N,+5V*
X114600000Y-93500000D02*
X114600000Y-92800000D01*
X118700000Y-97600000D02*
X114600000Y-93500000D01*
X121750000Y-97600000D02*
X118700000Y-97600000D01*
X110000000Y-93550000D02*
X110100000Y-93650000D01*
X113750000Y-93650000D02*
X114600000Y-92800000D01*
X110100000Y-93650000D02*
X113750000Y-93650000D01*
X108000000Y-93650000D02*
X107900000Y-93550000D01*
X110100000Y-93650000D02*
X108000000Y-93650000D01*
X103200000Y-91700000D02*
X102200000Y-91700000D01*
X105175000Y-91700000D02*
X103200000Y-91700000D01*
X107025000Y-93550000D02*
X105175000Y-91700000D01*
X107900000Y-93550000D02*
X107025000Y-93550000D01*
G04 #@! TO.N,GND*
X135650000Y-97550000D02*
X136000000Y-97900000D01*
X110100000Y-96275000D02*
X110100000Y-96150000D01*
X108000000Y-96150000D02*
X107900000Y-96050000D01*
X103350000Y-89150000D02*
X103350000Y-88550000D01*
X112200000Y-69650000D02*
X112250000Y-69600000D01*
X118550000Y-71700000D02*
X118550000Y-73150000D01*
X116100000Y-79150000D02*
X117650000Y-79150000D01*
X118550000Y-83100000D02*
X118550000Y-81550000D01*
X125050000Y-83100000D02*
X125050000Y-81450000D01*
X127500000Y-74150000D02*
X125850000Y-74150000D01*
X111950000Y-82050000D02*
X111900000Y-82100000D01*
X111950000Y-81100000D02*
X111950000Y-82050000D01*
D26*
G04 #@! TO.N,Net-(C2-Pad1)*
X113225000Y-72850000D02*
X114000000Y-73625000D01*
X112400000Y-72850000D02*
X113225000Y-72850000D01*
X115400000Y-75650000D02*
X116100000Y-75650000D01*
X114000000Y-74250000D02*
X115400000Y-75650000D01*
X114000000Y-73625000D02*
X114000000Y-74250000D01*
X105900000Y-72300000D02*
X105900000Y-69362500D01*
X107100000Y-73500000D02*
X105900000Y-72300000D01*
X108737500Y-73500000D02*
X107100000Y-73500000D01*
X109387500Y-72850000D02*
X108737500Y-73500000D01*
X112400000Y-72850000D02*
X109387500Y-72850000D01*
G04 #@! TO.N,Net-(C5-Pad1)*
X115400000Y-76150000D02*
X116100000Y-76150000D01*
X114325000Y-76150000D02*
X115400000Y-76150000D01*
X113225000Y-75050000D02*
X114325000Y-76150000D01*
X112400000Y-75050000D02*
X113225000Y-75050000D01*
X105900000Y-78300000D02*
X105900000Y-81237500D01*
X109150000Y-75050000D02*
X105900000Y-78300000D01*
X112400000Y-75050000D02*
X109150000Y-75050000D01*
G04 #@! TO.N,Net-(C6-Pad1)*
X124550000Y-84100000D02*
X124550000Y-83100000D01*
X123900000Y-84750000D02*
X124550000Y-84100000D01*
D25*
G04 #@! TO.N,+3V3*
X128600000Y-73650000D02*
X129150000Y-73100000D01*
X127500000Y-73650000D02*
X128600000Y-73650000D01*
X114500000Y-79650000D02*
X114450000Y-79600000D01*
X116100000Y-79650000D02*
X114500000Y-79650000D01*
X119050000Y-84400000D02*
X119050000Y-83100000D01*
X119500000Y-84850000D02*
X119050000Y-84400000D01*
X125550000Y-84100000D02*
X126100000Y-84650000D01*
X125550000Y-83100000D02*
X125550000Y-84100000D01*
X124650000Y-93550000D02*
X126800000Y-95700000D01*
X126800000Y-95700000D02*
X128050000Y-95700000D01*
X124650000Y-91300000D02*
X124650000Y-93550000D01*
X124650000Y-94050000D02*
X124650000Y-93550000D01*
X123000000Y-95700000D02*
X124650000Y-94050000D01*
X121750000Y-95700000D02*
X123000000Y-95700000D01*
X130150000Y-95700000D02*
X130800000Y-95050000D01*
X128050000Y-95700000D02*
X130150000Y-95700000D01*
X136000000Y-94200000D02*
X136000000Y-93500000D01*
X134950000Y-95250000D02*
X136000000Y-94200000D01*
X134650000Y-95250000D02*
X134950000Y-95250000D01*
X134450000Y-95050000D02*
X134650000Y-95250000D01*
X130800000Y-95050000D02*
X134450000Y-95050000D01*
X136950000Y-76150000D02*
X137000000Y-76200000D01*
X134750000Y-76200000D02*
X134600000Y-76050000D01*
X137000000Y-76200000D02*
X134750000Y-76200000D01*
X114450000Y-79600000D02*
X114450000Y-81100000D01*
X109800000Y-81850000D02*
X109800000Y-81750000D01*
X114450000Y-81100000D02*
X114450000Y-81975000D01*
X114450000Y-81975000D02*
X113325000Y-83100000D01*
X113325000Y-83100000D02*
X111050000Y-83100000D01*
X111050000Y-83100000D02*
X109800000Y-81850000D01*
X117300000Y-69900000D02*
X117200000Y-70000000D01*
X119100000Y-69900000D02*
X117300000Y-69900000D01*
X117200000Y-70850000D02*
X118050000Y-71700000D01*
X117200000Y-70000000D02*
X117200000Y-70850000D01*
X129150000Y-73975000D02*
X131225000Y-76050000D01*
X129150000Y-73100000D02*
X129150000Y-73975000D01*
X116875000Y-83100000D02*
X113325000Y-83100000D01*
X118625000Y-84850000D02*
X116875000Y-83100000D01*
X119500000Y-84850000D02*
X118625000Y-84850000D01*
X121750000Y-95700000D02*
X121500000Y-95700000D01*
X118900000Y-93100000D02*
X118800000Y-93000000D01*
X121500000Y-95700000D02*
X118900000Y-93100000D01*
X118900000Y-93100000D02*
X118800000Y-93100000D01*
X118800000Y-93100000D02*
X118400000Y-92700000D01*
X118150000Y-86200000D02*
X119500000Y-84850000D01*
X117900000Y-86200000D02*
X118150000Y-86200000D01*
X126100000Y-84775000D02*
X126100000Y-84650000D01*
X127425000Y-86100000D02*
X126100000Y-84775000D01*
X128500000Y-86100000D02*
X127425000Y-86100000D01*
X132900000Y-76200000D02*
X133050000Y-76050000D01*
X133400000Y-76050000D02*
X134600000Y-76050000D01*
X133050000Y-76050000D02*
X133400000Y-76050000D01*
X131225000Y-76050000D02*
X133400000Y-76050000D01*
X117675000Y-71700000D02*
X118050000Y-71700000D01*
X116100000Y-73275000D02*
X117675000Y-71700000D01*
X116100000Y-73650000D02*
X116100000Y-73275000D01*
X116200000Y-70000000D02*
X115700000Y-70500000D01*
X117200000Y-70000000D02*
X116200000Y-70000000D01*
D26*
G04 #@! TO.N,/SWO*
X137000000Y-88900000D02*
X139200000Y-86700000D01*
X139200000Y-86700000D02*
X139200000Y-73900000D01*
X139200000Y-73900000D02*
X133500000Y-68200000D01*
X122550000Y-71000000D02*
X122550000Y-71700000D01*
X122550000Y-70950000D02*
X122550000Y-71000000D01*
X125300000Y-68200000D02*
X122550000Y-70950000D01*
X133500000Y-68200000D02*
X125300000Y-68200000D01*
G04 #@! TO.N,/SWDIO*
X137000000Y-83820000D02*
X135520000Y-83820000D01*
X135520000Y-83820000D02*
X131000000Y-79300000D01*
X128200000Y-74650000D02*
X127500000Y-74650000D01*
X131000000Y-77450000D02*
X128200000Y-74650000D01*
X131000000Y-79300000D02*
X131000000Y-77450000D01*
G04 #@! TO.N,/SWCLK*
X137000000Y-78740000D02*
X138500000Y-77240000D01*
X138500000Y-77240000D02*
X138500000Y-74100000D01*
X138500000Y-74100000D02*
X133300000Y-68900000D01*
X133300000Y-68900000D02*
X127000000Y-68900000D01*
X125550000Y-70350000D02*
X125550000Y-71700000D01*
X127000000Y-68900000D02*
X125550000Y-70350000D01*
G04 #@! TO.N,/NRST*
X115400000Y-76650000D02*
X115350000Y-76700000D01*
X116100000Y-76650000D02*
X115400000Y-76650000D01*
X115350000Y-76700000D02*
X115350000Y-76850000D01*
X110650000Y-79050000D02*
X109800000Y-79050000D01*
X110975001Y-78724999D02*
X110650000Y-79050000D01*
X113475001Y-78724999D02*
X110975001Y-78724999D01*
X115350000Y-76850000D02*
X113475001Y-78724999D01*
X133807918Y-88350001D02*
X111950001Y-88350001D01*
X135797919Y-86360000D02*
X133807918Y-88350001D01*
X137000000Y-86360000D02*
X135797919Y-86360000D01*
X109800000Y-79150000D02*
X109800000Y-79050000D01*
X108899999Y-80050001D02*
X109800000Y-79150000D01*
X108899999Y-85299999D02*
X108899999Y-80050001D01*
X111950001Y-88350001D02*
X108899999Y-85299999D01*
G04 #@! TO.N,Net-(R1-Pad1)*
X120050000Y-68050000D02*
X120050000Y-71700000D01*
X121750000Y-66350000D02*
X120050000Y-68050000D01*
X121750000Y-65500000D02*
X121750000Y-66350000D01*
G04 #@! TO.N,Net-(R3-Pad2)*
X121950000Y-89500000D02*
X121950000Y-91300000D01*
X121950000Y-93200000D02*
X121750000Y-93400000D01*
X121950000Y-91300000D02*
X121950000Y-93200000D01*
G04 #@! TD*
D27*
G04 #@! TO.N,GND*
G36*
X135929375Y-87430625D02*
X136227761Y-87630000D01*
X135929375Y-87829375D01*
X135601161Y-88320582D01*
X135485908Y-88900000D01*
X135601161Y-89479418D01*
X135929375Y-89970625D01*
X136420582Y-90298839D01*
X136853744Y-90385000D01*
X137146256Y-90385000D01*
X137579418Y-90298839D01*
X138070625Y-89970625D01*
X138398839Y-89479418D01*
X138514092Y-88900000D01*
X138435343Y-88504103D01*
X139290001Y-87649446D01*
X139290001Y-99290000D01*
X137435000Y-99290000D01*
X137435000Y-98185750D01*
X137276250Y-98027000D01*
X136127000Y-98027000D01*
X136127000Y-98047000D01*
X135873000Y-98047000D01*
X135873000Y-98027000D01*
X134723750Y-98027000D01*
X134565000Y-98185750D01*
X134565000Y-99290000D01*
X123084802Y-99290000D01*
X123207809Y-99207809D01*
X123348157Y-98997765D01*
X123397440Y-98750000D01*
X123397440Y-97250000D01*
X123348157Y-97002235D01*
X123246436Y-96850000D01*
X123348157Y-96697765D01*
X123397440Y-96450000D01*
X123397440Y-96348483D01*
X123547929Y-96247929D01*
X123590331Y-96184470D01*
X124900001Y-94874802D01*
X126209671Y-96184473D01*
X126252071Y-96247929D01*
X126402560Y-96348483D01*
X126402560Y-97600000D01*
X126451843Y-97847765D01*
X126592191Y-98057809D01*
X126802235Y-98198157D01*
X127050000Y-98247440D01*
X129050000Y-98247440D01*
X129297765Y-98198157D01*
X129507809Y-98057809D01*
X129540000Y-98009632D01*
X129540000Y-98426309D01*
X129636673Y-98659698D01*
X129815301Y-98838327D01*
X130048690Y-98935000D01*
X130514250Y-98935000D01*
X130673000Y-98776250D01*
X130673000Y-97677000D01*
X130927000Y-97677000D01*
X130927000Y-98776250D01*
X131085750Y-98935000D01*
X131551310Y-98935000D01*
X131784699Y-98838327D01*
X131963327Y-98659698D01*
X132060000Y-98426309D01*
X132060000Y-97835750D01*
X131901250Y-97677000D01*
X130927000Y-97677000D01*
X130673000Y-97677000D01*
X130653000Y-97677000D01*
X130653000Y-97423000D01*
X130673000Y-97423000D01*
X130673000Y-97403000D01*
X130927000Y-97403000D01*
X130927000Y-97423000D01*
X131901250Y-97423000D01*
X132060000Y-97264250D01*
X132060000Y-96673691D01*
X131963327Y-96440302D01*
X131821680Y-96298654D01*
X131882809Y-96257809D01*
X132023157Y-96047765D01*
X132070451Y-95810000D01*
X134120137Y-95810000D01*
X134353463Y-95965904D01*
X134575148Y-96010000D01*
X134575152Y-96010000D01*
X134650000Y-96024888D01*
X134683813Y-96018162D01*
X134661673Y-96040302D01*
X134565000Y-96273691D01*
X134565000Y-97614250D01*
X134723750Y-97773000D01*
X135873000Y-97773000D01*
X135873000Y-95923750D01*
X136127000Y-95923750D01*
X136127000Y-97773000D01*
X137276250Y-97773000D01*
X137435000Y-97614250D01*
X137435000Y-96273691D01*
X137338327Y-96040302D01*
X137159699Y-95861673D01*
X136926310Y-95765000D01*
X136285750Y-95765000D01*
X136127000Y-95923750D01*
X135873000Y-95923750D01*
X135714250Y-95765000D01*
X135519931Y-95765000D01*
X135540331Y-95734470D01*
X135627361Y-95647440D01*
X136800000Y-95647440D01*
X137047765Y-95598157D01*
X137257809Y-95457809D01*
X137398157Y-95247765D01*
X137447440Y-95000000D01*
X137447440Y-92000000D01*
X137398157Y-91752235D01*
X137257809Y-91542191D01*
X137047765Y-91401843D01*
X136800000Y-91352560D01*
X135200000Y-91352560D01*
X134952235Y-91401843D01*
X134742191Y-91542191D01*
X134601843Y-91752235D01*
X134552560Y-92000000D01*
X134552560Y-94295511D01*
X134524852Y-94290000D01*
X134524847Y-94290000D01*
X134450000Y-94275112D01*
X134375153Y-94290000D01*
X132070451Y-94290000D01*
X132023157Y-94052235D01*
X131882809Y-93842191D01*
X131672765Y-93701843D01*
X131425000Y-93652560D01*
X130175000Y-93652560D01*
X129927235Y-93701843D01*
X129717191Y-93842191D01*
X129697440Y-93871750D01*
X129697440Y-93800000D01*
X129648157Y-93552235D01*
X129507809Y-93342191D01*
X129297765Y-93201843D01*
X129050000Y-93152560D01*
X127050000Y-93152560D01*
X126802235Y-93201843D01*
X126592191Y-93342191D01*
X126451843Y-93552235D01*
X126402560Y-93800000D01*
X126402560Y-94227758D01*
X125410000Y-93235199D01*
X125410000Y-92595451D01*
X125647765Y-92548157D01*
X125857809Y-92407809D01*
X125998157Y-92197765D01*
X126047440Y-91950000D01*
X126047440Y-90650000D01*
X125998157Y-90402235D01*
X125988702Y-90388084D01*
X126035000Y-90276310D01*
X126035000Y-89785750D01*
X125876250Y-89627000D01*
X124777000Y-89627000D01*
X124777000Y-89647000D01*
X124523000Y-89647000D01*
X124523000Y-89627000D01*
X124503000Y-89627000D01*
X124503000Y-89373000D01*
X124523000Y-89373000D01*
X124523000Y-89353000D01*
X124777000Y-89353000D01*
X124777000Y-89373000D01*
X125876250Y-89373000D01*
X126035000Y-89214250D01*
X126035000Y-89085001D01*
X133735534Y-89085001D01*
X133807918Y-89099399D01*
X133880302Y-89085001D01*
X133880306Y-89085001D01*
X134094701Y-89042355D01*
X134337823Y-88879906D01*
X134378829Y-88818536D01*
X135864233Y-87333133D01*
X135929375Y-87430625D01*
X135929375Y-87430625D01*
G37*
X135929375Y-87430625D02*
X136227761Y-87630000D01*
X135929375Y-87829375D01*
X135601161Y-88320582D01*
X135485908Y-88900000D01*
X135601161Y-89479418D01*
X135929375Y-89970625D01*
X136420582Y-90298839D01*
X136853744Y-90385000D01*
X137146256Y-90385000D01*
X137579418Y-90298839D01*
X138070625Y-89970625D01*
X138398839Y-89479418D01*
X138514092Y-88900000D01*
X138435343Y-88504103D01*
X139290001Y-87649446D01*
X139290001Y-99290000D01*
X137435000Y-99290000D01*
X137435000Y-98185750D01*
X137276250Y-98027000D01*
X136127000Y-98027000D01*
X136127000Y-98047000D01*
X135873000Y-98047000D01*
X135873000Y-98027000D01*
X134723750Y-98027000D01*
X134565000Y-98185750D01*
X134565000Y-99290000D01*
X123084802Y-99290000D01*
X123207809Y-99207809D01*
X123348157Y-98997765D01*
X123397440Y-98750000D01*
X123397440Y-97250000D01*
X123348157Y-97002235D01*
X123246436Y-96850000D01*
X123348157Y-96697765D01*
X123397440Y-96450000D01*
X123397440Y-96348483D01*
X123547929Y-96247929D01*
X123590331Y-96184470D01*
X124900001Y-94874802D01*
X126209671Y-96184473D01*
X126252071Y-96247929D01*
X126402560Y-96348483D01*
X126402560Y-97600000D01*
X126451843Y-97847765D01*
X126592191Y-98057809D01*
X126802235Y-98198157D01*
X127050000Y-98247440D01*
X129050000Y-98247440D01*
X129297765Y-98198157D01*
X129507809Y-98057809D01*
X129540000Y-98009632D01*
X129540000Y-98426309D01*
X129636673Y-98659698D01*
X129815301Y-98838327D01*
X130048690Y-98935000D01*
X130514250Y-98935000D01*
X130673000Y-98776250D01*
X130673000Y-97677000D01*
X130927000Y-97677000D01*
X130927000Y-98776250D01*
X131085750Y-98935000D01*
X131551310Y-98935000D01*
X131784699Y-98838327D01*
X131963327Y-98659698D01*
X132060000Y-98426309D01*
X132060000Y-97835750D01*
X131901250Y-97677000D01*
X130927000Y-97677000D01*
X130673000Y-97677000D01*
X130653000Y-97677000D01*
X130653000Y-97423000D01*
X130673000Y-97423000D01*
X130673000Y-97403000D01*
X130927000Y-97403000D01*
X130927000Y-97423000D01*
X131901250Y-97423000D01*
X132060000Y-97264250D01*
X132060000Y-96673691D01*
X131963327Y-96440302D01*
X131821680Y-96298654D01*
X131882809Y-96257809D01*
X132023157Y-96047765D01*
X132070451Y-95810000D01*
X134120137Y-95810000D01*
X134353463Y-95965904D01*
X134575148Y-96010000D01*
X134575152Y-96010000D01*
X134650000Y-96024888D01*
X134683813Y-96018162D01*
X134661673Y-96040302D01*
X134565000Y-96273691D01*
X134565000Y-97614250D01*
X134723750Y-97773000D01*
X135873000Y-97773000D01*
X135873000Y-95923750D01*
X136127000Y-95923750D01*
X136127000Y-97773000D01*
X137276250Y-97773000D01*
X137435000Y-97614250D01*
X137435000Y-96273691D01*
X137338327Y-96040302D01*
X137159699Y-95861673D01*
X136926310Y-95765000D01*
X136285750Y-95765000D01*
X136127000Y-95923750D01*
X135873000Y-95923750D01*
X135714250Y-95765000D01*
X135519931Y-95765000D01*
X135540331Y-95734470D01*
X135627361Y-95647440D01*
X136800000Y-95647440D01*
X137047765Y-95598157D01*
X137257809Y-95457809D01*
X137398157Y-95247765D01*
X137447440Y-95000000D01*
X137447440Y-92000000D01*
X137398157Y-91752235D01*
X137257809Y-91542191D01*
X137047765Y-91401843D01*
X136800000Y-91352560D01*
X135200000Y-91352560D01*
X134952235Y-91401843D01*
X134742191Y-91542191D01*
X134601843Y-91752235D01*
X134552560Y-92000000D01*
X134552560Y-94295511D01*
X134524852Y-94290000D01*
X134524847Y-94290000D01*
X134450000Y-94275112D01*
X134375153Y-94290000D01*
X132070451Y-94290000D01*
X132023157Y-94052235D01*
X131882809Y-93842191D01*
X131672765Y-93701843D01*
X131425000Y-93652560D01*
X130175000Y-93652560D01*
X129927235Y-93701843D01*
X129717191Y-93842191D01*
X129697440Y-93871750D01*
X129697440Y-93800000D01*
X129648157Y-93552235D01*
X129507809Y-93342191D01*
X129297765Y-93201843D01*
X129050000Y-93152560D01*
X127050000Y-93152560D01*
X126802235Y-93201843D01*
X126592191Y-93342191D01*
X126451843Y-93552235D01*
X126402560Y-93800000D01*
X126402560Y-94227758D01*
X125410000Y-93235199D01*
X125410000Y-92595451D01*
X125647765Y-92548157D01*
X125857809Y-92407809D01*
X125998157Y-92197765D01*
X126047440Y-91950000D01*
X126047440Y-90650000D01*
X125998157Y-90402235D01*
X125988702Y-90388084D01*
X126035000Y-90276310D01*
X126035000Y-89785750D01*
X125876250Y-89627000D01*
X124777000Y-89627000D01*
X124777000Y-89647000D01*
X124523000Y-89647000D01*
X124523000Y-89627000D01*
X124503000Y-89627000D01*
X124503000Y-89373000D01*
X124523000Y-89373000D01*
X124523000Y-89353000D01*
X124777000Y-89353000D01*
X124777000Y-89373000D01*
X125876250Y-89373000D01*
X126035000Y-89214250D01*
X126035000Y-89085001D01*
X133735534Y-89085001D01*
X133807918Y-89099399D01*
X133880302Y-89085001D01*
X133880306Y-89085001D01*
X134094701Y-89042355D01*
X134337823Y-88879906D01*
X134378829Y-88818536D01*
X135864233Y-87333133D01*
X135929375Y-87430625D01*
G36*
X139290000Y-72950553D02*
X134070911Y-67731465D01*
X134029905Y-67670095D01*
X133786783Y-67507646D01*
X133572388Y-67465000D01*
X133572384Y-67465000D01*
X133500000Y-67450602D01*
X133427616Y-67465000D01*
X125372383Y-67465000D01*
X125299999Y-67450602D01*
X125227615Y-67465000D01*
X125227612Y-67465000D01*
X125013217Y-67507646D01*
X124770095Y-67670095D01*
X124729091Y-67731463D01*
X122081465Y-70379089D01*
X122020095Y-70420095D01*
X121931585Y-70552560D01*
X121925000Y-70552560D01*
X121800000Y-70577424D01*
X121675000Y-70552560D01*
X121425000Y-70552560D01*
X121300000Y-70577424D01*
X121175000Y-70552560D01*
X120925000Y-70552560D01*
X120800000Y-70577424D01*
X120785000Y-70574440D01*
X120785000Y-68354446D01*
X122218537Y-66920910D01*
X122279905Y-66879905D01*
X122335006Y-66797440D01*
X122500000Y-66797440D01*
X122747765Y-66748157D01*
X122957809Y-66607809D01*
X123098157Y-66397765D01*
X123147440Y-66150000D01*
X123147440Y-64850000D01*
X123098157Y-64602235D01*
X122957809Y-64392191D01*
X122747765Y-64251843D01*
X122500000Y-64202560D01*
X121000000Y-64202560D01*
X120752235Y-64251843D01*
X120542191Y-64392191D01*
X120401843Y-64602235D01*
X120396279Y-64630209D01*
X120338327Y-64490301D01*
X120159698Y-64311673D01*
X119926309Y-64215000D01*
X119335750Y-64215000D01*
X119177000Y-64373750D01*
X119177000Y-65373000D01*
X119197000Y-65373000D01*
X119197000Y-65627000D01*
X119177000Y-65627000D01*
X119177000Y-66626250D01*
X119227000Y-66676250D01*
X119227000Y-67273000D01*
X119247000Y-67273000D01*
X119247000Y-67527000D01*
X119227000Y-67527000D01*
X119227000Y-67547000D01*
X118973000Y-67547000D01*
X118973000Y-67527000D01*
X117998750Y-67527000D01*
X117898750Y-67627000D01*
X117327000Y-67627000D01*
X117327000Y-67647000D01*
X117073000Y-67647000D01*
X117073000Y-67627000D01*
X116098750Y-67627000D01*
X115940000Y-67785750D01*
X115940000Y-68376309D01*
X116036673Y-68609698D01*
X116178320Y-68751346D01*
X116117191Y-68792191D01*
X115976843Y-69002235D01*
X115927560Y-69250000D01*
X115927560Y-69279303D01*
X115903462Y-69284096D01*
X115716418Y-69409076D01*
X115652071Y-69452071D01*
X115643432Y-69465000D01*
X115494126Y-69465000D01*
X115113720Y-69622569D01*
X114822569Y-69913720D01*
X114665000Y-70294126D01*
X114665000Y-70705874D01*
X114822569Y-71086280D01*
X115113720Y-71377431D01*
X115494126Y-71535000D01*
X115905874Y-71535000D01*
X116286280Y-71377431D01*
X116320233Y-71343478D01*
X116327235Y-71348157D01*
X116575000Y-71397440D01*
X116651745Y-71397440D01*
X116652072Y-71397929D01*
X116715528Y-71440329D01*
X116787698Y-71512499D01*
X115615529Y-72684670D01*
X115552071Y-72727071D01*
X115428758Y-72911622D01*
X115352235Y-72926843D01*
X115142191Y-73067191D01*
X115001843Y-73277235D01*
X114952560Y-73525000D01*
X114952560Y-73775000D01*
X114977424Y-73899999D01*
X114952560Y-74025000D01*
X114952560Y-74163114D01*
X114735000Y-73945554D01*
X114735000Y-73697388D01*
X114749399Y-73625000D01*
X114729508Y-73525000D01*
X114692354Y-73338217D01*
X114529905Y-73095095D01*
X114468538Y-73054091D01*
X113795911Y-72381465D01*
X113754905Y-72320095D01*
X113672440Y-72264994D01*
X113672440Y-72100000D01*
X113623157Y-71852235D01*
X113482809Y-71642191D01*
X113421680Y-71601346D01*
X113563327Y-71459698D01*
X113660000Y-71226309D01*
X113660000Y-70635750D01*
X113501250Y-70477000D01*
X112527000Y-70477000D01*
X112527000Y-70497000D01*
X112273000Y-70497000D01*
X112273000Y-70477000D01*
X111298750Y-70477000D01*
X111140000Y-70635750D01*
X111140000Y-71226309D01*
X111236673Y-71459698D01*
X111378320Y-71601346D01*
X111317191Y-71642191D01*
X111176843Y-71852235D01*
X111127560Y-72100000D01*
X111127560Y-72115000D01*
X109459884Y-72115000D01*
X109387500Y-72100602D01*
X109315116Y-72115000D01*
X109315112Y-72115000D01*
X109100717Y-72157646D01*
X108857595Y-72320095D01*
X108816590Y-72381463D01*
X108433054Y-72765000D01*
X107547440Y-72765000D01*
X107547440Y-69473691D01*
X111140000Y-69473691D01*
X111140000Y-70064250D01*
X111298750Y-70223000D01*
X112273000Y-70223000D01*
X112273000Y-69123750D01*
X112527000Y-69123750D01*
X112527000Y-70223000D01*
X113501250Y-70223000D01*
X113660000Y-70064250D01*
X113660000Y-69473691D01*
X113563327Y-69240302D01*
X113384699Y-69061673D01*
X113151310Y-68965000D01*
X112685750Y-68965000D01*
X112527000Y-69123750D01*
X112273000Y-69123750D01*
X112114250Y-68965000D01*
X111648690Y-68965000D01*
X111415301Y-69061673D01*
X111236673Y-69240302D01*
X111140000Y-69473691D01*
X107547440Y-69473691D01*
X107547440Y-66623691D01*
X115940000Y-66623691D01*
X115940000Y-67214250D01*
X116098750Y-67373000D01*
X117073000Y-67373000D01*
X117073000Y-66273750D01*
X117327000Y-66273750D01*
X117327000Y-67373000D01*
X118301250Y-67373000D01*
X118401250Y-67273000D01*
X118973000Y-67273000D01*
X118973000Y-66173750D01*
X118923000Y-66123750D01*
X118923000Y-65627000D01*
X117823750Y-65627000D01*
X117665000Y-65785750D01*
X117665000Y-66115000D01*
X117485750Y-66115000D01*
X117327000Y-66273750D01*
X117073000Y-66273750D01*
X116914250Y-66115000D01*
X116448690Y-66115000D01*
X116215301Y-66211673D01*
X116036673Y-66390302D01*
X115940000Y-66623691D01*
X107547440Y-66623691D01*
X107547440Y-65425000D01*
X107498157Y-65177235D01*
X107357809Y-64967191D01*
X107147765Y-64826843D01*
X106900000Y-64777560D01*
X104900000Y-64777560D01*
X104652235Y-64826843D01*
X104442191Y-64967191D01*
X104301843Y-65177235D01*
X104252560Y-65425000D01*
X104252560Y-73300000D01*
X104301843Y-73547765D01*
X104442191Y-73757809D01*
X104652235Y-73898157D01*
X104900000Y-73947440D01*
X106507993Y-73947440D01*
X106529090Y-73968537D01*
X106570095Y-74029905D01*
X106813217Y-74192354D01*
X107027612Y-74235000D01*
X107027615Y-74235000D01*
X107099999Y-74249398D01*
X107172383Y-74235000D01*
X108665116Y-74235000D01*
X108737500Y-74249398D01*
X108809884Y-74235000D01*
X108809888Y-74235000D01*
X109024283Y-74192354D01*
X109267405Y-74029905D01*
X109308411Y-73968535D01*
X109691947Y-73585000D01*
X111127560Y-73585000D01*
X111127560Y-73600000D01*
X111176843Y-73847765D01*
X111245155Y-73950000D01*
X111176843Y-74052235D01*
X111127560Y-74300000D01*
X111127560Y-74315000D01*
X109222383Y-74315000D01*
X109149999Y-74300602D01*
X109077615Y-74315000D01*
X109077612Y-74315000D01*
X108863217Y-74357646D01*
X108620095Y-74520095D01*
X108579091Y-74581463D01*
X106507994Y-76652560D01*
X104900000Y-76652560D01*
X104652235Y-76701843D01*
X104442191Y-76842191D01*
X104301843Y-77052235D01*
X104252560Y-77300000D01*
X104252560Y-85175000D01*
X104301843Y-85422765D01*
X104442191Y-85632809D01*
X104652235Y-85773157D01*
X104900000Y-85822440D01*
X106900000Y-85822440D01*
X107147765Y-85773157D01*
X107357809Y-85632809D01*
X107498157Y-85422765D01*
X107547440Y-85175000D01*
X107547440Y-77692006D01*
X109454447Y-75785000D01*
X111127560Y-75785000D01*
X111127560Y-75800000D01*
X111176843Y-76047765D01*
X111317191Y-76257809D01*
X111378320Y-76298654D01*
X111236673Y-76440302D01*
X111140000Y-76673691D01*
X111140000Y-77264250D01*
X111298750Y-77423000D01*
X112273000Y-77423000D01*
X112273000Y-77403000D01*
X112527000Y-77403000D01*
X112527000Y-77423000D01*
X112547000Y-77423000D01*
X112547000Y-77677000D01*
X112527000Y-77677000D01*
X112527000Y-77697000D01*
X112273000Y-77697000D01*
X112273000Y-77677000D01*
X111298750Y-77677000D01*
X111140000Y-77835750D01*
X111140000Y-77989999D01*
X111047385Y-77989999D01*
X111000316Y-77980636D01*
X110907809Y-77842191D01*
X110697765Y-77701843D01*
X110450000Y-77652560D01*
X109150000Y-77652560D01*
X108902235Y-77701843D01*
X108692191Y-77842191D01*
X108551843Y-78052235D01*
X108502560Y-78300000D01*
X108502560Y-79407994D01*
X108431462Y-79479092D01*
X108370095Y-79520096D01*
X108329091Y-79581463D01*
X108329090Y-79581464D01*
X108207645Y-79763219D01*
X108150601Y-80050001D01*
X108165000Y-80122390D01*
X108164999Y-85227615D01*
X108150601Y-85299999D01*
X108164999Y-85372383D01*
X108164999Y-85372386D01*
X108207645Y-85586781D01*
X108370094Y-85829904D01*
X108431464Y-85870910D01*
X111379092Y-88818538D01*
X111420096Y-88879906D01*
X111663218Y-89042355D01*
X111877613Y-89085001D01*
X111877616Y-89085001D01*
X111950000Y-89099399D01*
X112022384Y-89085001D01*
X120552560Y-89085001D01*
X120552560Y-90150000D01*
X120601843Y-90397765D01*
X120603336Y-90400000D01*
X120601843Y-90402235D01*
X120552560Y-90650000D01*
X120552560Y-91950000D01*
X120570131Y-92038338D01*
X120502235Y-92051843D01*
X120292191Y-92192191D01*
X120151843Y-92402235D01*
X120102560Y-92650000D01*
X120102560Y-93227759D01*
X119490331Y-92615530D01*
X119447929Y-92552071D01*
X119435000Y-92543432D01*
X119435000Y-92494126D01*
X119277431Y-92113720D01*
X118986280Y-91822569D01*
X118605874Y-91665000D01*
X118194126Y-91665000D01*
X117813720Y-91822569D01*
X117522569Y-92113720D01*
X117365000Y-92494126D01*
X117365000Y-92905874D01*
X117522569Y-93286280D01*
X117813720Y-93577431D01*
X118194126Y-93735000D01*
X118382382Y-93735000D01*
X118503463Y-93815904D01*
X118550449Y-93825250D01*
X120102560Y-95377362D01*
X120102560Y-96450000D01*
X120151843Y-96697765D01*
X120246882Y-96840000D01*
X119014802Y-96840000D01*
X116047440Y-93872639D01*
X116047440Y-91300000D01*
X115998157Y-91052235D01*
X115857809Y-90842191D01*
X115647765Y-90701843D01*
X115400000Y-90652560D01*
X113800000Y-90652560D01*
X113552235Y-90701843D01*
X113342191Y-90842191D01*
X113201843Y-91052235D01*
X113152560Y-91300000D01*
X113152560Y-92890000D01*
X111370451Y-92890000D01*
X111323157Y-92652235D01*
X111182809Y-92442191D01*
X110972765Y-92301843D01*
X110725000Y-92252560D01*
X109475000Y-92252560D01*
X109227235Y-92301843D01*
X109039616Y-92427207D01*
X108982809Y-92342191D01*
X108772765Y-92201843D01*
X108525000Y-92152560D01*
X107275000Y-92152560D01*
X107027235Y-92201843D01*
X106862031Y-92312230D01*
X105952866Y-91403064D01*
X106292926Y-91262207D01*
X106612207Y-90942926D01*
X106785000Y-90525766D01*
X106785000Y-90074234D01*
X106612207Y-89657074D01*
X106292926Y-89337793D01*
X105875766Y-89165000D01*
X105424234Y-89165000D01*
X105007074Y-89337793D01*
X104885000Y-89459867D01*
X104885000Y-88835750D01*
X104726250Y-88677000D01*
X103477000Y-88677000D01*
X103477000Y-90526250D01*
X103635750Y-90685000D01*
X104376310Y-90685000D01*
X104550987Y-90612646D01*
X104686581Y-90940000D01*
X103329700Y-90940000D01*
X103197765Y-90851843D01*
X102950000Y-90802560D01*
X101450000Y-90802560D01*
X101202235Y-90851843D01*
X100992191Y-90992191D01*
X100851843Y-91202235D01*
X100802560Y-91450000D01*
X100802560Y-91950000D01*
X100832397Y-92100000D01*
X100802560Y-92250000D01*
X100802560Y-92750000D01*
X100832397Y-92900000D01*
X100802560Y-93050000D01*
X100802560Y-93550000D01*
X100832397Y-93700000D01*
X100802560Y-93850000D01*
X100802560Y-94350000D01*
X100829936Y-94487632D01*
X100815000Y-94523691D01*
X100815000Y-94616250D01*
X100963258Y-94764508D01*
X100992191Y-94807809D01*
X101202235Y-94948157D01*
X101450000Y-94997440D01*
X102950000Y-94997440D01*
X103197765Y-94948157D01*
X103407809Y-94807809D01*
X103436742Y-94764508D01*
X103585000Y-94616250D01*
X103585000Y-94523691D01*
X103570064Y-94487632D01*
X103597440Y-94350000D01*
X103597440Y-93850000D01*
X103567603Y-93700000D01*
X103597440Y-93550000D01*
X103597440Y-93050000D01*
X103567603Y-92900000D01*
X103597440Y-92750000D01*
X103597440Y-92460000D01*
X104860199Y-92460000D01*
X106434670Y-94034472D01*
X106477071Y-94097929D01*
X106627560Y-94198483D01*
X106627560Y-94300000D01*
X106676843Y-94547765D01*
X106817191Y-94757809D01*
X106878320Y-94798654D01*
X106736673Y-94940302D01*
X106640000Y-95173691D01*
X106640000Y-95724172D01*
X106612207Y-95657074D01*
X106292926Y-95337793D01*
X105875766Y-95165000D01*
X105424234Y-95165000D01*
X105007074Y-95337793D01*
X104687793Y-95657074D01*
X104550987Y-95987354D01*
X104376310Y-95915000D01*
X103635750Y-95915000D01*
X103477000Y-96073750D01*
X103477000Y-97923000D01*
X104726250Y-97923000D01*
X104885000Y-97764250D01*
X104885000Y-97140133D01*
X105007074Y-97262207D01*
X105424234Y-97435000D01*
X105875766Y-97435000D01*
X106292926Y-97262207D01*
X106612207Y-96942926D01*
X106640000Y-96875828D01*
X106640000Y-96926309D01*
X106736673Y-97159698D01*
X106915301Y-97338327D01*
X107148690Y-97435000D01*
X107614250Y-97435000D01*
X107773000Y-97276250D01*
X107773000Y-96177000D01*
X108027000Y-96177000D01*
X108027000Y-97276250D01*
X108185750Y-97435000D01*
X108651310Y-97435000D01*
X108884699Y-97338327D01*
X108950000Y-97273025D01*
X109115301Y-97438327D01*
X109348690Y-97535000D01*
X109814250Y-97535000D01*
X109973000Y-97376250D01*
X109973000Y-96277000D01*
X110227000Y-96277000D01*
X110227000Y-97376250D01*
X110385750Y-97535000D01*
X110851310Y-97535000D01*
X111084699Y-97438327D01*
X111263327Y-97259698D01*
X111360000Y-97026309D01*
X111360000Y-96435750D01*
X111201250Y-96277000D01*
X110227000Y-96277000D01*
X109973000Y-96277000D01*
X109101250Y-96277000D01*
X109001250Y-96177000D01*
X108027000Y-96177000D01*
X107773000Y-96177000D01*
X107753000Y-96177000D01*
X107753000Y-95923000D01*
X107773000Y-95923000D01*
X107773000Y-95903000D01*
X108027000Y-95903000D01*
X108027000Y-95923000D01*
X108898750Y-95923000D01*
X108998750Y-96023000D01*
X109973000Y-96023000D01*
X109973000Y-96003000D01*
X110227000Y-96003000D01*
X110227000Y-96023000D01*
X111201250Y-96023000D01*
X111360000Y-95864250D01*
X111360000Y-95573691D01*
X113165000Y-95573691D01*
X113165000Y-96914250D01*
X113323750Y-97073000D01*
X114473000Y-97073000D01*
X114473000Y-95223750D01*
X114314250Y-95065000D01*
X113673690Y-95065000D01*
X113440301Y-95161673D01*
X113261673Y-95340302D01*
X113165000Y-95573691D01*
X111360000Y-95573691D01*
X111360000Y-95273691D01*
X111263327Y-95040302D01*
X111121680Y-94898654D01*
X111182809Y-94857809D01*
X111323157Y-94647765D01*
X111370451Y-94410000D01*
X113174440Y-94410000D01*
X113201843Y-94547765D01*
X113342191Y-94757809D01*
X113552235Y-94898157D01*
X113800000Y-94947440D01*
X114972639Y-94947440D01*
X115090199Y-95065000D01*
X114885750Y-95065000D01*
X114727000Y-95223750D01*
X114727000Y-97073000D01*
X115876250Y-97073000D01*
X116035000Y-96914250D01*
X116035000Y-96009801D01*
X118109671Y-98084473D01*
X118152071Y-98147929D01*
X118403463Y-98315904D01*
X118625148Y-98360000D01*
X118625152Y-98360000D01*
X118700000Y-98374888D01*
X118774848Y-98360000D01*
X120102560Y-98360000D01*
X120102560Y-98750000D01*
X120151843Y-98997765D01*
X120292191Y-99207809D01*
X120415198Y-99290000D01*
X115634949Y-99290000D01*
X115759699Y-99238327D01*
X115938327Y-99059698D01*
X116035000Y-98826309D01*
X116035000Y-97485750D01*
X115876250Y-97327000D01*
X114727000Y-97327000D01*
X114727000Y-97347000D01*
X114473000Y-97347000D01*
X114473000Y-97327000D01*
X113323750Y-97327000D01*
X113165000Y-97485750D01*
X113165000Y-98826309D01*
X113261673Y-99059698D01*
X113440301Y-99238327D01*
X113565051Y-99290000D01*
X104885000Y-99290000D01*
X104885000Y-98335750D01*
X104726250Y-98177000D01*
X103477000Y-98177000D01*
X103477000Y-98197000D01*
X103223000Y-98197000D01*
X103223000Y-98177000D01*
X101973750Y-98177000D01*
X101815000Y-98335750D01*
X101815000Y-99290000D01*
X100710000Y-99290000D01*
X100710000Y-96423691D01*
X101815000Y-96423691D01*
X101815000Y-97764250D01*
X101973750Y-97923000D01*
X103223000Y-97923000D01*
X103223000Y-96073750D01*
X103064250Y-95915000D01*
X102323690Y-95915000D01*
X102090301Y-96011673D01*
X101911673Y-96190302D01*
X101815000Y-96423691D01*
X100710000Y-96423691D01*
X100710000Y-95183750D01*
X100815000Y-95183750D01*
X100815000Y-95276309D01*
X100911673Y-95509698D01*
X101090301Y-95688327D01*
X101323690Y-95785000D01*
X101914250Y-95785000D01*
X102073000Y-95626250D01*
X102073000Y-95025000D01*
X102327000Y-95025000D01*
X102327000Y-95626250D01*
X102485750Y-95785000D01*
X103076310Y-95785000D01*
X103309699Y-95688327D01*
X103488327Y-95509698D01*
X103585000Y-95276309D01*
X103585000Y-95183750D01*
X103426250Y-95025000D01*
X102327000Y-95025000D01*
X102073000Y-95025000D01*
X100973750Y-95025000D01*
X100815000Y-95183750D01*
X100710000Y-95183750D01*
X100710000Y-88835750D01*
X101815000Y-88835750D01*
X101815000Y-90176309D01*
X101911673Y-90409698D01*
X102090301Y-90588327D01*
X102323690Y-90685000D01*
X103064250Y-90685000D01*
X103223000Y-90526250D01*
X103223000Y-88677000D01*
X101973750Y-88677000D01*
X101815000Y-88835750D01*
X100710000Y-88835750D01*
X100710000Y-86923691D01*
X101815000Y-86923691D01*
X101815000Y-88264250D01*
X101973750Y-88423000D01*
X103223000Y-88423000D01*
X103223000Y-86573750D01*
X103477000Y-86573750D01*
X103477000Y-88423000D01*
X104726250Y-88423000D01*
X104885000Y-88264250D01*
X104885000Y-86923691D01*
X104788327Y-86690302D01*
X104609699Y-86511673D01*
X104376310Y-86415000D01*
X103635750Y-86415000D01*
X103477000Y-86573750D01*
X103223000Y-86573750D01*
X103064250Y-86415000D01*
X102323690Y-86415000D01*
X102090301Y-86511673D01*
X101911673Y-86690302D01*
X101815000Y-86923691D01*
X100710000Y-86923691D01*
X100710000Y-64723690D01*
X117665000Y-64723690D01*
X117665000Y-65214250D01*
X117823750Y-65373000D01*
X118923000Y-65373000D01*
X118923000Y-64373750D01*
X118764250Y-64215000D01*
X118173691Y-64215000D01*
X117940302Y-64311673D01*
X117761673Y-64490301D01*
X117665000Y-64723690D01*
X100710000Y-64723690D01*
X100710000Y-60710000D01*
X139290000Y-60710000D01*
X139290000Y-72950553D01*
X139290000Y-72950553D01*
G37*
X139290000Y-72950553D02*
X134070911Y-67731465D01*
X134029905Y-67670095D01*
X133786783Y-67507646D01*
X133572388Y-67465000D01*
X133572384Y-67465000D01*
X133500000Y-67450602D01*
X133427616Y-67465000D01*
X125372383Y-67465000D01*
X125299999Y-67450602D01*
X125227615Y-67465000D01*
X125227612Y-67465000D01*
X125013217Y-67507646D01*
X124770095Y-67670095D01*
X124729091Y-67731463D01*
X122081465Y-70379089D01*
X122020095Y-70420095D01*
X121931585Y-70552560D01*
X121925000Y-70552560D01*
X121800000Y-70577424D01*
X121675000Y-70552560D01*
X121425000Y-70552560D01*
X121300000Y-70577424D01*
X121175000Y-70552560D01*
X120925000Y-70552560D01*
X120800000Y-70577424D01*
X120785000Y-70574440D01*
X120785000Y-68354446D01*
X122218537Y-66920910D01*
X122279905Y-66879905D01*
X122335006Y-66797440D01*
X122500000Y-66797440D01*
X122747765Y-66748157D01*
X122957809Y-66607809D01*
X123098157Y-66397765D01*
X123147440Y-66150000D01*
X123147440Y-64850000D01*
X123098157Y-64602235D01*
X122957809Y-64392191D01*
X122747765Y-64251843D01*
X122500000Y-64202560D01*
X121000000Y-64202560D01*
X120752235Y-64251843D01*
X120542191Y-64392191D01*
X120401843Y-64602235D01*
X120396279Y-64630209D01*
X120338327Y-64490301D01*
X120159698Y-64311673D01*
X119926309Y-64215000D01*
X119335750Y-64215000D01*
X119177000Y-64373750D01*
X119177000Y-65373000D01*
X119197000Y-65373000D01*
X119197000Y-65627000D01*
X119177000Y-65627000D01*
X119177000Y-66626250D01*
X119227000Y-66676250D01*
X119227000Y-67273000D01*
X119247000Y-67273000D01*
X119247000Y-67527000D01*
X119227000Y-67527000D01*
X119227000Y-67547000D01*
X118973000Y-67547000D01*
X118973000Y-67527000D01*
X117998750Y-67527000D01*
X117898750Y-67627000D01*
X117327000Y-67627000D01*
X117327000Y-67647000D01*
X117073000Y-67647000D01*
X117073000Y-67627000D01*
X116098750Y-67627000D01*
X115940000Y-67785750D01*
X115940000Y-68376309D01*
X116036673Y-68609698D01*
X116178320Y-68751346D01*
X116117191Y-68792191D01*
X115976843Y-69002235D01*
X115927560Y-69250000D01*
X115927560Y-69279303D01*
X115903462Y-69284096D01*
X115716418Y-69409076D01*
X115652071Y-69452071D01*
X115643432Y-69465000D01*
X115494126Y-69465000D01*
X115113720Y-69622569D01*
X114822569Y-69913720D01*
X114665000Y-70294126D01*
X114665000Y-70705874D01*
X114822569Y-71086280D01*
X115113720Y-71377431D01*
X115494126Y-71535000D01*
X115905874Y-71535000D01*
X116286280Y-71377431D01*
X116320233Y-71343478D01*
X116327235Y-71348157D01*
X116575000Y-71397440D01*
X116651745Y-71397440D01*
X116652072Y-71397929D01*
X116715528Y-71440329D01*
X116787698Y-71512499D01*
X115615529Y-72684670D01*
X115552071Y-72727071D01*
X115428758Y-72911622D01*
X115352235Y-72926843D01*
X115142191Y-73067191D01*
X115001843Y-73277235D01*
X114952560Y-73525000D01*
X114952560Y-73775000D01*
X114977424Y-73899999D01*
X114952560Y-74025000D01*
X114952560Y-74163114D01*
X114735000Y-73945554D01*
X114735000Y-73697388D01*
X114749399Y-73625000D01*
X114729508Y-73525000D01*
X114692354Y-73338217D01*
X114529905Y-73095095D01*
X114468538Y-73054091D01*
X113795911Y-72381465D01*
X113754905Y-72320095D01*
X113672440Y-72264994D01*
X113672440Y-72100000D01*
X113623157Y-71852235D01*
X113482809Y-71642191D01*
X113421680Y-71601346D01*
X113563327Y-71459698D01*
X113660000Y-71226309D01*
X113660000Y-70635750D01*
X113501250Y-70477000D01*
X112527000Y-70477000D01*
X112527000Y-70497000D01*
X112273000Y-70497000D01*
X112273000Y-70477000D01*
X111298750Y-70477000D01*
X111140000Y-70635750D01*
X111140000Y-71226309D01*
X111236673Y-71459698D01*
X111378320Y-71601346D01*
X111317191Y-71642191D01*
X111176843Y-71852235D01*
X111127560Y-72100000D01*
X111127560Y-72115000D01*
X109459884Y-72115000D01*
X109387500Y-72100602D01*
X109315116Y-72115000D01*
X109315112Y-72115000D01*
X109100717Y-72157646D01*
X108857595Y-72320095D01*
X108816590Y-72381463D01*
X108433054Y-72765000D01*
X107547440Y-72765000D01*
X107547440Y-69473691D01*
X111140000Y-69473691D01*
X111140000Y-70064250D01*
X111298750Y-70223000D01*
X112273000Y-70223000D01*
X112273000Y-69123750D01*
X112527000Y-69123750D01*
X112527000Y-70223000D01*
X113501250Y-70223000D01*
X113660000Y-70064250D01*
X113660000Y-69473691D01*
X113563327Y-69240302D01*
X113384699Y-69061673D01*
X113151310Y-68965000D01*
X112685750Y-68965000D01*
X112527000Y-69123750D01*
X112273000Y-69123750D01*
X112114250Y-68965000D01*
X111648690Y-68965000D01*
X111415301Y-69061673D01*
X111236673Y-69240302D01*
X111140000Y-69473691D01*
X107547440Y-69473691D01*
X107547440Y-66623691D01*
X115940000Y-66623691D01*
X115940000Y-67214250D01*
X116098750Y-67373000D01*
X117073000Y-67373000D01*
X117073000Y-66273750D01*
X117327000Y-66273750D01*
X117327000Y-67373000D01*
X118301250Y-67373000D01*
X118401250Y-67273000D01*
X118973000Y-67273000D01*
X118973000Y-66173750D01*
X118923000Y-66123750D01*
X118923000Y-65627000D01*
X117823750Y-65627000D01*
X117665000Y-65785750D01*
X117665000Y-66115000D01*
X117485750Y-66115000D01*
X117327000Y-66273750D01*
X117073000Y-66273750D01*
X116914250Y-66115000D01*
X116448690Y-66115000D01*
X116215301Y-66211673D01*
X116036673Y-66390302D01*
X115940000Y-66623691D01*
X107547440Y-66623691D01*
X107547440Y-65425000D01*
X107498157Y-65177235D01*
X107357809Y-64967191D01*
X107147765Y-64826843D01*
X106900000Y-64777560D01*
X104900000Y-64777560D01*
X104652235Y-64826843D01*
X104442191Y-64967191D01*
X104301843Y-65177235D01*
X104252560Y-65425000D01*
X104252560Y-73300000D01*
X104301843Y-73547765D01*
X104442191Y-73757809D01*
X104652235Y-73898157D01*
X104900000Y-73947440D01*
X106507993Y-73947440D01*
X106529090Y-73968537D01*
X106570095Y-74029905D01*
X106813217Y-74192354D01*
X107027612Y-74235000D01*
X107027615Y-74235000D01*
X107099999Y-74249398D01*
X107172383Y-74235000D01*
X108665116Y-74235000D01*
X108737500Y-74249398D01*
X108809884Y-74235000D01*
X108809888Y-74235000D01*
X109024283Y-74192354D01*
X109267405Y-74029905D01*
X109308411Y-73968535D01*
X109691947Y-73585000D01*
X111127560Y-73585000D01*
X111127560Y-73600000D01*
X111176843Y-73847765D01*
X111245155Y-73950000D01*
X111176843Y-74052235D01*
X111127560Y-74300000D01*
X111127560Y-74315000D01*
X109222383Y-74315000D01*
X109149999Y-74300602D01*
X109077615Y-74315000D01*
X109077612Y-74315000D01*
X108863217Y-74357646D01*
X108620095Y-74520095D01*
X108579091Y-74581463D01*
X106507994Y-76652560D01*
X104900000Y-76652560D01*
X104652235Y-76701843D01*
X104442191Y-76842191D01*
X104301843Y-77052235D01*
X104252560Y-77300000D01*
X104252560Y-85175000D01*
X104301843Y-85422765D01*
X104442191Y-85632809D01*
X104652235Y-85773157D01*
X104900000Y-85822440D01*
X106900000Y-85822440D01*
X107147765Y-85773157D01*
X107357809Y-85632809D01*
X107498157Y-85422765D01*
X107547440Y-85175000D01*
X107547440Y-77692006D01*
X109454447Y-75785000D01*
X111127560Y-75785000D01*
X111127560Y-75800000D01*
X111176843Y-76047765D01*
X111317191Y-76257809D01*
X111378320Y-76298654D01*
X111236673Y-76440302D01*
X111140000Y-76673691D01*
X111140000Y-77264250D01*
X111298750Y-77423000D01*
X112273000Y-77423000D01*
X112273000Y-77403000D01*
X112527000Y-77403000D01*
X112527000Y-77423000D01*
X112547000Y-77423000D01*
X112547000Y-77677000D01*
X112527000Y-77677000D01*
X112527000Y-77697000D01*
X112273000Y-77697000D01*
X112273000Y-77677000D01*
X111298750Y-77677000D01*
X111140000Y-77835750D01*
X111140000Y-77989999D01*
X111047385Y-77989999D01*
X111000316Y-77980636D01*
X110907809Y-77842191D01*
X110697765Y-77701843D01*
X110450000Y-77652560D01*
X109150000Y-77652560D01*
X108902235Y-77701843D01*
X108692191Y-77842191D01*
X108551843Y-78052235D01*
X108502560Y-78300000D01*
X108502560Y-79407994D01*
X108431462Y-79479092D01*
X108370095Y-79520096D01*
X108329091Y-79581463D01*
X108329090Y-79581464D01*
X108207645Y-79763219D01*
X108150601Y-80050001D01*
X108165000Y-80122390D01*
X108164999Y-85227615D01*
X108150601Y-85299999D01*
X108164999Y-85372383D01*
X108164999Y-85372386D01*
X108207645Y-85586781D01*
X108370094Y-85829904D01*
X108431464Y-85870910D01*
X111379092Y-88818538D01*
X111420096Y-88879906D01*
X111663218Y-89042355D01*
X111877613Y-89085001D01*
X111877616Y-89085001D01*
X111950000Y-89099399D01*
X112022384Y-89085001D01*
X120552560Y-89085001D01*
X120552560Y-90150000D01*
X120601843Y-90397765D01*
X120603336Y-90400000D01*
X120601843Y-90402235D01*
X120552560Y-90650000D01*
X120552560Y-91950000D01*
X120570131Y-92038338D01*
X120502235Y-92051843D01*
X120292191Y-92192191D01*
X120151843Y-92402235D01*
X120102560Y-92650000D01*
X120102560Y-93227759D01*
X119490331Y-92615530D01*
X119447929Y-92552071D01*
X119435000Y-92543432D01*
X119435000Y-92494126D01*
X119277431Y-92113720D01*
X118986280Y-91822569D01*
X118605874Y-91665000D01*
X118194126Y-91665000D01*
X117813720Y-91822569D01*
X117522569Y-92113720D01*
X117365000Y-92494126D01*
X117365000Y-92905874D01*
X117522569Y-93286280D01*
X117813720Y-93577431D01*
X118194126Y-93735000D01*
X118382382Y-93735000D01*
X118503463Y-93815904D01*
X118550449Y-93825250D01*
X120102560Y-95377362D01*
X120102560Y-96450000D01*
X120151843Y-96697765D01*
X120246882Y-96840000D01*
X119014802Y-96840000D01*
X116047440Y-93872639D01*
X116047440Y-91300000D01*
X115998157Y-91052235D01*
X115857809Y-90842191D01*
X115647765Y-90701843D01*
X115400000Y-90652560D01*
X113800000Y-90652560D01*
X113552235Y-90701843D01*
X113342191Y-90842191D01*
X113201843Y-91052235D01*
X113152560Y-91300000D01*
X113152560Y-92890000D01*
X111370451Y-92890000D01*
X111323157Y-92652235D01*
X111182809Y-92442191D01*
X110972765Y-92301843D01*
X110725000Y-92252560D01*
X109475000Y-92252560D01*
X109227235Y-92301843D01*
X109039616Y-92427207D01*
X108982809Y-92342191D01*
X108772765Y-92201843D01*
X108525000Y-92152560D01*
X107275000Y-92152560D01*
X107027235Y-92201843D01*
X106862031Y-92312230D01*
X105952866Y-91403064D01*
X106292926Y-91262207D01*
X106612207Y-90942926D01*
X106785000Y-90525766D01*
X106785000Y-90074234D01*
X106612207Y-89657074D01*
X106292926Y-89337793D01*
X105875766Y-89165000D01*
X105424234Y-89165000D01*
X105007074Y-89337793D01*
X104885000Y-89459867D01*
X104885000Y-88835750D01*
X104726250Y-88677000D01*
X103477000Y-88677000D01*
X103477000Y-90526250D01*
X103635750Y-90685000D01*
X104376310Y-90685000D01*
X104550987Y-90612646D01*
X104686581Y-90940000D01*
X103329700Y-90940000D01*
X103197765Y-90851843D01*
X102950000Y-90802560D01*
X101450000Y-90802560D01*
X101202235Y-90851843D01*
X100992191Y-90992191D01*
X100851843Y-91202235D01*
X100802560Y-91450000D01*
X100802560Y-91950000D01*
X100832397Y-92100000D01*
X100802560Y-92250000D01*
X100802560Y-92750000D01*
X100832397Y-92900000D01*
X100802560Y-93050000D01*
X100802560Y-93550000D01*
X100832397Y-93700000D01*
X100802560Y-93850000D01*
X100802560Y-94350000D01*
X100829936Y-94487632D01*
X100815000Y-94523691D01*
X100815000Y-94616250D01*
X100963258Y-94764508D01*
X100992191Y-94807809D01*
X101202235Y-94948157D01*
X101450000Y-94997440D01*
X102950000Y-94997440D01*
X103197765Y-94948157D01*
X103407809Y-94807809D01*
X103436742Y-94764508D01*
X103585000Y-94616250D01*
X103585000Y-94523691D01*
X103570064Y-94487632D01*
X103597440Y-94350000D01*
X103597440Y-93850000D01*
X103567603Y-93700000D01*
X103597440Y-93550000D01*
X103597440Y-93050000D01*
X103567603Y-92900000D01*
X103597440Y-92750000D01*
X103597440Y-92460000D01*
X104860199Y-92460000D01*
X106434670Y-94034472D01*
X106477071Y-94097929D01*
X106627560Y-94198483D01*
X106627560Y-94300000D01*
X106676843Y-94547765D01*
X106817191Y-94757809D01*
X106878320Y-94798654D01*
X106736673Y-94940302D01*
X106640000Y-95173691D01*
X106640000Y-95724172D01*
X106612207Y-95657074D01*
X106292926Y-95337793D01*
X105875766Y-95165000D01*
X105424234Y-95165000D01*
X105007074Y-95337793D01*
X104687793Y-95657074D01*
X104550987Y-95987354D01*
X104376310Y-95915000D01*
X103635750Y-95915000D01*
X103477000Y-96073750D01*
X103477000Y-97923000D01*
X104726250Y-97923000D01*
X104885000Y-97764250D01*
X104885000Y-97140133D01*
X105007074Y-97262207D01*
X105424234Y-97435000D01*
X105875766Y-97435000D01*
X106292926Y-97262207D01*
X106612207Y-96942926D01*
X106640000Y-96875828D01*
X106640000Y-96926309D01*
X106736673Y-97159698D01*
X106915301Y-97338327D01*
X107148690Y-97435000D01*
X107614250Y-97435000D01*
X107773000Y-97276250D01*
X107773000Y-96177000D01*
X108027000Y-96177000D01*
X108027000Y-97276250D01*
X108185750Y-97435000D01*
X108651310Y-97435000D01*
X108884699Y-97338327D01*
X108950000Y-97273025D01*
X109115301Y-97438327D01*
X109348690Y-97535000D01*
X109814250Y-97535000D01*
X109973000Y-97376250D01*
X109973000Y-96277000D01*
X110227000Y-96277000D01*
X110227000Y-97376250D01*
X110385750Y-97535000D01*
X110851310Y-97535000D01*
X111084699Y-97438327D01*
X111263327Y-97259698D01*
X111360000Y-97026309D01*
X111360000Y-96435750D01*
X111201250Y-96277000D01*
X110227000Y-96277000D01*
X109973000Y-96277000D01*
X109101250Y-96277000D01*
X109001250Y-96177000D01*
X108027000Y-96177000D01*
X107773000Y-96177000D01*
X107753000Y-96177000D01*
X107753000Y-95923000D01*
X107773000Y-95923000D01*
X107773000Y-95903000D01*
X108027000Y-95903000D01*
X108027000Y-95923000D01*
X108898750Y-95923000D01*
X108998750Y-96023000D01*
X109973000Y-96023000D01*
X109973000Y-96003000D01*
X110227000Y-96003000D01*
X110227000Y-96023000D01*
X111201250Y-96023000D01*
X111360000Y-95864250D01*
X111360000Y-95573691D01*
X113165000Y-95573691D01*
X113165000Y-96914250D01*
X113323750Y-97073000D01*
X114473000Y-97073000D01*
X114473000Y-95223750D01*
X114314250Y-95065000D01*
X113673690Y-95065000D01*
X113440301Y-95161673D01*
X113261673Y-95340302D01*
X113165000Y-95573691D01*
X111360000Y-95573691D01*
X111360000Y-95273691D01*
X111263327Y-95040302D01*
X111121680Y-94898654D01*
X111182809Y-94857809D01*
X111323157Y-94647765D01*
X111370451Y-94410000D01*
X113174440Y-94410000D01*
X113201843Y-94547765D01*
X113342191Y-94757809D01*
X113552235Y-94898157D01*
X113800000Y-94947440D01*
X114972639Y-94947440D01*
X115090199Y-95065000D01*
X114885750Y-95065000D01*
X114727000Y-95223750D01*
X114727000Y-97073000D01*
X115876250Y-97073000D01*
X116035000Y-96914250D01*
X116035000Y-96009801D01*
X118109671Y-98084473D01*
X118152071Y-98147929D01*
X118403463Y-98315904D01*
X118625148Y-98360000D01*
X118625152Y-98360000D01*
X118700000Y-98374888D01*
X118774848Y-98360000D01*
X120102560Y-98360000D01*
X120102560Y-98750000D01*
X120151843Y-98997765D01*
X120292191Y-99207809D01*
X120415198Y-99290000D01*
X115634949Y-99290000D01*
X115759699Y-99238327D01*
X115938327Y-99059698D01*
X116035000Y-98826309D01*
X116035000Y-97485750D01*
X115876250Y-97327000D01*
X114727000Y-97327000D01*
X114727000Y-97347000D01*
X114473000Y-97347000D01*
X114473000Y-97327000D01*
X113323750Y-97327000D01*
X113165000Y-97485750D01*
X113165000Y-98826309D01*
X113261673Y-99059698D01*
X113440301Y-99238327D01*
X113565051Y-99290000D01*
X104885000Y-99290000D01*
X104885000Y-98335750D01*
X104726250Y-98177000D01*
X103477000Y-98177000D01*
X103477000Y-98197000D01*
X103223000Y-98197000D01*
X103223000Y-98177000D01*
X101973750Y-98177000D01*
X101815000Y-98335750D01*
X101815000Y-99290000D01*
X100710000Y-99290000D01*
X100710000Y-96423691D01*
X101815000Y-96423691D01*
X101815000Y-97764250D01*
X101973750Y-97923000D01*
X103223000Y-97923000D01*
X103223000Y-96073750D01*
X103064250Y-95915000D01*
X102323690Y-95915000D01*
X102090301Y-96011673D01*
X101911673Y-96190302D01*
X101815000Y-96423691D01*
X100710000Y-96423691D01*
X100710000Y-95183750D01*
X100815000Y-95183750D01*
X100815000Y-95276309D01*
X100911673Y-95509698D01*
X101090301Y-95688327D01*
X101323690Y-95785000D01*
X101914250Y-95785000D01*
X102073000Y-95626250D01*
X102073000Y-95025000D01*
X102327000Y-95025000D01*
X102327000Y-95626250D01*
X102485750Y-95785000D01*
X103076310Y-95785000D01*
X103309699Y-95688327D01*
X103488327Y-95509698D01*
X103585000Y-95276309D01*
X103585000Y-95183750D01*
X103426250Y-95025000D01*
X102327000Y-95025000D01*
X102073000Y-95025000D01*
X100973750Y-95025000D01*
X100815000Y-95183750D01*
X100710000Y-95183750D01*
X100710000Y-88835750D01*
X101815000Y-88835750D01*
X101815000Y-90176309D01*
X101911673Y-90409698D01*
X102090301Y-90588327D01*
X102323690Y-90685000D01*
X103064250Y-90685000D01*
X103223000Y-90526250D01*
X103223000Y-88677000D01*
X101973750Y-88677000D01*
X101815000Y-88835750D01*
X100710000Y-88835750D01*
X100710000Y-86923691D01*
X101815000Y-86923691D01*
X101815000Y-88264250D01*
X101973750Y-88423000D01*
X103223000Y-88423000D01*
X103223000Y-86573750D01*
X103477000Y-86573750D01*
X103477000Y-88423000D01*
X104726250Y-88423000D01*
X104885000Y-88264250D01*
X104885000Y-86923691D01*
X104788327Y-86690302D01*
X104609699Y-86511673D01*
X104376310Y-86415000D01*
X103635750Y-86415000D01*
X103477000Y-86573750D01*
X103223000Y-86573750D01*
X103064250Y-86415000D01*
X102323690Y-86415000D01*
X102090301Y-86511673D01*
X101911673Y-86690302D01*
X101815000Y-86923691D01*
X100710000Y-86923691D01*
X100710000Y-64723690D01*
X117665000Y-64723690D01*
X117665000Y-65214250D01*
X117823750Y-65373000D01*
X118923000Y-65373000D01*
X118923000Y-64373750D01*
X118764250Y-64215000D01*
X118173691Y-64215000D01*
X117940302Y-64311673D01*
X117761673Y-64490301D01*
X117665000Y-64723690D01*
X100710000Y-64723690D01*
X100710000Y-60710000D01*
X139290000Y-60710000D01*
X139290000Y-72950553D01*
G36*
X137765001Y-74404448D02*
X137765001Y-74702560D01*
X136150000Y-74702560D01*
X135902235Y-74751843D01*
X135708802Y-74881092D01*
X135682809Y-74842191D01*
X135472765Y-74701843D01*
X135225000Y-74652560D01*
X133975000Y-74652560D01*
X133727235Y-74701843D01*
X133517191Y-74842191D01*
X133376843Y-75052235D01*
X133335494Y-75260112D01*
X133105874Y-75165000D01*
X132694126Y-75165000D01*
X132392349Y-75290000D01*
X131539802Y-75290000D01*
X130387770Y-74137969D01*
X130398654Y-74121680D01*
X130540302Y-74263327D01*
X130773691Y-74360000D01*
X131364250Y-74360000D01*
X131523000Y-74201250D01*
X131523000Y-73227000D01*
X131777000Y-73227000D01*
X131777000Y-74201250D01*
X131935750Y-74360000D01*
X132526309Y-74360000D01*
X132759698Y-74263327D01*
X132938327Y-74084699D01*
X133035000Y-73851310D01*
X133035000Y-73385750D01*
X132876250Y-73227000D01*
X131777000Y-73227000D01*
X131523000Y-73227000D01*
X131503000Y-73227000D01*
X131503000Y-72973000D01*
X131523000Y-72973000D01*
X131523000Y-71998750D01*
X131777000Y-71998750D01*
X131777000Y-72973000D01*
X132876250Y-72973000D01*
X133035000Y-72814250D01*
X133035000Y-72348690D01*
X132938327Y-72115301D01*
X132759698Y-71936673D01*
X132526309Y-71840000D01*
X131935750Y-71840000D01*
X131777000Y-71998750D01*
X131523000Y-71998750D01*
X131364250Y-71840000D01*
X130773691Y-71840000D01*
X130540302Y-71936673D01*
X130398654Y-72078320D01*
X130357809Y-72017191D01*
X130147765Y-71876843D01*
X129900000Y-71827560D01*
X128400000Y-71827560D01*
X128152235Y-71876843D01*
X127942191Y-72017191D01*
X127801843Y-72227235D01*
X127752560Y-72475000D01*
X127752560Y-72877560D01*
X127000000Y-72877560D01*
X126752235Y-72926843D01*
X126542191Y-73067191D01*
X126401843Y-73277235D01*
X126352560Y-73525000D01*
X126352560Y-73775000D01*
X126373217Y-73878852D01*
X126365000Y-73898690D01*
X126365000Y-73928750D01*
X126387647Y-73951397D01*
X126401843Y-74022765D01*
X126486859Y-74150000D01*
X126401843Y-74277235D01*
X126387647Y-74348603D01*
X126365000Y-74371250D01*
X126365000Y-74401310D01*
X126373217Y-74421148D01*
X126352560Y-74525000D01*
X126352560Y-74775000D01*
X126377424Y-74900000D01*
X126352560Y-75025000D01*
X126352560Y-75275000D01*
X126377424Y-75400000D01*
X126352560Y-75525000D01*
X126352560Y-75775000D01*
X126377424Y-75900000D01*
X126352560Y-76025000D01*
X126352560Y-76275000D01*
X126377424Y-76400000D01*
X126352560Y-76525000D01*
X126352560Y-76775000D01*
X126377424Y-76900000D01*
X126352560Y-77025000D01*
X126352560Y-77275000D01*
X126377424Y-77400000D01*
X126352560Y-77525000D01*
X126352560Y-77775000D01*
X126377424Y-77900000D01*
X126352560Y-78025000D01*
X126352560Y-78275000D01*
X126377424Y-78400000D01*
X126352560Y-78525000D01*
X126352560Y-78775000D01*
X126377424Y-78900000D01*
X126352560Y-79025000D01*
X126352560Y-79275000D01*
X126377424Y-79400000D01*
X126352560Y-79525000D01*
X126352560Y-79775000D01*
X126377424Y-79900000D01*
X126352560Y-80025000D01*
X126352560Y-80275000D01*
X126377424Y-80400000D01*
X126352560Y-80525000D01*
X126352560Y-80775000D01*
X126377424Y-80900000D01*
X126352560Y-81025000D01*
X126352560Y-81275000D01*
X126401843Y-81522765D01*
X126542191Y-81732809D01*
X126752235Y-81873157D01*
X127000000Y-81922440D01*
X128000000Y-81922440D01*
X128247765Y-81873157D01*
X128457809Y-81732809D01*
X128598157Y-81522765D01*
X128647440Y-81275000D01*
X128647440Y-81025000D01*
X128622576Y-80900000D01*
X128647440Y-80775000D01*
X128647440Y-80525000D01*
X128622576Y-80400000D01*
X128647440Y-80275000D01*
X128647440Y-80025000D01*
X128622576Y-79900000D01*
X128647440Y-79775000D01*
X128647440Y-79525000D01*
X128622576Y-79400000D01*
X128647440Y-79275000D01*
X128647440Y-79025000D01*
X128622576Y-78900000D01*
X128647440Y-78775000D01*
X128647440Y-78525000D01*
X128622576Y-78400000D01*
X128647440Y-78275000D01*
X128647440Y-78025000D01*
X128622576Y-77900000D01*
X128647440Y-77775000D01*
X128647440Y-77525000D01*
X128622576Y-77400000D01*
X128647440Y-77275000D01*
X128647440Y-77025000D01*
X128622576Y-76900000D01*
X128647440Y-76775000D01*
X128647440Y-76525000D01*
X128622576Y-76400000D01*
X128647440Y-76275000D01*
X128647440Y-76136886D01*
X130265001Y-77754448D01*
X130265000Y-79227615D01*
X130250602Y-79300000D01*
X130265000Y-79372384D01*
X130265000Y-79372387D01*
X130307646Y-79586782D01*
X130470095Y-79829905D01*
X130531465Y-79870911D01*
X134949091Y-84288538D01*
X134990095Y-84349905D01*
X135233217Y-84512354D01*
X135447612Y-84555000D01*
X135447615Y-84555000D01*
X135519999Y-84569398D01*
X135592383Y-84555000D01*
X135705118Y-84555000D01*
X135929375Y-84890625D01*
X136227761Y-85090000D01*
X135929375Y-85289375D01*
X135701989Y-85629683D01*
X135511136Y-85667646D01*
X135268014Y-85830095D01*
X135227009Y-85891463D01*
X133503472Y-87615001D01*
X127360000Y-87615001D01*
X127360000Y-87435750D01*
X127201250Y-87277000D01*
X126227000Y-87277000D01*
X126227000Y-87297000D01*
X125973000Y-87297000D01*
X125973000Y-87277000D01*
X124998750Y-87277000D01*
X124898750Y-87377000D01*
X124027000Y-87377000D01*
X124027000Y-87397000D01*
X123773000Y-87397000D01*
X123773000Y-87377000D01*
X122798750Y-87377000D01*
X122640000Y-87535750D01*
X122640000Y-87615001D01*
X120739251Y-87615001D01*
X120601250Y-87477000D01*
X119627000Y-87477000D01*
X119627000Y-87497000D01*
X119373000Y-87497000D01*
X119373000Y-87477000D01*
X118398750Y-87477000D01*
X118260749Y-87615001D01*
X112254448Y-87615001D01*
X109634999Y-84995553D01*
X109634999Y-83147440D01*
X110022638Y-83147440D01*
X110459670Y-83584472D01*
X110502071Y-83647929D01*
X110753463Y-83815904D01*
X110975148Y-83860000D01*
X110975153Y-83860000D01*
X111050000Y-83874888D01*
X111124847Y-83860000D01*
X113250153Y-83860000D01*
X113325000Y-83874888D01*
X113399847Y-83860000D01*
X116560199Y-83860000D01*
X117865198Y-85165000D01*
X117694126Y-85165000D01*
X117313720Y-85322569D01*
X117022569Y-85613720D01*
X116865000Y-85994126D01*
X116865000Y-86405874D01*
X117022569Y-86786280D01*
X117313720Y-87077431D01*
X117694126Y-87235000D01*
X118105874Y-87235000D01*
X118321454Y-87145704D01*
X118398750Y-87223000D01*
X119373000Y-87223000D01*
X119373000Y-87203000D01*
X119627000Y-87203000D01*
X119627000Y-87223000D01*
X120601250Y-87223000D01*
X120760000Y-87064250D01*
X120760000Y-86473691D01*
X120663327Y-86240302D01*
X120521680Y-86098654D01*
X120582809Y-86057809D01*
X120723157Y-85847765D01*
X120772440Y-85600000D01*
X120772440Y-84228058D01*
X120800000Y-84222576D01*
X120925000Y-84247440D01*
X121175000Y-84247440D01*
X121300000Y-84222576D01*
X121425000Y-84247440D01*
X121675000Y-84247440D01*
X121800000Y-84222576D01*
X121925000Y-84247440D01*
X122175000Y-84247440D01*
X122300000Y-84222576D01*
X122425000Y-84247440D01*
X122627560Y-84247440D01*
X122627560Y-85500000D01*
X122676843Y-85747765D01*
X122817191Y-85957809D01*
X122878320Y-85998654D01*
X122736673Y-86140302D01*
X122640000Y-86373691D01*
X122640000Y-86964250D01*
X122798750Y-87123000D01*
X123773000Y-87123000D01*
X123773000Y-87103000D01*
X124027000Y-87103000D01*
X124027000Y-87123000D01*
X125001250Y-87123000D01*
X125101250Y-87023000D01*
X125973000Y-87023000D01*
X125973000Y-87003000D01*
X126227000Y-87003000D01*
X126227000Y-87023000D01*
X127201250Y-87023000D01*
X127360000Y-86864250D01*
X127360000Y-86861959D01*
X127425000Y-86874888D01*
X127499847Y-86860000D01*
X127796289Y-86860000D01*
X127913720Y-86977431D01*
X128294126Y-87135000D01*
X128705874Y-87135000D01*
X129086280Y-86977431D01*
X129377431Y-86686280D01*
X129535000Y-86305874D01*
X129535000Y-85894126D01*
X129377431Y-85513720D01*
X129086280Y-85222569D01*
X128705874Y-85065000D01*
X128294126Y-85065000D01*
X127913720Y-85222569D01*
X127796289Y-85340000D01*
X127739802Y-85340000D01*
X127372440Y-84972638D01*
X127372440Y-83900000D01*
X127323157Y-83652235D01*
X127182809Y-83442191D01*
X126972765Y-83301843D01*
X126725000Y-83252560D01*
X126322440Y-83252560D01*
X126322440Y-82600000D01*
X126273157Y-82352235D01*
X126132809Y-82142191D01*
X125922765Y-82001843D01*
X125675000Y-81952560D01*
X125425000Y-81952560D01*
X125321148Y-81973217D01*
X125301310Y-81965000D01*
X125271250Y-81965000D01*
X125248603Y-81987647D01*
X125177235Y-82001843D01*
X125050000Y-82086859D01*
X124922765Y-82001843D01*
X124851397Y-81987647D01*
X124828750Y-81965000D01*
X124798690Y-81965000D01*
X124778852Y-81973217D01*
X124675000Y-81952560D01*
X124425000Y-81952560D01*
X124300000Y-81977424D01*
X124175000Y-81952560D01*
X123925000Y-81952560D01*
X123800000Y-81977424D01*
X123675000Y-81952560D01*
X123425000Y-81952560D01*
X123300000Y-81977424D01*
X123175000Y-81952560D01*
X122925000Y-81952560D01*
X122800000Y-81977424D01*
X122675000Y-81952560D01*
X122425000Y-81952560D01*
X122300000Y-81977424D01*
X122175000Y-81952560D01*
X121925000Y-81952560D01*
X121800000Y-81977424D01*
X121675000Y-81952560D01*
X121425000Y-81952560D01*
X121300000Y-81977424D01*
X121175000Y-81952560D01*
X120925000Y-81952560D01*
X120800000Y-81977424D01*
X120675000Y-81952560D01*
X120425000Y-81952560D01*
X120300000Y-81977424D01*
X120175000Y-81952560D01*
X119925000Y-81952560D01*
X119800000Y-81977424D01*
X119675000Y-81952560D01*
X119425000Y-81952560D01*
X119300000Y-81977424D01*
X119175000Y-81952560D01*
X118925000Y-81952560D01*
X118821148Y-81973217D01*
X118801310Y-81965000D01*
X118771250Y-81965000D01*
X118748603Y-81987647D01*
X118677235Y-82001843D01*
X118550000Y-82086859D01*
X118422765Y-82001843D01*
X118351397Y-81987647D01*
X118328750Y-81965000D01*
X118298690Y-81965000D01*
X118278852Y-81973217D01*
X118175000Y-81952560D01*
X117925000Y-81952560D01*
X117677235Y-82001843D01*
X117467191Y-82142191D01*
X117326843Y-82352235D01*
X117303029Y-82471956D01*
X117171537Y-82384096D01*
X116949852Y-82340000D01*
X116949847Y-82340000D01*
X116875000Y-82325112D01*
X116800153Y-82340000D01*
X115363089Y-82340000D01*
X115447765Y-82323157D01*
X115657809Y-82182809D01*
X115798157Y-81972765D01*
X115808167Y-81922440D01*
X116600000Y-81922440D01*
X116847765Y-81873157D01*
X117057809Y-81732809D01*
X117198157Y-81522765D01*
X117247440Y-81275000D01*
X117247440Y-81025000D01*
X117222576Y-80900000D01*
X117247440Y-80775000D01*
X117247440Y-80525000D01*
X117222576Y-80400000D01*
X117247440Y-80275000D01*
X117247440Y-80025000D01*
X117222576Y-79900000D01*
X117247440Y-79775000D01*
X117247440Y-79525000D01*
X117226783Y-79421148D01*
X117235000Y-79401310D01*
X117235000Y-79371250D01*
X117212353Y-79348603D01*
X117198157Y-79277235D01*
X117113141Y-79150000D01*
X117198157Y-79022765D01*
X117212353Y-78951397D01*
X117235000Y-78928750D01*
X117235000Y-78898690D01*
X117226783Y-78878852D01*
X117247440Y-78775000D01*
X117247440Y-78525000D01*
X117222576Y-78400000D01*
X117247440Y-78275000D01*
X117247440Y-78025000D01*
X117222576Y-77900000D01*
X117247440Y-77775000D01*
X117247440Y-77525000D01*
X117222576Y-77400000D01*
X117247440Y-77275000D01*
X117247440Y-77025000D01*
X117222576Y-76900000D01*
X117247440Y-76775000D01*
X117247440Y-76525000D01*
X117222576Y-76400000D01*
X117247440Y-76275000D01*
X117247440Y-76025000D01*
X117222576Y-75900000D01*
X117247440Y-75775000D01*
X117247440Y-75525000D01*
X117222576Y-75400000D01*
X117247440Y-75275000D01*
X117247440Y-75025000D01*
X117222576Y-74900000D01*
X117247440Y-74775000D01*
X117247440Y-74525000D01*
X117222576Y-74400000D01*
X117247440Y-74275000D01*
X117247440Y-74025000D01*
X117222576Y-73899999D01*
X117247440Y-73775000D01*
X117247440Y-73525000D01*
X117198157Y-73277235D01*
X117187907Y-73261895D01*
X117661895Y-72787907D01*
X117677235Y-72798157D01*
X117925000Y-72847440D01*
X118175000Y-72847440D01*
X118278852Y-72826783D01*
X118298690Y-72835000D01*
X118328750Y-72835000D01*
X118351397Y-72812353D01*
X118422765Y-72798157D01*
X118550000Y-72713141D01*
X118677235Y-72798157D01*
X118748603Y-72812353D01*
X118771250Y-72835000D01*
X118801310Y-72835000D01*
X118821148Y-72826783D01*
X118925000Y-72847440D01*
X119175000Y-72847440D01*
X119300000Y-72822576D01*
X119425000Y-72847440D01*
X119675000Y-72847440D01*
X119800000Y-72822576D01*
X119925000Y-72847440D01*
X120175000Y-72847440D01*
X120300000Y-72822576D01*
X120425000Y-72847440D01*
X120675000Y-72847440D01*
X120800000Y-72822576D01*
X120925000Y-72847440D01*
X121175000Y-72847440D01*
X121300000Y-72822576D01*
X121425000Y-72847440D01*
X121675000Y-72847440D01*
X121800000Y-72822576D01*
X121925000Y-72847440D01*
X122175000Y-72847440D01*
X122300000Y-72822576D01*
X122425000Y-72847440D01*
X122675000Y-72847440D01*
X122800000Y-72822576D01*
X122925000Y-72847440D01*
X123175000Y-72847440D01*
X123300000Y-72822576D01*
X123425000Y-72847440D01*
X123675000Y-72847440D01*
X123800000Y-72822576D01*
X123925000Y-72847440D01*
X124175000Y-72847440D01*
X124300000Y-72822576D01*
X124425000Y-72847440D01*
X124675000Y-72847440D01*
X124800000Y-72822576D01*
X124925000Y-72847440D01*
X125175000Y-72847440D01*
X125300000Y-72822576D01*
X125425000Y-72847440D01*
X125675000Y-72847440D01*
X125922765Y-72798157D01*
X126132809Y-72657809D01*
X126273157Y-72447765D01*
X126322440Y-72200000D01*
X126322440Y-71200000D01*
X126285000Y-71011774D01*
X126285000Y-70654446D01*
X127304447Y-69635000D01*
X132995554Y-69635000D01*
X137765001Y-74404448D01*
X137765001Y-74404448D01*
G37*
X137765001Y-74404448D02*
X137765001Y-74702560D01*
X136150000Y-74702560D01*
X135902235Y-74751843D01*
X135708802Y-74881092D01*
X135682809Y-74842191D01*
X135472765Y-74701843D01*
X135225000Y-74652560D01*
X133975000Y-74652560D01*
X133727235Y-74701843D01*
X133517191Y-74842191D01*
X133376843Y-75052235D01*
X133335494Y-75260112D01*
X133105874Y-75165000D01*
X132694126Y-75165000D01*
X132392349Y-75290000D01*
X131539802Y-75290000D01*
X130387770Y-74137969D01*
X130398654Y-74121680D01*
X130540302Y-74263327D01*
X130773691Y-74360000D01*
X131364250Y-74360000D01*
X131523000Y-74201250D01*
X131523000Y-73227000D01*
X131777000Y-73227000D01*
X131777000Y-74201250D01*
X131935750Y-74360000D01*
X132526309Y-74360000D01*
X132759698Y-74263327D01*
X132938327Y-74084699D01*
X133035000Y-73851310D01*
X133035000Y-73385750D01*
X132876250Y-73227000D01*
X131777000Y-73227000D01*
X131523000Y-73227000D01*
X131503000Y-73227000D01*
X131503000Y-72973000D01*
X131523000Y-72973000D01*
X131523000Y-71998750D01*
X131777000Y-71998750D01*
X131777000Y-72973000D01*
X132876250Y-72973000D01*
X133035000Y-72814250D01*
X133035000Y-72348690D01*
X132938327Y-72115301D01*
X132759698Y-71936673D01*
X132526309Y-71840000D01*
X131935750Y-71840000D01*
X131777000Y-71998750D01*
X131523000Y-71998750D01*
X131364250Y-71840000D01*
X130773691Y-71840000D01*
X130540302Y-71936673D01*
X130398654Y-72078320D01*
X130357809Y-72017191D01*
X130147765Y-71876843D01*
X129900000Y-71827560D01*
X128400000Y-71827560D01*
X128152235Y-71876843D01*
X127942191Y-72017191D01*
X127801843Y-72227235D01*
X127752560Y-72475000D01*
X127752560Y-72877560D01*
X127000000Y-72877560D01*
X126752235Y-72926843D01*
X126542191Y-73067191D01*
X126401843Y-73277235D01*
X126352560Y-73525000D01*
X126352560Y-73775000D01*
X126373217Y-73878852D01*
X126365000Y-73898690D01*
X126365000Y-73928750D01*
X126387647Y-73951397D01*
X126401843Y-74022765D01*
X126486859Y-74150000D01*
X126401843Y-74277235D01*
X126387647Y-74348603D01*
X126365000Y-74371250D01*
X126365000Y-74401310D01*
X126373217Y-74421148D01*
X126352560Y-74525000D01*
X126352560Y-74775000D01*
X126377424Y-74900000D01*
X126352560Y-75025000D01*
X126352560Y-75275000D01*
X126377424Y-75400000D01*
X126352560Y-75525000D01*
X126352560Y-75775000D01*
X126377424Y-75900000D01*
X126352560Y-76025000D01*
X126352560Y-76275000D01*
X126377424Y-76400000D01*
X126352560Y-76525000D01*
X126352560Y-76775000D01*
X126377424Y-76900000D01*
X126352560Y-77025000D01*
X126352560Y-77275000D01*
X126377424Y-77400000D01*
X126352560Y-77525000D01*
X126352560Y-77775000D01*
X126377424Y-77900000D01*
X126352560Y-78025000D01*
X126352560Y-78275000D01*
X126377424Y-78400000D01*
X126352560Y-78525000D01*
X126352560Y-78775000D01*
X126377424Y-78900000D01*
X126352560Y-79025000D01*
X126352560Y-79275000D01*
X126377424Y-79400000D01*
X126352560Y-79525000D01*
X126352560Y-79775000D01*
X126377424Y-79900000D01*
X126352560Y-80025000D01*
X126352560Y-80275000D01*
X126377424Y-80400000D01*
X126352560Y-80525000D01*
X126352560Y-80775000D01*
X126377424Y-80900000D01*
X126352560Y-81025000D01*
X126352560Y-81275000D01*
X126401843Y-81522765D01*
X126542191Y-81732809D01*
X126752235Y-81873157D01*
X127000000Y-81922440D01*
X128000000Y-81922440D01*
X128247765Y-81873157D01*
X128457809Y-81732809D01*
X128598157Y-81522765D01*
X128647440Y-81275000D01*
X128647440Y-81025000D01*
X128622576Y-80900000D01*
X128647440Y-80775000D01*
X128647440Y-80525000D01*
X128622576Y-80400000D01*
X128647440Y-80275000D01*
X128647440Y-80025000D01*
X128622576Y-79900000D01*
X128647440Y-79775000D01*
X128647440Y-79525000D01*
X128622576Y-79400000D01*
X128647440Y-79275000D01*
X128647440Y-79025000D01*
X128622576Y-78900000D01*
X128647440Y-78775000D01*
X128647440Y-78525000D01*
X128622576Y-78400000D01*
X128647440Y-78275000D01*
X128647440Y-78025000D01*
X128622576Y-77900000D01*
X128647440Y-77775000D01*
X128647440Y-77525000D01*
X128622576Y-77400000D01*
X128647440Y-77275000D01*
X128647440Y-77025000D01*
X128622576Y-76900000D01*
X128647440Y-76775000D01*
X128647440Y-76525000D01*
X128622576Y-76400000D01*
X128647440Y-76275000D01*
X128647440Y-76136886D01*
X130265001Y-77754448D01*
X130265000Y-79227615D01*
X130250602Y-79300000D01*
X130265000Y-79372384D01*
X130265000Y-79372387D01*
X130307646Y-79586782D01*
X130470095Y-79829905D01*
X130531465Y-79870911D01*
X134949091Y-84288538D01*
X134990095Y-84349905D01*
X135233217Y-84512354D01*
X135447612Y-84555000D01*
X135447615Y-84555000D01*
X135519999Y-84569398D01*
X135592383Y-84555000D01*
X135705118Y-84555000D01*
X135929375Y-84890625D01*
X136227761Y-85090000D01*
X135929375Y-85289375D01*
X135701989Y-85629683D01*
X135511136Y-85667646D01*
X135268014Y-85830095D01*
X135227009Y-85891463D01*
X133503472Y-87615001D01*
X127360000Y-87615001D01*
X127360000Y-87435750D01*
X127201250Y-87277000D01*
X126227000Y-87277000D01*
X126227000Y-87297000D01*
X125973000Y-87297000D01*
X125973000Y-87277000D01*
X124998750Y-87277000D01*
X124898750Y-87377000D01*
X124027000Y-87377000D01*
X124027000Y-87397000D01*
X123773000Y-87397000D01*
X123773000Y-87377000D01*
X122798750Y-87377000D01*
X122640000Y-87535750D01*
X122640000Y-87615001D01*
X120739251Y-87615001D01*
X120601250Y-87477000D01*
X119627000Y-87477000D01*
X119627000Y-87497000D01*
X119373000Y-87497000D01*
X119373000Y-87477000D01*
X118398750Y-87477000D01*
X118260749Y-87615001D01*
X112254448Y-87615001D01*
X109634999Y-84995553D01*
X109634999Y-83147440D01*
X110022638Y-83147440D01*
X110459670Y-83584472D01*
X110502071Y-83647929D01*
X110753463Y-83815904D01*
X110975148Y-83860000D01*
X110975153Y-83860000D01*
X111050000Y-83874888D01*
X111124847Y-83860000D01*
X113250153Y-83860000D01*
X113325000Y-83874888D01*
X113399847Y-83860000D01*
X116560199Y-83860000D01*
X117865198Y-85165000D01*
X117694126Y-85165000D01*
X117313720Y-85322569D01*
X117022569Y-85613720D01*
X116865000Y-85994126D01*
X116865000Y-86405874D01*
X117022569Y-86786280D01*
X117313720Y-87077431D01*
X117694126Y-87235000D01*
X118105874Y-87235000D01*
X118321454Y-87145704D01*
X118398750Y-87223000D01*
X119373000Y-87223000D01*
X119373000Y-87203000D01*
X119627000Y-87203000D01*
X119627000Y-87223000D01*
X120601250Y-87223000D01*
X120760000Y-87064250D01*
X120760000Y-86473691D01*
X120663327Y-86240302D01*
X120521680Y-86098654D01*
X120582809Y-86057809D01*
X120723157Y-85847765D01*
X120772440Y-85600000D01*
X120772440Y-84228058D01*
X120800000Y-84222576D01*
X120925000Y-84247440D01*
X121175000Y-84247440D01*
X121300000Y-84222576D01*
X121425000Y-84247440D01*
X121675000Y-84247440D01*
X121800000Y-84222576D01*
X121925000Y-84247440D01*
X122175000Y-84247440D01*
X122300000Y-84222576D01*
X122425000Y-84247440D01*
X122627560Y-84247440D01*
X122627560Y-85500000D01*
X122676843Y-85747765D01*
X122817191Y-85957809D01*
X122878320Y-85998654D01*
X122736673Y-86140302D01*
X122640000Y-86373691D01*
X122640000Y-86964250D01*
X122798750Y-87123000D01*
X123773000Y-87123000D01*
X123773000Y-87103000D01*
X124027000Y-87103000D01*
X124027000Y-87123000D01*
X125001250Y-87123000D01*
X125101250Y-87023000D01*
X125973000Y-87023000D01*
X125973000Y-87003000D01*
X126227000Y-87003000D01*
X126227000Y-87023000D01*
X127201250Y-87023000D01*
X127360000Y-86864250D01*
X127360000Y-86861959D01*
X127425000Y-86874888D01*
X127499847Y-86860000D01*
X127796289Y-86860000D01*
X127913720Y-86977431D01*
X128294126Y-87135000D01*
X128705874Y-87135000D01*
X129086280Y-86977431D01*
X129377431Y-86686280D01*
X129535000Y-86305874D01*
X129535000Y-85894126D01*
X129377431Y-85513720D01*
X129086280Y-85222569D01*
X128705874Y-85065000D01*
X128294126Y-85065000D01*
X127913720Y-85222569D01*
X127796289Y-85340000D01*
X127739802Y-85340000D01*
X127372440Y-84972638D01*
X127372440Y-83900000D01*
X127323157Y-83652235D01*
X127182809Y-83442191D01*
X126972765Y-83301843D01*
X126725000Y-83252560D01*
X126322440Y-83252560D01*
X126322440Y-82600000D01*
X126273157Y-82352235D01*
X126132809Y-82142191D01*
X125922765Y-82001843D01*
X125675000Y-81952560D01*
X125425000Y-81952560D01*
X125321148Y-81973217D01*
X125301310Y-81965000D01*
X125271250Y-81965000D01*
X125248603Y-81987647D01*
X125177235Y-82001843D01*
X125050000Y-82086859D01*
X124922765Y-82001843D01*
X124851397Y-81987647D01*
X124828750Y-81965000D01*
X124798690Y-81965000D01*
X124778852Y-81973217D01*
X124675000Y-81952560D01*
X124425000Y-81952560D01*
X124300000Y-81977424D01*
X124175000Y-81952560D01*
X123925000Y-81952560D01*
X123800000Y-81977424D01*
X123675000Y-81952560D01*
X123425000Y-81952560D01*
X123300000Y-81977424D01*
X123175000Y-81952560D01*
X122925000Y-81952560D01*
X122800000Y-81977424D01*
X122675000Y-81952560D01*
X122425000Y-81952560D01*
X122300000Y-81977424D01*
X122175000Y-81952560D01*
X121925000Y-81952560D01*
X121800000Y-81977424D01*
X121675000Y-81952560D01*
X121425000Y-81952560D01*
X121300000Y-81977424D01*
X121175000Y-81952560D01*
X120925000Y-81952560D01*
X120800000Y-81977424D01*
X120675000Y-81952560D01*
X120425000Y-81952560D01*
X120300000Y-81977424D01*
X120175000Y-81952560D01*
X119925000Y-81952560D01*
X119800000Y-81977424D01*
X119675000Y-81952560D01*
X119425000Y-81952560D01*
X119300000Y-81977424D01*
X119175000Y-81952560D01*
X118925000Y-81952560D01*
X118821148Y-81973217D01*
X118801310Y-81965000D01*
X118771250Y-81965000D01*
X118748603Y-81987647D01*
X118677235Y-82001843D01*
X118550000Y-82086859D01*
X118422765Y-82001843D01*
X118351397Y-81987647D01*
X118328750Y-81965000D01*
X118298690Y-81965000D01*
X118278852Y-81973217D01*
X118175000Y-81952560D01*
X117925000Y-81952560D01*
X117677235Y-82001843D01*
X117467191Y-82142191D01*
X117326843Y-82352235D01*
X117303029Y-82471956D01*
X117171537Y-82384096D01*
X116949852Y-82340000D01*
X116949847Y-82340000D01*
X116875000Y-82325112D01*
X116800153Y-82340000D01*
X115363089Y-82340000D01*
X115447765Y-82323157D01*
X115657809Y-82182809D01*
X115798157Y-81972765D01*
X115808167Y-81922440D01*
X116600000Y-81922440D01*
X116847765Y-81873157D01*
X117057809Y-81732809D01*
X117198157Y-81522765D01*
X117247440Y-81275000D01*
X117247440Y-81025000D01*
X117222576Y-80900000D01*
X117247440Y-80775000D01*
X117247440Y-80525000D01*
X117222576Y-80400000D01*
X117247440Y-80275000D01*
X117247440Y-80025000D01*
X117222576Y-79900000D01*
X117247440Y-79775000D01*
X117247440Y-79525000D01*
X117226783Y-79421148D01*
X117235000Y-79401310D01*
X117235000Y-79371250D01*
X117212353Y-79348603D01*
X117198157Y-79277235D01*
X117113141Y-79150000D01*
X117198157Y-79022765D01*
X117212353Y-78951397D01*
X117235000Y-78928750D01*
X117235000Y-78898690D01*
X117226783Y-78878852D01*
X117247440Y-78775000D01*
X117247440Y-78525000D01*
X117222576Y-78400000D01*
X117247440Y-78275000D01*
X117247440Y-78025000D01*
X117222576Y-77900000D01*
X117247440Y-77775000D01*
X117247440Y-77525000D01*
X117222576Y-77400000D01*
X117247440Y-77275000D01*
X117247440Y-77025000D01*
X117222576Y-76900000D01*
X117247440Y-76775000D01*
X117247440Y-76525000D01*
X117222576Y-76400000D01*
X117247440Y-76275000D01*
X117247440Y-76025000D01*
X117222576Y-75900000D01*
X117247440Y-75775000D01*
X117247440Y-75525000D01*
X117222576Y-75400000D01*
X117247440Y-75275000D01*
X117247440Y-75025000D01*
X117222576Y-74900000D01*
X117247440Y-74775000D01*
X117247440Y-74525000D01*
X117222576Y-74400000D01*
X117247440Y-74275000D01*
X117247440Y-74025000D01*
X117222576Y-73899999D01*
X117247440Y-73775000D01*
X117247440Y-73525000D01*
X117198157Y-73277235D01*
X117187907Y-73261895D01*
X117661895Y-72787907D01*
X117677235Y-72798157D01*
X117925000Y-72847440D01*
X118175000Y-72847440D01*
X118278852Y-72826783D01*
X118298690Y-72835000D01*
X118328750Y-72835000D01*
X118351397Y-72812353D01*
X118422765Y-72798157D01*
X118550000Y-72713141D01*
X118677235Y-72798157D01*
X118748603Y-72812353D01*
X118771250Y-72835000D01*
X118801310Y-72835000D01*
X118821148Y-72826783D01*
X118925000Y-72847440D01*
X119175000Y-72847440D01*
X119300000Y-72822576D01*
X119425000Y-72847440D01*
X119675000Y-72847440D01*
X119800000Y-72822576D01*
X119925000Y-72847440D01*
X120175000Y-72847440D01*
X120300000Y-72822576D01*
X120425000Y-72847440D01*
X120675000Y-72847440D01*
X120800000Y-72822576D01*
X120925000Y-72847440D01*
X121175000Y-72847440D01*
X121300000Y-72822576D01*
X121425000Y-72847440D01*
X121675000Y-72847440D01*
X121800000Y-72822576D01*
X121925000Y-72847440D01*
X122175000Y-72847440D01*
X122300000Y-72822576D01*
X122425000Y-72847440D01*
X122675000Y-72847440D01*
X122800000Y-72822576D01*
X122925000Y-72847440D01*
X123175000Y-72847440D01*
X123300000Y-72822576D01*
X123425000Y-72847440D01*
X123675000Y-72847440D01*
X123800000Y-72822576D01*
X123925000Y-72847440D01*
X124175000Y-72847440D01*
X124300000Y-72822576D01*
X124425000Y-72847440D01*
X124675000Y-72847440D01*
X124800000Y-72822576D01*
X124925000Y-72847440D01*
X125175000Y-72847440D01*
X125300000Y-72822576D01*
X125425000Y-72847440D01*
X125675000Y-72847440D01*
X125922765Y-72798157D01*
X126132809Y-72657809D01*
X126273157Y-72447765D01*
X126322440Y-72200000D01*
X126322440Y-71200000D01*
X126285000Y-71011774D01*
X126285000Y-70654446D01*
X127304447Y-69635000D01*
X132995554Y-69635000D01*
X137765001Y-74404448D01*
G36*
X132313720Y-77077431D02*
X132694126Y-77235000D01*
X133105874Y-77235000D01*
X133416091Y-77106504D01*
X133517191Y-77257809D01*
X133578320Y-77298654D01*
X133436673Y-77440302D01*
X133340000Y-77673691D01*
X133340000Y-78264250D01*
X133498750Y-78423000D01*
X134473000Y-78423000D01*
X134473000Y-78403000D01*
X134727000Y-78403000D01*
X134727000Y-78423000D01*
X134747000Y-78423000D01*
X134747000Y-78677000D01*
X134727000Y-78677000D01*
X134727000Y-79776250D01*
X134885750Y-79935000D01*
X135351310Y-79935000D01*
X135584699Y-79838327D01*
X135763327Y-79659698D01*
X135788279Y-79599459D01*
X135929375Y-79810625D01*
X136248478Y-80023843D01*
X136118642Y-80084817D01*
X135728355Y-80513076D01*
X135558524Y-80923110D01*
X135679845Y-81153000D01*
X136873000Y-81153000D01*
X136873000Y-81133000D01*
X137127000Y-81133000D01*
X137127000Y-81153000D01*
X137147000Y-81153000D01*
X137147000Y-81407000D01*
X137127000Y-81407000D01*
X137127000Y-81427000D01*
X136873000Y-81427000D01*
X136873000Y-81407000D01*
X135679845Y-81407000D01*
X135558524Y-81636890D01*
X135728355Y-82046924D01*
X136118642Y-82475183D01*
X136248478Y-82536157D01*
X135929375Y-82749375D01*
X135752914Y-83013467D01*
X131735000Y-78995554D01*
X131735000Y-78835750D01*
X133340000Y-78835750D01*
X133340000Y-79426309D01*
X133436673Y-79659698D01*
X133615301Y-79838327D01*
X133848690Y-79935000D01*
X134314250Y-79935000D01*
X134473000Y-79776250D01*
X134473000Y-78677000D01*
X133498750Y-78677000D01*
X133340000Y-78835750D01*
X131735000Y-78835750D01*
X131735000Y-77522384D01*
X131749398Y-77450000D01*
X131735000Y-77377616D01*
X131735000Y-77377612D01*
X131692354Y-77163217D01*
X131529905Y-76920095D01*
X131468537Y-76879091D01*
X131399447Y-76810000D01*
X132046289Y-76810000D01*
X132313720Y-77077431D01*
X132313720Y-77077431D01*
G37*
X132313720Y-77077431D02*
X132694126Y-77235000D01*
X133105874Y-77235000D01*
X133416091Y-77106504D01*
X133517191Y-77257809D01*
X133578320Y-77298654D01*
X133436673Y-77440302D01*
X133340000Y-77673691D01*
X133340000Y-78264250D01*
X133498750Y-78423000D01*
X134473000Y-78423000D01*
X134473000Y-78403000D01*
X134727000Y-78403000D01*
X134727000Y-78423000D01*
X134747000Y-78423000D01*
X134747000Y-78677000D01*
X134727000Y-78677000D01*
X134727000Y-79776250D01*
X134885750Y-79935000D01*
X135351310Y-79935000D01*
X135584699Y-79838327D01*
X135763327Y-79659698D01*
X135788279Y-79599459D01*
X135929375Y-79810625D01*
X136248478Y-80023843D01*
X136118642Y-80084817D01*
X135728355Y-80513076D01*
X135558524Y-80923110D01*
X135679845Y-81153000D01*
X136873000Y-81153000D01*
X136873000Y-81133000D01*
X137127000Y-81133000D01*
X137127000Y-81153000D01*
X137147000Y-81153000D01*
X137147000Y-81407000D01*
X137127000Y-81407000D01*
X137127000Y-81427000D01*
X136873000Y-81427000D01*
X136873000Y-81407000D01*
X135679845Y-81407000D01*
X135558524Y-81636890D01*
X135728355Y-82046924D01*
X136118642Y-82475183D01*
X136248478Y-82536157D01*
X135929375Y-82749375D01*
X135752914Y-83013467D01*
X131735000Y-78995554D01*
X131735000Y-78835750D01*
X133340000Y-78835750D01*
X133340000Y-79426309D01*
X133436673Y-79659698D01*
X133615301Y-79838327D01*
X133848690Y-79935000D01*
X134314250Y-79935000D01*
X134473000Y-79776250D01*
X134473000Y-78677000D01*
X133498750Y-78677000D01*
X133340000Y-78835750D01*
X131735000Y-78835750D01*
X131735000Y-77522384D01*
X131749398Y-77450000D01*
X131735000Y-77377616D01*
X131735000Y-77377612D01*
X131692354Y-77163217D01*
X131529905Y-76920095D01*
X131468537Y-76879091D01*
X131399447Y-76810000D01*
X132046289Y-76810000D01*
X132313720Y-77077431D01*
G36*
X111822998Y-82340000D02*
X111684250Y-82340000D01*
X111822998Y-82201252D01*
X111822998Y-82340000D01*
X111822998Y-82340000D01*
G37*
X111822998Y-82340000D02*
X111684250Y-82340000D01*
X111822998Y-82201252D01*
X111822998Y-82340000D01*
G36*
X112215750Y-82340000D02*
X112077002Y-82340000D01*
X112077002Y-82201252D01*
X112215750Y-82340000D01*
X112215750Y-82340000D01*
G37*
X112215750Y-82340000D02*
X112077002Y-82340000D01*
X112077002Y-82201252D01*
X112215750Y-82340000D01*
G36*
X112077000Y-79473000D02*
X112097000Y-79473000D01*
X112097000Y-79727000D01*
X112077000Y-79727000D01*
X112077000Y-80973000D01*
X112097000Y-80973000D01*
X112097000Y-81227000D01*
X112077000Y-81227000D01*
X112077000Y-81247000D01*
X111823000Y-81247000D01*
X111823000Y-81227000D01*
X111803000Y-81227000D01*
X111803000Y-80973000D01*
X111823000Y-80973000D01*
X111823000Y-79727000D01*
X111803000Y-79727000D01*
X111803000Y-79473000D01*
X111823000Y-79473000D01*
X111823000Y-79459999D01*
X112077000Y-79459999D01*
X112077000Y-79473000D01*
X112077000Y-79473000D01*
G37*
X112077000Y-79473000D02*
X112097000Y-79473000D01*
X112097000Y-79727000D01*
X112077000Y-79727000D01*
X112077000Y-80973000D01*
X112097000Y-80973000D01*
X112097000Y-81227000D01*
X112077000Y-81227000D01*
X112077000Y-81247000D01*
X111823000Y-81247000D01*
X111823000Y-81227000D01*
X111803000Y-81227000D01*
X111803000Y-80973000D01*
X111823000Y-80973000D01*
X111823000Y-79727000D01*
X111803000Y-79727000D01*
X111803000Y-79473000D01*
X111823000Y-79473000D01*
X111823000Y-79459999D01*
X112077000Y-79459999D01*
X112077000Y-79473000D01*
G04 #@! TD*
M02*
