G04 #@! TF.GenerationSoftware,KiCad,Pcbnew,5.0.2-bee76a0~70~ubuntu16.04.1*
G04 #@! TF.CreationDate,2019-01-30T15:52:25+01:00*
G04 #@! TF.ProjectId,Lab1,4c616231-2e6b-4696-9361-645f70636258,rev?*
G04 #@! TF.SameCoordinates,Original*
G04 #@! TF.FileFunction,Copper,L2,Bot*
G04 #@! TF.FilePolarity,Positive*
%FSLAX46Y46*%
G04 Gerber Fmt 4.6, Leading zero omitted, Abs format (unit mm)*
G04 Created by KiCad (PCBNEW 5.0.2-bee76a0~70~ubuntu16.04.1) date ons 30 jan 2019 15:52:25*
%MOMM*%
%LPD*%
G01*
G04 APERTURE LIST*
G04 #@! TA.AperFunction,ComponentPad*
%ADD10O,1.700000X1.700000*%
G04 #@! TD*
G04 #@! TA.AperFunction,ComponentPad*
%ADD11R,1.700000X1.700000*%
G04 #@! TD*
G04 #@! TA.AperFunction,ViaPad*
%ADD12C,0.800000*%
G04 #@! TD*
G04 #@! TA.AperFunction,Conductor*
%ADD13C,0.250000*%
G04 #@! TD*
G04 #@! TA.AperFunction,Conductor*
%ADD14C,0.254000*%
G04 #@! TD*
G04 APERTURE END LIST*
D10*
G04 #@! TO.P,J2,6*
G04 #@! TO.N,/SWO*
X137000000Y-88900000D03*
G04 #@! TO.P,J2,5*
G04 #@! TO.N,/NRST*
X137000000Y-86360000D03*
G04 #@! TO.P,J2,4*
G04 #@! TO.N,/SWDIO*
X137000000Y-83820000D03*
G04 #@! TO.P,J2,3*
G04 #@! TO.N,GND*
X137000000Y-81280000D03*
G04 #@! TO.P,J2,2*
G04 #@! TO.N,/SWCLK*
X137000000Y-78740000D03*
D11*
G04 #@! TO.P,J2,1*
G04 #@! TO.N,+3V3*
X137000000Y-76200000D03*
G04 #@! TD*
D12*
G04 #@! TO.N,GND*
X134900000Y-81100000D03*
X132500000Y-78800000D03*
X121600000Y-84900000D03*
X121600000Y-86900000D03*
X127100000Y-90700000D03*
X133100000Y-90800000D03*
X125300000Y-98300000D03*
X138300000Y-98300000D03*
X111800000Y-90500000D03*
X106800000Y-87400000D03*
X102300000Y-80300000D03*
X102300000Y-70800000D03*
X111900000Y-82100000D03*
X137200000Y-62600000D03*
X137200000Y-67200000D03*
X130200000Y-62600000D03*
X112500000Y-62700000D03*
X102700000Y-62700000D03*
X133400000Y-85200000D03*
X134400000Y-73000000D03*
X108300000Y-98500000D03*
X121800000Y-62600000D03*
G04 #@! TO.N,+3V3*
X118400000Y-92700000D03*
X117900000Y-86200000D03*
X128500000Y-86100000D03*
X132900000Y-76200000D03*
X115700000Y-70500000D03*
G04 #@! TD*
D13*
G04 #@! TO.N,+3V3*
X118400000Y-92134315D02*
X117200000Y-90934315D01*
X118400000Y-92700000D02*
X118400000Y-92134315D01*
X117200000Y-90934315D02*
X117200000Y-87000000D01*
X117900000Y-86300000D02*
X117900000Y-86200000D01*
X117200000Y-87000000D02*
X117900000Y-86300000D01*
X122465685Y-92134315D02*
X128500000Y-86100000D01*
X118400000Y-92134315D02*
X122465685Y-92134315D01*
X128500000Y-80600000D02*
X132900000Y-76200000D01*
X128500000Y-86100000D02*
X128500000Y-80600000D01*
X115700000Y-71065685D02*
X114800000Y-71965685D01*
X115700000Y-70500000D02*
X115700000Y-71065685D01*
X114800000Y-84600000D02*
X117200000Y-87000000D01*
X114800000Y-71965685D02*
X114800000Y-84600000D01*
G04 #@! TD*
D14*
G04 #@! TO.N,GND*
G36*
X139290001Y-99290000D02*
X100710000Y-99290000D01*
X100710000Y-96074234D01*
X104515000Y-96074234D01*
X104515000Y-96525766D01*
X104687793Y-96942926D01*
X105007074Y-97262207D01*
X105424234Y-97435000D01*
X105875766Y-97435000D01*
X106292926Y-97262207D01*
X106612207Y-96942926D01*
X106785000Y-96525766D01*
X106785000Y-96074234D01*
X106612207Y-95657074D01*
X106292926Y-95337793D01*
X105875766Y-95165000D01*
X105424234Y-95165000D01*
X105007074Y-95337793D01*
X104687793Y-95657074D01*
X104515000Y-96074234D01*
X100710000Y-96074234D01*
X100710000Y-90074234D01*
X104515000Y-90074234D01*
X104515000Y-90525766D01*
X104687793Y-90942926D01*
X105007074Y-91262207D01*
X105424234Y-91435000D01*
X105875766Y-91435000D01*
X106292926Y-91262207D01*
X106612207Y-90942926D01*
X106785000Y-90525766D01*
X106785000Y-90074234D01*
X106612207Y-89657074D01*
X106292926Y-89337793D01*
X105875766Y-89165000D01*
X105424234Y-89165000D01*
X105007074Y-89337793D01*
X104687793Y-89657074D01*
X104515000Y-90074234D01*
X100710000Y-90074234D01*
X100710000Y-71965685D01*
X114025112Y-71965685D01*
X114040000Y-72040532D01*
X114040001Y-84525148D01*
X114025112Y-84600000D01*
X114084097Y-84896537D01*
X114196661Y-85065000D01*
X114252072Y-85147929D01*
X114315528Y-85190329D01*
X116440001Y-87314803D01*
X116440000Y-90859468D01*
X116425112Y-90934315D01*
X116440000Y-91009162D01*
X116440000Y-91009166D01*
X116484096Y-91230851D01*
X116652071Y-91482244D01*
X116715530Y-91524646D01*
X117458728Y-92267845D01*
X117365000Y-92494126D01*
X117365000Y-92905874D01*
X117522569Y-93286280D01*
X117813720Y-93577431D01*
X118194126Y-93735000D01*
X118605874Y-93735000D01*
X118986280Y-93577431D01*
X119277431Y-93286280D01*
X119435000Y-92905874D01*
X119435000Y-92894315D01*
X122390838Y-92894315D01*
X122465685Y-92909203D01*
X122540532Y-92894315D01*
X122540537Y-92894315D01*
X122762222Y-92850219D01*
X123013614Y-92682244D01*
X123056016Y-92618785D01*
X128539802Y-87135000D01*
X128705874Y-87135000D01*
X129086280Y-86977431D01*
X129377431Y-86686280D01*
X129535000Y-86305874D01*
X129535000Y-85894126D01*
X129377431Y-85513720D01*
X129260000Y-85396289D01*
X129260000Y-83820000D01*
X135485908Y-83820000D01*
X135601161Y-84399418D01*
X135929375Y-84890625D01*
X136227761Y-85090000D01*
X135929375Y-85289375D01*
X135601161Y-85780582D01*
X135485908Y-86360000D01*
X135601161Y-86939418D01*
X135929375Y-87430625D01*
X136227761Y-87630000D01*
X135929375Y-87829375D01*
X135601161Y-88320582D01*
X135485908Y-88900000D01*
X135601161Y-89479418D01*
X135929375Y-89970625D01*
X136420582Y-90298839D01*
X136853744Y-90385000D01*
X137146256Y-90385000D01*
X137579418Y-90298839D01*
X138070625Y-89970625D01*
X138398839Y-89479418D01*
X138514092Y-88900000D01*
X138398839Y-88320582D01*
X138070625Y-87829375D01*
X137772239Y-87630000D01*
X138070625Y-87430625D01*
X138398839Y-86939418D01*
X138514092Y-86360000D01*
X138398839Y-85780582D01*
X138070625Y-85289375D01*
X137772239Y-85090000D01*
X138070625Y-84890625D01*
X138398839Y-84399418D01*
X138514092Y-83820000D01*
X138398839Y-83240582D01*
X138070625Y-82749375D01*
X137751522Y-82536157D01*
X137881358Y-82475183D01*
X138271645Y-82046924D01*
X138441476Y-81636890D01*
X138320155Y-81407000D01*
X137127000Y-81407000D01*
X137127000Y-81427000D01*
X136873000Y-81427000D01*
X136873000Y-81407000D01*
X135679845Y-81407000D01*
X135558524Y-81636890D01*
X135728355Y-82046924D01*
X136118642Y-82475183D01*
X136248478Y-82536157D01*
X135929375Y-82749375D01*
X135601161Y-83240582D01*
X135485908Y-83820000D01*
X129260000Y-83820000D01*
X129260000Y-80914801D01*
X131434801Y-78740000D01*
X135485908Y-78740000D01*
X135601161Y-79319418D01*
X135929375Y-79810625D01*
X136248478Y-80023843D01*
X136118642Y-80084817D01*
X135728355Y-80513076D01*
X135558524Y-80923110D01*
X135679845Y-81153000D01*
X136873000Y-81153000D01*
X136873000Y-81133000D01*
X137127000Y-81133000D01*
X137127000Y-81153000D01*
X138320155Y-81153000D01*
X138441476Y-80923110D01*
X138271645Y-80513076D01*
X137881358Y-80084817D01*
X137751522Y-80023843D01*
X138070625Y-79810625D01*
X138398839Y-79319418D01*
X138514092Y-78740000D01*
X138398839Y-78160582D01*
X138070625Y-77669375D01*
X138052381Y-77657184D01*
X138097765Y-77648157D01*
X138307809Y-77507809D01*
X138448157Y-77297765D01*
X138497440Y-77050000D01*
X138497440Y-75350000D01*
X138448157Y-75102235D01*
X138307809Y-74892191D01*
X138097765Y-74751843D01*
X137850000Y-74702560D01*
X136150000Y-74702560D01*
X135902235Y-74751843D01*
X135692191Y-74892191D01*
X135551843Y-75102235D01*
X135502560Y-75350000D01*
X135502560Y-77050000D01*
X135551843Y-77297765D01*
X135692191Y-77507809D01*
X135902235Y-77648157D01*
X135947619Y-77657184D01*
X135929375Y-77669375D01*
X135601161Y-78160582D01*
X135485908Y-78740000D01*
X131434801Y-78740000D01*
X132939802Y-77235000D01*
X133105874Y-77235000D01*
X133486280Y-77077431D01*
X133777431Y-76786280D01*
X133935000Y-76405874D01*
X133935000Y-75994126D01*
X133777431Y-75613720D01*
X133486280Y-75322569D01*
X133105874Y-75165000D01*
X132694126Y-75165000D01*
X132313720Y-75322569D01*
X132022569Y-75613720D01*
X131865000Y-75994126D01*
X131865000Y-76160198D01*
X128015528Y-80009671D01*
X127952072Y-80052071D01*
X127909672Y-80115527D01*
X127909671Y-80115528D01*
X127784097Y-80303463D01*
X127725112Y-80600000D01*
X127740001Y-80674852D01*
X127740000Y-85396289D01*
X127622569Y-85513720D01*
X127465000Y-85894126D01*
X127465000Y-86060198D01*
X122150884Y-91374315D01*
X118714802Y-91374315D01*
X117960000Y-90619514D01*
X117960000Y-87314802D01*
X118039802Y-87235000D01*
X118105874Y-87235000D01*
X118486280Y-87077431D01*
X118777431Y-86786280D01*
X118935000Y-86405874D01*
X118935000Y-85994126D01*
X118777431Y-85613720D01*
X118486280Y-85322569D01*
X118105874Y-85165000D01*
X117694126Y-85165000D01*
X117313720Y-85322569D01*
X117022569Y-85613720D01*
X116983308Y-85708506D01*
X115560000Y-84285199D01*
X115560000Y-72280486D01*
X116184473Y-71656014D01*
X116247929Y-71613614D01*
X116415904Y-71362222D01*
X116444314Y-71219397D01*
X116577431Y-71086280D01*
X116735000Y-70705874D01*
X116735000Y-70294126D01*
X116577431Y-69913720D01*
X116286280Y-69622569D01*
X115905874Y-69465000D01*
X115494126Y-69465000D01*
X115113720Y-69622569D01*
X114822569Y-69913720D01*
X114665000Y-70294126D01*
X114665000Y-70705874D01*
X114758728Y-70932155D01*
X114315530Y-71375354D01*
X114252071Y-71417756D01*
X114084096Y-71669149D01*
X114040000Y-71890834D01*
X114040000Y-71890838D01*
X114025112Y-71965685D01*
X100710000Y-71965685D01*
X100710000Y-60710000D01*
X139290000Y-60710000D01*
X139290001Y-99290000D01*
X139290001Y-99290000D01*
G37*
X139290001Y-99290000D02*
X100710000Y-99290000D01*
X100710000Y-96074234D01*
X104515000Y-96074234D01*
X104515000Y-96525766D01*
X104687793Y-96942926D01*
X105007074Y-97262207D01*
X105424234Y-97435000D01*
X105875766Y-97435000D01*
X106292926Y-97262207D01*
X106612207Y-96942926D01*
X106785000Y-96525766D01*
X106785000Y-96074234D01*
X106612207Y-95657074D01*
X106292926Y-95337793D01*
X105875766Y-95165000D01*
X105424234Y-95165000D01*
X105007074Y-95337793D01*
X104687793Y-95657074D01*
X104515000Y-96074234D01*
X100710000Y-96074234D01*
X100710000Y-90074234D01*
X104515000Y-90074234D01*
X104515000Y-90525766D01*
X104687793Y-90942926D01*
X105007074Y-91262207D01*
X105424234Y-91435000D01*
X105875766Y-91435000D01*
X106292926Y-91262207D01*
X106612207Y-90942926D01*
X106785000Y-90525766D01*
X106785000Y-90074234D01*
X106612207Y-89657074D01*
X106292926Y-89337793D01*
X105875766Y-89165000D01*
X105424234Y-89165000D01*
X105007074Y-89337793D01*
X104687793Y-89657074D01*
X104515000Y-90074234D01*
X100710000Y-90074234D01*
X100710000Y-71965685D01*
X114025112Y-71965685D01*
X114040000Y-72040532D01*
X114040001Y-84525148D01*
X114025112Y-84600000D01*
X114084097Y-84896537D01*
X114196661Y-85065000D01*
X114252072Y-85147929D01*
X114315528Y-85190329D01*
X116440001Y-87314803D01*
X116440000Y-90859468D01*
X116425112Y-90934315D01*
X116440000Y-91009162D01*
X116440000Y-91009166D01*
X116484096Y-91230851D01*
X116652071Y-91482244D01*
X116715530Y-91524646D01*
X117458728Y-92267845D01*
X117365000Y-92494126D01*
X117365000Y-92905874D01*
X117522569Y-93286280D01*
X117813720Y-93577431D01*
X118194126Y-93735000D01*
X118605874Y-93735000D01*
X118986280Y-93577431D01*
X119277431Y-93286280D01*
X119435000Y-92905874D01*
X119435000Y-92894315D01*
X122390838Y-92894315D01*
X122465685Y-92909203D01*
X122540532Y-92894315D01*
X122540537Y-92894315D01*
X122762222Y-92850219D01*
X123013614Y-92682244D01*
X123056016Y-92618785D01*
X128539802Y-87135000D01*
X128705874Y-87135000D01*
X129086280Y-86977431D01*
X129377431Y-86686280D01*
X129535000Y-86305874D01*
X129535000Y-85894126D01*
X129377431Y-85513720D01*
X129260000Y-85396289D01*
X129260000Y-83820000D01*
X135485908Y-83820000D01*
X135601161Y-84399418D01*
X135929375Y-84890625D01*
X136227761Y-85090000D01*
X135929375Y-85289375D01*
X135601161Y-85780582D01*
X135485908Y-86360000D01*
X135601161Y-86939418D01*
X135929375Y-87430625D01*
X136227761Y-87630000D01*
X135929375Y-87829375D01*
X135601161Y-88320582D01*
X135485908Y-88900000D01*
X135601161Y-89479418D01*
X135929375Y-89970625D01*
X136420582Y-90298839D01*
X136853744Y-90385000D01*
X137146256Y-90385000D01*
X137579418Y-90298839D01*
X138070625Y-89970625D01*
X138398839Y-89479418D01*
X138514092Y-88900000D01*
X138398839Y-88320582D01*
X138070625Y-87829375D01*
X137772239Y-87630000D01*
X138070625Y-87430625D01*
X138398839Y-86939418D01*
X138514092Y-86360000D01*
X138398839Y-85780582D01*
X138070625Y-85289375D01*
X137772239Y-85090000D01*
X138070625Y-84890625D01*
X138398839Y-84399418D01*
X138514092Y-83820000D01*
X138398839Y-83240582D01*
X138070625Y-82749375D01*
X137751522Y-82536157D01*
X137881358Y-82475183D01*
X138271645Y-82046924D01*
X138441476Y-81636890D01*
X138320155Y-81407000D01*
X137127000Y-81407000D01*
X137127000Y-81427000D01*
X136873000Y-81427000D01*
X136873000Y-81407000D01*
X135679845Y-81407000D01*
X135558524Y-81636890D01*
X135728355Y-82046924D01*
X136118642Y-82475183D01*
X136248478Y-82536157D01*
X135929375Y-82749375D01*
X135601161Y-83240582D01*
X135485908Y-83820000D01*
X129260000Y-83820000D01*
X129260000Y-80914801D01*
X131434801Y-78740000D01*
X135485908Y-78740000D01*
X135601161Y-79319418D01*
X135929375Y-79810625D01*
X136248478Y-80023843D01*
X136118642Y-80084817D01*
X135728355Y-80513076D01*
X135558524Y-80923110D01*
X135679845Y-81153000D01*
X136873000Y-81153000D01*
X136873000Y-81133000D01*
X137127000Y-81133000D01*
X137127000Y-81153000D01*
X138320155Y-81153000D01*
X138441476Y-80923110D01*
X138271645Y-80513076D01*
X137881358Y-80084817D01*
X137751522Y-80023843D01*
X138070625Y-79810625D01*
X138398839Y-79319418D01*
X138514092Y-78740000D01*
X138398839Y-78160582D01*
X138070625Y-77669375D01*
X138052381Y-77657184D01*
X138097765Y-77648157D01*
X138307809Y-77507809D01*
X138448157Y-77297765D01*
X138497440Y-77050000D01*
X138497440Y-75350000D01*
X138448157Y-75102235D01*
X138307809Y-74892191D01*
X138097765Y-74751843D01*
X137850000Y-74702560D01*
X136150000Y-74702560D01*
X135902235Y-74751843D01*
X135692191Y-74892191D01*
X135551843Y-75102235D01*
X135502560Y-75350000D01*
X135502560Y-77050000D01*
X135551843Y-77297765D01*
X135692191Y-77507809D01*
X135902235Y-77648157D01*
X135947619Y-77657184D01*
X135929375Y-77669375D01*
X135601161Y-78160582D01*
X135485908Y-78740000D01*
X131434801Y-78740000D01*
X132939802Y-77235000D01*
X133105874Y-77235000D01*
X133486280Y-77077431D01*
X133777431Y-76786280D01*
X133935000Y-76405874D01*
X133935000Y-75994126D01*
X133777431Y-75613720D01*
X133486280Y-75322569D01*
X133105874Y-75165000D01*
X132694126Y-75165000D01*
X132313720Y-75322569D01*
X132022569Y-75613720D01*
X131865000Y-75994126D01*
X131865000Y-76160198D01*
X128015528Y-80009671D01*
X127952072Y-80052071D01*
X127909672Y-80115527D01*
X127909671Y-80115528D01*
X127784097Y-80303463D01*
X127725112Y-80600000D01*
X127740001Y-80674852D01*
X127740000Y-85396289D01*
X127622569Y-85513720D01*
X127465000Y-85894126D01*
X127465000Y-86060198D01*
X122150884Y-91374315D01*
X118714802Y-91374315D01*
X117960000Y-90619514D01*
X117960000Y-87314802D01*
X118039802Y-87235000D01*
X118105874Y-87235000D01*
X118486280Y-87077431D01*
X118777431Y-86786280D01*
X118935000Y-86405874D01*
X118935000Y-85994126D01*
X118777431Y-85613720D01*
X118486280Y-85322569D01*
X118105874Y-85165000D01*
X117694126Y-85165000D01*
X117313720Y-85322569D01*
X117022569Y-85613720D01*
X116983308Y-85708506D01*
X115560000Y-84285199D01*
X115560000Y-72280486D01*
X116184473Y-71656014D01*
X116247929Y-71613614D01*
X116415904Y-71362222D01*
X116444314Y-71219397D01*
X116577431Y-71086280D01*
X116735000Y-70705874D01*
X116735000Y-70294126D01*
X116577431Y-69913720D01*
X116286280Y-69622569D01*
X115905874Y-69465000D01*
X115494126Y-69465000D01*
X115113720Y-69622569D01*
X114822569Y-69913720D01*
X114665000Y-70294126D01*
X114665000Y-70705874D01*
X114758728Y-70932155D01*
X114315530Y-71375354D01*
X114252071Y-71417756D01*
X114084096Y-71669149D01*
X114040000Y-71890834D01*
X114040000Y-71890838D01*
X114025112Y-71965685D01*
X100710000Y-71965685D01*
X100710000Y-60710000D01*
X139290000Y-60710000D01*
X139290001Y-99290000D01*
G04 #@! TD*
M02*
