M48
;DRILL file {KiCad 5.0.2-bee76a0~70~ubuntu16.04.1} date ons 30 jan 2019 15:54:23
;FORMAT={-:-/ absolute / inch / decimal}
FMAT,2
INCH,TZ
T1C0.0118
T2C0.0394
%
G90
G05
T1
X4.0276Y-2.7874
X4.0276Y-3.1614
X4.0433Y-2.4685
X4.2047Y-3.4409
X4.2638Y-3.878
X4.4016Y-3.563
X4.4055Y-3.2323
X4.4291Y-2.4685
X4.5551Y-2.7756
X4.6417Y-3.3937
X4.6614Y-3.6496
X4.7874Y-3.3425
X4.7874Y-3.4213
X4.7953Y-2.4646
X4.9331Y-3.8701
X5.0039Y-3.5709
X5.0591Y-3.3898
X5.126Y-2.4646
X5.2165Y-3.1024
X5.2323Y-3.
X5.2402Y-3.5748
X5.252Y-3.3543
X5.2913Y-2.874
X5.311Y-3.1929
X5.4016Y-2.4646
X5.4016Y-2.6457
X5.4449Y-3.8701
T2
X5.3937Y-3.
X5.3937Y-3.1
X5.3937Y-3.2
X5.3937Y-3.3
X5.3937Y-3.4
X5.3937Y-3.5
T0
M30
