G04 #@! TF.GenerationSoftware,KiCad,Pcbnew,5.0.2-bee76a0~70~ubuntu16.04.1*
G04 #@! TF.CreationDate,2019-01-30T15:52:25+01:00*
G04 #@! TF.ProjectId,Lab1,4c616231-2e6b-4696-9361-645f70636258,rev?*
G04 #@! TF.SameCoordinates,Original*
G04 #@! TF.FileFunction,Soldermask,Bot*
G04 #@! TF.FilePolarity,Negative*
%FSLAX46Y46*%
G04 Gerber Fmt 4.6, Leading zero omitted, Abs format (unit mm)*
G04 Created by KiCad (PCBNEW 5.0.2-bee76a0~70~ubuntu16.04.1) date ons 30 jan 2019 15:52:25*
%MOMM*%
%LPD*%
G01*
G04 APERTURE LIST*
%ADD10C,0.100000*%
G04 APERTURE END LIST*
D10*
G36*
X105810721Y-95770174D02*
X105910995Y-95811709D01*
X106001245Y-95872012D01*
X106077988Y-95948755D01*
X106138291Y-96039005D01*
X106179826Y-96139279D01*
X106201000Y-96245730D01*
X106201000Y-96354270D01*
X106179826Y-96460721D01*
X106138291Y-96560995D01*
X106077988Y-96651245D01*
X106001245Y-96727988D01*
X105910995Y-96788291D01*
X105810721Y-96829826D01*
X105704270Y-96851000D01*
X105595730Y-96851000D01*
X105489279Y-96829826D01*
X105389005Y-96788291D01*
X105298755Y-96727988D01*
X105222012Y-96651245D01*
X105161709Y-96560995D01*
X105120174Y-96460721D01*
X105099000Y-96354270D01*
X105099000Y-96245730D01*
X105120174Y-96139279D01*
X105161709Y-96039005D01*
X105222012Y-95948755D01*
X105298755Y-95872012D01*
X105389005Y-95811709D01*
X105489279Y-95770174D01*
X105595730Y-95749000D01*
X105704270Y-95749000D01*
X105810721Y-95770174D01*
X105810721Y-95770174D01*
G37*
G36*
X105810721Y-89770174D02*
X105910995Y-89811709D01*
X106001245Y-89872012D01*
X106077988Y-89948755D01*
X106138291Y-90039005D01*
X106179826Y-90139279D01*
X106201000Y-90245730D01*
X106201000Y-90354270D01*
X106179826Y-90460721D01*
X106138291Y-90560995D01*
X106077988Y-90651245D01*
X106001245Y-90727988D01*
X105910995Y-90788291D01*
X105810721Y-90829826D01*
X105704270Y-90851000D01*
X105595730Y-90851000D01*
X105489279Y-90829826D01*
X105389005Y-90788291D01*
X105298755Y-90727988D01*
X105222012Y-90651245D01*
X105161709Y-90560995D01*
X105120174Y-90460721D01*
X105099000Y-90354270D01*
X105099000Y-90245730D01*
X105120174Y-90139279D01*
X105161709Y-90039005D01*
X105222012Y-89948755D01*
X105298755Y-89872012D01*
X105389005Y-89811709D01*
X105489279Y-89770174D01*
X105595730Y-89749000D01*
X105704270Y-89749000D01*
X105810721Y-89770174D01*
X105810721Y-89770174D01*
G37*
G36*
X137110443Y-88005519D02*
X137176627Y-88012037D01*
X137289853Y-88046384D01*
X137346467Y-88063557D01*
X137485087Y-88137652D01*
X137502991Y-88147222D01*
X137538729Y-88176552D01*
X137640186Y-88259814D01*
X137723448Y-88361271D01*
X137752778Y-88397009D01*
X137752779Y-88397011D01*
X137836443Y-88553533D01*
X137836443Y-88553534D01*
X137887963Y-88723373D01*
X137905359Y-88900000D01*
X137887963Y-89076627D01*
X137853616Y-89189853D01*
X137836443Y-89246467D01*
X137762348Y-89385087D01*
X137752778Y-89402991D01*
X137723448Y-89438729D01*
X137640186Y-89540186D01*
X137538729Y-89623448D01*
X137502991Y-89652778D01*
X137502989Y-89652779D01*
X137346467Y-89736443D01*
X137305071Y-89749000D01*
X137176627Y-89787963D01*
X137110443Y-89794481D01*
X137044260Y-89801000D01*
X136955740Y-89801000D01*
X136889557Y-89794481D01*
X136823373Y-89787963D01*
X136694929Y-89749000D01*
X136653533Y-89736443D01*
X136497011Y-89652779D01*
X136497009Y-89652778D01*
X136461271Y-89623448D01*
X136359814Y-89540186D01*
X136276552Y-89438729D01*
X136247222Y-89402991D01*
X136237652Y-89385087D01*
X136163557Y-89246467D01*
X136146384Y-89189853D01*
X136112037Y-89076627D01*
X136094641Y-88900000D01*
X136112037Y-88723373D01*
X136163557Y-88553534D01*
X136163557Y-88553533D01*
X136247221Y-88397011D01*
X136247222Y-88397009D01*
X136276552Y-88361271D01*
X136359814Y-88259814D01*
X136461271Y-88176552D01*
X136497009Y-88147222D01*
X136514913Y-88137652D01*
X136653533Y-88063557D01*
X136710147Y-88046384D01*
X136823373Y-88012037D01*
X136889557Y-88005519D01*
X136955740Y-87999000D01*
X137044260Y-87999000D01*
X137110443Y-88005519D01*
X137110443Y-88005519D01*
G37*
G36*
X137110442Y-85465518D02*
X137176627Y-85472037D01*
X137289853Y-85506384D01*
X137346467Y-85523557D01*
X137485087Y-85597652D01*
X137502991Y-85607222D01*
X137538729Y-85636552D01*
X137640186Y-85719814D01*
X137723448Y-85821271D01*
X137752778Y-85857009D01*
X137752779Y-85857011D01*
X137836443Y-86013533D01*
X137836443Y-86013534D01*
X137887963Y-86183373D01*
X137905359Y-86360000D01*
X137887963Y-86536627D01*
X137853616Y-86649853D01*
X137836443Y-86706467D01*
X137762348Y-86845087D01*
X137752778Y-86862991D01*
X137723448Y-86898729D01*
X137640186Y-87000186D01*
X137538729Y-87083448D01*
X137502991Y-87112778D01*
X137502989Y-87112779D01*
X137346467Y-87196443D01*
X137289853Y-87213616D01*
X137176627Y-87247963D01*
X137110442Y-87254482D01*
X137044260Y-87261000D01*
X136955740Y-87261000D01*
X136889558Y-87254482D01*
X136823373Y-87247963D01*
X136710147Y-87213616D01*
X136653533Y-87196443D01*
X136497011Y-87112779D01*
X136497009Y-87112778D01*
X136461271Y-87083448D01*
X136359814Y-87000186D01*
X136276552Y-86898729D01*
X136247222Y-86862991D01*
X136237652Y-86845087D01*
X136163557Y-86706467D01*
X136146384Y-86649853D01*
X136112037Y-86536627D01*
X136094641Y-86360000D01*
X136112037Y-86183373D01*
X136163557Y-86013534D01*
X136163557Y-86013533D01*
X136247221Y-85857011D01*
X136247222Y-85857009D01*
X136276552Y-85821271D01*
X136359814Y-85719814D01*
X136461271Y-85636552D01*
X136497009Y-85607222D01*
X136514913Y-85597652D01*
X136653533Y-85523557D01*
X136710147Y-85506384D01*
X136823373Y-85472037D01*
X136889558Y-85465518D01*
X136955740Y-85459000D01*
X137044260Y-85459000D01*
X137110442Y-85465518D01*
X137110442Y-85465518D01*
G37*
G36*
X137110443Y-82925519D02*
X137176627Y-82932037D01*
X137289853Y-82966384D01*
X137346467Y-82983557D01*
X137485087Y-83057652D01*
X137502991Y-83067222D01*
X137538729Y-83096552D01*
X137640186Y-83179814D01*
X137723448Y-83281271D01*
X137752778Y-83317009D01*
X137752779Y-83317011D01*
X137836443Y-83473533D01*
X137836443Y-83473534D01*
X137887963Y-83643373D01*
X137905359Y-83820000D01*
X137887963Y-83996627D01*
X137853616Y-84109853D01*
X137836443Y-84166467D01*
X137762348Y-84305087D01*
X137752778Y-84322991D01*
X137723448Y-84358729D01*
X137640186Y-84460186D01*
X137538729Y-84543448D01*
X137502991Y-84572778D01*
X137502989Y-84572779D01*
X137346467Y-84656443D01*
X137289853Y-84673616D01*
X137176627Y-84707963D01*
X137110443Y-84714481D01*
X137044260Y-84721000D01*
X136955740Y-84721000D01*
X136889557Y-84714481D01*
X136823373Y-84707963D01*
X136710147Y-84673616D01*
X136653533Y-84656443D01*
X136497011Y-84572779D01*
X136497009Y-84572778D01*
X136461271Y-84543448D01*
X136359814Y-84460186D01*
X136276552Y-84358729D01*
X136247222Y-84322991D01*
X136237652Y-84305087D01*
X136163557Y-84166467D01*
X136146384Y-84109853D01*
X136112037Y-83996627D01*
X136094641Y-83820000D01*
X136112037Y-83643373D01*
X136163557Y-83473534D01*
X136163557Y-83473533D01*
X136247221Y-83317011D01*
X136247222Y-83317009D01*
X136276552Y-83281271D01*
X136359814Y-83179814D01*
X136461271Y-83096552D01*
X136497009Y-83067222D01*
X136514913Y-83057652D01*
X136653533Y-82983557D01*
X136710147Y-82966384D01*
X136823373Y-82932037D01*
X136889557Y-82925519D01*
X136955740Y-82919000D01*
X137044260Y-82919000D01*
X137110443Y-82925519D01*
X137110443Y-82925519D01*
G37*
G36*
X137110442Y-80385518D02*
X137176627Y-80392037D01*
X137289853Y-80426384D01*
X137346467Y-80443557D01*
X137485087Y-80517652D01*
X137502991Y-80527222D01*
X137538729Y-80556552D01*
X137640186Y-80639814D01*
X137723448Y-80741271D01*
X137752778Y-80777009D01*
X137752779Y-80777011D01*
X137836443Y-80933533D01*
X137836443Y-80933534D01*
X137887963Y-81103373D01*
X137905359Y-81280000D01*
X137887963Y-81456627D01*
X137853616Y-81569853D01*
X137836443Y-81626467D01*
X137762348Y-81765087D01*
X137752778Y-81782991D01*
X137723448Y-81818729D01*
X137640186Y-81920186D01*
X137538729Y-82003448D01*
X137502991Y-82032778D01*
X137502989Y-82032779D01*
X137346467Y-82116443D01*
X137289853Y-82133616D01*
X137176627Y-82167963D01*
X137110443Y-82174481D01*
X137044260Y-82181000D01*
X136955740Y-82181000D01*
X136889557Y-82174481D01*
X136823373Y-82167963D01*
X136710147Y-82133616D01*
X136653533Y-82116443D01*
X136497011Y-82032779D01*
X136497009Y-82032778D01*
X136461271Y-82003448D01*
X136359814Y-81920186D01*
X136276552Y-81818729D01*
X136247222Y-81782991D01*
X136237652Y-81765087D01*
X136163557Y-81626467D01*
X136146384Y-81569853D01*
X136112037Y-81456627D01*
X136094641Y-81280000D01*
X136112037Y-81103373D01*
X136163557Y-80933534D01*
X136163557Y-80933533D01*
X136247221Y-80777011D01*
X136247222Y-80777009D01*
X136276552Y-80741271D01*
X136359814Y-80639814D01*
X136461271Y-80556552D01*
X136497009Y-80527222D01*
X136514913Y-80517652D01*
X136653533Y-80443557D01*
X136710147Y-80426384D01*
X136823373Y-80392037D01*
X136889558Y-80385518D01*
X136955740Y-80379000D01*
X137044260Y-80379000D01*
X137110442Y-80385518D01*
X137110442Y-80385518D01*
G37*
G36*
X137110443Y-77845519D02*
X137176627Y-77852037D01*
X137289853Y-77886384D01*
X137346467Y-77903557D01*
X137485087Y-77977652D01*
X137502991Y-77987222D01*
X137538729Y-78016552D01*
X137640186Y-78099814D01*
X137723448Y-78201271D01*
X137752778Y-78237009D01*
X137752779Y-78237011D01*
X137836443Y-78393533D01*
X137836443Y-78393534D01*
X137887963Y-78563373D01*
X137905359Y-78740000D01*
X137887963Y-78916627D01*
X137853616Y-79029853D01*
X137836443Y-79086467D01*
X137762348Y-79225087D01*
X137752778Y-79242991D01*
X137723448Y-79278729D01*
X137640186Y-79380186D01*
X137538729Y-79463448D01*
X137502991Y-79492778D01*
X137502989Y-79492779D01*
X137346467Y-79576443D01*
X137289853Y-79593616D01*
X137176627Y-79627963D01*
X137110442Y-79634482D01*
X137044260Y-79641000D01*
X136955740Y-79641000D01*
X136889558Y-79634482D01*
X136823373Y-79627963D01*
X136710147Y-79593616D01*
X136653533Y-79576443D01*
X136497011Y-79492779D01*
X136497009Y-79492778D01*
X136461271Y-79463448D01*
X136359814Y-79380186D01*
X136276552Y-79278729D01*
X136247222Y-79242991D01*
X136237652Y-79225087D01*
X136163557Y-79086467D01*
X136146384Y-79029853D01*
X136112037Y-78916627D01*
X136094641Y-78740000D01*
X136112037Y-78563373D01*
X136163557Y-78393534D01*
X136163557Y-78393533D01*
X136247221Y-78237011D01*
X136247222Y-78237009D01*
X136276552Y-78201271D01*
X136359814Y-78099814D01*
X136461271Y-78016552D01*
X136497009Y-77987222D01*
X136514913Y-77977652D01*
X136653533Y-77903557D01*
X136710147Y-77886384D01*
X136823373Y-77852037D01*
X136889557Y-77845519D01*
X136955740Y-77839000D01*
X137044260Y-77839000D01*
X137110443Y-77845519D01*
X137110443Y-77845519D01*
G37*
G36*
X137901000Y-77101000D02*
X136099000Y-77101000D01*
X136099000Y-75299000D01*
X137901000Y-75299000D01*
X137901000Y-77101000D01*
X137901000Y-77101000D01*
G37*
M02*
